<?xml version="1.0" encoding="UTF-8" standalone="no"?>
<!DOCTYPE svg PUBLIC "-//W3C//DTD SVG 1.1//EN"
 "http://www.w3.org/Graphics/SVG/1.1/DTD/svg11.dtd">
<!-- Generated by graphviz version 2.43.0 (0)
 -->
<!-- Title: /home/runner/work/Simulatio/Simulatio/include/Benchmark/BlockData.hpp Pages: 1 -->
<svg width="1537pt" height="830pt"
 viewBox="0.00 0.00 1537.00 830.00" xmlns="http://www.w3.org/2000/svg" xmlns:xlink="http://www.w3.org/1999/xlink">
<g id="graph0" class="graph" transform="scale(1 1) rotate(0) translate(4 826)">
<title>/home/runner/work/Simulatio/Simulatio/include/Benchmark/BlockData.hpp</title>
<!-- Node1 -->
<g id="node1" class="node">
<title>Node1</title>
<g id="a_node1"><a xlink:title=" ">
<polygon fill="#bfbfbf" stroke="black" points="933.5,-780.5 933.5,-821.5 1096.5,-821.5 1096.5,-780.5 933.5,-780.5"/>
<text text-anchor="start" x="941.5" y="-809.5" font-family="Helvetica,sans-Serif" font-size="10.00">/home/runner/work/Simulatio</text>
<text text-anchor="start" x="941.5" y="-798.5" font-family="Helvetica,sans-Serif" font-size="10.00">/Simulatio/include/Benchmark</text>
<text text-anchor="middle" x="1015" y="-787.5" font-family="Helvetica,sans-Serif" font-size="10.00">/BlockData.hpp</text>
</a>
</g>
</g>
<!-- Node2 -->
<g id="node2" class="node">
<title>Node2</title>
<g id="a_node2"><a xlink:href="_performance_8hpp.html" target="_top" xlink:title=" ">
<polygon fill="none" stroke="black" points="933.5,-702.5 933.5,-743.5 1096.5,-743.5 1096.5,-702.5 933.5,-702.5"/>
<text text-anchor="start" x="941.5" y="-731.5" font-family="Helvetica,sans-Serif" font-size="10.00">/home/runner/work/Simulatio</text>
<text text-anchor="start" x="941.5" y="-720.5" font-family="Helvetica,sans-Serif" font-size="10.00">/Simulatio/include/Benchmark</text>
<text text-anchor="middle" x="1015" y="-709.5" font-family="Helvetica,sans-Serif" font-size="10.00">/Performance.hpp</text>
</a>
</g>
</g>
<!-- Node1&#45;&gt;Node2 -->
<g id="edge1" class="edge">
<title>Node1&#45;&gt;Node2</title>
<path fill="none" stroke="midnightblue" d="M1015,-770.3C1015,-761.3 1015,-751.65 1015,-743.51"/>
<polygon fill="midnightblue" stroke="midnightblue" points="1011.5,-770.43 1015,-780.43 1018.5,-770.43 1011.5,-770.43"/>
</g>
<!-- Node3 -->
<g id="node3" class="node">
<title>Node3</title>
<g id="a_node3"><a xlink:href="_recorder_8hpp.html" target="_top" xlink:title=" ">
<polygon fill="none" stroke="black" points="933.5,-624.5 933.5,-665.5 1096.5,-665.5 1096.5,-624.5 933.5,-624.5"/>
<text text-anchor="start" x="941.5" y="-653.5" font-family="Helvetica,sans-Serif" font-size="10.00">/home/runner/work/Simulatio</text>
<text text-anchor="start" x="941.5" y="-642.5" font-family="Helvetica,sans-Serif" font-size="10.00">/Simulatio/include/Benchmark</text>
<text text-anchor="middle" x="1015" y="-631.5" font-family="Helvetica,sans-Serif" font-size="10.00">/Recorder.hpp</text>
</a>
</g>
</g>
<!-- Node2&#45;&gt;Node3 -->
<g id="edge2" class="edge">
<title>Node2&#45;&gt;Node3</title>
<path fill="none" stroke="midnightblue" d="M1015,-692.3C1015,-683.3 1015,-673.65 1015,-665.51"/>
<polygon fill="midnightblue" stroke="midnightblue" points="1011.5,-692.43 1015,-702.43 1018.5,-692.43 1011.5,-692.43"/>
</g>
<!-- Node4 -->
<g id="node4" class="node">
<title>Node4</title>
<g id="a_node4"><a xlink:href="_geometry_8hpp.html" target="_top" xlink:title=" ">
<polygon fill="none" stroke="black" points="936,-546.5 936,-587.5 1094,-587.5 1094,-546.5 936,-546.5"/>
<text text-anchor="start" x="944" y="-575.5" font-family="Helvetica,sans-Serif" font-size="10.00">/home/runner/work/Simulatio</text>
<text text-anchor="start" x="944" y="-564.5" font-family="Helvetica,sans-Serif" font-size="10.00">/Simulatio/include/Geometry</text>
<text text-anchor="middle" x="1015" y="-553.5" font-family="Helvetica,sans-Serif" font-size="10.00">/Geometry.hpp</text>
</a>
</g>
</g>
<!-- Node3&#45;&gt;Node4 -->
<g id="edge3" class="edge">
<title>Node3&#45;&gt;Node4</title>
<path fill="none" stroke="midnightblue" d="M1015,-614.3C1015,-605.3 1015,-595.65 1015,-587.51"/>
<polygon fill="midnightblue" stroke="midnightblue" points="1011.5,-614.43 1015,-624.43 1018.5,-614.43 1011.5,-614.43"/>
</g>
<!-- Node5 -->
<g id="node5" class="node">
<title>Node5</title>
<g id="a_node5"><a xlink:href="_constraint_8hpp.html" target="_top" xlink:title=" ">
<polygon fill="none" stroke="black" points="395.5,-234.5 395.5,-275.5 558.5,-275.5 558.5,-234.5 395.5,-234.5"/>
<text text-anchor="start" x="403.5" y="-263.5" font-family="Helvetica,sans-Serif" font-size="10.00">/home/runner/work/Simulatio</text>
<text text-anchor="start" x="403.5" y="-252.5" font-family="Helvetica,sans-Serif" font-size="10.00">/Simulatio/include/Constraints</text>
<text text-anchor="middle" x="477" y="-241.5" font-family="Helvetica,sans-Serif" font-size="10.00">/Constraint.hpp</text>
</a>
</g>
</g>
<!-- Node4&#45;&gt;Node5 -->
<g id="edge4" class="edge">
<title>Node4&#45;&gt;Node5</title>
<path fill="none" stroke="midnightblue" d="M925.77,-544.77C844.8,-523.31 723.79,-485.63 628,-432 580.33,-405.31 568.25,-395.74 533,-354 512.39,-329.6 495.32,-296.54 485.64,-275.74"/>
<polygon fill="midnightblue" stroke="midnightblue" points="925.38,-548.29 935.94,-547.44 927.15,-541.52 925.38,-548.29"/>
</g>
<!-- Node7 -->
<g id="node7" class="node">
<title>Node7</title>
<g id="a_node7"><a xlink:href="_system_8hpp.html" target="_top" xlink:title=" ">
<polygon fill="none" stroke="black" points="741,-78.5 741,-119.5 899,-119.5 899,-78.5 741,-78.5"/>
<text text-anchor="start" x="749" y="-107.5" font-family="Helvetica,sans-Serif" font-size="10.00">/home/runner/work/Simulatio</text>
<text text-anchor="start" x="749" y="-96.5" font-family="Helvetica,sans-Serif" font-size="10.00">/Simulatio/include/Structures</text>
<text text-anchor="middle" x="820" y="-85.5" font-family="Helvetica,sans-Serif" font-size="10.00">/System.hpp</text>
</a>
</g>
</g>
<!-- Node4&#45;&gt;Node7 -->
<g id="edge43" class="edge">
<title>Node4&#45;&gt;Node7</title>
<path fill="none" stroke="midnightblue" d="M1104.54,-561.39C1201.65,-551 1343,-517.72 1343,-412 1343,-412 1343,-412 1343,-254 1343,-237.19 1378.66,-223.69 1222,-156 1165.56,-131.62 999.28,-114.45 899.13,-106"/>
<polygon fill="midnightblue" stroke="midnightblue" points="1104,-557.93 1094.4,-562.41 1104.7,-564.89 1104,-557.93"/>
</g>
<!-- Node8 -->
<g id="node8" class="node">
<title>Node8</title>
<g id="a_node8"><a xlink:href="_renderer_8hpp.html" target="_top" xlink:title=" ">
<polygon fill="none" stroke="black" points="741,-0.5 741,-41.5 899,-41.5 899,-0.5 741,-0.5"/>
<text text-anchor="start" x="749" y="-29.5" font-family="Helvetica,sans-Serif" font-size="10.00">/home/runner/work/Simulatio</text>
<text text-anchor="start" x="749" y="-18.5" font-family="Helvetica,sans-Serif" font-size="10.00">/Simulatio/include/Renderer</text>
<text text-anchor="middle" x="820" y="-7.5" font-family="Helvetica,sans-Serif" font-size="10.00">/Renderer.hpp</text>
</a>
</g>
</g>
<!-- Node4&#45;&gt;Node8 -->
<g id="edge42" class="edge">
<title>Node4&#45;&gt;Node8</title>
<path fill="none" stroke="midnightblue" d="M925.73,-561.79C677.97,-548.93 0,-505.23 0,-412 0,-412 0,-412 0,-176 0,-101.13 534.84,-46.75 740.63,-28.59"/>
<polygon fill="midnightblue" stroke="midnightblue" points="925.61,-565.29 935.78,-562.31 925.97,-558.3 925.61,-565.29"/>
</g>
<!-- Node12 -->
<g id="node12" class="node">
<title>Node12</title>
<g id="a_node12"><a xlink:href="_corpse_8hpp.html" target="_top" xlink:title=" ">
<polygon fill="none" stroke="black" points="936,-468.5 936,-509.5 1094,-509.5 1094,-468.5 936,-468.5"/>
<text text-anchor="start" x="944" y="-497.5" font-family="Helvetica,sans-Serif" font-size="10.00">/home/runner/work/Simulatio</text>
<text text-anchor="start" x="944" y="-486.5" font-family="Helvetica,sans-Serif" font-size="10.00">/Simulatio/include/Corpses</text>
<text text-anchor="middle" x="1015" y="-475.5" font-family="Helvetica,sans-Serif" font-size="10.00">/Corpse.hpp</text>
</a>
</g>
</g>
<!-- Node4&#45;&gt;Node12 -->
<g id="edge14" class="edge">
<title>Node4&#45;&gt;Node12</title>
<path fill="none" stroke="midnightblue" d="M1015,-536.3C1015,-527.3 1015,-517.65 1015,-509.51"/>
<polygon fill="midnightblue" stroke="midnightblue" points="1011.5,-536.43 1015,-546.43 1018.5,-536.43 1011.5,-536.43"/>
</g>
<!-- Node19 -->
<g id="node19" class="node">
<title>Node19</title>
<g id="a_node19"><a xlink:href="_converter_8hpp.html" target="_top" xlink:title=" ">
<polygon fill="none" stroke="black" points="1371,-390.5 1371,-431.5 1529,-431.5 1529,-390.5 1371,-390.5"/>
<text text-anchor="start" x="1379" y="-419.5" font-family="Helvetica,sans-Serif" font-size="10.00">/home/runner/work/Simulatio</text>
<text text-anchor="start" x="1379" y="-408.5" font-family="Helvetica,sans-Serif" font-size="10.00">/Simulatio/include/Renderer</text>
<text text-anchor="middle" x="1450" y="-397.5" font-family="Helvetica,sans-Serif" font-size="10.00">/Converter.hpp</text>
</a>
</g>
</g>
<!-- Node4&#45;&gt;Node19 -->
<g id="edge40" class="edge">
<title>Node4&#45;&gt;Node19</title>
<path fill="none" stroke="midnightblue" d="M1104.23,-557.89C1190.52,-548.9 1314.29,-532.61 1357,-510 1392.03,-491.45 1421.34,-454.68 1437.22,-431.84"/>
<polygon fill="midnightblue" stroke="midnightblue" points="1103.76,-554.42 1094.17,-558.92 1104.47,-561.38 1103.76,-554.42"/>
</g>
<!-- Node6 -->
<g id="node6" class="node">
<title>Node6</title>
<g id="a_node6"><a xlink:href="_link_8hpp.html" target="_top" xlink:title=" ">
<polygon fill="none" stroke="black" points="66.5,-156.5 66.5,-197.5 229.5,-197.5 229.5,-156.5 66.5,-156.5"/>
<text text-anchor="start" x="74.5" y="-185.5" font-family="Helvetica,sans-Serif" font-size="10.00">/home/runner/work/Simulatio</text>
<text text-anchor="start" x="74.5" y="-174.5" font-family="Helvetica,sans-Serif" font-size="10.00">/Simulatio/include/Constraints</text>
<text text-anchor="middle" x="148" y="-163.5" font-family="Helvetica,sans-Serif" font-size="10.00">/Link.hpp</text>
</a>
</g>
</g>
<!-- Node5&#45;&gt;Node6 -->
<g id="edge5" class="edge">
<title>Node5&#45;&gt;Node6</title>
<path fill="none" stroke="midnightblue" d="M385.31,-232.82C336.45,-221.53 276.86,-207.77 229.61,-196.85"/>
<polygon fill="midnightblue" stroke="midnightblue" points="384.72,-236.28 395.25,-235.12 386.3,-229.45 384.72,-236.28"/>
</g>
<!-- Node5&#45;&gt;Node7 -->
<g id="edge13" class="edge">
<title>Node5&#45;&gt;Node7</title>
<path fill="none" stroke="midnightblue" d="M385.1,-248.09C268.04,-239.62 78.28,-222.3 57,-198 44.7,-183.96 44.29,-169.67 57,-156 102.86,-106.65 555.22,-100.35 740.99,-99.86"/>
<polygon fill="midnightblue" stroke="midnightblue" points="384.92,-251.59 395.14,-248.81 385.42,-244.61 384.92,-251.59"/>
</g>
<!-- Node9 -->
<g id="node9" class="node">
<title>Node9</title>
<g id="a_node9"><a xlink:href="_loose_8hpp.html" target="_top" xlink:title=" ">
<polygon fill="none" stroke="black" points="428.5,-156.5 428.5,-197.5 591.5,-197.5 591.5,-156.5 428.5,-156.5"/>
<text text-anchor="start" x="436.5" y="-185.5" font-family="Helvetica,sans-Serif" font-size="10.00">/home/runner/work/Simulatio</text>
<text text-anchor="start" x="436.5" y="-174.5" font-family="Helvetica,sans-Serif" font-size="10.00">/Simulatio/include/Constraints</text>
<text text-anchor="middle" x="510" y="-163.5" font-family="Helvetica,sans-Serif" font-size="10.00">/Loose.hpp</text>
</a>
</g>
</g>
<!-- Node5&#45;&gt;Node9 -->
<g id="edge8" class="edge">
<title>Node5&#45;&gt;Node9</title>
<path fill="none" stroke="midnightblue" d="M489.52,-225.17C493.53,-215.93 497.88,-205.92 501.53,-197.51"/>
<polygon fill="midnightblue" stroke="midnightblue" points="486.27,-223.86 485.5,-234.43 492.69,-226.65 486.27,-223.86"/>
</g>
<!-- Node10 -->
<g id="node10" class="node">
<title>Node10</title>
<g id="a_node10"><a xlink:href="_slider_8hpp.html" target="_top" xlink:title=" ">
<polygon fill="none" stroke="black" points="247.5,-156.5 247.5,-197.5 410.5,-197.5 410.5,-156.5 247.5,-156.5"/>
<text text-anchor="start" x="255.5" y="-185.5" font-family="Helvetica,sans-Serif" font-size="10.00">/home/runner/work/Simulatio</text>
<text text-anchor="start" x="255.5" y="-174.5" font-family="Helvetica,sans-Serif" font-size="10.00">/Simulatio/include/Constraints</text>
<text text-anchor="middle" x="329" y="-163.5" font-family="Helvetica,sans-Serif" font-size="10.00">/Slider.hpp</text>
</a>
</g>
</g>
<!-- Node5&#45;&gt;Node10 -->
<g id="edge9" class="edge">
<title>Node5&#45;&gt;Node10</title>
<path fill="none" stroke="midnightblue" d="M429.81,-229.77C409.52,-219.35 386.13,-207.34 366.98,-197.51"/>
<polygon fill="midnightblue" stroke="midnightblue" points="428.39,-232.97 438.89,-234.43 431.59,-226.75 428.39,-232.97"/>
</g>
<!-- Node11 -->
<g id="node11" class="node">
<title>Node11</title>
<g id="a_node11"><a xlink:href="_spring_8hpp.html" target="_top" xlink:title=" ">
<polygon fill="none" stroke="black" points="609.5,-156.5 609.5,-197.5 772.5,-197.5 772.5,-156.5 609.5,-156.5"/>
<text text-anchor="start" x="617.5" y="-185.5" font-family="Helvetica,sans-Serif" font-size="10.00">/home/runner/work/Simulatio</text>
<text text-anchor="start" x="617.5" y="-174.5" font-family="Helvetica,sans-Serif" font-size="10.00">/Simulatio/include/Constraints</text>
<text text-anchor="middle" x="691" y="-163.5" font-family="Helvetica,sans-Serif" font-size="10.00">/Spring.hpp</text>
</a>
</g>
</g>
<!-- Node5&#45;&gt;Node11 -->
<g id="edge11" class="edge">
<title>Node5&#45;&gt;Node11</title>
<path fill="none" stroke="midnightblue" d="M541.69,-231.03C571.81,-220.33 607.27,-207.73 636.08,-197.51"/>
<polygon fill="midnightblue" stroke="midnightblue" points="540.36,-227.78 532.11,-234.43 542.71,-234.38 540.36,-227.78"/>
</g>
<!-- Node6&#45;&gt;Node7 -->
<g id="edge6" class="edge">
<title>Node6&#45;&gt;Node7</title>
<path fill="none" stroke="midnightblue" d="M239.97,-155.77C424.07,-127.12 630.15,-111.55 740.54,-104.55"/>
<polygon fill="midnightblue" stroke="midnightblue" points="239.17,-152.36 229.83,-157.37 240.26,-159.27 239.17,-152.36"/>
</g>
<!-- Node7&#45;&gt;Node8 -->
<g id="edge7" class="edge">
<title>Node7&#45;&gt;Node8</title>
<path fill="none" stroke="midnightblue" d="M820,-68.3C820,-59.3 820,-49.65 820,-41.51"/>
<polygon fill="midnightblue" stroke="midnightblue" points="816.5,-68.43 820,-78.43 823.5,-68.43 816.5,-68.43"/>
</g>
<!-- Node10&#45;&gt;Node7 -->
<g id="edge10" class="edge">
<title>Node10&#45;&gt;Node7</title>
<path fill="none" stroke="midnightblue" d="M421.02,-155.69C537.5,-134.96 662.16,-118.69 740.95,-109.15"/>
<polygon fill="midnightblue" stroke="midnightblue" points="420.08,-152.31 410.86,-157.52 421.32,-159.2 420.08,-152.31"/>
</g>
<!-- Node11&#45;&gt;Node7 -->
<g id="edge12" class="edge">
<title>Node11&#45;&gt;Node7</title>
<path fill="none" stroke="midnightblue" d="M733.09,-151.2C750.55,-140.92 770.51,-129.16 786.89,-119.51"/>
<polygon fill="midnightblue" stroke="midnightblue" points="731.06,-148.34 724.22,-156.43 734.61,-154.37 731.06,-148.34"/>
</g>
<!-- Node12&#45;&gt;Node5 -->
<g id="edge15" class="edge">
<title>Node12&#45;&gt;Node5</title>
<path fill="none" stroke="midnightblue" d="M925.82,-483.17C862.01,-477.06 775.33,-463.24 705,-432 616.8,-392.82 532,-312.68 495.6,-275.61"/>
<polygon fill="midnightblue" stroke="midnightblue" points="925.58,-486.66 935.86,-484.08 926.21,-479.69 925.58,-486.66"/>
</g>
<!-- Node12&#45;&gt;Node7 -->
<g id="edge39" class="edge">
<title>Node12&#45;&gt;Node7</title>
<path fill="none" stroke="midnightblue" d="M1104.22,-478.2C1189.44,-463.31 1305,-426.12 1305,-334 1305,-334 1305,-334 1305,-254 1305,-169.85 1036.43,-125.66 899,-108.56"/>
<polygon fill="midnightblue" stroke="midnightblue" points="1103.53,-474.77 1094.24,-479.87 1104.68,-481.67 1103.53,-474.77"/>
</g>
<!-- Node13 -->
<g id="node13" class="node">
<title>Node13</title>
<g id="a_node13"><a xlink:href="_circle_8hpp.html" target="_top" xlink:title=" ">
<polygon fill="none" stroke="black" points="829,-390.5 829,-431.5 987,-431.5 987,-390.5 829,-390.5"/>
<text text-anchor="start" x="837" y="-419.5" font-family="Helvetica,sans-Serif" font-size="10.00">/home/runner/work/Simulatio</text>
<text text-anchor="start" x="837" y="-408.5" font-family="Helvetica,sans-Serif" font-size="10.00">/Simulatio/include/Corpses</text>
<text text-anchor="middle" x="908" y="-397.5" font-family="Helvetica,sans-Serif" font-size="10.00">/Circle.hpp</text>
</a>
</g>
</g>
<!-- Node12&#45;&gt;Node13 -->
<g id="edge16" class="edge">
<title>Node12&#45;&gt;Node13</title>
<path fill="none" stroke="midnightblue" d="M979.29,-462.64C965,-452.49 948.8,-440.98 935.46,-431.51"/>
<polygon fill="midnightblue" stroke="midnightblue" points="977.27,-465.49 987.44,-468.43 981.32,-459.78 977.27,-465.49"/>
</g>
<!-- Node14 -->
<g id="node14" class="node">
<title>Node14</title>
<g id="a_node14"><a xlink:href="_polygon_8hpp.html" target="_top" xlink:title=" ">
<polygon fill="none" stroke="black" points="722,-312.5 722,-353.5 880,-353.5 880,-312.5 722,-312.5"/>
<text text-anchor="start" x="730" y="-341.5" font-family="Helvetica,sans-Serif" font-size="10.00">/home/runner/work/Simulatio</text>
<text text-anchor="start" x="730" y="-330.5" font-family="Helvetica,sans-Serif" font-size="10.00">/Simulatio/include/Corpses</text>
<text text-anchor="middle" x="801" y="-319.5" font-family="Helvetica,sans-Serif" font-size="10.00">/Polygon.hpp</text>
</a>
</g>
</g>
<!-- Node12&#45;&gt;Node14 -->
<g id="edge34" class="edge">
<title>Node12&#45;&gt;Node14</title>
<path fill="none" stroke="midnightblue" d="M925.97,-482.65C888.29,-475.8 846.96,-461.45 820,-432 800.46,-410.65 798.33,-375.45 799.21,-353.56"/>
<polygon fill="midnightblue" stroke="midnightblue" points="925.53,-486.12 935.97,-484.31 926.68,-479.22 925.53,-486.12"/>
</g>
<!-- Node15 -->
<g id="node15" class="node">
<title>Node15</title>
<g id="a_node15"><a xlink:href="_collision_8hpp.html" target="_top" xlink:title=" ">
<polygon fill="none" stroke="black" points="577,-234.5 577,-275.5 735,-275.5 735,-234.5 577,-234.5"/>
<text text-anchor="start" x="585" y="-263.5" font-family="Helvetica,sans-Serif" font-size="10.00">/home/runner/work/Simulatio</text>
<text text-anchor="start" x="585" y="-252.5" font-family="Helvetica,sans-Serif" font-size="10.00">/Simulatio/include/Geometry</text>
<text text-anchor="middle" x="656" y="-241.5" font-family="Helvetica,sans-Serif" font-size="10.00">/Collision.hpp</text>
</a>
</g>
</g>
<!-- Node12&#45;&gt;Node15 -->
<g id="edge35" class="edge">
<title>Node12&#45;&gt;Node15</title>
<path fill="none" stroke="midnightblue" d="M925.57,-479.62C845.66,-466.88 732.83,-434.8 677,-354 660.78,-330.52 656.72,-296.91 655.9,-275.78"/>
<polygon fill="midnightblue" stroke="midnightblue" points="925.22,-483.11 935.64,-481.15 926.28,-476.19 925.22,-483.11"/>
</g>
<!-- Node16 -->
<g id="node16" class="node">
<title>Node16</title>
<g id="a_node16"><a xlink:href="_old_quadtree_8hpp.html" target="_top" xlink:title=" ">
<polygon fill="none" stroke="black" points="1081,-234.5 1081,-275.5 1239,-275.5 1239,-234.5 1081,-234.5"/>
<text text-anchor="start" x="1089" y="-263.5" font-family="Helvetica,sans-Serif" font-size="10.00">/home/runner/work/Simulatio</text>
<text text-anchor="start" x="1089" y="-252.5" font-family="Helvetica,sans-Serif" font-size="10.00">/Simulatio/include/Structures</text>
<text text-anchor="middle" x="1160" y="-241.5" font-family="Helvetica,sans-Serif" font-size="10.00">/OldQuadtree.hpp</text>
</a>
</g>
</g>
<!-- Node12&#45;&gt;Node16 -->
<g id="edge36" class="edge">
<title>Node12&#45;&gt;Node16</title>
<path fill="none" stroke="midnightblue" d="M1032.74,-459.61C1062.55,-411.91 1121.96,-316.86 1147.67,-275.73"/>
<polygon fill="midnightblue" stroke="midnightblue" points="1029.69,-457.88 1027.36,-468.22 1035.63,-461.59 1029.69,-457.88"/>
</g>
<!-- Node17 -->
<g id="node17" class="node">
<title>Node17</title>
<g id="a_node17"><a xlink:href="_quad_node_8hpp.html" target="_top" xlink:title=" ">
<polygon fill="none" stroke="black" points="867,-234.5 867,-275.5 1025,-275.5 1025,-234.5 867,-234.5"/>
<text text-anchor="start" x="875" y="-263.5" font-family="Helvetica,sans-Serif" font-size="10.00">/home/runner/work/Simulatio</text>
<text text-anchor="start" x="875" y="-252.5" font-family="Helvetica,sans-Serif" font-size="10.00">/Simulatio/include/Structures</text>
<text text-anchor="middle" x="946" y="-241.5" font-family="Helvetica,sans-Serif" font-size="10.00">/QuadNode.hpp</text>
</a>
</g>
</g>
<!-- Node12&#45;&gt;Node17 -->
<g id="edge37" class="edge">
<title>Node12&#45;&gt;Node17</title>
<path fill="none" stroke="midnightblue" d="M1010.53,-458.11C1007.28,-438.54 1002.34,-412.52 996,-390 984.3,-348.41 965.4,-301.45 954.5,-275.64"/>
<polygon fill="midnightblue" stroke="midnightblue" points="1007.11,-458.94 1012.16,-468.25 1014.03,-457.82 1007.11,-458.94"/>
</g>
<!-- Node18 -->
<g id="node18" class="node">
<title>Node18</title>
<g id="a_node18"><a xlink:href="_quadtree_8hpp.html" target="_top" xlink:title=" ">
<polygon fill="none" stroke="black" points="867,-156.5 867,-197.5 1025,-197.5 1025,-156.5 867,-156.5"/>
<text text-anchor="start" x="875" y="-185.5" font-family="Helvetica,sans-Serif" font-size="10.00">/home/runner/work/Simulatio</text>
<text text-anchor="start" x="875" y="-174.5" font-family="Helvetica,sans-Serif" font-size="10.00">/Simulatio/include/Structures</text>
<text text-anchor="middle" x="946" y="-163.5" font-family="Helvetica,sans-Serif" font-size="10.00">/Quadtree.hpp</text>
</a>
</g>
</g>
<!-- Node12&#45;&gt;Node18 -->
<g id="edge38" class="edge">
<title>Node12&#45;&gt;Node18</title>
<path fill="none" stroke="midnightblue" d="M1067.26,-463.84C1156.26,-419.51 1320.89,-321.65 1248,-234 1220.17,-200.53 1105.02,-186.98 1025.24,-181.55"/>
<polygon fill="midnightblue" stroke="midnightblue" points="1065.53,-460.79 1058.11,-468.35 1068.62,-467.07 1065.53,-460.79"/>
</g>
<!-- Node13&#45;&gt;Node5 -->
<g id="edge17" class="edge">
<title>Node13&#45;&gt;Node5</title>
<path fill="none" stroke="midnightblue" d="M818.98,-393.16C775.5,-383.75 722.82,-370.55 677,-354 616.45,-332.12 550.06,-297.25 511.04,-275.54"/>
<polygon fill="midnightblue" stroke="midnightblue" points="818.45,-396.63 828.96,-395.29 819.91,-389.78 818.45,-396.63"/>
</g>
<!-- Node13&#45;&gt;Node7 -->
<g id="edge33" class="edge">
<title>Node13&#45;&gt;Node7</title>
<path fill="none" stroke="midnightblue" d="M944.52,-384.06C974.95,-360 1016.09,-321.18 1034,-276 1053.65,-226.42 1066.59,-198.22 1034,-156 1017.28,-134.34 952.87,-119.44 899.04,-110.49"/>
<polygon fill="midnightblue" stroke="midnightblue" points="942.03,-381.56 936.25,-390.44 946.3,-387.1 942.03,-381.56"/>
</g>
<!-- Node13&#45;&gt;Node14 -->
<g id="edge18" class="edge">
<title>Node13&#45;&gt;Node14</title>
<path fill="none" stroke="midnightblue" d="M865.88,-384.64C851.02,-374.49 834.97,-362.98 822.48,-353.51"/>
<polygon fill="midnightblue" stroke="midnightblue" points="864.21,-387.73 874.46,-390.43 868.13,-381.93 864.21,-387.73"/>
</g>
<!-- Node13&#45;&gt;Node15 -->
<g id="edge29" class="edge">
<title>Node13&#45;&gt;Node15</title>
<path fill="none" stroke="midnightblue" d="M818.69,-399.1C782.97,-391.19 743.22,-377.55 713,-354 686.91,-333.68 670.52,-297.82 662.33,-275.58"/>
<polygon fill="midnightblue" stroke="midnightblue" points="818.14,-402.56 828.64,-401.18 819.57,-395.71 818.14,-402.56"/>
</g>
<!-- Node13&#45;&gt;Node16 -->
<g id="edge30" class="edge">
<title>Node13&#45;&gt;Node16</title>
<path fill="none" stroke="midnightblue" d="M989.45,-387.12C1013.18,-378.6 1038.49,-367.61 1060,-354 1094.1,-332.42 1126.02,-297.62 1144.25,-275.82"/>
<polygon fill="midnightblue" stroke="midnightblue" points="988.04,-383.9 979.75,-390.5 990.35,-390.51 988.04,-383.9"/>
</g>
<!-- Node13&#45;&gt;Node17 -->
<g id="edge31" class="edge">
<title>Node13&#45;&gt;Node17</title>
<path fill="none" stroke="midnightblue" d="M915.43,-380.41C917.56,-371.89 919.88,-362.58 922,-354 928.73,-326.79 936.42,-295.31 941.25,-275.53"/>
<polygon fill="midnightblue" stroke="midnightblue" points="911.98,-379.76 912.95,-390.31 918.77,-381.46 911.98,-379.76"/>
</g>
<!-- Node13&#45;&gt;Node18 -->
<g id="edge32" class="edge">
<title>Node13&#45;&gt;Node18</title>
<path fill="none" stroke="midnightblue" d="M906.23,-380.15C904.09,-360.06 899.38,-333.42 889,-312 879.79,-293 865.35,-295.79 858,-276 851.5,-258.5 849.02,-250.36 858,-234 866.63,-218.28 881.74,-206.35 897.04,-197.62"/>
<polygon fill="midnightblue" stroke="midnightblue" points="902.76,-380.64 907.15,-390.28 909.73,-380.01 902.76,-380.64"/>
</g>
<!-- Node14&#45;&gt;Node5 -->
<g id="edge19" class="edge">
<title>Node14&#45;&gt;Node5</title>
<path fill="none" stroke="midnightblue" d="M711.99,-311.12C664.04,-299.87 605.3,-286.09 558.54,-275.13"/>
<polygon fill="midnightblue" stroke="midnightblue" points="711.21,-314.53 721.74,-313.41 712.8,-307.72 711.21,-314.53"/>
</g>
<!-- Node14&#45;&gt;Node7 -->
<g id="edge28" class="edge">
<title>Node14&#45;&gt;Node7</title>
<path fill="none" stroke="midnightblue" d="M800.11,-302.35C799.82,-282.88 799.99,-256.88 802,-234 803.42,-217.84 805.68,-214.05 808,-198 811.92,-170.86 815.63,-139.36 817.86,-119.56"/>
<polygon fill="midnightblue" stroke="midnightblue" points="796.61,-302.5 800.31,-312.43 803.61,-302.37 796.61,-302.5"/>
</g>
<!-- Node14&#45;&gt;Node13 -->
<g id="edge20" class="edge">
<title>Node14&#45;&gt;Node13</title>
<path fill="none" stroke="midnightblue" d="M843.01,-359.29C857.87,-369.44 873.93,-380.94 886.43,-390.43"/>
<polygon fill="midnightblue" stroke="midnightblue" points="844.69,-356.2 834.44,-353.51 840.77,-362 844.69,-356.2"/>
</g>
<!-- Node14&#45;&gt;Node15 -->
<g id="edge21" class="edge">
<title>Node14&#45;&gt;Node15</title>
<path fill="none" stroke="midnightblue" d="M754.77,-307.77C734.89,-297.35 711.97,-285.34 693.21,-275.51"/>
<polygon fill="midnightblue" stroke="midnightblue" points="753.18,-310.89 763.66,-312.43 756.43,-304.69 753.18,-310.89"/>
</g>
<!-- Node14&#45;&gt;Node16 -->
<g id="edge23" class="edge">
<title>Node14&#45;&gt;Node16</title>
<path fill="none" stroke="midnightblue" d="M890.21,-313.11C948.75,-300.72 1024.61,-284.66 1080.97,-272.73"/>
<polygon fill="midnightblue" stroke="midnightblue" points="889.29,-309.73 880.23,-315.23 890.74,-316.58 889.29,-309.73"/>
</g>
<!-- Node14&#45;&gt;Node17 -->
<g id="edge24" class="edge">
<title>Node14&#45;&gt;Node17</title>
<path fill="none" stroke="midnightblue" d="M847.23,-307.77C867.11,-297.35 890.03,-285.34 908.79,-275.51"/>
<polygon fill="midnightblue" stroke="midnightblue" points="845.57,-304.69 838.34,-312.43 848.82,-310.89 845.57,-304.69"/>
</g>
<!-- Node14&#45;&gt;Node18 -->
<g id="edge27" class="edge">
<title>Node14&#45;&gt;Node18</title>
<path fill="none" stroke="midnightblue" d="M801.67,-302.05C803.6,-280.92 809.29,-253.09 825,-234 838.39,-217.74 857.55,-205.96 876.68,-197.54"/>
<polygon fill="midnightblue" stroke="midnightblue" points="798.17,-301.9 800.98,-312.11 805.15,-302.38 798.17,-301.9"/>
</g>
<!-- Node15&#45;&gt;Node7 -->
<g id="edge22" class="edge">
<title>Node15&#45;&gt;Node7</title>
<path fill="none" stroke="midnightblue" d="M733.79,-230.25C750.99,-222.17 767.95,-211.62 781,-198 802.03,-176.05 812.19,-141.36 816.73,-119.68"/>
<polygon fill="midnightblue" stroke="midnightblue" points="731.96,-227.24 724.24,-234.49 734.8,-233.64 731.96,-227.24"/>
</g>
<!-- Node17&#45;&gt;Node18 -->
<g id="edge25" class="edge">
<title>Node17&#45;&gt;Node18</title>
<path fill="none" stroke="midnightblue" d="M946,-224.3C946,-215.3 946,-205.65 946,-197.51"/>
<polygon fill="midnightblue" stroke="midnightblue" points="942.5,-224.43 946,-234.43 949.5,-224.43 942.5,-224.43"/>
</g>
<!-- Node18&#45;&gt;Node7 -->
<g id="edge26" class="edge">
<title>Node18&#45;&gt;Node7</title>
<path fill="none" stroke="midnightblue" d="M904.89,-151.2C887.84,-140.92 868.34,-129.16 852.34,-119.51"/>
<polygon fill="midnightblue" stroke="midnightblue" points="903.18,-154.26 913.55,-156.43 906.8,-148.27 903.18,-154.26"/>
</g>
<!-- Node19&#45;&gt;Node8 -->
<g id="edge41" class="edge">
<title>Node19&#45;&gt;Node8</title>
<path fill="none" stroke="midnightblue" d="M1439.26,-380.76C1428.97,-350.12 1415,-300.34 1415,-256 1415,-256 1415,-256 1415,-176 1415,-70.63 1060.86,-36.18 899.01,-25.94"/>
<polygon fill="midnightblue" stroke="midnightblue" points="1436.01,-382.08 1442.58,-390.39 1442.62,-379.79 1436.01,-382.08"/>
</g>
</g>
</svg>
