<?xml version="1.0" encoding="UTF-8" standalone="no"?>
<!DOCTYPE svg PUBLIC "-//W3C//DTD SVG 1.1//EN"
 "http://www.w3.org/Graphics/SVG/1.1/DTD/svg11.dtd">
<!-- Generated by graphviz version 2.43.0 (0)
 -->
<!-- Title: /home/runner/work/Simulatio/Simulatio/include/Geometry/Bounds.hpp Pages: 1 -->
<svg width="1459pt" height="752pt"
 viewBox="0.00 0.00 1459.00 752.00" xmlns="http://www.w3.org/2000/svg" xmlns:xlink="http://www.w3.org/1999/xlink">
<g id="graph0" class="graph" transform="scale(1 1) rotate(0) translate(4 748)">
<title>/home/runner/work/Simulatio/Simulatio/include/Geometry/Bounds.hpp</title>
<!-- Node1 -->
<g id="node1" class="node">
<title>Node1</title>
<g id="a_node1"><a xlink:title=" ">
<polygon fill="#bfbfbf" stroke="black" points="1027,-702.5 1027,-743.5 1185,-743.5 1185,-702.5 1027,-702.5"/>
<text text-anchor="start" x="1035" y="-731.5" font-family="Helvetica,sans-Serif" font-size="10.00">/home/runner/work/Simulatio</text>
<text text-anchor="start" x="1035" y="-720.5" font-family="Helvetica,sans-Serif" font-size="10.00">/Simulatio/include/Geometry</text>
<text text-anchor="middle" x="1106" y="-709.5" font-family="Helvetica,sans-Serif" font-size="10.00">/Bounds.hpp</text>
</a>
</g>
</g>
<!-- Node2 -->
<g id="node2" class="node">
<title>Node2</title>
<g id="a_node2"><a xlink:href="_collision_8hpp.html" target="_top" xlink:title=" ">
<polygon fill="none" stroke="black" points="338,-234.5 338,-275.5 496,-275.5 496,-234.5 338,-234.5"/>
<text text-anchor="start" x="346" y="-263.5" font-family="Helvetica,sans-Serif" font-size="10.00">/home/runner/work/Simulatio</text>
<text text-anchor="start" x="346" y="-252.5" font-family="Helvetica,sans-Serif" font-size="10.00">/Simulatio/include/Geometry</text>
<text text-anchor="middle" x="417" y="-241.5" font-family="Helvetica,sans-Serif" font-size="10.00">/Collision.hpp</text>
</a>
</g>
</g>
<!-- Node1&#45;&gt;Node2 -->
<g id="edge1" class="edge">
<title>Node1&#45;&gt;Node2</title>
<path fill="none" stroke="midnightblue" d="M1016.74,-717.99C766.43,-705.58 76,-662.74 76,-568 76,-568 76,-568 76,-410 76,-295.67 237.18,-265.76 337.91,-258.22"/>
<polygon fill="midnightblue" stroke="midnightblue" points="1016.73,-721.5 1026.89,-718.49 1017.07,-714.51 1016.73,-721.5"/>
</g>
<!-- Node5 -->
<g id="node5" class="node">
<title>Node5</title>
<g id="a_node5"><a xlink:href="_geometry_8hpp.html" target="_top" xlink:title=" ">
<polygon fill="none" stroke="black" points="540,-546.5 540,-587.5 698,-587.5 698,-546.5 540,-546.5"/>
<text text-anchor="start" x="548" y="-575.5" font-family="Helvetica,sans-Serif" font-size="10.00">/home/runner/work/Simulatio</text>
<text text-anchor="start" x="548" y="-564.5" font-family="Helvetica,sans-Serif" font-size="10.00">/Simulatio/include/Geometry</text>
<text text-anchor="middle" x="619" y="-553.5" font-family="Helvetica,sans-Serif" font-size="10.00">/Geometry.hpp</text>
</a>
</g>
</g>
<!-- Node1&#45;&gt;Node5 -->
<g id="edge4" class="edge">
<title>Node1&#45;&gt;Node5</title>
<path fill="none" stroke="midnightblue" d="M1034.75,-699.47C939.28,-669.28 771.42,-616.2 680.95,-587.59"/>
<polygon fill="midnightblue" stroke="midnightblue" points="1033.73,-702.82 1044.32,-702.5 1035.84,-696.14 1033.73,-702.82"/>
</g>
<!-- Node14 -->
<g id="node14" class="node">
<title>Node14</title>
<g id="a_node14"><a xlink:href="_old_quadtree_8hpp.html" target="_top" xlink:title=" ">
<polygon fill="none" stroke="black" points="1158,-234.5 1158,-275.5 1316,-275.5 1316,-234.5 1158,-234.5"/>
<text text-anchor="start" x="1166" y="-263.5" font-family="Helvetica,sans-Serif" font-size="10.00">/home/runner/work/Simulatio</text>
<text text-anchor="start" x="1166" y="-252.5" font-family="Helvetica,sans-Serif" font-size="10.00">/Simulatio/include/Structures</text>
<text text-anchor="middle" x="1237" y="-241.5" font-family="Helvetica,sans-Serif" font-size="10.00">/OldQuadtree.hpp</text>
</a>
</g>
</g>
<!-- Node1&#45;&gt;Node14 -->
<g id="edge46" class="edge">
<title>Node1&#45;&gt;Node14</title>
<path fill="none" stroke="midnightblue" d="M1147.85,-696.69C1186.18,-669.96 1237,-623.97 1237,-568 1237,-568 1237,-568 1237,-410 1237,-361.88 1237,-305.29 1237,-275.93"/>
<polygon fill="midnightblue" stroke="midnightblue" points="1145.71,-693.91 1139.4,-702.42 1149.64,-699.7 1145.71,-693.91"/>
</g>
<!-- Node15 -->
<g id="node15" class="node">
<title>Node15</title>
<g id="a_node15"><a xlink:href="_quad_node_8hpp.html" target="_top" xlink:title=" ">
<polygon fill="none" stroke="black" points="944,-234.5 944,-275.5 1102,-275.5 1102,-234.5 944,-234.5"/>
<text text-anchor="start" x="952" y="-263.5" font-family="Helvetica,sans-Serif" font-size="10.00">/home/runner/work/Simulatio</text>
<text text-anchor="start" x="952" y="-252.5" font-family="Helvetica,sans-Serif" font-size="10.00">/Simulatio/include/Structures</text>
<text text-anchor="middle" x="1023" y="-241.5" font-family="Helvetica,sans-Serif" font-size="10.00">/QuadNode.hpp</text>
</a>
</g>
</g>
<!-- Node1&#45;&gt;Node15 -->
<g id="edge47" class="edge">
<title>Node1&#45;&gt;Node15</title>
<path fill="none" stroke="midnightblue" d="M1101.28,-692.38C1090.43,-624.79 1062.51,-454.05 1035,-312 1032.66,-299.9 1029.77,-286.38 1027.41,-275.66"/>
<polygon fill="midnightblue" stroke="midnightblue" points="1097.84,-693 1102.88,-702.32 1104.75,-691.89 1097.84,-693"/>
</g>
<!-- Node16 -->
<g id="node16" class="node">
<title>Node16</title>
<g id="a_node16"><a xlink:href="_quadtree_8hpp.html" target="_top" xlink:title=" ">
<polygon fill="none" stroke="black" points="944,-156.5 944,-197.5 1102,-197.5 1102,-156.5 944,-156.5"/>
<text text-anchor="start" x="952" y="-185.5" font-family="Helvetica,sans-Serif" font-size="10.00">/home/runner/work/Simulatio</text>
<text text-anchor="start" x="952" y="-174.5" font-family="Helvetica,sans-Serif" font-size="10.00">/Simulatio/include/Structures</text>
<text text-anchor="middle" x="1023" y="-163.5" font-family="Helvetica,sans-Serif" font-size="10.00">/Quadtree.hpp</text>
</a>
</g>
</g>
<!-- Node1&#45;&gt;Node16 -->
<g id="edge48" class="edge">
<title>Node1&#45;&gt;Node16</title>
<path fill="none" stroke="midnightblue" d="M1195.18,-719.41C1297.41,-711.13 1451,-680.04 1451,-568 1451,-568 1451,-568 1451,-332 1451,-261.06 1389.71,-263.07 1325,-234 1253.62,-201.93 1164.84,-188.23 1102.06,-182.37"/>
<polygon fill="midnightblue" stroke="midnightblue" points="1194.86,-715.92 1185.15,-720.16 1195.38,-722.9 1194.86,-715.92"/>
</g>
<!-- Node18 -->
<g id="node18" class="node">
<title>Node18</title>
<g id="a_node18"><a xlink:href="_vertices_8hpp.html" target="_top" xlink:title=" ">
<polygon fill="none" stroke="black" points="540,-624.5 540,-665.5 698,-665.5 698,-624.5 540,-624.5"/>
<text text-anchor="start" x="548" y="-653.5" font-family="Helvetica,sans-Serif" font-size="10.00">/home/runner/work/Simulatio</text>
<text text-anchor="start" x="548" y="-642.5" font-family="Helvetica,sans-Serif" font-size="10.00">/Simulatio/include/Geometry</text>
<text text-anchor="middle" x="619" y="-631.5" font-family="Helvetica,sans-Serif" font-size="10.00">/Vertices.hpp</text>
</a>
</g>
</g>
<!-- Node1&#45;&gt;Node18 -->
<g id="edge43" class="edge">
<title>Node1&#45;&gt;Node18</title>
<path fill="none" stroke="midnightblue" d="M1016.91,-708.1C925.86,-693.89 785.76,-672.02 698.39,-658.39"/>
<polygon fill="midnightblue" stroke="midnightblue" points="1016.52,-711.58 1026.94,-709.66 1017.6,-704.66 1016.52,-711.58"/>
</g>
<!-- Node3 -->
<g id="node3" class="node">
<title>Node3</title>
<g id="a_node3"><a xlink:href="_system_8hpp.html" target="_top" xlink:title=" ">
<polygon fill="none" stroke="black" points="417,-78.5 417,-119.5 575,-119.5 575,-78.5 417,-78.5"/>
<text text-anchor="start" x="425" y="-107.5" font-family="Helvetica,sans-Serif" font-size="10.00">/home/runner/work/Simulatio</text>
<text text-anchor="start" x="425" y="-96.5" font-family="Helvetica,sans-Serif" font-size="10.00">/Simulatio/include/Structures</text>
<text text-anchor="middle" x="496" y="-85.5" font-family="Helvetica,sans-Serif" font-size="10.00">/System.hpp</text>
</a>
</g>
</g>
<!-- Node2&#45;&gt;Node3 -->
<g id="edge2" class="edge">
<title>Node2&#45;&gt;Node3</title>
<path fill="none" stroke="midnightblue" d="M327.6,-254.13C210.19,-251.3 26.52,-234.71 95,-156 135.83,-109.07 311.9,-100.26 416.67,-99.3"/>
<polygon fill="midnightblue" stroke="midnightblue" points="327.62,-257.63 337.69,-254.35 327.77,-250.63 327.62,-257.63"/>
</g>
<!-- Node4 -->
<g id="node4" class="node">
<title>Node4</title>
<g id="a_node4"><a xlink:href="_renderer_8hpp.html" target="_top" xlink:title=" ">
<polygon fill="none" stroke="black" points="417,-0.5 417,-41.5 575,-41.5 575,-0.5 417,-0.5"/>
<text text-anchor="start" x="425" y="-29.5" font-family="Helvetica,sans-Serif" font-size="10.00">/home/runner/work/Simulatio</text>
<text text-anchor="start" x="425" y="-18.5" font-family="Helvetica,sans-Serif" font-size="10.00">/Simulatio/include/Renderer</text>
<text text-anchor="middle" x="496" y="-7.5" font-family="Helvetica,sans-Serif" font-size="10.00">/Renderer.hpp</text>
</a>
</g>
</g>
<!-- Node3&#45;&gt;Node4 -->
<g id="edge3" class="edge">
<title>Node3&#45;&gt;Node4</title>
<path fill="none" stroke="midnightblue" d="M496,-68.3C496,-59.3 496,-49.65 496,-41.51"/>
<polygon fill="midnightblue" stroke="midnightblue" points="492.5,-68.43 496,-78.43 499.5,-68.43 492.5,-68.43"/>
</g>
<!-- Node5&#45;&gt;Node3 -->
<g id="edge42" class="edge">
<title>Node5&#45;&gt;Node3</title>
<path fill="none" stroke="midnightblue" d="M529.73,-549.6C366.83,-517.12 38,-438.59 38,-334 38,-334 38,-334 38,-254 38,-207.12 40.04,-184.83 77,-156 128.43,-115.88 310.44,-104.48 416.9,-101.25"/>
<polygon fill="midnightblue" stroke="midnightblue" points="529.25,-553.07 539.74,-551.58 530.61,-546.21 529.25,-553.07"/>
</g>
<!-- Node5&#45;&gt;Node4 -->
<g id="edge41" class="edge">
<title>Node5&#45;&gt;Node4</title>
<path fill="none" stroke="midnightblue" d="M529.96,-562.31C358.67,-552.76 0,-519.9 0,-412 0,-412 0,-412 0,-176 0,-89.78 276.82,-46.43 416.86,-30.02"/>
<polygon fill="midnightblue" stroke="midnightblue" points="529.8,-565.8 539.97,-562.85 530.18,-558.81 529.8,-565.8"/>
</g>
<!-- Node6 -->
<g id="node6" class="node">
<title>Node6</title>
<g id="a_node6"><a xlink:href="_constraint_8hpp.html" target="_top" xlink:title=" ">
<polygon fill="none" stroke="black" points="514.5,-234.5 514.5,-275.5 677.5,-275.5 677.5,-234.5 514.5,-234.5"/>
<text text-anchor="start" x="522.5" y="-263.5" font-family="Helvetica,sans-Serif" font-size="10.00">/home/runner/work/Simulatio</text>
<text text-anchor="start" x="522.5" y="-252.5" font-family="Helvetica,sans-Serif" font-size="10.00">/Simulatio/include/Constraints</text>
<text text-anchor="middle" x="596" y="-241.5" font-family="Helvetica,sans-Serif" font-size="10.00">/Constraint.hpp</text>
</a>
</g>
</g>
<!-- Node5&#45;&gt;Node6 -->
<g id="edge5" class="edge">
<title>Node5&#45;&gt;Node6</title>
<path fill="none" stroke="midnightblue" d="M616.78,-536.06C612.11,-473.1 601.37,-328.44 597.46,-275.7"/>
<polygon fill="midnightblue" stroke="midnightblue" points="613.3,-536.42 617.53,-546.14 620.28,-535.9 613.3,-536.42"/>
</g>
<!-- Node11 -->
<g id="node11" class="node">
<title>Node11</title>
<g id="a_node11"><a xlink:href="_corpse_8hpp.html" target="_top" xlink:title=" ">
<polygon fill="none" stroke="black" points="669,-468.5 669,-509.5 827,-509.5 827,-468.5 669,-468.5"/>
<text text-anchor="start" x="677" y="-497.5" font-family="Helvetica,sans-Serif" font-size="10.00">/home/runner/work/Simulatio</text>
<text text-anchor="start" x="677" y="-486.5" font-family="Helvetica,sans-Serif" font-size="10.00">/Simulatio/include/Corpses</text>
<text text-anchor="middle" x="748" y="-475.5" font-family="Helvetica,sans-Serif" font-size="10.00">/Corpse.hpp</text>
</a>
</g>
</g>
<!-- Node5&#45;&gt;Node11 -->
<g id="edge14" class="edge">
<title>Node5&#45;&gt;Node11</title>
<path fill="none" stroke="midnightblue" d="M661.09,-541.2C678.55,-530.92 698.51,-519.16 714.89,-509.51"/>
<polygon fill="midnightblue" stroke="midnightblue" points="659.06,-538.34 652.22,-546.43 662.61,-544.37 659.06,-538.34"/>
</g>
<!-- Node17 -->
<g id="node17" class="node">
<title>Node17</title>
<g id="a_node17"><a xlink:href="_converter_8hpp.html" target="_top" xlink:title=" ">
<polygon fill="none" stroke="black" points="1265,-390.5 1265,-431.5 1423,-431.5 1423,-390.5 1265,-390.5"/>
<text text-anchor="start" x="1273" y="-419.5" font-family="Helvetica,sans-Serif" font-size="10.00">/home/runner/work/Simulatio</text>
<text text-anchor="start" x="1273" y="-408.5" font-family="Helvetica,sans-Serif" font-size="10.00">/Simulatio/include/Renderer</text>
<text text-anchor="middle" x="1344" y="-397.5" font-family="Helvetica,sans-Serif" font-size="10.00">/Converter.hpp</text>
</a>
</g>
</g>
<!-- Node5&#45;&gt;Node17 -->
<g id="edge39" class="edge">
<title>Node5&#45;&gt;Node17</title>
<path fill="none" stroke="midnightblue" d="M708.37,-547.02C851.25,-516.67 1128.86,-457.7 1264.94,-428.79"/>
<polygon fill="midnightblue" stroke="midnightblue" points="707.37,-543.65 698.31,-549.15 708.82,-550.5 707.37,-543.65"/>
</g>
<!-- Node6&#45;&gt;Node3 -->
<g id="edge13" class="edge">
<title>Node6&#45;&gt;Node3</title>
<path fill="none" stroke="midnightblue" d="M504.13,-234.15C448.65,-225.94 340.75,-229.09 315,-198 303.09,-183.62 303.92,-171.02 315,-156 338.43,-124.23 379.66,-109.94 416.86,-103.72"/>
<polygon fill="midnightblue" stroke="midnightblue" points="503.72,-237.64 514.17,-235.9 504.92,-230.74 503.72,-237.64"/>
</g>
<!-- Node7 -->
<g id="node7" class="node">
<title>Node7</title>
<g id="a_node7"><a xlink:href="_link_8hpp.html" target="_top" xlink:title=" ">
<polygon fill="none" stroke="black" points="324.5,-156.5 324.5,-197.5 487.5,-197.5 487.5,-156.5 324.5,-156.5"/>
<text text-anchor="start" x="332.5" y="-185.5" font-family="Helvetica,sans-Serif" font-size="10.00">/home/runner/work/Simulatio</text>
<text text-anchor="start" x="332.5" y="-174.5" font-family="Helvetica,sans-Serif" font-size="10.00">/Simulatio/include/Constraints</text>
<text text-anchor="middle" x="406" y="-163.5" font-family="Helvetica,sans-Serif" font-size="10.00">/Link.hpp</text>
</a>
</g>
</g>
<!-- Node6&#45;&gt;Node7 -->
<g id="edge6" class="edge">
<title>Node6&#45;&gt;Node7</title>
<path fill="none" stroke="midnightblue" d="M537.52,-230.61C511,-220 480,-207.6 454.76,-197.51"/>
<polygon fill="midnightblue" stroke="midnightblue" points="536.49,-233.96 547.07,-234.43 539.09,-227.46 536.49,-233.96"/>
</g>
<!-- Node8 -->
<g id="node8" class="node">
<title>Node8</title>
<g id="a_node8"><a xlink:href="_loose_8hpp.html" target="_top" xlink:title=" ">
<polygon fill="none" stroke="black" points="686.5,-156.5 686.5,-197.5 849.5,-197.5 849.5,-156.5 686.5,-156.5"/>
<text text-anchor="start" x="694.5" y="-185.5" font-family="Helvetica,sans-Serif" font-size="10.00">/home/runner/work/Simulatio</text>
<text text-anchor="start" x="694.5" y="-174.5" font-family="Helvetica,sans-Serif" font-size="10.00">/Simulatio/include/Constraints</text>
<text text-anchor="middle" x="768" y="-163.5" font-family="Helvetica,sans-Serif" font-size="10.00">/Loose.hpp</text>
</a>
</g>
</g>
<!-- Node6&#45;&gt;Node8 -->
<g id="edge8" class="edge">
<title>Node6&#45;&gt;Node8</title>
<path fill="none" stroke="midnightblue" d="M649.57,-230.33C673.44,-219.78 701.21,-207.51 723.86,-197.51"/>
<polygon fill="midnightblue" stroke="midnightblue" points="648.03,-227.19 640.29,-234.43 650.86,-233.59 648.03,-227.19"/>
</g>
<!-- Node9 -->
<g id="node9" class="node">
<title>Node9</title>
<g id="a_node9"><a xlink:href="_slider_8hpp.html" target="_top" xlink:title=" ">
<polygon fill="none" stroke="black" points="505.5,-156.5 505.5,-197.5 668.5,-197.5 668.5,-156.5 505.5,-156.5"/>
<text text-anchor="start" x="513.5" y="-185.5" font-family="Helvetica,sans-Serif" font-size="10.00">/home/runner/work/Simulatio</text>
<text text-anchor="start" x="513.5" y="-174.5" font-family="Helvetica,sans-Serif" font-size="10.00">/Simulatio/include/Constraints</text>
<text text-anchor="middle" x="587" y="-163.5" font-family="Helvetica,sans-Serif" font-size="10.00">/Slider.hpp</text>
</a>
</g>
</g>
<!-- Node6&#45;&gt;Node9 -->
<g id="edge9" class="edge">
<title>Node6&#45;&gt;Node9</title>
<path fill="none" stroke="midnightblue" d="M592.48,-224.3C591.42,-215.3 590.27,-205.65 589.31,-197.51"/>
<polygon fill="midnightblue" stroke="midnightblue" points="589.03,-224.91 593.68,-234.43 595.98,-224.09 589.03,-224.91"/>
</g>
<!-- Node10 -->
<g id="node10" class="node">
<title>Node10</title>
<g id="a_node10"><a xlink:href="_spring_8hpp.html" target="_top" xlink:title=" ">
<polygon fill="none" stroke="black" points="104.5,-156.5 104.5,-197.5 267.5,-197.5 267.5,-156.5 104.5,-156.5"/>
<text text-anchor="start" x="112.5" y="-185.5" font-family="Helvetica,sans-Serif" font-size="10.00">/home/runner/work/Simulatio</text>
<text text-anchor="start" x="112.5" y="-174.5" font-family="Helvetica,sans-Serif" font-size="10.00">/Simulatio/include/Constraints</text>
<text text-anchor="middle" x="186" y="-163.5" font-family="Helvetica,sans-Serif" font-size="10.00">/Spring.hpp</text>
</a>
</g>
</g>
<!-- Node6&#45;&gt;Node10 -->
<g id="edge11" class="edge">
<title>Node6&#45;&gt;Node10</title>
<path fill="none" stroke="midnightblue" d="M504.32,-233.93C404.7,-215.26 377.64,-215.67 282,-198 277.31,-197.13 272.5,-196.22 267.65,-195.27"/>
<polygon fill="midnightblue" stroke="midnightblue" points="503.72,-237.37 514.19,-235.79 505.02,-230.5 503.72,-237.37"/>
</g>
<!-- Node7&#45;&gt;Node3 -->
<g id="edge7" class="edge">
<title>Node7&#45;&gt;Node3</title>
<path fill="none" stroke="midnightblue" d="M437.05,-149.78C448.82,-139.84 461.99,-128.72 472.9,-119.51"/>
<polygon fill="midnightblue" stroke="midnightblue" points="434.56,-147.3 429.18,-156.43 439.08,-152.65 434.56,-147.3"/>
</g>
<!-- Node9&#45;&gt;Node3 -->
<g id="edge10" class="edge">
<title>Node9&#45;&gt;Node3</title>
<path fill="none" stroke="midnightblue" d="M555.6,-149.78C543.71,-139.84 530.38,-128.72 519.36,-119.51"/>
<polygon fill="midnightblue" stroke="midnightblue" points="553.65,-152.7 563.57,-156.43 558.13,-147.33 553.65,-152.7"/>
</g>
<!-- Node10&#45;&gt;Node3 -->
<g id="edge12" class="edge">
<title>Node10&#45;&gt;Node3</title>
<path fill="none" stroke="midnightblue" d="M275.8,-153.98C320.44,-143.04 373.91,-129.93 416.97,-119.37"/>
<polygon fill="midnightblue" stroke="midnightblue" points="274.71,-150.65 265.83,-156.43 276.38,-157.45 274.71,-150.65"/>
</g>
<!-- Node11&#45;&gt;Node2 -->
<g id="edge34" class="edge">
<title>Node11&#45;&gt;Node2</title>
<path fill="none" stroke="midnightblue" d="M710.14,-462.73C695.94,-453.18 679.68,-442.16 665,-432 584.25,-376.12 489.92,-308.53 444.37,-275.75"/>
<polygon fill="midnightblue" stroke="midnightblue" points="708.44,-465.8 718.69,-468.47 712.34,-459.99 708.44,-465.8"/>
</g>
<!-- Node11&#45;&gt;Node3 -->
<g id="edge38" class="edge">
<title>Node11&#45;&gt;Node3</title>
<path fill="none" stroke="midnightblue" d="M741.73,-458.53C740.19,-450.01 738.77,-440.67 738,-432 733.28,-378.76 729.55,-362.86 746,-312 758.31,-273.92 762.19,-261.78 791,-234 815.62,-210.26 841.36,-227.3 859,-198 868.63,-182.01 871.15,-170.17 859,-156 823.2,-114.25 670.83,-103.34 575.24,-100.66"/>
<polygon fill="midnightblue" stroke="midnightblue" points="738.31,-459.26 743.63,-468.42 745.18,-457.94 738.31,-459.26"/>
</g>
<!-- Node11&#45;&gt;Node6 -->
<g id="edge15" class="edge">
<title>Node11&#45;&gt;Node6</title>
<path fill="none" stroke="midnightblue" d="M720.42,-460.85C712.12,-452.02 703.28,-441.93 696,-432 657.04,-378.85 621.51,-309.15 605.28,-275.64"/>
<polygon fill="midnightblue" stroke="midnightblue" points="718.08,-463.47 727.53,-468.25 723.13,-458.62 718.08,-463.47"/>
</g>
<!-- Node12 -->
<g id="node12" class="node">
<title>Node12</title>
<g id="a_node12"><a xlink:href="_circle_8hpp.html" target="_top" xlink:title=" ">
<polygon fill="none" stroke="black" points="814,-390.5 814,-431.5 972,-431.5 972,-390.5 814,-390.5"/>
<text text-anchor="start" x="822" y="-419.5" font-family="Helvetica,sans-Serif" font-size="10.00">/home/runner/work/Simulatio</text>
<text text-anchor="start" x="822" y="-408.5" font-family="Helvetica,sans-Serif" font-size="10.00">/Simulatio/include/Corpses</text>
<text text-anchor="middle" x="893" y="-397.5" font-family="Helvetica,sans-Serif" font-size="10.00">/Circle.hpp</text>
</a>
</g>
</g>
<!-- Node11&#45;&gt;Node12 -->
<g id="edge16" class="edge">
<title>Node11&#45;&gt;Node12</title>
<path fill="none" stroke="midnightblue" d="M794.23,-463.77C814.11,-453.35 837.03,-441.34 855.79,-431.51"/>
<polygon fill="midnightblue" stroke="midnightblue" points="792.57,-460.69 785.34,-468.43 795.82,-466.89 792.57,-460.69"/>
</g>
<!-- Node13 -->
<g id="node13" class="node">
<title>Node13</title>
<g id="a_node13"><a xlink:href="_polygon_8hpp.html" target="_top" xlink:title=" ">
<polygon fill="none" stroke="black" points="776,-312.5 776,-353.5 934,-353.5 934,-312.5 776,-312.5"/>
<text text-anchor="start" x="784" y="-341.5" font-family="Helvetica,sans-Serif" font-size="10.00">/home/runner/work/Simulatio</text>
<text text-anchor="start" x="784" y="-330.5" font-family="Helvetica,sans-Serif" font-size="10.00">/Simulatio/include/Corpses</text>
<text text-anchor="middle" x="855" y="-319.5" font-family="Helvetica,sans-Serif" font-size="10.00">/Polygon.hpp</text>
</a>
</g>
</g>
<!-- Node11&#45;&gt;Node13 -->
<g id="edge33" class="edge">
<title>Node11&#45;&gt;Node13</title>
<path fill="none" stroke="midnightblue" d="M762.77,-459.17C773.51,-439.13 788.93,-412.14 805,-390 814.26,-377.24 825.94,-364.03 835.68,-353.65"/>
<polygon fill="midnightblue" stroke="midnightblue" points="759.61,-457.65 758.03,-468.12 765.8,-460.92 759.61,-457.65"/>
</g>
<!-- Node11&#45;&gt;Node14 -->
<g id="edge35" class="edge">
<title>Node11&#45;&gt;Node14</title>
<path fill="none" stroke="midnightblue" d="M837.25,-478.71C888.92,-470.93 954.19,-456.92 1008,-432 1095.59,-391.44 1180.94,-312.36 1217.89,-275.63"/>
<polygon fill="midnightblue" stroke="midnightblue" points="836.5,-475.28 827.1,-480.18 837.5,-482.21 836.5,-475.28"/>
</g>
<!-- Node11&#45;&gt;Node15 -->
<g id="edge36" class="edge">
<title>Node11&#45;&gt;Node15</title>
<path fill="none" stroke="midnightblue" d="M837.22,-476.12C893.91,-466.82 960.36,-452.08 981,-432 1024.22,-389.93 1026.24,-311.97 1024.54,-275.61"/>
<polygon fill="midnightblue" stroke="midnightblue" points="836.45,-472.7 827.13,-477.74 837.56,-479.62 836.45,-472.7"/>
</g>
<!-- Node11&#45;&gt;Node16 -->
<g id="edge37" class="edge">
<title>Node11&#45;&gt;Node16</title>
<path fill="none" stroke="midnightblue" d="M744.36,-458.17C741.33,-421.32 741.03,-357.89 767,-312 803.51,-247.5 883.15,-212.82 943.98,-195.02"/>
<polygon fill="midnightblue" stroke="midnightblue" points="740.89,-458.63 745.31,-468.26 747.86,-457.97 740.89,-458.63"/>
</g>
<!-- Node12&#45;&gt;Node2 -->
<g id="edge28" class="edge">
<title>Node12&#45;&gt;Node2</title>
<path fill="none" stroke="midnightblue" d="M804.64,-387.94C767.75,-378.26 724.58,-366.3 686,-354 634.55,-337.6 622.73,-330.51 572,-312 538.67,-299.84 501.26,-286.32 471.55,-275.61"/>
<polygon fill="midnightblue" stroke="midnightblue" points="803.82,-391.35 814.38,-390.49 805.58,-384.57 803.82,-391.35"/>
</g>
<!-- Node12&#45;&gt;Node3 -->
<g id="edge32" class="edge">
<title>Node12&#45;&gt;Node3</title>
<path fill="none" stroke="midnightblue" d="M945.55,-385.99C963.91,-376.82 984.34,-365.74 1002,-354 1026.17,-337.93 1028.43,-328.94 1052,-312 1076.94,-294.07 1095.96,-302.79 1111,-276 1137.1,-229.49 1146.96,-195.39 1111,-156 1075.53,-117.16 733.02,-104.96 575.07,-101.38"/>
<polygon fill="midnightblue" stroke="midnightblue" points="943.87,-382.91 936.44,-390.46 946.96,-389.19 943.87,-382.91"/>
</g>
<!-- Node12&#45;&gt;Node6 -->
<g id="edge17" class="edge">
<title>Node12&#45;&gt;Node6</title>
<path fill="none" stroke="midnightblue" d="M836.6,-386.4C814.64,-376.83 789.42,-365.37 767,-354 717.41,-328.85 661.87,-296.14 627.92,-275.61"/>
<polygon fill="midnightblue" stroke="midnightblue" points="835.23,-389.62 845.79,-390.38 838.01,-383.19 835.23,-389.62"/>
</g>
<!-- Node12&#45;&gt;Node13 -->
<g id="edge18" class="edge">
<title>Node12&#45;&gt;Node13</title>
<path fill="none" stroke="midnightblue" d="M872.17,-381.47C867.13,-372.14 862.26,-362.01 858.77,-353.51"/>
<polygon fill="midnightblue" stroke="midnightblue" points="869.27,-383.44 877.23,-390.43 875.36,-380 869.27,-383.44"/>
</g>
<!-- Node12&#45;&gt;Node14 -->
<g id="edge29" class="edge">
<title>Node12&#45;&gt;Node14</title>
<path fill="none" stroke="midnightblue" d="M964.94,-387.19C992.52,-377.79 1024.06,-366.24 1052,-354 1106.6,-330.08 1167.17,-296.59 1203.65,-275.61"/>
<polygon fill="midnightblue" stroke="midnightblue" points="963.72,-383.91 955.36,-390.42 965.96,-390.54 963.72,-383.91"/>
</g>
<!-- Node12&#45;&gt;Node15 -->
<g id="edge30" class="edge">
<title>Node12&#45;&gt;Node15</title>
<path fill="none" stroke="midnightblue" d="M939.81,-384.66C952.67,-376.13 965.85,-365.76 976,-354 996.22,-330.58 1009.82,-296.95 1016.99,-275.8"/>
<polygon fill="midnightblue" stroke="midnightblue" points="937.56,-381.94 931,-390.25 941.32,-387.84 937.56,-381.94"/>
</g>
<!-- Node12&#45;&gt;Node16 -->
<g id="edge31" class="edge">
<title>Node12&#45;&gt;Node16</title>
<path fill="none" stroke="midnightblue" d="M924.04,-383.16C931.72,-374.69 938.91,-364.72 943,-354 962.05,-304.06 909.28,-280.86 935,-234 943.63,-218.28 958.74,-206.35 974.04,-197.62"/>
<polygon fill="midnightblue" stroke="midnightblue" points="921.38,-380.88 916.93,-390.49 926.41,-385.75 921.38,-380.88"/>
</g>
<!-- Node13&#45;&gt;Node2 -->
<g id="edge21" class="edge">
<title>Node13&#45;&gt;Node2</title>
<path fill="none" stroke="midnightblue" d="M765.55,-319.21C694.88,-308.72 593.88,-292.91 506,-276 502.73,-275.37 499.41,-274.71 496.05,-274.03"/>
<polygon fill="midnightblue" stroke="midnightblue" points="765.34,-322.71 775.75,-320.71 766.37,-315.79 765.34,-322.71"/>
</g>
<!-- Node13&#45;&gt;Node3 -->
<g id="edge27" class="edge">
<title>Node13&#45;&gt;Node3</title>
<path fill="none" stroke="midnightblue" d="M856.49,-302.29C858.21,-282.45 861.94,-256.06 870,-234 876.43,-216.39 886.92,-216.05 892,-198 897.06,-180.03 904.24,-170.09 892,-156 851.82,-109.74 678.81,-100.65 575.23,-99.46"/>
<polygon fill="midnightblue" stroke="midnightblue" points="852.99,-302.05 855.74,-312.28 859.97,-302.57 852.99,-302.05"/>
</g>
<!-- Node13&#45;&gt;Node6 -->
<g id="edge19" class="edge">
<title>Node13&#45;&gt;Node6</title>
<path fill="none" stroke="midnightblue" d="M778.6,-309.58C741.74,-298.76 697.94,-285.91 662.47,-275.51"/>
<polygon fill="midnightblue" stroke="midnightblue" points="777.72,-312.97 788.3,-312.43 779.69,-306.25 777.72,-312.97"/>
</g>
<!-- Node13&#45;&gt;Node12 -->
<g id="edge20" class="edge">
<title>Node13&#45;&gt;Node12</title>
<path fill="none" stroke="midnightblue" d="M875.79,-362.46C880.83,-371.78 885.71,-381.92 889.2,-390.43"/>
<polygon fill="midnightblue" stroke="midnightblue" points="878.7,-360.5 870.74,-353.51 872.6,-363.93 878.7,-360.5"/>
</g>
<!-- Node13&#45;&gt;Node14 -->
<g id="edge22" class="edge">
<title>Node13&#45;&gt;Node14</title>
<path fill="none" stroke="midnightblue" d="M944.34,-314.23C1009.06,-301.35 1095.75,-284.1 1157.95,-271.73"/>
<polygon fill="midnightblue" stroke="midnightblue" points="943.28,-310.87 934.15,-316.25 944.64,-317.73 943.28,-310.87"/>
</g>
<!-- Node13&#45;&gt;Node15 -->
<g id="edge23" class="edge">
<title>Node13&#45;&gt;Node15</title>
<path fill="none" stroke="midnightblue" d="M907.63,-308.19C930.88,-297.67 957.86,-285.47 979.88,-275.51"/>
<polygon fill="midnightblue" stroke="midnightblue" points="905.93,-305.12 898.26,-312.43 908.82,-311.5 905.93,-305.12"/>
</g>
<!-- Node13&#45;&gt;Node16 -->
<g id="edge26" class="edge">
<title>Node13&#45;&gt;Node16</title>
<path fill="none" stroke="midnightblue" d="M863.11,-302.79C870.32,-281.43 882.75,-252.99 902,-234 918.07,-218.15 939.45,-206.25 959.76,-197.59"/>
<polygon fill="midnightblue" stroke="midnightblue" points="859.77,-301.74 860.07,-312.34 866.44,-303.87 859.77,-301.74"/>
</g>
<!-- Node15&#45;&gt;Node16 -->
<g id="edge24" class="edge">
<title>Node15&#45;&gt;Node16</title>
<path fill="none" stroke="midnightblue" d="M1023,-224.3C1023,-215.3 1023,-205.65 1023,-197.51"/>
<polygon fill="midnightblue" stroke="midnightblue" points="1019.5,-224.43 1023,-234.43 1026.5,-224.43 1019.5,-224.43"/>
</g>
<!-- Node16&#45;&gt;Node3 -->
<g id="edge25" class="edge">
<title>Node16&#45;&gt;Node3</title>
<path fill="none" stroke="midnightblue" d="M933.87,-156.68C932.57,-156.45 931.28,-156.22 930,-156 806.64,-134.82 662.31,-117.7 575.09,-108.2"/>
<polygon fill="midnightblue" stroke="midnightblue" points="933.47,-160.16 943.94,-158.53 934.74,-153.28 933.47,-160.16"/>
</g>
<!-- Node17&#45;&gt;Node4 -->
<g id="edge40" class="edge">
<title>Node17&#45;&gt;Node4</title>
<path fill="none" stroke="midnightblue" d="M1344,-379.91C1344,-348.87 1344,-299.05 1344,-256 1344,-256 1344,-256 1344,-176 1344,-98.29 785.53,-45.29 575.02,-28.07"/>
<polygon fill="midnightblue" stroke="midnightblue" points="1340.5,-380.06 1344,-390.07 1347.5,-380.07 1340.5,-380.06"/>
</g>
<!-- Node18&#45;&gt;Node2 -->
<g id="edge44" class="edge">
<title>Node18&#45;&gt;Node2</title>
<path fill="none" stroke="midnightblue" d="M560.81,-619.98C511.59,-595.35 449,-551.86 449,-490 449,-490 449,-490 449,-410 449,-360.85 433.18,-304.68 423.79,-275.66"/>
<polygon fill="midnightblue" stroke="midnightblue" points="559.3,-623.14 569.83,-624.37 562.36,-616.85 559.3,-623.14"/>
</g>
<!-- Node18&#45;&gt;Node5 -->
<g id="edge45" class="edge">
<title>Node18&#45;&gt;Node5</title>
<path fill="none" stroke="midnightblue" d="M619,-614.3C619,-605.3 619,-595.65 619,-587.51"/>
<polygon fill="midnightblue" stroke="midnightblue" points="615.5,-614.43 619,-624.43 622.5,-614.43 615.5,-614.43"/>
</g>
</g>
</svg>
