<?xml version="1.0" encoding="UTF-8" standalone="no"?>
<!DOCTYPE svg PUBLIC "-//W3C//DTD SVG 1.1//EN"
 "http://www.w3.org/Graphics/SVG/1.1/DTD/svg11.dtd">
<!-- Generated by graphviz version 2.43.0 (0)
 -->
<!-- Title: /home/runner/work/Simulatio/Simulatio/engine/include/Geometry/Bounds.hpp Pages: 1 -->
<svg width="900pt" height="218pt"
 viewBox="0.00 0.00 899.50 218.00" xmlns="http://www.w3.org/2000/svg" xmlns:xlink="http://www.w3.org/1999/xlink">
<g id="graph0" class="graph" transform="scale(1 1) rotate(0) translate(4 214)">
<title>/home/runner/work/Simulatio/Simulatio/engine/include/Geometry/Bounds.hpp</title>
<!-- Node1 -->
<g id="node1" class="node">
<title>Node1</title>
<g id="a_node1"><a xlink:title=" ">
<polygon fill="#bfbfbf" stroke="black" points="330,-168.5 330,-209.5 488,-209.5 488,-168.5 330,-168.5"/>
<text text-anchor="start" x="338" y="-197.5" font-family="Helvetica,sans-Serif" font-size="10.00">/home/runner/work/Simulatio</text>
<text text-anchor="start" x="338" y="-186.5" font-family="Helvetica,sans-Serif" font-size="10.00">/Simulatio/engine/include</text>
<text text-anchor="middle" x="409" y="-175.5" font-family="Helvetica,sans-Serif" font-size="10.00">/Geometry/Bounds.hpp</text>
</a>
</g>
</g>
<!-- Node2 -->
<g id="node2" class="node">
<title>Node2</title>
<g id="a_node2"><a xlink:href="_maths_8hpp.html" target="_top" xlink:title=" ">
<polygon fill="none" stroke="black" points="375,-56.5 375,-75.5 443,-75.5 443,-56.5 375,-56.5"/>
<text text-anchor="middle" x="409" y="-63.5" font-family="Helvetica,sans-Serif" font-size="10.00">Maths.hpp</text>
</a>
</g>
</g>
<!-- Node1&#45;&gt;Node2 -->
<g id="edge1" class="edge">
<title>Node1&#45;&gt;Node2</title>
<path fill="none" stroke="midnightblue" d="M402.77,-168.36C398.67,-153.04 394.48,-131.2 397,-112 398.16,-103.18 400.53,-93.63 402.87,-85.61"/>
<polygon fill="midnightblue" stroke="midnightblue" points="406.29,-86.42 405.91,-75.83 399.6,-84.34 406.29,-86.42"/>
</g>
<!-- Node15 -->
<g id="node15" class="node">
<title>Node15</title>
<g id="a_node15"><a xlink:href="_vector_8hpp.html" target="_top" xlink:title=" ">
<polygon fill="none" stroke="black" points="406,-112.5 406,-131.5 474,-131.5 474,-112.5 406,-112.5"/>
<text text-anchor="middle" x="440" y="-119.5" font-family="Helvetica,sans-Serif" font-size="10.00">Vector.hpp</text>
</a>
</g>
</g>
<!-- Node1&#45;&gt;Node15 -->
<g id="edge14" class="edge">
<title>Node1&#45;&gt;Node15</title>
<path fill="none" stroke="midnightblue" d="M418.3,-168.5C422.51,-159.68 427.44,-149.34 431.54,-140.74"/>
<polygon fill="midnightblue" stroke="midnightblue" points="434.73,-142.19 435.87,-131.65 428.41,-139.17 434.73,-142.19"/>
</g>
<!-- Node3 -->
<g id="node3" class="node">
<title>Node3</title>
<g id="a_node3"><a xlink:title=" ">
<polygon fill="none" stroke="#bfbfbf" points="0,-0.5 0,-19.5 42,-19.5 42,-0.5 0,-0.5"/>
<text text-anchor="middle" x="21" y="-7.5" font-family="Helvetica,sans-Serif" font-size="10.00">array</text>
</a>
</g>
</g>
<!-- Node2&#45;&gt;Node3 -->
<g id="edge2" class="edge">
<title>Node2&#45;&gt;Node3</title>
<path fill="none" stroke="midnightblue" d="M374.88,-62.61C312.53,-57.84 175.97,-45.51 52.22,-19.94"/>
<polygon fill="midnightblue" stroke="midnightblue" points="52.7,-16.46 42.19,-17.83 51.26,-23.32 52.7,-16.46"/>
</g>
<!-- Node4 -->
<g id="node4" class="node">
<title>Node4</title>
<g id="a_node4"><a xlink:title=" ">
<polygon fill="none" stroke="#bfbfbf" points="60,-0.5 60,-19.5 110,-19.5 110,-0.5 60,-0.5"/>
<text text-anchor="middle" x="85" y="-7.5" font-family="Helvetica,sans-Serif" font-size="10.00">chrono</text>
</a>
</g>
</g>
<!-- Node2&#45;&gt;Node4 -->
<g id="edge3" class="edge">
<title>Node2&#45;&gt;Node4</title>
<path fill="none" stroke="midnightblue" d="M374.86,-60.88C322.24,-54.28 217.98,-40.19 120.23,-20.07"/>
<polygon fill="midnightblue" stroke="midnightblue" points="120.68,-16.59 110.18,-17.98 119.26,-23.45 120.68,-16.59"/>
</g>
<!-- Node5 -->
<g id="node5" class="node">
<title>Node5</title>
<g id="a_node5"><a xlink:title=" ">
<polygon fill="none" stroke="#bfbfbf" points="128.5,-0.5 128.5,-19.5 175.5,-19.5 175.5,-0.5 128.5,-0.5"/>
<text text-anchor="middle" x="152" y="-7.5" font-family="Helvetica,sans-Serif" font-size="10.00">cmath</text>
</a>
</g>
</g>
<!-- Node2&#45;&gt;Node5 -->
<g id="edge4" class="edge">
<title>Node2&#45;&gt;Node5</title>
<path fill="none" stroke="midnightblue" d="M374.9,-59.02C332.56,-51.42 257.97,-37.42 185.46,-20.22"/>
<polygon fill="midnightblue" stroke="midnightblue" points="186.25,-16.81 175.71,-17.89 184.62,-23.62 186.25,-16.81"/>
</g>
<!-- Node6 -->
<g id="node6" class="node">
<title>Node6</title>
<g id="a_node6"><a xlink:title=" ">
<polygon fill="none" stroke="#bfbfbf" points="193.5,-0.5 193.5,-19.5 240.5,-19.5 240.5,-0.5 193.5,-0.5"/>
<text text-anchor="middle" x="217" y="-7.5" font-family="Helvetica,sans-Serif" font-size="10.00">deque</text>
</a>
</g>
</g>
<!-- Node2&#45;&gt;Node6 -->
<g id="edge5" class="edge">
<title>Node2&#45;&gt;Node6</title>
<path fill="none" stroke="midnightblue" d="M378.58,-56.44C343.74,-46.65 286.83,-30.64 250.68,-20.47"/>
<polygon fill="midnightblue" stroke="midnightblue" points="251.2,-16.98 240.62,-17.64 249.3,-23.72 251.2,-16.98"/>
</g>
<!-- Node7 -->
<g id="node7" class="node">
<title>Node7</title>
<g id="a_node7"><a xlink:title=" ">
<polygon fill="none" stroke="#bfbfbf" points="258.5,-0.5 258.5,-19.5 323.5,-19.5 323.5,-0.5 258.5,-0.5"/>
<text text-anchor="middle" x="291" y="-7.5" font-family="Helvetica,sans-Serif" font-size="10.00">functional</text>
</a>
</g>
</g>
<!-- Node2&#45;&gt;Node7 -->
<g id="edge6" class="edge">
<title>Node2&#45;&gt;Node7</title>
<path fill="none" stroke="midnightblue" d="M390.3,-56.44C371.06,-47.64 340.85,-33.81 318.8,-23.72"/>
<polygon fill="midnightblue" stroke="midnightblue" points="320.16,-20.5 309.61,-19.52 317.25,-26.86 320.16,-20.5"/>
</g>
<!-- Node8 -->
<g id="node8" class="node">
<title>Node8</title>
<g id="a_node8"><a xlink:title=" ">
<polygon fill="none" stroke="#bfbfbf" points="342,-0.5 342,-19.5 402,-19.5 402,-0.5 342,-0.5"/>
<text text-anchor="middle" x="372" y="-7.5" font-family="Helvetica,sans-Serif" font-size="10.00">iostream</text>
</a>
</g>
</g>
<!-- Node2&#45;&gt;Node8 -->
<g id="edge7" class="edge">
<title>Node2&#45;&gt;Node8</title>
<path fill="none" stroke="midnightblue" d="M402.89,-56.08C397.72,-48.53 390.15,-37.49 383.81,-28.23"/>
<polygon fill="midnightblue" stroke="midnightblue" points="386.54,-26.02 378,-19.75 380.76,-29.98 386.54,-26.02"/>
</g>
<!-- Node9 -->
<g id="node9" class="node">
<title>Node9</title>
<g id="a_node9"><a xlink:title=" ">
<polygon fill="none" stroke="#bfbfbf" points="420.5,-0.5 420.5,-19.5 473.5,-19.5 473.5,-0.5 420.5,-0.5"/>
<text text-anchor="middle" x="447" y="-7.5" font-family="Helvetica,sans-Serif" font-size="10.00">iterator</text>
</a>
</g>
</g>
<!-- Node2&#45;&gt;Node9 -->
<g id="edge8" class="edge">
<title>Node2&#45;&gt;Node9</title>
<path fill="none" stroke="midnightblue" d="M415.27,-56.08C420.64,-48.46 428.52,-37.26 435.08,-27.94"/>
<polygon fill="midnightblue" stroke="midnightblue" points="437.95,-29.94 440.84,-19.75 432.22,-25.91 437.95,-29.94"/>
</g>
<!-- Node10 -->
<g id="node10" class="node">
<title>Node10</title>
<g id="a_node10"><a xlink:title=" ">
<polygon fill="none" stroke="#bfbfbf" points="492,-0.5 492,-19.5 550,-19.5 550,-0.5 492,-0.5"/>
<text text-anchor="middle" x="521" y="-7.5" font-family="Helvetica,sans-Serif" font-size="10.00">memory</text>
</a>
</g>
</g>
<!-- Node2&#45;&gt;Node10 -->
<g id="edge9" class="edge">
<title>Node2&#45;&gt;Node10</title>
<path fill="none" stroke="midnightblue" d="M426.99,-56.32C445.04,-47.62 473.05,-34.12 493.8,-24.11"/>
<polygon fill="midnightblue" stroke="midnightblue" points="495.56,-27.15 503.05,-19.65 492.52,-20.84 495.56,-27.15"/>
</g>
<!-- Node11 -->
<g id="node11" class="node">
<title>Node11</title>
<g id="a_node11"><a xlink:title=" ">
<polygon fill="none" stroke="#bfbfbf" points="568,-0.5 568,-19.5 624,-19.5 624,-0.5 568,-0.5"/>
<text text-anchor="middle" x="596" y="-7.5" font-family="Helvetica,sans-Serif" font-size="10.00">sstream</text>
</a>
</g>
</g>
<!-- Node2&#45;&gt;Node11 -->
<g id="edge10" class="edge">
<title>Node2&#45;&gt;Node11</title>
<path fill="none" stroke="midnightblue" d="M438.63,-56.44C470.88,-47.13 522.53,-32.22 557.8,-22.03"/>
<polygon fill="midnightblue" stroke="midnightblue" points="559.1,-25.3 567.73,-19.16 557.15,-18.57 559.1,-25.3"/>
</g>
<!-- Node12 -->
<g id="node12" class="node">
<title>Node12</title>
<g id="a_node12"><a xlink:title=" ">
<polygon fill="none" stroke="#bfbfbf" points="642.5,-0.5 642.5,-19.5 715.5,-19.5 715.5,-0.5 642.5,-0.5"/>
<text text-anchor="middle" x="679" y="-7.5" font-family="Helvetica,sans-Serif" font-size="10.00">string_view</text>
</a>
</g>
</g>
<!-- Node2&#45;&gt;Node12 -->
<g id="edge11" class="edge">
<title>Node2&#45;&gt;Node12</title>
<path fill="none" stroke="midnightblue" d="M443.2,-58.16C491.19,-48.56 578.67,-31.07 632.52,-20.3"/>
<polygon fill="midnightblue" stroke="midnightblue" points="633.38,-23.69 642.5,-18.3 632.01,-16.83 633.38,-23.69"/>
</g>
<!-- Node13 -->
<g id="node13" class="node">
<title>Node13</title>
<g id="a_node13"><a xlink:title=" ">
<polygon fill="none" stroke="#bfbfbf" points="733.5,-0.5 733.5,-19.5 826.5,-19.5 826.5,-0.5 733.5,-0.5"/>
<text text-anchor="middle" x="780" y="-7.5" font-family="Helvetica,sans-Serif" font-size="10.00">unordered_map</text>
</a>
</g>
</g>
<!-- Node2&#45;&gt;Node13 -->
<g id="edge12" class="edge">
<title>Node2&#45;&gt;Node13</title>
<path fill="none" stroke="midnightblue" d="M443.17,-60.37C499.41,-52.7 615.27,-36.68 723.4,-20.22"/>
<polygon fill="midnightblue" stroke="midnightblue" points="724.14,-23.65 733.5,-18.68 723.09,-16.73 724.14,-23.65"/>
</g>
<!-- Node14 -->
<g id="node14" class="node">
<title>Node14</title>
<g id="a_node14"><a xlink:title=" ">
<polygon fill="none" stroke="#bfbfbf" points="844.5,-0.5 844.5,-19.5 891.5,-19.5 891.5,-0.5 844.5,-0.5"/>
<text text-anchor="middle" x="868" y="-7.5" font-family="Helvetica,sans-Serif" font-size="10.00">vector</text>
</a>
</g>
</g>
<!-- Node2&#45;&gt;Node14 -->
<g id="edge13" class="edge">
<title>Node2&#45;&gt;Node14</title>
<path fill="none" stroke="midnightblue" d="M443.05,-63.37C514.21,-59.55 683.92,-48.24 834.45,-20.02"/>
<polygon fill="midnightblue" stroke="midnightblue" points="835.17,-23.45 844.34,-18.14 833.86,-16.57 835.17,-23.45"/>
</g>
<!-- Node15&#45;&gt;Node2 -->
<g id="edge15" class="edge">
<title>Node15&#45;&gt;Node2</title>
<path fill="none" stroke="midnightblue" d="M434.88,-112.08C430.59,-104.61 424.34,-93.72 419.06,-84.52"/>
<polygon fill="midnightblue" stroke="midnightblue" points="422.04,-82.68 414.02,-75.75 415.97,-86.17 422.04,-82.68"/>
</g>
</g>
</svg>
