<?xml version="1.0" encoding="UTF-8" standalone="no"?>
<!DOCTYPE svg PUBLIC "-//W3C//DTD SVG 1.1//EN"
 "http://www.w3.org/Graphics/SVG/1.1/DTD/svg11.dtd">
<!-- Generated by graphviz version 2.43.0 (0)
 -->
<!-- Title: /home/runner/work/Simulatio/Simulatio/engine/include/Geometry/Bounds.hpp Pages: 1 -->
<svg width="1780pt" height="752pt"
 viewBox="0.00 0.00 1780.00 752.00" xmlns="http://www.w3.org/2000/svg" xmlns:xlink="http://www.w3.org/1999/xlink">
<g id="graph0" class="graph" transform="scale(1 1) rotate(0) translate(4 748)">
<title>/home/runner/work/Simulatio/Simulatio/engine/include/Geometry/Bounds.hpp</title>
<!-- Node1 -->
<g id="node1" class="node">
<title>Node1</title>
<g id="a_node1"><a xlink:title=" ">
<polygon fill="#bfbfbf" stroke="black" points="762,-702.5 762,-743.5 920,-743.5 920,-702.5 762,-702.5"/>
<text text-anchor="start" x="770" y="-731.5" font-family="Helvetica,sans-Serif" font-size="10.00">/home/runner/work/Simulatio</text>
<text text-anchor="start" x="770" y="-720.5" font-family="Helvetica,sans-Serif" font-size="10.00">/Simulatio/engine/include</text>
<text text-anchor="middle" x="841" y="-709.5" font-family="Helvetica,sans-Serif" font-size="10.00">/Geometry/Bounds.hpp</text>
</a>
</g>
</g>
<!-- Node2 -->
<g id="node2" class="node">
<title>Node2</title>
<g id="a_node2"><a xlink:href="_collision_8hpp.html" target="_top" xlink:title=" ">
<polygon fill="none" stroke="black" points="144,-234.5 144,-275.5 302,-275.5 302,-234.5 144,-234.5"/>
<text text-anchor="start" x="152" y="-263.5" font-family="Helvetica,sans-Serif" font-size="10.00">/home/runner/work/Simulatio</text>
<text text-anchor="start" x="152" y="-252.5" font-family="Helvetica,sans-Serif" font-size="10.00">/Simulatio/engine/include</text>
<text text-anchor="middle" x="223" y="-241.5" font-family="Helvetica,sans-Serif" font-size="10.00">/Geometry/Collision.hpp</text>
</a>
</g>
</g>
<!-- Node1&#45;&gt;Node2 -->
<g id="edge1" class="edge">
<title>Node1&#45;&gt;Node2</title>
<path fill="none" stroke="midnightblue" d="M751.82,-714.96C535.39,-696.68 0,-643.8 0,-568 0,-568 0,-568 0,-488 0,-384.37 117.09,-309.11 181.58,-275.51"/>
<polygon fill="midnightblue" stroke="midnightblue" points="751.62,-718.45 761.88,-715.8 752.21,-711.48 751.62,-718.45"/>
</g>
<!-- Node6 -->
<g id="node6" class="node">
<title>Node6</title>
<g id="a_node6"><a xlink:href="_geometry_8hpp.html" target="_top" xlink:title=" ">
<polygon fill="none" stroke="black" points="507,-546.5 507,-587.5 665,-587.5 665,-546.5 507,-546.5"/>
<text text-anchor="start" x="515" y="-575.5" font-family="Helvetica,sans-Serif" font-size="10.00">/home/runner/work/Simulatio</text>
<text text-anchor="start" x="515" y="-564.5" font-family="Helvetica,sans-Serif" font-size="10.00">/Simulatio/engine/include</text>
<text text-anchor="middle" x="586" y="-553.5" font-family="Helvetica,sans-Serif" font-size="10.00">/Geometry/Geometry.hpp</text>
</a>
</g>
</g>
<!-- Node1&#45;&gt;Node6 -->
<g id="edge5" class="edge">
<title>Node1&#45;&gt;Node6</title>
<path fill="none" stroke="midnightblue" d="M799.99,-697.23C749.46,-666.72 664.66,-615.5 618.44,-587.59"/>
<polygon fill="midnightblue" stroke="midnightblue" points="798.33,-700.32 808.7,-702.5 801.95,-694.33 798.33,-700.32"/>
</g>
<!-- Node20 -->
<g id="node20" class="node">
<title>Node20</title>
<g id="a_node20"><a xlink:href="_quad_node_8hpp.html" target="_top" xlink:title=" ">
<polygon fill="none" stroke="black" points="733,-234.5 733,-275.5 891,-275.5 891,-234.5 733,-234.5"/>
<text text-anchor="start" x="741" y="-263.5" font-family="Helvetica,sans-Serif" font-size="10.00">/home/runner/work/Simulatio</text>
<text text-anchor="start" x="741" y="-252.5" font-family="Helvetica,sans-Serif" font-size="10.00">/Simulatio/engine/include</text>
<text text-anchor="middle" x="812" y="-241.5" font-family="Helvetica,sans-Serif" font-size="10.00">/Structures/QuadNode.hpp</text>
</a>
</g>
</g>
<!-- Node1&#45;&gt;Node20 -->
<g id="edge52" class="edge">
<title>Node1&#45;&gt;Node20</title>
<path fill="none" stroke="midnightblue" d="M913.14,-697.54C926.62,-689.61 938.98,-679.31 947,-666 956.64,-650.01 950.26,-642.38 947,-624 922.3,-484.97 848.95,-329.55 822.04,-275.65"/>
<polygon fill="midnightblue" stroke="midnightblue" points="911.28,-694.57 904.16,-702.41 914.62,-700.72 911.28,-694.57"/>
</g>
<!-- Node21 -->
<g id="node21" class="node">
<title>Node21</title>
<g id="a_node21"><a xlink:href="_quadtree_8hpp.html" target="_top" xlink:title=" ">
<polygon fill="none" stroke="black" points="408,-156.5 408,-197.5 566,-197.5 566,-156.5 408,-156.5"/>
<text text-anchor="start" x="416" y="-185.5" font-family="Helvetica,sans-Serif" font-size="10.00">/home/runner/work/Simulatio</text>
<text text-anchor="start" x="416" y="-174.5" font-family="Helvetica,sans-Serif" font-size="10.00">/Simulatio/engine/include</text>
<text text-anchor="middle" x="487" y="-163.5" font-family="Helvetica,sans-Serif" font-size="10.00">/Structures/Quadtree.hpp</text>
</a>
</g>
</g>
<!-- Node1&#45;&gt;Node21 -->
<g id="edge53" class="edge">
<title>Node1&#45;&gt;Node21</title>
<path fill="none" stroke="midnightblue" d="M857.57,-693.3C903.01,-610.47 1018.52,-368.32 900,-234 857.47,-185.8 676.64,-207.04 613,-198 597.87,-195.85 581.74,-193.41 566.25,-190.98"/>
<polygon fill="midnightblue" stroke="midnightblue" points="854.45,-691.72 852.65,-702.16 860.57,-695.12 854.45,-691.72"/>
</g>
<!-- Node27 -->
<g id="node27" class="node">
<title>Node27</title>
<g id="a_node27"><a xlink:href="_vertices_8hpp.html" target="_top" xlink:title=" ">
<polygon fill="none" stroke="black" points="407,-624.5 407,-665.5 565,-665.5 565,-624.5 407,-624.5"/>
<text text-anchor="start" x="415" y="-653.5" font-family="Helvetica,sans-Serif" font-size="10.00">/home/runner/work/Simulatio</text>
<text text-anchor="start" x="415" y="-642.5" font-family="Helvetica,sans-Serif" font-size="10.00">/Simulatio/engine/include</text>
<text text-anchor="middle" x="486" y="-631.5" font-family="Helvetica,sans-Serif" font-size="10.00">/Geometry/Vertices.hpp</text>
</a>
</g>
</g>
<!-- Node1&#45;&gt;Node27 -->
<g id="edge48" class="edge">
<title>Node1&#45;&gt;Node27</title>
<path fill="none" stroke="midnightblue" d="M751.99,-702.94C694.61,-690.66 620.65,-674.83 565.29,-662.98"/>
<polygon fill="midnightblue" stroke="midnightblue" points="751.26,-706.37 761.77,-705.04 752.73,-699.52 751.26,-706.37"/>
</g>
<!-- Node29 -->
<g id="node29" class="node">
<title>Node29</title>
<g id="a_node29"><a xlink:href="_bounds_8cpp.html" target="_top" xlink:title=" ">
<polygon fill="none" stroke="black" points="999.5,-624.5 999.5,-665.5 1170.5,-665.5 1170.5,-624.5 999.5,-624.5"/>
<text text-anchor="start" x="1007.5" y="-653.5" font-family="Helvetica,sans-Serif" font-size="10.00">/home/runner/work/Simulatio</text>
<text text-anchor="start" x="1007.5" y="-642.5" font-family="Helvetica,sans-Serif" font-size="10.00">/Simulatio/engine/src/Geometry</text>
<text text-anchor="middle" x="1085" y="-631.5" font-family="Helvetica,sans-Serif" font-size="10.00">/Bounds.cpp</text>
</a>
</g>
</g>
<!-- Node1&#45;&gt;Node29 -->
<g id="edge54" class="edge">
<title>Node1&#45;&gt;Node29</title>
<path fill="none" stroke="midnightblue" d="M913.42,-699.44C948.05,-688.66 989.11,-675.87 1022.38,-665.51"/>
<polygon fill="midnightblue" stroke="midnightblue" points="912.34,-696.11 903.84,-702.43 914.42,-702.8 912.34,-696.11"/>
</g>
<!-- Node3 -->
<g id="node3" class="node">
<title>Node3</title>
<g id="a_node3"><a xlink:href="_system_8hpp.html" target="_top" xlink:title=" ">
<polygon fill="none" stroke="black" points="461,-78.5 461,-119.5 619,-119.5 619,-78.5 461,-78.5"/>
<text text-anchor="start" x="469" y="-107.5" font-family="Helvetica,sans-Serif" font-size="10.00">/home/runner/work/Simulatio</text>
<text text-anchor="start" x="469" y="-96.5" font-family="Helvetica,sans-Serif" font-size="10.00">/Simulatio/engine/include</text>
<text text-anchor="middle" x="540" y="-85.5" font-family="Helvetica,sans-Serif" font-size="10.00">/Structures/System.hpp</text>
</a>
</g>
</g>
<!-- Node2&#45;&gt;Node3 -->
<g id="edge2" class="edge">
<title>Node2&#45;&gt;Node3</title>
<path fill="none" stroke="midnightblue" d="M192.76,-227.06C172.92,-206.15 153.74,-177.25 172,-156 208.49,-113.54 364.13,-102.9 460.94,-100.46"/>
<polygon fill="midnightblue" stroke="midnightblue" points="190.5,-229.75 200.03,-234.37 195.46,-224.81 190.5,-229.75"/>
</g>
<!-- Node5 -->
<g id="node5" class="node">
<title>Node5</title>
<g id="a_node5"><a xlink:href="_collision_8cpp.html" target="_top" xlink:title=" ">
<polygon fill="none" stroke="black" points="180.5,-156.5 180.5,-197.5 351.5,-197.5 351.5,-156.5 180.5,-156.5"/>
<text text-anchor="start" x="188.5" y="-185.5" font-family="Helvetica,sans-Serif" font-size="10.00">/home/runner/work/Simulatio</text>
<text text-anchor="start" x="188.5" y="-174.5" font-family="Helvetica,sans-Serif" font-size="10.00">/Simulatio/engine/src/Geometry</text>
<text text-anchor="middle" x="266" y="-163.5" font-family="Helvetica,sans-Serif" font-size="10.00">/Collision.cpp</text>
</a>
</g>
</g>
<!-- Node2&#45;&gt;Node5 -->
<g id="edge4" class="edge">
<title>Node2&#45;&gt;Node5</title>
<path fill="none" stroke="midnightblue" d="M239.14,-225.47C244.42,-216.14 250.15,-206.01 254.96,-197.51"/>
<polygon fill="midnightblue" stroke="midnightblue" points="235.95,-224 234.07,-234.43 242.04,-227.45 235.95,-224"/>
</g>
<!-- Node4 -->
<g id="node4" class="node">
<title>Node4</title>
<g id="a_node4"><a xlink:href="_system_8cpp.html" target="_top" xlink:title=" ">
<polygon fill="none" stroke="black" points="454,-0.5 454,-41.5 626,-41.5 626,-0.5 454,-0.5"/>
<text text-anchor="start" x="462" y="-29.5" font-family="Helvetica,sans-Serif" font-size="10.00">/home/runner/work/Simulatio</text>
<text text-anchor="start" x="462" y="-18.5" font-family="Helvetica,sans-Serif" font-size="10.00">/Simulatio/engine/src/Structures</text>
<text text-anchor="middle" x="540" y="-7.5" font-family="Helvetica,sans-Serif" font-size="10.00">/System.cpp</text>
</a>
</g>
</g>
<!-- Node3&#45;&gt;Node4 -->
<g id="edge3" class="edge">
<title>Node3&#45;&gt;Node4</title>
<path fill="none" stroke="midnightblue" d="M540,-68.3C540,-59.3 540,-49.65 540,-41.51"/>
<polygon fill="midnightblue" stroke="midnightblue" points="536.5,-68.43 540,-78.43 543.5,-68.43 536.5,-68.43"/>
</g>
<!-- Node6&#45;&gt;Node3 -->
<g id="edge46" class="edge">
<title>Node6&#45;&gt;Node3</title>
<path fill="none" stroke="midnightblue" d="M496.82,-545.9C297.82,-509.12 76,-605.52 76,-412 76,-412 76,-412 76,-254 76,-206.61 80.24,-184.64 118,-156 170.41,-116.25 353.96,-104.7 460.94,-101.36"/>
<polygon fill="midnightblue" stroke="midnightblue" points="496.39,-549.38 506.87,-547.88 497.74,-542.51 496.39,-549.38"/>
</g>
<!-- Node7 -->
<g id="node7" class="node">
<title>Node7</title>
<g id="a_node7"><a xlink:href="_constraint_8hpp.html" target="_top" xlink:title=" ">
<polygon fill="none" stroke="black" points="1018,-234.5 1018,-275.5 1176,-275.5 1176,-234.5 1018,-234.5"/>
<text text-anchor="start" x="1026" y="-263.5" font-family="Helvetica,sans-Serif" font-size="10.00">/home/runner/work/Simulatio</text>
<text text-anchor="start" x="1026" y="-252.5" font-family="Helvetica,sans-Serif" font-size="10.00">/Simulatio/engine/include</text>
<text text-anchor="middle" x="1097" y="-241.5" font-family="Helvetica,sans-Serif" font-size="10.00">/Constraints/Constraint.hpp</text>
</a>
</g>
</g>
<!-- Node6&#45;&gt;Node7 -->
<g id="edge6" class="edge">
<title>Node6&#45;&gt;Node7</title>
<path fill="none" stroke="midnightblue" d="M638.09,-542.01C715.17,-505.6 863.01,-432.31 979,-354 1014.97,-329.71 1052.98,-296.62 1075.84,-275.79"/>
<polygon fill="midnightblue" stroke="midnightblue" points="636.15,-539.05 628.59,-546.47 639.13,-545.38 636.15,-539.05"/>
</g>
<!-- Node17 -->
<g id="node17" class="node">
<title>Node17</title>
<g id="a_node17"><a xlink:href="_corpse_8hpp.html" target="_top" xlink:title=" ">
<polygon fill="none" stroke="black" points="507,-468.5 507,-509.5 665,-509.5 665,-468.5 507,-468.5"/>
<text text-anchor="start" x="515" y="-497.5" font-family="Helvetica,sans-Serif" font-size="10.00">/home/runner/work/Simulatio</text>
<text text-anchor="start" x="515" y="-486.5" font-family="Helvetica,sans-Serif" font-size="10.00">/Simulatio/engine/include</text>
<text text-anchor="middle" x="586" y="-475.5" font-family="Helvetica,sans-Serif" font-size="10.00">/Corpses/Corpse.hpp</text>
</a>
</g>
</g>
<!-- Node6&#45;&gt;Node17 -->
<g id="edge20" class="edge">
<title>Node6&#45;&gt;Node17</title>
<path fill="none" stroke="midnightblue" d="M586,-536.3C586,-527.3 586,-517.65 586,-509.51"/>
<polygon fill="midnightblue" stroke="midnightblue" points="582.5,-536.43 586,-546.43 589.5,-536.43 582.5,-536.43"/>
</g>
<!-- Node26 -->
<g id="node26" class="node">
<title>Node26</title>
<g id="a_node26"><a xlink:href="_geometry_8cpp.html" target="_top" xlink:title=" ">
<polygon fill="none" stroke="black" points="317.5,-468.5 317.5,-509.5 488.5,-509.5 488.5,-468.5 317.5,-468.5"/>
<text text-anchor="start" x="325.5" y="-497.5" font-family="Helvetica,sans-Serif" font-size="10.00">/home/runner/work/Simulatio</text>
<text text-anchor="start" x="325.5" y="-486.5" font-family="Helvetica,sans-Serif" font-size="10.00">/Simulatio/engine/src/Geometry</text>
<text text-anchor="middle" x="403" y="-475.5" font-family="Helvetica,sans-Serif" font-size="10.00">/Geometry.cpp</text>
</a>
</g>
</g>
<!-- Node6&#45;&gt;Node26 -->
<g id="edge47" class="edge">
<title>Node6&#45;&gt;Node26</title>
<path fill="none" stroke="midnightblue" d="M529.34,-542.47C503.87,-531.89 474.17,-519.56 449.97,-509.51"/>
<polygon fill="midnightblue" stroke="midnightblue" points="528.3,-545.82 538.87,-546.43 530.98,-539.36 528.3,-545.82"/>
</g>
<!-- Node7&#45;&gt;Node3 -->
<g id="edge18" class="edge">
<title>Node7&#45;&gt;Node3</title>
<path fill="none" stroke="midnightblue" d="M1007.69,-234.79C934.59,-219.02 842.89,-199.09 841,-198 819.22,-185.38 824.81,-168.56 803,-156 746.67,-123.55 673.8,-109.84 619.06,-104.07"/>
<polygon fill="midnightblue" stroke="midnightblue" points="1007.36,-238.3 1017.87,-236.99 1008.84,-231.46 1007.36,-238.3"/>
</g>
<!-- Node8 -->
<g id="node8" class="node">
<title>Node8</title>
<g id="a_node8"><a xlink:href="_link_8hpp.html" target="_top" xlink:title=" ">
<polygon fill="none" stroke="black" points="1398,-156.5 1398,-197.5 1556,-197.5 1556,-156.5 1398,-156.5"/>
<text text-anchor="start" x="1406" y="-185.5" font-family="Helvetica,sans-Serif" font-size="10.00">/home/runner/work/Simulatio</text>
<text text-anchor="start" x="1406" y="-174.5" font-family="Helvetica,sans-Serif" font-size="10.00">/Simulatio/engine/include</text>
<text text-anchor="middle" x="1477" y="-163.5" font-family="Helvetica,sans-Serif" font-size="10.00">/Constraints/Link.hpp</text>
</a>
</g>
</g>
<!-- Node7&#45;&gt;Node8 -->
<g id="edge7" class="edge">
<title>Node7&#45;&gt;Node8</title>
<path fill="none" stroke="midnightblue" d="M1186.01,-237.74C1243.93,-226.96 1321.06,-212.23 1389,-198 1391.91,-197.39 1394.88,-196.76 1397.87,-196.12"/>
<polygon fill="midnightblue" stroke="midnightblue" points="1185.35,-234.31 1176.15,-239.57 1186.62,-241.19 1185.35,-234.31"/>
</g>
<!-- Node10 -->
<g id="node10" class="node">
<title>Node10</title>
<g id="a_node10"><a xlink:href="_loose_8hpp.html" target="_top" xlink:title=" ">
<polygon fill="none" stroke="black" points="1589,-156.5 1589,-197.5 1747,-197.5 1747,-156.5 1589,-156.5"/>
<text text-anchor="start" x="1597" y="-185.5" font-family="Helvetica,sans-Serif" font-size="10.00">/home/runner/work/Simulatio</text>
<text text-anchor="start" x="1597" y="-174.5" font-family="Helvetica,sans-Serif" font-size="10.00">/Simulatio/engine/include</text>
<text text-anchor="middle" x="1668" y="-163.5" font-family="Helvetica,sans-Serif" font-size="10.00">/Constraints/Loose.hpp</text>
</a>
</g>
</g>
<!-- Node7&#45;&gt;Node10 -->
<g id="edge10" class="edge">
<title>Node7&#45;&gt;Node10</title>
<path fill="none" stroke="midnightblue" d="M1186.4,-245.26C1280.78,-235.57 1433.76,-218.57 1565,-198 1572.74,-196.79 1580.78,-195.42 1588.81,-193.98"/>
<polygon fill="midnightblue" stroke="midnightblue" points="1185.91,-241.79 1176.32,-246.28 1186.62,-248.75 1185.91,-241.79"/>
</g>
<!-- Node12 -->
<g id="node12" class="node">
<title>Node12</title>
<g id="a_node12"><a xlink:href="_slider_8hpp.html" target="_top" xlink:title=" ">
<polygon fill="none" stroke="black" points="1222,-156.5 1222,-197.5 1380,-197.5 1380,-156.5 1222,-156.5"/>
<text text-anchor="start" x="1230" y="-185.5" font-family="Helvetica,sans-Serif" font-size="10.00">/home/runner/work/Simulatio</text>
<text text-anchor="start" x="1230" y="-174.5" font-family="Helvetica,sans-Serif" font-size="10.00">/Simulatio/engine/include</text>
<text text-anchor="middle" x="1301" y="-163.5" font-family="Helvetica,sans-Serif" font-size="10.00">/Constraints/Slider.hpp</text>
</a>
</g>
</g>
<!-- Node7&#45;&gt;Node12 -->
<g id="edge12" class="edge">
<title>Node7&#45;&gt;Node12</title>
<path fill="none" stroke="midnightblue" d="M1159.04,-230.89C1187.68,-220.22 1221.31,-207.69 1248.64,-197.51"/>
<polygon fill="midnightblue" stroke="midnightblue" points="1157.68,-227.66 1149.54,-234.43 1160.13,-234.22 1157.68,-227.66"/>
</g>
<!-- Node14 -->
<g id="node14" class="node">
<title>Node14</title>
<g id="a_node14"><a xlink:href="_spring_8hpp.html" target="_top" xlink:title=" ">
<polygon fill="none" stroke="black" points="1046,-156.5 1046,-197.5 1204,-197.5 1204,-156.5 1046,-156.5"/>
<text text-anchor="start" x="1054" y="-185.5" font-family="Helvetica,sans-Serif" font-size="10.00">/home/runner/work/Simulatio</text>
<text text-anchor="start" x="1054" y="-174.5" font-family="Helvetica,sans-Serif" font-size="10.00">/Simulatio/engine/include</text>
<text text-anchor="middle" x="1125" y="-163.5" font-family="Helvetica,sans-Serif" font-size="10.00">/Constraints/Spring.hpp</text>
</a>
</g>
</g>
<!-- Node7&#45;&gt;Node14 -->
<g id="edge15" class="edge">
<title>Node7&#45;&gt;Node14</title>
<path fill="none" stroke="midnightblue" d="M1107.73,-224.88C1111.1,-215.72 1114.75,-205.83 1117.81,-197.51"/>
<polygon fill="midnightblue" stroke="midnightblue" points="1104.38,-223.83 1104.21,-234.43 1110.95,-226.25 1104.38,-223.83"/>
</g>
<!-- Node16 -->
<g id="node16" class="node">
<title>Node16</title>
<g id="a_node16"><a xlink:href="_constraint_8cpp.html" target="_top" xlink:title=" ">
<polygon fill="none" stroke="black" points="850,-156.5 850,-197.5 1028,-197.5 1028,-156.5 850,-156.5"/>
<text text-anchor="start" x="858" y="-185.5" font-family="Helvetica,sans-Serif" font-size="10.00">/home/runner/work/Simulatio</text>
<text text-anchor="start" x="858" y="-174.5" font-family="Helvetica,sans-Serif" font-size="10.00">/Simulatio/engine/src/Constraints</text>
<text text-anchor="middle" x="939" y="-163.5" font-family="Helvetica,sans-Serif" font-size="10.00">/Constraint.cpp</text>
</a>
</g>
</g>
<!-- Node7&#45;&gt;Node16 -->
<g id="edge19" class="edge">
<title>Node7&#45;&gt;Node16</title>
<path fill="none" stroke="midnightblue" d="M1047.21,-230.05C1025.41,-219.57 1000.17,-207.42 979.55,-197.51"/>
<polygon fill="midnightblue" stroke="midnightblue" points="1045.78,-233.25 1056.31,-234.43 1048.82,-226.94 1045.78,-233.25"/>
</g>
<!-- Node8&#45;&gt;Node3 -->
<g id="edge8" class="edge">
<title>Node8&#45;&gt;Node3</title>
<path fill="none" stroke="midnightblue" d="M1387.99,-156.01C1223.73,-133.63 796.59,-111.99 619.03,-103.62"/>
<polygon fill="midnightblue" stroke="midnightblue" points="1387.57,-159.49 1397.96,-157.42 1388.54,-152.55 1387.57,-159.49"/>
</g>
<!-- Node9 -->
<g id="node9" class="node">
<title>Node9</title>
<g id="a_node9"><a xlink:href="_link_8cpp.html" target="_top" xlink:title=" ">
<polygon fill="none" stroke="black" points="1398,-78.5 1398,-119.5 1576,-119.5 1576,-78.5 1398,-78.5"/>
<text text-anchor="start" x="1406" y="-107.5" font-family="Helvetica,sans-Serif" font-size="10.00">/home/runner/work/Simulatio</text>
<text text-anchor="start" x="1406" y="-96.5" font-family="Helvetica,sans-Serif" font-size="10.00">/Simulatio/engine/src/Constraints</text>
<text text-anchor="middle" x="1487" y="-85.5" font-family="Helvetica,sans-Serif" font-size="10.00">/Link.cpp</text>
</a>
</g>
</g>
<!-- Node8&#45;&gt;Node9 -->
<g id="edge9" class="edge">
<title>Node8&#45;&gt;Node9</title>
<path fill="none" stroke="midnightblue" d="M1480.91,-146.3C1482.09,-137.3 1483.36,-127.65 1484.43,-119.51"/>
<polygon fill="midnightblue" stroke="midnightblue" points="1477.41,-146.06 1479.58,-156.43 1484.35,-146.97 1477.41,-146.06"/>
</g>
<!-- Node11 -->
<g id="node11" class="node">
<title>Node11</title>
<g id="a_node11"><a xlink:href="_loose_8cpp.html" target="_top" xlink:title=" ">
<polygon fill="none" stroke="black" points="1594,-78.5 1594,-119.5 1772,-119.5 1772,-78.5 1594,-78.5"/>
<text text-anchor="start" x="1602" y="-107.5" font-family="Helvetica,sans-Serif" font-size="10.00">/home/runner/work/Simulatio</text>
<text text-anchor="start" x="1602" y="-96.5" font-family="Helvetica,sans-Serif" font-size="10.00">/Simulatio/engine/src/Constraints</text>
<text text-anchor="middle" x="1683" y="-85.5" font-family="Helvetica,sans-Serif" font-size="10.00">/Loose.cpp</text>
</a>
</g>
</g>
<!-- Node10&#45;&gt;Node11 -->
<g id="edge11" class="edge">
<title>Node10&#45;&gt;Node11</title>
<path fill="none" stroke="midnightblue" d="M1673.8,-146.59C1675.6,-137.51 1677.52,-127.74 1679.15,-119.51"/>
<polygon fill="midnightblue" stroke="midnightblue" points="1670.37,-145.94 1671.86,-156.43 1677.23,-147.3 1670.37,-145.94"/>
</g>
<!-- Node12&#45;&gt;Node3 -->
<g id="edge13" class="edge">
<title>Node12&#45;&gt;Node3</title>
<path fill="none" stroke="midnightblue" d="M1211.84,-155.93C992.13,-122.63 743.49,-108.46 619.17,-102.98"/>
<polygon fill="midnightblue" stroke="midnightblue" points="1211.53,-159.43 1221.95,-157.48 1212.59,-152.51 1211.53,-159.43"/>
</g>
<!-- Node13 -->
<g id="node13" class="node">
<title>Node13</title>
<g id="a_node13"><a xlink:href="_slider_8cpp.html" target="_top" xlink:title=" ">
<polygon fill="none" stroke="black" points="1202,-78.5 1202,-119.5 1380,-119.5 1380,-78.5 1202,-78.5"/>
<text text-anchor="start" x="1210" y="-107.5" font-family="Helvetica,sans-Serif" font-size="10.00">/home/runner/work/Simulatio</text>
<text text-anchor="start" x="1210" y="-96.5" font-family="Helvetica,sans-Serif" font-size="10.00">/Simulatio/engine/src/Constraints</text>
<text text-anchor="middle" x="1291" y="-85.5" font-family="Helvetica,sans-Serif" font-size="10.00">/Slider.cpp</text>
</a>
</g>
</g>
<!-- Node12&#45;&gt;Node13 -->
<g id="edge14" class="edge">
<title>Node12&#45;&gt;Node13</title>
<path fill="none" stroke="midnightblue" d="M1297.09,-146.3C1295.91,-137.3 1294.64,-127.65 1293.57,-119.51"/>
<polygon fill="midnightblue" stroke="midnightblue" points="1293.65,-146.97 1298.42,-156.43 1300.59,-146.06 1293.65,-146.97"/>
</g>
<!-- Node14&#45;&gt;Node3 -->
<g id="edge16" class="edge">
<title>Node14&#45;&gt;Node3</title>
<path fill="none" stroke="midnightblue" d="M1035.88,-155.9C883,-130.45 715.41,-114.32 619.14,-106.18"/>
<polygon fill="midnightblue" stroke="midnightblue" points="1035.49,-159.39 1045.93,-157.59 1036.65,-152.48 1035.49,-159.39"/>
</g>
<!-- Node15 -->
<g id="node15" class="node">
<title>Node15</title>
<g id="a_node15"><a xlink:href="_spring_8cpp.html" target="_top" xlink:title=" ">
<polygon fill="none" stroke="black" points="1006,-78.5 1006,-119.5 1184,-119.5 1184,-78.5 1006,-78.5"/>
<text text-anchor="start" x="1014" y="-107.5" font-family="Helvetica,sans-Serif" font-size="10.00">/home/runner/work/Simulatio</text>
<text text-anchor="start" x="1014" y="-96.5" font-family="Helvetica,sans-Serif" font-size="10.00">/Simulatio/engine/src/Constraints</text>
<text text-anchor="middle" x="1095" y="-85.5" font-family="Helvetica,sans-Serif" font-size="10.00">/Spring.cpp</text>
</a>
</g>
</g>
<!-- Node14&#45;&gt;Node15 -->
<g id="edge17" class="edge">
<title>Node14&#45;&gt;Node15</title>
<path fill="none" stroke="midnightblue" d="M1113.51,-146.88C1109.89,-137.72 1105.99,-127.83 1102.7,-119.51"/>
<polygon fill="midnightblue" stroke="midnightblue" points="1110.35,-148.41 1117.27,-156.43 1116.86,-145.84 1110.35,-148.41"/>
</g>
<!-- Node17&#45;&gt;Node2 -->
<g id="edge41" class="edge">
<title>Node17&#45;&gt;Node2</title>
<path fill="none" stroke="midnightblue" d="M497.14,-467.51C435.19,-453.04 362.5,-435.61 356,-432 332.64,-419.05 333.01,-407.7 313,-390 293.82,-373.03 283.77,-374.18 268,-354 249.21,-329.95 236.11,-296.8 229.06,-275.88"/>
<polygon fill="midnightblue" stroke="midnightblue" points="496.44,-470.94 506.97,-469.8 498.03,-464.12 496.44,-470.94"/>
</g>
<!-- Node17&#45;&gt;Node3 -->
<g id="edge44" class="edge">
<title>Node17&#45;&gt;Node3</title>
<path fill="none" stroke="midnightblue" d="M496.76,-468.14C401.84,-457.13 192.17,-484.48 134,-432 100.99,-402.22 114,-378.45 114,-334 114,-334 114,-334 114,-254 114,-205.88 121.38,-184.7 160,-156 206.3,-121.59 363.56,-108.12 460.67,-102.99"/>
<polygon fill="midnightblue" stroke="midnightblue" points="496.55,-471.64 506.94,-469.54 497.51,-464.71 496.55,-471.64"/>
</g>
<!-- Node17&#45;&gt;Node7 -->
<g id="edge21" class="edge">
<title>Node17&#45;&gt;Node7</title>
<path fill="none" stroke="midnightblue" d="M669.63,-465.53C700.38,-456.34 735.2,-444.85 766,-432 880.13,-384.4 1007.18,-310.51 1065.1,-275.57"/>
<polygon fill="midnightblue" stroke="midnightblue" points="668.4,-462.24 659.8,-468.43 670.38,-468.96 668.4,-462.24"/>
</g>
<!-- Node18 -->
<g id="node18" class="node">
<title>Node18</title>
<g id="a_node18"><a xlink:href="_circle_8hpp.html" target="_top" xlink:title=" ">
<polygon fill="none" stroke="black" points="507,-390.5 507,-431.5 665,-431.5 665,-390.5 507,-390.5"/>
<text text-anchor="start" x="515" y="-419.5" font-family="Helvetica,sans-Serif" font-size="10.00">/home/runner/work/Simulatio</text>
<text text-anchor="start" x="515" y="-408.5" font-family="Helvetica,sans-Serif" font-size="10.00">/Simulatio/engine/include</text>
<text text-anchor="middle" x="586" y="-397.5" font-family="Helvetica,sans-Serif" font-size="10.00">/Corpses/Circle.hpp</text>
</a>
</g>
</g>
<!-- Node17&#45;&gt;Node18 -->
<g id="edge22" class="edge">
<title>Node17&#45;&gt;Node18</title>
<path fill="none" stroke="midnightblue" d="M586,-458.3C586,-449.3 586,-439.65 586,-431.51"/>
<polygon fill="midnightblue" stroke="midnightblue" points="582.5,-458.43 586,-468.43 589.5,-458.43 582.5,-458.43"/>
</g>
<!-- Node19 -->
<g id="node19" class="node">
<title>Node19</title>
<g id="a_node19"><a xlink:href="_polygon_8hpp.html" target="_top" xlink:title=" ">
<polygon fill="none" stroke="black" points="614,-312.5 614,-353.5 772,-353.5 772,-312.5 614,-312.5"/>
<text text-anchor="start" x="622" y="-341.5" font-family="Helvetica,sans-Serif" font-size="10.00">/home/runner/work/Simulatio</text>
<text text-anchor="start" x="622" y="-330.5" font-family="Helvetica,sans-Serif" font-size="10.00">/Simulatio/engine/include</text>
<text text-anchor="middle" x="693" y="-319.5" font-family="Helvetica,sans-Serif" font-size="10.00">/Corpses/Polygon.hpp</text>
</a>
</g>
</g>
<!-- Node17&#45;&gt;Node19 -->
<g id="edge40" class="edge">
<title>Node17&#45;&gt;Node19</title>
<path fill="none" stroke="midnightblue" d="M640.34,-463.07C653.11,-454.85 665.47,-444.53 674,-432 690,-408.51 693.3,-374.89 693.6,-353.77"/>
<polygon fill="midnightblue" stroke="midnightblue" points="638.23,-460.26 631.48,-468.42 641.85,-466.25 638.23,-460.26"/>
</g>
<!-- Node17&#45;&gt;Node20 -->
<g id="edge42" class="edge">
<title>Node17&#45;&gt;Node20</title>
<path fill="none" stroke="midnightblue" d="M659.94,-464.79C711,-444.44 775.08,-409.31 806,-354 819.56,-329.75 818.28,-296.65 815.57,-275.8"/>
<polygon fill="midnightblue" stroke="midnightblue" points="658.62,-461.54 650.56,-468.42 661.15,-468.07 658.62,-461.54"/>
</g>
<!-- Node17&#45;&gt;Node21 -->
<g id="edge43" class="edge">
<title>Node17&#45;&gt;Node21</title>
<path fill="none" stroke="midnightblue" d="M521.75,-464.23C475.11,-443.13 415.54,-407.3 388,-354 358.14,-296.23 423.54,-229.77 461.82,-197.55"/>
<polygon fill="midnightblue" stroke="midnightblue" points="520.63,-467.56 531.19,-468.38 523.44,-461.15 520.63,-467.56"/>
</g>
<!-- Node25 -->
<g id="node25" class="node">
<title>Node25</title>
<g id="a_node25"><a xlink:href="_corpse_8cpp.html" target="_top" xlink:title=" ">
<polygon fill="none" stroke="black" points="142.5,-390.5 142.5,-431.5 303.5,-431.5 303.5,-390.5 142.5,-390.5"/>
<text text-anchor="start" x="150.5" y="-419.5" font-family="Helvetica,sans-Serif" font-size="10.00">/home/runner/work/Simulatio</text>
<text text-anchor="start" x="150.5" y="-408.5" font-family="Helvetica,sans-Serif" font-size="10.00">/Simulatio/engine/src/Corpses</text>
<text text-anchor="middle" x="223" y="-397.5" font-family="Helvetica,sans-Serif" font-size="10.00">/Corpse.cpp</text>
</a>
</g>
</g>
<!-- Node17&#45;&gt;Node25 -->
<g id="edge45" class="edge">
<title>Node17&#45;&gt;Node25</title>
<path fill="none" stroke="midnightblue" d="M496.78,-467.76C416.54,-450.74 394.8,-447.76 318,-432 313.29,-431.03 308.46,-430.04 303.58,-429.02"/>
<polygon fill="midnightblue" stroke="midnightblue" points="496.36,-471.25 506.87,-469.91 497.82,-464.41 496.36,-471.25"/>
</g>
<!-- Node18&#45;&gt;Node2 -->
<g id="edge35" class="edge">
<title>Node18&#45;&gt;Node2</title>
<path fill="none" stroke="midnightblue" d="M496.81,-405.02C441.8,-398.77 371.42,-384.86 316,-354 297.97,-343.96 260.77,-301.4 239.29,-275.79"/>
<polygon fill="midnightblue" stroke="midnightblue" points="496.58,-408.52 506.9,-406.1 497.33,-401.56 496.58,-408.52"/>
</g>
<!-- Node18&#45;&gt;Node3 -->
<g id="edge38" class="edge">
<title>Node18&#45;&gt;Node3</title>
<path fill="none" stroke="midnightblue" d="M496.95,-395.59C451.01,-386.15 401.75,-372.18 388,-354 361.78,-319.33 317.35,-267.62 399,-156 413.85,-135.7 437.24,-122.75 460.74,-114.49"/>
<polygon fill="midnightblue" stroke="midnightblue" points="496.5,-399.07 506.99,-397.6 497.87,-392.21 496.5,-399.07"/>
</g>
<!-- Node18&#45;&gt;Node7 -->
<g id="edge23" class="edge">
<title>Node18&#45;&gt;Node7</title>
<path fill="none" stroke="midnightblue" d="M674.95,-391.01C715.41,-381.45 763.61,-368.74 806,-354 849.22,-338.97 856.99,-327.63 900,-312 938.43,-298.03 982.09,-285.31 1018.52,-275.54"/>
<polygon fill="midnightblue" stroke="midnightblue" points="674.05,-387.63 665.11,-393.32 675.64,-394.45 674.05,-387.63"/>
</g>
<!-- Node18&#45;&gt;Node19 -->
<g id="edge24" class="edge">
<title>Node18&#45;&gt;Node19</title>
<path fill="none" stroke="midnightblue" d="M615.69,-384.35C629.33,-374.27 645.49,-362.89 659.56,-353.51"/>
<polygon fill="midnightblue" stroke="midnightblue" points="613.48,-381.63 607.57,-390.43 617.67,-387.24 613.48,-381.63"/>
</g>
<!-- Node18&#45;&gt;Node20 -->
<g id="edge36" class="edge">
<title>Node18&#45;&gt;Node20</title>
<path fill="none" stroke="midnightblue" d="M675.34,-402.81C712.23,-395.56 752.86,-381.4 781,-354 802.35,-333.21 809.04,-297.84 811.11,-275.76"/>
<polygon fill="midnightblue" stroke="midnightblue" points="674.26,-399.44 665.04,-404.67 675.51,-406.33 674.26,-399.44"/>
</g>
<!-- Node18&#45;&gt;Node21 -->
<g id="edge37" class="edge">
<title>Node18&#45;&gt;Node21</title>
<path fill="none" stroke="midnightblue" d="M587.22,-380.43C586.57,-359.25 582.41,-331.19 567,-312 541.83,-280.65 506.06,-309.62 484,-276 468.68,-252.66 474.22,-219.01 480.18,-197.83"/>
<polygon fill="midnightblue" stroke="midnightblue" points="583.72,-380.52 587.28,-390.5 590.72,-380.47 583.72,-380.52"/>
</g>
<!-- Node24 -->
<g id="node24" class="node">
<title>Node24</title>
<g id="a_node24"><a xlink:href="_circle_8cpp.html" target="_top" xlink:title=" ">
<polygon fill="none" stroke="black" points="396.5,-312.5 396.5,-353.5 557.5,-353.5 557.5,-312.5 396.5,-312.5"/>
<text text-anchor="start" x="404.5" y="-341.5" font-family="Helvetica,sans-Serif" font-size="10.00">/home/runner/work/Simulatio</text>
<text text-anchor="start" x="404.5" y="-330.5" font-family="Helvetica,sans-Serif" font-size="10.00">/Simulatio/engine/src/Corpses</text>
<text text-anchor="middle" x="477" y="-319.5" font-family="Helvetica,sans-Serif" font-size="10.00">/Circle.cpp</text>
</a>
</g>
</g>
<!-- Node18&#45;&gt;Node24 -->
<g id="edge39" class="edge">
<title>Node18&#45;&gt;Node24</title>
<path fill="none" stroke="midnightblue" d="M549.62,-384.64C535.07,-374.49 518.57,-362.98 504.98,-353.51"/>
<polygon fill="midnightblue" stroke="midnightblue" points="547.73,-387.58 557.93,-390.43 551.73,-381.84 547.73,-387.58"/>
</g>
<!-- Node19&#45;&gt;Node2 -->
<g id="edge27" class="edge">
<title>Node19&#45;&gt;Node2</title>
<path fill="none" stroke="midnightblue" d="M603.67,-317.56C516.62,-303.48 385.53,-282.28 302.13,-268.8"/>
<polygon fill="midnightblue" stroke="midnightblue" points="603.37,-321.05 613.8,-319.19 604.49,-314.14 603.37,-321.05"/>
</g>
<!-- Node19&#45;&gt;Node3 -->
<g id="edge33" class="edge">
<title>Node19&#45;&gt;Node3</title>
<path fill="none" stroke="midnightblue" d="M698.21,-301.92C700.17,-281.13 699.29,-253.77 686,-234 665.81,-203.98 640.8,-221.15 613,-198 598.73,-186.12 569.86,-144.69 553.02,-119.66"/>
<polygon fill="midnightblue" stroke="midnightblue" points="694.71,-301.77 696.99,-312.12 701.66,-302.61 694.71,-301.77"/>
</g>
<!-- Node19&#45;&gt;Node7 -->
<g id="edge25" class="edge">
<title>Node19&#45;&gt;Node7</title>
<path fill="none" stroke="midnightblue" d="M782.53,-315.16C852.98,-301.9 950.22,-283.61 1017.85,-270.89"/>
<polygon fill="midnightblue" stroke="midnightblue" points="781.52,-311.79 772.34,-317.08 782.81,-318.67 781.52,-311.79"/>
</g>
<!-- Node19&#45;&gt;Node18 -->
<g id="edge26" class="edge">
<title>Node19&#45;&gt;Node18</title>
<path fill="none" stroke="midnightblue" d="M663.41,-359.58C649.78,-369.65 633.62,-381.03 619.54,-390.43"/>
<polygon fill="midnightblue" stroke="midnightblue" points="665.61,-362.3 671.52,-353.51 661.42,-356.7 665.61,-362.3"/>
</g>
<!-- Node19&#45;&gt;Node20 -->
<g id="edge28" class="edge">
<title>Node19&#45;&gt;Node20</title>
<path fill="none" stroke="midnightblue" d="M732.27,-306.92C748.27,-296.7 766.48,-285.07 781.46,-275.51"/>
<polygon fill="midnightblue" stroke="midnightblue" points="730.19,-304.1 723.65,-312.43 733.96,-310 730.19,-304.1"/>
</g>
<!-- Node19&#45;&gt;Node21 -->
<g id="edge32" class="edge">
<title>Node19&#45;&gt;Node21</title>
<path fill="none" stroke="midnightblue" d="M605.07,-309.87C560.51,-297.89 514.25,-283.95 507,-276 487.45,-254.58 484.9,-219.4 485.48,-197.53"/>
<polygon fill="midnightblue" stroke="midnightblue" points="604.28,-313.28 614.84,-312.48 606.08,-306.52 604.28,-313.28"/>
</g>
<!-- Node23 -->
<g id="node23" class="node">
<title>Node23</title>
<g id="a_node23"><a xlink:href="_polygon_8cpp.html" target="_top" xlink:title=" ">
<polygon fill="none" stroke="black" points="515.5,-234.5 515.5,-275.5 676.5,-275.5 676.5,-234.5 515.5,-234.5"/>
<text text-anchor="start" x="523.5" y="-263.5" font-family="Helvetica,sans-Serif" font-size="10.00">/home/runner/work/Simulatio</text>
<text text-anchor="start" x="523.5" y="-252.5" font-family="Helvetica,sans-Serif" font-size="10.00">/Simulatio/engine/src/Corpses</text>
<text text-anchor="middle" x="596" y="-241.5" font-family="Helvetica,sans-Serif" font-size="10.00">/Polygon.cpp</text>
</a>
</g>
</g>
<!-- Node19&#45;&gt;Node23 -->
<g id="edge34" class="edge">
<title>Node19&#45;&gt;Node23</title>
<path fill="none" stroke="midnightblue" d="M659.9,-306.06C647.13,-296.06 632.76,-284.8 620.9,-275.51"/>
<polygon fill="midnightblue" stroke="midnightblue" points="657.99,-309.02 668.02,-312.43 662.31,-303.51 657.99,-309.02"/>
</g>
<!-- Node20&#45;&gt;Node21 -->
<g id="edge29" class="edge">
<title>Node20&#45;&gt;Node21</title>
<path fill="none" stroke="midnightblue" d="M722.94,-233.17C673.9,-221.71 613.55,-207.59 566.16,-196.51"/>
<polygon fill="midnightblue" stroke="midnightblue" points="722.38,-236.64 732.91,-235.51 723.97,-229.82 722.38,-236.64"/>
</g>
<!-- Node22 -->
<g id="node22" class="node">
<title>Node22</title>
<g id="a_node22"><a xlink:href="_quad_node_8cpp.html" target="_top" xlink:title=" ">
<polygon fill="none" stroke="black" points="622,-156.5 622,-197.5 794,-197.5 794,-156.5 622,-156.5"/>
<text text-anchor="start" x="630" y="-185.5" font-family="Helvetica,sans-Serif" font-size="10.00">/home/runner/work/Simulatio</text>
<text text-anchor="start" x="630" y="-174.5" font-family="Helvetica,sans-Serif" font-size="10.00">/Simulatio/engine/src/Structures</text>
<text text-anchor="middle" x="708" y="-163.5" font-family="Helvetica,sans-Serif" font-size="10.00">/QuadNode.cpp</text>
</a>
</g>
</g>
<!-- Node20&#45;&gt;Node22 -->
<g id="edge31" class="edge">
<title>Node20&#45;&gt;Node22</title>
<path fill="none" stroke="midnightblue" d="M776.9,-228.35C763.11,-218.27 747.54,-206.89 734.69,-197.51"/>
<polygon fill="midnightblue" stroke="midnightblue" points="775.08,-231.35 785.22,-234.43 779.21,-225.7 775.08,-231.35"/>
</g>
<!-- Node21&#45;&gt;Node3 -->
<g id="edge30" class="edge">
<title>Node21&#45;&gt;Node3</title>
<path fill="none" stroke="midnightblue" d="M506.49,-148.05C513.11,-138.57 520.34,-128.18 526.4,-119.51"/>
<polygon fill="midnightblue" stroke="midnightblue" points="503.5,-146.22 500.65,-156.43 509.24,-150.23 503.5,-146.22"/>
</g>
<!-- Node27&#45;&gt;Node2 -->
<g id="edge49" class="edge">
<title>Node27&#45;&gt;Node2</title>
<path fill="none" stroke="midnightblue" d="M397.05,-623.81C367.89,-615.14 336.06,-603.39 309,-588 218.44,-536.48 176.62,-527.08 134,-432 126.37,-414.97 127.37,-407.45 134,-390 141.61,-369.99 153.44,-371.34 166,-354 184.59,-328.33 202.34,-296.19 212.96,-275.87"/>
<polygon fill="midnightblue" stroke="midnightblue" points="396.24,-627.22 406.82,-626.63 398.18,-620.49 396.24,-627.22"/>
</g>
<!-- Node27&#45;&gt;Node6 -->
<g id="edge50" class="edge">
<title>Node27&#45;&gt;Node6</title>
<path fill="none" stroke="midnightblue" d="M519.75,-618.35C533.01,-608.27 547.98,-596.89 560.33,-587.51"/>
<polygon fill="midnightblue" stroke="midnightblue" points="517.6,-615.59 511.75,-624.43 521.83,-621.16 517.6,-615.59"/>
</g>
<!-- Node28 -->
<g id="node28" class="node">
<title>Node28</title>
<g id="a_node28"><a xlink:href="_vertices_8cpp.html" target="_top" xlink:title=" ">
<polygon fill="none" stroke="black" points="317.5,-546.5 317.5,-587.5 488.5,-587.5 488.5,-546.5 317.5,-546.5"/>
<text text-anchor="start" x="325.5" y="-575.5" font-family="Helvetica,sans-Serif" font-size="10.00">/home/runner/work/Simulatio</text>
<text text-anchor="start" x="325.5" y="-564.5" font-family="Helvetica,sans-Serif" font-size="10.00">/Simulatio/engine/src/Geometry</text>
<text text-anchor="middle" x="403" y="-553.5" font-family="Helvetica,sans-Serif" font-size="10.00">/Vertices.cpp</text>
</a>
</g>
</g>
<!-- Node27&#45;&gt;Node28 -->
<g id="edge51" class="edge">
<title>Node27&#45;&gt;Node28</title>
<path fill="none" stroke="midnightblue" d="M457.05,-617.49C446.28,-607.63 434.26,-596.63 424.3,-587.51"/>
<polygon fill="midnightblue" stroke="midnightblue" points="454.89,-620.26 464.63,-624.43 459.61,-615.09 454.89,-620.26"/>
</g>
</g>
</svg>
