<?xml version="1.0" encoding="UTF-8" standalone="no"?>
<!DOCTYPE svg PUBLIC "-//W3C//DTD SVG 1.1//EN"
 "http://www.w3.org/Graphics/SVG/1.1/DTD/svg11.dtd">
<!-- Generated by graphviz version 2.43.0 (0)
 -->
<!-- Title: /home/runner/work/Simulatio/Simulatio/engine/include/Geometry/Bounds.hpp Pages: 1 -->
<svg width="2712pt" height="752pt"
 viewBox="0.00 0.00 2711.50 752.00" xmlns="http://www.w3.org/2000/svg" xmlns:xlink="http://www.w3.org/1999/xlink">
<g id="graph0" class="graph" transform="scale(1 1) rotate(0) translate(4 748)">
<title>/home/runner/work/Simulatio/Simulatio/engine/include/Geometry/Bounds.hpp</title>
<!-- Node1 -->
<g id="node1" class="node">
<title>Node1</title>
<g id="a_node1"><a xlink:title=" ">
<polygon fill="#bfbfbf" stroke="black" points="1683,-702.5 1683,-743.5 1841,-743.5 1841,-702.5 1683,-702.5"/>
<text text-anchor="start" x="1691" y="-731.5" font-family="Helvetica,sans-Serif" font-size="10.00">/home/runner/work/Simulatio</text>
<text text-anchor="start" x="1691" y="-720.5" font-family="Helvetica,sans-Serif" font-size="10.00">/Simulatio/engine/include</text>
<text text-anchor="middle" x="1762" y="-709.5" font-family="Helvetica,sans-Serif" font-size="10.00">/Geometry/Bounds.hpp</text>
</a>
</g>
</g>
<!-- Node2 -->
<g id="node2" class="node">
<title>Node2</title>
<g id="a_node2"><a xlink:href="_collision_8hpp.html" target="_top" xlink:title=" ">
<polygon fill="none" stroke="black" points="1137,-234.5 1137,-275.5 1295,-275.5 1295,-234.5 1137,-234.5"/>
<text text-anchor="start" x="1145" y="-263.5" font-family="Helvetica,sans-Serif" font-size="10.00">/home/runner/work/Simulatio</text>
<text text-anchor="start" x="1145" y="-252.5" font-family="Helvetica,sans-Serif" font-size="10.00">/Simulatio/engine/include</text>
<text text-anchor="middle" x="1216" y="-241.5" font-family="Helvetica,sans-Serif" font-size="10.00">/Geometry/Collision.hpp</text>
</a>
</g>
</g>
<!-- Node1&#45;&gt;Node2 -->
<g id="edge1" class="edge">
<title>Node1&#45;&gt;Node2</title>
<path fill="none" stroke="midnightblue" d="M1750.33,-692.84C1739.16,-662.26 1724,-612.53 1724,-568 1724,-568 1724,-568 1724,-410 1724,-332.58 1652.03,-340.36 1580,-312 1576.69,-310.7 1401.51,-284.06 1295.41,-268"/>
<polygon fill="midnightblue" stroke="midnightblue" points="1747.15,-694.32 1753.94,-702.45 1753.7,-691.85 1747.15,-694.32"/>
</g>
<!-- Node7 -->
<g id="node7" class="node">
<title>Node7</title>
<g id="a_node7"><a xlink:href="_geometry_8hpp.html" target="_top" xlink:title=" ">
<polygon fill="none" stroke="black" points="1238,-546.5 1238,-587.5 1396,-587.5 1396,-546.5 1238,-546.5"/>
<text text-anchor="start" x="1246" y="-575.5" font-family="Helvetica,sans-Serif" font-size="10.00">/home/runner/work/Simulatio</text>
<text text-anchor="start" x="1246" y="-564.5" font-family="Helvetica,sans-Serif" font-size="10.00">/Simulatio/engine/include</text>
<text text-anchor="middle" x="1317" y="-553.5" font-family="Helvetica,sans-Serif" font-size="10.00">/Geometry/Geometry.hpp</text>
</a>
</g>
</g>
<!-- Node1&#45;&gt;Node7 -->
<g id="edge6" class="edge">
<title>Node1&#45;&gt;Node7</title>
<path fill="none" stroke="midnightblue" d="M1673.05,-706.04C1627.24,-696.62 1570.89,-683.16 1522,-666 1460.03,-644.25 1391.95,-609.33 1351.92,-587.58"/>
<polygon fill="midnightblue" stroke="midnightblue" points="1672.46,-709.49 1682.95,-708.04 1673.85,-702.63 1672.46,-709.49"/>
</g>
<!-- Node21 -->
<g id="node21" class="node">
<title>Node21</title>
<g id="a_node21"><a xlink:href="_quad_node_8hpp.html" target="_top" xlink:title=" ">
<polygon fill="none" stroke="black" points="1576,-234.5 1576,-275.5 1734,-275.5 1734,-234.5 1576,-234.5"/>
<text text-anchor="start" x="1584" y="-263.5" font-family="Helvetica,sans-Serif" font-size="10.00">/home/runner/work/Simulatio</text>
<text text-anchor="start" x="1584" y="-252.5" font-family="Helvetica,sans-Serif" font-size="10.00">/Simulatio/engine/include</text>
<text text-anchor="middle" x="1655" y="-241.5" font-family="Helvetica,sans-Serif" font-size="10.00">/Structures/QuadNode.hpp</text>
</a>
</g>
</g>
<!-- Node1&#45;&gt;Node21 -->
<g id="edge58" class="edge">
<title>Node1&#45;&gt;Node21</title>
<path fill="none" stroke="midnightblue" d="M1762,-691.91C1762,-660.87 1762,-611.05 1762,-568 1762,-568 1762,-568 1762,-410 1762,-365.16 1763.64,-348.79 1738,-312 1727.46,-296.88 1711.42,-284.68 1696.24,-275.58"/>
<polygon fill="midnightblue" stroke="midnightblue" points="1758.5,-692.06 1762,-702.07 1765.5,-692.07 1758.5,-692.06"/>
</g>
<!-- Node22 -->
<g id="node22" class="node">
<title>Node22</title>
<g id="a_node22"><a xlink:href="_quadtree_8hpp.html" target="_top" xlink:title=" ">
<polygon fill="none" stroke="black" points="1683,-156.5 1683,-197.5 1841,-197.5 1841,-156.5 1683,-156.5"/>
<text text-anchor="start" x="1691" y="-185.5" font-family="Helvetica,sans-Serif" font-size="10.00">/home/runner/work/Simulatio</text>
<text text-anchor="start" x="1691" y="-174.5" font-family="Helvetica,sans-Serif" font-size="10.00">/Simulatio/engine/include</text>
<text text-anchor="middle" x="1762" y="-163.5" font-family="Helvetica,sans-Serif" font-size="10.00">/Structures/Quadtree.hpp</text>
</a>
</g>
</g>
<!-- Node1&#45;&gt;Node22 -->
<g id="edge59" class="edge">
<title>Node1&#45;&gt;Node22</title>
<path fill="none" stroke="midnightblue" d="M1851.1,-722.03C2048.23,-719.68 2504,-699.98 2504,-568 2504,-568 2504,-568 2504,-332 2504,-197.72 2032.25,-179.67 1841.06,-177.87"/>
<polygon fill="midnightblue" stroke="midnightblue" points="1851.02,-718.53 1841.06,-722.13 1851.09,-725.53 1851.02,-718.53"/>
</g>
<!-- Node28 -->
<g id="node28" class="node">
<title>Node28</title>
<g id="a_node28"><a xlink:href="_vertices_8hpp.html" target="_top" xlink:title=" ">
<polygon fill="none" stroke="black" points="1531,-624.5 1531,-665.5 1689,-665.5 1689,-624.5 1531,-624.5"/>
<text text-anchor="start" x="1539" y="-653.5" font-family="Helvetica,sans-Serif" font-size="10.00">/home/runner/work/Simulatio</text>
<text text-anchor="start" x="1539" y="-642.5" font-family="Helvetica,sans-Serif" font-size="10.00">/Simulatio/engine/include</text>
<text text-anchor="middle" x="1610" y="-631.5" font-family="Helvetica,sans-Serif" font-size="10.00">/Geometry/Vertices.hpp</text>
</a>
</g>
</g>
<!-- Node1&#45;&gt;Node28 -->
<g id="edge49" class="edge">
<title>Node1&#45;&gt;Node28</title>
<path fill="none" stroke="midnightblue" d="M1713.82,-697.91C1692.92,-687.46 1668.76,-675.38 1649.01,-665.51"/>
<polygon fill="midnightblue" stroke="midnightblue" points="1712.35,-701.09 1722.86,-702.43 1715.48,-694.83 1712.35,-701.09"/>
</g>
<!-- Node30 -->
<g id="node30" class="node">
<title>Node30</title>
<g id="a_node30"><a xlink:href="test_8hpp.html" target="_top" xlink:title=" ">
<polygon fill="none" stroke="black" points="1878,-546.5 1878,-587.5 2036,-587.5 2036,-546.5 1878,-546.5"/>
<text text-anchor="start" x="1886" y="-575.5" font-family="Helvetica,sans-Serif" font-size="10.00">/home/runner/work/Simulatio</text>
<text text-anchor="start" x="1886" y="-564.5" font-family="Helvetica,sans-Serif" font-size="10.00">/Simulatio/engine/tests</text>
<text text-anchor="middle" x="1957" y="-553.5" font-family="Helvetica,sans-Serif" font-size="10.00">/test.hpp</text>
</a>
</g>
</g>
<!-- Node1&#45;&gt;Node30 -->
<g id="edge61" class="edge">
<title>Node1&#45;&gt;Node30</title>
<path fill="none" stroke="midnightblue" d="M1794.57,-696.28C1833.34,-665.66 1897.21,-615.21 1932.2,-587.59"/>
<polygon fill="midnightblue" stroke="midnightblue" points="1792.38,-693.55 1786.7,-702.5 1796.71,-699.04 1792.38,-693.55"/>
</g>
<!-- Node35 -->
<g id="node35" class="node">
<title>Node35</title>
<g id="a_node35"><a xlink:href="src_2_geometry_2_bounds_8cpp.html" target="_top" xlink:title=" ">
<polygon fill="none" stroke="black" points="2532.5,-624.5 2532.5,-665.5 2703.5,-665.5 2703.5,-624.5 2532.5,-624.5"/>
<text text-anchor="start" x="2540.5" y="-653.5" font-family="Helvetica,sans-Serif" font-size="10.00">/home/runner/work/Simulatio</text>
<text text-anchor="start" x="2540.5" y="-642.5" font-family="Helvetica,sans-Serif" font-size="10.00">/Simulatio/engine/src/Geometry</text>
<text text-anchor="middle" x="2618" y="-631.5" font-family="Helvetica,sans-Serif" font-size="10.00">/Bounds.cpp</text>
</a>
</g>
</g>
<!-- Node1&#45;&gt;Node35 -->
<g id="edge60" class="edge">
<title>Node1&#45;&gt;Node35</title>
<path fill="none" stroke="midnightblue" d="M1851.63,-718.94C1993.56,-713.3 2278.51,-698.69 2518,-666 2522.74,-665.35 2527.59,-664.62 2532.47,-663.83"/>
<polygon fill="midnightblue" stroke="midnightblue" points="1851.1,-715.46 1841.24,-719.35 1851.37,-722.46 1851.1,-715.46"/>
</g>
<!-- Node3 -->
<g id="node3" class="node">
<title>Node3</title>
<g id="a_node3"><a xlink:href="_system_8hpp.html" target="_top" xlink:title=" ">
<polygon fill="none" stroke="black" points="928,-78.5 928,-119.5 1086,-119.5 1086,-78.5 928,-78.5"/>
<text text-anchor="start" x="936" y="-107.5" font-family="Helvetica,sans-Serif" font-size="10.00">/home/runner/work/Simulatio</text>
<text text-anchor="start" x="936" y="-96.5" font-family="Helvetica,sans-Serif" font-size="10.00">/Simulatio/engine/include</text>
<text text-anchor="middle" x="1007" y="-85.5" font-family="Helvetica,sans-Serif" font-size="10.00">/Structures/System.hpp</text>
</a>
</g>
</g>
<!-- Node2&#45;&gt;Node3 -->
<g id="edge2" class="edge">
<title>Node2&#45;&gt;Node3</title>
<path fill="none" stroke="midnightblue" d="M1169.04,-229.31C1153.25,-220.24 1135.87,-209.38 1121,-198 1099.78,-181.77 1098.07,-173.63 1078,-156 1063.61,-143.36 1046.81,-130.05 1033.17,-119.58"/>
<polygon fill="midnightblue" stroke="midnightblue" points="1167.7,-232.57 1178.13,-234.44 1171.14,-226.48 1167.7,-232.57"/>
</g>
<!-- Node6 -->
<g id="node6" class="node">
<title>Node6</title>
<g id="a_node6"><a xlink:href="_collision_8cpp.html" target="_top" xlink:title=" ">
<polygon fill="none" stroke="black" points="1130.5,-156.5 1130.5,-197.5 1301.5,-197.5 1301.5,-156.5 1130.5,-156.5"/>
<text text-anchor="start" x="1138.5" y="-185.5" font-family="Helvetica,sans-Serif" font-size="10.00">/home/runner/work/Simulatio</text>
<text text-anchor="start" x="1138.5" y="-174.5" font-family="Helvetica,sans-Serif" font-size="10.00">/Simulatio/engine/src/Geometry</text>
<text text-anchor="middle" x="1216" y="-163.5" font-family="Helvetica,sans-Serif" font-size="10.00">/Collision.cpp</text>
</a>
</g>
</g>
<!-- Node2&#45;&gt;Node6 -->
<g id="edge5" class="edge">
<title>Node2&#45;&gt;Node6</title>
<path fill="none" stroke="midnightblue" d="M1216,-224.3C1216,-215.3 1216,-205.65 1216,-197.51"/>
<polygon fill="midnightblue" stroke="midnightblue" points="1212.5,-224.43 1216,-234.43 1219.5,-224.43 1212.5,-224.43"/>
</g>
<!-- Node4 -->
<g id="node4" class="node">
<title>Node4</title>
<g id="a_node4"><a xlink:href="_system_8cpp.html" target="_top" xlink:title=" ">
<polygon fill="none" stroke="black" points="829,-0.5 829,-41.5 1001,-41.5 1001,-0.5 829,-0.5"/>
<text text-anchor="start" x="837" y="-29.5" font-family="Helvetica,sans-Serif" font-size="10.00">/home/runner/work/Simulatio</text>
<text text-anchor="start" x="837" y="-18.5" font-family="Helvetica,sans-Serif" font-size="10.00">/Simulatio/engine/src/Structures</text>
<text text-anchor="middle" x="915" y="-7.5" font-family="Helvetica,sans-Serif" font-size="10.00">/System.cpp</text>
</a>
</g>
</g>
<!-- Node3&#45;&gt;Node4 -->
<g id="edge3" class="edge">
<title>Node3&#45;&gt;Node4</title>
<path fill="none" stroke="midnightblue" d="M975.26,-71.78C963.23,-61.84 949.76,-50.72 938.61,-41.51"/>
<polygon fill="midnightblue" stroke="midnightblue" points="973.37,-74.76 983.31,-78.43 977.83,-69.36 973.37,-74.76"/>
</g>
<!-- Node5 -->
<g id="node5" class="node">
<title>Node5</title>
<g id="a_node5"><a xlink:href="engine_2src_2main_2main_8cpp.html" target="_top" xlink:title=" ">
<polygon fill="none" stroke="black" points="1019,-0.5 1019,-41.5 1177,-41.5 1177,-0.5 1019,-0.5"/>
<text text-anchor="start" x="1027" y="-29.5" font-family="Helvetica,sans-Serif" font-size="10.00">/home/runner/work/Simulatio</text>
<text text-anchor="start" x="1027" y="-18.5" font-family="Helvetica,sans-Serif" font-size="10.00">/Simulatio/engine/src/main</text>
<text text-anchor="middle" x="1098" y="-7.5" font-family="Helvetica,sans-Serif" font-size="10.00">/main.cpp</text>
</a>
</g>
</g>
<!-- Node3&#45;&gt;Node5 -->
<g id="edge4" class="edge">
<title>Node3&#45;&gt;Node5</title>
<path fill="none" stroke="midnightblue" d="M1038.4,-71.78C1050.29,-61.84 1063.62,-50.72 1074.64,-41.51"/>
<polygon fill="midnightblue" stroke="midnightblue" points="1035.87,-69.33 1030.43,-78.43 1040.35,-74.7 1035.87,-69.33"/>
</g>
<!-- Node7&#45;&gt;Node3 -->
<g id="edge47" class="edge">
<title>Node7&#45;&gt;Node3</title>
<path fill="none" stroke="midnightblue" d="M1227.69,-551.92C1158.33,-535.81 1066.54,-501.95 1021,-432 955.37,-331.2 987.36,-174.37 1001.49,-119.64"/>
<polygon fill="midnightblue" stroke="midnightblue" points="1227.23,-555.41 1237.75,-554.17 1228.76,-548.57 1227.23,-555.41"/>
</g>
<!-- Node8 -->
<g id="node8" class="node">
<title>Node8</title>
<g id="a_node8"><a xlink:href="_constraint_8hpp.html" target="_top" xlink:title=" ">
<polygon fill="none" stroke="black" points="768,-234.5 768,-275.5 926,-275.5 926,-234.5 768,-234.5"/>
<text text-anchor="start" x="776" y="-263.5" font-family="Helvetica,sans-Serif" font-size="10.00">/home/runner/work/Simulatio</text>
<text text-anchor="start" x="776" y="-252.5" font-family="Helvetica,sans-Serif" font-size="10.00">/Simulatio/engine/include</text>
<text text-anchor="middle" x="847" y="-241.5" font-family="Helvetica,sans-Serif" font-size="10.00">/Constraints/Constraint.hpp</text>
</a>
</g>
</g>
<!-- Node7&#45;&gt;Node8 -->
<g id="edge7" class="edge">
<title>Node7&#45;&gt;Node8</title>
<path fill="none" stroke="midnightblue" d="M1227.49,-563.33C1129.09,-558.62 979.21,-545.65 936,-510 862.48,-449.34 849.61,-324.06 847.42,-275.67"/>
<polygon fill="midnightblue" stroke="midnightblue" points="1227.59,-566.84 1237.74,-563.8 1227.91,-559.85 1227.59,-566.84"/>
</g>
<!-- Node18 -->
<g id="node18" class="node">
<title>Node18</title>
<g id="a_node18"><a xlink:href="_corpse_8hpp.html" target="_top" xlink:title=" ">
<polygon fill="none" stroke="black" points="1182,-468.5 1182,-509.5 1340,-509.5 1340,-468.5 1182,-468.5"/>
<text text-anchor="start" x="1190" y="-497.5" font-family="Helvetica,sans-Serif" font-size="10.00">/home/runner/work/Simulatio</text>
<text text-anchor="start" x="1190" y="-486.5" font-family="Helvetica,sans-Serif" font-size="10.00">/Simulatio/engine/include</text>
<text text-anchor="middle" x="1261" y="-475.5" font-family="Helvetica,sans-Serif" font-size="10.00">/Corpses/Corpse.hpp</text>
</a>
</g>
</g>
<!-- Node7&#45;&gt;Node18 -->
<g id="edge21" class="edge">
<title>Node7&#45;&gt;Node18</title>
<path fill="none" stroke="midnightblue" d="M1296.62,-538.34C1289.57,-528.78 1281.83,-518.27 1275.37,-509.51"/>
<polygon fill="midnightblue" stroke="midnightblue" points="1293.83,-540.45 1302.58,-546.43 1299.46,-536.3 1293.83,-540.45"/>
</g>
<!-- Node27 -->
<g id="node27" class="node">
<title>Node27</title>
<g id="a_node27"><a xlink:href="_geometry_8cpp.html" target="_top" xlink:title=" ">
<polygon fill="none" stroke="black" points="1358.5,-468.5 1358.5,-509.5 1529.5,-509.5 1529.5,-468.5 1358.5,-468.5"/>
<text text-anchor="start" x="1366.5" y="-497.5" font-family="Helvetica,sans-Serif" font-size="10.00">/home/runner/work/Simulatio</text>
<text text-anchor="start" x="1366.5" y="-486.5" font-family="Helvetica,sans-Serif" font-size="10.00">/Simulatio/engine/src/Geometry</text>
<text text-anchor="middle" x="1444" y="-475.5" font-family="Helvetica,sans-Serif" font-size="10.00">/Geometry.cpp</text>
</a>
</g>
</g>
<!-- Node7&#45;&gt;Node27 -->
<g id="edge48" class="edge">
<title>Node7&#45;&gt;Node27</title>
<path fill="none" stroke="midnightblue" d="M1358.44,-541.2C1375.62,-530.92 1395.27,-519.16 1411.41,-509.51"/>
<polygon fill="midnightblue" stroke="midnightblue" points="1356.49,-538.29 1349.71,-546.43 1360.08,-544.3 1356.49,-538.29"/>
</g>
<!-- Node8&#45;&gt;Node3 -->
<g id="edge19" class="edge">
<title>Node8&#45;&gt;Node3</title>
<path fill="none" stroke="midnightblue" d="M890.71,-228.69C904.31,-219.83 918.9,-209.27 931,-198 956.85,-173.94 980.77,-140.49 994.62,-119.55"/>
<polygon fill="midnightblue" stroke="midnightblue" points="888.52,-225.93 881.95,-234.25 892.27,-231.84 888.52,-225.93"/>
</g>
<!-- Node9 -->
<g id="node9" class="node">
<title>Node9</title>
<g id="a_node9"><a xlink:href="_link_8hpp.html" target="_top" xlink:title=" ">
<polygon fill="none" stroke="black" points="216,-156.5 216,-197.5 374,-197.5 374,-156.5 216,-156.5"/>
<text text-anchor="start" x="224" y="-185.5" font-family="Helvetica,sans-Serif" font-size="10.00">/home/runner/work/Simulatio</text>
<text text-anchor="start" x="224" y="-174.5" font-family="Helvetica,sans-Serif" font-size="10.00">/Simulatio/engine/include</text>
<text text-anchor="middle" x="295" y="-163.5" font-family="Helvetica,sans-Serif" font-size="10.00">/Constraints/Link.hpp</text>
</a>
</g>
</g>
<!-- Node8&#45;&gt;Node9 -->
<g id="edge8" class="edge">
<title>Node8&#45;&gt;Node9</title>
<path fill="none" stroke="midnightblue" d="M757.81,-246C664.1,-236.95 512.59,-220.48 383,-198 380.07,-197.49 377.08,-196.95 374.08,-196.38"/>
<polygon fill="midnightblue" stroke="midnightblue" points="757.53,-249.49 767.82,-246.96 758.2,-242.52 757.53,-249.49"/>
</g>
<!-- Node11 -->
<g id="node11" class="node">
<title>Node11</title>
<g id="a_node11"><a xlink:href="_loose_8hpp.html" target="_top" xlink:title=" ">
<polygon fill="none" stroke="black" points="30,-156.5 30,-197.5 188,-197.5 188,-156.5 30,-156.5"/>
<text text-anchor="start" x="38" y="-185.5" font-family="Helvetica,sans-Serif" font-size="10.00">/home/runner/work/Simulatio</text>
<text text-anchor="start" x="38" y="-174.5" font-family="Helvetica,sans-Serif" font-size="10.00">/Simulatio/engine/include</text>
<text text-anchor="middle" x="109" y="-163.5" font-family="Helvetica,sans-Serif" font-size="10.00">/Constraints/Loose.hpp</text>
</a>
</g>
</g>
<!-- Node8&#45;&gt;Node11 -->
<g id="edge11" class="edge">
<title>Node8&#45;&gt;Node11</title>
<path fill="none" stroke="midnightblue" d="M757.64,-249.41C633.59,-242.3 402.39,-226.39 207,-198 200.81,-197.1 194.43,-196.06 188.02,-194.93"/>
<polygon fill="midnightblue" stroke="midnightblue" points="757.66,-252.91 767.84,-249.98 758.06,-245.92 757.66,-252.91"/>
</g>
<!-- Node13 -->
<g id="node13" class="node">
<title>Node13</title>
<g id="a_node13"><a xlink:href="_slider_8hpp.html" target="_top" xlink:title=" ">
<polygon fill="none" stroke="black" points="392,-156.5 392,-197.5 550,-197.5 550,-156.5 392,-156.5"/>
<text text-anchor="start" x="400" y="-185.5" font-family="Helvetica,sans-Serif" font-size="10.00">/home/runner/work/Simulatio</text>
<text text-anchor="start" x="400" y="-174.5" font-family="Helvetica,sans-Serif" font-size="10.00">/Simulatio/engine/include</text>
<text text-anchor="middle" x="471" y="-163.5" font-family="Helvetica,sans-Serif" font-size="10.00">/Constraints/Slider.hpp</text>
</a>
</g>
</g>
<!-- Node8&#45;&gt;Node13 -->
<g id="edge13" class="edge">
<title>Node8&#45;&gt;Node13</title>
<path fill="none" stroke="midnightblue" d="M757.66,-237.38C700.72,-226.6 625.41,-212 559,-198 556.09,-197.39 553.12,-196.75 550.13,-196.11"/>
<polygon fill="midnightblue" stroke="midnightblue" points="757.24,-240.86 767.71,-239.28 758.54,-233.98 757.24,-240.86"/>
</g>
<!-- Node15 -->
<g id="node15" class="node">
<title>Node15</title>
<g id="a_node15"><a xlink:href="_spring_8hpp.html" target="_top" xlink:title=" ">
<polygon fill="none" stroke="black" points="568,-156.5 568,-197.5 726,-197.5 726,-156.5 568,-156.5"/>
<text text-anchor="start" x="576" y="-185.5" font-family="Helvetica,sans-Serif" font-size="10.00">/home/runner/work/Simulatio</text>
<text text-anchor="start" x="576" y="-174.5" font-family="Helvetica,sans-Serif" font-size="10.00">/Simulatio/engine/include</text>
<text text-anchor="middle" x="647" y="-163.5" font-family="Helvetica,sans-Serif" font-size="10.00">/Constraints/Spring.hpp</text>
</a>
</g>
</g>
<!-- Node8&#45;&gt;Node15 -->
<g id="edge16" class="edge">
<title>Node8&#45;&gt;Node15</title>
<path fill="none" stroke="midnightblue" d="M785.81,-230.75C757.81,-220.11 725.02,-207.65 698.33,-197.51"/>
<polygon fill="midnightblue" stroke="midnightblue" points="784.9,-234.15 795.5,-234.43 787.39,-227.6 784.9,-234.15"/>
</g>
<!-- Node17 -->
<g id="node17" class="node">
<title>Node17</title>
<g id="a_node17"><a xlink:href="_constraint_8cpp.html" target="_top" xlink:title=" ">
<polygon fill="none" stroke="black" points="744,-156.5 744,-197.5 922,-197.5 922,-156.5 744,-156.5"/>
<text text-anchor="start" x="752" y="-185.5" font-family="Helvetica,sans-Serif" font-size="10.00">/home/runner/work/Simulatio</text>
<text text-anchor="start" x="752" y="-174.5" font-family="Helvetica,sans-Serif" font-size="10.00">/Simulatio/engine/src/Constraints</text>
<text text-anchor="middle" x="833" y="-163.5" font-family="Helvetica,sans-Serif" font-size="10.00">/Constraint.cpp</text>
</a>
</g>
</g>
<!-- Node8&#45;&gt;Node17 -->
<g id="edge20" class="edge">
<title>Node8&#45;&gt;Node17</title>
<path fill="none" stroke="midnightblue" d="M841.58,-224.59C839.91,-215.51 838.11,-205.74 836.59,-197.51"/>
<polygon fill="midnightblue" stroke="midnightblue" points="838.14,-225.23 843.39,-234.43 845.03,-223.96 838.14,-225.23"/>
</g>
<!-- Node9&#45;&gt;Node3 -->
<g id="edge9" class="edge">
<title>Node9&#45;&gt;Node3</title>
<path fill="none" stroke="midnightblue" d="M384.34,-156.15C453.32,-148.01 776.19,-119.92 927.99,-106.81"/>
<polygon fill="midnightblue" stroke="midnightblue" points="383.52,-152.73 374.06,-157.51 384.43,-159.67 383.52,-152.73"/>
</g>
<!-- Node10 -->
<g id="node10" class="node">
<title>Node10</title>
<g id="a_node10"><a xlink:href="_link_8cpp.html" target="_top" xlink:title=" ">
<polygon fill="none" stroke="black" points="196,-78.5 196,-119.5 374,-119.5 374,-78.5 196,-78.5"/>
<text text-anchor="start" x="204" y="-107.5" font-family="Helvetica,sans-Serif" font-size="10.00">/home/runner/work/Simulatio</text>
<text text-anchor="start" x="204" y="-96.5" font-family="Helvetica,sans-Serif" font-size="10.00">/Simulatio/engine/src/Constraints</text>
<text text-anchor="middle" x="285" y="-85.5" font-family="Helvetica,sans-Serif" font-size="10.00">/Link.cpp</text>
</a>
</g>
</g>
<!-- Node9&#45;&gt;Node10 -->
<g id="edge10" class="edge">
<title>Node9&#45;&gt;Node10</title>
<path fill="none" stroke="midnightblue" d="M291.09,-146.3C289.91,-137.3 288.64,-127.65 287.57,-119.51"/>
<polygon fill="midnightblue" stroke="midnightblue" points="287.65,-146.97 292.42,-156.43 294.59,-146.06 287.65,-146.97"/>
</g>
<!-- Node12 -->
<g id="node12" class="node">
<title>Node12</title>
<g id="a_node12"><a xlink:href="_loose_8cpp.html" target="_top" xlink:title=" ">
<polygon fill="none" stroke="black" points="0,-78.5 0,-119.5 178,-119.5 178,-78.5 0,-78.5"/>
<text text-anchor="start" x="8" y="-107.5" font-family="Helvetica,sans-Serif" font-size="10.00">/home/runner/work/Simulatio</text>
<text text-anchor="start" x="8" y="-96.5" font-family="Helvetica,sans-Serif" font-size="10.00">/Simulatio/engine/src/Constraints</text>
<text text-anchor="middle" x="89" y="-85.5" font-family="Helvetica,sans-Serif" font-size="10.00">/Loose.cpp</text>
</a>
</g>
</g>
<!-- Node11&#45;&gt;Node12 -->
<g id="edge12" class="edge">
<title>Node11&#45;&gt;Node12</title>
<path fill="none" stroke="midnightblue" d="M101.26,-146.59C98.87,-137.51 96.3,-127.74 94.13,-119.51"/>
<polygon fill="midnightblue" stroke="midnightblue" points="97.92,-147.65 103.85,-156.43 104.69,-145.87 97.92,-147.65"/>
</g>
<!-- Node13&#45;&gt;Node3 -->
<g id="edge14" class="edge">
<title>Node13&#45;&gt;Node3</title>
<path fill="none" stroke="midnightblue" d="M560.16,-155.88C694.66,-132.63 840.12,-116.35 927.74,-107.51"/>
<polygon fill="midnightblue" stroke="midnightblue" points="559.33,-152.47 550.08,-157.64 560.53,-159.37 559.33,-152.47"/>
</g>
<!-- Node14 -->
<g id="node14" class="node">
<title>Node14</title>
<g id="a_node14"><a xlink:href="engine_2src_2_constraints_2_slider_8cpp.html" target="_top" xlink:title=" ">
<polygon fill="none" stroke="black" points="392,-78.5 392,-119.5 570,-119.5 570,-78.5 392,-78.5"/>
<text text-anchor="start" x="400" y="-107.5" font-family="Helvetica,sans-Serif" font-size="10.00">/home/runner/work/Simulatio</text>
<text text-anchor="start" x="400" y="-96.5" font-family="Helvetica,sans-Serif" font-size="10.00">/Simulatio/engine/src/Constraints</text>
<text text-anchor="middle" x="481" y="-85.5" font-family="Helvetica,sans-Serif" font-size="10.00">/Slider.cpp</text>
</a>
</g>
</g>
<!-- Node13&#45;&gt;Node14 -->
<g id="edge15" class="edge">
<title>Node13&#45;&gt;Node14</title>
<path fill="none" stroke="midnightblue" d="M474.91,-146.3C476.09,-137.3 477.36,-127.65 478.43,-119.51"/>
<polygon fill="midnightblue" stroke="midnightblue" points="471.41,-146.06 473.58,-156.43 478.35,-146.97 471.41,-146.06"/>
</g>
<!-- Node15&#45;&gt;Node3 -->
<g id="edge17" class="edge">
<title>Node15&#45;&gt;Node3</title>
<path fill="none" stroke="midnightblue" d="M736.06,-155.79C806.37,-140.62 875.89,-126.36 927.76,-115.87"/>
<polygon fill="midnightblue" stroke="midnightblue" points="735.17,-152.4 726.14,-157.93 736.65,-159.24 735.17,-152.4"/>
</g>
<!-- Node16 -->
<g id="node16" class="node">
<title>Node16</title>
<g id="a_node16"><a xlink:href="engine_2src_2_constraints_2_spring_8cpp.html" target="_top" xlink:title=" ">
<polygon fill="none" stroke="black" points="588,-78.5 588,-119.5 766,-119.5 766,-78.5 588,-78.5"/>
<text text-anchor="start" x="596" y="-107.5" font-family="Helvetica,sans-Serif" font-size="10.00">/home/runner/work/Simulatio</text>
<text text-anchor="start" x="596" y="-96.5" font-family="Helvetica,sans-Serif" font-size="10.00">/Simulatio/engine/src/Constraints</text>
<text text-anchor="middle" x="677" y="-85.5" font-family="Helvetica,sans-Serif" font-size="10.00">/Spring.cpp</text>
</a>
</g>
</g>
<!-- Node15&#45;&gt;Node16 -->
<g id="edge18" class="edge">
<title>Node15&#45;&gt;Node16</title>
<path fill="none" stroke="midnightblue" d="M658.49,-146.88C662.11,-137.72 666.01,-127.83 669.3,-119.51"/>
<polygon fill="midnightblue" stroke="midnightblue" points="655.14,-145.84 654.73,-156.43 661.65,-148.41 655.14,-145.84"/>
</g>
<!-- Node18&#45;&gt;Node2 -->
<g id="edge42" class="edge">
<title>Node18&#45;&gt;Node2</title>
<path fill="none" stroke="midnightblue" d="M1253.71,-458.69C1247.76,-438.31 1238.04,-411.12 1224,-390 1211.12,-370.63 1195.19,-375.37 1186,-354 1174.68,-327.68 1189.46,-295.71 1202,-275.6"/>
<polygon fill="midnightblue" stroke="midnightblue" points="1250.35,-459.67 1256.4,-468.37 1257.09,-457.8 1250.35,-459.67"/>
</g>
<!-- Node18&#45;&gt;Node3 -->
<g id="edge45" class="edge">
<title>Node18&#45;&gt;Node3</title>
<path fill="none" stroke="midnightblue" d="M1172.01,-474.73C1120.6,-465.24 1062.69,-450.83 1045,-432 1014.62,-399.67 1026,-378.37 1026,-334 1026,-334 1026,-334 1026,-254 1026,-205.51 1016.61,-149.07 1011.03,-119.84"/>
<polygon fill="midnightblue" stroke="midnightblue" points="1171.39,-478.17 1181.85,-476.5 1172.63,-471.28 1171.39,-478.17"/>
</g>
<!-- Node18&#45;&gt;Node8 -->
<g id="edge22" class="edge">
<title>Node18&#45;&gt;Node8</title>
<path fill="none" stroke="midnightblue" d="M1171.7,-480.87C1122.06,-473.83 1060.67,-459.83 1012,-432 993.78,-421.58 902.89,-319.52 864.33,-275.76"/>
<polygon fill="midnightblue" stroke="midnightblue" points="1171.41,-484.36 1181.79,-482.23 1172.35,-477.43 1171.41,-484.36"/>
</g>
<!-- Node19 -->
<g id="node19" class="node">
<title>Node19</title>
<g id="a_node19"><a xlink:href="_circle_8hpp.html" target="_top" xlink:title=" ">
<polygon fill="none" stroke="black" points="1272,-390.5 1272,-431.5 1430,-431.5 1430,-390.5 1272,-390.5"/>
<text text-anchor="start" x="1280" y="-419.5" font-family="Helvetica,sans-Serif" font-size="10.00">/home/runner/work/Simulatio</text>
<text text-anchor="start" x="1280" y="-408.5" font-family="Helvetica,sans-Serif" font-size="10.00">/Simulatio/engine/include</text>
<text text-anchor="middle" x="1351" y="-397.5" font-family="Helvetica,sans-Serif" font-size="10.00">/Corpses/Circle.hpp</text>
</a>
</g>
</g>
<!-- Node18&#45;&gt;Node19 -->
<g id="edge23" class="edge">
<title>Node18&#45;&gt;Node19</title>
<path fill="none" stroke="midnightblue" d="M1292.05,-461.78C1303.82,-451.84 1316.99,-440.72 1327.9,-431.51"/>
<polygon fill="midnightblue" stroke="midnightblue" points="1289.56,-459.3 1284.18,-468.43 1294.08,-464.65 1289.56,-459.3"/>
</g>
<!-- Node20 -->
<g id="node20" class="node">
<title>Node20</title>
<g id="a_node20"><a xlink:href="_polygon_8hpp.html" target="_top" xlink:title=" ">
<polygon fill="none" stroke="black" points="1386,-312.5 1386,-353.5 1544,-353.5 1544,-312.5 1386,-312.5"/>
<text text-anchor="start" x="1394" y="-341.5" font-family="Helvetica,sans-Serif" font-size="10.00">/home/runner/work/Simulatio</text>
<text text-anchor="start" x="1394" y="-330.5" font-family="Helvetica,sans-Serif" font-size="10.00">/Simulatio/engine/include</text>
<text text-anchor="middle" x="1465" y="-319.5" font-family="Helvetica,sans-Serif" font-size="10.00">/Corpses/Polygon.hpp</text>
</a>
</g>
</g>
<!-- Node18&#45;&gt;Node20 -->
<g id="edge41" class="edge">
<title>Node18&#45;&gt;Node20</title>
<path fill="none" stroke="midnightblue" d="M1344.33,-465.71C1387.13,-453.56 1431.82,-439.51 1439,-432 1459.31,-410.75 1464.18,-375.52 1465.12,-353.59"/>
<polygon fill="midnightblue" stroke="midnightblue" points="1343.35,-462.35 1334.67,-468.43 1345.24,-469.08 1343.35,-462.35"/>
</g>
<!-- Node18&#45;&gt;Node21 -->
<g id="edge43" class="edge">
<title>Node18&#45;&gt;Node21</title>
<path fill="none" stroke="midnightblue" d="M1349.75,-466.07C1394.25,-454.56 1443.04,-441.02 1464,-432 1525.54,-405.51 1545.15,-400.89 1593,-354 1616.73,-330.75 1635.62,-296.76 1646.06,-275.53"/>
<polygon fill="midnightblue" stroke="midnightblue" points="1348.85,-462.69 1340.04,-468.57 1350.6,-469.47 1348.85,-462.69"/>
</g>
<!-- Node18&#45;&gt;Node22 -->
<g id="edge44" class="edge">
<title>Node18&#45;&gt;Node22</title>
<path fill="none" stroke="midnightblue" d="M1350.31,-467.8C1427.3,-452.11 1451.63,-460.24 1521,-432 1640.56,-383.32 1703.9,-389.17 1766,-276 1779.35,-251.67 1774.08,-218.59 1768.49,-197.77"/>
<polygon fill="midnightblue" stroke="midnightblue" points="1349.2,-464.46 1340.14,-469.95 1350.65,-471.3 1349.2,-464.46"/>
</g>
<!-- Node26 -->
<g id="node26" class="node">
<title>Node26</title>
<g id="a_node26"><a xlink:href="_corpse_8cpp.html" target="_top" xlink:title=" ">
<polygon fill="none" stroke="black" points="1054.5,-390.5 1054.5,-431.5 1215.5,-431.5 1215.5,-390.5 1054.5,-390.5"/>
<text text-anchor="start" x="1062.5" y="-419.5" font-family="Helvetica,sans-Serif" font-size="10.00">/home/runner/work/Simulatio</text>
<text text-anchor="start" x="1062.5" y="-408.5" font-family="Helvetica,sans-Serif" font-size="10.00">/Simulatio/engine/src/Corpses</text>
<text text-anchor="middle" x="1135" y="-397.5" font-family="Helvetica,sans-Serif" font-size="10.00">/Corpse.cpp</text>
</a>
</g>
</g>
<!-- Node18&#45;&gt;Node26 -->
<g id="edge46" class="edge">
<title>Node18&#45;&gt;Node26</title>
<path fill="none" stroke="midnightblue" d="M1219.89,-463.2C1202.84,-452.92 1183.34,-441.16 1167.34,-431.51"/>
<polygon fill="midnightblue" stroke="midnightblue" points="1218.18,-466.26 1228.55,-468.43 1221.8,-460.27 1218.18,-466.26"/>
</g>
<!-- Node19&#45;&gt;Node2 -->
<g id="edge36" class="edge">
<title>Node19&#45;&gt;Node2</title>
<path fill="none" stroke="midnightblue" d="M1262.9,-387.46C1233.32,-377.98 1205.62,-366.3 1197,-354 1180.69,-330.72 1193.08,-297.05 1204.08,-275.85"/>
<polygon fill="midnightblue" stroke="midnightblue" points="1261.95,-390.83 1272.54,-390.46 1264.03,-384.15 1261.95,-390.83"/>
</g>
<!-- Node19&#45;&gt;Node3 -->
<g id="edge39" class="edge">
<title>Node19&#45;&gt;Node3</title>
<path fill="none" stroke="midnightblue" d="M1261.74,-390.48C1235.74,-382.05 1208.34,-370.26 1186,-354 1140.53,-320.9 1050.39,-173.23 1018.5,-119.57"/>
<polygon fill="midnightblue" stroke="midnightblue" points="1261.04,-393.93 1271.63,-393.55 1263.12,-387.24 1261.04,-393.93"/>
</g>
<!-- Node19&#45;&gt;Node8 -->
<g id="edge24" class="edge">
<title>Node19&#45;&gt;Node8</title>
<path fill="none" stroke="midnightblue" d="M1262.06,-389.9C1220.48,-379.98 1170.45,-367.31 1126,-354 1083.09,-341.15 969.04,-300.29 900.78,-275.57"/>
<polygon fill="midnightblue" stroke="midnightblue" points="1261.35,-393.33 1271.89,-392.23 1262.97,-386.52 1261.35,-393.33"/>
</g>
<!-- Node19&#45;&gt;Node20 -->
<g id="edge25" class="edge">
<title>Node19&#45;&gt;Node20</title>
<path fill="none" stroke="midnightblue" d="M1382.64,-384.64C1397.29,-374.49 1414.69,-362.98 1429.76,-353.51"/>
<polygon fill="midnightblue" stroke="midnightblue" points="1380.55,-381.82 1374.37,-390.43 1384.57,-387.56 1380.55,-381.82"/>
</g>
<!-- Node19&#45;&gt;Node21 -->
<g id="edge37" class="edge">
<title>Node19&#45;&gt;Node21</title>
<path fill="none" stroke="midnightblue" d="M1440.46,-395.18C1476.97,-386.65 1518.61,-373.6 1553,-354 1588.85,-333.58 1621.57,-297.75 1639.83,-275.54"/>
<polygon fill="midnightblue" stroke="midnightblue" points="1439.29,-391.86 1430.31,-397.47 1440.83,-398.69 1439.29,-391.86"/>
</g>
<!-- Node19&#45;&gt;Node22 -->
<g id="edge38" class="edge">
<title>Node19&#45;&gt;Node22</title>
<path fill="none" stroke="midnightblue" d="M1440.21,-407.04C1532.47,-398.71 1672.7,-370.15 1743,-276 1760.11,-253.09 1763.06,-219 1762.99,-197.66"/>
<polygon fill="midnightblue" stroke="midnightblue" points="1439.71,-403.57 1430.04,-407.9 1440.3,-410.55 1439.71,-403.57"/>
</g>
<!-- Node25 -->
<g id="node25" class="node">
<title>Node25</title>
<g id="a_node25"><a xlink:href="_circle_8cpp.html" target="_top" xlink:title=" ">
<polygon fill="none" stroke="black" points="1206.5,-312.5 1206.5,-353.5 1367.5,-353.5 1367.5,-312.5 1206.5,-312.5"/>
<text text-anchor="start" x="1214.5" y="-341.5" font-family="Helvetica,sans-Serif" font-size="10.00">/home/runner/work/Simulatio</text>
<text text-anchor="start" x="1214.5" y="-330.5" font-family="Helvetica,sans-Serif" font-size="10.00">/Simulatio/engine/src/Corpses</text>
<text text-anchor="middle" x="1287" y="-319.5" font-family="Helvetica,sans-Serif" font-size="10.00">/Circle.cpp</text>
</a>
</g>
</g>
<!-- Node19&#45;&gt;Node25 -->
<g id="edge40" class="edge">
<title>Node19&#45;&gt;Node25</title>
<path fill="none" stroke="midnightblue" d="M1327.95,-382.63C1319.83,-372.99 1310.88,-362.36 1303.43,-353.51"/>
<polygon fill="midnightblue" stroke="midnightblue" points="1325.4,-385.03 1334.52,-390.43 1330.75,-380.52 1325.4,-385.03"/>
</g>
<!-- Node20&#45;&gt;Node2 -->
<g id="edge28" class="edge">
<title>Node20&#45;&gt;Node2</title>
<path fill="none" stroke="midnightblue" d="M1391.09,-309.44C1355.75,-298.66 1313.85,-285.87 1279.91,-275.51"/>
<polygon fill="midnightblue" stroke="midnightblue" points="1390.29,-312.86 1400.88,-312.43 1392.33,-306.16 1390.29,-312.86"/>
</g>
<!-- Node20&#45;&gt;Node3 -->
<g id="edge34" class="edge">
<title>Node20&#45;&gt;Node3</title>
<path fill="none" stroke="midnightblue" d="M1392.23,-307.92C1376.27,-299.85 1360.68,-289.38 1349,-276 1312.12,-233.75 1352.17,-192.96 1310,-156 1277.36,-127.4 1164.38,-112.55 1086.01,-105.52"/>
<polygon fill="midnightblue" stroke="midnightblue" points="1391.11,-311.26 1401.64,-312.4 1394.12,-304.94 1391.11,-311.26"/>
</g>
<!-- Node20&#45;&gt;Node8 -->
<g id="edge26" class="edge">
<title>Node20&#45;&gt;Node8</title>
<path fill="none" stroke="midnightblue" d="M1376.31,-312.05C1376.21,-312.03 1376.1,-312.02 1376,-312 1217.44,-285.88 1030.04,-269.4 926.25,-261.52"/>
<polygon fill="midnightblue" stroke="midnightblue" points="1375.54,-315.47 1385.99,-313.75 1376.75,-308.57 1375.54,-315.47"/>
</g>
<!-- Node20&#45;&gt;Node19 -->
<g id="edge27" class="edge">
<title>Node20&#45;&gt;Node19</title>
<path fill="none" stroke="midnightblue" d="M1433.46,-359.29C1418.82,-369.44 1401.42,-380.94 1386.35,-390.43"/>
<polygon fill="midnightblue" stroke="midnightblue" points="1435.54,-362.11 1441.72,-353.51 1431.53,-356.38 1435.54,-362.11"/>
</g>
<!-- Node20&#45;&gt;Node21 -->
<g id="edge29" class="edge">
<title>Node20&#45;&gt;Node21</title>
<path fill="none" stroke="midnightblue" d="M1523.48,-308.61C1550,-298 1581,-285.6 1606.24,-275.51"/>
<polygon fill="midnightblue" stroke="midnightblue" points="1521.91,-305.46 1513.93,-312.43 1524.51,-311.96 1521.91,-305.46"/>
</g>
<!-- Node20&#45;&gt;Node22 -->
<g id="edge33" class="edge">
<title>Node20&#45;&gt;Node22</title>
<path fill="none" stroke="midnightblue" d="M1495.91,-305.58C1506.3,-296.42 1517.83,-285.95 1528,-276 1546.21,-258.18 1545.3,-247.34 1567,-234 1586.77,-221.85 1637.84,-207.38 1682.75,-196.18"/>
<polygon fill="midnightblue" stroke="midnightblue" points="1493.45,-303.08 1488.22,-312.3 1498.06,-308.35 1493.45,-303.08"/>
</g>
<!-- Node24 -->
<g id="node24" class="node">
<title>Node24</title>
<g id="a_node24"><a xlink:href="_polygon_8cpp.html" target="_top" xlink:title=" ">
<polygon fill="none" stroke="black" points="1358.5,-234.5 1358.5,-275.5 1519.5,-275.5 1519.5,-234.5 1358.5,-234.5"/>
<text text-anchor="start" x="1366.5" y="-263.5" font-family="Helvetica,sans-Serif" font-size="10.00">/home/runner/work/Simulatio</text>
<text text-anchor="start" x="1366.5" y="-252.5" font-family="Helvetica,sans-Serif" font-size="10.00">/Simulatio/engine/src/Corpses</text>
<text text-anchor="middle" x="1439" y="-241.5" font-family="Helvetica,sans-Serif" font-size="10.00">/Polygon.cpp</text>
</a>
</g>
</g>
<!-- Node20&#45;&gt;Node24 -->
<g id="edge35" class="edge">
<title>Node20&#45;&gt;Node24</title>
<path fill="none" stroke="midnightblue" d="M1455.04,-302.88C1451.9,-293.72 1448.52,-283.83 1445.67,-275.51"/>
<polygon fill="midnightblue" stroke="midnightblue" points="1451.76,-304.1 1458.3,-312.43 1458.38,-301.83 1451.76,-304.1"/>
</g>
<!-- Node21&#45;&gt;Node22 -->
<g id="edge30" class="edge">
<title>Node21&#45;&gt;Node22</title>
<path fill="none" stroke="midnightblue" d="M1690.71,-228.64C1705,-218.49 1721.2,-206.98 1734.54,-197.51"/>
<polygon fill="midnightblue" stroke="midnightblue" points="1688.68,-225.78 1682.56,-234.43 1692.73,-231.49 1688.68,-225.78"/>
</g>
<!-- Node23 -->
<g id="node23" class="node">
<title>Node23</title>
<g id="a_node23"><a xlink:href="_quad_node_8cpp.html" target="_top" xlink:title=" ">
<polygon fill="none" stroke="black" points="1493,-156.5 1493,-197.5 1665,-197.5 1665,-156.5 1493,-156.5"/>
<text text-anchor="start" x="1501" y="-185.5" font-family="Helvetica,sans-Serif" font-size="10.00">/home/runner/work/Simulatio</text>
<text text-anchor="start" x="1501" y="-174.5" font-family="Helvetica,sans-Serif" font-size="10.00">/Simulatio/engine/src/Structures</text>
<text text-anchor="middle" x="1579" y="-163.5" font-family="Helvetica,sans-Serif" font-size="10.00">/QuadNode.cpp</text>
</a>
</g>
</g>
<!-- Node21&#45;&gt;Node23 -->
<g id="edge32" class="edge">
<title>Node21&#45;&gt;Node23</title>
<path fill="none" stroke="midnightblue" d="M1628.2,-227.2C1618.42,-217.42 1607.54,-206.54 1598.51,-197.51"/>
<polygon fill="midnightblue" stroke="midnightblue" points="1625.88,-229.83 1635.43,-234.43 1630.83,-224.88 1625.88,-229.83"/>
</g>
<!-- Node22&#45;&gt;Node3 -->
<g id="edge31" class="edge">
<title>Node22&#45;&gt;Node3</title>
<path fill="none" stroke="midnightblue" d="M1672.94,-155.95C1455.54,-122.91 1209.7,-108.64 1086.23,-103.07"/>
<polygon fill="midnightblue" stroke="midnightblue" points="1672.53,-159.43 1682.95,-157.49 1673.59,-152.51 1672.53,-159.43"/>
</g>
<!-- Node28&#45;&gt;Node2 -->
<g id="edge50" class="edge">
<title>Node28&#45;&gt;Node2</title>
<path fill="none" stroke="midnightblue" d="M1546.83,-619.23C1534.12,-611.23 1522.41,-600.97 1515,-588 1505.74,-571.79 1509.76,-563.92 1515,-546 1520.32,-527.78 1531.81,-527.95 1538,-510 1566.78,-426.57 1610.06,-379.32 1553,-312 1548.81,-307.06 1393.31,-282.77 1295.03,-267.85"/>
<polygon fill="midnightblue" stroke="midnightblue" points="1545.34,-622.42 1555.74,-624.42 1548.86,-616.37 1545.34,-622.42"/>
</g>
<!-- Node28&#45;&gt;Node7 -->
<g id="edge51" class="edge">
<title>Node28&#45;&gt;Node7</title>
<path fill="none" stroke="midnightblue" d="M1524.63,-621.86C1482.71,-610.98 1432.66,-598 1392.2,-587.51"/>
<polygon fill="midnightblue" stroke="midnightblue" points="1523.99,-625.31 1534.55,-624.43 1525.74,-618.53 1523.99,-625.31"/>
</g>
<!-- Node29 -->
<g id="node29" class="node">
<title>Node29</title>
<g id="a_node29"><a xlink:href="src_2_geometry_2_vertices_8cpp.html" target="_top" xlink:title=" ">
<polygon fill="none" stroke="black" points="1524.5,-546.5 1524.5,-587.5 1695.5,-587.5 1695.5,-546.5 1524.5,-546.5"/>
<text text-anchor="start" x="1532.5" y="-575.5" font-family="Helvetica,sans-Serif" font-size="10.00">/home/runner/work/Simulatio</text>
<text text-anchor="start" x="1532.5" y="-564.5" font-family="Helvetica,sans-Serif" font-size="10.00">/Simulatio/engine/src/Geometry</text>
<text text-anchor="middle" x="1610" y="-553.5" font-family="Helvetica,sans-Serif" font-size="10.00">/Vertices.cpp</text>
</a>
</g>
</g>
<!-- Node28&#45;&gt;Node29 -->
<g id="edge52" class="edge">
<title>Node28&#45;&gt;Node29</title>
<path fill="none" stroke="midnightblue" d="M1610,-614.3C1610,-605.3 1610,-595.65 1610,-587.51"/>
<polygon fill="midnightblue" stroke="midnightblue" points="1606.5,-614.43 1610,-624.43 1613.5,-614.43 1606.5,-614.43"/>
</g>
<!-- Node28&#45;&gt;Node30 -->
<g id="edge53" class="edge">
<title>Node28&#45;&gt;Node30</title>
<path fill="none" stroke="midnightblue" d="M1698.95,-624.52C1754.19,-612.42 1824.57,-597.01 1877.87,-585.33"/>
<polygon fill="midnightblue" stroke="midnightblue" points="1698.19,-621.1 1689.17,-626.66 1699.69,-627.94 1698.19,-621.1"/>
</g>
<!-- Node31 -->
<g id="node31" class="node">
<title>Node31</title>
<g id="a_node31"><a xlink:href="tests_2_bounds_8cpp.html" target="_top" xlink:title=" ">
<polygon fill="none" stroke="black" points="1790,-468.5 1790,-509.5 1948,-509.5 1948,-468.5 1790,-468.5"/>
<text text-anchor="start" x="1798" y="-497.5" font-family="Helvetica,sans-Serif" font-size="10.00">/home/runner/work/Simulatio</text>
<text text-anchor="start" x="1798" y="-486.5" font-family="Helvetica,sans-Serif" font-size="10.00">/Simulatio/engine/tests</text>
<text text-anchor="middle" x="1869" y="-475.5" font-family="Helvetica,sans-Serif" font-size="10.00">/bounds.cpp</text>
</a>
</g>
</g>
<!-- Node30&#45;&gt;Node31 -->
<g id="edge54" class="edge">
<title>Node30&#45;&gt;Node31</title>
<path fill="none" stroke="midnightblue" d="M1926.64,-539.78C1915.13,-529.84 1902.25,-518.72 1891.59,-509.51"/>
<polygon fill="midnightblue" stroke="midnightblue" points="1924.48,-542.54 1934.34,-546.43 1929.06,-537.24 1924.48,-542.54"/>
</g>
<!-- Node32 -->
<g id="node32" class="node">
<title>Node32</title>
<g id="a_node32"><a xlink:href="tests_2_maths_8cpp.html" target="_top" xlink:title=" ">
<polygon fill="none" stroke="black" points="1966,-468.5 1966,-509.5 2124,-509.5 2124,-468.5 1966,-468.5"/>
<text text-anchor="start" x="1974" y="-497.5" font-family="Helvetica,sans-Serif" font-size="10.00">/home/runner/work/Simulatio</text>
<text text-anchor="start" x="1974" y="-486.5" font-family="Helvetica,sans-Serif" font-size="10.00">/Simulatio/engine/tests</text>
<text text-anchor="middle" x="2045" y="-475.5" font-family="Helvetica,sans-Serif" font-size="10.00">/maths.cpp</text>
</a>
</g>
</g>
<!-- Node30&#45;&gt;Node32 -->
<g id="edge55" class="edge">
<title>Node30&#45;&gt;Node32</title>
<path fill="none" stroke="midnightblue" d="M1987.36,-539.78C1998.87,-529.84 2011.75,-518.72 2022.41,-509.51"/>
<polygon fill="midnightblue" stroke="midnightblue" points="1984.94,-537.24 1979.66,-546.43 1989.52,-542.54 1984.94,-537.24"/>
</g>
<!-- Node33 -->
<g id="node33" class="node">
<title>Node33</title>
<g id="a_node33"><a xlink:href="tests_2_vector_8cpp.html" target="_top" xlink:title=" ">
<polygon fill="none" stroke="black" points="2142,-468.5 2142,-509.5 2300,-509.5 2300,-468.5 2142,-468.5"/>
<text text-anchor="start" x="2150" y="-497.5" font-family="Helvetica,sans-Serif" font-size="10.00">/home/runner/work/Simulatio</text>
<text text-anchor="start" x="2150" y="-486.5" font-family="Helvetica,sans-Serif" font-size="10.00">/Simulatio/engine/tests</text>
<text text-anchor="middle" x="2221" y="-475.5" font-family="Helvetica,sans-Serif" font-size="10.00">/vector.cpp</text>
</a>
</g>
</g>
<!-- Node30&#45;&gt;Node33 -->
<g id="edge56" class="edge">
<title>Node30&#45;&gt;Node33</title>
<path fill="none" stroke="midnightblue" d="M2034.88,-543.58C2072.45,-532.76 2117.1,-519.91 2153.24,-509.51"/>
<polygon fill="midnightblue" stroke="midnightblue" points="2033.63,-540.3 2024.99,-546.43 2035.56,-547.03 2033.63,-540.3"/>
</g>
<!-- Node34 -->
<g id="node34" class="node">
<title>Node34</title>
<g id="a_node34"><a xlink:href="tests_2_vertices_8cpp.html" target="_top" xlink:title=" ">
<polygon fill="none" stroke="black" points="2318,-468.5 2318,-509.5 2476,-509.5 2476,-468.5 2318,-468.5"/>
<text text-anchor="start" x="2326" y="-497.5" font-family="Helvetica,sans-Serif" font-size="10.00">/home/runner/work/Simulatio</text>
<text text-anchor="start" x="2326" y="-486.5" font-family="Helvetica,sans-Serif" font-size="10.00">/Simulatio/engine/tests</text>
<text text-anchor="middle" x="2397" y="-475.5" font-family="Helvetica,sans-Serif" font-size="10.00">/vertices.cpp</text>
</a>
</g>
</g>
<!-- Node30&#45;&gt;Node34 -->
<g id="edge57" class="edge">
<title>Node30&#45;&gt;Node34</title>
<path fill="none" stroke="midnightblue" d="M2046.54,-553.41C2117.85,-542.99 2220.11,-527.15 2309,-510 2311.92,-509.44 2314.9,-508.85 2317.9,-508.24"/>
<polygon fill="midnightblue" stroke="midnightblue" points="2045.64,-550.01 2036.25,-554.91 2046.65,-556.93 2045.64,-550.01"/>
</g>
</g>
</svg>
