<?xml version="1.0" encoding="UTF-8" standalone="no"?>
<!DOCTYPE svg PUBLIC "-//W3C//DTD SVG 1.1//EN"
 "http://www.w3.org/Graphics/SVG/1.1/DTD/svg11.dtd">
<!-- Generated by graphviz version 2.43.0 (0)
 -->
<!-- Title: /home/runner/work/Simulatio/Simulatio/engine/include/Corpses/Circle.hpp Pages: 1 -->
<svg width="899pt" height="498pt"
 viewBox="0.00 0.00 899.00 498.00" xmlns="http://www.w3.org/2000/svg" xmlns:xlink="http://www.w3.org/1999/xlink">
<g id="graph0" class="graph" transform="scale(1 1) rotate(0) translate(4 494)">
<title>/home/runner/work/Simulatio/Simulatio/engine/include/Corpses/Circle.hpp</title>
<!-- Node1 -->
<g id="node1" class="node">
<title>Node1</title>
<g id="a_node1"><a xlink:title=" ">
<polygon fill="#bfbfbf" stroke="black" points="652.5,-448.5 652.5,-489.5 810.5,-489.5 810.5,-448.5 652.5,-448.5"/>
<text text-anchor="start" x="660.5" y="-477.5" font-family="Helvetica,sans-Serif" font-size="10.00">/home/runner/work/Simulatio</text>
<text text-anchor="start" x="660.5" y="-466.5" font-family="Helvetica,sans-Serif" font-size="10.00">/Simulatio/engine/include</text>
<text text-anchor="middle" x="731.5" y="-455.5" font-family="Helvetica,sans-Serif" font-size="10.00">/Corpses/Circle.hpp</text>
</a>
</g>
</g>
<!-- Node2 -->
<g id="node2" class="node">
<title>Node2</title>
<g id="a_node2"><a xlink:title=" ">
<polygon fill="none" stroke="#bfbfbf" points="844,-0.5 844,-19.5 891,-19.5 891,-0.5 844,-0.5"/>
<text text-anchor="middle" x="867.5" y="-7.5" font-family="Helvetica,sans-Serif" font-size="10.00">vector</text>
</a>
</g>
</g>
<!-- Node1&#45;&gt;Node2 -->
<g id="edge1" class="edge">
<title>Node1&#45;&gt;Node2</title>
<path fill="none" stroke="midnightblue" d="M777.67,-448.48C815.73,-428.94 863.5,-394.88 863.5,-347 863.5,-347 863.5,-347 863.5,-121 863.5,-88.93 865.22,-51.63 866.4,-29.74"/>
<polygon fill="midnightblue" stroke="midnightblue" points="869.91,-29.73 866.98,-19.55 862.92,-29.34 869.91,-29.73"/>
</g>
<!-- Node3 -->
<g id="node3" class="node">
<title>Node3</title>
<g id="a_node3"><a xlink:title=" ">
<polygon fill="none" stroke="#bfbfbf" points="668.5,-224.5 668.5,-243.5 736.5,-243.5 736.5,-224.5 668.5,-224.5"/>
<text text-anchor="middle" x="702.5" y="-231.5" font-family="Helvetica,sans-Serif" font-size="10.00">Config.hpp</text>
</a>
</g>
</g>
<!-- Node1&#45;&gt;Node3 -->
<g id="edge2" class="edge">
<title>Node1&#45;&gt;Node3</title>
<path fill="none" stroke="midnightblue" d="M753.78,-448.49C763.34,-438.63 773.46,-425.84 778.5,-412 781.54,-403.65 780.42,-400.68 778.5,-392 766.47,-337.51 732.38,-280.12 714.22,-252.24"/>
<polygon fill="midnightblue" stroke="midnightblue" points="716.97,-250.05 708.53,-243.66 711.14,-253.92 716.97,-250.05"/>
</g>
<!-- Node4 -->
<g id="node4" class="node">
<title>Node4</title>
<g id="a_node4"><a xlink:href="_corpse_8hpp.html" target="_top" xlink:title=" ">
<polygon fill="none" stroke="black" points="539,-336.5 539,-355.5 610,-355.5 610,-336.5 539,-336.5"/>
<text text-anchor="middle" x="574.5" y="-343.5" font-family="Helvetica,sans-Serif" font-size="10.00">Corpse.hpp</text>
</a>
</g>
</g>
<!-- Node1&#45;&gt;Node4 -->
<g id="edge3" class="edge">
<title>Node1&#45;&gt;Node4</title>
<path fill="none" stroke="midnightblue" d="M705.93,-448.29C674.56,-424.12 622.11,-383.69 593.88,-361.94"/>
<polygon fill="midnightblue" stroke="midnightblue" points="595.68,-358.91 585.63,-355.57 591.41,-364.45 595.68,-358.91"/>
</g>
<!-- Node24 -->
<g id="node24" class="node">
<title>Node24</title>
<g id="a_node24"><a xlink:href="_polygon_8hpp.html" target="_top" xlink:title=" ">
<polygon fill="none" stroke="black" points="693,-392.5 693,-411.5 770,-411.5 770,-392.5 693,-392.5"/>
<text text-anchor="middle" x="731.5" y="-399.5" font-family="Helvetica,sans-Serif" font-size="10.00">Polygon.hpp</text>
</a>
</g>
</g>
<!-- Node1&#45;&gt;Node24 -->
<g id="edge37" class="edge">
<title>Node1&#45;&gt;Node24</title>
<path fill="none" stroke="midnightblue" d="M725.25,-448.5C724.56,-439.97 724.58,-430.01 725.33,-421.59"/>
<polygon fill="midnightblue" stroke="midnightblue" points="728.8,-422.04 726.74,-411.65 721.87,-421.06 728.8,-422.04"/>
</g>
<!-- Node4&#45;&gt;Node2 -->
<g id="edge7" class="edge">
<title>Node4&#45;&gt;Node2</title>
<path fill="none" stroke="midnightblue" d="M584.24,-336.37C602.6,-319.1 640.5,-278.21 640.5,-235 640.5,-235 640.5,-235 640.5,-121 640.5,-64.21 699.38,-80.72 750.5,-56 777.93,-42.74 810.35,-30.52 834.1,-22.17"/>
<polygon fill="midnightblue" stroke="midnightblue" points="835.4,-25.43 843.71,-18.84 833.11,-18.81 835.4,-25.43"/>
</g>
<!-- Node4&#45;&gt;Node3 -->
<g id="edge36" class="edge">
<title>Node4&#45;&gt;Node3</title>
<path fill="none" stroke="midnightblue" d="M595.07,-336.38C612.2,-328.55 636.59,-315.83 654.5,-300 670.05,-286.27 683.65,-266.71 692.37,-252.64"/>
<polygon fill="midnightblue" stroke="midnightblue" points="695.45,-254.3 697.58,-243.92 689.45,-250.7 695.45,-254.3"/>
</g>
<!-- Node5 -->
<g id="node5" class="node">
<title>Node5</title>
<g id="a_node5"><a xlink:title=" ">
<polygon fill="none" stroke="#bfbfbf" points="0,-0.5 0,-19.5 47,-19.5 47,-0.5 0,-0.5"/>
<text text-anchor="middle" x="23.5" y="-7.5" font-family="Helvetica,sans-Serif" font-size="10.00">cmath</text>
</a>
</g>
</g>
<!-- Node4&#45;&gt;Node5 -->
<g id="edge4" class="edge">
<title>Node4&#45;&gt;Node5</title>
<path fill="none" stroke="midnightblue" d="M538.7,-345C421.9,-344.04 59.5,-333.17 59.5,-235 59.5,-235 59.5,-235 59.5,-121 59.5,-86.98 43.76,-49.85 33.09,-28.6"/>
<polygon fill="midnightblue" stroke="midnightblue" points="36.09,-26.77 28.36,-19.53 29.88,-30.01 36.09,-26.77"/>
</g>
<!-- Node6 -->
<g id="node6" class="node">
<title>Node6</title>
<g id="a_node6"><a xlink:title=" ">
<polygon fill="none" stroke="#bfbfbf" points="65.5,-0.5 65.5,-19.5 125.5,-19.5 125.5,-0.5 65.5,-0.5"/>
<text text-anchor="middle" x="95.5" y="-7.5" font-family="Helvetica,sans-Serif" font-size="10.00">iostream</text>
</a>
</g>
</g>
<!-- Node4&#45;&gt;Node6 -->
<g id="edge5" class="edge">
<title>Node4&#45;&gt;Node6</title>
<path fill="none" stroke="midnightblue" d="M538.79,-344.1C430.71,-340.4 114.5,-322.14 114.5,-235 114.5,-235 114.5,-235 114.5,-121 114.5,-88.49 106.34,-51.35 100.72,-29.61"/>
<polygon fill="midnightblue" stroke="midnightblue" points="104.04,-28.5 98.06,-19.75 97.28,-30.32 104.04,-28.5"/>
</g>
<!-- Node7 -->
<g id="node7" class="node">
<title>Node7</title>
<g id="a_node7"><a xlink:title=" ">
<polygon fill="none" stroke="#bfbfbf" points="143.5,-0.5 143.5,-19.5 201.5,-19.5 201.5,-0.5 143.5,-0.5"/>
<text text-anchor="middle" x="172.5" y="-7.5" font-family="Helvetica,sans-Serif" font-size="10.00">memory</text>
</a>
</g>
</g>
<!-- Node4&#45;&gt;Node7 -->
<g id="edge6" class="edge">
<title>Node4&#45;&gt;Node7</title>
<path fill="none" stroke="midnightblue" d="M538.74,-342.81C440.81,-335.83 175.5,-310 175.5,-235 175.5,-235 175.5,-235 175.5,-121 175.5,-88.94 174.21,-51.63 173.32,-29.74"/>
<polygon fill="midnightblue" stroke="midnightblue" points="176.81,-29.4 172.89,-19.56 169.82,-29.69 176.81,-29.4"/>
</g>
<!-- Node8 -->
<g id="node8" class="node">
<title>Node8</title>
<g id="a_node8"><a xlink:href="_geometry_8hpp.html" target="_top" xlink:title=" ">
<polygon fill="none" stroke="black" points="435.5,-280.5 435.5,-299.5 581.5,-299.5 581.5,-280.5 435.5,-280.5"/>
<text text-anchor="middle" x="508.5" y="-287.5" font-family="Helvetica,sans-Serif" font-size="10.00">../Geometry/Geometry.hpp</text>
</a>
</g>
</g>
<!-- Node4&#45;&gt;Node8 -->
<g id="edge8" class="edge">
<title>Node4&#45;&gt;Node8</title>
<path fill="none" stroke="midnightblue" d="M563.9,-336.32C554.04,-328.26 539.15,-316.08 527.28,-306.37"/>
<polygon fill="midnightblue" stroke="midnightblue" points="529.25,-303.46 519.3,-299.83 524.82,-308.88 529.25,-303.46"/>
</g>
<!-- Node8&#45;&gt;Node3 -->
<g id="edge29" class="edge">
<title>Node8&#45;&gt;Node3</title>
<path fill="none" stroke="midnightblue" d="M539.24,-280.44C572.44,-271.2 625.49,-256.44 662.06,-246.26"/>
<polygon fill="midnightblue" stroke="midnightblue" points="663.21,-249.57 671.9,-243.52 661.33,-242.83 663.21,-249.57"/>
</g>
<!-- Node9 -->
<g id="node9" class="node">
<title>Node9</title>
<g id="a_node9"><a xlink:href="_recorder_8hpp.html" target="_top" xlink:title=" ">
<polygon fill="none" stroke="black" points="215.5,-224.5 215.5,-243.5 363.5,-243.5 363.5,-224.5 215.5,-224.5"/>
<text text-anchor="middle" x="289.5" y="-231.5" font-family="Helvetica,sans-Serif" font-size="10.00">../Benchmark/Recorder.hpp</text>
</a>
</g>
</g>
<!-- Node8&#45;&gt;Node9 -->
<g id="edge9" class="edge">
<title>Node8&#45;&gt;Node9</title>
<path fill="none" stroke="midnightblue" d="M473.8,-280.44C435.92,-271.1 375.15,-256.12 333.84,-245.93"/>
<polygon fill="midnightblue" stroke="midnightblue" points="334.59,-242.51 324.04,-243.52 332.91,-249.31 334.59,-242.51"/>
</g>
<!-- Node12 -->
<g id="node12" class="node">
<title>Node12</title>
<g id="a_node12"><a xlink:href="_maths_8hpp.html" target="_top" xlink:title=" ">
<polygon fill="none" stroke="black" points="389.5,-56.5 389.5,-75.5 517.5,-75.5 517.5,-56.5 389.5,-56.5"/>
<text text-anchor="middle" x="453.5" y="-63.5" font-family="Helvetica,sans-Serif" font-size="10.00">../Geometry/Maths.hpp</text>
</a>
</g>
</g>
<!-- Node8&#45;&gt;Node12 -->
<g id="edge30" class="edge">
<title>Node8&#45;&gt;Node12</title>
<path fill="none" stroke="midnightblue" d="M492.63,-280.45C479.39,-272.58 460.92,-259.75 449.5,-244 418.57,-201.32 419.29,-183.97 410.5,-132 409.02,-123.24 407.19,-120.25 410.5,-112 415.18,-100.33 424.49,-89.97 433.26,-82.14"/>
<polygon fill="midnightblue" stroke="midnightblue" points="435.55,-84.78 441,-75.7 431.08,-79.4 435.55,-84.78"/>
</g>
<!-- Node21 -->
<g id="node21" class="node">
<title>Node21</title>
<g id="a_node21"><a xlink:href="_bounds_8hpp.html" target="_top" xlink:title=" ">
<polygon fill="none" stroke="black" points="538.5,-168.5 538.5,-187.5 612.5,-187.5 612.5,-168.5 538.5,-168.5"/>
<text text-anchor="middle" x="575.5" y="-175.5" font-family="Helvetica,sans-Serif" font-size="10.00">Bounds.hpp</text>
</a>
</g>
</g>
<!-- Node8&#45;&gt;Node21 -->
<g id="edge25" class="edge">
<title>Node8&#45;&gt;Node21</title>
<path fill="none" stroke="midnightblue" d="M520.59,-280.31C531.21,-272.08 546.37,-258.81 555.5,-244 564.32,-229.71 569.51,-211.24 572.38,-197.65"/>
<polygon fill="midnightblue" stroke="midnightblue" points="575.87,-198.04 574.28,-187.57 568.99,-196.75 575.87,-198.04"/>
</g>
<!-- Node22 -->
<g id="node22" class="node">
<title>Node22</title>
<g id="a_node22"><a xlink:href="_vector_8hpp.html" target="_top" xlink:title=" ">
<polygon fill="none" stroke="black" points="419.5,-112.5 419.5,-131.5 487.5,-131.5 487.5,-112.5 419.5,-112.5"/>
<text text-anchor="middle" x="453.5" y="-119.5" font-family="Helvetica,sans-Serif" font-size="10.00">Vector.hpp</text>
</a>
</g>
</g>
<!-- Node8&#45;&gt;Node22 -->
<g id="edge31" class="edge">
<title>Node8&#45;&gt;Node22</title>
<path fill="none" stroke="midnightblue" d="M494.36,-280.23C482.99,-272.3 467.76,-259.52 460.5,-244 444.95,-210.77 447.33,-166.66 450.44,-141.92"/>
<polygon fill="midnightblue" stroke="midnightblue" points="453.94,-142.14 451.9,-131.74 447.01,-141.14 453.94,-142.14"/>
</g>
<!-- Node23 -->
<g id="node23" class="node">
<title>Node23</title>
<g id="a_node23"><a xlink:href="_vertices_8hpp.html" target="_top" xlink:title=" ">
<polygon fill="none" stroke="black" points="470,-224.5 470,-243.5 547,-243.5 547,-224.5 470,-224.5"/>
<text text-anchor="middle" x="508.5" y="-231.5" font-family="Helvetica,sans-Serif" font-size="10.00">Vertices.hpp</text>
</a>
</g>
</g>
<!-- Node8&#45;&gt;Node23 -->
<g id="edge32" class="edge">
<title>Node8&#45;&gt;Node23</title>
<path fill="none" stroke="midnightblue" d="M508.5,-280.08C508.5,-273.01 508.5,-262.86 508.5,-253.99"/>
<polygon fill="midnightblue" stroke="midnightblue" points="512,-253.75 508.5,-243.75 505,-253.75 512,-253.75"/>
</g>
<!-- Node10 -->
<g id="node10" class="node">
<title>Node10</title>
<g id="a_node10"><a xlink:href="_performance_8hpp.html" target="_top" xlink:title=" ">
<polygon fill="none" stroke="black" points="251.5,-168.5 251.5,-187.5 351.5,-187.5 351.5,-168.5 251.5,-168.5"/>
<text text-anchor="middle" x="301.5" y="-175.5" font-family="Helvetica,sans-Serif" font-size="10.00">Performance.hpp</text>
</a>
</g>
</g>
<!-- Node9&#45;&gt;Node10 -->
<g id="edge10" class="edge">
<title>Node9&#45;&gt;Node10</title>
<path fill="none" stroke="midnightblue" d="M291.48,-224.08C293.07,-216.93 295.36,-206.64 297.35,-197.69"/>
<polygon fill="midnightblue" stroke="midnightblue" points="300.8,-198.27 299.56,-187.75 293.97,-196.75 300.8,-198.27"/>
</g>
<!-- Node11 -->
<g id="node11" class="node">
<title>Node11</title>
<g id="a_node11"><a xlink:href="_block_data_8hpp.html" target="_top" xlink:title=" ">
<polygon fill="none" stroke="black" points="266.5,-112.5 266.5,-131.5 354.5,-131.5 354.5,-112.5 266.5,-112.5"/>
<text text-anchor="middle" x="310.5" y="-119.5" font-family="Helvetica,sans-Serif" font-size="10.00">BlockData.hpp</text>
</a>
</g>
</g>
<!-- Node10&#45;&gt;Node11 -->
<g id="edge11" class="edge">
<title>Node10&#45;&gt;Node11</title>
<path fill="none" stroke="midnightblue" d="M302.99,-168.08C304.18,-160.93 305.89,-150.64 307.38,-141.69"/>
<polygon fill="midnightblue" stroke="midnightblue" points="310.85,-142.19 309.04,-131.75 303.95,-141.04 310.85,-142.19"/>
</g>
<!-- Node11&#45;&gt;Node12 -->
<g id="edge12" class="edge">
<title>Node11&#45;&gt;Node12</title>
<path fill="none" stroke="midnightblue" d="M333.16,-112.44C356.9,-103.48 394.41,-89.31 421.24,-79.18"/>
<polygon fill="midnightblue" stroke="midnightblue" points="422.83,-82.32 430.95,-75.52 420.36,-75.77 422.83,-82.32"/>
</g>
<!-- Node12&#45;&gt;Node2 -->
<g id="edge24" class="edge">
<title>Node12&#45;&gt;Node2</title>
<path fill="none" stroke="midnightblue" d="M517.65,-60.35C591.66,-54.34 717.07,-42.13 833.97,-19.82"/>
<polygon fill="midnightblue" stroke="midnightblue" points="834.65,-23.25 843.81,-17.91 833.32,-16.38 834.65,-23.25"/>
</g>
<!-- Node12&#45;&gt;Node5 -->
<g id="edge15" class="edge">
<title>Node12&#45;&gt;Node5</title>
<path fill="none" stroke="midnightblue" d="M389.44,-60.78C312.67,-55.04 180.04,-42.98 57.15,-19.83"/>
<polygon fill="midnightblue" stroke="midnightblue" points="57.67,-16.37 47.19,-17.93 56.36,-23.24 57.67,-16.37"/>
</g>
<!-- Node12&#45;&gt;Node6 -->
<g id="edge18" class="edge">
<title>Node12&#45;&gt;Node6</title>
<path fill="none" stroke="midnightblue" d="M389.38,-57.61C326.99,-50.05 229.31,-37.22 135.61,-20.07"/>
<polygon fill="midnightblue" stroke="midnightblue" points="136.15,-16.61 125.68,-18.24 134.88,-23.5 136.15,-16.61"/>
</g>
<!-- Node12&#45;&gt;Node7 -->
<g id="edge20" class="edge">
<title>Node12&#45;&gt;Node7</title>
<path fill="none" stroke="midnightblue" d="M403.56,-56.5C356.55,-48.32 283.93,-35.27 211.7,-20.17"/>
<polygon fill="midnightblue" stroke="midnightblue" points="212.02,-16.66 201.51,-18.03 210.58,-23.51 212.02,-16.66"/>
</g>
<!-- Node13 -->
<g id="node13" class="node">
<title>Node13</title>
<g id="a_node13"><a xlink:title=" ">
<polygon fill="none" stroke="#bfbfbf" points="496.5,-0.5 496.5,-19.5 538.5,-19.5 538.5,-0.5 496.5,-0.5"/>
<text text-anchor="middle" x="517.5" y="-7.5" font-family="Helvetica,sans-Serif" font-size="10.00">array</text>
</a>
</g>
</g>
<!-- Node12&#45;&gt;Node13 -->
<g id="edge13" class="edge">
<title>Node12&#45;&gt;Node13</title>
<path fill="none" stroke="midnightblue" d="M463.78,-56.32C473.34,-48.26 487.78,-36.08 499.28,-26.37"/>
<polygon fill="midnightblue" stroke="midnightblue" points="501.64,-28.96 507.03,-19.83 497.13,-23.61 501.64,-28.96"/>
</g>
<!-- Node14 -->
<g id="node14" class="node">
<title>Node14</title>
<g id="a_node14"><a xlink:title=" ">
<polygon fill="none" stroke="#bfbfbf" points="556.5,-0.5 556.5,-19.5 606.5,-19.5 606.5,-0.5 556.5,-0.5"/>
<text text-anchor="middle" x="581.5" y="-7.5" font-family="Helvetica,sans-Serif" font-size="10.00">chrono</text>
</a>
</g>
</g>
<!-- Node12&#45;&gt;Node14 -->
<g id="edge14" class="edge">
<title>Node12&#45;&gt;Node14</title>
<path fill="none" stroke="midnightblue" d="M473.78,-56.44C494.85,-47.56 528.02,-33.56 551.99,-23.45"/>
<polygon fill="midnightblue" stroke="midnightblue" points="553.46,-26.63 561.31,-19.52 550.74,-20.18 553.46,-26.63"/>
</g>
<!-- Node15 -->
<g id="node15" class="node">
<title>Node15</title>
<g id="a_node15"><a xlink:title=" ">
<polygon fill="none" stroke="#bfbfbf" points="625,-0.5 625,-19.5 672,-19.5 672,-0.5 625,-0.5"/>
<text text-anchor="middle" x="648.5" y="-7.5" font-family="Helvetica,sans-Serif" font-size="10.00">deque</text>
</a>
</g>
</g>
<!-- Node12&#45;&gt;Node15 -->
<g id="edge16" class="edge">
<title>Node12&#45;&gt;Node15</title>
<path fill="none" stroke="midnightblue" d="M484.4,-56.44C520.03,-46.58 578.4,-30.41 615.07,-20.26"/>
<polygon fill="midnightblue" stroke="midnightblue" points="616.1,-23.6 624.8,-17.56 614.23,-16.86 616.1,-23.6"/>
</g>
<!-- Node16 -->
<g id="node16" class="node">
<title>Node16</title>
<g id="a_node16"><a xlink:title=" ">
<polygon fill="none" stroke="#bfbfbf" points="690,-0.5 690,-19.5 755,-19.5 755,-0.5 690,-0.5"/>
<text text-anchor="middle" x="722.5" y="-7.5" font-family="Helvetica,sans-Serif" font-size="10.00">functional</text>
</a>
</g>
</g>
<!-- Node12&#45;&gt;Node16 -->
<g id="edge17" class="edge">
<title>Node12&#45;&gt;Node16</title>
<path fill="none" stroke="midnightblue" d="M497.48,-56.49C541.19,-47.99 610.39,-34.4 680.11,-20.05"/>
<polygon fill="midnightblue" stroke="midnightblue" points="680.86,-23.47 689.95,-18.03 679.45,-16.62 680.86,-23.47"/>
</g>
<!-- Node17 -->
<g id="node17" class="node">
<title>Node17</title>
<g id="a_node17"><a xlink:title=" ">
<polygon fill="none" stroke="#bfbfbf" points="773,-0.5 773,-19.5 826,-19.5 826,-0.5 773,-0.5"/>
<text text-anchor="middle" x="799.5" y="-7.5" font-family="Helvetica,sans-Serif" font-size="10.00">iterator</text>
</a>
</g>
</g>
<!-- Node12&#45;&gt;Node17 -->
<g id="edge19" class="edge">
<title>Node12&#45;&gt;Node17</title>
<path fill="none" stroke="midnightblue" d="M517.64,-57.61C578.35,-50.17 672.18,-37.57 762.93,-19.93"/>
<polygon fill="midnightblue" stroke="midnightblue" points="763.69,-23.35 772.83,-17.99 762.34,-16.48 763.69,-23.35"/>
</g>
<!-- Node18 -->
<g id="node18" class="node">
<title>Node18</title>
<g id="a_node18"><a xlink:title=" ">
<polygon fill="none" stroke="#bfbfbf" points="219.5,-0.5 219.5,-19.5 275.5,-19.5 275.5,-0.5 219.5,-0.5"/>
<text text-anchor="middle" x="247.5" y="-7.5" font-family="Helvetica,sans-Serif" font-size="10.00">sstream</text>
</a>
</g>
</g>
<!-- Node12&#45;&gt;Node18 -->
<g id="edge21" class="edge">
<title>Node12&#45;&gt;Node18</title>
<path fill="none" stroke="midnightblue" d="M420.86,-56.44C384.1,-46.81 324.43,-31.17 285.57,-20.98"/>
<polygon fill="midnightblue" stroke="midnightblue" points="286.25,-17.54 275.69,-18.39 284.47,-24.31 286.25,-17.54"/>
</g>
<!-- Node19 -->
<g id="node19" class="node">
<title>Node19</title>
<g id="a_node19"><a xlink:title=" ">
<polygon fill="none" stroke="#bfbfbf" points="294,-0.5 294,-19.5 367,-19.5 367,-0.5 294,-0.5"/>
<text text-anchor="middle" x="330.5" y="-7.5" font-family="Helvetica,sans-Serif" font-size="10.00">string_view</text>
</a>
</g>
</g>
<!-- Node12&#45;&gt;Node19 -->
<g id="edge22" class="edge">
<title>Node12&#45;&gt;Node19</title>
<path fill="none" stroke="midnightblue" d="M434.01,-56.44C413.86,-47.6 382.18,-33.69 359.17,-23.59"/>
<polygon fill="midnightblue" stroke="midnightblue" points="360.46,-20.33 349.9,-19.52 357.65,-26.74 360.46,-20.33"/>
</g>
<!-- Node20 -->
<g id="node20" class="node">
<title>Node20</title>
<g id="a_node20"><a xlink:title=" ">
<polygon fill="none" stroke="#bfbfbf" points="385,-0.5 385,-19.5 478,-19.5 478,-0.5 385,-0.5"/>
<text text-anchor="middle" x="431.5" y="-7.5" font-family="Helvetica,sans-Serif" font-size="10.00">unordered_map</text>
</a>
</g>
</g>
<!-- Node12&#45;&gt;Node20 -->
<g id="edge23" class="edge">
<title>Node12&#45;&gt;Node20</title>
<path fill="none" stroke="midnightblue" d="M449.87,-56.08C446.89,-48.77 442.57,-38.18 438.88,-29.1"/>
<polygon fill="midnightblue" stroke="midnightblue" points="442.08,-27.69 435.07,-19.75 435.6,-30.33 442.08,-27.69"/>
</g>
<!-- Node21&#45;&gt;Node12 -->
<g id="edge26" class="edge">
<title>Node21&#45;&gt;Node12</title>
<path fill="none" stroke="midnightblue" d="M570.83,-168.12C563.44,-154.71 548,-129.05 529.5,-112 515.4,-99 496.94,-87.97 481.75,-80.08"/>
<polygon fill="midnightblue" stroke="midnightblue" points="483.28,-76.93 472.78,-75.58 480.15,-83.19 483.28,-76.93"/>
</g>
<!-- Node21&#45;&gt;Node22 -->
<g id="edge27" class="edge">
<title>Node21&#45;&gt;Node22</title>
<path fill="none" stroke="midnightblue" d="M556.17,-168.44C536.18,-159.6 504.76,-145.69 481.94,-135.59"/>
<polygon fill="midnightblue" stroke="midnightblue" points="483.3,-132.36 472.74,-131.52 480.47,-138.76 483.3,-132.36"/>
</g>
<!-- Node22&#45;&gt;Node12 -->
<g id="edge28" class="edge">
<title>Node22&#45;&gt;Node12</title>
<path fill="none" stroke="midnightblue" d="M453.5,-112.08C453.5,-105.01 453.5,-94.86 453.5,-85.99"/>
<polygon fill="midnightblue" stroke="midnightblue" points="457,-85.75 453.5,-75.75 450,-85.75 457,-85.75"/>
</g>
<!-- Node23&#45;&gt;Node12 -->
<g id="edge34" class="edge">
<title>Node23&#45;&gt;Node12</title>
<path fill="none" stroke="midnightblue" d="M509.5,-224.29C511.48,-203.68 514.31,-150.75 496.5,-112 491.18,-100.42 481.64,-89.96 472.89,-82.05"/>
<polygon fill="midnightblue" stroke="midnightblue" points="475.12,-79.35 465.23,-75.54 470.58,-84.68 475.12,-79.35"/>
</g>
<!-- Node23&#45;&gt;Node21 -->
<g id="edge33" class="edge">
<title>Node23&#45;&gt;Node21</title>
<path fill="none" stroke="midnightblue" d="M519.26,-224.32C529.27,-216.26 544.39,-204.08 556.43,-194.37"/>
<polygon fill="midnightblue" stroke="midnightblue" points="558.95,-196.83 564.54,-187.83 554.56,-191.38 558.95,-196.83"/>
</g>
<!-- Node23&#45;&gt;Node22 -->
<g id="edge35" class="edge">
<title>Node23&#45;&gt;Node22</title>
<path fill="none" stroke="midnightblue" d="M504.18,-224.37C495.19,-206.38 474.28,-164.55 462.31,-140.63"/>
<polygon fill="midnightblue" stroke="midnightblue" points="465.4,-138.97 457.8,-131.59 459.14,-142.1 465.4,-138.97"/>
</g>
<!-- Node24&#45;&gt;Node1 -->
<g id="edge39" class="edge">
<title>Node24&#45;&gt;Node1</title>
<path fill="none" stroke="midnightblue" d="M736.26,-411.65C737.73,-418.52 738.38,-428.56 738.23,-438.26"/>
<polygon fill="midnightblue" stroke="midnightblue" points="734.72,-438.34 737.75,-448.5 741.71,-438.67 734.72,-438.34"/>
</g>
<!-- Node24&#45;&gt;Node2 -->
<g id="edge38" class="edge">
<title>Node24&#45;&gt;Node2</title>
<path fill="none" stroke="midnightblue" d="M735.95,-392.42C744.96,-374.24 764.5,-330.28 764.5,-291 764.5,-291 764.5,-291 764.5,-121 764.5,-76.43 810.12,-42.46 840.64,-24.73"/>
<polygon fill="midnightblue" stroke="midnightblue" points="842.53,-27.68 849.56,-19.75 839.12,-21.57 842.53,-27.68"/>
</g>
<!-- Node24&#45;&gt;Node3 -->
<g id="edge40" class="edge">
<title>Node24&#45;&gt;Node3</title>
<path fill="none" stroke="midnightblue" d="M729.94,-392.08C725.38,-365.95 711.97,-289.21 705.75,-253.58"/>
<polygon fill="midnightblue" stroke="midnightblue" points="709.17,-252.82 704,-243.57 702.27,-254.02 709.17,-252.82"/>
</g>
<!-- Node24&#45;&gt;Node4 -->
<g id="edge41" class="edge">
<title>Node24&#45;&gt;Node4</title>
<path fill="none" stroke="midnightblue" d="M706.62,-392.44C680.21,-383.36 638.28,-368.94 608.76,-358.78"/>
<polygon fill="midnightblue" stroke="midnightblue" points="609.86,-355.46 599.26,-355.52 607.58,-362.08 609.86,-355.46"/>
</g>
</g>
</svg>
