<?xml version="1.0" encoding="UTF-8" standalone="no"?>
<!DOCTYPE svg PUBLIC "-//W3C//DTD SVG 1.1//EN"
 "http://www.w3.org/Graphics/SVG/1.1/DTD/svg11.dtd">
<!-- Generated by graphviz version 2.43.0 (0)
 -->
<!-- Title: /home/runner/work/Simulatio/Simulatio/engine/include/Corpses/Circle.hpp Pages: 1 -->
<svg width="1862pt" height="440pt"
 viewBox="0.00 0.00 1861.50 440.00" xmlns="http://www.w3.org/2000/svg" xmlns:xlink="http://www.w3.org/1999/xlink">
<g id="graph0" class="graph" transform="scale(1 1) rotate(0) translate(4 436)">
<title>/home/runner/work/Simulatio/Simulatio/engine/include/Corpses/Circle.hpp</title>
<!-- Node1 -->
<g id="node1" class="node">
<title>Node1</title>
<g id="a_node1"><a xlink:title=" ">
<polygon fill="#bfbfbf" stroke="black" points="1316,-390.5 1316,-431.5 1474,-431.5 1474,-390.5 1316,-390.5"/>
<text text-anchor="start" x="1324" y="-419.5" font-family="Helvetica,sans-Serif" font-size="10.00">/home/runner/work/Simulatio</text>
<text text-anchor="start" x="1324" y="-408.5" font-family="Helvetica,sans-Serif" font-size="10.00">/Simulatio/engine/include</text>
<text text-anchor="middle" x="1395" y="-397.5" font-family="Helvetica,sans-Serif" font-size="10.00">/Corpses/Circle.hpp</text>
</a>
</g>
</g>
<!-- Node2 -->
<g id="node2" class="node">
<title>Node2</title>
<g id="a_node2"><a xlink:href="_constraint_8hpp.html" target="_top" xlink:title=" ">
<polygon fill="none" stroke="black" points="661,-234.5 661,-275.5 819,-275.5 819,-234.5 661,-234.5"/>
<text text-anchor="start" x="669" y="-263.5" font-family="Helvetica,sans-Serif" font-size="10.00">/home/runner/work/Simulatio</text>
<text text-anchor="start" x="669" y="-252.5" font-family="Helvetica,sans-Serif" font-size="10.00">/Simulatio/engine/include</text>
<text text-anchor="middle" x="740" y="-241.5" font-family="Helvetica,sans-Serif" font-size="10.00">/Constraints/Constraint.hpp</text>
</a>
</g>
</g>
<!-- Node1&#45;&gt;Node2 -->
<g id="edge1" class="edge">
<title>Node1&#45;&gt;Node2</title>
<path fill="none" stroke="midnightblue" d="M1305.82,-391.18C1256.31,-380.58 1193.66,-366.91 1138,-354 1026.05,-328.02 896.95,-295.82 816.9,-275.58"/>
<polygon fill="midnightblue" stroke="midnightblue" points="1305.35,-394.66 1315.86,-393.33 1306.81,-387.82 1305.35,-394.66"/>
</g>
<!-- Node4 -->
<g id="node4" class="node">
<title>Node4</title>
<g id="a_node4"><a xlink:href="_system_8hpp.html" target="_top" xlink:title=" ">
<polygon fill="none" stroke="black" points="890,-78.5 890,-119.5 1048,-119.5 1048,-78.5 890,-78.5"/>
<text text-anchor="start" x="898" y="-107.5" font-family="Helvetica,sans-Serif" font-size="10.00">/home/runner/work/Simulatio</text>
<text text-anchor="start" x="898" y="-96.5" font-family="Helvetica,sans-Serif" font-size="10.00">/Simulatio/engine/include</text>
<text text-anchor="middle" x="969" y="-85.5" font-family="Helvetica,sans-Serif" font-size="10.00">/Structures/System.hpp</text>
</a>
</g>
</g>
<!-- Node1&#45;&gt;Node4 -->
<g id="edge33" class="edge">
<title>Node1&#45;&gt;Node4</title>
<path fill="none" stroke="midnightblue" d="M1484,-387.71C1540.88,-368.35 1610.27,-334.02 1645,-276 1672.39,-230.24 1681.12,-195.24 1645,-156 1605.27,-112.84 1217.88,-102.94 1048.07,-100.67"/>
<polygon fill="midnightblue" stroke="midnightblue" points="1482.66,-384.46 1474.26,-390.92 1484.85,-391.11 1482.66,-384.46"/>
</g>
<!-- Node15 -->
<g id="node15" class="node">
<title>Node15</title>
<g id="a_node15"><a xlink:href="_polygon_8hpp.html" target="_top" xlink:title=" ">
<polygon fill="none" stroke="black" points="1207,-312.5 1207,-353.5 1365,-353.5 1365,-312.5 1207,-312.5"/>
<text text-anchor="start" x="1215" y="-341.5" font-family="Helvetica,sans-Serif" font-size="10.00">/home/runner/work/Simulatio</text>
<text text-anchor="start" x="1215" y="-330.5" font-family="Helvetica,sans-Serif" font-size="10.00">/Simulatio/engine/include</text>
<text text-anchor="middle" x="1286" y="-319.5" font-family="Helvetica,sans-Serif" font-size="10.00">/Corpses/Polygon.hpp</text>
</a>
</g>
</g>
<!-- Node1&#45;&gt;Node15 -->
<g id="edge17" class="edge">
<title>Node1&#45;&gt;Node15</title>
<path fill="none" stroke="midnightblue" d="M1352.21,-384.64C1337.09,-374.49 1320.73,-362.98 1307.99,-353.51"/>
<polygon fill="midnightblue" stroke="midnightblue" points="1350.67,-387.81 1360.94,-390.43 1354.55,-381.98 1350.67,-387.81"/>
</g>
<!-- Node16 -->
<g id="node16" class="node">
<title>Node16</title>
<g id="a_node16"><a xlink:href="_collision_8hpp.html" target="_top" xlink:title=" ">
<polygon fill="none" stroke="black" points="1008,-234.5 1008,-275.5 1166,-275.5 1166,-234.5 1008,-234.5"/>
<text text-anchor="start" x="1016" y="-263.5" font-family="Helvetica,sans-Serif" font-size="10.00">/home/runner/work/Simulatio</text>
<text text-anchor="start" x="1016" y="-252.5" font-family="Helvetica,sans-Serif" font-size="10.00">/Simulatio/engine/include</text>
<text text-anchor="middle" x="1087" y="-241.5" font-family="Helvetica,sans-Serif" font-size="10.00">/Geometry/Collision.hpp</text>
</a>
</g>
</g>
<!-- Node1&#45;&gt;Node16 -->
<g id="edge30" class="edge">
<title>Node1&#45;&gt;Node16</title>
<path fill="none" stroke="midnightblue" d="M1305.9,-393.59C1270.9,-384.9 1231.23,-372.16 1198,-354 1160.33,-333.41 1124.57,-297.98 1104.26,-275.83"/>
<polygon fill="midnightblue" stroke="midnightblue" points="1305.1,-396.99 1315.64,-395.93 1306.74,-390.19 1305.1,-396.99"/>
</g>
<!-- Node18 -->
<g id="node18" class="node">
<title>Node18</title>
<g id="a_node18"><a xlink:href="_quad_node_8hpp.html" target="_top" xlink:title=" ">
<polygon fill="none" stroke="black" points="1478,-234.5 1478,-275.5 1636,-275.5 1636,-234.5 1478,-234.5"/>
<text text-anchor="start" x="1486" y="-263.5" font-family="Helvetica,sans-Serif" font-size="10.00">/home/runner/work/Simulatio</text>
<text text-anchor="start" x="1486" y="-252.5" font-family="Helvetica,sans-Serif" font-size="10.00">/Simulatio/engine/include</text>
<text text-anchor="middle" x="1557" y="-241.5" font-family="Helvetica,sans-Serif" font-size="10.00">/Structures/QuadNode.hpp</text>
</a>
</g>
</g>
<!-- Node1&#45;&gt;Node18 -->
<g id="edge31" class="edge">
<title>Node1&#45;&gt;Node18</title>
<path fill="none" stroke="midnightblue" d="M1428.95,-383.89C1440.35,-374.75 1452.97,-364.2 1464,-354 1491.72,-328.35 1521.35,-296.2 1539.53,-275.87"/>
<polygon fill="midnightblue" stroke="midnightblue" points="1426.55,-381.33 1420.9,-390.28 1430.91,-386.81 1426.55,-381.33"/>
</g>
<!-- Node19 -->
<g id="node19" class="node">
<title>Node19</title>
<g id="a_node19"><a xlink:href="_quadtree_8hpp.html" target="_top" xlink:title=" ">
<polygon fill="none" stroke="black" points="1273,-156.5 1273,-197.5 1431,-197.5 1431,-156.5 1273,-156.5"/>
<text text-anchor="start" x="1281" y="-185.5" font-family="Helvetica,sans-Serif" font-size="10.00">/home/runner/work/Simulatio</text>
<text text-anchor="start" x="1281" y="-174.5" font-family="Helvetica,sans-Serif" font-size="10.00">/Simulatio/engine/include</text>
<text text-anchor="middle" x="1352" y="-163.5" font-family="Helvetica,sans-Serif" font-size="10.00">/Structures/Quadtree.hpp</text>
</a>
</g>
</g>
<!-- Node1&#45;&gt;Node19 -->
<g id="edge32" class="edge">
<title>Node1&#45;&gt;Node19</title>
<path fill="none" stroke="midnightblue" d="M1411.85,-381.34C1430.75,-345.15 1455.72,-281.81 1431,-234 1423.05,-218.62 1408.71,-206.55 1394.4,-197.62"/>
<polygon fill="midnightblue" stroke="midnightblue" points="1408.65,-379.91 1406.97,-390.37 1414.81,-383.24 1408.65,-379.91"/>
</g>
<!-- Node22 -->
<g id="node22" class="node">
<title>Node22</title>
<g id="a_node22"><a xlink:href="_circle_8cpp.html" target="_top" xlink:title=" ">
<polygon fill="none" stroke="black" points="1692.5,-312.5 1692.5,-353.5 1853.5,-353.5 1853.5,-312.5 1692.5,-312.5"/>
<text text-anchor="start" x="1700.5" y="-341.5" font-family="Helvetica,sans-Serif" font-size="10.00">/home/runner/work/Simulatio</text>
<text text-anchor="start" x="1700.5" y="-330.5" font-family="Helvetica,sans-Serif" font-size="10.00">/Simulatio/engine/src/Corpses</text>
<text text-anchor="middle" x="1773" y="-319.5" font-family="Helvetica,sans-Serif" font-size="10.00">/Circle.cpp</text>
</a>
</g>
</g>
<!-- Node1&#45;&gt;Node22 -->
<g id="edge34" class="edge">
<title>Node1&#45;&gt;Node22</title>
<path fill="none" stroke="midnightblue" d="M1483.89,-392.7C1539.67,-381.77 1613.07,-367.26 1678,-354 1682.71,-353.04 1687.54,-352.04 1692.42,-351.03"/>
<polygon fill="midnightblue" stroke="midnightblue" points="1483.18,-389.27 1474.04,-394.63 1484.52,-396.14 1483.18,-389.27"/>
</g>
<!-- Node3 -->
<g id="node3" class="node">
<title>Node3</title>
<g id="a_node3"><a xlink:href="_link_8hpp.html" target="_top" xlink:title=" ">
<polygon fill="none" stroke="black" points="216,-156.5 216,-197.5 374,-197.5 374,-156.5 216,-156.5"/>
<text text-anchor="start" x="224" y="-185.5" font-family="Helvetica,sans-Serif" font-size="10.00">/home/runner/work/Simulatio</text>
<text text-anchor="start" x="224" y="-174.5" font-family="Helvetica,sans-Serif" font-size="10.00">/Simulatio/engine/include</text>
<text text-anchor="middle" x="295" y="-163.5" font-family="Helvetica,sans-Serif" font-size="10.00">/Constraints/Link.hpp</text>
</a>
</g>
</g>
<!-- Node2&#45;&gt;Node3 -->
<g id="edge2" class="edge">
<title>Node2&#45;&gt;Node3</title>
<path fill="none" stroke="midnightblue" d="M650.68,-241.71C578.3,-231.33 473.77,-215.41 383,-198 380.08,-197.44 377.1,-196.85 374.1,-196.24"/>
<polygon fill="midnightblue" stroke="midnightblue" points="650.29,-245.18 660.68,-243.13 651.28,-238.26 650.29,-245.18"/>
</g>
<!-- Node2&#45;&gt;Node4 -->
<g id="edge15" class="edge">
<title>Node2&#45;&gt;Node4</title>
<path fill="none" stroke="midnightblue" d="M828.95,-245.07C864.36,-237.48 903.2,-223.54 931,-198 953.44,-177.38 962.78,-141.96 966.55,-119.82"/>
<polygon fill="midnightblue" stroke="midnightblue" points="828.18,-241.65 819.06,-247.04 829.55,-248.51 828.18,-241.65"/>
</g>
<!-- Node8 -->
<g id="node8" class="node">
<title>Node8</title>
<g id="a_node8"><a xlink:href="_loose_8hpp.html" target="_top" xlink:title=" ">
<polygon fill="none" stroke="black" points="30,-156.5 30,-197.5 188,-197.5 188,-156.5 30,-156.5"/>
<text text-anchor="start" x="38" y="-185.5" font-family="Helvetica,sans-Serif" font-size="10.00">/home/runner/work/Simulatio</text>
<text text-anchor="start" x="38" y="-174.5" font-family="Helvetica,sans-Serif" font-size="10.00">/Simulatio/engine/include</text>
<text text-anchor="middle" x="109" y="-163.5" font-family="Helvetica,sans-Serif" font-size="10.00">/Constraints/Loose.hpp</text>
</a>
</g>
</g>
<!-- Node2&#45;&gt;Node8 -->
<g id="edge7" class="edge">
<title>Node2&#45;&gt;Node8</title>
<path fill="none" stroke="midnightblue" d="M650.64,-247.27C544.49,-238.65 362.23,-221.94 207,-198 200.82,-197.05 194.44,-195.97 188.04,-194.81"/>
<polygon fill="midnightblue" stroke="midnightblue" points="650.43,-250.76 660.68,-248.07 650.99,-243.78 650.43,-250.76"/>
</g>
<!-- Node10 -->
<g id="node10" class="node">
<title>Node10</title>
<g id="a_node10"><a xlink:href="_slider_8hpp.html" target="_top" xlink:title=" ">
<polygon fill="none" stroke="black" points="392,-156.5 392,-197.5 550,-197.5 550,-156.5 392,-156.5"/>
<text text-anchor="start" x="400" y="-185.5" font-family="Helvetica,sans-Serif" font-size="10.00">/home/runner/work/Simulatio</text>
<text text-anchor="start" x="400" y="-174.5" font-family="Helvetica,sans-Serif" font-size="10.00">/Simulatio/engine/include</text>
<text text-anchor="middle" x="471" y="-163.5" font-family="Helvetica,sans-Serif" font-size="10.00">/Constraints/Slider.hpp</text>
</a>
</g>
</g>
<!-- Node2&#45;&gt;Node10 -->
<g id="edge9" class="edge">
<title>Node2&#45;&gt;Node10</title>
<path fill="none" stroke="midnightblue" d="M660.65,-231.58C622.36,-220.76 576.87,-207.91 540.04,-197.51"/>
<polygon fill="midnightblue" stroke="midnightblue" points="660.15,-235.08 670.73,-234.43 662.05,-228.34 660.15,-235.08"/>
</g>
<!-- Node12 -->
<g id="node12" class="node">
<title>Node12</title>
<g id="a_node12"><a xlink:href="_spring_8hpp.html" target="_top" xlink:title=" ">
<polygon fill="none" stroke="black" points="568,-156.5 568,-197.5 726,-197.5 726,-156.5 568,-156.5"/>
<text text-anchor="start" x="576" y="-185.5" font-family="Helvetica,sans-Serif" font-size="10.00">/home/runner/work/Simulatio</text>
<text text-anchor="start" x="576" y="-174.5" font-family="Helvetica,sans-Serif" font-size="10.00">/Simulatio/engine/include</text>
<text text-anchor="middle" x="647" y="-163.5" font-family="Helvetica,sans-Serif" font-size="10.00">/Constraints/Spring.hpp</text>
</a>
</g>
</g>
<!-- Node2&#45;&gt;Node12 -->
<g id="edge12" class="edge">
<title>Node2&#45;&gt;Node12</title>
<path fill="none" stroke="midnightblue" d="M708.26,-228.06C696.02,-218.06 682.25,-206.8 670.87,-197.51"/>
<polygon fill="midnightblue" stroke="midnightblue" points="706.09,-230.81 716.05,-234.43 710.52,-225.39 706.09,-230.81"/>
</g>
<!-- Node14 -->
<g id="node14" class="node">
<title>Node14</title>
<g id="a_node14"><a xlink:href="_constraint_8cpp.html" target="_top" xlink:title=" ">
<polygon fill="none" stroke="black" points="744,-156.5 744,-197.5 922,-197.5 922,-156.5 744,-156.5"/>
<text text-anchor="start" x="752" y="-185.5" font-family="Helvetica,sans-Serif" font-size="10.00">/home/runner/work/Simulatio</text>
<text text-anchor="start" x="752" y="-174.5" font-family="Helvetica,sans-Serif" font-size="10.00">/Simulatio/engine/src/Constraints</text>
<text text-anchor="middle" x="833" y="-163.5" font-family="Helvetica,sans-Serif" font-size="10.00">/Constraint.cpp</text>
</a>
</g>
</g>
<!-- Node2&#45;&gt;Node14 -->
<g id="edge16" class="edge">
<title>Node2&#45;&gt;Node14</title>
<path fill="none" stroke="midnightblue" d="M771.74,-228.06C783.98,-218.06 797.75,-206.8 809.13,-197.51"/>
<polygon fill="midnightblue" stroke="midnightblue" points="769.48,-225.39 763.95,-234.43 773.91,-230.81 769.48,-225.39"/>
</g>
<!-- Node3&#45;&gt;Node4 -->
<g id="edge3" class="edge">
<title>Node3&#45;&gt;Node4</title>
<path fill="none" stroke="midnightblue" d="M384.03,-155.94C557.51,-128.86 604.1,-136.66 775,-120 812.74,-116.32 854.59,-112.03 889.73,-108.37"/>
<polygon fill="midnightblue" stroke="midnightblue" points="383.39,-152.5 374.06,-157.51 384.48,-159.41 383.39,-152.5"/>
</g>
<!-- Node7 -->
<g id="node7" class="node">
<title>Node7</title>
<g id="a_node7"><a xlink:href="_link_8cpp.html" target="_top" xlink:title=" ">
<polygon fill="none" stroke="black" points="196,-78.5 196,-119.5 374,-119.5 374,-78.5 196,-78.5"/>
<text text-anchor="start" x="204" y="-107.5" font-family="Helvetica,sans-Serif" font-size="10.00">/home/runner/work/Simulatio</text>
<text text-anchor="start" x="204" y="-96.5" font-family="Helvetica,sans-Serif" font-size="10.00">/Simulatio/engine/src/Constraints</text>
<text text-anchor="middle" x="285" y="-85.5" font-family="Helvetica,sans-Serif" font-size="10.00">/Link.cpp</text>
</a>
</g>
</g>
<!-- Node3&#45;&gt;Node7 -->
<g id="edge6" class="edge">
<title>Node3&#45;&gt;Node7</title>
<path fill="none" stroke="midnightblue" d="M291.09,-146.3C289.91,-137.3 288.64,-127.65 287.57,-119.51"/>
<polygon fill="midnightblue" stroke="midnightblue" points="287.65,-146.97 292.42,-156.43 294.59,-146.06 287.65,-146.97"/>
</g>
<!-- Node5 -->
<g id="node5" class="node">
<title>Node5</title>
<g id="a_node5"><a xlink:href="_system_8cpp.html" target="_top" xlink:title=" ">
<polygon fill="none" stroke="black" points="791,-0.5 791,-41.5 963,-41.5 963,-0.5 791,-0.5"/>
<text text-anchor="start" x="799" y="-29.5" font-family="Helvetica,sans-Serif" font-size="10.00">/home/runner/work/Simulatio</text>
<text text-anchor="start" x="799" y="-18.5" font-family="Helvetica,sans-Serif" font-size="10.00">/Simulatio/engine/src/Structures</text>
<text text-anchor="middle" x="877" y="-7.5" font-family="Helvetica,sans-Serif" font-size="10.00">/System.cpp</text>
</a>
</g>
</g>
<!-- Node4&#45;&gt;Node5 -->
<g id="edge4" class="edge">
<title>Node4&#45;&gt;Node5</title>
<path fill="none" stroke="midnightblue" d="M937.26,-71.78C925.23,-61.84 911.76,-50.72 900.61,-41.51"/>
<polygon fill="midnightblue" stroke="midnightblue" points="935.37,-74.76 945.31,-78.43 939.83,-69.36 935.37,-74.76"/>
</g>
<!-- Node6 -->
<g id="node6" class="node">
<title>Node6</title>
<g id="a_node6"><a xlink:href="engine_2src_2main_2main_8cpp.html" target="_top" xlink:title=" ">
<polygon fill="none" stroke="black" points="981,-0.5 981,-41.5 1139,-41.5 1139,-0.5 981,-0.5"/>
<text text-anchor="start" x="989" y="-29.5" font-family="Helvetica,sans-Serif" font-size="10.00">/home/runner/work/Simulatio</text>
<text text-anchor="start" x="989" y="-18.5" font-family="Helvetica,sans-Serif" font-size="10.00">/Simulatio/engine/src/main</text>
<text text-anchor="middle" x="1060" y="-7.5" font-family="Helvetica,sans-Serif" font-size="10.00">/main.cpp</text>
</a>
</g>
</g>
<!-- Node4&#45;&gt;Node6 -->
<g id="edge5" class="edge">
<title>Node4&#45;&gt;Node6</title>
<path fill="none" stroke="midnightblue" d="M1000.4,-71.78C1012.29,-61.84 1025.62,-50.72 1036.64,-41.51"/>
<polygon fill="midnightblue" stroke="midnightblue" points="997.87,-69.33 992.43,-78.43 1002.35,-74.7 997.87,-69.33"/>
</g>
<!-- Node9 -->
<g id="node9" class="node">
<title>Node9</title>
<g id="a_node9"><a xlink:href="_loose_8cpp.html" target="_top" xlink:title=" ">
<polygon fill="none" stroke="black" points="0,-78.5 0,-119.5 178,-119.5 178,-78.5 0,-78.5"/>
<text text-anchor="start" x="8" y="-107.5" font-family="Helvetica,sans-Serif" font-size="10.00">/home/runner/work/Simulatio</text>
<text text-anchor="start" x="8" y="-96.5" font-family="Helvetica,sans-Serif" font-size="10.00">/Simulatio/engine/src/Constraints</text>
<text text-anchor="middle" x="89" y="-85.5" font-family="Helvetica,sans-Serif" font-size="10.00">/Loose.cpp</text>
</a>
</g>
</g>
<!-- Node8&#45;&gt;Node9 -->
<g id="edge8" class="edge">
<title>Node8&#45;&gt;Node9</title>
<path fill="none" stroke="midnightblue" d="M101.26,-146.59C98.87,-137.51 96.3,-127.74 94.13,-119.51"/>
<polygon fill="midnightblue" stroke="midnightblue" points="97.92,-147.65 103.85,-156.43 104.69,-145.87 97.92,-147.65"/>
</g>
<!-- Node10&#45;&gt;Node4 -->
<g id="edge10" class="edge">
<title>Node10&#45;&gt;Node4</title>
<path fill="none" stroke="midnightblue" d="M560.22,-155.85C680.6,-134.32 809.13,-118.1 889.69,-108.74"/>
<polygon fill="midnightblue" stroke="midnightblue" points="559.31,-152.46 550.09,-157.68 560.55,-159.35 559.31,-152.46"/>
</g>
<!-- Node11 -->
<g id="node11" class="node">
<title>Node11</title>
<g id="a_node11"><a xlink:href="engine_2src_2_constraints_2_slider_8cpp.html" target="_top" xlink:title=" ">
<polygon fill="none" stroke="black" points="392,-78.5 392,-119.5 570,-119.5 570,-78.5 392,-78.5"/>
<text text-anchor="start" x="400" y="-107.5" font-family="Helvetica,sans-Serif" font-size="10.00">/home/runner/work/Simulatio</text>
<text text-anchor="start" x="400" y="-96.5" font-family="Helvetica,sans-Serif" font-size="10.00">/Simulatio/engine/src/Constraints</text>
<text text-anchor="middle" x="481" y="-85.5" font-family="Helvetica,sans-Serif" font-size="10.00">/Slider.cpp</text>
</a>
</g>
</g>
<!-- Node10&#45;&gt;Node11 -->
<g id="edge11" class="edge">
<title>Node10&#45;&gt;Node11</title>
<path fill="none" stroke="midnightblue" d="M474.91,-146.3C476.09,-137.3 477.36,-127.65 478.43,-119.51"/>
<polygon fill="midnightblue" stroke="midnightblue" points="471.41,-146.06 473.58,-156.43 478.35,-146.97 471.41,-146.06"/>
</g>
<!-- Node12&#45;&gt;Node4 -->
<g id="edge13" class="edge">
<title>Node12&#45;&gt;Node4</title>
<path fill="none" stroke="midnightblue" d="M735.98,-155C784.19,-143.62 843.25,-129.68 889.84,-118.68"/>
<polygon fill="midnightblue" stroke="midnightblue" points="735.11,-151.61 726.18,-157.31 736.72,-158.42 735.11,-151.61"/>
</g>
<!-- Node13 -->
<g id="node13" class="node">
<title>Node13</title>
<g id="a_node13"><a xlink:href="engine_2src_2_constraints_2_spring_8cpp.html" target="_top" xlink:title=" ">
<polygon fill="none" stroke="black" points="588,-78.5 588,-119.5 766,-119.5 766,-78.5 588,-78.5"/>
<text text-anchor="start" x="596" y="-107.5" font-family="Helvetica,sans-Serif" font-size="10.00">/home/runner/work/Simulatio</text>
<text text-anchor="start" x="596" y="-96.5" font-family="Helvetica,sans-Serif" font-size="10.00">/Simulatio/engine/src/Constraints</text>
<text text-anchor="middle" x="677" y="-85.5" font-family="Helvetica,sans-Serif" font-size="10.00">/Spring.cpp</text>
</a>
</g>
</g>
<!-- Node12&#45;&gt;Node13 -->
<g id="edge14" class="edge">
<title>Node12&#45;&gt;Node13</title>
<path fill="none" stroke="midnightblue" d="M658.49,-146.88C662.11,-137.72 666.01,-127.83 669.3,-119.51"/>
<polygon fill="midnightblue" stroke="midnightblue" points="655.14,-145.84 654.73,-156.43 661.65,-148.41 655.14,-145.84"/>
</g>
<!-- Node15&#45;&gt;Node1 -->
<g id="edge19" class="edge">
<title>Node15&#45;&gt;Node1</title>
<path fill="none" stroke="midnightblue" d="M1328.68,-359.29C1343.8,-369.44 1360.16,-380.94 1372.92,-390.43"/>
<polygon fill="midnightblue" stroke="midnightblue" points="1330.22,-356.12 1319.96,-353.51 1326.35,-361.95 1330.22,-356.12"/>
</g>
<!-- Node15&#45;&gt;Node2 -->
<g id="edge18" class="edge">
<title>Node15&#45;&gt;Node2</title>
<path fill="none" stroke="midnightblue" d="M1196.97,-319.61C1092.1,-305.01 919.51,-280.99 819.14,-267.02"/>
<polygon fill="midnightblue" stroke="midnightblue" points="1196.51,-323.08 1206.9,-320.99 1197.48,-316.14 1196.51,-323.08"/>
</g>
<!-- Node15&#45;&gt;Node4 -->
<g id="edge28" class="edge">
<title>Node15&#45;&gt;Node4</title>
<path fill="none" stroke="midnightblue" d="M1261.59,-304.4C1254.66,-295.7 1247.51,-285.8 1242,-276 1214.08,-226.35 1239.58,-193.83 1197,-156 1174.95,-136.41 1104.94,-121.07 1048.26,-111.43"/>
<polygon fill="midnightblue" stroke="midnightblue" points="1259.05,-306.82 1268.1,-312.33 1264.45,-302.38 1259.05,-306.82"/>
</g>
<!-- Node15&#45;&gt;Node16 -->
<g id="edge20" class="edge">
<title>Node15&#45;&gt;Node16</title>
<path fill="none" stroke="midnightblue" d="M1225.12,-308.75C1197.26,-298.11 1164.63,-285.65 1138.07,-275.51"/>
<polygon fill="midnightblue" stroke="midnightblue" points="1224.16,-312.13 1234.75,-312.43 1226.66,-305.59 1224.16,-312.13"/>
</g>
<!-- Node15&#45;&gt;Node18 -->
<g id="edge23" class="edge">
<title>Node15&#45;&gt;Node18</title>
<path fill="none" stroke="midnightblue" d="M1365.45,-309.72C1404.12,-298.87 1450.18,-285.96 1487.45,-275.51"/>
<polygon fill="midnightblue" stroke="midnightblue" points="1364.47,-306.36 1355.79,-312.43 1366.36,-313.1 1364.47,-306.36"/>
</g>
<!-- Node15&#45;&gt;Node19 -->
<g id="edge27" class="edge">
<title>Node15&#45;&gt;Node19</title>
<path fill="none" stroke="midnightblue" d="M1263.84,-303.75C1250.8,-283.46 1239.15,-255.92 1252,-234 1261.46,-217.86 1277.45,-206.03 1293.91,-197.51"/>
<polygon fill="midnightblue" stroke="midnightblue" points="1261.11,-305.97 1269.65,-312.24 1266.89,-302.01 1261.11,-305.97"/>
</g>
<!-- Node21 -->
<g id="node21" class="node">
<title>Node21</title>
<g id="a_node21"><a xlink:href="_polygon_8cpp.html" target="_top" xlink:title=" ">
<polygon fill="none" stroke="black" points="1260.5,-234.5 1260.5,-275.5 1421.5,-275.5 1421.5,-234.5 1260.5,-234.5"/>
<text text-anchor="start" x="1268.5" y="-263.5" font-family="Helvetica,sans-Serif" font-size="10.00">/home/runner/work/Simulatio</text>
<text text-anchor="start" x="1268.5" y="-252.5" font-family="Helvetica,sans-Serif" font-size="10.00">/Simulatio/engine/src/Corpses</text>
<text text-anchor="middle" x="1341" y="-241.5" font-family="Helvetica,sans-Serif" font-size="10.00">/Polygon.cpp</text>
</a>
</g>
</g>
<!-- Node15&#45;&gt;Node21 -->
<g id="edge29" class="edge">
<title>Node15&#45;&gt;Node21</title>
<path fill="none" stroke="midnightblue" d="M1306.23,-304.05C1313.09,-294.57 1320.6,-284.18 1326.88,-275.51"/>
<polygon fill="midnightblue" stroke="midnightblue" points="1303.19,-302.27 1300.16,-312.43 1308.86,-306.38 1303.19,-302.27"/>
</g>
<!-- Node16&#45;&gt;Node4 -->
<g id="edge21" class="edge">
<title>Node16&#45;&gt;Node4</title>
<path fill="none" stroke="midnightblue" d="M1041.97,-228.72C1029.72,-220.2 1017.29,-209.81 1008,-198 989.43,-174.39 978.65,-140.81 973.3,-119.73"/>
<polygon fill="midnightblue" stroke="midnightblue" points="1040.11,-231.69 1050.38,-234.32 1043.99,-225.86 1040.11,-231.69"/>
</g>
<!-- Node17 -->
<g id="node17" class="node">
<title>Node17</title>
<g id="a_node17"><a xlink:href="_collision_8cpp.html" target="_top" xlink:title=" ">
<polygon fill="none" stroke="black" points="1016.5,-156.5 1016.5,-197.5 1187.5,-197.5 1187.5,-156.5 1016.5,-156.5"/>
<text text-anchor="start" x="1024.5" y="-185.5" font-family="Helvetica,sans-Serif" font-size="10.00">/home/runner/work/Simulatio</text>
<text text-anchor="start" x="1024.5" y="-174.5" font-family="Helvetica,sans-Serif" font-size="10.00">/Simulatio/engine/src/Geometry</text>
<text text-anchor="middle" x="1102" y="-163.5" font-family="Helvetica,sans-Serif" font-size="10.00">/Collision.cpp</text>
</a>
</g>
</g>
<!-- Node16&#45;&gt;Node17 -->
<g id="edge22" class="edge">
<title>Node16&#45;&gt;Node17</title>
<path fill="none" stroke="midnightblue" d="M1092.8,-224.59C1094.6,-215.51 1096.52,-205.74 1098.15,-197.51"/>
<polygon fill="midnightblue" stroke="midnightblue" points="1089.37,-223.94 1090.86,-234.43 1096.23,-225.3 1089.37,-223.94"/>
</g>
<!-- Node18&#45;&gt;Node19 -->
<g id="edge24" class="edge">
<title>Node18&#45;&gt;Node19</title>
<path fill="none" stroke="midnightblue" d="M1494.66,-230.89C1465.88,-220.22 1432.09,-207.69 1404.61,-197.51"/>
<polygon fill="midnightblue" stroke="midnightblue" points="1493.61,-234.23 1504.21,-234.43 1496.05,-227.67 1493.61,-234.23"/>
</g>
<!-- Node20 -->
<g id="node20" class="node">
<title>Node20</title>
<g id="a_node20"><a xlink:href="_quad_node_8cpp.html" target="_top" xlink:title=" ">
<polygon fill="none" stroke="black" points="1464,-156.5 1464,-197.5 1636,-197.5 1636,-156.5 1464,-156.5"/>
<text text-anchor="start" x="1472" y="-185.5" font-family="Helvetica,sans-Serif" font-size="10.00">/home/runner/work/Simulatio</text>
<text text-anchor="start" x="1472" y="-174.5" font-family="Helvetica,sans-Serif" font-size="10.00">/Simulatio/engine/src/Structures</text>
<text text-anchor="middle" x="1550" y="-163.5" font-family="Helvetica,sans-Serif" font-size="10.00">/QuadNode.cpp</text>
</a>
</g>
</g>
<!-- Node18&#45;&gt;Node20 -->
<g id="edge26" class="edge">
<title>Node18&#45;&gt;Node20</title>
<path fill="none" stroke="midnightblue" d="M1554.26,-224.3C1553.44,-215.3 1552.55,-205.65 1551.8,-197.51"/>
<polygon fill="midnightblue" stroke="midnightblue" points="1550.79,-224.79 1555.2,-234.43 1557.77,-224.15 1550.79,-224.79"/>
</g>
<!-- Node19&#45;&gt;Node4 -->
<g id="edge25" class="edge">
<title>Node19&#45;&gt;Node4</title>
<path fill="none" stroke="midnightblue" d="M1262.83,-158.3C1197.9,-145.42 1110.75,-128.13 1048.26,-115.73"/>
<polygon fill="midnightblue" stroke="midnightblue" points="1262.15,-161.74 1272.64,-160.25 1263.51,-154.87 1262.15,-161.74"/>
</g>
</g>
</svg>
