<?xml version="1.0" encoding="UTF-8" standalone="no"?>
<!DOCTYPE svg PUBLIC "-//W3C//DTD SVG 1.1//EN"
 "http://www.w3.org/Graphics/SVG/1.1/DTD/svg11.dtd">
<!-- Generated by graphviz version 2.43.0 (0)
 -->
<!-- Title: /home/runner/work/Simulatio/Simulatio/include/Corpses/Circle.hpp Pages: 1 -->
<svg width="1994pt" height="518pt"
 viewBox="0.00 0.00 1993.50 518.00" xmlns="http://www.w3.org/2000/svg" xmlns:xlink="http://www.w3.org/1999/xlink">
<g id="graph0" class="graph" transform="scale(1 1) rotate(0) translate(4 514)">
<title>/home/runner/work/Simulatio/Simulatio/include/Corpses/Circle.hpp</title>
<!-- Node1 -->
<g id="node1" class="node">
<title>Node1</title>
<g id="a_node1"><a xlink:title=" ">
<polygon fill="#bfbfbf" stroke="black" points="1312.5,-468.5 1312.5,-509.5 1470.5,-509.5 1470.5,-468.5 1312.5,-468.5"/>
<text text-anchor="start" x="1320.5" y="-497.5" font-family="Helvetica,sans-Serif" font-size="10.00">/home/runner/work/Simulatio</text>
<text text-anchor="start" x="1320.5" y="-486.5" font-family="Helvetica,sans-Serif" font-size="10.00">/Simulatio/include/Corpses</text>
<text text-anchor="middle" x="1391.5" y="-475.5" font-family="Helvetica,sans-Serif" font-size="10.00">/Circle.hpp</text>
</a>
</g>
</g>
<!-- Node2 -->
<g id="node2" class="node">
<title>Node2</title>
<g id="a_node2"><a xlink:href="_constraint_8hpp.html" target="_top" xlink:title=" ">
<polygon fill="none" stroke="black" points="668,-312.5 668,-353.5 831,-353.5 831,-312.5 668,-312.5"/>
<text text-anchor="start" x="676" y="-341.5" font-family="Helvetica,sans-Serif" font-size="10.00">/home/runner/work/Simulatio</text>
<text text-anchor="start" x="676" y="-330.5" font-family="Helvetica,sans-Serif" font-size="10.00">/Simulatio/include/Constraints</text>
<text text-anchor="middle" x="749.5" y="-319.5" font-family="Helvetica,sans-Serif" font-size="10.00">/Constraint.hpp</text>
</a>
</g>
</g>
<!-- Node1&#45;&gt;Node2 -->
<g id="edge1" class="edge">
<title>Node1&#45;&gt;Node2</title>
<path fill="none" stroke="midnightblue" d="M1302.19,-472.77C1244.41,-462.44 1167.7,-447.82 1100.5,-432 999.35,-408.19 883.5,-374.59 813.46,-353.57"/>
<polygon fill="midnightblue" stroke="midnightblue" points="1301.93,-476.28 1312.39,-474.59 1303.16,-469.39 1301.93,-476.28"/>
</g>
<!-- Node4 -->
<g id="node4" class="node">
<title>Node4</title>
<g id="a_node4"><a xlink:href="_system_8hpp.html" target="_top" xlink:title=" ">
<polygon fill="none" stroke="black" points="870.5,-156.5 870.5,-197.5 1028.5,-197.5 1028.5,-156.5 870.5,-156.5"/>
<text text-anchor="start" x="878.5" y="-185.5" font-family="Helvetica,sans-Serif" font-size="10.00">/home/runner/work/Simulatio</text>
<text text-anchor="start" x="878.5" y="-174.5" font-family="Helvetica,sans-Serif" font-size="10.00">/Simulatio/include/Structures</text>
<text text-anchor="middle" x="949.5" y="-163.5" font-family="Helvetica,sans-Serif" font-size="10.00">/System.hpp</text>
</a>
</g>
</g>
<!-- Node1&#45;&gt;Node4 -->
<g id="edge41" class="edge">
<title>Node1&#45;&gt;Node4</title>
<path fill="none" stroke="midnightblue" d="M1480.61,-483.62C1568.67,-473.99 1699.13,-444.26 1762.5,-354 1793.14,-310.35 1798.89,-272.99 1762.5,-234 1713.11,-181.09 1223.25,-176.99 1028.62,-177.47"/>
<polygon fill="midnightblue" stroke="midnightblue" points="1480.21,-480.15 1470.62,-484.65 1480.93,-487.11 1480.21,-480.15"/>
</g>
<!-- Node20 -->
<g id="node20" class="node">
<title>Node20</title>
<g id="a_node20"><a xlink:href="_polygon_8hpp.html" target="_top" xlink:title=" ">
<polygon fill="none" stroke="black" points="1205.5,-390.5 1205.5,-431.5 1363.5,-431.5 1363.5,-390.5 1205.5,-390.5"/>
<text text-anchor="start" x="1213.5" y="-419.5" font-family="Helvetica,sans-Serif" font-size="10.00">/home/runner/work/Simulatio</text>
<text text-anchor="start" x="1213.5" y="-408.5" font-family="Helvetica,sans-Serif" font-size="10.00">/Simulatio/include/Corpses</text>
<text text-anchor="middle" x="1284.5" y="-397.5" font-family="Helvetica,sans-Serif" font-size="10.00">/Polygon.hpp</text>
</a>
</g>
</g>
<!-- Node1&#45;&gt;Node20 -->
<g id="edge22" class="edge">
<title>Node1&#45;&gt;Node20</title>
<path fill="none" stroke="midnightblue" d="M1349.38,-462.64C1334.52,-452.49 1318.47,-440.98 1305.98,-431.51"/>
<polygon fill="midnightblue" stroke="midnightblue" points="1347.71,-465.73 1357.96,-468.43 1351.63,-459.93 1347.71,-465.73"/>
</g>
<!-- Node21 -->
<g id="node21" class="node">
<title>Node21</title>
<g id="a_node21"><a xlink:href="_collision_8hpp.html" target="_top" xlink:title=" ">
<polygon fill="none" stroke="black" points="923.5,-312.5 923.5,-353.5 1081.5,-353.5 1081.5,-312.5 923.5,-312.5"/>
<text text-anchor="start" x="931.5" y="-341.5" font-family="Helvetica,sans-Serif" font-size="10.00">/home/runner/work/Simulatio</text>
<text text-anchor="start" x="931.5" y="-330.5" font-family="Helvetica,sans-Serif" font-size="10.00">/Simulatio/include/Geometry</text>
<text text-anchor="middle" x="1002.5" y="-319.5" font-family="Helvetica,sans-Serif" font-size="10.00">/Collision.hpp</text>
</a>
</g>
</g>
<!-- Node1&#45;&gt;Node21 -->
<g id="edge37" class="edge">
<title>Node1&#45;&gt;Node21</title>
<path fill="none" stroke="midnightblue" d="M1302.29,-466.17C1268.66,-456.97 1230.37,-445.28 1196.5,-432 1138.36,-409.2 1074.31,-374.92 1036.29,-353.54"/>
<polygon fill="midnightblue" stroke="midnightblue" points="1301.53,-469.6 1312.1,-468.83 1303.36,-462.84 1301.53,-469.6"/>
</g>
<!-- Node23 -->
<g id="node23" class="node">
<title>Node23</title>
<g id="a_node23"><a xlink:href="_old_quadtree_8hpp.html" target="_top" xlink:title=" ">
<polygon fill="none" stroke="black" points="1595.5,-312.5 1595.5,-353.5 1753.5,-353.5 1753.5,-312.5 1595.5,-312.5"/>
<text text-anchor="start" x="1603.5" y="-341.5" font-family="Helvetica,sans-Serif" font-size="10.00">/home/runner/work/Simulatio</text>
<text text-anchor="start" x="1603.5" y="-330.5" font-family="Helvetica,sans-Serif" font-size="10.00">/Simulatio/include/Structures</text>
<text text-anchor="middle" x="1674.5" y="-319.5" font-family="Helvetica,sans-Serif" font-size="10.00">/OldQuadtree.hpp</text>
</a>
</g>
</g>
<!-- Node1&#45;&gt;Node23 -->
<g id="edge38" class="edge">
<title>Node1&#45;&gt;Node23</title>
<path fill="none" stroke="midnightblue" d="M1436.32,-463.61C1492.31,-433.14 1586.99,-381.62 1638.5,-353.59"/>
<polygon fill="midnightblue" stroke="midnightblue" points="1434.45,-460.64 1427.34,-468.5 1437.8,-466.79 1434.45,-460.64"/>
</g>
<!-- Node25 -->
<g id="node25" class="node">
<title>Node25</title>
<g id="a_node25"><a xlink:href="_quad_node_8hpp.html" target="_top" xlink:title=" ">
<polygon fill="none" stroke="black" points="1419.5,-312.5 1419.5,-353.5 1577.5,-353.5 1577.5,-312.5 1419.5,-312.5"/>
<text text-anchor="start" x="1427.5" y="-341.5" font-family="Helvetica,sans-Serif" font-size="10.00">/home/runner/work/Simulatio</text>
<text text-anchor="start" x="1427.5" y="-330.5" font-family="Helvetica,sans-Serif" font-size="10.00">/Simulatio/include/Structures</text>
<text text-anchor="middle" x="1498.5" y="-319.5" font-family="Helvetica,sans-Serif" font-size="10.00">/QuadNode.hpp</text>
</a>
</g>
</g>
<!-- Node1&#45;&gt;Node25 -->
<g id="edge39" class="edge">
<title>Node1&#45;&gt;Node25</title>
<path fill="none" stroke="midnightblue" d="M1410.98,-459.96C1432.31,-429.26 1465.97,-380.82 1484.72,-353.83"/>
<polygon fill="midnightblue" stroke="midnightblue" points="1407.88,-458.29 1405.05,-468.5 1413.63,-462.28 1407.88,-458.29"/>
</g>
<!-- Node26 -->
<g id="node26" class="node">
<title>Node26</title>
<g id="a_node26"><a xlink:href="_quadtree_8hpp.html" target="_top" xlink:title=" ">
<polygon fill="none" stroke="black" points="1243.5,-234.5 1243.5,-275.5 1401.5,-275.5 1401.5,-234.5 1243.5,-234.5"/>
<text text-anchor="start" x="1251.5" y="-263.5" font-family="Helvetica,sans-Serif" font-size="10.00">/home/runner/work/Simulatio</text>
<text text-anchor="start" x="1251.5" y="-252.5" font-family="Helvetica,sans-Serif" font-size="10.00">/Simulatio/include/Structures</text>
<text text-anchor="middle" x="1322.5" y="-241.5" font-family="Helvetica,sans-Serif" font-size="10.00">/Quadtree.hpp</text>
</a>
</g>
</g>
<!-- Node1&#45;&gt;Node26 -->
<g id="edge40" class="edge">
<title>Node1&#45;&gt;Node26</title>
<path fill="none" stroke="midnightblue" d="M1387.19,-458.26C1381.44,-422.65 1369.69,-361.58 1350.5,-312 1345.67,-299.53 1339.02,-286.12 1333.41,-275.54"/>
<polygon fill="midnightblue" stroke="midnightblue" points="1383.78,-459.12 1388.79,-468.46 1390.7,-458.04 1383.78,-459.12"/>
</g>
<!-- Node29 -->
<g id="node29" class="node">
<title>Node29</title>
<g id="a_node29"><a xlink:href="_circle_8cpp.html" target="_top" xlink:title=" ">
<polygon fill="none" stroke="black" points="1809.5,-396 1809.5,-426 1985.5,-426 1985.5,-396 1809.5,-396"/>
<text text-anchor="start" x="1817.5" y="-414" font-family="Helvetica,sans-Serif" font-size="10.00">/home/runner/work/Simulatio</text>
<text text-anchor="middle" x="1897.5" y="-403" font-family="Helvetica,sans-Serif" font-size="10.00">/Simulatio/src/Corpses/Circle.cpp</text>
</a>
</g>
</g>
<!-- Node1&#45;&gt;Node29 -->
<g id="edge42" class="edge">
<title>Node1&#45;&gt;Node29</title>
<path fill="none" stroke="midnightblue" d="M1480.69,-477.09C1562.7,-466.72 1687.56,-450.05 1795.5,-432 1806.27,-430.2 1817.64,-428.13 1828.74,-426.03"/>
<polygon fill="midnightblue" stroke="midnightblue" points="1480.14,-473.63 1470.66,-478.36 1481.02,-480.58 1480.14,-473.63"/>
</g>
<!-- Node3 -->
<g id="node3" class="node">
<title>Node3</title>
<g id="a_node3"><a xlink:href="_link_8hpp.html" target="_top" xlink:title=" ">
<polygon fill="none" stroke="black" points="720,-234.5 720,-275.5 883,-275.5 883,-234.5 720,-234.5"/>
<text text-anchor="start" x="728" y="-263.5" font-family="Helvetica,sans-Serif" font-size="10.00">/home/runner/work/Simulatio</text>
<text text-anchor="start" x="728" y="-252.5" font-family="Helvetica,sans-Serif" font-size="10.00">/Simulatio/include/Constraints</text>
<text text-anchor="middle" x="801.5" y="-241.5" font-family="Helvetica,sans-Serif" font-size="10.00">/Link.hpp</text>
</a>
</g>
</g>
<!-- Node2&#45;&gt;Node3 -->
<g id="edge2" class="edge">
<title>Node2&#45;&gt;Node3</title>
<path fill="none" stroke="midnightblue" d="M768.63,-304.05C775.11,-294.57 782.22,-284.18 788.15,-275.51"/>
<polygon fill="midnightblue" stroke="midnightblue" points="765.65,-302.2 762.89,-312.43 771.43,-306.15 765.65,-302.2"/>
</g>
<!-- Node2&#45;&gt;Node4 -->
<g id="edge20" class="edge">
<title>Node2&#45;&gt;Node4</title>
<path fill="none" stroke="midnightblue" d="M836.16,-308.76C856.12,-300.63 876.25,-289.93 892.5,-276 917.46,-254.61 934.11,-219.42 942.67,-197.54"/>
<polygon fill="midnightblue" stroke="midnightblue" points="834.75,-305.55 826.7,-312.43 837.29,-312.07 834.75,-305.55"/>
</g>
<!-- Node13 -->
<g id="node13" class="node">
<title>Node13</title>
<g id="a_node13"><a xlink:href="_loose_8hpp.html" target="_top" xlink:title=" ">
<polygon fill="none" stroke="black" points="0,-234.5 0,-275.5 163,-275.5 163,-234.5 0,-234.5"/>
<text text-anchor="start" x="8" y="-263.5" font-family="Helvetica,sans-Serif" font-size="10.00">/home/runner/work/Simulatio</text>
<text text-anchor="start" x="8" y="-252.5" font-family="Helvetica,sans-Serif" font-size="10.00">/Simulatio/include/Constraints</text>
<text text-anchor="middle" x="81.5" y="-241.5" font-family="Helvetica,sans-Serif" font-size="10.00">/Loose.hpp</text>
</a>
</g>
</g>
<!-- Node2&#45;&gt;Node13 -->
<g id="edge12" class="edge">
<title>Node2&#45;&gt;Node13</title>
<path fill="none" stroke="midnightblue" d="M657.62,-326.57C543.23,-319.02 342.09,-303.11 171.5,-276 168.81,-275.57 166.09,-275.11 163.34,-274.63"/>
<polygon fill="midnightblue" stroke="midnightblue" points="657.53,-330.07 667.74,-327.23 657.99,-323.09 657.53,-330.07"/>
</g>
<!-- Node15 -->
<g id="node15" class="node">
<title>Node15</title>
<g id="a_node15"><a xlink:href="_slider_8hpp.html" target="_top" xlink:title=" ">
<polygon fill="none" stroke="black" points="181,-234.5 181,-275.5 344,-275.5 344,-234.5 181,-234.5"/>
<text text-anchor="start" x="189" y="-263.5" font-family="Helvetica,sans-Serif" font-size="10.00">/home/runner/work/Simulatio</text>
<text text-anchor="start" x="189" y="-252.5" font-family="Helvetica,sans-Serif" font-size="10.00">/Simulatio/include/Constraints</text>
<text text-anchor="middle" x="262.5" y="-241.5" font-family="Helvetica,sans-Serif" font-size="10.00">/Slider.hpp</text>
</a>
</g>
</g>
<!-- Node2&#45;&gt;Node15 -->
<g id="edge14" class="edge">
<title>Node2&#45;&gt;Node15</title>
<path fill="none" stroke="midnightblue" d="M657.72,-321.13C577.04,-311.08 456.6,-294.88 352.5,-276 349.82,-275.51 347.1,-275.01 344.36,-274.48"/>
<polygon fill="midnightblue" stroke="midnightblue" points="657.49,-324.63 667.84,-322.39 658.35,-317.68 657.49,-324.63"/>
</g>
<!-- Node17 -->
<g id="node17" class="node">
<title>Node17</title>
<g id="a_node17"><a xlink:href="_spring_8hpp.html" target="_top" xlink:title=" ">
<polygon fill="none" stroke="black" points="362,-234.5 362,-275.5 525,-275.5 525,-234.5 362,-234.5"/>
<text text-anchor="start" x="370" y="-263.5" font-family="Helvetica,sans-Serif" font-size="10.00">/home/runner/work/Simulatio</text>
<text text-anchor="start" x="370" y="-252.5" font-family="Helvetica,sans-Serif" font-size="10.00">/Simulatio/include/Constraints</text>
<text text-anchor="middle" x="443.5" y="-241.5" font-family="Helvetica,sans-Serif" font-size="10.00">/Spring.hpp</text>
</a>
</g>
</g>
<!-- Node2&#45;&gt;Node17 -->
<g id="edge17" class="edge">
<title>Node2&#45;&gt;Node17</title>
<path fill="none" stroke="midnightblue" d="M660.9,-309.99C617.01,-299.09 564.47,-286.04 522.04,-275.51"/>
<polygon fill="midnightblue" stroke="midnightblue" points="660.15,-313.41 670.7,-312.43 661.84,-306.62 660.15,-313.41"/>
</g>
<!-- Node19 -->
<g id="node19" class="node">
<title>Node19</title>
<g id="a_node19"><a xlink:href="_constraint_8cpp.html" target="_top" xlink:title=" ">
<polygon fill="none" stroke="black" points="543.5,-234.5 543.5,-275.5 701.5,-275.5 701.5,-234.5 543.5,-234.5"/>
<text text-anchor="start" x="551.5" y="-263.5" font-family="Helvetica,sans-Serif" font-size="10.00">/home/runner/work/Simulatio</text>
<text text-anchor="start" x="551.5" y="-252.5" font-family="Helvetica,sans-Serif" font-size="10.00">/Simulatio/src/Constraints</text>
<text text-anchor="middle" x="622.5" y="-241.5" font-family="Helvetica,sans-Serif" font-size="10.00">/Constraint.cpp</text>
</a>
</g>
</g>
<!-- Node2&#45;&gt;Node19 -->
<g id="edge21" class="edge">
<title>Node2&#45;&gt;Node19</title>
<path fill="none" stroke="midnightblue" d="M708.06,-307.2C690.88,-296.92 671.23,-285.16 655.09,-275.51"/>
<polygon fill="midnightblue" stroke="midnightblue" points="706.42,-310.3 716.79,-312.43 710.01,-304.29 706.42,-310.3"/>
</g>
<!-- Node3&#45;&gt;Node4 -->
<g id="edge3" class="edge">
<title>Node3&#45;&gt;Node4</title>
<path fill="none" stroke="midnightblue" d="M848.69,-229.77C868.98,-219.35 892.37,-207.34 911.52,-197.51"/>
<polygon fill="midnightblue" stroke="midnightblue" points="846.91,-226.75 839.61,-234.43 850.11,-232.97 846.91,-226.75"/>
</g>
<!-- Node12 -->
<g id="node12" class="node">
<title>Node12</title>
<g id="a_node12"><a xlink:href="_link_8cpp.html" target="_top" xlink:title=" ">
<polygon fill="none" stroke="black" points="694.5,-156.5 694.5,-197.5 852.5,-197.5 852.5,-156.5 694.5,-156.5"/>
<text text-anchor="start" x="702.5" y="-185.5" font-family="Helvetica,sans-Serif" font-size="10.00">/home/runner/work/Simulatio</text>
<text text-anchor="start" x="702.5" y="-174.5" font-family="Helvetica,sans-Serif" font-size="10.00">/Simulatio/src/Constraints</text>
<text text-anchor="middle" x="773.5" y="-163.5" font-family="Helvetica,sans-Serif" font-size="10.00">/Link.cpp</text>
</a>
</g>
</g>
<!-- Node3&#45;&gt;Node12 -->
<g id="edge11" class="edge">
<title>Node3&#45;&gt;Node12</title>
<path fill="none" stroke="midnightblue" d="M790.77,-224.88C787.4,-215.72 783.75,-205.83 780.69,-197.51"/>
<polygon fill="midnightblue" stroke="midnightblue" points="787.55,-226.25 794.29,-234.43 794.12,-223.83 787.55,-226.25"/>
</g>
<!-- Node5 -->
<g id="node5" class="node">
<title>Node5</title>
<g id="a_node5"><a xlink:href="_renderer_8hpp.html" target="_top" xlink:title=" ">
<polygon fill="none" stroke="black" points="782.5,-78.5 782.5,-119.5 940.5,-119.5 940.5,-78.5 782.5,-78.5"/>
<text text-anchor="start" x="790.5" y="-107.5" font-family="Helvetica,sans-Serif" font-size="10.00">/home/runner/work/Simulatio</text>
<text text-anchor="start" x="790.5" y="-96.5" font-family="Helvetica,sans-Serif" font-size="10.00">/Simulatio/include/Renderer</text>
<text text-anchor="middle" x="861.5" y="-85.5" font-family="Helvetica,sans-Serif" font-size="10.00">/Renderer.hpp</text>
</a>
</g>
</g>
<!-- Node4&#45;&gt;Node5 -->
<g id="edge4" class="edge">
<title>Node4&#45;&gt;Node5</title>
<path fill="none" stroke="midnightblue" d="M919.14,-149.78C907.63,-139.84 894.75,-128.72 884.09,-119.51"/>
<polygon fill="midnightblue" stroke="midnightblue" points="916.98,-152.54 926.84,-156.43 921.56,-147.24 916.98,-152.54"/>
</g>
<!-- Node11 -->
<g id="node11" class="node">
<title>Node11</title>
<g id="a_node11"><a xlink:href="_system_8cpp.html" target="_top" xlink:title=" ">
<polygon fill="none" stroke="black" points="958.5,-78.5 958.5,-119.5 1116.5,-119.5 1116.5,-78.5 958.5,-78.5"/>
<text text-anchor="start" x="966.5" y="-107.5" font-family="Helvetica,sans-Serif" font-size="10.00">/home/runner/work/Simulatio</text>
<text text-anchor="start" x="966.5" y="-96.5" font-family="Helvetica,sans-Serif" font-size="10.00">/Simulatio/src/Structures</text>
<text text-anchor="middle" x="1037.5" y="-85.5" font-family="Helvetica,sans-Serif" font-size="10.00">/System.cpp</text>
</a>
</g>
</g>
<!-- Node4&#45;&gt;Node11 -->
<g id="edge10" class="edge">
<title>Node4&#45;&gt;Node11</title>
<path fill="none" stroke="midnightblue" d="M979.86,-149.78C991.37,-139.84 1004.25,-128.72 1014.91,-119.51"/>
<polygon fill="midnightblue" stroke="midnightblue" points="977.44,-147.24 972.16,-156.43 982.02,-152.54 977.44,-147.24"/>
</g>
<!-- Node6 -->
<g id="node6" class="node">
<title>Node6</title>
<g id="a_node6"><a xlink:href="_draw_8cpp.html" target="_top" xlink:title=" ">
<polygon fill="none" stroke="black" points="430.5,-0.5 430.5,-41.5 588.5,-41.5 588.5,-0.5 430.5,-0.5"/>
<text text-anchor="start" x="438.5" y="-29.5" font-family="Helvetica,sans-Serif" font-size="10.00">/home/runner/work/Simulatio</text>
<text text-anchor="start" x="438.5" y="-18.5" font-family="Helvetica,sans-Serif" font-size="10.00">/Simulatio/src/Renderer</text>
<text text-anchor="middle" x="509.5" y="-7.5" font-family="Helvetica,sans-Serif" font-size="10.00">/Draw.cpp</text>
</a>
</g>
</g>
<!-- Node5&#45;&gt;Node6 -->
<g id="edge5" class="edge">
<title>Node5&#45;&gt;Node6</title>
<path fill="none" stroke="midnightblue" d="M772.26,-79.41C721.08,-68.66 655.63,-54.77 597.5,-42 594.59,-41.36 591.63,-40.71 588.64,-40.04"/>
<polygon fill="midnightblue" stroke="midnightblue" points="771.8,-82.88 782.3,-81.51 773.24,-76.03 771.8,-82.88"/>
</g>
<!-- Node7 -->
<g id="node7" class="node">
<title>Node7</title>
<g id="a_node7"><a xlink:href="_event_8cpp.html" target="_top" xlink:title=" ">
<polygon fill="none" stroke="black" points="606.5,-0.5 606.5,-41.5 764.5,-41.5 764.5,-0.5 606.5,-0.5"/>
<text text-anchor="start" x="614.5" y="-29.5" font-family="Helvetica,sans-Serif" font-size="10.00">/home/runner/work/Simulatio</text>
<text text-anchor="start" x="614.5" y="-18.5" font-family="Helvetica,sans-Serif" font-size="10.00">/Simulatio/src/Renderer</text>
<text text-anchor="middle" x="685.5" y="-7.5" font-family="Helvetica,sans-Serif" font-size="10.00">/Event.cpp</text>
</a>
</g>
</g>
<!-- Node5&#45;&gt;Node7 -->
<g id="edge6" class="edge">
<title>Node5&#45;&gt;Node7</title>
<path fill="none" stroke="midnightblue" d="M806.68,-74.33C782.26,-63.78 753.85,-51.51 730.67,-41.51"/>
<polygon fill="midnightblue" stroke="midnightblue" points="805.61,-77.68 816.18,-78.43 808.38,-71.25 805.61,-77.68"/>
</g>
<!-- Node8 -->
<g id="node8" class="node">
<title>Node8</title>
<g id="a_node8"><a xlink:href="_gui_8cpp.html" target="_top" xlink:title=" ">
<polygon fill="none" stroke="black" points="782.5,-0.5 782.5,-41.5 940.5,-41.5 940.5,-0.5 782.5,-0.5"/>
<text text-anchor="start" x="790.5" y="-29.5" font-family="Helvetica,sans-Serif" font-size="10.00">/home/runner/work/Simulatio</text>
<text text-anchor="start" x="790.5" y="-18.5" font-family="Helvetica,sans-Serif" font-size="10.00">/Simulatio/src/Renderer</text>
<text text-anchor="middle" x="861.5" y="-7.5" font-family="Helvetica,sans-Serif" font-size="10.00">/Gui.cpp</text>
</a>
</g>
</g>
<!-- Node5&#45;&gt;Node8 -->
<g id="edge7" class="edge">
<title>Node5&#45;&gt;Node8</title>
<path fill="none" stroke="midnightblue" d="M861.5,-68.3C861.5,-59.3 861.5,-49.65 861.5,-41.51"/>
<polygon fill="midnightblue" stroke="midnightblue" points="858,-68.43 861.5,-78.43 865,-68.43 858,-68.43"/>
</g>
<!-- Node9 -->
<g id="node9" class="node">
<title>Node9</title>
<g id="a_node9"><a xlink:href="_renderer_8cpp.html" target="_top" xlink:title=" ">
<polygon fill="none" stroke="black" points="958.5,-0.5 958.5,-41.5 1116.5,-41.5 1116.5,-0.5 958.5,-0.5"/>
<text text-anchor="start" x="966.5" y="-29.5" font-family="Helvetica,sans-Serif" font-size="10.00">/home/runner/work/Simulatio</text>
<text text-anchor="start" x="966.5" y="-18.5" font-family="Helvetica,sans-Serif" font-size="10.00">/Simulatio/src/Renderer</text>
<text text-anchor="middle" x="1037.5" y="-7.5" font-family="Helvetica,sans-Serif" font-size="10.00">/Renderer.cpp</text>
</a>
</g>
</g>
<!-- Node5&#45;&gt;Node9 -->
<g id="edge8" class="edge">
<title>Node5&#45;&gt;Node9</title>
<path fill="none" stroke="midnightblue" d="M916.32,-74.33C940.74,-63.78 969.15,-51.51 992.33,-41.51"/>
<polygon fill="midnightblue" stroke="midnightblue" points="914.62,-71.25 906.82,-78.43 917.39,-77.68 914.62,-71.25"/>
</g>
<!-- Node10 -->
<g id="node10" class="node">
<title>Node10</title>
<g id="a_node10"><a xlink:href="main_8cpp.html" target="_top" xlink:title=" ">
<polygon fill="none" stroke="black" points="1134,-6 1134,-36 1293,-36 1293,-6 1134,-6"/>
<text text-anchor="start" x="1142" y="-24" font-family="Helvetica,sans-Serif" font-size="10.00">/home/runner/work/Simulatio</text>
<text text-anchor="middle" x="1213.5" y="-13" font-family="Helvetica,sans-Serif" font-size="10.00">/Simulatio/src/main/main.cpp</text>
</a>
</g>
</g>
<!-- Node5&#45;&gt;Node10 -->
<g id="edge9" class="edge">
<title>Node5&#45;&gt;Node10</title>
<path fill="none" stroke="midnightblue" d="M950.52,-77.8C1029.19,-60.95 1050.5,-58.19 1125.5,-42 1134.23,-40.12 1143.43,-38.08 1152.47,-36.05"/>
<polygon fill="midnightblue" stroke="midnightblue" points="949.68,-74.4 940.64,-79.93 951.15,-81.25 949.68,-74.4"/>
</g>
<!-- Node14 -->
<g id="node14" class="node">
<title>Node14</title>
<g id="a_node14"><a xlink:href="_loose_8cpp.html" target="_top" xlink:title=" ">
<polygon fill="none" stroke="black" points="2.5,-156.5 2.5,-197.5 160.5,-197.5 160.5,-156.5 2.5,-156.5"/>
<text text-anchor="start" x="10.5" y="-185.5" font-family="Helvetica,sans-Serif" font-size="10.00">/home/runner/work/Simulatio</text>
<text text-anchor="start" x="10.5" y="-174.5" font-family="Helvetica,sans-Serif" font-size="10.00">/Simulatio/src/Constraints</text>
<text text-anchor="middle" x="81.5" y="-163.5" font-family="Helvetica,sans-Serif" font-size="10.00">/Loose.cpp</text>
</a>
</g>
</g>
<!-- Node13&#45;&gt;Node14 -->
<g id="edge13" class="edge">
<title>Node13&#45;&gt;Node14</title>
<path fill="none" stroke="midnightblue" d="M81.5,-224.3C81.5,-215.3 81.5,-205.65 81.5,-197.51"/>
<polygon fill="midnightblue" stroke="midnightblue" points="78,-224.43 81.5,-234.43 85,-224.43 78,-224.43"/>
</g>
<!-- Node15&#45;&gt;Node4 -->
<g id="edge15" class="edge">
<title>Node15&#45;&gt;Node4</title>
<path fill="none" stroke="midnightblue" d="M354.43,-233.83C578.72,-202.17 640.45,-230.74 861.5,-198 864.44,-197.56 867.44,-197.08 870.45,-196.56"/>
<polygon fill="midnightblue" stroke="midnightblue" points="353.72,-230.39 344.32,-235.28 354.72,-237.32 353.72,-230.39"/>
</g>
<!-- Node16 -->
<g id="node16" class="node">
<title>Node16</title>
<g id="a_node16"><a xlink:href="_slider_8cpp.html" target="_top" xlink:title=" ">
<polygon fill="none" stroke="black" points="183.5,-156.5 183.5,-197.5 341.5,-197.5 341.5,-156.5 183.5,-156.5"/>
<text text-anchor="start" x="191.5" y="-185.5" font-family="Helvetica,sans-Serif" font-size="10.00">/home/runner/work/Simulatio</text>
<text text-anchor="start" x="191.5" y="-174.5" font-family="Helvetica,sans-Serif" font-size="10.00">/Simulatio/src/Constraints</text>
<text text-anchor="middle" x="262.5" y="-163.5" font-family="Helvetica,sans-Serif" font-size="10.00">/Slider.cpp</text>
</a>
</g>
</g>
<!-- Node15&#45;&gt;Node16 -->
<g id="edge16" class="edge">
<title>Node15&#45;&gt;Node16</title>
<path fill="none" stroke="midnightblue" d="M262.5,-224.3C262.5,-215.3 262.5,-205.65 262.5,-197.51"/>
<polygon fill="midnightblue" stroke="midnightblue" points="259,-224.43 262.5,-234.43 266,-224.43 259,-224.43"/>
</g>
<!-- Node17&#45;&gt;Node4 -->
<g id="edge18" class="edge">
<title>Node17&#45;&gt;Node4</title>
<path fill="none" stroke="midnightblue" d="M535.44,-233.95C680.56,-210.79 720.55,-221.7 861.5,-198 864.44,-197.51 867.42,-196.98 870.43,-196.42"/>
<polygon fill="midnightblue" stroke="midnightblue" points="534.58,-230.54 525.27,-235.6 535.7,-237.45 534.58,-230.54"/>
</g>
<!-- Node18 -->
<g id="node18" class="node">
<title>Node18</title>
<g id="a_node18"><a xlink:href="_spring_8cpp.html" target="_top" xlink:title=" ">
<polygon fill="none" stroke="black" points="364.5,-156.5 364.5,-197.5 522.5,-197.5 522.5,-156.5 364.5,-156.5"/>
<text text-anchor="start" x="372.5" y="-185.5" font-family="Helvetica,sans-Serif" font-size="10.00">/home/runner/work/Simulatio</text>
<text text-anchor="start" x="372.5" y="-174.5" font-family="Helvetica,sans-Serif" font-size="10.00">/Simulatio/src/Constraints</text>
<text text-anchor="middle" x="443.5" y="-163.5" font-family="Helvetica,sans-Serif" font-size="10.00">/Spring.cpp</text>
</a>
</g>
</g>
<!-- Node17&#45;&gt;Node18 -->
<g id="edge19" class="edge">
<title>Node17&#45;&gt;Node18</title>
<path fill="none" stroke="midnightblue" d="M443.5,-224.3C443.5,-215.3 443.5,-205.65 443.5,-197.51"/>
<polygon fill="midnightblue" stroke="midnightblue" points="440,-224.43 443.5,-234.43 447,-224.43 440,-224.43"/>
</g>
<!-- Node20&#45;&gt;Node1 -->
<g id="edge24" class="edge">
<title>Node20&#45;&gt;Node1</title>
<path fill="none" stroke="midnightblue" d="M1326.51,-437.29C1341.37,-447.44 1357.43,-458.94 1369.93,-468.43"/>
<polygon fill="midnightblue" stroke="midnightblue" points="1328.19,-434.2 1317.94,-431.51 1324.27,-440 1328.19,-434.2"/>
</g>
<!-- Node20&#45;&gt;Node2 -->
<g id="edge23" class="edge">
<title>Node20&#45;&gt;Node2</title>
<path fill="none" stroke="midnightblue" d="M1195.35,-397.34C1093.9,-382.92 929.59,-359.58 831.31,-345.62"/>
<polygon fill="midnightblue" stroke="midnightblue" points="1194.88,-400.8 1205.27,-398.75 1195.86,-393.87 1194.88,-400.8"/>
</g>
<!-- Node20&#45;&gt;Node4 -->
<g id="edge35" class="edge">
<title>Node20&#45;&gt;Node4</title>
<path fill="none" stroke="midnightblue" d="M1195.57,-397.91C1169.7,-389.8 1144.21,-376.33 1128.5,-354 1097.54,-309.99 1176.87,-276.98 1144.5,-234 1130.12,-214.9 1076.15,-200.31 1028.63,-190.82"/>
<polygon fill="midnightblue" stroke="midnightblue" points="1194.9,-401.36 1205.48,-400.76 1196.84,-394.63 1194.9,-401.36"/>
</g>
<!-- Node20&#45;&gt;Node21 -->
<g id="edge25" class="edge">
<title>Node20&#45;&gt;Node21</title>
<path fill="none" stroke="midnightblue" d="M1202.08,-387.79C1161.79,-376.93 1113.73,-363.98 1074.88,-353.51"/>
<polygon fill="midnightblue" stroke="midnightblue" points="1201.31,-391.21 1211.88,-390.43 1203.13,-384.45 1201.31,-391.21"/>
</g>
<!-- Node20&#45;&gt;Node23 -->
<g id="edge28" class="edge">
<title>Node20&#45;&gt;Node23</title>
<path fill="none" stroke="midnightblue" d="M1373.38,-394.49C1433.63,-383.73 1515.01,-368.74 1586.5,-354 1589.42,-353.4 1592.38,-352.78 1595.38,-352.14"/>
<polygon fill="midnightblue" stroke="midnightblue" points="1372.75,-391.04 1363.52,-396.24 1373.98,-397.94 1372.75,-391.04"/>
</g>
<!-- Node20&#45;&gt;Node25 -->
<g id="edge30" class="edge">
<title>Node20&#45;&gt;Node25</title>
<path fill="none" stroke="midnightblue" d="M1349.19,-387.03C1379.31,-376.33 1414.77,-363.73 1443.58,-353.51"/>
<polygon fill="midnightblue" stroke="midnightblue" points="1347.86,-383.78 1339.61,-390.43 1350.21,-390.38 1347.86,-383.78"/>
</g>
<!-- Node20&#45;&gt;Node26 -->
<g id="edge34" class="edge">
<title>Node20&#45;&gt;Node26</title>
<path fill="none" stroke="midnightblue" d="M1315.54,-383.16C1323.22,-374.69 1330.41,-364.72 1334.5,-354 1344.34,-328.22 1337.05,-296.1 1330.29,-275.82"/>
<polygon fill="midnightblue" stroke="midnightblue" points="1312.88,-380.88 1308.43,-390.49 1317.91,-385.75 1312.88,-380.88"/>
</g>
<!-- Node28 -->
<g id="node28" class="node">
<title>Node28</title>
<g id="a_node28"><a xlink:href="_polygon_8cpp.html" target="_top" xlink:title=" ">
<polygon fill="none" stroke="black" points="1137.5,-318 1137.5,-348 1325.5,-348 1325.5,-318 1137.5,-318"/>
<text text-anchor="start" x="1145.5" y="-336" font-family="Helvetica,sans-Serif" font-size="10.00">/home/runner/work/Simulatio</text>
<text text-anchor="middle" x="1231.5" y="-325" font-family="Helvetica,sans-Serif" font-size="10.00">/Simulatio/src/Corpses/Polygon.cpp</text>
</a>
</g>
</g>
<!-- Node20&#45;&gt;Node28 -->
<g id="edge36" class="edge">
<title>Node20&#45;&gt;Node28</title>
<path fill="none" stroke="midnightblue" d="M1264.96,-381.98C1256.95,-370.5 1248.04,-357.71 1241.42,-348.23"/>
<polygon fill="midnightblue" stroke="midnightblue" points="1262.26,-384.23 1270.85,-390.43 1268,-380.22 1262.26,-384.23"/>
</g>
<!-- Node21&#45;&gt;Node4 -->
<g id="edge26" class="edge">
<title>Node21&#45;&gt;Node4</title>
<path fill="none" stroke="midnightblue" d="M982.77,-303.89C977.46,-295.26 972.18,-285.53 968.5,-276 958.45,-249.97 953.52,-217.92 951.25,-197.72"/>
<polygon fill="midnightblue" stroke="midnightblue" points="979.9,-305.89 988.24,-312.42 985.79,-302.11 979.9,-305.89"/>
</g>
<!-- Node22 -->
<g id="node22" class="node">
<title>Node22</title>
<g id="a_node22"><a xlink:href="_collision_8cpp.html" target="_top" xlink:title=" ">
<polygon fill="none" stroke="black" points="977.5,-234.5 977.5,-275.5 1135.5,-275.5 1135.5,-234.5 977.5,-234.5"/>
<text text-anchor="start" x="985.5" y="-263.5" font-family="Helvetica,sans-Serif" font-size="10.00">/home/runner/work/Simulatio</text>
<text text-anchor="start" x="985.5" y="-252.5" font-family="Helvetica,sans-Serif" font-size="10.00">/Simulatio/src/Geometry</text>
<text text-anchor="middle" x="1056.5" y="-241.5" font-family="Helvetica,sans-Serif" font-size="10.00">/Collision.cpp</text>
</a>
</g>
</g>
<!-- Node21&#45;&gt;Node22 -->
<g id="edge27" class="edge">
<title>Node21&#45;&gt;Node22</title>
<path fill="none" stroke="midnightblue" d="M1022.36,-304.05C1029.1,-294.57 1036.47,-284.18 1042.64,-275.51"/>
<polygon fill="midnightblue" stroke="midnightblue" points="1019.35,-302.25 1016.41,-312.43 1025.05,-306.3 1019.35,-302.25"/>
</g>
<!-- Node24 -->
<g id="node24" class="node">
<title>Node24</title>
<g id="a_node24"><a xlink:href="_old_quadtree_8cpp.html" target="_top" xlink:title=" ">
<polygon fill="none" stroke="black" points="1595.5,-234.5 1595.5,-275.5 1753.5,-275.5 1753.5,-234.5 1595.5,-234.5"/>
<text text-anchor="start" x="1603.5" y="-263.5" font-family="Helvetica,sans-Serif" font-size="10.00">/home/runner/work/Simulatio</text>
<text text-anchor="start" x="1603.5" y="-252.5" font-family="Helvetica,sans-Serif" font-size="10.00">/Simulatio/src/Structures</text>
<text text-anchor="middle" x="1674.5" y="-241.5" font-family="Helvetica,sans-Serif" font-size="10.00">/OldQuadtree.cpp</text>
</a>
</g>
</g>
<!-- Node23&#45;&gt;Node24 -->
<g id="edge29" class="edge">
<title>Node23&#45;&gt;Node24</title>
<path fill="none" stroke="midnightblue" d="M1674.5,-302.3C1674.5,-293.3 1674.5,-283.65 1674.5,-275.51"/>
<polygon fill="midnightblue" stroke="midnightblue" points="1671,-302.43 1674.5,-312.43 1678,-302.43 1671,-302.43"/>
</g>
<!-- Node25&#45;&gt;Node26 -->
<g id="edge31" class="edge">
<title>Node25&#45;&gt;Node26</title>
<path fill="none" stroke="midnightblue" d="M1443.68,-308.33C1419.26,-297.78 1390.85,-285.51 1367.67,-275.51"/>
<polygon fill="midnightblue" stroke="midnightblue" points="1442.61,-311.68 1453.18,-312.43 1445.38,-305.25 1442.61,-311.68"/>
</g>
<!-- Node27 -->
<g id="node27" class="node">
<title>Node27</title>
<g id="a_node27"><a xlink:href="_quad_node_8cpp.html" target="_top" xlink:title=" ">
<polygon fill="none" stroke="black" points="1419.5,-234.5 1419.5,-275.5 1577.5,-275.5 1577.5,-234.5 1419.5,-234.5"/>
<text text-anchor="start" x="1427.5" y="-263.5" font-family="Helvetica,sans-Serif" font-size="10.00">/home/runner/work/Simulatio</text>
<text text-anchor="start" x="1427.5" y="-252.5" font-family="Helvetica,sans-Serif" font-size="10.00">/Simulatio/src/Structures</text>
<text text-anchor="middle" x="1498.5" y="-241.5" font-family="Helvetica,sans-Serif" font-size="10.00">/QuadNode.cpp</text>
</a>
</g>
</g>
<!-- Node25&#45;&gt;Node27 -->
<g id="edge33" class="edge">
<title>Node25&#45;&gt;Node27</title>
<path fill="none" stroke="midnightblue" d="M1498.5,-302.3C1498.5,-293.3 1498.5,-283.65 1498.5,-275.51"/>
<polygon fill="midnightblue" stroke="midnightblue" points="1495,-302.43 1498.5,-312.43 1502,-302.43 1495,-302.43"/>
</g>
<!-- Node26&#45;&gt;Node4 -->
<g id="edge32" class="edge">
<title>Node26&#45;&gt;Node4</title>
<path fill="none" stroke="midnightblue" d="M1233.58,-235.88C1171.32,-223.2 1088.85,-206.39 1028.81,-194.16"/>
<polygon fill="midnightblue" stroke="midnightblue" points="1232.9,-239.32 1243.4,-237.88 1234.3,-232.46 1232.9,-239.32"/>
</g>
</g>
</svg>
