<?xml version="1.0" encoding="UTF-8" standalone="no"?>
<!DOCTYPE svg PUBLIC "-//W3C//DTD SVG 1.1//EN"
 "http://www.w3.org/Graphics/SVG/1.1/DTD/svg11.dtd">
<!-- Generated by graphviz version 2.43.0 (0)
 -->
<!-- Title: /home/runner/work/Simulatio/Simulatio/src/Corpses/Circle.cpp Pages: 1 -->
<svg width="835pt" height="554pt"
 viewBox="0.00 0.00 835.00 554.00" xmlns="http://www.w3.org/2000/svg" xmlns:xlink="http://www.w3.org/1999/xlink">
<g id="graph0" class="graph" transform="scale(1 1) rotate(0) translate(4 550)">
<title>/home/runner/work/Simulatio/Simulatio/src/Corpses/Circle.cpp</title>
<!-- Node1 -->
<g id="node1" class="node">
<title>Node1</title>
<g id="a_node1"><a xlink:title=" ">
<polygon fill="#bfbfbf" stroke="black" points="606.5,-515.5 606.5,-545.5 782.5,-545.5 782.5,-515.5 606.5,-515.5"/>
<text text-anchor="start" x="614.5" y="-533.5" font-family="Helvetica,sans-Serif" font-size="10.00">/home/runner/work/Simulatio</text>
<text text-anchor="middle" x="694.5" y="-522.5" font-family="Helvetica,sans-Serif" font-size="10.00">/Simulatio/src/Corpses/Circle.cpp</text>
</a>
</g>
</g>
<!-- Node2 -->
<g id="node2" class="node">
<title>Node2</title>
<g id="a_node2"><a xlink:href="_circle_8hpp.html" target="_top" xlink:title=" ">
<polygon fill="none" stroke="black" points="638.5,-448.5 638.5,-478.5 750.5,-478.5 750.5,-448.5 638.5,-448.5"/>
<text text-anchor="start" x="646.5" y="-466.5" font-family="Helvetica,sans-Serif" font-size="10.00">../../include/Corpses</text>
<text text-anchor="middle" x="694.5" y="-455.5" font-family="Helvetica,sans-Serif" font-size="10.00">/Circle.hpp</text>
</a>
</g>
</g>
<!-- Node1&#45;&gt;Node2 -->
<g id="edge1" class="edge">
<title>Node1&#45;&gt;Node2</title>
<path fill="none" stroke="midnightblue" d="M694.5,-515.4C694.5,-507.64 694.5,-497.81 694.5,-488.86"/>
<polygon fill="midnightblue" stroke="midnightblue" points="698,-488.58 694.5,-478.58 691,-488.58 698,-488.58"/>
</g>
<!-- Node3 -->
<g id="node3" class="node">
<title>Node3</title>
<g id="a_node3"><a xlink:title=" ">
<polygon fill="none" stroke="#bfbfbf" points="780,-0.5 780,-19.5 827,-19.5 827,-0.5 780,-0.5"/>
<text text-anchor="middle" x="803.5" y="-7.5" font-family="Helvetica,sans-Serif" font-size="10.00">vector</text>
</a>
</g>
</g>
<!-- Node2&#45;&gt;Node3 -->
<g id="edge2" class="edge">
<title>Node2&#45;&gt;Node3</title>
<path fill="none" stroke="midnightblue" d="M722.57,-448.35C754.87,-429.84 803.5,-394.15 803.5,-347 803.5,-347 803.5,-347 803.5,-121 803.5,-88.95 803.5,-51.64 803.5,-29.75"/>
<polygon fill="midnightblue" stroke="midnightblue" points="807,-29.56 803.5,-19.56 800,-29.56 807,-29.56"/>
</g>
<!-- Node4 -->
<g id="node4" class="node">
<title>Node4</title>
<g id="a_node4"><a xlink:title=" ">
<polygon fill="none" stroke="#bfbfbf" points="632.5,-224.5 632.5,-243.5 700.5,-243.5 700.5,-224.5 632.5,-224.5"/>
<text text-anchor="middle" x="666.5" y="-231.5" font-family="Helvetica,sans-Serif" font-size="10.00">Config.hpp</text>
</a>
</g>
</g>
<!-- Node2&#45;&gt;Node4 -->
<g id="edge3" class="edge">
<title>Node2&#45;&gt;Node4</title>
<path fill="none" stroke="midnightblue" d="M713.31,-448.37C723.77,-439.29 735.8,-426.49 741.5,-412 744.75,-403.73 743.38,-400.69 741.5,-392 729.7,-337.6 696.03,-280.17 678.08,-252.26"/>
<polygon fill="midnightblue" stroke="midnightblue" points="680.86,-250.11 672.46,-243.67 675.01,-253.95 680.86,-250.11"/>
</g>
<!-- Node5 -->
<g id="node5" class="node">
<title>Node5</title>
<g id="a_node5"><a xlink:href="_corpse_8hpp.html" target="_top" xlink:title=" ">
<polygon fill="none" stroke="black" points="504,-336.5 504,-355.5 575,-355.5 575,-336.5 504,-336.5"/>
<text text-anchor="middle" x="539.5" y="-343.5" font-family="Helvetica,sans-Serif" font-size="10.00">Corpse.hpp</text>
</a>
</g>
</g>
<!-- Node2&#45;&gt;Node5 -->
<g id="edge4" class="edge">
<title>Node2&#45;&gt;Node5</title>
<path fill="none" stroke="midnightblue" d="M675.49,-448.34C645.92,-426.3 589.16,-384.01 559.18,-361.66"/>
<polygon fill="midnightblue" stroke="midnightblue" points="561.24,-358.84 551.13,-355.67 557.06,-364.45 561.24,-358.84"/>
</g>
<!-- Node24 -->
<g id="node24" class="node">
<title>Node24</title>
<g id="a_node24"><a xlink:href="_polygon_8hpp.html" target="_top" xlink:title=" ">
<polygon fill="none" stroke="black" points="656,-392.5 656,-411.5 733,-411.5 733,-392.5 656,-392.5"/>
<text text-anchor="middle" x="694.5" y="-399.5" font-family="Helvetica,sans-Serif" font-size="10.00">Polygon.hpp</text>
</a>
</g>
</g>
<!-- Node2&#45;&gt;Node24 -->
<g id="edge37" class="edge">
<title>Node2&#45;&gt;Node24</title>
<path fill="none" stroke="midnightblue" d="M688.66,-448.4C687.63,-440.38 687.47,-430.23 688.19,-421.57"/>
<polygon fill="midnightblue" stroke="midnightblue" points="691.66,-422.04 689.57,-411.66 684.73,-421.08 691.66,-422.04"/>
</g>
<!-- Node5&#45;&gt;Node3 -->
<g id="edge8" class="edge">
<title>Node5&#45;&gt;Node3</title>
<path fill="none" stroke="midnightblue" d="M542.69,-336.26C556.97,-298.21 618.55,-144.89 714.5,-56 730.47,-41.21 752.22,-30.09 770.22,-22.61"/>
<polygon fill="midnightblue" stroke="midnightblue" points="771.76,-25.76 779.77,-18.82 769.19,-19.25 771.76,-25.76"/>
</g>
<!-- Node5&#45;&gt;Node4 -->
<g id="edge36" class="edge">
<title>Node5&#45;&gt;Node4</title>
<path fill="none" stroke="midnightblue" d="M559.47,-336.49C576.4,-328.64 600.68,-315.83 618.5,-300 634.01,-286.22 647.62,-266.68 656.35,-252.62"/>
<polygon fill="midnightblue" stroke="midnightblue" points="659.43,-254.28 661.57,-243.9 653.43,-250.68 659.43,-254.28"/>
</g>
<!-- Node6 -->
<g id="node6" class="node">
<title>Node6</title>
<g id="a_node6"><a xlink:title=" ">
<polygon fill="none" stroke="#bfbfbf" points="0,-0.5 0,-19.5 47,-19.5 47,-0.5 0,-0.5"/>
<text text-anchor="middle" x="23.5" y="-7.5" font-family="Helvetica,sans-Serif" font-size="10.00">cmath</text>
</a>
</g>
</g>
<!-- Node5&#45;&gt;Node6 -->
<g id="edge5" class="edge">
<title>Node5&#45;&gt;Node6</title>
<path fill="none" stroke="midnightblue" d="M503.69,-344.56C391.22,-342.23 52.5,-327.53 52.5,-235 52.5,-235 52.5,-235 52.5,-121 52.5,-87.72 39.93,-50.58 31.34,-29.09"/>
<polygon fill="midnightblue" stroke="midnightblue" points="34.48,-27.53 27.41,-19.64 28.02,-30.21 34.48,-27.53"/>
</g>
<!-- Node7 -->
<g id="node7" class="node">
<title>Node7</title>
<g id="a_node7"><a xlink:title=" ">
<polygon fill="none" stroke="#bfbfbf" points="65.5,-0.5 65.5,-19.5 125.5,-19.5 125.5,-0.5 65.5,-0.5"/>
<text text-anchor="middle" x="95.5" y="-7.5" font-family="Helvetica,sans-Serif" font-size="10.00">iostream</text>
</a>
</g>
</g>
<!-- Node5&#45;&gt;Node7 -->
<g id="edge6" class="edge">
<title>Node5&#45;&gt;Node7</title>
<path fill="none" stroke="midnightblue" d="M503.78,-343.55C400.28,-338.38 107.5,-316.55 107.5,-235 107.5,-235 107.5,-235 107.5,-121 107.5,-88.76 102.34,-51.51 98.79,-29.68"/>
<polygon fill="midnightblue" stroke="midnightblue" points="102.19,-28.8 97.07,-19.52 95.29,-29.97 102.19,-28.8"/>
</g>
<!-- Node8 -->
<g id="node8" class="node">
<title>Node8</title>
<g id="a_node8"><a xlink:title=" ">
<polygon fill="none" stroke="#bfbfbf" points="143.5,-0.5 143.5,-19.5 201.5,-19.5 201.5,-0.5 143.5,-0.5"/>
<text text-anchor="middle" x="172.5" y="-7.5" font-family="Helvetica,sans-Serif" font-size="10.00">memory</text>
</a>
</g>
</g>
<!-- Node5&#45;&gt;Node8 -->
<g id="edge7" class="edge">
<title>Node5&#45;&gt;Node8</title>
<path fill="none" stroke="midnightblue" d="M504,-342.37C409.42,-334.4 158.5,-306.52 158.5,-235 158.5,-235 158.5,-235 158.5,-121 158.5,-88.54 164.57,-51.12 168.72,-29.36"/>
<polygon fill="midnightblue" stroke="midnightblue" points="172.16,-30 170.67,-19.51 165.29,-28.64 172.16,-30"/>
</g>
<!-- Node9 -->
<g id="node9" class="node">
<title>Node9</title>
<g id="a_node9"><a xlink:href="_geometry_8hpp.html" target="_top" xlink:title=" ">
<polygon fill="none" stroke="black" points="401.5,-280.5 401.5,-299.5 547.5,-299.5 547.5,-280.5 401.5,-280.5"/>
<text text-anchor="middle" x="474.5" y="-287.5" font-family="Helvetica,sans-Serif" font-size="10.00">../Geometry/Geometry.hpp</text>
</a>
</g>
</g>
<!-- Node5&#45;&gt;Node9 -->
<g id="edge9" class="edge">
<title>Node5&#45;&gt;Node9</title>
<path fill="none" stroke="midnightblue" d="M529.06,-336.32C519.35,-328.26 504.68,-316.08 493,-306.37"/>
<polygon fill="midnightblue" stroke="midnightblue" points="495.06,-303.53 485.13,-299.83 490.59,-308.92 495.06,-303.53"/>
</g>
<!-- Node9&#45;&gt;Node4 -->
<g id="edge29" class="edge">
<title>Node9&#45;&gt;Node4</title>
<path fill="none" stroke="midnightblue" d="M504.92,-280.44C537.78,-271.2 590.28,-256.44 626.47,-246.26"/>
<polygon fill="midnightblue" stroke="midnightblue" points="627.54,-249.59 636.22,-243.52 625.65,-242.85 627.54,-249.59"/>
</g>
<!-- Node10 -->
<g id="node10" class="node">
<title>Node10</title>
<g id="a_node10"><a xlink:href="_recorder_8hpp.html" target="_top" xlink:title=" ">
<polygon fill="none" stroke="black" points="186.5,-224.5 186.5,-243.5 334.5,-243.5 334.5,-224.5 186.5,-224.5"/>
<text text-anchor="middle" x="260.5" y="-231.5" font-family="Helvetica,sans-Serif" font-size="10.00">../Benchmark/Recorder.hpp</text>
</a>
</g>
</g>
<!-- Node9&#45;&gt;Node10 -->
<g id="edge10" class="edge">
<title>Node9&#45;&gt;Node10</title>
<path fill="none" stroke="midnightblue" d="M440.59,-280.44C403.65,-271.12 344.45,-256.18 304.08,-246"/>
<polygon fill="midnightblue" stroke="midnightblue" points="304.8,-242.57 294.25,-243.52 303.09,-249.36 304.8,-242.57"/>
</g>
<!-- Node13 -->
<g id="node13" class="node">
<title>Node13</title>
<g id="a_node13"><a xlink:href="_maths_8hpp.html" target="_top" xlink:title=" ">
<polygon fill="none" stroke="black" points="356.5,-56.5 356.5,-75.5 484.5,-75.5 484.5,-56.5 356.5,-56.5"/>
<text text-anchor="middle" x="420.5" y="-63.5" font-family="Helvetica,sans-Serif" font-size="10.00">../Geometry/Maths.hpp</text>
</a>
</g>
</g>
<!-- Node9&#45;&gt;Node13 -->
<g id="edge30" class="edge">
<title>Node9&#45;&gt;Node13</title>
<path fill="none" stroke="midnightblue" d="M458.84,-280.43C445.79,-272.55 427.6,-259.72 416.5,-244 386.25,-201.18 387.83,-183.76 379.5,-132 378.09,-123.22 376.29,-120.29 379.5,-112 383.95,-100.5 392.87,-90.13 401.25,-82.25"/>
<polygon fill="midnightblue" stroke="midnightblue" points="403.74,-84.73 408.96,-75.51 399.13,-79.46 403.74,-84.73"/>
</g>
<!-- Node21 -->
<g id="node21" class="node">
<title>Node21</title>
<g id="a_node21"><a xlink:href="_bounds_8hpp.html" target="_top" xlink:title=" ">
<polygon fill="none" stroke="black" points="504.5,-168.5 504.5,-187.5 578.5,-187.5 578.5,-168.5 504.5,-168.5"/>
<text text-anchor="middle" x="541.5" y="-175.5" font-family="Helvetica,sans-Serif" font-size="10.00">Bounds.hpp</text>
</a>
</g>
</g>
<!-- Node9&#45;&gt;Node21 -->
<g id="edge25" class="edge">
<title>Node9&#45;&gt;Node21</title>
<path fill="none" stroke="midnightblue" d="M486.59,-280.31C497.21,-272.08 512.37,-258.81 521.5,-244 530.32,-229.71 535.51,-211.24 538.38,-197.65"/>
<polygon fill="midnightblue" stroke="midnightblue" points="541.87,-198.04 540.28,-187.57 534.99,-196.75 541.87,-198.04"/>
</g>
<!-- Node22 -->
<g id="node22" class="node">
<title>Node22</title>
<g id="a_node22"><a xlink:href="_vector_8hpp.html" target="_top" xlink:title=" ">
<polygon fill="none" stroke="black" points="388.5,-112.5 388.5,-131.5 456.5,-131.5 456.5,-112.5 388.5,-112.5"/>
<text text-anchor="middle" x="422.5" y="-119.5" font-family="Helvetica,sans-Serif" font-size="10.00">Vector.hpp</text>
</a>
</g>
</g>
<!-- Node9&#45;&gt;Node22 -->
<g id="edge31" class="edge">
<title>Node9&#45;&gt;Node22</title>
<path fill="none" stroke="midnightblue" d="M460.26,-280.27C448.83,-272.37 433.57,-259.61 426.5,-244 411.38,-210.61 415,-166.57 418.85,-141.87"/>
<polygon fill="midnightblue" stroke="midnightblue" points="422.35,-142.17 420.62,-131.72 415.45,-140.97 422.35,-142.17"/>
</g>
<!-- Node23 -->
<g id="node23" class="node">
<title>Node23</title>
<g id="a_node23"><a xlink:href="_vertices_8hpp.html" target="_top" xlink:title=" ">
<polygon fill="none" stroke="black" points="436,-224.5 436,-243.5 513,-243.5 513,-224.5 436,-224.5"/>
<text text-anchor="middle" x="474.5" y="-231.5" font-family="Helvetica,sans-Serif" font-size="10.00">Vertices.hpp</text>
</a>
</g>
</g>
<!-- Node9&#45;&gt;Node23 -->
<g id="edge32" class="edge">
<title>Node9&#45;&gt;Node23</title>
<path fill="none" stroke="midnightblue" d="M474.5,-280.08C474.5,-273.01 474.5,-262.86 474.5,-253.99"/>
<polygon fill="midnightblue" stroke="midnightblue" points="478,-253.75 474.5,-243.75 471,-253.75 478,-253.75"/>
</g>
<!-- Node11 -->
<g id="node11" class="node">
<title>Node11</title>
<g id="a_node11"><a xlink:href="_performance_8hpp.html" target="_top" xlink:title=" ">
<polygon fill="none" stroke="black" points="221.5,-168.5 221.5,-187.5 321.5,-187.5 321.5,-168.5 221.5,-168.5"/>
<text text-anchor="middle" x="271.5" y="-175.5" font-family="Helvetica,sans-Serif" font-size="10.00">Performance.hpp</text>
</a>
</g>
</g>
<!-- Node10&#45;&gt;Node11 -->
<g id="edge11" class="edge">
<title>Node10&#45;&gt;Node11</title>
<path fill="none" stroke="midnightblue" d="M262.32,-224.08C263.77,-216.93 265.87,-206.64 267.69,-197.69"/>
<polygon fill="midnightblue" stroke="midnightblue" points="271.15,-198.25 269.72,-187.75 264.29,-196.85 271.15,-198.25"/>
</g>
<!-- Node12 -->
<g id="node12" class="node">
<title>Node12</title>
<g id="a_node12"><a xlink:href="_block_data_8hpp.html" target="_top" xlink:title=" ">
<polygon fill="none" stroke="black" points="232.5,-112.5 232.5,-131.5 320.5,-131.5 320.5,-112.5 232.5,-112.5"/>
<text text-anchor="middle" x="276.5" y="-119.5" font-family="Helvetica,sans-Serif" font-size="10.00">BlockData.hpp</text>
</a>
</g>
</g>
<!-- Node11&#45;&gt;Node12 -->
<g id="edge12" class="edge">
<title>Node11&#45;&gt;Node12</title>
<path fill="none" stroke="midnightblue" d="M272.33,-168.08C272.98,-161.01 273.92,-150.86 274.74,-141.99"/>
<polygon fill="midnightblue" stroke="midnightblue" points="278.25,-142.03 275.69,-131.75 271.28,-141.39 278.25,-142.03"/>
</g>
<!-- Node12&#45;&gt;Node13 -->
<g id="edge13" class="edge">
<title>Node12&#45;&gt;Node13</title>
<path fill="none" stroke="midnightblue" d="M299.32,-112.44C323.33,-103.44 361.33,-89.19 388.37,-79.05"/>
<polygon fill="midnightblue" stroke="midnightblue" points="389.66,-82.3 397.79,-75.52 387.2,-75.75 389.66,-82.3"/>
</g>
<!-- Node13&#45;&gt;Node3 -->
<g id="edge24" class="edge">
<title>Node13&#45;&gt;Node3</title>
<path fill="none" stroke="midnightblue" d="M484.8,-59.43C553.2,-52.89 664.67,-40.51 769.96,-19.84"/>
<polygon fill="midnightblue" stroke="midnightblue" points="770.68,-23.27 779.8,-17.89 769.31,-16.41 770.68,-23.27"/>
</g>
<!-- Node13&#45;&gt;Node6 -->
<g id="edge16" class="edge">
<title>Node13&#45;&gt;Node6</title>
<path fill="none" stroke="midnightblue" d="M356.28,-59.86C285.35,-53.56 167.66,-41.25 57.18,-19.86"/>
<polygon fill="midnightblue" stroke="midnightblue" points="57.68,-16.39 47.2,-17.9 56.33,-23.26 57.68,-16.39"/>
</g>
<!-- Node13&#45;&gt;Node7 -->
<g id="edge18" class="edge">
<title>Node13&#45;&gt;Node7</title>
<path fill="none" stroke="midnightblue" d="M358.07,-56.48C302.25,-48.56 218.01,-35.89 135.71,-20.13"/>
<polygon fill="midnightblue" stroke="midnightblue" points="136.17,-16.65 125.69,-18.19 134.84,-23.52 136.17,-16.65"/>
</g>
<!-- Node13&#45;&gt;Node8 -->
<g id="edge20" class="edge">
<title>Node13&#45;&gt;Node8</title>
<path fill="none" stroke="midnightblue" d="M379.4,-56.46C339.09,-48.03 275.64,-34.6 211.42,-20.17"/>
<polygon fill="midnightblue" stroke="midnightblue" points="212.06,-16.73 201.53,-17.94 210.52,-23.56 212.06,-16.73"/>
</g>
<!-- Node14 -->
<g id="node14" class="node">
<title>Node14</title>
<g id="a_node14"><a xlink:title=" ">
<polygon fill="none" stroke="#bfbfbf" points="331.5,-0.5 331.5,-19.5 373.5,-19.5 373.5,-0.5 331.5,-0.5"/>
<text text-anchor="middle" x="352.5" y="-7.5" font-family="Helvetica,sans-Serif" font-size="10.00">array</text>
</a>
</g>
</g>
<!-- Node13&#45;&gt;Node14 -->
<g id="edge14" class="edge">
<title>Node13&#45;&gt;Node14</title>
<path fill="none" stroke="midnightblue" d="M409.57,-56.32C399.33,-48.18 383.78,-35.84 371.5,-26.09"/>
<polygon fill="midnightblue" stroke="midnightblue" points="373.63,-23.31 363.62,-19.83 369.28,-28.79 373.63,-23.31"/>
</g>
<!-- Node15 -->
<g id="node15" class="node">
<title>Node15</title>
<g id="a_node15"><a xlink:title=" ">
<polygon fill="none" stroke="#bfbfbf" points="391.5,-0.5 391.5,-19.5 441.5,-19.5 441.5,-0.5 391.5,-0.5"/>
<text text-anchor="middle" x="416.5" y="-7.5" font-family="Helvetica,sans-Serif" font-size="10.00">chrono</text>
</a>
</g>
</g>
<!-- Node13&#45;&gt;Node15 -->
<g id="edge15" class="edge">
<title>Node13&#45;&gt;Node15</title>
<path fill="none" stroke="midnightblue" d="M419.84,-56.08C419.32,-49.01 418.56,-38.86 417.91,-29.99"/>
<polygon fill="midnightblue" stroke="midnightblue" points="421.38,-29.47 417.15,-19.75 414.4,-29.98 421.38,-29.47"/>
</g>
<!-- Node16 -->
<g id="node16" class="node">
<title>Node16</title>
<g id="a_node16"><a xlink:title=" ">
<polygon fill="none" stroke="#bfbfbf" points="460,-0.5 460,-19.5 525,-19.5 525,-0.5 460,-0.5"/>
<text text-anchor="middle" x="492.5" y="-7.5" font-family="Helvetica,sans-Serif" font-size="10.00">functional</text>
</a>
</g>
</g>
<!-- Node13&#45;&gt;Node16 -->
<g id="edge17" class="edge">
<title>Node13&#45;&gt;Node16</title>
<path fill="none" stroke="midnightblue" d="M432.07,-56.32C442.92,-48.18 459.38,-35.84 472.38,-26.09"/>
<polygon fill="midnightblue" stroke="midnightblue" points="474.82,-28.63 480.72,-19.83 470.62,-23.03 474.82,-28.63"/>
</g>
<!-- Node17 -->
<g id="node17" class="node">
<title>Node17</title>
<g id="a_node17"><a xlink:title=" ">
<polygon fill="none" stroke="#bfbfbf" points="543,-0.5 543,-19.5 596,-19.5 596,-0.5 543,-0.5"/>
<text text-anchor="middle" x="569.5" y="-7.5" font-family="Helvetica,sans-Serif" font-size="10.00">iterator</text>
</a>
</g>
</g>
<!-- Node13&#45;&gt;Node17 -->
<g id="edge19" class="edge">
<title>Node13&#45;&gt;Node17</title>
<path fill="none" stroke="midnightblue" d="M444.11,-56.44C468.96,-47.44 508.27,-33.19 536.25,-23.05"/>
<polygon fill="midnightblue" stroke="midnightblue" points="537.79,-26.21 546,-19.52 535.41,-19.63 537.79,-26.21"/>
</g>
<!-- Node18 -->
<g id="node18" class="node">
<title>Node18</title>
<g id="a_node18"><a xlink:title=" ">
<polygon fill="none" stroke="#bfbfbf" points="614.5,-0.5 614.5,-19.5 670.5,-19.5 670.5,-0.5 614.5,-0.5"/>
<text text-anchor="middle" x="642.5" y="-7.5" font-family="Helvetica,sans-Serif" font-size="10.00">sstream</text>
</a>
</g>
</g>
<!-- Node13&#45;&gt;Node18 -->
<g id="edge21" class="edge">
<title>Node13&#45;&gt;Node18</title>
<path fill="none" stroke="midnightblue" d="M455.68,-56.44C496.23,-46.58 562.63,-30.43 604.38,-20.27"/>
<polygon fill="midnightblue" stroke="midnightblue" points="605.29,-23.65 614.18,-17.89 603.64,-16.85 605.29,-23.65"/>
</g>
<!-- Node19 -->
<g id="node19" class="node">
<title>Node19</title>
<g id="a_node19"><a xlink:title=" ">
<polygon fill="none" stroke="#bfbfbf" points="689,-0.5 689,-19.5 762,-19.5 762,-0.5 689,-0.5"/>
<text text-anchor="middle" x="725.5" y="-7.5" font-family="Helvetica,sans-Serif" font-size="10.00">string_view</text>
</a>
</g>
</g>
<!-- Node13&#45;&gt;Node19 -->
<g id="edge22" class="edge">
<title>Node13&#45;&gt;Node19</title>
<path fill="none" stroke="midnightblue" d="M471.67,-56.44C521.81,-47.98 600.67,-34.47 678.83,-20.09"/>
<polygon fill="midnightblue" stroke="midnightblue" points="679.66,-23.5 688.86,-18.24 678.39,-16.61 679.66,-23.5"/>
</g>
<!-- Node20 -->
<g id="node20" class="node">
<title>Node20</title>
<g id="a_node20"><a xlink:title=" ">
<polygon fill="none" stroke="#bfbfbf" points="220,-0.5 220,-19.5 313,-19.5 313,-0.5 220,-0.5"/>
<text text-anchor="middle" x="266.5" y="-7.5" font-family="Helvetica,sans-Serif" font-size="10.00">unordered_map</text>
</a>
</g>
</g>
<!-- Node13&#45;&gt;Node20 -->
<g id="edge23" class="edge">
<title>Node13&#45;&gt;Node20</title>
<path fill="none" stroke="midnightblue" d="M396.1,-56.44C370.3,-47.4 329.42,-33.06 300.48,-22.92"/>
<polygon fill="midnightblue" stroke="midnightblue" points="301.38,-19.52 290.79,-19.52 299.07,-26.13 301.38,-19.52"/>
</g>
<!-- Node21&#45;&gt;Node13 -->
<g id="edge26" class="edge">
<title>Node21&#45;&gt;Node13</title>
<path fill="none" stroke="midnightblue" d="M537.29,-168.08C530.6,-154.61 516.44,-128.87 498.5,-112 484.45,-98.78 465.82,-87.85 450.29,-80.08"/>
<polygon fill="midnightblue" stroke="midnightblue" points="451.62,-76.83 441.1,-75.65 448.59,-83.14 451.62,-76.83"/>
</g>
<!-- Node21&#45;&gt;Node22 -->
<g id="edge27" class="edge">
<title>Node21&#45;&gt;Node22</title>
<path fill="none" stroke="midnightblue" d="M522.64,-168.44C503.23,-159.64 472.77,-145.81 450.54,-135.72"/>
<polygon fill="midnightblue" stroke="midnightblue" points="451.82,-132.46 441.27,-131.52 448.93,-138.84 451.82,-132.46"/>
</g>
<!-- Node22&#45;&gt;Node13 -->
<g id="edge28" class="edge">
<title>Node22&#45;&gt;Node13</title>
<path fill="none" stroke="midnightblue" d="M422.17,-112.08C421.91,-105.01 421.53,-94.86 421.2,-85.99"/>
<polygon fill="midnightblue" stroke="midnightblue" points="424.69,-85.61 420.82,-75.75 417.7,-85.87 424.69,-85.61"/>
</g>
<!-- Node23&#45;&gt;Node13 -->
<g id="edge34" class="edge">
<title>Node23&#45;&gt;Node13</title>
<path fill="none" stroke="midnightblue" d="M475.83,-224.28C478.58,-203.66 483.23,-150.68 465.5,-112 460.14,-100.31 450.36,-89.95 441.28,-82.13"/>
<polygon fill="midnightblue" stroke="midnightblue" points="443.26,-79.23 433.28,-75.69 438.87,-84.69 443.26,-79.23"/>
</g>
<!-- Node23&#45;&gt;Node21 -->
<g id="edge33" class="edge">
<title>Node23&#45;&gt;Node21</title>
<path fill="none" stroke="midnightblue" d="M485.26,-224.32C495.27,-216.26 510.39,-204.08 522.43,-194.37"/>
<polygon fill="midnightblue" stroke="midnightblue" points="524.95,-196.83 530.54,-187.83 520.56,-191.38 524.95,-196.83"/>
</g>
<!-- Node23&#45;&gt;Node22 -->
<g id="edge35" class="edge">
<title>Node23&#45;&gt;Node22</title>
<path fill="none" stroke="midnightblue" d="M470.42,-224.37C461.95,-206.46 442.32,-164.92 430.98,-140.95"/>
<polygon fill="midnightblue" stroke="midnightblue" points="434,-139.14 426.56,-131.59 427.67,-142.13 434,-139.14"/>
</g>
<!-- Node24&#45;&gt;Node2 -->
<g id="edge39" class="edge">
<title>Node24&#45;&gt;Node2</title>
<path fill="none" stroke="midnightblue" d="M699.43,-411.66C700.93,-418.65 701.51,-428.86 701.14,-438.29"/>
<polygon fill="midnightblue" stroke="midnightblue" points="697.64,-438.15 700.34,-448.4 704.62,-438.71 697.64,-438.15"/>
</g>
<!-- Node24&#45;&gt;Node3 -->
<g id="edge38" class="edge">
<title>Node24&#45;&gt;Node3</title>
<path fill="none" stroke="midnightblue" d="M696.84,-392.19C704.52,-362.44 728.5,-262.83 728.5,-179 728.5,-179 728.5,-179 728.5,-121 728.5,-81.44 762.02,-45.62 784.24,-26.21"/>
<polygon fill="midnightblue" stroke="midnightblue" points="786.7,-28.71 792.11,-19.6 782.2,-23.35 786.7,-28.71"/>
</g>
<!-- Node24&#45;&gt;Node4 -->
<g id="edge40" class="edge">
<title>Node24&#45;&gt;Node4</title>
<path fill="none" stroke="midnightblue" d="M692.99,-392.08C688.59,-365.95 675.64,-289.21 669.63,-253.58"/>
<polygon fill="midnightblue" stroke="midnightblue" points="673.06,-252.85 667.95,-243.57 666.16,-254.01 673.06,-252.85"/>
</g>
<!-- Node24&#45;&gt;Node5 -->
<g id="edge41" class="edge">
<title>Node24&#45;&gt;Node5</title>
<path fill="none" stroke="midnightblue" d="M669.94,-392.44C643.98,-383.4 602.83,-369.06 573.7,-358.92"/>
<polygon fill="midnightblue" stroke="midnightblue" points="574.54,-355.5 563.95,-355.52 572.24,-362.11 574.54,-355.5"/>
</g>
</g>
</svg>
