<?xml version="1.0" encoding="UTF-8" standalone="no"?>
<!DOCTYPE svg PUBLIC "-//W3C//DTD SVG 1.1//EN"
 "http://www.w3.org/Graphics/SVG/1.1/DTD/svg11.dtd">
<!-- Generated by graphviz version 2.43.0 (0)
 -->
<!-- Title: /home/runner/work/Simulatio/Simulatio/engine/include/Geometry/Collision.hpp Pages: 1 -->
<svg width="919pt" height="554pt"
 viewBox="0.00 0.00 918.50 554.00" xmlns="http://www.w3.org/2000/svg" xmlns:xlink="http://www.w3.org/1999/xlink">
<g id="graph0" class="graph" transform="scale(1 1) rotate(0) translate(4 550)">
<title>/home/runner/work/Simulatio/Simulatio/engine/include/Geometry/Collision.hpp</title>
<!-- Node1 -->
<g id="node1" class="node">
<title>Node1</title>
<g id="a_node1"><a xlink:title=" ">
<polygon fill="#bfbfbf" stroke="black" points="515,-504.5 515,-545.5 673,-545.5 673,-504.5 515,-504.5"/>
<text text-anchor="start" x="523" y="-533.5" font-family="Helvetica,sans-Serif" font-size="10.00">/home/runner/work/Simulatio</text>
<text text-anchor="start" x="523" y="-522.5" font-family="Helvetica,sans-Serif" font-size="10.00">/Simulatio/engine/include</text>
<text text-anchor="middle" x="594" y="-511.5" font-family="Helvetica,sans-Serif" font-size="10.00">/Geometry/Collision.hpp</text>
</a>
</g>
</g>
<!-- Node2 -->
<g id="node2" class="node">
<title>Node2</title>
<g id="a_node2"><a xlink:href="_circle_8hpp.html" target="_top" xlink:title=" ">
<polygon fill="none" stroke="black" points="128,-448.5 128,-467.5 244,-467.5 244,-448.5 128,-448.5"/>
<text text-anchor="middle" x="186" y="-455.5" font-family="Helvetica,sans-Serif" font-size="10.00">../Corpses/Circle.hpp</text>
</a>
</g>
</g>
<!-- Node1&#45;&gt;Node2 -->
<g id="edge1" class="edge">
<title>Node1&#45;&gt;Node2</title>
<path fill="none" stroke="midnightblue" d="M514.85,-511.39C437.54,-499.07 321.37,-480.57 249.8,-469.16"/>
<polygon fill="midnightblue" stroke="midnightblue" points="250,-465.65 239.57,-467.53 248.9,-472.56 250,-465.65"/>
</g>
<!-- Node5 -->
<g id="node5" class="node">
<title>Node5</title>
<g id="a_node5"><a xlink:href="_corpse_8hpp.html" target="_top" xlink:title=" ">
<polygon fill="none" stroke="black" points="154.5,-336.5 154.5,-355.5 225.5,-355.5 225.5,-336.5 154.5,-336.5"/>
<text text-anchor="middle" x="190" y="-343.5" font-family="Helvetica,sans-Serif" font-size="10.00">Corpse.hpp</text>
</a>
</g>
</g>
<!-- Node1&#45;&gt;Node5 -->
<g id="edge43" class="edge">
<title>Node1&#45;&gt;Node5</title>
<path fill="none" stroke="midnightblue" d="M549.22,-504.38C465.81,-467.84 288.78,-390.28 219.07,-359.74"/>
<polygon fill="midnightblue" stroke="midnightblue" points="220.16,-356.39 209.59,-355.58 217.35,-362.8 220.16,-356.39"/>
</g>
<!-- Node13 -->
<g id="node13" class="node">
<title>Node13</title>
<g id="a_node13"><a xlink:href="_maths_8hpp.html" target="_top" xlink:title=" ">
<polygon fill="none" stroke="black" points="437,-56.5 437,-75.5 565,-75.5 565,-56.5 437,-56.5"/>
<text text-anchor="middle" x="501" y="-63.5" font-family="Helvetica,sans-Serif" font-size="10.00">../Geometry/Maths.hpp</text>
</a>
</g>
</g>
<!-- Node1&#45;&gt;Node13 -->
<g id="edge46" class="edge">
<title>Node1&#45;&gt;Node13</title>
<path fill="none" stroke="midnightblue" d="M665.45,-504.42C712.71,-486.62 766,-455.03 766,-403 766,-403 766,-403 766,-177 766,-94.05 653.87,-72.47 575.49,-67.52"/>
<polygon fill="midnightblue" stroke="midnightblue" points="575.33,-64.01 565.15,-66.95 574.94,-70.99 575.33,-64.01"/>
</g>
<!-- Node22 -->
<g id="node22" class="node">
<title>Node22</title>
<g id="a_node22"><a xlink:href="_bounds_8hpp.html" target="_top" xlink:title=" ">
<polygon fill="none" stroke="black" points="546,-168.5 546,-187.5 620,-187.5 620,-168.5 546,-168.5"/>
<text text-anchor="middle" x="583" y="-175.5" font-family="Helvetica,sans-Serif" font-size="10.00">Bounds.hpp</text>
</a>
</g>
</g>
<!-- Node1&#45;&gt;Node22 -->
<g id="edge45" class="edge">
<title>Node1&#45;&gt;Node22</title>
<path fill="none" stroke="midnightblue" d="M594,-504.3C594,-480.35 594,-438.71 594,-403 594,-403 594,-403 594,-289 594,-256.79 589.27,-219.53 586.02,-197.69"/>
<polygon fill="midnightblue" stroke="midnightblue" points="589.43,-196.87 584.44,-187.53 582.51,-197.95 589.43,-196.87"/>
</g>
<!-- Node23 -->
<g id="node23" class="node">
<title>Node23</title>
<g id="a_node23"><a xlink:href="_vector_8hpp.html" target="_top" xlink:title=" ">
<polygon fill="none" stroke="black" points="549,-112.5 549,-131.5 617,-131.5 617,-112.5 549,-112.5"/>
<text text-anchor="middle" x="583" y="-119.5" font-family="Helvetica,sans-Serif" font-size="10.00">Vector.hpp</text>
</a>
</g>
</g>
<!-- Node1&#45;&gt;Node23 -->
<g id="edge47" class="edge">
<title>Node1&#45;&gt;Node23</title>
<path fill="none" stroke="midnightblue" d="M641.24,-504.48C679.82,-485.03 728,-451.11 728,-403 728,-403 728,-403 728,-233 728,-180.53 666.98,-149.84 624.11,-134.76"/>
<polygon fill="midnightblue" stroke="midnightblue" points="625.06,-131.39 614.46,-131.52 622.83,-138.02 625.06,-131.39"/>
</g>
<!-- Node24 -->
<g id="node24" class="node">
<title>Node24</title>
<g id="a_node24"><a xlink:href="_vertices_8hpp.html" target="_top" xlink:title=" ">
<polygon fill="none" stroke="black" points="622.5,-224.5 622.5,-243.5 699.5,-243.5 699.5,-224.5 622.5,-224.5"/>
<text text-anchor="middle" x="661" y="-231.5" font-family="Helvetica,sans-Serif" font-size="10.00">Vertices.hpp</text>
</a>
</g>
</g>
<!-- Node1&#45;&gt;Node24 -->
<g id="edge48" class="edge">
<title>Node1&#45;&gt;Node24</title>
<path fill="none" stroke="midnightblue" d="M608.48,-504.14C623.87,-481.04 646,-441.18 646,-403 646,-403 646,-403 646,-345 646,-312.5 652.51,-275.1 656.95,-253.34"/>
<polygon fill="midnightblue" stroke="midnightblue" points="660.39,-254.01 659.04,-243.5 653.54,-252.56 660.39,-254.01"/>
</g>
<!-- Node25 -->
<g id="node25" class="node">
<title>Node25</title>
<g id="a_node25"><a xlink:href="_polygon_8hpp.html" target="_top" xlink:title=" ">
<polygon fill="none" stroke="black" points="104.5,-392.5 104.5,-411.5 181.5,-411.5 181.5,-392.5 104.5,-392.5"/>
<text text-anchor="middle" x="143" y="-399.5" font-family="Helvetica,sans-Serif" font-size="10.00">Polygon.hpp</text>
</a>
</g>
</g>
<!-- Node1&#45;&gt;Node25 -->
<g id="edge44" class="edge">
<title>Node1&#45;&gt;Node25</title>
<path fill="none" stroke="midnightblue" d="M514.96,-520.32C386.68,-513.54 144.81,-497.03 119,-468 106.82,-454.3 117.64,-433.88 128.4,-419.6"/>
<polygon fill="midnightblue" stroke="midnightblue" points="131.3,-421.58 134.88,-411.61 125.86,-417.17 131.3,-421.58"/>
</g>
<!-- Node3 -->
<g id="node3" class="node">
<title>Node3</title>
<g id="a_node3"><a xlink:title=" ">
<polygon fill="none" stroke="#bfbfbf" points="16.5,-0.5 16.5,-19.5 63.5,-19.5 63.5,-0.5 16.5,-0.5"/>
<text text-anchor="middle" x="40" y="-7.5" font-family="Helvetica,sans-Serif" font-size="10.00">vector</text>
</a>
</g>
</g>
<!-- Node2&#45;&gt;Node3 -->
<g id="edge2" class="edge">
<title>Node2&#45;&gt;Node3</title>
<path fill="none" stroke="midnightblue" d="M131.45,-448.48C76.57,-436.45 0,-408.62 0,-347 0,-347 0,-347 0,-121 0,-86.62 17.47,-49.63 29.32,-28.5"/>
<polygon fill="midnightblue" stroke="midnightblue" points="32.42,-30.13 34.44,-19.73 26.38,-26.61 32.42,-30.13"/>
</g>
<!-- Node4 -->
<g id="node4" class="node">
<title>Node4</title>
<g id="a_node4"><a xlink:title=" ">
<polygon fill="none" stroke="#bfbfbf" points="218,-224.5 218,-243.5 286,-243.5 286,-224.5 218,-224.5"/>
<text text-anchor="middle" x="252" y="-231.5" font-family="Helvetica,sans-Serif" font-size="10.00">Config.hpp</text>
</a>
</g>
</g>
<!-- Node2&#45;&gt;Node4 -->
<g id="edge3" class="edge">
<title>Node2&#45;&gt;Node4</title>
<path fill="none" stroke="midnightblue" d="M193.31,-448.43C207.19,-431.75 237.41,-393.27 254,-356 264.43,-332.56 264.87,-325.46 268,-300 269.09,-291.18 269.51,-288.76 268,-280 266.43,-270.91 263.21,-261.22 260.06,-253.17"/>
<polygon fill="midnightblue" stroke="midnightblue" points="263.19,-251.6 256.11,-243.72 256.74,-254.3 263.19,-251.6"/>
</g>
<!-- Node2&#45;&gt;Node5 -->
<g id="edge4" class="edge">
<title>Node2&#45;&gt;Node5</title>
<path fill="none" stroke="midnightblue" d="M186.99,-448.39C187.98,-439.34 189.44,-424.69 190,-412 190.69,-396.48 190.64,-378.85 190.44,-365.88"/>
<polygon fill="midnightblue" stroke="midnightblue" points="193.94,-365.77 190.25,-355.84 186.94,-365.9 193.94,-365.77"/>
</g>
<!-- Node2&#45;&gt;Node25 -->
<g id="edge38" class="edge">
<title>Node2&#45;&gt;Node25</title>
<path fill="none" stroke="midnightblue" d="M173.73,-448.08C166.13,-440.53 156.95,-429.49 150.38,-420.23"/>
<polygon fill="midnightblue" stroke="midnightblue" points="153.24,-418.21 144.84,-411.75 147.38,-422.04 153.24,-418.21"/>
</g>
<!-- Node5&#45;&gt;Node3 -->
<g id="edge8" class="edge">
<title>Node5&#45;&gt;Node3</title>
<path fill="none" stroke="midnightblue" d="M169.36,-336.42C136.5,-321.23 76,-286.29 76,-235 76,-235 76,-235 76,-121 76,-86.98 60.26,-49.85 49.59,-28.6"/>
<polygon fill="midnightblue" stroke="midnightblue" points="52.59,-26.77 44.86,-19.53 46.38,-30.01 52.59,-26.77"/>
</g>
<!-- Node5&#45;&gt;Node4 -->
<g id="edge37" class="edge">
<title>Node5&#45;&gt;Node4</title>
<path fill="none" stroke="midnightblue" d="M194.87,-336.37C205.05,-318.3 228.79,-276.18 242.24,-252.31"/>
<polygon fill="midnightblue" stroke="midnightblue" points="245.3,-254.02 247.16,-243.59 239.2,-250.58 245.3,-254.02"/>
</g>
<!-- Node6 -->
<g id="node6" class="node">
<title>Node6</title>
<g id="a_node6"><a xlink:title=" ">
<polygon fill="none" stroke="#bfbfbf" points="159.5,-0.5 159.5,-19.5 206.5,-19.5 206.5,-0.5 159.5,-0.5"/>
<text text-anchor="middle" x="183" y="-7.5" font-family="Helvetica,sans-Serif" font-size="10.00">cmath</text>
</a>
</g>
</g>
<!-- Node5&#45;&gt;Node6 -->
<g id="edge5" class="edge">
<title>Node5&#45;&gt;Node6</title>
<path fill="none" stroke="midnightblue" d="M184.72,-336.23C174.27,-318.04 152,-274.6 152,-235 152,-235 152,-235 152,-121 152,-87.41 165.56,-50.14 174.74,-28.75"/>
<polygon fill="midnightblue" stroke="midnightblue" points="177.94,-30.17 178.82,-19.61 171.55,-27.31 177.94,-30.17"/>
</g>
<!-- Node7 -->
<g id="node7" class="node">
<title>Node7</title>
<g id="a_node7"><a xlink:title=" ">
<polygon fill="none" stroke="#bfbfbf" points="225,-0.5 225,-19.5 285,-19.5 285,-0.5 225,-0.5"/>
<text text-anchor="middle" x="255" y="-7.5" font-family="Helvetica,sans-Serif" font-size="10.00">iostream</text>
</a>
</g>
</g>
<!-- Node5&#45;&gt;Node7 -->
<g id="edge6" class="edge">
<title>Node5&#45;&gt;Node7</title>
<path fill="none" stroke="midnightblue" d="M190,-336.44C190,-317.94 190,-272.81 190,-235 190,-235 190,-235 190,-121 190,-83.18 218.84,-46.94 238.09,-26.96"/>
<polygon fill="midnightblue" stroke="midnightblue" points="240.8,-29.2 245.41,-19.66 235.86,-24.24 240.8,-29.2"/>
</g>
<!-- Node8 -->
<g id="node8" class="node">
<title>Node8</title>
<g id="a_node8"><a xlink:title=" ">
<polygon fill="none" stroke="#bfbfbf" points="83,-0.5 83,-19.5 141,-19.5 141,-0.5 83,-0.5"/>
<text text-anchor="middle" x="112" y="-7.5" font-family="Helvetica,sans-Serif" font-size="10.00">memory</text>
</a>
</g>
</g>
<!-- Node5&#45;&gt;Node8 -->
<g id="edge7" class="edge">
<title>Node5&#45;&gt;Node8</title>
<path fill="none" stroke="midnightblue" d="M178.46,-336.43C157.2,-319.57 114,-279.8 114,-235 114,-235 114,-235 114,-121 114,-88.94 113.14,-51.64 112.55,-29.75"/>
<polygon fill="midnightblue" stroke="midnightblue" points="116.04,-29.45 112.26,-19.56 109.04,-29.65 116.04,-29.45"/>
</g>
<!-- Node9 -->
<g id="node9" class="node">
<title>Node9</title>
<g id="a_node9"><a xlink:href="_geometry_8hpp.html" target="_top" xlink:title=" ">
<polygon fill="none" stroke="black" points="343,-280.5 343,-299.5 489,-299.5 489,-280.5 343,-280.5"/>
<text text-anchor="middle" x="416" y="-287.5" font-family="Helvetica,sans-Serif" font-size="10.00">../Geometry/Geometry.hpp</text>
</a>
</g>
</g>
<!-- Node5&#45;&gt;Node9 -->
<g id="edge9" class="edge">
<title>Node5&#45;&gt;Node9</title>
<path fill="none" stroke="midnightblue" d="M225.56,-336.5C264.69,-327.15 327.68,-312.1 370.41,-301.89"/>
<polygon fill="midnightblue" stroke="midnightblue" points="371.36,-305.26 380.27,-299.54 369.73,-298.46 371.36,-305.26"/>
</g>
<!-- Node9&#45;&gt;Node4 -->
<g id="edge30" class="edge">
<title>Node9&#45;&gt;Node4</title>
<path fill="none" stroke="midnightblue" d="M390.01,-280.44C362.3,-271.32 318.25,-256.81 287.38,-246.65"/>
<polygon fill="midnightblue" stroke="midnightblue" points="288.46,-243.32 277.86,-243.52 286.27,-249.97 288.46,-243.32"/>
</g>
<!-- Node10 -->
<g id="node10" class="node">
<title>Node10</title>
<g id="a_node10"><a xlink:href="_recorder_8hpp.html" target="_top" xlink:title=" ">
<polygon fill="none" stroke="black" points="342,-224.5 342,-243.5 490,-243.5 490,-224.5 342,-224.5"/>
<text text-anchor="middle" x="416" y="-231.5" font-family="Helvetica,sans-Serif" font-size="10.00">../Benchmark/Recorder.hpp</text>
</a>
</g>
</g>
<!-- Node9&#45;&gt;Node10 -->
<g id="edge10" class="edge">
<title>Node9&#45;&gt;Node10</title>
<path fill="none" stroke="midnightblue" d="M416,-280.08C416,-273.01 416,-262.86 416,-253.99"/>
<polygon fill="midnightblue" stroke="midnightblue" points="419.5,-253.75 416,-243.75 412.5,-253.75 419.5,-253.75"/>
</g>
<!-- Node9&#45;&gt;Node13 -->
<g id="edge31" class="edge">
<title>Node9&#45;&gt;Node13</title>
<path fill="none" stroke="midnightblue" d="M383.82,-280.49C365.46,-273.8 343.98,-262.45 333,-244 328.45,-236.36 331.12,-232.69 333,-224 344.6,-170.55 344.18,-149.5 384,-112 401.24,-95.76 424.97,-85.2 446.55,-78.42"/>
<polygon fill="midnightblue" stroke="midnightblue" points="447.68,-81.74 456.29,-75.56 445.71,-75.02 447.68,-81.74"/>
</g>
<!-- Node9&#45;&gt;Node22 -->
<g id="edge26" class="edge">
<title>Node9&#45;&gt;Node22</title>
<path fill="none" stroke="midnightblue" d="M451.95,-280.44C476.21,-273.44 508.05,-261.75 532,-244 549.23,-231.23 563.73,-211.21 572.81,-196.76"/>
<polygon fill="midnightblue" stroke="midnightblue" points="576.04,-198.18 578.2,-187.8 570.04,-194.57 576.04,-198.18"/>
</g>
<!-- Node9&#45;&gt;Node23 -->
<g id="edge32" class="edge">
<title>Node9&#45;&gt;Node23</title>
<path fill="none" stroke="midnightblue" d="M440.34,-280.44C458.38,-273.08 482.59,-260.96 499,-244 525.26,-216.86 514.75,-198.51 537,-168 544.86,-157.22 555.4,-146.7 564.41,-138.55"/>
<polygon fill="midnightblue" stroke="midnightblue" points="566.91,-141.01 572.13,-131.79 562.3,-135.74 566.91,-141.01"/>
</g>
<!-- Node9&#45;&gt;Node24 -->
<g id="edge33" class="edge">
<title>Node9&#45;&gt;Node24</title>
<path fill="none" stroke="midnightblue" d="M454.82,-280.44C497.56,-271.02 566.33,-255.87 612.57,-245.68"/>
<polygon fill="midnightblue" stroke="midnightblue" points="613.35,-249.09 622.36,-243.52 611.84,-242.25 613.35,-249.09"/>
</g>
<!-- Node11 -->
<g id="node11" class="node">
<title>Node11</title>
<g id="a_node11"><a xlink:href="_performance_8hpp.html" target="_top" xlink:title=" ">
<polygon fill="none" stroke="black" points="378,-168.5 378,-187.5 478,-187.5 478,-168.5 378,-168.5"/>
<text text-anchor="middle" x="428" y="-175.5" font-family="Helvetica,sans-Serif" font-size="10.00">Performance.hpp</text>
</a>
</g>
</g>
<!-- Node10&#45;&gt;Node11 -->
<g id="edge11" class="edge">
<title>Node10&#45;&gt;Node11</title>
<path fill="none" stroke="midnightblue" d="M417.98,-224.08C419.57,-216.93 421.86,-206.64 423.85,-197.69"/>
<polygon fill="midnightblue" stroke="midnightblue" points="427.3,-198.27 426.06,-187.75 420.47,-196.75 427.3,-198.27"/>
</g>
<!-- Node12 -->
<g id="node12" class="node">
<title>Node12</title>
<g id="a_node12"><a xlink:href="_block_data_8hpp.html" target="_top" xlink:title=" ">
<polygon fill="none" stroke="black" points="393,-112.5 393,-131.5 481,-131.5 481,-112.5 393,-112.5"/>
<text text-anchor="middle" x="437" y="-119.5" font-family="Helvetica,sans-Serif" font-size="10.00">BlockData.hpp</text>
</a>
</g>
</g>
<!-- Node11&#45;&gt;Node12 -->
<g id="edge12" class="edge">
<title>Node11&#45;&gt;Node12</title>
<path fill="none" stroke="midnightblue" d="M429.49,-168.08C430.68,-160.93 432.39,-150.64 433.88,-141.69"/>
<polygon fill="midnightblue" stroke="midnightblue" points="437.35,-142.19 435.54,-131.75 430.45,-141.04 437.35,-142.19"/>
</g>
<!-- Node12&#45;&gt;Node13 -->
<g id="edge13" class="edge">
<title>Node12&#45;&gt;Node13</title>
<path fill="none" stroke="midnightblue" d="M447.28,-112.32C456.84,-104.26 471.28,-92.08 482.78,-82.37"/>
<polygon fill="midnightblue" stroke="midnightblue" points="485.14,-84.96 490.53,-75.83 480.63,-79.61 485.14,-84.96"/>
</g>
<!-- Node13&#45;&gt;Node3 -->
<g id="edge25" class="edge">
<title>Node13&#45;&gt;Node3</title>
<path fill="none" stroke="midnightblue" d="M436.9,-61.33C352.98,-55.82 201.56,-43.46 74,-20 73.89,-19.98 73.79,-19.96 73.68,-19.94"/>
<polygon fill="midnightblue" stroke="midnightblue" points="74.19,-16.47 63.67,-17.76 72.7,-23.31 74.19,-16.47"/>
</g>
<!-- Node13&#45;&gt;Node6 -->
<g id="edge16" class="edge">
<title>Node13&#45;&gt;Node6</title>
<path fill="none" stroke="midnightblue" d="M436.96,-56.93C381.22,-49.45 298.1,-37.17 216.64,-19.93"/>
<polygon fill="midnightblue" stroke="midnightblue" points="217.23,-16.48 206.72,-17.8 215.76,-23.32 217.23,-16.48"/>
</g>
<!-- Node13&#45;&gt;Node7 -->
<g id="edge19" class="edge">
<title>Node13&#45;&gt;Node7</title>
<path fill="none" stroke="midnightblue" d="M461.49,-56.45C420.01,-47.45 352.9,-32.84 295,-20 294.9,-19.98 294.8,-19.96 294.7,-19.93"/>
<polygon fill="midnightblue" stroke="midnightblue" points="295.66,-16.56 285.14,-17.8 294.14,-23.39 295.66,-16.56"/>
</g>
<!-- Node13&#45;&gt;Node8 -->
<g id="edge21" class="edge">
<title>Node13&#45;&gt;Node8</title>
<path fill="none" stroke="midnightblue" d="M436.96,-58.83C368.5,-51.78 256.61,-38.93 151.24,-20.07"/>
<polygon fill="midnightblue" stroke="midnightblue" points="151.86,-16.62 141.39,-18.28 150.61,-23.51 151.86,-16.62"/>
</g>
<!-- Node14 -->
<g id="node14" class="node">
<title>Node14</title>
<g id="a_node14"><a xlink:title=" ">
<polygon fill="none" stroke="#bfbfbf" points="652,-0.5 652,-19.5 694,-19.5 694,-0.5 652,-0.5"/>
<text text-anchor="middle" x="673" y="-7.5" font-family="Helvetica,sans-Serif" font-size="10.00">array</text>
</a>
</g>
</g>
<!-- Node13&#45;&gt;Node14 -->
<g id="edge14" class="edge">
<title>Node13&#45;&gt;Node14</title>
<path fill="none" stroke="midnightblue" d="M528.25,-56.44C559.2,-46.73 609.57,-30.91 641.99,-20.74"/>
<polygon fill="midnightblue" stroke="midnightblue" points="643.35,-23.98 651.84,-17.64 641.25,-17.3 643.35,-23.98"/>
</g>
<!-- Node15 -->
<g id="node15" class="node">
<title>Node15</title>
<g id="a_node15"><a xlink:title=" ">
<polygon fill="none" stroke="#bfbfbf" points="712,-0.5 712,-19.5 762,-19.5 762,-0.5 712,-0.5"/>
<text text-anchor="middle" x="737" y="-7.5" font-family="Helvetica,sans-Serif" font-size="10.00">chrono</text>
</a>
</g>
</g>
<!-- Node13&#45;&gt;Node15 -->
<g id="edge15" class="edge">
<title>Node13&#45;&gt;Node15</title>
<path fill="none" stroke="midnightblue" d="M541.73,-56.42C580.53,-48.14 640.81,-34.99 701.96,-20.18"/>
<polygon fill="midnightblue" stroke="midnightblue" points="702.89,-23.56 711.78,-17.8 701.23,-16.76 702.89,-23.56"/>
</g>
<!-- Node16 -->
<g id="node16" class="node">
<title>Node16</title>
<g id="a_node16"><a xlink:title=" ">
<polygon fill="none" stroke="#bfbfbf" points="780.5,-0.5 780.5,-19.5 827.5,-19.5 827.5,-0.5 780.5,-0.5"/>
<text text-anchor="middle" x="804" y="-7.5" font-family="Helvetica,sans-Serif" font-size="10.00">deque</text>
</a>
</g>
</g>
<!-- Node13&#45;&gt;Node16 -->
<g id="edge17" class="edge">
<title>Node13&#45;&gt;Node16</title>
<path fill="none" stroke="midnightblue" d="M563,-56.49C615.69,-48.84 693.51,-36.57 770.42,-19.94"/>
<polygon fill="midnightblue" stroke="midnightblue" points="771.26,-23.33 780.28,-17.78 769.76,-16.5 771.26,-23.33"/>
</g>
<!-- Node17 -->
<g id="node17" class="node">
<title>Node17</title>
<g id="a_node17"><a xlink:title=" ">
<polygon fill="none" stroke="#bfbfbf" points="845.5,-0.5 845.5,-19.5 910.5,-19.5 910.5,-0.5 845.5,-0.5"/>
<text text-anchor="middle" x="878" y="-7.5" font-family="Helvetica,sans-Serif" font-size="10.00">functional</text>
</a>
</g>
</g>
<!-- Node13&#45;&gt;Node17 -->
<g id="edge18" class="edge">
<title>Node13&#45;&gt;Node17</title>
<path fill="none" stroke="midnightblue" d="M565.03,-58.03C630.63,-50.52 735.77,-37.49 835.44,-20.16"/>
<polygon fill="midnightblue" stroke="midnightblue" points="836.13,-23.59 845.37,-18.42 834.92,-16.7 836.13,-23.59"/>
</g>
<!-- Node18 -->
<g id="node18" class="node">
<title>Node18</title>
<g id="a_node18"><a xlink:title=" ">
<polygon fill="none" stroke="#bfbfbf" points="303.5,-0.5 303.5,-19.5 356.5,-19.5 356.5,-0.5 303.5,-0.5"/>
<text text-anchor="middle" x="330" y="-7.5" font-family="Helvetica,sans-Serif" font-size="10.00">iterator</text>
</a>
</g>
</g>
<!-- Node13&#45;&gt;Node18 -->
<g id="edge20" class="edge">
<title>Node13&#45;&gt;Node18</title>
<path fill="none" stroke="midnightblue" d="M473.9,-56.44C444.93,-47.29 398.8,-32.73 366.61,-22.56"/>
<polygon fill="midnightblue" stroke="midnightblue" points="367.28,-19.1 356.69,-19.43 365.17,-25.78 367.28,-19.1"/>
</g>
<!-- Node19 -->
<g id="node19" class="node">
<title>Node19</title>
<g id="a_node19"><a xlink:title=" ">
<polygon fill="none" stroke="#bfbfbf" points="375,-0.5 375,-19.5 431,-19.5 431,-0.5 375,-0.5"/>
<text text-anchor="middle" x="403" y="-7.5" font-family="Helvetica,sans-Serif" font-size="10.00">sstream</text>
</a>
</g>
</g>
<!-- Node13&#45;&gt;Node19 -->
<g id="edge22" class="edge">
<title>Node13&#45;&gt;Node19</title>
<path fill="none" stroke="midnightblue" d="M485.25,-56.32C469.68,-47.74 445.62,-34.49 427.54,-24.52"/>
<polygon fill="midnightblue" stroke="midnightblue" points="429.15,-21.42 418.71,-19.65 425.78,-27.55 429.15,-21.42"/>
</g>
<!-- Node20 -->
<g id="node20" class="node">
<title>Node20</title>
<g id="a_node20"><a xlink:title=" ">
<polygon fill="none" stroke="#bfbfbf" points="449.5,-0.5 449.5,-19.5 522.5,-19.5 522.5,-0.5 449.5,-0.5"/>
<text text-anchor="middle" x="486" y="-7.5" font-family="Helvetica,sans-Serif" font-size="10.00">string_view</text>
</a>
</g>
</g>
<!-- Node13&#45;&gt;Node20 -->
<g id="edge23" class="edge">
<title>Node13&#45;&gt;Node20</title>
<path fill="none" stroke="midnightblue" d="M498.52,-56.08C496.51,-48.85 493.61,-38.41 491.11,-29.4"/>
<polygon fill="midnightblue" stroke="midnightblue" points="494.48,-28.45 488.43,-19.75 487.74,-30.32 494.48,-28.45"/>
</g>
<!-- Node21 -->
<g id="node21" class="node">
<title>Node21</title>
<g id="a_node21"><a xlink:title=" ">
<polygon fill="none" stroke="#bfbfbf" points="540.5,-0.5 540.5,-19.5 633.5,-19.5 633.5,-0.5 540.5,-0.5"/>
<text text-anchor="middle" x="587" y="-7.5" font-family="Helvetica,sans-Serif" font-size="10.00">unordered_map</text>
</a>
</g>
</g>
<!-- Node13&#45;&gt;Node21 -->
<g id="edge24" class="edge">
<title>Node13&#45;&gt;Node21</title>
<path fill="none" stroke="midnightblue" d="M514.82,-56.32C528.23,-47.9 548.82,-34.97 564.59,-25.07"/>
<polygon fill="midnightblue" stroke="midnightblue" points="566.61,-27.94 573.22,-19.65 562.89,-22.01 566.61,-27.94"/>
</g>
<!-- Node22&#45;&gt;Node13 -->
<g id="edge27" class="edge">
<title>Node22&#45;&gt;Node13</title>
<path fill="none" stroke="midnightblue" d="M573.47,-168.23C564.31,-159.54 550.35,-145.58 540,-132 528.55,-116.99 517.69,-98.39 510.35,-84.94"/>
<polygon fill="midnightblue" stroke="midnightblue" points="513.27,-82.98 505.47,-75.8 507.09,-86.27 513.27,-82.98"/>
</g>
<!-- Node22&#45;&gt;Node23 -->
<g id="edge28" class="edge">
<title>Node22&#45;&gt;Node23</title>
<path fill="none" stroke="midnightblue" d="M583,-168.08C583,-161.01 583,-150.86 583,-141.99"/>
<polygon fill="midnightblue" stroke="midnightblue" points="586.5,-141.75 583,-131.75 579.5,-141.75 586.5,-141.75"/>
</g>
<!-- Node23&#45;&gt;Node13 -->
<g id="edge29" class="edge">
<title>Node23&#45;&gt;Node13</title>
<path fill="none" stroke="midnightblue" d="M569.83,-112.32C557.15,-103.98 537.77,-91.21 522.79,-81.35"/>
<polygon fill="midnightblue" stroke="midnightblue" points="524.42,-78.23 514.14,-75.65 520.57,-84.08 524.42,-78.23"/>
</g>
<!-- Node24&#45;&gt;Node13 -->
<g id="edge35" class="edge">
<title>Node24&#45;&gt;Node13</title>
<path fill="none" stroke="midnightblue" d="M661.21,-224.23C661.25,-202.04 658.15,-143.24 626,-112 608.92,-95.41 585.3,-84.88 563.18,-78.22"/>
<polygon fill="midnightblue" stroke="midnightblue" points="564.05,-74.84 553.48,-75.52 562.17,-81.58 564.05,-74.84"/>
</g>
<!-- Node24&#45;&gt;Node22 -->
<g id="edge34" class="edge">
<title>Node24&#45;&gt;Node22</title>
<path fill="none" stroke="midnightblue" d="M648.47,-224.32C636.41,-215.98 617.97,-203.21 603.73,-193.35"/>
<polygon fill="midnightblue" stroke="midnightblue" points="605.72,-190.47 595.5,-187.65 601.73,-196.22 605.72,-190.47"/>
</g>
<!-- Node24&#45;&gt;Node23 -->
<g id="edge36" class="edge">
<title>Node24&#45;&gt;Node23</title>
<path fill="none" stroke="midnightblue" d="M657.89,-224.49C652.94,-211.57 642.43,-186.54 629,-168 621.17,-157.19 610.64,-146.68 601.62,-138.53"/>
<polygon fill="midnightblue" stroke="midnightblue" points="603.73,-135.72 593.89,-131.77 599.12,-140.99 603.73,-135.72"/>
</g>
<!-- Node25&#45;&gt;Node2 -->
<g id="edge40" class="edge">
<title>Node25&#45;&gt;Node2</title>
<path fill="none" stroke="midnightblue" d="M155.1,-411.75C162.68,-419.25 171.87,-430.27 178.48,-439.57"/>
<polygon fill="midnightblue" stroke="midnightblue" points="175.65,-441.64 184.07,-448.08 181.5,-437.8 175.65,-441.64"/>
</g>
<!-- Node25&#45;&gt;Node3 -->
<g id="edge39" class="edge">
<title>Node25&#45;&gt;Node3</title>
<path fill="none" stroke="midnightblue" d="M124.71,-392.35C94.63,-376.69 38,-340.63 38,-291 38,-291 38,-291 38,-121 38,-88.94 38.86,-51.64 39.45,-29.75"/>
<polygon fill="midnightblue" stroke="midnightblue" points="42.96,-29.65 39.74,-19.56 35.96,-29.45 42.96,-29.65"/>
</g>
<!-- Node25&#45;&gt;Node4 -->
<g id="edge41" class="edge">
<title>Node25&#45;&gt;Node4</title>
<path fill="none" stroke="midnightblue" d="M177.63,-392.49C197.25,-385.83 220.51,-374.52 234,-356 256.12,-325.63 256.27,-279.45 254.24,-253.82"/>
<polygon fill="midnightblue" stroke="midnightblue" points="257.7,-253.22 253.23,-243.61 250.73,-253.91 257.7,-253.22"/>
</g>
<!-- Node25&#45;&gt;Node5 -->
<g id="edge42" class="edge">
<title>Node25&#45;&gt;Node5</title>
<path fill="none" stroke="midnightblue" d="M150.76,-392.08C157.54,-384.3 167.54,-372.8 175.76,-363.37"/>
<polygon fill="midnightblue" stroke="midnightblue" points="178.46,-365.59 182.38,-355.75 173.18,-361 178.46,-365.59"/>
</g>
</g>
</svg>
