<?xml version="1.0" encoding="UTF-8" standalone="no"?>
<!DOCTYPE svg PUBLIC "-//W3C//DTD SVG 1.1//EN"
 "http://www.w3.org/Graphics/SVG/1.1/DTD/svg11.dtd">
<!-- Generated by graphviz version 2.43.0 (0)
 -->
<!-- Title: /home/runner/work/Simulatio/Simulatio/src/Geometry/Collision.cpp Pages: 1 -->
<svg width="849pt" height="621pt"
 viewBox="0.00 0.00 848.50 621.00" xmlns="http://www.w3.org/2000/svg" xmlns:xlink="http://www.w3.org/1999/xlink">
<g id="graph0" class="graph" transform="scale(1 1) rotate(0) translate(4 617)">
<title>/home/runner/work/Simulatio/Simulatio/src/Geometry/Collision.cpp</title>
<!-- Node1 -->
<g id="node1" class="node">
<title>Node1</title>
<g id="a_node1"><a xlink:title=" ">
<polygon fill="#bfbfbf" stroke="black" points="506,-571.5 506,-612.5 664,-612.5 664,-571.5 506,-571.5"/>
<text text-anchor="start" x="514" y="-600.5" font-family="Helvetica,sans-Serif" font-size="10.00">/home/runner/work/Simulatio</text>
<text text-anchor="start" x="514" y="-589.5" font-family="Helvetica,sans-Serif" font-size="10.00">/Simulatio/src/Geometry</text>
<text text-anchor="middle" x="585" y="-578.5" font-family="Helvetica,sans-Serif" font-size="10.00">/Collision.cpp</text>
</a>
</g>
</g>
<!-- Node2 -->
<g id="node2" class="node">
<title>Node2</title>
<g id="a_node2"><a xlink:href="_collision_8hpp.html" target="_top" xlink:title=" ">
<polygon fill="none" stroke="black" points="524,-504.5 524,-534.5 646,-534.5 646,-504.5 524,-504.5"/>
<text text-anchor="start" x="532" y="-522.5" font-family="Helvetica,sans-Serif" font-size="10.00">../../include/Geometry</text>
<text text-anchor="middle" x="585" y="-511.5" font-family="Helvetica,sans-Serif" font-size="10.00">/Collision.hpp</text>
</a>
</g>
</g>
<!-- Node1&#45;&gt;Node2 -->
<g id="edge1" class="edge">
<title>Node1&#45;&gt;Node2</title>
<path fill="none" stroke="midnightblue" d="M585,-571.36C585,-563.23 585,-553.7 585,-545.11"/>
<polygon fill="midnightblue" stroke="midnightblue" points="588.5,-544.89 585,-534.89 581.5,-544.89 588.5,-544.89"/>
</g>
<!-- Node3 -->
<g id="node3" class="node">
<title>Node3</title>
<g id="a_node3"><a xlink:href="_circle_8hpp.html" target="_top" xlink:title=" ">
<polygon fill="none" stroke="black" points="275,-448.5 275,-467.5 391,-467.5 391,-448.5 275,-448.5"/>
<text text-anchor="middle" x="333" y="-455.5" font-family="Helvetica,sans-Serif" font-size="10.00">../Corpses/Circle.hpp</text>
</a>
</g>
</g>
<!-- Node2&#45;&gt;Node3 -->
<g id="edge2" class="edge">
<title>Node2&#45;&gt;Node3</title>
<path fill="none" stroke="midnightblue" d="M525.6,-504.47C480.7,-493.87 419.97,-479.53 378.79,-469.81"/>
<polygon fill="midnightblue" stroke="midnightblue" points="379.56,-466.4 369.03,-467.51 377.96,-473.21 379.56,-466.4"/>
</g>
<!-- Node6 -->
<g id="node6" class="node">
<title>Node6</title>
<g id="a_node6"><a xlink:href="_corpse_8hpp.html" target="_top" xlink:title=" ">
<polygon fill="none" stroke="black" points="154.5,-336.5 154.5,-355.5 225.5,-355.5 225.5,-336.5 154.5,-336.5"/>
<text text-anchor="middle" x="190" y="-343.5" font-family="Helvetica,sans-Serif" font-size="10.00">Corpse.hpp</text>
</a>
</g>
</g>
<!-- Node2&#45;&gt;Node6 -->
<g id="edge43" class="edge">
<title>Node2&#45;&gt;Node6</title>
<path fill="none" stroke="midnightblue" d="M523.76,-514.8C443.28,-508.94 307.3,-495.26 266,-468 228.35,-443.15 205.84,-392.54 195.96,-365.31"/>
<polygon fill="midnightblue" stroke="midnightblue" points="199.25,-364.13 192.68,-355.82 192.64,-366.42 199.25,-364.13"/>
</g>
<!-- Node14 -->
<g id="node14" class="node">
<title>Node14</title>
<g id="a_node14"><a xlink:href="_maths_8hpp.html" target="_top" xlink:title=" ">
<polygon fill="none" stroke="black" points="420,-56.5 420,-75.5 548,-75.5 548,-56.5 420,-56.5"/>
<text text-anchor="middle" x="484" y="-63.5" font-family="Helvetica,sans-Serif" font-size="10.00">../Geometry/Maths.hpp</text>
</a>
</g>
</g>
<!-- Node2&#45;&gt;Node14 -->
<g id="edge46" class="edge">
<title>Node2&#45;&gt;Node14</title>
<path fill="none" stroke="midnightblue" d="M646.03,-506.09C698.57,-491.42 766,-461.24 766,-403 766,-403 766,-403 766,-177 766,-129.39 624.73,-94.07 542.17,-77.49"/>
<polygon fill="midnightblue" stroke="midnightblue" points="542.65,-74.02 532.16,-75.52 541.29,-80.89 542.65,-74.02"/>
</g>
<!-- Node22 -->
<g id="node22" class="node">
<title>Node22</title>
<g id="a_node22"><a xlink:href="_bounds_8hpp.html" target="_top" xlink:title=" ">
<polygon fill="none" stroke="black" points="512,-168.5 512,-187.5 586,-187.5 586,-168.5 512,-168.5"/>
<text text-anchor="middle" x="549" y="-175.5" font-family="Helvetica,sans-Serif" font-size="10.00">Bounds.hpp</text>
</a>
</g>
</g>
<!-- Node2&#45;&gt;Node22 -->
<g id="edge45" class="edge">
<title>Node2&#45;&gt;Node22</title>
<path fill="none" stroke="midnightblue" d="M611.5,-504.41C642.6,-485.73 690,-449.61 690,-403 690,-403 690,-403 690,-289 690,-237.26 630.26,-206.27 588.55,-190.94"/>
<polygon fill="midnightblue" stroke="midnightblue" points="589.5,-187.56 578.9,-187.55 587.18,-194.17 589.5,-187.56"/>
</g>
<!-- Node23 -->
<g id="node23" class="node">
<title>Node23</title>
<g id="a_node23"><a xlink:href="_vector_8hpp.html" target="_top" xlink:title=" ">
<polygon fill="none" stroke="black" points="580,-112.5 580,-131.5 648,-131.5 648,-112.5 580,-112.5"/>
<text text-anchor="middle" x="614" y="-119.5" font-family="Helvetica,sans-Serif" font-size="10.00">Vector.hpp</text>
</a>
</g>
</g>
<!-- Node2&#45;&gt;Node23 -->
<g id="edge47" class="edge">
<title>Node2&#45;&gt;Node23</title>
<path fill="none" stroke="midnightblue" d="M627.9,-504.44C670.03,-487.62 728,-455.02 728,-403 728,-403 728,-403 728,-233 728,-186.11 677.45,-152.89 643.67,-135.93"/>
<polygon fill="midnightblue" stroke="midnightblue" points="645.17,-132.77 634.64,-131.58 642.13,-139.07 645.17,-132.77"/>
</g>
<!-- Node24 -->
<g id="node24" class="node">
<title>Node24</title>
<g id="a_node24"><a xlink:href="_vertices_8hpp.html" target="_top" xlink:title=" ">
<polygon fill="none" stroke="black" points="546.5,-224.5 546.5,-243.5 623.5,-243.5 623.5,-224.5 546.5,-224.5"/>
<text text-anchor="middle" x="585" y="-231.5" font-family="Helvetica,sans-Serif" font-size="10.00">Vertices.hpp</text>
</a>
</g>
</g>
<!-- Node2&#45;&gt;Node24 -->
<g id="edge48" class="edge">
<title>Node2&#45;&gt;Node24</title>
<path fill="none" stroke="midnightblue" d="M585,-504.28C585,-482.48 585,-439.49 585,-403 585,-403 585,-403 585,-345 585,-312.95 585,-275.64 585,-253.75"/>
<polygon fill="midnightblue" stroke="midnightblue" points="588.5,-253.56 585,-243.56 581.5,-253.56 588.5,-253.56"/>
</g>
<!-- Node25 -->
<g id="node25" class="node">
<title>Node25</title>
<g id="a_node25"><a xlink:href="_polygon_8hpp.html" target="_top" xlink:title=" ">
<polygon fill="none" stroke="black" points="294.5,-392.5 294.5,-411.5 371.5,-411.5 371.5,-392.5 294.5,-392.5"/>
<text text-anchor="middle" x="333" y="-399.5" font-family="Helvetica,sans-Serif" font-size="10.00">Polygon.hpp</text>
</a>
</g>
</g>
<!-- Node2&#45;&gt;Node25 -->
<g id="edge44" class="edge">
<title>Node2&#45;&gt;Node25</title>
<path fill="none" stroke="midnightblue" d="M554.1,-504.34C504.65,-481.67 408.48,-437.6 360.96,-415.82"/>
<polygon fill="midnightblue" stroke="midnightblue" points="362.14,-412.51 351.59,-411.52 359.23,-418.87 362.14,-412.51"/>
</g>
<!-- Node4 -->
<g id="node4" class="node">
<title>Node4</title>
<g id="a_node4"><a xlink:title=" ">
<polygon fill="none" stroke="#bfbfbf" points="14.5,-0.5 14.5,-19.5 61.5,-19.5 61.5,-0.5 14.5,-0.5"/>
<text text-anchor="middle" x="38" y="-7.5" font-family="Helvetica,sans-Serif" font-size="10.00">vector</text>
</a>
</g>
</g>
<!-- Node3&#45;&gt;Node4 -->
<g id="edge3" class="edge">
<title>Node3&#45;&gt;Node4</title>
<path fill="none" stroke="midnightblue" d="M275,-449.95C179.59,-436.73 0,-404.23 0,-347 0,-347 0,-347 0,-121 0,-86.81 16.6,-49.76 27.86,-28.57"/>
<polygon fill="midnightblue" stroke="midnightblue" points="30.95,-30.22 32.72,-19.77 24.82,-26.83 30.95,-30.22"/>
</g>
<!-- Node5 -->
<g id="node5" class="node">
<title>Node5</title>
<g id="a_node5"><a xlink:title=" ">
<polygon fill="none" stroke="#bfbfbf" points="460,-224.5 460,-243.5 528,-243.5 528,-224.5 460,-224.5"/>
<text text-anchor="middle" x="494" y="-231.5" font-family="Helvetica,sans-Serif" font-size="10.00">Config.hpp</text>
</a>
</g>
</g>
<!-- Node3&#45;&gt;Node5 -->
<g id="edge4" class="edge">
<title>Node3&#45;&gt;Node5</title>
<path fill="none" stroke="midnightblue" d="M343.46,-448.21C353.55,-439.49 369.03,-425.51 381,-412 421.9,-365.82 431.36,-352.96 463,-300 472.11,-284.76 480.65,-266.42 486.45,-253.11"/>
<polygon fill="midnightblue" stroke="midnightblue" points="489.77,-254.25 490.48,-243.68 483.34,-251.5 489.77,-254.25"/>
</g>
<!-- Node3&#45;&gt;Node6 -->
<g id="edge5" class="edge">
<title>Node3&#45;&gt;Node6</title>
<path fill="none" stroke="midnightblue" d="M321.78,-448.37C297.45,-429.65 239.6,-385.15 209.28,-361.83"/>
<polygon fill="midnightblue" stroke="midnightblue" points="211.23,-358.91 201.17,-355.59 206.96,-364.46 211.23,-358.91"/>
</g>
<!-- Node3&#45;&gt;Node25 -->
<g id="edge38" class="edge">
<title>Node3&#45;&gt;Node25</title>
<path fill="none" stroke="midnightblue" d="M327.83,-448.08C326.32,-440.93 325.89,-430.64 326.54,-421.69"/>
<polygon fill="midnightblue" stroke="midnightblue" points="330.02,-422.13 327.87,-411.75 323.08,-421.2 330.02,-422.13"/>
</g>
<!-- Node6&#45;&gt;Node4 -->
<g id="edge9" class="edge">
<title>Node6&#45;&gt;Node4</title>
<path fill="none" stroke="midnightblue" d="M169.36,-336.42C136.5,-321.23 76,-286.29 76,-235 76,-235 76,-235 76,-121 76,-86.81 59.4,-49.76 48.14,-28.57"/>
<polygon fill="midnightblue" stroke="midnightblue" points="51.18,-26.83 43.28,-19.77 45.05,-30.22 51.18,-26.83"/>
</g>
<!-- Node6&#45;&gt;Node5 -->
<g id="edge37" class="edge">
<title>Node6&#45;&gt;Node5</title>
<path fill="none" stroke="midnightblue" d="M225.81,-342.89C271.07,-339.09 350.48,-328.59 412,-300 438.09,-287.87 463.29,-265.87 478.71,-250.85"/>
<polygon fill="midnightblue" stroke="midnightblue" points="481.24,-253.27 485.83,-243.73 476.29,-248.32 481.24,-253.27"/>
</g>
<!-- Node7 -->
<g id="node7" class="node">
<title>Node7</title>
<g id="a_node7"><a xlink:title=" ">
<polygon fill="none" stroke="#bfbfbf" points="79.5,-0.5 79.5,-19.5 126.5,-19.5 126.5,-0.5 79.5,-0.5"/>
<text text-anchor="middle" x="103" y="-7.5" font-family="Helvetica,sans-Serif" font-size="10.00">cmath</text>
</a>
</g>
</g>
<!-- Node6&#45;&gt;Node7 -->
<g id="edge6" class="edge">
<title>Node6&#45;&gt;Node7</title>
<path fill="none" stroke="midnightblue" d="M178.46,-336.43C157.2,-319.57 114,-279.8 114,-235 114,-235 114,-235 114,-121 114,-88.79 109.27,-51.53 106.02,-29.69"/>
<polygon fill="midnightblue" stroke="midnightblue" points="109.43,-28.87 104.44,-19.53 102.51,-29.95 109.43,-28.87"/>
</g>
<!-- Node8 -->
<g id="node8" class="node">
<title>Node8</title>
<g id="a_node8"><a xlink:title=" ">
<polygon fill="none" stroke="#bfbfbf" points="145,-0.5 145,-19.5 205,-19.5 205,-0.5 145,-0.5"/>
<text text-anchor="middle" x="175" y="-7.5" font-family="Helvetica,sans-Serif" font-size="10.00">iostream</text>
</a>
</g>
</g>
<!-- Node6&#45;&gt;Node8 -->
<g id="edge7" class="edge">
<title>Node6&#45;&gt;Node8</title>
<path fill="none" stroke="midnightblue" d="M184.72,-336.23C174.27,-318.04 152,-274.6 152,-235 152,-235 152,-235 152,-121 152,-88.12 161.97,-50.86 168.78,-29.24"/>
<polygon fill="midnightblue" stroke="midnightblue" points="172.11,-30.3 171.9,-19.71 165.46,-28.12 172.11,-30.3"/>
</g>
<!-- Node9 -->
<g id="node9" class="node">
<title>Node9</title>
<g id="a_node9"><a xlink:title=" ">
<polygon fill="none" stroke="#bfbfbf" points="223,-0.5 223,-19.5 281,-19.5 281,-0.5 223,-0.5"/>
<text text-anchor="middle" x="252" y="-7.5" font-family="Helvetica,sans-Serif" font-size="10.00">memory</text>
</a>
</g>
</g>
<!-- Node6&#45;&gt;Node9 -->
<g id="edge8" class="edge">
<title>Node6&#45;&gt;Node9</title>
<path fill="none" stroke="midnightblue" d="M190,-336.44C190,-317.94 190,-272.81 190,-235 190,-235 190,-235 190,-121 190,-83.62 217.5,-47.24 235.87,-27.1"/>
<polygon fill="midnightblue" stroke="midnightblue" points="238.51,-29.41 242.85,-19.75 233.43,-24.59 238.51,-29.41"/>
</g>
<!-- Node10 -->
<g id="node10" class="node">
<title>Node10</title>
<g id="a_node10"><a xlink:href="_geometry_8hpp.html" target="_top" xlink:title=" ">
<polygon fill="none" stroke="black" points="257,-280.5 257,-299.5 403,-299.5 403,-280.5 257,-280.5"/>
<text text-anchor="middle" x="330" y="-287.5" font-family="Helvetica,sans-Serif" font-size="10.00">../Geometry/Geometry.hpp</text>
</a>
</g>
</g>
<!-- Node6&#45;&gt;Node10 -->
<g id="edge10" class="edge">
<title>Node6&#45;&gt;Node10</title>
<path fill="none" stroke="midnightblue" d="M212.18,-336.44C235.43,-327.48 272.15,-313.31 298.42,-303.18"/>
<polygon fill="midnightblue" stroke="midnightblue" points="299.85,-306.38 307.92,-299.52 297.33,-299.85 299.85,-306.38"/>
</g>
<!-- Node10&#45;&gt;Node5 -->
<g id="edge30" class="edge">
<title>Node10&#45;&gt;Node5</title>
<path fill="none" stroke="midnightblue" d="M355.99,-280.44C383.7,-271.32 427.75,-256.81 458.62,-246.65"/>
<polygon fill="midnightblue" stroke="midnightblue" points="459.73,-249.97 468.14,-243.52 457.54,-243.32 459.73,-249.97"/>
</g>
<!-- Node11 -->
<g id="node11" class="node">
<title>Node11</title>
<g id="a_node11"><a xlink:href="_recorder_8hpp.html" target="_top" xlink:title=" ">
<polygon fill="none" stroke="black" points="256,-224.5 256,-243.5 404,-243.5 404,-224.5 256,-224.5"/>
<text text-anchor="middle" x="330" y="-231.5" font-family="Helvetica,sans-Serif" font-size="10.00">../Benchmark/Recorder.hpp</text>
</a>
</g>
</g>
<!-- Node10&#45;&gt;Node11 -->
<g id="edge11" class="edge">
<title>Node10&#45;&gt;Node11</title>
<path fill="none" stroke="midnightblue" d="M330,-280.08C330,-273.01 330,-262.86 330,-253.99"/>
<polygon fill="midnightblue" stroke="midnightblue" points="333.5,-253.75 330,-243.75 326.5,-253.75 333.5,-253.75"/>
</g>
<!-- Node10&#45;&gt;Node14 -->
<g id="edge31" class="edge">
<title>Node10&#45;&gt;Node14</title>
<path fill="none" stroke="midnightblue" d="M297.82,-280.49C279.46,-273.8 257.98,-262.45 247,-244 242.45,-236.36 244.05,-232.38 247,-224 268.2,-163.76 284.13,-147.82 337,-112 361.7,-95.27 392.85,-84.57 420.12,-77.82"/>
<polygon fill="midnightblue" stroke="midnightblue" points="421.03,-81.2 429.97,-75.51 419.43,-74.39 421.03,-81.2"/>
</g>
<!-- Node10&#45;&gt;Node22 -->
<g id="edge26" class="edge">
<title>Node10&#45;&gt;Node22</title>
<path fill="none" stroke="midnightblue" d="M346.03,-280.32C376.5,-263.82 440.65,-229.15 451,-224 473.94,-212.58 500.37,-200.51 519.99,-191.75"/>
<polygon fill="midnightblue" stroke="midnightblue" points="521.59,-194.87 529.31,-187.61 518.75,-188.47 521.59,-194.87"/>
</g>
<!-- Node10&#45;&gt;Node23 -->
<g id="edge32" class="edge">
<title>Node10&#45;&gt;Node23</title>
<path fill="none" stroke="midnightblue" d="M403.17,-288.68C483.17,-286.58 603.91,-277.73 633,-244 658.13,-214.86 638.24,-166.45 624.41,-140.58"/>
<polygon fill="midnightblue" stroke="midnightblue" points="627.3,-138.57 619.35,-131.56 621.2,-142 627.3,-138.57"/>
</g>
<!-- Node10&#45;&gt;Node24 -->
<g id="edge33" class="edge">
<title>Node10&#45;&gt;Node24</title>
<path fill="none" stroke="midnightblue" d="M370.41,-280.44C415.51,-270.89 488.46,-255.44 536.58,-245.25"/>
<polygon fill="midnightblue" stroke="midnightblue" points="537.39,-248.66 546.45,-243.16 535.94,-241.81 537.39,-248.66"/>
</g>
<!-- Node12 -->
<g id="node12" class="node">
<title>Node12</title>
<g id="a_node12"><a xlink:href="_performance_8hpp.html" target="_top" xlink:title=" ">
<polygon fill="none" stroke="black" points="318,-168.5 318,-187.5 418,-187.5 418,-168.5 318,-168.5"/>
<text text-anchor="middle" x="368" y="-175.5" font-family="Helvetica,sans-Serif" font-size="10.00">Performance.hpp</text>
</a>
</g>
</g>
<!-- Node11&#45;&gt;Node12 -->
<g id="edge12" class="edge">
<title>Node11&#45;&gt;Node12</title>
<path fill="none" stroke="midnightblue" d="M336.27,-224.08C341.64,-216.46 349.52,-205.26 356.08,-195.94"/>
<polygon fill="midnightblue" stroke="midnightblue" points="358.95,-197.94 361.84,-187.75 353.22,-193.91 358.95,-197.94"/>
</g>
<!-- Node13 -->
<g id="node13" class="node">
<title>Node13</title>
<g id="a_node13"><a xlink:href="_block_data_8hpp.html" target="_top" xlink:title=" ">
<polygon fill="none" stroke="black" points="346,-112.5 346,-131.5 434,-131.5 434,-112.5 346,-112.5"/>
<text text-anchor="middle" x="390" y="-119.5" font-family="Helvetica,sans-Serif" font-size="10.00">BlockData.hpp</text>
</a>
</g>
</g>
<!-- Node12&#45;&gt;Node13 -->
<g id="edge13" class="edge">
<title>Node12&#45;&gt;Node13</title>
<path fill="none" stroke="midnightblue" d="M371.63,-168.08C374.61,-160.77 378.93,-150.18 382.62,-141.1"/>
<polygon fill="midnightblue" stroke="midnightblue" points="385.9,-142.33 386.43,-131.75 379.42,-139.69 385.9,-142.33"/>
</g>
<!-- Node13&#45;&gt;Node14 -->
<g id="edge14" class="edge">
<title>Node13&#45;&gt;Node14</title>
<path fill="none" stroke="midnightblue" d="M405.1,-112.32C419.9,-103.82 442.69,-90.73 459.98,-80.8"/>
<polygon fill="midnightblue" stroke="midnightblue" points="462.01,-83.67 468.93,-75.65 458.52,-77.6 462.01,-83.67"/>
</g>
<!-- Node14&#45;&gt;Node4 -->
<g id="edge25" class="edge">
<title>Node14&#45;&gt;Node4</title>
<path fill="none" stroke="midnightblue" d="M419.68,-61.33C339.93,-56.03 199.78,-44.32 71.65,-20.05"/>
<polygon fill="midnightblue" stroke="midnightblue" points="72.14,-16.58 61.66,-18.13 70.82,-23.45 72.14,-16.58"/>
</g>
<!-- Node14&#45;&gt;Node7 -->
<g id="edge17" class="edge">
<title>Node14&#45;&gt;Node7</title>
<path fill="none" stroke="midnightblue" d="M419.75,-59.37C351.78,-52.8 241.29,-40.43 136.79,-19.9"/>
<polygon fill="midnightblue" stroke="midnightblue" points="137.19,-16.41 126.7,-17.88 135.82,-23.27 137.19,-16.41"/>
</g>
<!-- Node14&#45;&gt;Node8 -->
<g id="edge19" class="edge">
<title>Node14&#45;&gt;Node8</title>
<path fill="none" stroke="midnightblue" d="M426.66,-56.49C374.13,-48.46 293.97,-35.61 215.28,-20.16"/>
<polygon fill="midnightblue" stroke="midnightblue" points="215.68,-16.67 205.19,-18.16 214.32,-23.54 215.68,-16.67"/>
</g>
<!-- Node14&#45;&gt;Node9 -->
<g id="edge21" class="edge">
<title>Node14&#45;&gt;Node9</title>
<path fill="none" stroke="midnightblue" d="M446.8,-56.42C409.8,-47.88 351.13,-34.31 291.08,-20.25"/>
<polygon fill="midnightblue" stroke="midnightblue" points="291.58,-16.77 281.04,-17.89 289.98,-23.58 291.58,-16.77"/>
</g>
<!-- Node15 -->
<g id="node15" class="node">
<title>Node15</title>
<g id="a_node15"><a xlink:title=" ">
<polygon fill="none" stroke="#bfbfbf" points="576,-0.5 576,-19.5 618,-19.5 618,-0.5 576,-0.5"/>
<text text-anchor="middle" x="597" y="-7.5" font-family="Helvetica,sans-Serif" font-size="10.00">array</text>
</a>
</g>
</g>
<!-- Node14&#45;&gt;Node15 -->
<g id="edge15" class="edge">
<title>Node14&#45;&gt;Node15</title>
<path fill="none" stroke="midnightblue" d="M501.91,-56.44C520.25,-47.68 549.01,-33.94 570.09,-23.86"/>
<polygon fill="midnightblue" stroke="midnightblue" points="571.67,-26.99 579.18,-19.52 568.65,-20.67 571.67,-26.99"/>
</g>
<!-- Node16 -->
<g id="node16" class="node">
<title>Node16</title>
<g id="a_node16"><a xlink:title=" ">
<polygon fill="none" stroke="#bfbfbf" points="636,-0.5 636,-19.5 686,-19.5 686,-0.5 636,-0.5"/>
<text text-anchor="middle" x="661" y="-7.5" font-family="Helvetica,sans-Serif" font-size="10.00">chrono</text>
</a>
</g>
</g>
<!-- Node14&#45;&gt;Node16 -->
<g id="edge16" class="edge">
<title>Node14&#45;&gt;Node16</title>
<path fill="none" stroke="midnightblue" d="M512.05,-56.44C542.97,-47.01 592.74,-31.82 626.15,-21.63"/>
<polygon fill="midnightblue" stroke="midnightblue" points="627.4,-24.91 635.95,-18.64 625.36,-18.21 627.4,-24.91"/>
</g>
<!-- Node17 -->
<g id="node17" class="node">
<title>Node17</title>
<g id="a_node17"><a xlink:title=" ">
<polygon fill="none" stroke="#bfbfbf" points="704.5,-0.5 704.5,-19.5 769.5,-19.5 769.5,-0.5 704.5,-0.5"/>
<text text-anchor="middle" x="737" y="-7.5" font-family="Helvetica,sans-Serif" font-size="10.00">functional</text>
</a>
</g>
</g>
<!-- Node14&#45;&gt;Node17 -->
<g id="edge18" class="edge">
<title>Node14&#45;&gt;Node17</title>
<path fill="none" stroke="midnightblue" d="M524.06,-56.47C564.43,-47.87 628.81,-34.15 694.34,-20.14"/>
<polygon fill="midnightblue" stroke="midnightblue" points="695.39,-23.49 704.44,-17.98 693.93,-16.65 695.39,-23.49"/>
</g>
<!-- Node18 -->
<g id="node18" class="node">
<title>Node18</title>
<g id="a_node18"><a xlink:title=" ">
<polygon fill="none" stroke="#bfbfbf" points="787.5,-0.5 787.5,-19.5 840.5,-19.5 840.5,-0.5 787.5,-0.5"/>
<text text-anchor="middle" x="814" y="-7.5" font-family="Helvetica,sans-Serif" font-size="10.00">iterator</text>
</a>
</g>
</g>
<!-- Node14&#45;&gt;Node18 -->
<g id="edge20" class="edge">
<title>Node14&#45;&gt;Node18</title>
<path fill="none" stroke="midnightblue" d="M548.2,-57.1C605.9,-49.56 693.12,-37.12 777.32,-20.19"/>
<polygon fill="midnightblue" stroke="midnightblue" points="778.21,-23.58 787.31,-18.16 776.81,-16.72 778.21,-23.58"/>
</g>
<!-- Node19 -->
<g id="node19" class="node">
<title>Node19</title>
<g id="a_node19"><a xlink:title=" ">
<polygon fill="none" stroke="#bfbfbf" points="299,-0.5 299,-19.5 355,-19.5 355,-0.5 299,-0.5"/>
<text text-anchor="middle" x="327" y="-7.5" font-family="Helvetica,sans-Serif" font-size="10.00">sstream</text>
</a>
</g>
</g>
<!-- Node14&#45;&gt;Node19 -->
<g id="edge22" class="edge">
<title>Node14&#45;&gt;Node19</title>
<path fill="none" stroke="midnightblue" d="M459.12,-56.44C432.71,-47.36 390.78,-32.94 361.26,-22.78"/>
<polygon fill="midnightblue" stroke="midnightblue" points="362.36,-19.46 351.76,-19.52 360.08,-26.08 362.36,-19.46"/>
</g>
<!-- Node20 -->
<g id="node20" class="node">
<title>Node20</title>
<g id="a_node20"><a xlink:title=" ">
<polygon fill="none" stroke="#bfbfbf" points="373.5,-0.5 373.5,-19.5 446.5,-19.5 446.5,-0.5 373.5,-0.5"/>
<text text-anchor="middle" x="410" y="-7.5" font-family="Helvetica,sans-Serif" font-size="10.00">string_view</text>
</a>
</g>
</g>
<!-- Node14&#45;&gt;Node20 -->
<g id="edge23" class="edge">
<title>Node14&#45;&gt;Node20</title>
<path fill="none" stroke="midnightblue" d="M472.11,-56.32C460.85,-48.11 443.71,-35.6 430.29,-25.81"/>
<polygon fill="midnightblue" stroke="midnightblue" points="432.25,-22.9 422.11,-19.83 428.12,-28.56 432.25,-22.9"/>
</g>
<!-- Node21 -->
<g id="node21" class="node">
<title>Node21</title>
<g id="a_node21"><a xlink:title=" ">
<polygon fill="none" stroke="#bfbfbf" points="464.5,-0.5 464.5,-19.5 557.5,-19.5 557.5,-0.5 464.5,-0.5"/>
<text text-anchor="middle" x="511" y="-7.5" font-family="Helvetica,sans-Serif" font-size="10.00">unordered_map</text>
</a>
</g>
</g>
<!-- Node14&#45;&gt;Node21 -->
<g id="edge24" class="edge">
<title>Node14&#45;&gt;Node21</title>
<path fill="none" stroke="midnightblue" d="M488.46,-56.08C492.15,-48.69 497.52,-37.95 502.09,-28.81"/>
<polygon fill="midnightblue" stroke="midnightblue" points="505.28,-30.26 506.62,-19.75 499.02,-27.13 505.28,-30.26"/>
</g>
<!-- Node22&#45;&gt;Node14 -->
<g id="edge27" class="edge">
<title>Node22&#45;&gt;Node14</title>
<path fill="none" stroke="midnightblue" d="M543.9,-168.37C533.22,-150.3 508.33,-108.18 494.23,-84.31"/>
<polygon fill="midnightblue" stroke="midnightblue" points="497.18,-82.42 489.08,-75.59 491.15,-85.98 497.18,-82.42"/>
</g>
<!-- Node22&#45;&gt;Node23 -->
<g id="edge28" class="edge">
<title>Node22&#45;&gt;Node23</title>
<path fill="none" stroke="midnightblue" d="M559.44,-168.32C569.15,-160.26 583.82,-148.08 595.5,-138.37"/>
<polygon fill="midnightblue" stroke="midnightblue" points="597.91,-140.92 603.37,-131.83 593.44,-135.53 597.91,-140.92"/>
</g>
<!-- Node23&#45;&gt;Node14 -->
<g id="edge29" class="edge">
<title>Node23&#45;&gt;Node14</title>
<path fill="none" stroke="midnightblue" d="M593.4,-112.44C572.01,-103.56 538.32,-89.56 513.98,-79.45"/>
<polygon fill="midnightblue" stroke="midnightblue" points="515.08,-76.12 504.5,-75.52 512.39,-82.58 515.08,-76.12"/>
</g>
<!-- Node24&#45;&gt;Node14 -->
<g id="edge35" class="edge">
<title>Node24&#45;&gt;Node14</title>
<path fill="none" stroke="midnightblue" d="M555.8,-224.37C537.71,-217.47 515.6,-205.94 503,-188 481.38,-157.22 480.57,-111.2 482.13,-85.7"/>
<polygon fill="midnightblue" stroke="midnightblue" points="485.63,-85.8 482.95,-75.56 478.65,-85.24 485.63,-85.8"/>
</g>
<!-- Node24&#45;&gt;Node22 -->
<g id="edge34" class="edge">
<title>Node24&#45;&gt;Node22</title>
<path fill="none" stroke="midnightblue" d="M579.06,-224.08C574.02,-216.53 566.66,-205.49 560.49,-196.23"/>
<polygon fill="midnightblue" stroke="midnightblue" points="563.29,-194.13 554.83,-187.75 557.47,-198.01 563.29,-194.13"/>
</g>
<!-- Node24&#45;&gt;Node23 -->
<g id="edge36" class="edge">
<title>Node24&#45;&gt;Node23</title>
<path fill="none" stroke="midnightblue" d="M587.28,-224.37C591.98,-206.54 602.85,-165.3 609.18,-141.27"/>
<polygon fill="midnightblue" stroke="midnightblue" points="612.57,-142.15 611.73,-131.59 605.8,-140.37 612.57,-142.15"/>
</g>
<!-- Node25&#45;&gt;Node3 -->
<g id="edge40" class="edge">
<title>Node25&#45;&gt;Node3</title>
<path fill="none" stroke="midnightblue" d="M338.13,-411.75C339.66,-418.86 340.1,-429.14 339.47,-438.1"/>
<polygon fill="midnightblue" stroke="midnightblue" points="335.99,-437.71 338.17,-448.08 342.93,-438.62 335.99,-437.71"/>
</g>
<!-- Node25&#45;&gt;Node4 -->
<g id="edge39" class="edge">
<title>Node25&#45;&gt;Node4</title>
<path fill="none" stroke="midnightblue" d="M294.43,-394.95C214.47,-381.32 38,-345.11 38,-291 38,-291 38,-291 38,-121 38,-88.95 38,-51.64 38,-29.75"/>
<polygon fill="midnightblue" stroke="midnightblue" points="41.5,-29.56 38,-19.56 34.5,-29.56 41.5,-29.56"/>
</g>
<!-- Node25&#45;&gt;Node5 -->
<g id="edge41" class="edge">
<title>Node25&#45;&gt;Node5</title>
<path fill="none" stroke="midnightblue" d="M343.26,-392.24C362.97,-375.22 407.17,-336.2 441,-300 455.54,-284.44 470.76,-265.44 481.15,-252.02"/>
<polygon fill="midnightblue" stroke="midnightblue" points="484.2,-253.79 487.49,-243.72 478.64,-249.54 484.2,-253.79"/>
</g>
<!-- Node25&#45;&gt;Node6 -->
<g id="edge42" class="edge">
<title>Node25&#45;&gt;Node6</title>
<path fill="none" stroke="midnightblue" d="M310.34,-392.44C286.6,-383.48 249.09,-369.31 222.26,-359.18"/>
<polygon fill="midnightblue" stroke="midnightblue" points="223.14,-355.77 212.55,-355.52 220.67,-362.32 223.14,-355.77"/>
</g>
</g>
</svg>
