<?xml version="1.0" encoding="UTF-8" standalone="no"?>
<!DOCTYPE svg PUBLIC "-//W3C//DTD SVG 1.1//EN"
 "http://www.w3.org/Graphics/SVG/1.1/DTD/svg11.dtd">
<!-- Generated by graphviz version 2.43.0 (0)
 -->
<!-- Title: /home/runner/work/Simulatio/Simulatio/include/Constraints/Constraint.hpp Pages: 1 -->
<svg width="971pt" height="554pt"
 viewBox="0.00 0.00 971.00 554.00" xmlns="http://www.w3.org/2000/svg" xmlns:xlink="http://www.w3.org/1999/xlink">
<g id="graph0" class="graph" transform="scale(1 1) rotate(0) translate(4 550)">
<title>/home/runner/work/Simulatio/Simulatio/include/Constraints/Constraint.hpp</title>
<!-- Node1 -->
<g id="node1" class="node">
<title>Node1</title>
<g id="a_node1"><a xlink:title=" ">
<polygon fill="#bfbfbf" stroke="black" points="171.5,-504.5 171.5,-545.5 334.5,-545.5 334.5,-504.5 171.5,-504.5"/>
<text text-anchor="start" x="179.5" y="-533.5" font-family="Helvetica,sans-Serif" font-size="10.00">/home/runner/work/Simulatio</text>
<text text-anchor="start" x="179.5" y="-522.5" font-family="Helvetica,sans-Serif" font-size="10.00">/Simulatio/include/Constraints</text>
<text text-anchor="middle" x="253" y="-511.5" font-family="Helvetica,sans-Serif" font-size="10.00">/Constraint.hpp</text>
</a>
</g>
</g>
<!-- Node2 -->
<g id="node2" class="node">
<title>Node2</title>
<g id="a_node2"><a xlink:href="_circle_8hpp.html" target="_top" xlink:title=" ">
<polygon fill="none" stroke="black" points="90,-448.5 90,-467.5 206,-467.5 206,-448.5 90,-448.5"/>
<text text-anchor="middle" x="148" y="-455.5" font-family="Helvetica,sans-Serif" font-size="10.00">../Corpses/Circle.hpp</text>
</a>
</g>
</g>
<!-- Node1&#45;&gt;Node2 -->
<g id="edge1" class="edge">
<title>Node1&#45;&gt;Node2</title>
<path fill="none" stroke="midnightblue" d="M221.5,-504.5C205.09,-494.34 185.4,-482.16 170.54,-472.95"/>
<polygon fill="midnightblue" stroke="midnightblue" points="172.32,-469.94 161.98,-467.65 168.64,-475.89 172.32,-469.94"/>
</g>
<!-- Node4 -->
<g id="node4" class="node">
<title>Node4</title>
<g id="a_node4"><a xlink:title=" ">
<polygon fill="none" stroke="#bfbfbf" points="66,-224.5 66,-243.5 134,-243.5 134,-224.5 66,-224.5"/>
<text text-anchor="middle" x="100" y="-231.5" font-family="Helvetica,sans-Serif" font-size="10.00">Config.hpp</text>
</a>
</g>
</g>
<!-- Node1&#45;&gt;Node4 -->
<g id="edge46" class="edge">
<title>Node1&#45;&gt;Node4</title>
<path fill="none" stroke="midnightblue" d="M171.21,-518.34C97.29,-508.25 0,-480.29 0,-403 0,-403 0,-403 0,-345 0,-300.98 44.38,-266.8 74.01,-248.87"/>
<polygon fill="midnightblue" stroke="midnightblue" points="76.14,-251.68 83.04,-243.64 72.63,-245.63 76.14,-251.68"/>
</g>
<!-- Node5 -->
<g id="node5" class="node">
<title>Node5</title>
<g id="a_node5"><a xlink:href="_corpse_8hpp.html" target="_top" xlink:title=" ">
<polygon fill="none" stroke="black" points="233.5,-336.5 233.5,-355.5 304.5,-355.5 304.5,-336.5 233.5,-336.5"/>
<text text-anchor="middle" x="269" y="-343.5" font-family="Helvetica,sans-Serif" font-size="10.00">Corpse.hpp</text>
</a>
</g>
</g>
<!-- Node1&#45;&gt;Node5 -->
<g id="edge42" class="edge">
<title>Node1&#45;&gt;Node5</title>
<path fill="none" stroke="midnightblue" d="M254.77,-504.38C257.87,-470.08 264.24,-399.66 267.29,-365.88"/>
<polygon fill="midnightblue" stroke="midnightblue" points="270.81,-365.86 268.22,-355.58 263.84,-365.23 270.81,-365.86"/>
</g>
<!-- Node9 -->
<g id="node9" class="node">
<title>Node9</title>
<g id="a_node9"><a xlink:href="_geometry_8hpp.html" target="_top" xlink:title=" ">
<polygon fill="none" stroke="black" points="375,-280.5 375,-299.5 521,-299.5 521,-280.5 375,-280.5"/>
<text text-anchor="middle" x="448" y="-287.5" font-family="Helvetica,sans-Serif" font-size="10.00">../Geometry/Geometry.hpp</text>
</a>
</g>
</g>
<!-- Node1&#45;&gt;Node9 -->
<g id="edge44" class="edge">
<title>Node1&#45;&gt;Node9</title>
<path fill="none" stroke="midnightblue" d="M269.63,-504.13C307.46,-458.93 399.4,-349.07 434.28,-307.4"/>
<polygon fill="midnightblue" stroke="midnightblue" points="437.08,-309.5 440.81,-299.59 431.71,-305.01 437.08,-309.5"/>
</g>
<!-- Node13 -->
<g id="node13" class="node">
<title>Node13</title>
<g id="a_node13"><a xlink:href="_maths_8hpp.html" target="_top" xlink:title=" ">
<polygon fill="none" stroke="black" points="495,-56.5 495,-75.5 623,-75.5 623,-56.5 495,-56.5"/>
<text text-anchor="middle" x="559" y="-63.5" font-family="Helvetica,sans-Serif" font-size="10.00">../Geometry/Maths.hpp</text>
</a>
</g>
</g>
<!-- Node1&#45;&gt;Node13 -->
<g id="edge45" class="edge">
<title>Node1&#45;&gt;Node13</title>
<path fill="none" stroke="midnightblue" d="M334.58,-521.23C477.7,-514.13 759,-489.2 759,-403 759,-403 759,-403 759,-177 759,-117.47 690.12,-89.93 633.21,-77.33"/>
<polygon fill="midnightblue" stroke="midnightblue" points="633.61,-73.84 623.11,-75.22 632.18,-80.69 633.61,-73.84"/>
</g>
<!-- Node24 -->
<g id="node24" class="node">
<title>Node24</title>
<g id="a_node24"><a xlink:href="_polygon_8hpp.html" target="_top" xlink:title=" ">
<polygon fill="none" stroke="black" points="112.5,-392.5 112.5,-411.5 189.5,-411.5 189.5,-392.5 112.5,-392.5"/>
<text text-anchor="middle" x="151" y="-399.5" font-family="Helvetica,sans-Serif" font-size="10.00">Polygon.hpp</text>
</a>
</g>
</g>
<!-- Node1&#45;&gt;Node24 -->
<g id="edge43" class="edge">
<title>Node1&#45;&gt;Node24</title>
<path fill="none" stroke="midnightblue" d="M246.28,-504.33C240,-487.98 229.44,-464.77 215,-448 204.23,-435.49 189.27,-424.72 176.52,-416.85"/>
<polygon fill="midnightblue" stroke="midnightblue" points="178.1,-413.73 167.71,-411.66 174.55,-419.75 178.1,-413.73"/>
</g>
<!-- Node3 -->
<g id="node3" class="node">
<title>Node3</title>
<g id="a_node3"><a xlink:title=" ">
<polygon fill="none" stroke="#bfbfbf" points="136.5,-0.5 136.5,-19.5 183.5,-19.5 183.5,-0.5 136.5,-0.5"/>
<text text-anchor="middle" x="160" y="-7.5" font-family="Helvetica,sans-Serif" font-size="10.00">vector</text>
</a>
</g>
</g>
<!-- Node2&#45;&gt;Node3 -->
<g id="edge2" class="edge">
<title>Node2&#45;&gt;Node3</title>
<path fill="none" stroke="midnightblue" d="M128.59,-448.46C97.01,-433.11 38,-397.64 38,-347 38,-347 38,-347 38,-121 38,-72.57 91.69,-39.99 127.83,-23.54"/>
<polygon fill="midnightblue" stroke="midnightblue" points="129.29,-26.72 137.05,-19.52 126.49,-20.31 129.29,-26.72"/>
</g>
<!-- Node2&#45;&gt;Node4 -->
<g id="edge3" class="edge">
<title>Node2&#45;&gt;Node4</title>
<path fill="none" stroke="midnightblue" d="M135,-448.41C124.19,-440.43 109.56,-427.46 103,-412 80.24,-358.34 89.55,-287.05 95.91,-253.7"/>
<polygon fill="midnightblue" stroke="midnightblue" points="99.41,-254.07 97.98,-243.57 92.55,-252.67 99.41,-254.07"/>
</g>
<!-- Node2&#45;&gt;Node5 -->
<g id="edge4" class="edge">
<title>Node2&#45;&gt;Node5</title>
<path fill="none" stroke="midnightblue" d="M157.61,-448.4C167.69,-439.36 183.99,-424.72 198,-412 216.41,-395.29 237.41,-376.04 251.76,-362.86"/>
<polygon fill="midnightblue" stroke="midnightblue" points="254.38,-365.2 259.38,-355.86 249.65,-360.05 254.38,-365.2"/>
</g>
<!-- Node2&#45;&gt;Node24 -->
<g id="edge37" class="edge">
<title>Node2&#45;&gt;Node24</title>
<path fill="none" stroke="midnightblue" d="M143.33,-448.08C142.22,-440.93 142.36,-430.64 143.5,-421.69"/>
<polygon fill="midnightblue" stroke="midnightblue" points="146.96,-422.23 145.38,-411.75 140.09,-420.93 146.96,-422.23"/>
</g>
<!-- Node5&#45;&gt;Node3 -->
<g id="edge8" class="edge">
<title>Node5&#45;&gt;Node3</title>
<path fill="none" stroke="midnightblue" d="M263.72,-336.23C253.27,-318.04 231,-274.6 231,-235 231,-235 231,-235 231,-121 231,-82.1 199.27,-46.05 178.23,-26.43"/>
<polygon fill="midnightblue" stroke="midnightblue" points="180.56,-23.81 170.78,-19.74 175.89,-29.02 180.56,-23.81"/>
</g>
<!-- Node5&#45;&gt;Node4 -->
<g id="edge36" class="edge">
<title>Node5&#45;&gt;Node4</title>
<path fill="none" stroke="midnightblue" d="M255.74,-336.37C226.74,-317.49 157.44,-272.38 121.87,-249.24"/>
<polygon fill="midnightblue" stroke="midnightblue" points="123.49,-246.11 113.2,-243.59 119.67,-251.98 123.49,-246.11"/>
</g>
<!-- Node6 -->
<g id="node6" class="node">
<title>Node6</title>
<g id="a_node6"><a xlink:title=" ">
<polygon fill="none" stroke="#bfbfbf" points="356.5,-0.5 356.5,-19.5 403.5,-19.5 403.5,-0.5 356.5,-0.5"/>
<text text-anchor="middle" x="380" y="-7.5" font-family="Helvetica,sans-Serif" font-size="10.00">cmath</text>
</a>
</g>
</g>
<!-- Node5&#45;&gt;Node6 -->
<g id="edge5" class="edge">
<title>Node5&#45;&gt;Node6</title>
<path fill="none" stroke="midnightblue" d="M280.54,-336.43C301.8,-319.57 345,-279.8 345,-235 345,-235 345,-235 345,-121 345,-87.07 360.31,-49.91 370.68,-28.63"/>
<polygon fill="midnightblue" stroke="midnightblue" points="373.88,-30.05 375.28,-19.54 367.64,-26.88 373.88,-30.05"/>
</g>
<!-- Node7 -->
<g id="node7" class="node">
<title>Node7</title>
<g id="a_node7"><a xlink:title=" ">
<polygon fill="none" stroke="#bfbfbf" points="202,-0.5 202,-19.5 262,-19.5 262,-0.5 202,-0.5"/>
<text text-anchor="middle" x="232" y="-7.5" font-family="Helvetica,sans-Serif" font-size="10.00">iostream</text>
</a>
</g>
</g>
<!-- Node5&#45;&gt;Node7 -->
<g id="edge6" class="edge">
<title>Node5&#45;&gt;Node7</title>
<path fill="none" stroke="midnightblue" d="M269,-336.44C269,-317.94 269,-272.81 269,-235 269,-235 269,-235 269,-121 269,-86.89 252.82,-49.79 241.86,-28.57"/>
<polygon fill="midnightblue" stroke="midnightblue" points="244.81,-26.66 236.99,-19.51 238.64,-29.98 244.81,-26.66"/>
</g>
<!-- Node8 -->
<g id="node8" class="node">
<title>Node8</title>
<g id="a_node8"><a xlink:title=" ">
<polygon fill="none" stroke="#bfbfbf" points="280,-0.5 280,-19.5 338,-19.5 338,-0.5 280,-0.5"/>
<text text-anchor="middle" x="309" y="-7.5" font-family="Helvetica,sans-Serif" font-size="10.00">memory</text>
</a>
</g>
</g>
<!-- Node5&#45;&gt;Node8 -->
<g id="edge7" class="edge">
<title>Node5&#45;&gt;Node8</title>
<path fill="none" stroke="midnightblue" d="M274.28,-336.23C284.73,-318.04 307,-274.6 307,-235 307,-235 307,-235 307,-121 307,-88.94 307.86,-51.64 308.45,-29.75"/>
<polygon fill="midnightblue" stroke="midnightblue" points="311.96,-29.65 308.74,-19.56 304.96,-29.45 311.96,-29.65"/>
</g>
<!-- Node5&#45;&gt;Node9 -->
<g id="edge9" class="edge">
<title>Node5&#45;&gt;Node9</title>
<path fill="none" stroke="midnightblue" d="M297.36,-336.44C327.74,-327.28 376.11,-312.69 409.82,-302.52"/>
<polygon fill="midnightblue" stroke="midnightblue" points="411.21,-305.76 419.77,-299.52 409.18,-299.05 411.21,-305.76"/>
</g>
<!-- Node9&#45;&gt;Node4 -->
<g id="edge29" class="edge">
<title>Node9&#45;&gt;Node4</title>
<path fill="none" stroke="midnightblue" d="M392.86,-280.44C324.05,-269.77 207.75,-251.72 144.39,-241.89"/>
<polygon fill="midnightblue" stroke="midnightblue" points="144.73,-238.4 134.31,-240.32 143.66,-245.32 144.73,-238.4"/>
</g>
<!-- Node10 -->
<g id="node10" class="node">
<title>Node10</title>
<g id="a_node10"><a xlink:href="_recorder_8hpp.html" target="_top" xlink:title=" ">
<polygon fill="none" stroke="black" points="545,-224.5 545,-243.5 693,-243.5 693,-224.5 545,-224.5"/>
<text text-anchor="middle" x="619" y="-231.5" font-family="Helvetica,sans-Serif" font-size="10.00">../Benchmark/Recorder.hpp</text>
</a>
</g>
</g>
<!-- Node9&#45;&gt;Node10 -->
<g id="edge10" class="edge">
<title>Node9&#45;&gt;Node10</title>
<path fill="none" stroke="midnightblue" d="M475.1,-280.44C503.99,-271.32 549.92,-256.81 582.11,-246.65"/>
<polygon fill="midnightblue" stroke="midnightblue" points="583.55,-249.87 592.03,-243.52 581.44,-243.19 583.55,-249.87"/>
</g>
<!-- Node9&#45;&gt;Node13 -->
<g id="edge30" class="edge">
<title>Node9&#45;&gt;Node13</title>
<path fill="none" stroke="midnightblue" d="M521.18,-286.18C587.84,-281.9 679.27,-271.11 702,-244 725.45,-216.03 784.96,-235.08 681,-112 667.04,-95.47 646.44,-85.01 626.12,-78.4"/>
<polygon fill="midnightblue" stroke="midnightblue" points="627.1,-75.04 616.52,-75.53 625.1,-81.74 627.1,-75.04"/>
</g>
<!-- Node21 -->
<g id="node21" class="node">
<title>Node21</title>
<g id="a_node21"><a xlink:href="_bounds_8hpp.html" target="_top" xlink:title=" ">
<polygon fill="none" stroke="black" points="487,-168.5 487,-187.5 561,-187.5 561,-168.5 487,-168.5"/>
<text text-anchor="middle" x="524" y="-175.5" font-family="Helvetica,sans-Serif" font-size="10.00">Bounds.hpp</text>
</a>
</g>
</g>
<!-- Node9&#45;&gt;Node21 -->
<g id="edge25" class="edge">
<title>Node9&#45;&gt;Node21</title>
<path fill="none" stroke="midnightblue" d="M460.59,-280.29C471.7,-272.04 487.71,-258.75 498,-244 507.99,-229.69 514.95,-210.98 519.14,-197.31"/>
<polygon fill="midnightblue" stroke="midnightblue" points="522.53,-198.18 521.91,-187.61 515.8,-196.26 522.53,-198.18"/>
</g>
<!-- Node22 -->
<g id="node22" class="node">
<title>Node22</title>
<g id="a_node22"><a xlink:href="_vector_8hpp.html" target="_top" xlink:title=" ">
<polygon fill="none" stroke="black" points="451,-112.5 451,-131.5 519,-131.5 519,-112.5 451,-112.5"/>
<text text-anchor="middle" x="485" y="-119.5" font-family="Helvetica,sans-Serif" font-size="10.00">Vector.hpp</text>
</a>
</g>
</g>
<!-- Node9&#45;&gt;Node22 -->
<g id="edge31" class="edge">
<title>Node9&#45;&gt;Node22</title>
<path fill="none" stroke="midnightblue" d="M434.94,-280.44C424.09,-272.47 409.43,-259.52 403,-244 399.6,-235.79 400.03,-232.38 403,-224 415.61,-188.45 446.66,-156.31 466.73,-138.25"/>
<polygon fill="midnightblue" stroke="midnightblue" points="469.09,-140.83 474.32,-131.61 464.49,-135.56 469.09,-140.83"/>
</g>
<!-- Node23 -->
<g id="node23" class="node">
<title>Node23</title>
<g id="a_node23"><a xlink:href="_vertices_8hpp.html" target="_top" xlink:title=" ">
<polygon fill="none" stroke="black" points="411.5,-224.5 411.5,-243.5 488.5,-243.5 488.5,-224.5 411.5,-224.5"/>
<text text-anchor="middle" x="450" y="-231.5" font-family="Helvetica,sans-Serif" font-size="10.00">Vertices.hpp</text>
</a>
</g>
</g>
<!-- Node9&#45;&gt;Node23 -->
<g id="edge32" class="edge">
<title>Node9&#45;&gt;Node23</title>
<path fill="none" stroke="midnightblue" d="M448.33,-280.08C448.59,-273.01 448.97,-262.86 449.3,-253.99"/>
<polygon fill="midnightblue" stroke="midnightblue" points="452.8,-253.87 449.68,-243.75 445.81,-253.61 452.8,-253.87"/>
</g>
<!-- Node11 -->
<g id="node11" class="node">
<title>Node11</title>
<g id="a_node11"><a xlink:href="_performance_8hpp.html" target="_top" xlink:title=" ">
<polygon fill="none" stroke="black" points="579,-168.5 579,-187.5 679,-187.5 679,-168.5 579,-168.5"/>
<text text-anchor="middle" x="629" y="-175.5" font-family="Helvetica,sans-Serif" font-size="10.00">Performance.hpp</text>
</a>
</g>
</g>
<!-- Node10&#45;&gt;Node11 -->
<g id="edge11" class="edge">
<title>Node10&#45;&gt;Node11</title>
<path fill="none" stroke="midnightblue" d="M620.65,-224.08C621.98,-216.93 623.88,-206.64 625.54,-197.69"/>
<polygon fill="midnightblue" stroke="midnightblue" points="629,-198.22 627.38,-187.75 622.12,-196.95 629,-198.22"/>
</g>
<!-- Node12 -->
<g id="node12" class="node">
<title>Node12</title>
<g id="a_node12"><a xlink:href="_block_data_8hpp.html" target="_top" xlink:title=" ">
<polygon fill="none" stroke="black" points="584,-112.5 584,-131.5 672,-131.5 672,-112.5 584,-112.5"/>
<text text-anchor="middle" x="628" y="-119.5" font-family="Helvetica,sans-Serif" font-size="10.00">BlockData.hpp</text>
</a>
</g>
</g>
<!-- Node11&#45;&gt;Node12 -->
<g id="edge12" class="edge">
<title>Node11&#45;&gt;Node12</title>
<path fill="none" stroke="midnightblue" d="M628.83,-168.08C628.7,-161.01 628.52,-150.86 628.35,-141.99"/>
<polygon fill="midnightblue" stroke="midnightblue" points="631.85,-141.68 628.16,-131.75 624.85,-141.81 631.85,-141.68"/>
</g>
<!-- Node12&#45;&gt;Node13 -->
<g id="edge13" class="edge">
<title>Node12&#45;&gt;Node13</title>
<path fill="none" stroke="midnightblue" d="M616.91,-112.32C606.51,-104.18 590.74,-91.84 578.28,-82.09"/>
<polygon fill="midnightblue" stroke="midnightblue" points="580.32,-79.24 570.29,-75.83 576.01,-84.75 580.32,-79.24"/>
</g>
<!-- Node13&#45;&gt;Node3 -->
<g id="edge24" class="edge">
<title>Node13&#45;&gt;Node3</title>
<path fill="none" stroke="midnightblue" d="M494.76,-59.92C423.47,-53.65 304.94,-41.36 193.74,-19.87"/>
<polygon fill="midnightblue" stroke="midnightblue" points="194.18,-16.39 183.7,-17.9 192.84,-23.26 194.18,-16.39"/>
</g>
<!-- Node13&#45;&gt;Node6 -->
<g id="edge16" class="edge">
<title>Node13&#45;&gt;Node6</title>
<path fill="none" stroke="midnightblue" d="M530.64,-56.44C498.83,-46.85 447.3,-31.3 413.53,-21.11"/>
<polygon fill="midnightblue" stroke="midnightblue" points="414.24,-17.67 403.66,-18.14 412.22,-24.38 414.24,-17.67"/>
</g>
<!-- Node13&#45;&gt;Node7 -->
<g id="edge18" class="edge">
<title>Node13&#45;&gt;Node7</title>
<path fill="none" stroke="midnightblue" d="M495.85,-56.46C439.58,-48.55 354.78,-35.89 272.01,-20.08"/>
<polygon fill="midnightblue" stroke="midnightblue" points="272.67,-16.65 262.19,-18.19 271.35,-23.52 272.67,-16.65"/>
</g>
<!-- Node13&#45;&gt;Node8 -->
<g id="edge20" class="edge">
<title>Node13&#45;&gt;Node8</title>
<path fill="none" stroke="midnightblue" d="M518.11,-56.49C477.65,-48.02 413.68,-34.51 348.43,-20.07"/>
<polygon fill="midnightblue" stroke="midnightblue" points="348.9,-16.58 338.38,-17.83 347.38,-23.42 348.9,-16.58"/>
</g>
<!-- Node14 -->
<g id="node14" class="node">
<title>Node14</title>
<g id="a_node14"><a xlink:title=" ">
<polygon fill="none" stroke="#bfbfbf" points="624,-0.5 624,-19.5 666,-19.5 666,-0.5 624,-0.5"/>
<text text-anchor="middle" x="645" y="-7.5" font-family="Helvetica,sans-Serif" font-size="10.00">array</text>
</a>
</g>
</g>
<!-- Node13&#45;&gt;Node14 -->
<g id="edge14" class="edge">
<title>Node13&#45;&gt;Node14</title>
<path fill="none" stroke="midnightblue" d="M572.82,-56.32C586.23,-47.9 606.82,-34.97 622.59,-25.07"/>
<polygon fill="midnightblue" stroke="midnightblue" points="624.61,-27.94 631.22,-19.65 620.89,-22.01 624.61,-27.94"/>
</g>
<!-- Node15 -->
<g id="node15" class="node">
<title>Node15</title>
<g id="a_node15"><a xlink:title=" ">
<polygon fill="none" stroke="#bfbfbf" points="684,-0.5 684,-19.5 734,-19.5 734,-0.5 684,-0.5"/>
<text text-anchor="middle" x="709" y="-7.5" font-family="Helvetica,sans-Serif" font-size="10.00">chrono</text>
</a>
</g>
</g>
<!-- Node13&#45;&gt;Node15 -->
<g id="edge15" class="edge">
<title>Node13&#45;&gt;Node15</title>
<path fill="none" stroke="midnightblue" d="M582.77,-56.44C607.89,-47.4 647.71,-33.06 675.9,-22.92"/>
<polygon fill="midnightblue" stroke="midnightblue" points="677.12,-26.2 685.34,-19.52 674.75,-19.61 677.12,-26.2"/>
</g>
<!-- Node16 -->
<g id="node16" class="node">
<title>Node16</title>
<g id="a_node16"><a xlink:title=" ">
<polygon fill="none" stroke="#bfbfbf" points="752.5,-0.5 752.5,-19.5 817.5,-19.5 817.5,-0.5 752.5,-0.5"/>
<text text-anchor="middle" x="785" y="-7.5" font-family="Helvetica,sans-Serif" font-size="10.00">functional</text>
</a>
</g>
</g>
<!-- Node13&#45;&gt;Node16 -->
<g id="edge17" class="edge">
<title>Node13&#45;&gt;Node16</title>
<path fill="none" stroke="midnightblue" d="M594.81,-56.44C634.91,-46.86 699.85,-31.35 742.49,-21.16"/>
<polygon fill="midnightblue" stroke="midnightblue" points="743.38,-24.54 752.29,-18.82 741.75,-17.73 743.38,-24.54"/>
</g>
<!-- Node17 -->
<g id="node17" class="node">
<title>Node17</title>
<g id="a_node17"><a xlink:title=" ">
<polygon fill="none" stroke="#bfbfbf" points="835.5,-0.5 835.5,-19.5 888.5,-19.5 888.5,-0.5 835.5,-0.5"/>
<text text-anchor="middle" x="862" y="-7.5" font-family="Helvetica,sans-Serif" font-size="10.00">iterator</text>
</a>
</g>
</g>
<!-- Node13&#45;&gt;Node17 -->
<g id="edge19" class="edge">
<title>Node13&#45;&gt;Node17</title>
<path fill="none" stroke="midnightblue" d="M618.62,-56.48C670.88,-48.68 749.07,-36.18 825.51,-20.19"/>
<polygon fill="midnightblue" stroke="midnightblue" points="826.24,-23.61 835.3,-18.12 824.79,-16.76 826.24,-23.61"/>
</g>
<!-- Node18 -->
<g id="node18" class="node">
<title>Node18</title>
<g id="a_node18"><a xlink:title=" ">
<polygon fill="none" stroke="#bfbfbf" points="907,-0.5 907,-19.5 963,-19.5 963,-0.5 907,-0.5"/>
<text text-anchor="middle" x="935" y="-7.5" font-family="Helvetica,sans-Serif" font-size="10.00">sstream</text>
</a>
</g>
</g>
<!-- Node13&#45;&gt;Node18 -->
<g id="edge21" class="edge">
<title>Node13&#45;&gt;Node18</title>
<path fill="none" stroke="midnightblue" d="M623.05,-58.56C689.25,-51.43 795.75,-38.68 896.72,-20.07"/>
<polygon fill="midnightblue" stroke="midnightblue" points="897.6,-23.47 906.79,-18.19 896.31,-16.59 897.6,-23.47"/>
</g>
<!-- Node19 -->
<g id="node19" class="node">
<title>Node19</title>
<g id="a_node19"><a xlink:title=" ">
<polygon fill="none" stroke="#bfbfbf" points="421.5,-0.5 421.5,-19.5 494.5,-19.5 494.5,-0.5 421.5,-0.5"/>
<text text-anchor="middle" x="458" y="-7.5" font-family="Helvetica,sans-Serif" font-size="10.00">string_view</text>
</a>
</g>
</g>
<!-- Node13&#45;&gt;Node19 -->
<g id="edge22" class="edge">
<title>Node13&#45;&gt;Node19</title>
<path fill="none" stroke="midnightblue" d="M542.77,-56.32C526.65,-47.7 501.7,-34.36 483.04,-24.39"/>
<polygon fill="midnightblue" stroke="midnightblue" points="484.66,-21.28 474.19,-19.65 481.36,-27.46 484.66,-21.28"/>
</g>
<!-- Node20 -->
<g id="node20" class="node">
<title>Node20</title>
<g id="a_node20"><a xlink:title=" ">
<polygon fill="none" stroke="#bfbfbf" points="512.5,-0.5 512.5,-19.5 605.5,-19.5 605.5,-0.5 512.5,-0.5"/>
<text text-anchor="middle" x="559" y="-7.5" font-family="Helvetica,sans-Serif" font-size="10.00">unordered_map</text>
</a>
</g>
</g>
<!-- Node13&#45;&gt;Node20 -->
<g id="edge23" class="edge">
<title>Node13&#45;&gt;Node20</title>
<path fill="none" stroke="midnightblue" d="M559,-56.08C559,-49.01 559,-38.86 559,-29.99"/>
<polygon fill="midnightblue" stroke="midnightblue" points="562.5,-29.75 559,-19.75 555.5,-29.75 562.5,-29.75"/>
</g>
<!-- Node21&#45;&gt;Node13 -->
<g id="edge26" class="edge">
<title>Node21&#45;&gt;Node13</title>
<path fill="none" stroke="midnightblue" d="M526.75,-168.37C532.42,-150.54 545.54,-109.3 553.19,-85.27"/>
<polygon fill="midnightblue" stroke="midnightblue" points="556.57,-86.18 556.27,-75.59 549.9,-84.06 556.57,-86.18"/>
</g>
<!-- Node21&#45;&gt;Node22 -->
<g id="edge27" class="edge">
<title>Node21&#45;&gt;Node22</title>
<path fill="none" stroke="midnightblue" d="M517.56,-168.08C512.05,-160.46 503.97,-149.26 497.24,-139.94"/>
<polygon fill="midnightblue" stroke="midnightblue" points="500.01,-137.81 491.32,-131.75 494.34,-141.91 500.01,-137.81"/>
</g>
<!-- Node22&#45;&gt;Node13 -->
<g id="edge28" class="edge">
<title>Node22&#45;&gt;Node13</title>
<path fill="none" stroke="midnightblue" d="M496.89,-112.32C508.15,-104.11 525.29,-91.6 538.71,-81.81"/>
<polygon fill="midnightblue" stroke="midnightblue" points="540.88,-84.56 546.89,-75.83 536.75,-78.9 540.88,-84.56"/>
</g>
<!-- Node23&#45;&gt;Node13 -->
<g id="edge34" class="edge">
<title>Node23&#45;&gt;Node13</title>
<path fill="none" stroke="midnightblue" d="M446.13,-224.43C437.2,-203.22 417.69,-147.4 442,-112 453.17,-95.73 471.11,-85.34 489.63,-78.71"/>
<polygon fill="midnightblue" stroke="midnightblue" points="490.89,-81.98 499.32,-75.57 488.73,-75.32 490.89,-81.98"/>
</g>
<!-- Node23&#45;&gt;Node21 -->
<g id="edge33" class="edge">
<title>Node23&#45;&gt;Node21</title>
<path fill="none" stroke="midnightblue" d="M461.89,-224.32C473.15,-216.11 490.29,-203.6 503.71,-193.81"/>
<polygon fill="midnightblue" stroke="midnightblue" points="505.88,-196.56 511.89,-187.83 501.75,-190.9 505.88,-196.56"/>
</g>
<!-- Node23&#45;&gt;Node22 -->
<g id="edge35" class="edge">
<title>Node23&#45;&gt;Node22</title>
<path fill="none" stroke="midnightblue" d="M452.75,-224.37C458.42,-206.54 471.54,-165.3 479.19,-141.27"/>
<polygon fill="midnightblue" stroke="midnightblue" points="482.57,-142.18 482.27,-131.59 475.9,-140.06 482.57,-142.18"/>
</g>
<!-- Node24&#45;&gt;Node2 -->
<g id="edge39" class="edge">
<title>Node24&#45;&gt;Node2</title>
<path fill="none" stroke="midnightblue" d="M155.64,-411.75C156.78,-418.86 156.65,-429.14 155.52,-438.1"/>
<polygon fill="midnightblue" stroke="midnightblue" points="152.05,-437.61 153.66,-448.08 158.93,-438.89 152.05,-437.61"/>
</g>
<!-- Node24&#45;&gt;Node3 -->
<g id="edge38" class="edge">
<title>Node24&#45;&gt;Node3</title>
<path fill="none" stroke="midnightblue" d="M151.76,-392.13C154.24,-362.16 162,-261.97 162,-179 162,-179 162,-179 162,-121 162,-88.94 161.14,-51.64 160.55,-29.75"/>
<polygon fill="midnightblue" stroke="midnightblue" points="164.04,-29.45 160.26,-19.56 157.04,-29.65 164.04,-29.45"/>
</g>
<!-- Node24&#45;&gt;Node4 -->
<g id="edge40" class="edge">
<title>Node24&#45;&gt;Node4</title>
<path fill="none" stroke="midnightblue" d="M148.26,-392.08C140.23,-365.95 116.66,-289.21 105.71,-253.58"/>
<polygon fill="midnightblue" stroke="midnightblue" points="108.91,-252.1 102.63,-243.57 102.22,-254.16 108.91,-252.1"/>
</g>
<!-- Node24&#45;&gt;Node5 -->
<g id="edge41" class="edge">
<title>Node24&#45;&gt;Node5</title>
<path fill="none" stroke="midnightblue" d="M169.7,-392.44C188.94,-383.64 219.15,-369.81 241.2,-359.72"/>
<polygon fill="midnightblue" stroke="midnightblue" points="242.75,-362.86 250.39,-355.52 239.84,-356.5 242.75,-362.86"/>
</g>
</g>
</svg>
