<?xml version="1.0" encoding="UTF-8" standalone="no"?>
<!DOCTYPE svg PUBLIC "-//W3C//DTD SVG 1.1//EN"
 "http://www.w3.org/Graphics/SVG/1.1/DTD/svg11.dtd">
<!-- Generated by graphviz version 2.43.0 (0)
 -->
<!-- Title: /home/runner/work/Simulatio/Simulatio/include/Constraints/Constraint.hpp Pages: 1 -->
<svg width="1285pt" height="362pt"
 viewBox="0.00 0.00 1285.00 362.00" xmlns="http://www.w3.org/2000/svg" xmlns:xlink="http://www.w3.org/1999/xlink">
<g id="graph0" class="graph" transform="scale(1 1) rotate(0) translate(4 358)">
<title>/home/runner/work/Simulatio/Simulatio/include/Constraints/Constraint.hpp</title>
<!-- Node1 -->
<g id="node1" class="node">
<title>Node1</title>
<g id="a_node1"><a xlink:title=" ">
<polygon fill="#bfbfbf" stroke="black" points="665.5,-312.5 665.5,-353.5 828.5,-353.5 828.5,-312.5 665.5,-312.5"/>
<text text-anchor="start" x="673.5" y="-341.5" font-family="Helvetica,sans-Serif" font-size="10.00">/home/runner/work/Simulatio</text>
<text text-anchor="start" x="673.5" y="-330.5" font-family="Helvetica,sans-Serif" font-size="10.00">/Simulatio/include/Constraints</text>
<text text-anchor="middle" x="747" y="-319.5" font-family="Helvetica,sans-Serif" font-size="10.00">/Constraint.hpp</text>
</a>
</g>
</g>
<!-- Node2 -->
<g id="node2" class="node">
<title>Node2</title>
<g id="a_node2"><a xlink:href="_link_8hpp.html" target="_top" xlink:title=" ">
<polygon fill="none" stroke="black" points="756.5,-234.5 756.5,-275.5 919.5,-275.5 919.5,-234.5 756.5,-234.5"/>
<text text-anchor="start" x="764.5" y="-263.5" font-family="Helvetica,sans-Serif" font-size="10.00">/home/runner/work/Simulatio</text>
<text text-anchor="start" x="764.5" y="-252.5" font-family="Helvetica,sans-Serif" font-size="10.00">/Simulatio/include/Constraints</text>
<text text-anchor="middle" x="838" y="-241.5" font-family="Helvetica,sans-Serif" font-size="10.00">/Link.hpp</text>
</a>
</g>
</g>
<!-- Node1&#45;&gt;Node2 -->
<g id="edge1" class="edge">
<title>Node1&#45;&gt;Node2</title>
<path fill="none" stroke="midnightblue" d="M778.4,-305.78C790.29,-295.84 803.62,-284.72 814.64,-275.51"/>
<polygon fill="midnightblue" stroke="midnightblue" points="775.87,-303.33 770.43,-312.43 780.35,-308.7 775.87,-303.33"/>
</g>
<!-- Node3 -->
<g id="node3" class="node">
<title>Node3</title>
<g id="a_node3"><a xlink:href="_system_8hpp.html" target="_top" xlink:title=" ">
<polygon fill="none" stroke="black" points="440,-156.5 440,-197.5 598,-197.5 598,-156.5 440,-156.5"/>
<text text-anchor="start" x="448" y="-185.5" font-family="Helvetica,sans-Serif" font-size="10.00">/home/runner/work/Simulatio</text>
<text text-anchor="start" x="448" y="-174.5" font-family="Helvetica,sans-Serif" font-size="10.00">/Simulatio/include/Structures</text>
<text text-anchor="middle" x="519" y="-163.5" font-family="Helvetica,sans-Serif" font-size="10.00">/System.hpp</text>
</a>
</g>
</g>
<!-- Node1&#45;&gt;Node3 -->
<g id="edge19" class="edge">
<title>Node1&#45;&gt;Node3</title>
<path fill="none" stroke="midnightblue" d="M655.17,-318.93C624.08,-310.77 590.95,-297.52 566,-276 542.14,-255.42 529.41,-219.98 523.44,-197.83"/>
<polygon fill="midnightblue" stroke="midnightblue" points="654.64,-322.41 665.18,-321.41 656.32,-315.61 654.64,-322.41"/>
</g>
<!-- Node12 -->
<g id="node12" class="node">
<title>Node12</title>
<g id="a_node12"><a xlink:href="_loose_8hpp.html" target="_top" xlink:title=" ">
<polygon fill="none" stroke="black" points="937.5,-234.5 937.5,-275.5 1100.5,-275.5 1100.5,-234.5 937.5,-234.5"/>
<text text-anchor="start" x="945.5" y="-263.5" font-family="Helvetica,sans-Serif" font-size="10.00">/home/runner/work/Simulatio</text>
<text text-anchor="start" x="945.5" y="-252.5" font-family="Helvetica,sans-Serif" font-size="10.00">/Simulatio/include/Constraints</text>
<text text-anchor="middle" x="1019" y="-241.5" font-family="Helvetica,sans-Serif" font-size="10.00">/Loose.hpp</text>
</a>
</g>
</g>
<!-- Node1&#45;&gt;Node12 -->
<g id="edge11" class="edge">
<title>Node1&#45;&gt;Node12</title>
<path fill="none" stroke="midnightblue" d="M826.74,-309.72C865.56,-298.87 911.79,-285.96 949.19,-275.51"/>
<polygon fill="midnightblue" stroke="midnightblue" points="825.74,-306.37 817.05,-312.43 827.62,-313.11 825.74,-306.37"/>
</g>
<!-- Node14 -->
<g id="node14" class="node">
<title>Node14</title>
<g id="a_node14"><a xlink:href="_slider_8hpp.html" target="_top" xlink:title=" ">
<polygon fill="none" stroke="black" points="355.5,-234.5 355.5,-275.5 518.5,-275.5 518.5,-234.5 355.5,-234.5"/>
<text text-anchor="start" x="363.5" y="-263.5" font-family="Helvetica,sans-Serif" font-size="10.00">/home/runner/work/Simulatio</text>
<text text-anchor="start" x="363.5" y="-252.5" font-family="Helvetica,sans-Serif" font-size="10.00">/Simulatio/include/Constraints</text>
<text text-anchor="middle" x="437" y="-241.5" font-family="Helvetica,sans-Serif" font-size="10.00">/Slider.hpp</text>
</a>
</g>
</g>
<!-- Node1&#45;&gt;Node14 -->
<g id="edge13" class="edge">
<title>Node1&#45;&gt;Node14</title>
<path fill="none" stroke="midnightblue" d="M657.24,-309.99C612.77,-299.09 559.55,-286.04 516.56,-275.51"/>
<polygon fill="midnightblue" stroke="midnightblue" points="656.62,-313.45 667.17,-312.43 658.29,-306.65 656.62,-313.45"/>
</g>
<!-- Node16 -->
<g id="node16" class="node">
<title>Node16</title>
<g id="a_node16"><a xlink:href="_spring_8hpp.html" target="_top" xlink:title=" ">
<polygon fill="none" stroke="black" points="575.5,-234.5 575.5,-275.5 738.5,-275.5 738.5,-234.5 575.5,-234.5"/>
<text text-anchor="start" x="583.5" y="-263.5" font-family="Helvetica,sans-Serif" font-size="10.00">/home/runner/work/Simulatio</text>
<text text-anchor="start" x="583.5" y="-252.5" font-family="Helvetica,sans-Serif" font-size="10.00">/Simulatio/include/Constraints</text>
<text text-anchor="middle" x="657" y="-241.5" font-family="Helvetica,sans-Serif" font-size="10.00">/Spring.hpp</text>
</a>
</g>
</g>
<!-- Node1&#45;&gt;Node16 -->
<g id="edge16" class="edge">
<title>Node1&#45;&gt;Node16</title>
<path fill="none" stroke="midnightblue" d="M715.95,-305.78C704.18,-295.84 691.01,-284.72 680.1,-275.51"/>
<polygon fill="midnightblue" stroke="midnightblue" points="713.92,-308.65 723.82,-312.43 718.44,-303.3 713.92,-308.65"/>
</g>
<!-- Node18 -->
<g id="node18" class="node">
<title>Node18</title>
<g id="a_node18"><a xlink:href="_constraint_8cpp.html" target="_top" xlink:title=" ">
<polygon fill="none" stroke="black" points="1119,-234.5 1119,-275.5 1277,-275.5 1277,-234.5 1119,-234.5"/>
<text text-anchor="start" x="1127" y="-263.5" font-family="Helvetica,sans-Serif" font-size="10.00">/home/runner/work/Simulatio</text>
<text text-anchor="start" x="1127" y="-252.5" font-family="Helvetica,sans-Serif" font-size="10.00">/Simulatio/src/Constraints</text>
<text text-anchor="middle" x="1198" y="-241.5" font-family="Helvetica,sans-Serif" font-size="10.00">/Constraint.cpp</text>
</a>
</g>
</g>
<!-- Node1&#45;&gt;Node18 -->
<g id="edge20" class="edge">
<title>Node1&#45;&gt;Node18</title>
<path fill="none" stroke="midnightblue" d="M838.9,-319.65C912.47,-309.32 1018.17,-293.5 1110,-276 1112.92,-275.44 1115.9,-274.86 1118.9,-274.25"/>
<polygon fill="midnightblue" stroke="midnightblue" points="838.16,-316.22 828.74,-321.07 839.13,-323.15 838.16,-316.22"/>
</g>
<!-- Node2&#45;&gt;Node3 -->
<g id="edge2" class="edge">
<title>Node2&#45;&gt;Node3</title>
<path fill="none" stroke="midnightblue" d="M746.41,-232.18C699.52,-221.01 643.01,-207.54 598.04,-196.83"/>
<polygon fill="midnightblue" stroke="midnightblue" points="745.72,-235.61 756.26,-234.53 747.35,-228.8 745.72,-235.61"/>
</g>
<!-- Node11 -->
<g id="node11" class="node">
<title>Node11</title>
<g id="a_node11"><a xlink:href="_link_8cpp.html" target="_top" xlink:title=" ">
<polygon fill="none" stroke="black" points="792,-156.5 792,-197.5 950,-197.5 950,-156.5 792,-156.5"/>
<text text-anchor="start" x="800" y="-185.5" font-family="Helvetica,sans-Serif" font-size="10.00">/home/runner/work/Simulatio</text>
<text text-anchor="start" x="800" y="-174.5" font-family="Helvetica,sans-Serif" font-size="10.00">/Simulatio/src/Constraints</text>
<text text-anchor="middle" x="871" y="-163.5" font-family="Helvetica,sans-Serif" font-size="10.00">/Link.cpp</text>
</a>
</g>
</g>
<!-- Node2&#45;&gt;Node11 -->
<g id="edge10" class="edge">
<title>Node2&#45;&gt;Node11</title>
<path fill="none" stroke="midnightblue" d="M850.52,-225.17C854.53,-215.93 858.88,-205.92 862.53,-197.51"/>
<polygon fill="midnightblue" stroke="midnightblue" points="847.27,-223.86 846.5,-234.43 853.69,-226.65 847.27,-223.86"/>
</g>
<!-- Node4 -->
<g id="node4" class="node">
<title>Node4</title>
<g id="a_node4"><a xlink:href="_renderer_8hpp.html" target="_top" xlink:title=" ">
<polygon fill="none" stroke="black" points="352,-78.5 352,-119.5 510,-119.5 510,-78.5 352,-78.5"/>
<text text-anchor="start" x="360" y="-107.5" font-family="Helvetica,sans-Serif" font-size="10.00">/home/runner/work/Simulatio</text>
<text text-anchor="start" x="360" y="-96.5" font-family="Helvetica,sans-Serif" font-size="10.00">/Simulatio/include/Renderer</text>
<text text-anchor="middle" x="431" y="-85.5" font-family="Helvetica,sans-Serif" font-size="10.00">/Renderer.hpp</text>
</a>
</g>
</g>
<!-- Node3&#45;&gt;Node4 -->
<g id="edge3" class="edge">
<title>Node3&#45;&gt;Node4</title>
<path fill="none" stroke="midnightblue" d="M488.64,-149.78C477.13,-139.84 464.25,-128.72 453.59,-119.51"/>
<polygon fill="midnightblue" stroke="midnightblue" points="486.48,-152.54 496.34,-156.43 491.06,-147.24 486.48,-152.54"/>
</g>
<!-- Node10 -->
<g id="node10" class="node">
<title>Node10</title>
<g id="a_node10"><a xlink:href="_system_8cpp.html" target="_top" xlink:title=" ">
<polygon fill="none" stroke="black" points="528,-78.5 528,-119.5 686,-119.5 686,-78.5 528,-78.5"/>
<text text-anchor="start" x="536" y="-107.5" font-family="Helvetica,sans-Serif" font-size="10.00">/home/runner/work/Simulatio</text>
<text text-anchor="start" x="536" y="-96.5" font-family="Helvetica,sans-Serif" font-size="10.00">/Simulatio/src/Structures</text>
<text text-anchor="middle" x="607" y="-85.5" font-family="Helvetica,sans-Serif" font-size="10.00">/System.cpp</text>
</a>
</g>
</g>
<!-- Node3&#45;&gt;Node10 -->
<g id="edge9" class="edge">
<title>Node3&#45;&gt;Node10</title>
<path fill="none" stroke="midnightblue" d="M549.36,-149.78C560.87,-139.84 573.75,-128.72 584.41,-119.51"/>
<polygon fill="midnightblue" stroke="midnightblue" points="546.94,-147.24 541.66,-156.43 551.52,-152.54 546.94,-147.24"/>
</g>
<!-- Node5 -->
<g id="node5" class="node">
<title>Node5</title>
<g id="a_node5"><a xlink:href="_draw_8cpp.html" target="_top" xlink:title=" ">
<polygon fill="none" stroke="black" points="0,-0.5 0,-41.5 158,-41.5 158,-0.5 0,-0.5"/>
<text text-anchor="start" x="8" y="-29.5" font-family="Helvetica,sans-Serif" font-size="10.00">/home/runner/work/Simulatio</text>
<text text-anchor="start" x="8" y="-18.5" font-family="Helvetica,sans-Serif" font-size="10.00">/Simulatio/src/Renderer</text>
<text text-anchor="middle" x="79" y="-7.5" font-family="Helvetica,sans-Serif" font-size="10.00">/Draw.cpp</text>
</a>
</g>
</g>
<!-- Node4&#45;&gt;Node5 -->
<g id="edge4" class="edge">
<title>Node4&#45;&gt;Node5</title>
<path fill="none" stroke="midnightblue" d="M341.76,-79.41C290.58,-68.66 225.13,-54.77 167,-42 164.09,-41.36 161.13,-40.71 158.14,-40.04"/>
<polygon fill="midnightblue" stroke="midnightblue" points="341.3,-82.88 351.8,-81.51 342.74,-76.03 341.3,-82.88"/>
</g>
<!-- Node6 -->
<g id="node6" class="node">
<title>Node6</title>
<g id="a_node6"><a xlink:href="_event_8cpp.html" target="_top" xlink:title=" ">
<polygon fill="none" stroke="black" points="176,-0.5 176,-41.5 334,-41.5 334,-0.5 176,-0.5"/>
<text text-anchor="start" x="184" y="-29.5" font-family="Helvetica,sans-Serif" font-size="10.00">/home/runner/work/Simulatio</text>
<text text-anchor="start" x="184" y="-18.5" font-family="Helvetica,sans-Serif" font-size="10.00">/Simulatio/src/Renderer</text>
<text text-anchor="middle" x="255" y="-7.5" font-family="Helvetica,sans-Serif" font-size="10.00">/Event.cpp</text>
</a>
</g>
</g>
<!-- Node4&#45;&gt;Node6 -->
<g id="edge5" class="edge">
<title>Node4&#45;&gt;Node6</title>
<path fill="none" stroke="midnightblue" d="M376.18,-74.33C351.76,-63.78 323.35,-51.51 300.17,-41.51"/>
<polygon fill="midnightblue" stroke="midnightblue" points="375.11,-77.68 385.68,-78.43 377.88,-71.25 375.11,-77.68"/>
</g>
<!-- Node7 -->
<g id="node7" class="node">
<title>Node7</title>
<g id="a_node7"><a xlink:href="_gui_8cpp.html" target="_top" xlink:title=" ">
<polygon fill="none" stroke="black" points="352,-0.5 352,-41.5 510,-41.5 510,-0.5 352,-0.5"/>
<text text-anchor="start" x="360" y="-29.5" font-family="Helvetica,sans-Serif" font-size="10.00">/home/runner/work/Simulatio</text>
<text text-anchor="start" x="360" y="-18.5" font-family="Helvetica,sans-Serif" font-size="10.00">/Simulatio/src/Renderer</text>
<text text-anchor="middle" x="431" y="-7.5" font-family="Helvetica,sans-Serif" font-size="10.00">/Gui.cpp</text>
</a>
</g>
</g>
<!-- Node4&#45;&gt;Node7 -->
<g id="edge6" class="edge">
<title>Node4&#45;&gt;Node7</title>
<path fill="none" stroke="midnightblue" d="M431,-68.3C431,-59.3 431,-49.65 431,-41.51"/>
<polygon fill="midnightblue" stroke="midnightblue" points="427.5,-68.43 431,-78.43 434.5,-68.43 427.5,-68.43"/>
</g>
<!-- Node8 -->
<g id="node8" class="node">
<title>Node8</title>
<g id="a_node8"><a xlink:href="_renderer_8cpp.html" target="_top" xlink:title=" ">
<polygon fill="none" stroke="black" points="528,-0.5 528,-41.5 686,-41.5 686,-0.5 528,-0.5"/>
<text text-anchor="start" x="536" y="-29.5" font-family="Helvetica,sans-Serif" font-size="10.00">/home/runner/work/Simulatio</text>
<text text-anchor="start" x="536" y="-18.5" font-family="Helvetica,sans-Serif" font-size="10.00">/Simulatio/src/Renderer</text>
<text text-anchor="middle" x="607" y="-7.5" font-family="Helvetica,sans-Serif" font-size="10.00">/Renderer.cpp</text>
</a>
</g>
</g>
<!-- Node4&#45;&gt;Node8 -->
<g id="edge7" class="edge">
<title>Node4&#45;&gt;Node8</title>
<path fill="none" stroke="midnightblue" d="M485.82,-74.33C510.24,-63.78 538.65,-51.51 561.83,-41.51"/>
<polygon fill="midnightblue" stroke="midnightblue" points="484.12,-71.25 476.32,-78.43 486.89,-77.68 484.12,-71.25"/>
</g>
<!-- Node9 -->
<g id="node9" class="node">
<title>Node9</title>
<g id="a_node9"><a xlink:href="main_8cpp.html" target="_top" xlink:title=" ">
<polygon fill="none" stroke="black" points="703.5,-6 703.5,-36 862.5,-36 862.5,-6 703.5,-6"/>
<text text-anchor="start" x="711.5" y="-24" font-family="Helvetica,sans-Serif" font-size="10.00">/home/runner/work/Simulatio</text>
<text text-anchor="middle" x="783" y="-13" font-family="Helvetica,sans-Serif" font-size="10.00">/Simulatio/src/main/main.cpp</text>
</a>
</g>
</g>
<!-- Node4&#45;&gt;Node9 -->
<g id="edge8" class="edge">
<title>Node4&#45;&gt;Node9</title>
<path fill="none" stroke="midnightblue" d="M520.02,-77.8C598.69,-60.95 620,-58.19 695,-42 703.73,-40.12 712.93,-38.08 721.97,-36.05"/>
<polygon fill="midnightblue" stroke="midnightblue" points="519.18,-74.4 510.14,-79.93 520.65,-81.25 519.18,-74.4"/>
</g>
<!-- Node13 -->
<g id="node13" class="node">
<title>Node13</title>
<g id="a_node13"><a xlink:href="_loose_8cpp.html" target="_top" xlink:title=" ">
<polygon fill="none" stroke="black" points="968,-156.5 968,-197.5 1126,-197.5 1126,-156.5 968,-156.5"/>
<text text-anchor="start" x="976" y="-185.5" font-family="Helvetica,sans-Serif" font-size="10.00">/home/runner/work/Simulatio</text>
<text text-anchor="start" x="976" y="-174.5" font-family="Helvetica,sans-Serif" font-size="10.00">/Simulatio/src/Constraints</text>
<text text-anchor="middle" x="1047" y="-163.5" font-family="Helvetica,sans-Serif" font-size="10.00">/Loose.cpp</text>
</a>
</g>
</g>
<!-- Node12&#45;&gt;Node13 -->
<g id="edge12" class="edge">
<title>Node12&#45;&gt;Node13</title>
<path fill="none" stroke="midnightblue" d="M1029.73,-224.88C1033.1,-215.72 1036.75,-205.83 1039.81,-197.51"/>
<polygon fill="midnightblue" stroke="midnightblue" points="1026.38,-223.83 1026.21,-234.43 1032.95,-226.25 1026.38,-223.83"/>
</g>
<!-- Node14&#45;&gt;Node3 -->
<g id="edge14" class="edge">
<title>Node14&#45;&gt;Node3</title>
<path fill="none" stroke="midnightblue" d="M465.6,-227.49C476.24,-217.63 488.11,-206.63 497.95,-197.51"/>
<polygon fill="midnightblue" stroke="midnightblue" points="463.07,-225.06 458.12,-234.43 467.83,-230.2 463.07,-225.06"/>
</g>
<!-- Node15 -->
<g id="node15" class="node">
<title>Node15</title>
<g id="a_node15"><a xlink:href="_slider_8cpp.html" target="_top" xlink:title=" ">
<polygon fill="none" stroke="black" points="264,-156.5 264,-197.5 422,-197.5 422,-156.5 264,-156.5"/>
<text text-anchor="start" x="272" y="-185.5" font-family="Helvetica,sans-Serif" font-size="10.00">/home/runner/work/Simulatio</text>
<text text-anchor="start" x="272" y="-174.5" font-family="Helvetica,sans-Serif" font-size="10.00">/Simulatio/src/Constraints</text>
<text text-anchor="middle" x="343" y="-163.5" font-family="Helvetica,sans-Serif" font-size="10.00">/Slider.cpp</text>
</a>
</g>
</g>
<!-- Node14&#45;&gt;Node15 -->
<g id="edge15" class="edge">
<title>Node14&#45;&gt;Node15</title>
<path fill="none" stroke="midnightblue" d="M404.92,-228.06C392.54,-218.06 378.63,-206.8 367.13,-197.51"/>
<polygon fill="midnightblue" stroke="midnightblue" points="402.82,-230.86 412.79,-234.43 407.22,-225.42 402.82,-230.86"/>
</g>
<!-- Node16&#45;&gt;Node3 -->
<g id="edge17" class="edge">
<title>Node16&#45;&gt;Node3</title>
<path fill="none" stroke="midnightblue" d="M612.49,-229.49C593.69,-219.13 572.11,-207.25 554.42,-197.51"/>
<polygon fill="midnightblue" stroke="midnightblue" points="611.01,-232.67 621.46,-234.43 614.39,-226.54 611.01,-232.67"/>
</g>
<!-- Node17 -->
<g id="node17" class="node">
<title>Node17</title>
<g id="a_node17"><a xlink:href="_spring_8cpp.html" target="_top" xlink:title=" ">
<polygon fill="none" stroke="black" points="616,-156.5 616,-197.5 774,-197.5 774,-156.5 616,-156.5"/>
<text text-anchor="start" x="624" y="-185.5" font-family="Helvetica,sans-Serif" font-size="10.00">/home/runner/work/Simulatio</text>
<text text-anchor="start" x="624" y="-174.5" font-family="Helvetica,sans-Serif" font-size="10.00">/Simulatio/src/Constraints</text>
<text text-anchor="middle" x="695" y="-163.5" font-family="Helvetica,sans-Serif" font-size="10.00">/Spring.cpp</text>
</a>
</g>
</g>
<!-- Node16&#45;&gt;Node17 -->
<g id="edge18" class="edge">
<title>Node16&#45;&gt;Node17</title>
<path fill="none" stroke="midnightblue" d="M671.27,-225.47C675.93,-216.14 681,-206.01 685.25,-197.51"/>
<polygon fill="midnightblue" stroke="midnightblue" points="668.13,-223.92 666.79,-234.43 674.39,-227.05 668.13,-223.92"/>
</g>
</g>
</svg>
