<?xml version="1.0" encoding="UTF-8" standalone="no"?>
<!DOCTYPE svg PUBLIC "-//W3C//DTD SVG 1.1//EN"
 "http://www.w3.org/Graphics/SVG/1.1/DTD/svg11.dtd">
<!-- Generated by graphviz version 2.43.0 (0)
 -->
<!-- Title: /home/runner/work/Simulatio/Simulatio/engine/src/Constraints/Constraint.cpp Pages: 1 -->
<svg width="903pt" height="621pt"
 viewBox="0.00 0.00 902.50 621.00" xmlns="http://www.w3.org/2000/svg" xmlns:xlink="http://www.w3.org/1999/xlink">
<g id="graph0" class="graph" transform="scale(1 1) rotate(0) translate(4 617)">
<title>/home/runner/work/Simulatio/Simulatio/engine/src/Constraints/Constraint.cpp</title>
<!-- Node1 -->
<g id="node1" class="node">
<title>Node1</title>
<g id="a_node1"><a xlink:title=" ">
<polygon fill="#bfbfbf" stroke="black" points="210,-571.5 210,-612.5 388,-612.5 388,-571.5 210,-571.5"/>
<text text-anchor="start" x="218" y="-600.5" font-family="Helvetica,sans-Serif" font-size="10.00">/home/runner/work/Simulatio</text>
<text text-anchor="start" x="218" y="-589.5" font-family="Helvetica,sans-Serif" font-size="10.00">/Simulatio/engine/src/Constraints</text>
<text text-anchor="middle" x="299" y="-578.5" font-family="Helvetica,sans-Serif" font-size="10.00">/Constraint.cpp</text>
</a>
</g>
</g>
<!-- Node2 -->
<g id="node2" class="node">
<title>Node2</title>
<g id="a_node2"><a xlink:href="_constraint_8hpp.html" target="_top" xlink:title=" ">
<polygon fill="none" stroke="black" points="235,-504.5 235,-534.5 363,-534.5 363,-504.5 235,-504.5"/>
<text text-anchor="start" x="243" y="-522.5" font-family="Helvetica,sans-Serif" font-size="10.00">../../include/Constraints</text>
<text text-anchor="middle" x="299" y="-511.5" font-family="Helvetica,sans-Serif" font-size="10.00">/Constraint.hpp</text>
</a>
</g>
</g>
<!-- Node1&#45;&gt;Node2 -->
<g id="edge1" class="edge">
<title>Node1&#45;&gt;Node2</title>
<path fill="none" stroke="midnightblue" d="M299,-571.36C299,-563.23 299,-553.7 299,-545.11"/>
<polygon fill="midnightblue" stroke="midnightblue" points="302.5,-544.89 299,-534.89 295.5,-544.89 302.5,-544.89"/>
</g>
<!-- Node3 -->
<g id="node3" class="node">
<title>Node3</title>
<g id="a_node3"><a xlink:href="_circle_8hpp.html" target="_top" xlink:title=" ">
<polygon fill="none" stroke="black" points="198,-448.5 198,-467.5 314,-467.5 314,-448.5 198,-448.5"/>
<text text-anchor="middle" x="256" y="-455.5" font-family="Helvetica,sans-Serif" font-size="10.00">../Corpses/Circle.hpp</text>
</a>
</g>
</g>
<!-- Node2&#45;&gt;Node3 -->
<g id="edge2" class="edge">
<title>Node2&#45;&gt;Node3</title>
<path fill="none" stroke="midnightblue" d="M288.81,-504.4C282.63,-495.84 274.7,-484.87 268.18,-475.86"/>
<polygon fill="midnightblue" stroke="midnightblue" points="270.95,-473.71 262.26,-467.66 265.28,-477.81 270.95,-473.71"/>
</g>
<!-- Node5 -->
<g id="node5" class="node">
<title>Node5</title>
<g id="a_node5"><a xlink:title=" ">
<polygon fill="none" stroke="#bfbfbf" points="232,-224.5 232,-243.5 300,-243.5 300,-224.5 232,-224.5"/>
<text text-anchor="middle" x="266" y="-231.5" font-family="Helvetica,sans-Serif" font-size="10.00">Config.hpp</text>
</a>
</g>
</g>
<!-- Node2&#45;&gt;Node5 -->
<g id="edge48" class="edge">
<title>Node2&#45;&gt;Node5</title>
<path fill="none" stroke="midnightblue" d="M308.12,-504.19C320.74,-482.97 342,-441.51 342,-403 342,-403 342,-403 342,-345 342,-305.28 308.04,-269.5 285.52,-250.15"/>
<polygon fill="midnightblue" stroke="midnightblue" points="287.48,-247.24 277.54,-243.57 283.02,-252.63 287.48,-247.24"/>
</g>
<!-- Node6 -->
<g id="node6" class="node">
<title>Node6</title>
<g id="a_node6"><a xlink:href="_corpse_8hpp.html" target="_top" xlink:title=" ">
<polygon fill="none" stroke="black" points="154.5,-336.5 154.5,-355.5 225.5,-355.5 225.5,-336.5 154.5,-336.5"/>
<text text-anchor="middle" x="190" y="-343.5" font-family="Helvetica,sans-Serif" font-size="10.00">Corpse.hpp</text>
</a>
</g>
</g>
<!-- Node2&#45;&gt;Node6 -->
<g id="edge44" class="edge">
<title>Node2&#45;&gt;Node6</title>
<path fill="none" stroke="midnightblue" d="M245.38,-504.49C222.93,-496.59 197.75,-484.84 179,-468 151.86,-443.62 134.62,-425.94 148,-392 152.51,-380.55 161.47,-370.29 169.95,-362.47"/>
<polygon fill="midnightblue" stroke="midnightblue" points="172.47,-364.93 177.79,-355.76 167.91,-359.61 172.47,-364.93"/>
</g>
<!-- Node10 -->
<g id="node10" class="node">
<title>Node10</title>
<g id="a_node10"><a xlink:href="_geometry_8hpp.html" target="_top" xlink:title=" ">
<polygon fill="none" stroke="black" points="370,-280.5 370,-299.5 516,-299.5 516,-280.5 370,-280.5"/>
<text text-anchor="middle" x="443" y="-287.5" font-family="Helvetica,sans-Serif" font-size="10.00">../Geometry/Geometry.hpp</text>
</a>
</g>
</g>
<!-- Node2&#45;&gt;Node10 -->
<g id="edge46" class="edge">
<title>Node2&#45;&gt;Node10</title>
<path fill="none" stroke="midnightblue" d="M318.45,-504.41C330.37,-495.07 345.34,-481.98 356,-468 395.71,-415.91 424.65,-342.83 436.75,-309.22"/>
<polygon fill="midnightblue" stroke="midnightblue" points="440.05,-310.37 440.07,-299.77 433.45,-308.04 440.05,-310.37"/>
</g>
<!-- Node14 -->
<g id="node14" class="node">
<title>Node14</title>
<g id="a_node14"><a xlink:href="_maths_8hpp.html" target="_top" xlink:title=" ">
<polygon fill="none" stroke="black" points="393,-56.5 393,-75.5 521,-75.5 521,-56.5 393,-56.5"/>
<text text-anchor="middle" x="457" y="-63.5" font-family="Helvetica,sans-Serif" font-size="10.00">../Geometry/Maths.hpp</text>
</a>
</g>
</g>
<!-- Node2&#45;&gt;Node14 -->
<g id="edge47" class="edge">
<title>Node2&#45;&gt;Node14</title>
<path fill="none" stroke="midnightblue" d="M363.17,-513.53C477.37,-502.91 704,-473.01 704,-403 704,-403 704,-403 704,-177 704,-100.56 604.06,-76.86 531.32,-69.73"/>
<polygon fill="midnightblue" stroke="midnightblue" points="531.52,-66.23 521.25,-68.83 530.9,-73.21 531.52,-66.23"/>
</g>
<!-- Node26 -->
<g id="node26" class="node">
<title>Node26</title>
<g id="a_node26"><a xlink:href="_polygon_8hpp.html" target="_top" xlink:title=" ">
<polygon fill="none" stroke="black" points="156.5,-392.5 156.5,-411.5 233.5,-411.5 233.5,-392.5 156.5,-392.5"/>
<text text-anchor="middle" x="195" y="-399.5" font-family="Helvetica,sans-Serif" font-size="10.00">Polygon.hpp</text>
</a>
</g>
</g>
<!-- Node2&#45;&gt;Node26 -->
<g id="edge45" class="edge">
<title>Node2&#45;&gt;Node26</title>
<path fill="none" stroke="midnightblue" d="M238.01,-504.46C219.03,-496.92 200.17,-485.42 189,-468 180.13,-454.16 183.23,-435.14 187.59,-421.25"/>
<polygon fill="midnightblue" stroke="midnightblue" points="190.9,-422.4 190.99,-411.8 184.32,-420.03 190.9,-422.4"/>
</g>
<!-- Node4 -->
<g id="node4" class="node">
<title>Node4</title>
<g id="a_node4"><a xlink:title=" ">
<polygon fill="none" stroke="#bfbfbf" points="2.5,-0.5 2.5,-19.5 49.5,-19.5 49.5,-0.5 2.5,-0.5"/>
<text text-anchor="middle" x="26" y="-7.5" font-family="Helvetica,sans-Serif" font-size="10.00">vector</text>
</a>
</g>
</g>
<!-- Node3&#45;&gt;Node4 -->
<g id="edge3" class="edge">
<title>Node3&#45;&gt;Node4</title>
<path fill="none" stroke="midnightblue" d="M197.91,-456.5C122.38,-452.43 0,-432.62 0,-347 0,-347 0,-347 0,-121 0,-87.93 11.27,-50.73 18.97,-29.17"/>
<polygon fill="midnightblue" stroke="midnightblue" points="22.29,-30.27 22.49,-19.68 15.73,-27.83 22.29,-30.27"/>
</g>
<!-- Node3&#45;&gt;Node5 -->
<g id="edge4" class="edge">
<title>Node3&#45;&gt;Node5</title>
<path fill="none" stroke="midnightblue" d="M257.63,-448.17C262.19,-422.34 274.58,-344.66 271,-280 270.52,-271.36 269.53,-261.83 268.55,-253.77"/>
<polygon fill="midnightblue" stroke="midnightblue" points="271.99,-253.07 267.24,-243.6 265.05,-253.97 271.99,-253.07"/>
</g>
<!-- Node3&#45;&gt;Node6 -->
<g id="edge5" class="edge">
<title>Node3&#45;&gt;Node6</title>
<path fill="none" stroke="midnightblue" d="M256.03,-448.37C255.71,-435.29 253.63,-410.05 243,-392 235.82,-379.81 224.11,-369.35 213.52,-361.59"/>
<polygon fill="midnightblue" stroke="midnightblue" points="215.23,-358.52 205.01,-355.73 211.26,-364.29 215.23,-358.52"/>
</g>
<!-- Node3&#45;&gt;Node26 -->
<g id="edge39" class="edge">
<title>Node3&#45;&gt;Node26</title>
<path fill="none" stroke="midnightblue" d="M241.08,-448.32C230.55,-440.5 216.94,-428.78 207.08,-419.22"/>
<polygon fill="midnightblue" stroke="midnightblue" points="209.33,-416.52 199.83,-411.83 204.33,-421.42 209.33,-416.52"/>
</g>
<!-- Node6&#45;&gt;Node4 -->
<g id="edge9" class="edge">
<title>Node6&#45;&gt;Node4</title>
<path fill="none" stroke="midnightblue" d="M169.36,-336.42C136.5,-321.23 76,-286.29 76,-235 76,-235 76,-235 76,-121 76,-85.18 53.76,-48.21 38.95,-27.56"/>
<polygon fill="midnightblue" stroke="midnightblue" points="41.73,-25.45 32.95,-19.52 36.12,-29.63 41.73,-25.45"/>
</g>
<!-- Node6&#45;&gt;Node5 -->
<g id="edge38" class="edge">
<title>Node6&#45;&gt;Node5</title>
<path fill="none" stroke="midnightblue" d="M195.96,-336.37C208.51,-318.22 237.81,-275.8 254.26,-251.99"/>
<polygon fill="midnightblue" stroke="midnightblue" points="257.26,-253.81 260.06,-243.59 251.5,-249.83 257.26,-253.81"/>
</g>
<!-- Node7 -->
<g id="node7" class="node">
<title>Node7</title>
<g id="a_node7"><a xlink:title=" ">
<polygon fill="none" stroke="#bfbfbf" points="67.5,-0.5 67.5,-19.5 114.5,-19.5 114.5,-0.5 67.5,-0.5"/>
<text text-anchor="middle" x="91" y="-7.5" font-family="Helvetica,sans-Serif" font-size="10.00">cmath</text>
</a>
</g>
</g>
<!-- Node6&#45;&gt;Node7 -->
<g id="edge6" class="edge">
<title>Node6&#45;&gt;Node7</title>
<path fill="none" stroke="midnightblue" d="M178.46,-336.43C157.2,-319.57 114,-279.8 114,-235 114,-235 114,-235 114,-121 114,-88.12 104.03,-50.86 97.22,-29.24"/>
<polygon fill="midnightblue" stroke="midnightblue" points="100.54,-28.12 94.1,-19.71 93.89,-30.3 100.54,-28.12"/>
</g>
<!-- Node8 -->
<g id="node8" class="node">
<title>Node8</title>
<g id="a_node8"><a xlink:title=" ">
<polygon fill="none" stroke="#bfbfbf" points="133,-0.5 133,-19.5 193,-19.5 193,-0.5 133,-0.5"/>
<text text-anchor="middle" x="163" y="-7.5" font-family="Helvetica,sans-Serif" font-size="10.00">iostream</text>
</a>
</g>
</g>
<!-- Node6&#45;&gt;Node8 -->
<g id="edge7" class="edge">
<title>Node6&#45;&gt;Node8</title>
<path fill="none" stroke="midnightblue" d="M184.72,-336.23C174.27,-318.04 152,-274.6 152,-235 152,-235 152,-235 152,-121 152,-88.79 156.73,-51.53 159.98,-29.69"/>
<polygon fill="midnightblue" stroke="midnightblue" points="163.49,-29.95 161.56,-19.53 156.57,-28.87 163.49,-29.95"/>
</g>
<!-- Node9 -->
<g id="node9" class="node">
<title>Node9</title>
<g id="a_node9"><a xlink:title=" ">
<polygon fill="none" stroke="#bfbfbf" points="211,-0.5 211,-19.5 269,-19.5 269,-0.5 211,-0.5"/>
<text text-anchor="middle" x="240" y="-7.5" font-family="Helvetica,sans-Serif" font-size="10.00">memory</text>
</a>
</g>
</g>
<!-- Node6&#45;&gt;Node9 -->
<g id="edge8" class="edge">
<title>Node6&#45;&gt;Node9</title>
<path fill="none" stroke="midnightblue" d="M190,-336.44C190,-317.94 190,-272.81 190,-235 190,-235 190,-235 190,-121 190,-85.18 212.24,-48.21 227.05,-27.56"/>
<polygon fill="midnightblue" stroke="midnightblue" points="229.88,-29.63 233.05,-19.52 224.27,-25.45 229.88,-29.63"/>
</g>
<!-- Node6&#45;&gt;Node10 -->
<g id="edge10" class="edge">
<title>Node6&#45;&gt;Node10</title>
<path fill="none" stroke="midnightblue" d="M225.71,-337.38C269.42,-328.05 343.69,-312.2 393.05,-301.66"/>
<polygon fill="midnightblue" stroke="midnightblue" points="393.83,-305.07 402.88,-299.56 392.37,-298.23 393.83,-305.07"/>
</g>
<!-- Node10&#45;&gt;Node5 -->
<g id="edge31" class="edge">
<title>Node10&#45;&gt;Node5</title>
<path fill="none" stroke="midnightblue" d="M414.95,-280.44C384.92,-271.28 337.09,-256.69 303.76,-246.52"/>
<polygon fill="midnightblue" stroke="midnightblue" points="304.5,-243.09 293.91,-243.52 302.46,-249.78 304.5,-243.09"/>
</g>
<!-- Node11 -->
<g id="node11" class="node">
<title>Node11</title>
<g id="a_node11"><a xlink:href="_recorder_8hpp.html" target="_top" xlink:title=" ">
<polygon fill="none" stroke="black" points="528,-224.5 528,-243.5 676,-243.5 676,-224.5 528,-224.5"/>
<text text-anchor="middle" x="602" y="-231.5" font-family="Helvetica,sans-Serif" font-size="10.00">../Benchmark/Recorder.hpp</text>
</a>
</g>
</g>
<!-- Node10&#45;&gt;Node11 -->
<g id="edge11" class="edge">
<title>Node10&#45;&gt;Node11</title>
<path fill="none" stroke="midnightblue" d="M468.19,-280.44C494.94,-271.36 537.4,-256.94 567.31,-246.78"/>
<polygon fill="midnightblue" stroke="midnightblue" points="568.58,-250.05 576.92,-243.52 566.33,-243.42 568.58,-250.05"/>
</g>
<!-- Node10&#45;&gt;Node14 -->
<g id="edge32" class="edge">
<title>Node10&#45;&gt;Node14</title>
<path fill="none" stroke="midnightblue" d="M446.86,-280.25C450.56,-271.33 455.89,-257.01 458,-244 467.25,-187 462.38,-118.3 459.14,-85.8"/>
<polygon fill="midnightblue" stroke="midnightblue" points="462.58,-85.12 458.04,-75.55 455.62,-85.87 462.58,-85.12"/>
</g>
<!-- Node23 -->
<g id="node23" class="node">
<title>Node23</title>
<g id="a_node23"><a xlink:href="_bounds_8hpp.html" target="_top" xlink:title=" ">
<polygon fill="none" stroke="black" points="284,-168.5 284,-187.5 358,-187.5 358,-168.5 284,-168.5"/>
<text text-anchor="middle" x="321" y="-175.5" font-family="Helvetica,sans-Serif" font-size="10.00">Bounds.hpp</text>
</a>
</g>
</g>
<!-- Node10&#45;&gt;Node23 -->
<g id="edge27" class="edge">
<title>Node10&#45;&gt;Node23</title>
<path fill="none" stroke="midnightblue" d="M411.23,-280.45C390.86,-273.55 365.12,-261.97 348,-244 335.76,-231.15 328.72,-211.97 324.92,-197.77"/>
<polygon fill="midnightblue" stroke="midnightblue" points="328.24,-196.59 322.53,-187.67 321.43,-198.21 328.24,-196.59"/>
</g>
<!-- Node24 -->
<g id="node24" class="node">
<title>Node24</title>
<g id="a_node24"><a xlink:href="_vector_8hpp.html" target="_top" xlink:title=" ">
<polygon fill="none" stroke="black" points="349,-112.5 349,-131.5 417,-131.5 417,-112.5 349,-112.5"/>
<text text-anchor="middle" x="383" y="-119.5" font-family="Helvetica,sans-Serif" font-size="10.00">Vector.hpp</text>
</a>
</g>
</g>
<!-- Node10&#45;&gt;Node24 -->
<g id="edge33" class="edge">
<title>Node10&#45;&gt;Node24</title>
<path fill="none" stroke="midnightblue" d="M444.42,-280.39C446.19,-267.76 448.38,-243.59 443,-224 434.05,-191.4 411.54,-158.68 396.78,-139.65"/>
<polygon fill="midnightblue" stroke="midnightblue" points="399.4,-137.33 390.43,-131.7 393.93,-141.7 399.4,-137.33"/>
</g>
<!-- Node25 -->
<g id="node25" class="node">
<title>Node25</title>
<g id="a_node25"><a xlink:href="_vertices_8hpp.html" target="_top" xlink:title=" ">
<polygon fill="none" stroke="black" points="356.5,-224.5 356.5,-243.5 433.5,-243.5 433.5,-224.5 356.5,-224.5"/>
<text text-anchor="middle" x="395" y="-231.5" font-family="Helvetica,sans-Serif" font-size="10.00">Vertices.hpp</text>
</a>
</g>
</g>
<!-- Node10&#45;&gt;Node25 -->
<g id="edge34" class="edge">
<title>Node10&#45;&gt;Node25</title>
<path fill="none" stroke="midnightblue" d="M435.07,-280.08C428.15,-272.3 417.93,-260.8 409.55,-251.37"/>
<polygon fill="midnightblue" stroke="midnightblue" points="412.04,-248.9 402.78,-243.75 406.81,-253.55 412.04,-248.9"/>
</g>
<!-- Node12 -->
<g id="node12" class="node">
<title>Node12</title>
<g id="a_node12"><a xlink:href="_performance_8hpp.html" target="_top" xlink:title=" ">
<polygon fill="none" stroke="black" points="540,-168.5 540,-187.5 640,-187.5 640,-168.5 540,-168.5"/>
<text text-anchor="middle" x="590" y="-175.5" font-family="Helvetica,sans-Serif" font-size="10.00">Performance.hpp</text>
</a>
</g>
</g>
<!-- Node11&#45;&gt;Node12 -->
<g id="edge12" class="edge">
<title>Node11&#45;&gt;Node12</title>
<path fill="none" stroke="midnightblue" d="M600.02,-224.08C598.43,-216.93 596.14,-206.64 594.15,-197.69"/>
<polygon fill="midnightblue" stroke="midnightblue" points="597.53,-196.75 591.94,-187.75 590.7,-198.27 597.53,-196.75"/>
</g>
<!-- Node13 -->
<g id="node13" class="node">
<title>Node13</title>
<g id="a_node13"><a xlink:href="_block_data_8hpp.html" target="_top" xlink:title=" ">
<polygon fill="none" stroke="black" points="537,-112.5 537,-131.5 625,-131.5 625,-112.5 537,-112.5"/>
<text text-anchor="middle" x="581" y="-119.5" font-family="Helvetica,sans-Serif" font-size="10.00">BlockData.hpp</text>
</a>
</g>
</g>
<!-- Node12&#45;&gt;Node13 -->
<g id="edge13" class="edge">
<title>Node12&#45;&gt;Node13</title>
<path fill="none" stroke="midnightblue" d="M588.51,-168.08C587.32,-160.93 585.61,-150.64 584.12,-141.69"/>
<polygon fill="midnightblue" stroke="midnightblue" points="587.55,-141.04 582.46,-131.75 580.65,-142.19 587.55,-141.04"/>
</g>
<!-- Node13&#45;&gt;Node14 -->
<g id="edge14" class="edge">
<title>Node13&#45;&gt;Node14</title>
<path fill="none" stroke="midnightblue" d="M561.35,-112.44C541.04,-103.6 509.1,-89.69 485.9,-79.59"/>
<polygon fill="midnightblue" stroke="midnightblue" points="487.12,-76.3 476.56,-75.52 484.33,-82.72 487.12,-76.3"/>
</g>
<!-- Node14&#45;&gt;Node4 -->
<g id="edge26" class="edge">
<title>Node14&#45;&gt;Node4</title>
<path fill="none" stroke="midnightblue" d="M392.94,-60.98C315.8,-55.43 182.26,-43.54 59.6,-20.05"/>
<polygon fill="midnightblue" stroke="midnightblue" points="60.15,-16.59 49.66,-18.12 58.81,-23.46 60.15,-16.59"/>
</g>
<!-- Node14&#45;&gt;Node7 -->
<g id="edge17" class="edge">
<title>Node14&#45;&gt;Node7</title>
<path fill="none" stroke="midnightblue" d="M392.74,-58.86C327.54,-52.05 223.58,-39.64 124.58,-19.87"/>
<polygon fill="midnightblue" stroke="midnightblue" points="125.2,-16.42 114.7,-17.87 123.81,-23.28 125.2,-16.42"/>
</g>
<!-- Node14&#45;&gt;Node8 -->
<g id="edge20" class="edge">
<title>Node14&#45;&gt;Node8</title>
<path fill="none" stroke="midnightblue" d="M404.1,-56.49C354.64,-48.35 278.49,-35.34 203.32,-20.19"/>
<polygon fill="midnightblue" stroke="midnightblue" points="203.7,-16.69 193.2,-18.13 202.3,-23.55 203.7,-16.69"/>
</g>
<!-- Node14&#45;&gt;Node9 -->
<g id="edge22" class="edge">
<title>Node14&#45;&gt;Node9</title>
<path fill="none" stroke="midnightblue" d="M422.62,-56.44C383.5,-46.71 319.78,-30.85 278.89,-20.68"/>
<polygon fill="midnightblue" stroke="midnightblue" points="279.56,-17.24 269.01,-18.22 277.87,-24.03 279.56,-17.24"/>
</g>
<!-- Node15 -->
<g id="node15" class="node">
<title>Node15</title>
<g id="a_node15"><a xlink:title=" ">
<polygon fill="none" stroke="#bfbfbf" points="636,-0.5 636,-19.5 678,-19.5 678,-0.5 636,-0.5"/>
<text text-anchor="middle" x="657" y="-7.5" font-family="Helvetica,sans-Serif" font-size="10.00">array</text>
</a>
</g>
</g>
<!-- Node14&#45;&gt;Node15 -->
<g id="edge15" class="edge">
<title>Node14&#45;&gt;Node15</title>
<path fill="none" stroke="midnightblue" d="M490.63,-56.44C522.98,-48.14 573.48,-34.97 625.91,-20.24"/>
<polygon fill="midnightblue" stroke="midnightblue" points="627.05,-23.56 635.72,-17.48 625.15,-16.82 627.05,-23.56"/>
</g>
<!-- Node16 -->
<g id="node16" class="node">
<title>Node16</title>
<g id="a_node16"><a xlink:title=" ">
<polygon fill="none" stroke="#bfbfbf" points="696,-0.5 696,-19.5 746,-19.5 746,-0.5 696,-0.5"/>
<text text-anchor="middle" x="721" y="-7.5" font-family="Helvetica,sans-Serif" font-size="10.00">chrono</text>
</a>
</g>
</g>
<!-- Node14&#45;&gt;Node16 -->
<g id="edge16" class="edge">
<title>Node14&#45;&gt;Node16</title>
<path fill="none" stroke="midnightblue" d="M505.66,-56.44C550.15,-48.39 618.01,-35.58 685.8,-20.16"/>
<polygon fill="midnightblue" stroke="midnightblue" points="686.83,-23.52 695.79,-17.87 685.27,-16.69 686.83,-23.52"/>
</g>
<!-- Node17 -->
<g id="node17" class="node">
<title>Node17</title>
<g id="a_node17"><a xlink:title=" ">
<polygon fill="none" stroke="#bfbfbf" points="764.5,-0.5 764.5,-19.5 811.5,-19.5 811.5,-0.5 764.5,-0.5"/>
<text text-anchor="middle" x="788" y="-7.5" font-family="Helvetica,sans-Serif" font-size="10.00">deque</text>
</a>
</g>
</g>
<!-- Node14&#45;&gt;Node17 -->
<g id="edge18" class="edge">
<title>Node14&#45;&gt;Node17</title>
<path fill="none" stroke="midnightblue" d="M521.04,-57.52C579.4,-50.21 668.13,-37.85 754.33,-19.92"/>
<polygon fill="midnightblue" stroke="midnightblue" points="755.22,-23.31 764.29,-17.82 753.78,-16.46 755.22,-23.31"/>
</g>
<!-- Node18 -->
<g id="node18" class="node">
<title>Node18</title>
<g id="a_node18"><a xlink:title=" ">
<polygon fill="none" stroke="#bfbfbf" points="829.5,-0.5 829.5,-19.5 894.5,-19.5 894.5,-0.5 829.5,-0.5"/>
<text text-anchor="middle" x="862" y="-7.5" font-family="Helvetica,sans-Serif" font-size="10.00">functional</text>
</a>
</g>
</g>
<!-- Node14&#45;&gt;Node18 -->
<g id="edge19" class="edge">
<title>Node14&#45;&gt;Node18</title>
<path fill="none" stroke="midnightblue" d="M521.05,-58.9C591.82,-51.76 709.36,-38.68 819.44,-20.14"/>
<polygon fill="midnightblue" stroke="midnightblue" points="820.11,-23.58 829.38,-18.45 818.93,-16.68 820.11,-23.58"/>
</g>
<!-- Node19 -->
<g id="node19" class="node">
<title>Node19</title>
<g id="a_node19"><a xlink:title=" ">
<polygon fill="none" stroke="#bfbfbf" points="287.5,-0.5 287.5,-19.5 340.5,-19.5 340.5,-0.5 287.5,-0.5"/>
<text text-anchor="middle" x="314" y="-7.5" font-family="Helvetica,sans-Serif" font-size="10.00">iterator</text>
</a>
</g>
</g>
<!-- Node14&#45;&gt;Node19 -->
<g id="edge21" class="edge">
<title>Node14&#45;&gt;Node19</title>
<path fill="none" stroke="midnightblue" d="M434.34,-56.44C410.6,-47.48 373.09,-33.31 346.26,-23.18"/>
<polygon fill="midnightblue" stroke="midnightblue" points="347.14,-19.77 336.55,-19.52 344.67,-26.32 347.14,-19.77"/>
</g>
<!-- Node20 -->
<g id="node20" class="node">
<title>Node20</title>
<g id="a_node20"><a xlink:title=" ">
<polygon fill="none" stroke="#bfbfbf" points="359,-0.5 359,-19.5 415,-19.5 415,-0.5 359,-0.5"/>
<text text-anchor="middle" x="387" y="-7.5" font-family="Helvetica,sans-Serif" font-size="10.00">sstream</text>
</a>
</g>
</g>
<!-- Node14&#45;&gt;Node20 -->
<g id="edge23" class="edge">
<title>Node14&#45;&gt;Node20</title>
<path fill="none" stroke="midnightblue" d="M445.75,-56.32C435.2,-48.18 419.2,-35.84 406.56,-26.09"/>
<polygon fill="midnightblue" stroke="midnightblue" points="408.51,-23.17 398.45,-19.83 404.23,-28.71 408.51,-23.17"/>
</g>
<!-- Node21 -->
<g id="node21" class="node">
<title>Node21</title>
<g id="a_node21"><a xlink:title=" ">
<polygon fill="none" stroke="#bfbfbf" points="433.5,-0.5 433.5,-19.5 506.5,-19.5 506.5,-0.5 433.5,-0.5"/>
<text text-anchor="middle" x="470" y="-7.5" font-family="Helvetica,sans-Serif" font-size="10.00">string_view</text>
</a>
</g>
</g>
<!-- Node14&#45;&gt;Node21 -->
<g id="edge24" class="edge">
<title>Node14&#45;&gt;Node21</title>
<path fill="none" stroke="midnightblue" d="M459.15,-56.08C460.87,-48.93 463.35,-38.64 465.5,-29.69"/>
<polygon fill="midnightblue" stroke="midnightblue" points="468.96,-30.29 467.89,-19.75 462.15,-28.65 468.96,-30.29"/>
</g>
<!-- Node22 -->
<g id="node22" class="node">
<title>Node22</title>
<g id="a_node22"><a xlink:title=" ">
<polygon fill="none" stroke="#bfbfbf" points="524.5,-0.5 524.5,-19.5 617.5,-19.5 617.5,-0.5 524.5,-0.5"/>
<text text-anchor="middle" x="571" y="-7.5" font-family="Helvetica,sans-Serif" font-size="10.00">unordered_map</text>
</a>
</g>
</g>
<!-- Node14&#45;&gt;Node22 -->
<g id="edge25" class="edge">
<title>Node14&#45;&gt;Node22</title>
<path fill="none" stroke="midnightblue" d="M475.06,-56.44C493.57,-47.68 522.58,-33.94 543.86,-23.86"/>
<polygon fill="midnightblue" stroke="midnightblue" points="545.48,-26.96 553.02,-19.52 542.49,-20.63 545.48,-26.96"/>
</g>
<!-- Node23&#45;&gt;Node14 -->
<g id="edge28" class="edge">
<title>Node23&#45;&gt;Node14</title>
<path fill="none" stroke="midnightblue" d="M321.19,-168.24C321.94,-154.53 325.35,-127.92 340,-112 355.08,-95.62 376.79,-85.14 397.42,-78.47"/>
<polygon fill="midnightblue" stroke="midnightblue" points="398.53,-81.79 407.11,-75.58 396.53,-75.08 398.53,-81.79"/>
</g>
<!-- Node23&#45;&gt;Node24 -->
<g id="edge29" class="edge">
<title>Node23&#45;&gt;Node24</title>
<path fill="none" stroke="midnightblue" d="M330.96,-168.32C340.13,-160.34 353.94,-148.31 365.03,-138.65"/>
<polygon fill="midnightblue" stroke="midnightblue" points="367.62,-141.04 372.86,-131.83 363.02,-135.76 367.62,-141.04"/>
</g>
<!-- Node24&#45;&gt;Node14 -->
<g id="edge30" class="edge">
<title>Node24&#45;&gt;Node14</title>
<path fill="none" stroke="midnightblue" d="M394.89,-112.32C406.15,-104.11 423.29,-91.6 436.71,-81.81"/>
<polygon fill="midnightblue" stroke="midnightblue" points="438.88,-84.56 444.89,-75.83 434.75,-78.9 438.88,-84.56"/>
</g>
<!-- Node25&#45;&gt;Node14 -->
<g id="edge36" class="edge">
<title>Node25&#45;&gt;Node14</title>
<path fill="none" stroke="midnightblue" d="M398.33,-224.08C408.13,-197.83 437,-120.55 450.23,-85.12"/>
<polygon fill="midnightblue" stroke="midnightblue" points="453.58,-86.16 453.8,-75.57 447.02,-83.71 453.58,-86.16"/>
</g>
<!-- Node25&#45;&gt;Node23 -->
<g id="edge35" class="edge">
<title>Node25&#45;&gt;Node23</title>
<path fill="none" stroke="midnightblue" d="M383.11,-224.32C371.85,-216.11 354.71,-203.6 341.29,-193.81"/>
<polygon fill="midnightblue" stroke="midnightblue" points="343.25,-190.9 333.11,-187.83 339.12,-196.56 343.25,-190.9"/>
</g>
<!-- Node25&#45;&gt;Node24 -->
<g id="edge37" class="edge">
<title>Node25&#45;&gt;Node24</title>
<path fill="none" stroke="midnightblue" d="M394.06,-224.37C392.12,-206.62 387.65,-165.67 385.03,-141.6"/>
<polygon fill="midnightblue" stroke="midnightblue" points="388.5,-141.15 383.94,-131.59 381.54,-141.91 388.5,-141.15"/>
</g>
<!-- Node26&#45;&gt;Node3 -->
<g id="edge41" class="edge">
<title>Node26&#45;&gt;Node3</title>
<path fill="none" stroke="midnightblue" d="M210.02,-411.75C220.52,-419.56 234.04,-431.2 243.86,-440.72"/>
<polygon fill="midnightblue" stroke="midnightblue" points="241.59,-443.4 251.09,-448.08 246.58,-438.5 241.59,-443.4"/>
</g>
<!-- Node26&#45;&gt;Node4 -->
<g id="edge40" class="edge">
<title>Node26&#45;&gt;Node4</title>
<path fill="none" stroke="midnightblue" d="M157.79,-392.42C111.37,-379.26 38,-349.24 38,-291 38,-291 38,-291 38,-121 38,-88.76 32.84,-51.51 29.29,-29.68"/>
<polygon fill="midnightblue" stroke="midnightblue" points="32.69,-28.8 27.57,-19.52 25.79,-29.97 32.69,-28.8"/>
</g>
<!-- Node26&#45;&gt;Node5 -->
<g id="edge42" class="edge">
<title>Node26&#45;&gt;Node5</title>
<path fill="none" stroke="midnightblue" d="M205.04,-392.36C214.17,-383.96 227.34,-370.4 235,-356 252.75,-322.61 260.71,-278.57 263.97,-253.87"/>
<polygon fill="midnightblue" stroke="midnightblue" points="267.47,-254.06 265.19,-243.72 260.52,-253.23 267.47,-254.06"/>
</g>
<!-- Node26&#45;&gt;Node6 -->
<g id="edge43" class="edge">
<title>Node26&#45;&gt;Node6</title>
<path fill="none" stroke="midnightblue" d="M194.17,-392.08C193.52,-385.01 192.58,-374.86 191.76,-365.99"/>
<polygon fill="midnightblue" stroke="midnightblue" points="195.22,-365.39 190.81,-355.75 188.25,-366.03 195.22,-365.39"/>
</g>
</g>
</svg>
