<?xml version="1.0" encoding="UTF-8" standalone="no"?>
<!DOCTYPE svg PUBLIC "-//W3C//DTD SVG 1.1//EN"
 "http://www.w3.org/Graphics/SVG/1.1/DTD/svg11.dtd">
<!-- Generated by graphviz version 2.43.0 (0)
 -->
<!-- Title: /home/runner/work/Simulatio/Simulatio/include/Constraints/Constraint.hpp Pages: 1 -->
<svg width="753pt" height="284pt"
 viewBox="0.00 0.00 753.00 284.00" xmlns="http://www.w3.org/2000/svg" xmlns:xlink="http://www.w3.org/1999/xlink">
<g id="graph0" class="graph" transform="scale(1 1) rotate(0) translate(4 280)">
<title>/home/runner/work/Simulatio/Simulatio/include/Constraints/Constraint.hpp</title>
<!-- Node1 -->
<g id="node1" class="node">
<title>Node1</title>
<g id="a_node1"><a xlink:title=" ">
<polygon fill="#bfbfbf" stroke="black" points="220,-234.5 220,-275.5 383,-275.5 383,-234.5 220,-234.5"/>
<text text-anchor="start" x="228" y="-263.5" font-family="Helvetica,sans-Serif" font-size="10.00">/home/runner/work/Simulatio</text>
<text text-anchor="start" x="228" y="-252.5" font-family="Helvetica,sans-Serif" font-size="10.00">/Simulatio/include/Constraints</text>
<text text-anchor="middle" x="301.5" y="-241.5" font-family="Helvetica,sans-Serif" font-size="10.00">/Constraint.hpp</text>
</a>
</g>
</g>
<!-- Node2 -->
<g id="node2" class="node">
<title>Node2</title>
<g id="a_node2"><a xlink:href="_link_8hpp.html" target="_top" xlink:title=" ">
<polygon fill="none" stroke="black" points="0,-156.5 0,-197.5 163,-197.5 163,-156.5 0,-156.5"/>
<text text-anchor="start" x="8" y="-185.5" font-family="Helvetica,sans-Serif" font-size="10.00">/home/runner/work/Simulatio</text>
<text text-anchor="start" x="8" y="-174.5" font-family="Helvetica,sans-Serif" font-size="10.00">/Simulatio/include/Constraints</text>
<text text-anchor="middle" x="81.5" y="-163.5" font-family="Helvetica,sans-Serif" font-size="10.00">/Link.hpp</text>
</a>
</g>
</g>
<!-- Node1&#45;&gt;Node2 -->
<g id="edge1" class="edge">
<title>Node1&#45;&gt;Node2</title>
<path fill="none" stroke="midnightblue" d="M235,-231.03C204.03,-220.33 167.57,-207.73 137.96,-197.51"/>
<polygon fill="midnightblue" stroke="midnightblue" points="234.25,-234.47 244.84,-234.43 236.54,-227.85 234.25,-234.47"/>
</g>
<!-- Node3 -->
<g id="node3" class="node">
<title>Node3</title>
<g id="a_node3"><a xlink:href="_system_8hpp.html" target="_top" xlink:title=" ">
<polygon fill="none" stroke="black" points="257.5,-78.5 257.5,-119.5 415.5,-119.5 415.5,-78.5 257.5,-78.5"/>
<text text-anchor="start" x="265.5" y="-107.5" font-family="Helvetica,sans-Serif" font-size="10.00">/home/runner/work/Simulatio</text>
<text text-anchor="start" x="265.5" y="-96.5" font-family="Helvetica,sans-Serif" font-size="10.00">/Simulatio/include/Structures</text>
<text text-anchor="middle" x="336.5" y="-85.5" font-family="Helvetica,sans-Serif" font-size="10.00">/System.hpp</text>
</a>
</g>
</g>
<!-- Node1&#45;&gt;Node3 -->
<g id="edge9" class="edge">
<title>Node1&#45;&gt;Node3</title>
<path fill="none" stroke="midnightblue" d="M241.69,-229.24C229.23,-221.18 217.71,-210.89 210.5,-198 201.39,-181.7 200.33,-171.65 210.5,-156 221.52,-139.04 239,-127.17 257.46,-118.89"/>
<polygon fill="midnightblue" stroke="midnightblue" points="240.05,-232.34 250.43,-234.47 243.65,-226.33 240.05,-232.34"/>
</g>
<!-- Node5 -->
<g id="node5" class="node">
<title>Node5</title>
<g id="a_node5"><a xlink:href="_loose_8hpp.html" target="_top" xlink:title=" ">
<polygon fill="none" stroke="black" points="220,-156.5 220,-197.5 383,-197.5 383,-156.5 220,-156.5"/>
<text text-anchor="start" x="228" y="-185.5" font-family="Helvetica,sans-Serif" font-size="10.00">/home/runner/work/Simulatio</text>
<text text-anchor="start" x="228" y="-174.5" font-family="Helvetica,sans-Serif" font-size="10.00">/Simulatio/include/Constraints</text>
<text text-anchor="middle" x="301.5" y="-163.5" font-family="Helvetica,sans-Serif" font-size="10.00">/Loose.hpp</text>
</a>
</g>
</g>
<!-- Node1&#45;&gt;Node5 -->
<g id="edge4" class="edge">
<title>Node1&#45;&gt;Node5</title>
<path fill="none" stroke="midnightblue" d="M301.5,-224.3C301.5,-215.3 301.5,-205.65 301.5,-197.51"/>
<polygon fill="midnightblue" stroke="midnightblue" points="298,-224.43 301.5,-234.43 305,-224.43 298,-224.43"/>
</g>
<!-- Node6 -->
<g id="node6" class="node">
<title>Node6</title>
<g id="a_node6"><a xlink:href="_slider_8hpp.html" target="_top" xlink:title=" ">
<polygon fill="none" stroke="black" points="401,-156.5 401,-197.5 564,-197.5 564,-156.5 401,-156.5"/>
<text text-anchor="start" x="409" y="-185.5" font-family="Helvetica,sans-Serif" font-size="10.00">/home/runner/work/Simulatio</text>
<text text-anchor="start" x="409" y="-174.5" font-family="Helvetica,sans-Serif" font-size="10.00">/Simulatio/include/Constraints</text>
<text text-anchor="middle" x="482.5" y="-163.5" font-family="Helvetica,sans-Serif" font-size="10.00">/Slider.hpp</text>
</a>
</g>
</g>
<!-- Node1&#45;&gt;Node6 -->
<g id="edge5" class="edge">
<title>Node1&#45;&gt;Node6</title>
<path fill="none" stroke="midnightblue" d="M357.54,-230.47C382.73,-219.89 412.11,-207.56 436.05,-197.51"/>
<polygon fill="midnightblue" stroke="midnightblue" points="355.98,-227.33 348.11,-234.43 358.69,-233.78 355.98,-227.33"/>
</g>
<!-- Node7 -->
<g id="node7" class="node">
<title>Node7</title>
<g id="a_node7"><a xlink:href="_spring_8hpp.html" target="_top" xlink:title=" ">
<polygon fill="none" stroke="black" points="582,-156.5 582,-197.5 745,-197.5 745,-156.5 582,-156.5"/>
<text text-anchor="start" x="590" y="-185.5" font-family="Helvetica,sans-Serif" font-size="10.00">/home/runner/work/Simulatio</text>
<text text-anchor="start" x="590" y="-174.5" font-family="Helvetica,sans-Serif" font-size="10.00">/Simulatio/include/Constraints</text>
<text text-anchor="middle" x="663.5" y="-163.5" font-family="Helvetica,sans-Serif" font-size="10.00">/Spring.hpp</text>
</a>
</g>
</g>
<!-- Node1&#45;&gt;Node7 -->
<g id="edge7" class="edge">
<title>Node1&#45;&gt;Node7</title>
<path fill="none" stroke="midnightblue" d="M393.12,-235.51C445.9,-224.76 513.49,-210.85 573.5,-198 576.16,-197.43 578.87,-196.85 581.6,-196.26"/>
<polygon fill="midnightblue" stroke="midnightblue" points="392.2,-232.12 383.1,-237.55 393.6,-238.98 392.2,-232.12"/>
</g>
<!-- Node2&#45;&gt;Node3 -->
<g id="edge2" class="edge">
<title>Node2&#45;&gt;Node3</title>
<path fill="none" stroke="midnightblue" d="M157.19,-153.44C193.38,-142.66 236.29,-129.87 271.05,-119.51"/>
<polygon fill="midnightblue" stroke="midnightblue" points="155.75,-150.22 147.17,-156.43 157.75,-156.93 155.75,-150.22"/>
</g>
<!-- Node4 -->
<g id="node4" class="node">
<title>Node4</title>
<g id="a_node4"><a xlink:href="_renderer_8hpp.html" target="_top" xlink:title=" ">
<polygon fill="none" stroke="black" points="257.5,-0.5 257.5,-41.5 415.5,-41.5 415.5,-0.5 257.5,-0.5"/>
<text text-anchor="start" x="265.5" y="-29.5" font-family="Helvetica,sans-Serif" font-size="10.00">/home/runner/work/Simulatio</text>
<text text-anchor="start" x="265.5" y="-18.5" font-family="Helvetica,sans-Serif" font-size="10.00">/Simulatio/include/Renderer</text>
<text text-anchor="middle" x="336.5" y="-7.5" font-family="Helvetica,sans-Serif" font-size="10.00">/Renderer.hpp</text>
</a>
</g>
</g>
<!-- Node3&#45;&gt;Node4 -->
<g id="edge3" class="edge">
<title>Node3&#45;&gt;Node4</title>
<path fill="none" stroke="midnightblue" d="M336.5,-68.3C336.5,-59.3 336.5,-49.65 336.5,-41.51"/>
<polygon fill="midnightblue" stroke="midnightblue" points="333,-68.43 336.5,-78.43 340,-68.43 333,-68.43"/>
</g>
<!-- Node6&#45;&gt;Node3 -->
<g id="edge6" class="edge">
<title>Node6&#45;&gt;Node3</title>
<path fill="none" stroke="midnightblue" d="M435.95,-151.77C415.94,-141.35 392.86,-129.34 373.97,-119.51"/>
<polygon fill="midnightblue" stroke="midnightblue" points="434.42,-154.92 444.9,-156.43 437.65,-148.71 434.42,-154.92"/>
</g>
<!-- Node7&#45;&gt;Node3 -->
<g id="edge8" class="edge">
<title>Node7&#45;&gt;Node3</title>
<path fill="none" stroke="midnightblue" d="M571.84,-154.7C522.72,-143.28 462.8,-129.36 415.72,-118.41"/>
<polygon fill="midnightblue" stroke="midnightblue" points="571.29,-158.16 581.83,-157.02 572.88,-151.35 571.29,-158.16"/>
</g>
</g>
</svg>
