<?xml version="1.0" encoding="UTF-8" standalone="no"?>
<!DOCTYPE svg PUBLIC "-//W3C//DTD SVG 1.1//EN"
 "http://www.w3.org/Graphics/SVG/1.1/DTD/svg11.dtd">
<!-- Generated by graphviz version 2.43.0 (0)
 -->
<!-- Title: /home/runner/work/Simulatio/Simulatio/engine/include/Corpses/Corpse.hpp Pages: 1 -->
<svg width="899pt" height="386pt"
 viewBox="0.00 0.00 899.00 386.00" xmlns="http://www.w3.org/2000/svg" xmlns:xlink="http://www.w3.org/1999/xlink">
<g id="graph0" class="graph" transform="scale(1 1) rotate(0) translate(4 382)">
<title>/home/runner/work/Simulatio/Simulatio/engine/include/Corpses/Corpse.hpp</title>
<!-- Node1 -->
<g id="node1" class="node">
<title>Node1</title>
<g id="a_node1"><a xlink:title=" ">
<polygon fill="#bfbfbf" stroke="black" points="629.5,-336.5 629.5,-377.5 787.5,-377.5 787.5,-336.5 629.5,-336.5"/>
<text text-anchor="start" x="637.5" y="-365.5" font-family="Helvetica,sans-Serif" font-size="10.00">/home/runner/work/Simulatio</text>
<text text-anchor="start" x="637.5" y="-354.5" font-family="Helvetica,sans-Serif" font-size="10.00">/Simulatio/engine/include</text>
<text text-anchor="middle" x="708.5" y="-343.5" font-family="Helvetica,sans-Serif" font-size="10.00">/Corpses/Corpse.hpp</text>
</a>
</g>
</g>
<!-- Node2 -->
<g id="node2" class="node">
<title>Node2</title>
<g id="a_node2"><a xlink:title=" ">
<polygon fill="none" stroke="#bfbfbf" points="0,-0.5 0,-19.5 47,-19.5 47,-0.5 0,-0.5"/>
<text text-anchor="middle" x="23.5" y="-7.5" font-family="Helvetica,sans-Serif" font-size="10.00">cmath</text>
</a>
</g>
</g>
<!-- Node1&#45;&gt;Node2 -->
<g id="edge1" class="edge">
<title>Node1&#45;&gt;Node2</title>
<path fill="none" stroke="midnightblue" d="M629.21,-355.78C470.63,-353.19 129.5,-335.9 129.5,-235 129.5,-235 129.5,-235 129.5,-121 129.5,-75.81 82.55,-42.05 51.14,-24.52"/>
<polygon fill="midnightblue" stroke="midnightblue" points="52.43,-21.24 41.96,-19.61 49.13,-27.41 52.43,-21.24"/>
</g>
<!-- Node3 -->
<g id="node3" class="node">
<title>Node3</title>
<g id="a_node3"><a xlink:title=" ">
<polygon fill="none" stroke="#bfbfbf" points="689.5,-0.5 689.5,-19.5 749.5,-19.5 749.5,-0.5 689.5,-0.5"/>
<text text-anchor="middle" x="719.5" y="-7.5" font-family="Helvetica,sans-Serif" font-size="10.00">iostream</text>
</a>
</g>
</g>
<!-- Node1&#45;&gt;Node3 -->
<g id="edge2" class="edge">
<title>Node1&#45;&gt;Node3</title>
<path fill="none" stroke="midnightblue" d="M713.49,-336.45C719.12,-312.65 727.5,-271.15 727.5,-235 727.5,-235 727.5,-235 727.5,-121 727.5,-88.86 724.06,-51.58 721.69,-29.72"/>
<polygon fill="midnightblue" stroke="midnightblue" points="725.14,-29.09 720.55,-19.54 718.19,-29.87 725.14,-29.09"/>
</g>
<!-- Node4 -->
<g id="node4" class="node">
<title>Node4</title>
<g id="a_node4"><a xlink:title=" ">
<polygon fill="none" stroke="#bfbfbf" points="767.5,-0.5 767.5,-19.5 825.5,-19.5 825.5,-0.5 767.5,-0.5"/>
<text text-anchor="middle" x="796.5" y="-7.5" font-family="Helvetica,sans-Serif" font-size="10.00">memory</text>
</a>
</g>
</g>
<!-- Node1&#45;&gt;Node4 -->
<g id="edge3" class="edge">
<title>Node1&#45;&gt;Node4</title>
<path fill="none" stroke="midnightblue" d="M730.89,-336.11C753.31,-313.9 784.5,-275.68 784.5,-235 784.5,-235 784.5,-235 784.5,-121 784.5,-88.76 789.66,-51.51 793.21,-29.68"/>
<polygon fill="midnightblue" stroke="midnightblue" points="796.71,-29.97 794.93,-19.52 789.81,-28.8 796.71,-29.97"/>
</g>
<!-- Node5 -->
<g id="node5" class="node">
<title>Node5</title>
<g id="a_node5"><a xlink:title=" ">
<polygon fill="none" stroke="#bfbfbf" points="844,-0.5 844,-19.5 891,-19.5 891,-0.5 844,-0.5"/>
<text text-anchor="middle" x="867.5" y="-7.5" font-family="Helvetica,sans-Serif" font-size="10.00">vector</text>
</a>
</g>
</g>
<!-- Node1&#45;&gt;Node5 -->
<g id="edge4" class="edge">
<title>Node1&#45;&gt;Node5</title>
<path fill="none" stroke="midnightblue" d="M759.04,-336.49C799.14,-317.33 848.5,-283.83 848.5,-235 848.5,-235 848.5,-235 848.5,-121 848.5,-88.49 856.66,-51.35 862.28,-29.61"/>
<polygon fill="midnightblue" stroke="midnightblue" points="865.72,-30.32 864.94,-19.75 858.96,-28.5 865.72,-30.32"/>
</g>
<!-- Node6 -->
<g id="node6" class="node">
<title>Node6</title>
<g id="a_node6"><a xlink:href="_geometry_8hpp.html" target="_top" xlink:title=" ">
<polygon fill="none" stroke="black" points="463.5,-280.5 463.5,-299.5 609.5,-299.5 609.5,-280.5 463.5,-280.5"/>
<text text-anchor="middle" x="536.5" y="-287.5" font-family="Helvetica,sans-Serif" font-size="10.00">../Geometry/Geometry.hpp</text>
</a>
</g>
</g>
<!-- Node1&#45;&gt;Node6 -->
<g id="edge5" class="edge">
<title>Node1&#45;&gt;Node6</title>
<path fill="none" stroke="midnightblue" d="M656.89,-336.5C628.37,-325.72 593.8,-312.65 569.03,-303.29"/>
<polygon fill="midnightblue" stroke="midnightblue" points="569.99,-299.91 559.4,-299.65 567.51,-306.46 569.99,-299.91"/>
</g>
<!-- Node21 -->
<g id="node21" class="node">
<title>Node21</title>
<g id="a_node21"><a xlink:title=" ">
<polygon fill="none" stroke="#bfbfbf" points="631.5,-224.5 631.5,-243.5 699.5,-243.5 699.5,-224.5 631.5,-224.5"/>
<text text-anchor="middle" x="665.5" y="-231.5" font-family="Helvetica,sans-Serif" font-size="10.00">Config.hpp</text>
</a>
</g>
</g>
<!-- Node1&#45;&gt;Node21 -->
<g id="edge33" class="edge">
<title>Node1&#45;&gt;Node21</title>
<path fill="none" stroke="midnightblue" d="M701.5,-336.29C693.32,-313.27 679.89,-275.5 671.96,-253.17"/>
<polygon fill="midnightblue" stroke="midnightblue" points="675.19,-251.83 668.55,-243.57 668.6,-254.17 675.19,-251.83"/>
</g>
<!-- Node7 -->
<g id="node7" class="node">
<title>Node7</title>
<g id="a_node7"><a xlink:href="_recorder_8hpp.html" target="_top" xlink:title=" ">
<polygon fill="none" stroke="black" points="250.5,-224.5 250.5,-243.5 398.5,-243.5 398.5,-224.5 250.5,-224.5"/>
<text text-anchor="middle" x="324.5" y="-231.5" font-family="Helvetica,sans-Serif" font-size="10.00">../Benchmark/Recorder.hpp</text>
</a>
</g>
</g>
<!-- Node6&#45;&gt;Node7 -->
<g id="edge6" class="edge">
<title>Node6&#45;&gt;Node7</title>
<path fill="none" stroke="midnightblue" d="M502.91,-280.44C466.31,-271.12 407.66,-256.18 367.67,-246"/>
<polygon fill="midnightblue" stroke="midnightblue" points="368.49,-242.59 357.93,-243.52 366.76,-249.38 368.49,-242.59"/>
</g>
<!-- Node10 -->
<g id="node10" class="node">
<title>Node10</title>
<g id="a_node10"><a xlink:href="_maths_8hpp.html" target="_top" xlink:title=" ">
<polygon fill="none" stroke="black" points="424.5,-56.5 424.5,-75.5 552.5,-75.5 552.5,-56.5 424.5,-56.5"/>
<text text-anchor="middle" x="488.5" y="-63.5" font-family="Helvetica,sans-Serif" font-size="10.00">../Geometry/Maths.hpp</text>
</a>
</g>
</g>
<!-- Node6&#45;&gt;Node10 -->
<g id="edge27" class="edge">
<title>Node6&#45;&gt;Node10</title>
<path fill="none" stroke="midnightblue" d="M520.44,-280.37C507.34,-272.53 489.27,-259.79 478.5,-244 449.25,-201.13 452.91,-183.36 445.5,-132 444.23,-123.2 442.19,-120.25 445.5,-112 450.18,-100.33 459.49,-89.97 468.26,-82.14"/>
<polygon fill="midnightblue" stroke="midnightblue" points="470.55,-84.78 476,-75.7 466.08,-79.4 470.55,-84.78"/>
</g>
<!-- Node19 -->
<g id="node19" class="node">
<title>Node19</title>
<g id="a_node19"><a xlink:href="_bounds_8hpp.html" target="_top" xlink:title=" ">
<polygon fill="none" stroke="black" points="573.5,-168.5 573.5,-187.5 647.5,-187.5 647.5,-168.5 573.5,-168.5"/>
<text text-anchor="middle" x="610.5" y="-175.5" font-family="Helvetica,sans-Serif" font-size="10.00">Bounds.hpp</text>
</a>
</g>
</g>
<!-- Node6&#45;&gt;Node19 -->
<g id="edge22" class="edge">
<title>Node6&#45;&gt;Node19</title>
<path fill="none" stroke="midnightblue" d="M548.56,-280.18C559.23,-271.86 574.58,-258.53 584.5,-244 594.34,-229.59 601.32,-210.89 605.56,-197.25"/>
<polygon fill="midnightblue" stroke="midnightblue" points="608.94,-198.15 608.37,-187.57 602.22,-196.2 608.94,-198.15"/>
</g>
<!-- Node20 -->
<g id="node20" class="node">
<title>Node20</title>
<g id="a_node20"><a xlink:href="_vector_8hpp.html" target="_top" xlink:title=" ">
<polygon fill="none" stroke="black" points="454.5,-112.5 454.5,-131.5 522.5,-131.5 522.5,-112.5 454.5,-112.5"/>
<text text-anchor="middle" x="488.5" y="-119.5" font-family="Helvetica,sans-Serif" font-size="10.00">Vector.hpp</text>
</a>
</g>
</g>
<!-- Node6&#45;&gt;Node20 -->
<g id="edge28" class="edge">
<title>Node6&#45;&gt;Node20</title>
<path fill="none" stroke="midnightblue" d="M522.13,-280.33C510.62,-272.47 495.31,-259.72 488.5,-244 473.87,-210.23 479.26,-166.02 484.13,-141.47"/>
<polygon fill="midnightblue" stroke="midnightblue" points="487.55,-142.2 486.25,-131.68 480.71,-140.71 487.55,-142.2"/>
</g>
<!-- Node6&#45;&gt;Node21 -->
<g id="edge26" class="edge">
<title>Node6&#45;&gt;Node21</title>
<path fill="none" stroke="midnightblue" d="M556.94,-280.44C578.17,-271.56 611.6,-257.56 635.75,-247.45"/>
<polygon fill="midnightblue" stroke="midnightblue" points="637.28,-250.61 645.16,-243.52 634.58,-244.15 637.28,-250.61"/>
</g>
<!-- Node22 -->
<g id="node22" class="node">
<title>Node22</title>
<g id="a_node22"><a xlink:href="_vertices_8hpp.html" target="_top" xlink:title=" ">
<polygon fill="none" stroke="black" points="498,-224.5 498,-243.5 575,-243.5 575,-224.5 498,-224.5"/>
<text text-anchor="middle" x="536.5" y="-231.5" font-family="Helvetica,sans-Serif" font-size="10.00">Vertices.hpp</text>
</a>
</g>
</g>
<!-- Node6&#45;&gt;Node22 -->
<g id="edge29" class="edge">
<title>Node6&#45;&gt;Node22</title>
<path fill="none" stroke="midnightblue" d="M536.5,-280.08C536.5,-273.01 536.5,-262.86 536.5,-253.99"/>
<polygon fill="midnightblue" stroke="midnightblue" points="540,-253.75 536.5,-243.75 533,-253.75 540,-253.75"/>
</g>
<!-- Node8 -->
<g id="node8" class="node">
<title>Node8</title>
<g id="a_node8"><a xlink:href="_performance_8hpp.html" target="_top" xlink:title=" ">
<polygon fill="none" stroke="black" points="281.5,-168.5 281.5,-187.5 381.5,-187.5 381.5,-168.5 281.5,-168.5"/>
<text text-anchor="middle" x="331.5" y="-175.5" font-family="Helvetica,sans-Serif" font-size="10.00">Performance.hpp</text>
</a>
</g>
</g>
<!-- Node7&#45;&gt;Node8 -->
<g id="edge7" class="edge">
<title>Node7&#45;&gt;Node8</title>
<path fill="none" stroke="midnightblue" d="M325.66,-224.08C326.58,-216.93 327.92,-206.64 329.08,-197.69"/>
<polygon fill="midnightblue" stroke="midnightblue" points="332.55,-198.12 330.37,-187.75 325.61,-197.22 332.55,-198.12"/>
</g>
<!-- Node9 -->
<g id="node9" class="node">
<title>Node9</title>
<g id="a_node9"><a xlink:href="_block_data_8hpp.html" target="_top" xlink:title=" ">
<polygon fill="none" stroke="black" points="302.5,-112.5 302.5,-131.5 390.5,-131.5 390.5,-112.5 302.5,-112.5"/>
<text text-anchor="middle" x="346.5" y="-119.5" font-family="Helvetica,sans-Serif" font-size="10.00">BlockData.hpp</text>
</a>
</g>
</g>
<!-- Node8&#45;&gt;Node9 -->
<g id="edge8" class="edge">
<title>Node8&#45;&gt;Node9</title>
<path fill="none" stroke="midnightblue" d="M333.98,-168.08C335.99,-160.85 338.89,-150.41 341.39,-141.4"/>
<polygon fill="midnightblue" stroke="midnightblue" points="344.76,-142.32 344.07,-131.75 338.02,-140.45 344.76,-142.32"/>
</g>
<!-- Node9&#45;&gt;Node10 -->
<g id="edge9" class="edge">
<title>Node9&#45;&gt;Node10</title>
<path fill="none" stroke="midnightblue" d="M369,-112.44C392.58,-103.48 429.82,-89.31 456.46,-79.18"/>
<polygon fill="midnightblue" stroke="midnightblue" points="458,-82.34 466.1,-75.52 455.51,-75.8 458,-82.34"/>
</g>
<!-- Node10&#45;&gt;Node2 -->
<g id="edge12" class="edge">
<title>Node10&#45;&gt;Node2</title>
<path fill="none" stroke="midnightblue" d="M424.17,-61.75C341.24,-56.8 192.52,-45.34 57.28,-20.06"/>
<polygon fill="midnightblue" stroke="midnightblue" points="57.64,-16.57 47.16,-18.14 56.33,-23.44 57.64,-16.57"/>
</g>
<!-- Node10&#45;&gt;Node3 -->
<g id="edge15" class="edge">
<title>Node10&#45;&gt;Node3</title>
<path fill="none" stroke="midnightblue" d="M525.1,-56.44C567.15,-46.61 635.92,-30.54 679.39,-20.38"/>
<polygon fill="midnightblue" stroke="midnightblue" points="680.39,-23.74 689.33,-18.05 678.79,-16.92 680.39,-23.74"/>
</g>
<!-- Node10&#45;&gt;Node4 -->
<g id="edge17" class="edge">
<title>Node10&#45;&gt;Node4</title>
<path fill="none" stroke="midnightblue" d="M546.64,-56.47C599.21,-48.49 678.96,-35.74 757.44,-20.1"/>
<polygon fill="midnightblue" stroke="midnightblue" points="758.38,-23.48 767.5,-18.08 757,-16.62 758.38,-23.48"/>
</g>
<!-- Node10&#45;&gt;Node5 -->
<g id="edge21" class="edge">
<title>Node10&#45;&gt;Node5</title>
<path fill="none" stroke="midnightblue" d="M552.7,-59.31C620.31,-52.71 729.97,-40.33 833.77,-19.88"/>
<polygon fill="midnightblue" stroke="midnightblue" points="834.68,-23.27 843.8,-17.88 833.31,-16.41 834.68,-23.27"/>
</g>
<!-- Node11 -->
<g id="node11" class="node">
<title>Node11</title>
<g id="a_node11"><a xlink:title=" ">
<polygon fill="none" stroke="#bfbfbf" points="561.5,-0.5 561.5,-19.5 603.5,-19.5 603.5,-0.5 561.5,-0.5"/>
<text text-anchor="middle" x="582.5" y="-7.5" font-family="Helvetica,sans-Serif" font-size="10.00">array</text>
</a>
</g>
</g>
<!-- Node10&#45;&gt;Node11 -->
<g id="edge10" class="edge">
<title>Node10&#45;&gt;Node11</title>
<path fill="none" stroke="midnightblue" d="M503.6,-56.32C518.4,-47.82 541.19,-34.73 558.48,-24.8"/>
<polygon fill="midnightblue" stroke="midnightblue" points="560.51,-27.67 567.43,-19.65 557.02,-21.6 560.51,-27.67"/>
</g>
<!-- Node12 -->
<g id="node12" class="node">
<title>Node12</title>
<g id="a_node12"><a xlink:title=" ">
<polygon fill="none" stroke="#bfbfbf" points="621.5,-0.5 621.5,-19.5 671.5,-19.5 671.5,-0.5 621.5,-0.5"/>
<text text-anchor="middle" x="646.5" y="-7.5" font-family="Helvetica,sans-Serif" font-size="10.00">chrono</text>
</a>
</g>
</g>
<!-- Node10&#45;&gt;Node12 -->
<g id="edge11" class="edge">
<title>Node10&#45;&gt;Node12</title>
<path fill="none" stroke="midnightblue" d="M513.54,-56.44C540.12,-47.36 582.31,-32.94 612.02,-22.78"/>
<polygon fill="midnightblue" stroke="midnightblue" points="613.25,-26.06 621.58,-19.52 610.99,-19.44 613.25,-26.06"/>
</g>
<!-- Node13 -->
<g id="node13" class="node">
<title>Node13</title>
<g id="a_node13"><a xlink:title=" ">
<polygon fill="none" stroke="#bfbfbf" points="65,-0.5 65,-19.5 112,-19.5 112,-0.5 65,-0.5"/>
<text text-anchor="middle" x="88.5" y="-7.5" font-family="Helvetica,sans-Serif" font-size="10.00">deque</text>
</a>
</g>
</g>
<!-- Node10&#45;&gt;Node13 -->
<g id="edge13" class="edge">
<title>Node10&#45;&gt;Node13</title>
<path fill="none" stroke="midnightblue" d="M424.21,-60.13C352.55,-54.03 233.14,-41.88 122.19,-20.09"/>
<polygon fill="midnightblue" stroke="midnightblue" points="122.66,-16.61 112.17,-18.09 121.29,-23.48 122.66,-16.61"/>
</g>
<!-- Node14 -->
<g id="node14" class="node">
<title>Node14</title>
<g id="a_node14"><a xlink:title=" ">
<polygon fill="none" stroke="#bfbfbf" points="130,-0.5 130,-19.5 195,-19.5 195,-0.5 130,-0.5"/>
<text text-anchor="middle" x="162.5" y="-7.5" font-family="Helvetica,sans-Serif" font-size="10.00">functional</text>
</a>
</g>
</g>
<!-- Node10&#45;&gt;Node14 -->
<g id="edge14" class="edge">
<title>Node10&#45;&gt;Node14</title>
<path fill="none" stroke="midnightblue" d="M427.72,-56.47C372.15,-48.43 287.47,-35.58 205.16,-20.23"/>
<polygon fill="midnightblue" stroke="midnightblue" points="205.61,-16.75 195.14,-18.35 204.32,-23.63 205.61,-16.75"/>
</g>
<!-- Node15 -->
<g id="node15" class="node">
<title>Node15</title>
<g id="a_node15"><a xlink:title=" ">
<polygon fill="none" stroke="#bfbfbf" points="213,-0.5 213,-19.5 266,-19.5 266,-0.5 213,-0.5"/>
<text text-anchor="middle" x="239.5" y="-7.5" font-family="Helvetica,sans-Serif" font-size="10.00">iterator</text>
</a>
</g>
</g>
<!-- Node10&#45;&gt;Node15 -->
<g id="edge16" class="edge">
<title>Node10&#45;&gt;Node15</title>
<path fill="none" stroke="midnightblue" d="M445.97,-56.49C405,-48.19 341.05,-34.96 276.2,-20.09"/>
<polygon fill="midnightblue" stroke="midnightblue" points="276.74,-16.63 266.21,-17.79 275.17,-23.45 276.74,-16.63"/>
</g>
<!-- Node16 -->
<g id="node16" class="node">
<title>Node16</title>
<g id="a_node16"><a xlink:title=" ">
<polygon fill="none" stroke="#bfbfbf" points="284.5,-0.5 284.5,-19.5 340.5,-19.5 340.5,-0.5 284.5,-0.5"/>
<text text-anchor="middle" x="312.5" y="-7.5" font-family="Helvetica,sans-Serif" font-size="10.00">sstream</text>
</a>
</g>
</g>
<!-- Node10&#45;&gt;Node16 -->
<g id="edge18" class="edge">
<title>Node10&#45;&gt;Node16</title>
<path fill="none" stroke="midnightblue" d="M460.61,-56.44C430.75,-47.28 383.19,-32.69 350.04,-22.52"/>
<polygon fill="midnightblue" stroke="midnightblue" points="350.84,-19.1 340.26,-19.52 348.79,-25.8 350.84,-19.1"/>
</g>
<!-- Node17 -->
<g id="node17" class="node">
<title>Node17</title>
<g id="a_node17"><a xlink:title=" ">
<polygon fill="none" stroke="#bfbfbf" points="359,-0.5 359,-19.5 432,-19.5 432,-0.5 359,-0.5"/>
<text text-anchor="middle" x="395.5" y="-7.5" font-family="Helvetica,sans-Serif" font-size="10.00">string_view</text>
</a>
</g>
</g>
<!-- Node10&#45;&gt;Node17 -->
<g id="edge19" class="edge">
<title>Node10&#45;&gt;Node17</title>
<path fill="none" stroke="midnightblue" d="M473.56,-56.32C458.91,-47.82 436.37,-34.73 419.26,-24.8"/>
<polygon fill="midnightblue" stroke="midnightblue" points="420.81,-21.65 410.4,-19.65 417.3,-27.7 420.81,-21.65"/>
</g>
<!-- Node18 -->
<g id="node18" class="node">
<title>Node18</title>
<g id="a_node18"><a xlink:title=" ">
<polygon fill="none" stroke="#bfbfbf" points="450,-0.5 450,-19.5 543,-19.5 543,-0.5 450,-0.5"/>
<text text-anchor="middle" x="496.5" y="-7.5" font-family="Helvetica,sans-Serif" font-size="10.00">unordered_map</text>
</a>
</g>
</g>
<!-- Node10&#45;&gt;Node18 -->
<g id="edge20" class="edge">
<title>Node10&#45;&gt;Node18</title>
<path fill="none" stroke="midnightblue" d="M489.82,-56.08C490.88,-48.93 492.41,-38.64 493.73,-29.69"/>
<polygon fill="midnightblue" stroke="midnightblue" points="497.2,-30.16 495.2,-19.75 490.28,-29.13 497.2,-30.16"/>
</g>
<!-- Node19&#45;&gt;Node10 -->
<g id="edge23" class="edge">
<title>Node19&#45;&gt;Node10</title>
<path fill="none" stroke="midnightblue" d="M605.83,-168.12C598.44,-154.71 583,-129.05 564.5,-112 550.4,-99 531.94,-87.97 516.75,-80.08"/>
<polygon fill="midnightblue" stroke="midnightblue" points="518.28,-76.93 507.78,-75.58 515.15,-83.19 518.28,-76.93"/>
</g>
<!-- Node19&#45;&gt;Node20 -->
<g id="edge24" class="edge">
<title>Node19&#45;&gt;Node20</title>
<path fill="none" stroke="midnightblue" d="M591.17,-168.44C571.18,-159.6 539.76,-145.69 516.94,-135.59"/>
<polygon fill="midnightblue" stroke="midnightblue" points="518.3,-132.36 507.74,-131.52 515.47,-138.76 518.3,-132.36"/>
</g>
<!-- Node20&#45;&gt;Node10 -->
<g id="edge25" class="edge">
<title>Node20&#45;&gt;Node10</title>
<path fill="none" stroke="midnightblue" d="M488.5,-112.08C488.5,-105.01 488.5,-94.86 488.5,-85.99"/>
<polygon fill="midnightblue" stroke="midnightblue" points="492,-85.75 488.5,-75.75 485,-85.75 492,-85.75"/>
</g>
<!-- Node22&#45;&gt;Node10 -->
<g id="edge31" class="edge">
<title>Node22&#45;&gt;Node10</title>
<path fill="none" stroke="midnightblue" d="M538.14,-224.34C541.62,-203.83 548.12,-151.08 531.5,-112 526.58,-100.43 517.25,-90.08 508.53,-82.23"/>
<polygon fill="midnightblue" stroke="midnightblue" points="510.75,-79.52 500.84,-75.76 506.24,-84.88 510.75,-79.52"/>
</g>
<!-- Node22&#45;&gt;Node19 -->
<g id="edge30" class="edge">
<title>Node22&#45;&gt;Node19</title>
<path fill="none" stroke="midnightblue" d="M548.39,-224.32C559.65,-216.11 576.79,-203.6 590.21,-193.81"/>
<polygon fill="midnightblue" stroke="midnightblue" points="592.38,-196.56 598.39,-187.83 588.25,-190.9 592.38,-196.56"/>
</g>
<!-- Node22&#45;&gt;Node20 -->
<g id="edge32" class="edge">
<title>Node22&#45;&gt;Node20</title>
<path fill="none" stroke="midnightblue" d="M532.73,-224.37C524.92,-206.46 506.79,-164.92 496.33,-140.95"/>
<polygon fill="midnightblue" stroke="midnightblue" points="499.46,-139.36 492.25,-131.59 493.04,-142.16 499.46,-139.36"/>
</g>
</g>
</svg>
