<?xml version="1.0" encoding="UTF-8" standalone="no"?>
<!DOCTYPE svg PUBLIC "-//W3C//DTD SVG 1.1//EN"
 "http://www.w3.org/Graphics/SVG/1.1/DTD/svg11.dtd">
<!-- Generated by graphviz version 2.43.0 (0)
 -->
<!-- Title: /home/runner/work/Simulatio/Simulatio/engine/include/Corpses/Corpse.hpp Pages: 1 -->
<svg width="1856pt" height="518pt"
 viewBox="0.00 0.00 1855.50 518.00" xmlns="http://www.w3.org/2000/svg" xmlns:xlink="http://www.w3.org/1999/xlink">
<g id="graph0" class="graph" transform="scale(1 1) rotate(0) translate(4 514)">
<title>/home/runner/work/Simulatio/Simulatio/engine/include/Corpses/Corpse.hpp</title>
<!-- Node1 -->
<g id="node1" class="node">
<title>Node1</title>
<g id="a_node1"><a xlink:title=" ">
<polygon fill="#bfbfbf" stroke="black" points="1286,-468.5 1286,-509.5 1444,-509.5 1444,-468.5 1286,-468.5"/>
<text text-anchor="start" x="1294" y="-497.5" font-family="Helvetica,sans-Serif" font-size="10.00">/home/runner/work/Simulatio</text>
<text text-anchor="start" x="1294" y="-486.5" font-family="Helvetica,sans-Serif" font-size="10.00">/Simulatio/engine/include</text>
<text text-anchor="middle" x="1365" y="-475.5" font-family="Helvetica,sans-Serif" font-size="10.00">/Corpses/Corpse.hpp</text>
</a>
</g>
</g>
<!-- Node2 -->
<g id="node2" class="node">
<title>Node2</title>
<g id="a_node2"><a xlink:href="_constraint_8hpp.html" target="_top" xlink:title=" ">
<polygon fill="none" stroke="black" points="629,-234.5 629,-275.5 787,-275.5 787,-234.5 629,-234.5"/>
<text text-anchor="start" x="637" y="-263.5" font-family="Helvetica,sans-Serif" font-size="10.00">/home/runner/work/Simulatio</text>
<text text-anchor="start" x="637" y="-252.5" font-family="Helvetica,sans-Serif" font-size="10.00">/Simulatio/engine/include</text>
<text text-anchor="middle" x="708" y="-241.5" font-family="Helvetica,sans-Serif" font-size="10.00">/Constraints/Constraint.hpp</text>
</a>
</g>
</g>
<!-- Node1&#45;&gt;Node2 -->
<g id="edge1" class="edge">
<title>Node1&#45;&gt;Node2</title>
<path fill="none" stroke="midnightblue" d="M1275.79,-483.71C1189.31,-477.8 1055.12,-463.97 943,-432 861.89,-408.87 833.68,-409.31 770,-354 744.77,-332.09 726.19,-297.39 716.24,-275.69"/>
<polygon fill="midnightblue" stroke="midnightblue" points="1275.62,-487.21 1285.83,-484.38 1276.08,-480.22 1275.62,-487.21"/>
</g>
<!-- Node4 -->
<g id="node4" class="node">
<title>Node4</title>
<g id="a_node4"><a xlink:href="_system_8hpp.html" target="_top" xlink:title=" ">
<polygon fill="none" stroke="black" points="909,-78.5 909,-119.5 1067,-119.5 1067,-78.5 909,-78.5"/>
<text text-anchor="start" x="917" y="-107.5" font-family="Helvetica,sans-Serif" font-size="10.00">/home/runner/work/Simulatio</text>
<text text-anchor="start" x="917" y="-96.5" font-family="Helvetica,sans-Serif" font-size="10.00">/Simulatio/engine/include</text>
<text text-anchor="middle" x="988" y="-85.5" font-family="Helvetica,sans-Serif" font-size="10.00">/Structures/System.hpp</text>
</a>
</g>
</g>
<!-- Node1&#45;&gt;Node4 -->
<g id="edge40" class="edge">
<title>Node1&#45;&gt;Node4</title>
<path fill="none" stroke="midnightblue" d="M1454.37,-478.64C1540.55,-464.07 1658,-427.14 1658,-334 1658,-334 1658,-334 1658,-254 1658,-209.63 1671.99,-185.67 1639,-156 1597.31,-118.49 1231.58,-105.52 1067.3,-101.55"/>
<polygon fill="midnightblue" stroke="midnightblue" points="1453.6,-475.21 1444.29,-480.26 1454.72,-482.12 1453.6,-475.21"/>
</g>
<!-- Node14 -->
<g id="node14" class="node">
<title>Node14</title>
<g id="a_node14"><a xlink:href="_circle_8hpp.html" target="_top" xlink:title=" ">
<polygon fill="none" stroke="black" points="992,-390.5 992,-431.5 1150,-431.5 1150,-390.5 992,-390.5"/>
<text text-anchor="start" x="1000" y="-419.5" font-family="Helvetica,sans-Serif" font-size="10.00">/home/runner/work/Simulatio</text>
<text text-anchor="start" x="1000" y="-408.5" font-family="Helvetica,sans-Serif" font-size="10.00">/Simulatio/engine/include</text>
<text text-anchor="middle" x="1071" y="-397.5" font-family="Helvetica,sans-Serif" font-size="10.00">/Corpses/Circle.hpp</text>
</a>
</g>
</g>
<!-- Node1&#45;&gt;Node14 -->
<g id="edge16" class="edge">
<title>Node1&#45;&gt;Node14</title>
<path fill="none" stroke="midnightblue" d="M1279.6,-465.92C1237.49,-455.04 1187.14,-442.02 1146.46,-431.51"/>
<polygon fill="midnightblue" stroke="midnightblue" points="1278.73,-469.31 1289.29,-468.43 1280.48,-462.54 1278.73,-469.31"/>
</g>
<!-- Node15 -->
<g id="node15" class="node">
<title>Node15</title>
<g id="a_node15"><a xlink:href="_polygon_8hpp.html" target="_top" xlink:title=" ">
<polygon fill="none" stroke="black" points="847,-312.5 847,-353.5 1005,-353.5 1005,-312.5 847,-312.5"/>
<text text-anchor="start" x="855" y="-341.5" font-family="Helvetica,sans-Serif" font-size="10.00">/home/runner/work/Simulatio</text>
<text text-anchor="start" x="855" y="-330.5" font-family="Helvetica,sans-Serif" font-size="10.00">/Simulatio/engine/include</text>
<text text-anchor="middle" x="926" y="-319.5" font-family="Helvetica,sans-Serif" font-size="10.00">/Corpses/Polygon.hpp</text>
</a>
</g>
</g>
<!-- Node1&#45;&gt;Node15 -->
<g id="edge36" class="edge">
<title>Node1&#45;&gt;Node15</title>
<path fill="none" stroke="midnightblue" d="M1275.55,-483.78C1177.95,-477.65 1029.38,-463.38 983,-432 955.45,-413.36 939.43,-376.62 931.73,-353.8"/>
<polygon fill="midnightblue" stroke="midnightblue" points="1275.52,-487.29 1285.72,-484.4 1275.95,-480.3 1275.52,-487.29"/>
</g>
<!-- Node16 -->
<g id="node16" class="node">
<title>Node16</title>
<g id="a_node16"><a xlink:href="_collision_8hpp.html" target="_top" xlink:title=" ">
<polygon fill="none" stroke="black" points="1099,-234.5 1099,-275.5 1257,-275.5 1257,-234.5 1099,-234.5"/>
<text text-anchor="start" x="1107" y="-263.5" font-family="Helvetica,sans-Serif" font-size="10.00">/home/runner/work/Simulatio</text>
<text text-anchor="start" x="1107" y="-252.5" font-family="Helvetica,sans-Serif" font-size="10.00">/Simulatio/engine/include</text>
<text text-anchor="middle" x="1178" y="-241.5" font-family="Helvetica,sans-Serif" font-size="10.00">/Geometry/Collision.hpp</text>
</a>
</g>
</g>
<!-- Node1&#45;&gt;Node16 -->
<g id="edge37" class="edge">
<title>Node1&#45;&gt;Node16</title>
<path fill="none" stroke="midnightblue" d="M1354.73,-458.67C1340.43,-421.13 1311.52,-355.73 1270,-312 1255.97,-297.22 1237.2,-284.87 1220.29,-275.57"/>
<polygon fill="midnightblue" stroke="midnightblue" points="1351.61,-460.32 1358.37,-468.48 1358.17,-457.88 1351.61,-460.32"/>
</g>
<!-- Node18 -->
<g id="node18" class="node">
<title>Node18</title>
<g id="a_node18"><a xlink:href="_quad_node_8hpp.html" target="_top" xlink:title=" ">
<polygon fill="none" stroke="black" points="1317,-234.5 1317,-275.5 1475,-275.5 1475,-234.5 1317,-234.5"/>
<text text-anchor="start" x="1325" y="-263.5" font-family="Helvetica,sans-Serif" font-size="10.00">/home/runner/work/Simulatio</text>
<text text-anchor="start" x="1325" y="-252.5" font-family="Helvetica,sans-Serif" font-size="10.00">/Simulatio/engine/include</text>
<text text-anchor="middle" x="1396" y="-241.5" font-family="Helvetica,sans-Serif" font-size="10.00">/Structures/QuadNode.hpp</text>
</a>
</g>
</g>
<!-- Node1&#45;&gt;Node18 -->
<g id="edge38" class="edge">
<title>Node1&#45;&gt;Node18</title>
<path fill="none" stroke="midnightblue" d="M1368.99,-458.11C1375.43,-409.94 1387.92,-316.44 1393.36,-275.73"/>
<polygon fill="midnightblue" stroke="midnightblue" points="1365.5,-457.84 1367.64,-468.22 1372.44,-458.77 1365.5,-457.84"/>
</g>
<!-- Node19 -->
<g id="node19" class="node">
<title>Node19</title>
<g id="a_node19"><a xlink:href="_quadtree_8hpp.html" target="_top" xlink:title=" ">
<polygon fill="none" stroke="black" points="1282,-156.5 1282,-197.5 1440,-197.5 1440,-156.5 1282,-156.5"/>
<text text-anchor="start" x="1290" y="-185.5" font-family="Helvetica,sans-Serif" font-size="10.00">/home/runner/work/Simulatio</text>
<text text-anchor="start" x="1290" y="-174.5" font-family="Helvetica,sans-Serif" font-size="10.00">/Simulatio/engine/include</text>
<text text-anchor="middle" x="1361" y="-163.5" font-family="Helvetica,sans-Serif" font-size="10.00">/Structures/Quadtree.hpp</text>
</a>
</g>
</g>
<!-- Node1&#45;&gt;Node19 -->
<g id="edge39" class="edge">
<title>Node1&#45;&gt;Node19</title>
<path fill="none" stroke="midnightblue" d="M1394.82,-461.39C1444.49,-413.77 1534,-311.71 1484,-234 1473.4,-217.52 1456.63,-205.84 1438.84,-197.57"/>
<polygon fill="midnightblue" stroke="midnightblue" points="1392.39,-458.88 1387.51,-468.28 1397.19,-463.97 1392.39,-458.88"/>
</g>
<!-- Node23 -->
<g id="node23" class="node">
<title>Node23</title>
<g id="a_node23"><a xlink:href="_corpse_8cpp.html" target="_top" xlink:title=" ">
<polygon fill="none" stroke="black" points="1686.5,-390.5 1686.5,-431.5 1847.5,-431.5 1847.5,-390.5 1686.5,-390.5"/>
<text text-anchor="start" x="1694.5" y="-419.5" font-family="Helvetica,sans-Serif" font-size="10.00">/home/runner/work/Simulatio</text>
<text text-anchor="start" x="1694.5" y="-408.5" font-family="Helvetica,sans-Serif" font-size="10.00">/Simulatio/engine/src/Corpses</text>
<text text-anchor="middle" x="1767" y="-397.5" font-family="Helvetica,sans-Serif" font-size="10.00">/Corpse.cpp</text>
</a>
</g>
</g>
<!-- Node1&#45;&gt;Node23 -->
<g id="edge41" class="edge">
<title>Node1&#45;&gt;Node23</title>
<path fill="none" stroke="midnightblue" d="M1454.33,-472.36C1515.65,-461.47 1598.85,-446.37 1672,-432 1676.71,-431.07 1681.55,-430.11 1686.44,-429.12"/>
<polygon fill="midnightblue" stroke="midnightblue" points="1453.54,-468.95 1444.3,-474.14 1454.76,-475.84 1453.54,-468.95"/>
</g>
<!-- Node3 -->
<g id="node3" class="node">
<title>Node3</title>
<g id="a_node3"><a xlink:href="_link_8hpp.html" target="_top" xlink:title=" ">
<polygon fill="none" stroke="black" points="568,-156.5 568,-197.5 726,-197.5 726,-156.5 568,-156.5"/>
<text text-anchor="start" x="576" y="-185.5" font-family="Helvetica,sans-Serif" font-size="10.00">/home/runner/work/Simulatio</text>
<text text-anchor="start" x="576" y="-174.5" font-family="Helvetica,sans-Serif" font-size="10.00">/Simulatio/engine/include</text>
<text text-anchor="middle" x="647" y="-163.5" font-family="Helvetica,sans-Serif" font-size="10.00">/Constraints/Link.hpp</text>
</a>
</g>
</g>
<!-- Node2&#45;&gt;Node3 -->
<g id="edge2" class="edge">
<title>Node2&#45;&gt;Node3</title>
<path fill="none" stroke="midnightblue" d="M686.03,-226.63C678.29,-216.99 669.76,-206.36 662.66,-197.51"/>
<polygon fill="midnightblue" stroke="midnightblue" points="683.3,-228.82 692.29,-234.43 688.76,-224.44 683.3,-228.82"/>
</g>
<!-- Node2&#45;&gt;Node4 -->
<g id="edge14" class="edge">
<title>Node2&#45;&gt;Node4</title>
<path fill="none" stroke="midnightblue" d="M796.91,-233.35C856.58,-219.21 925.31,-202.28 931,-198 957.42,-178.12 973.71,-142.13 981.79,-119.73"/>
<polygon fill="midnightblue" stroke="midnightblue" points="795.97,-229.97 787.04,-235.68 797.58,-236.79 795.97,-229.97"/>
</g>
<!-- Node7 -->
<g id="node7" class="node">
<title>Node7</title>
<g id="a_node7"><a xlink:href="_loose_8hpp.html" target="_top" xlink:title=" ">
<polygon fill="none" stroke="black" points="30,-156.5 30,-197.5 188,-197.5 188,-156.5 30,-156.5"/>
<text text-anchor="start" x="38" y="-185.5" font-family="Helvetica,sans-Serif" font-size="10.00">/home/runner/work/Simulatio</text>
<text text-anchor="start" x="38" y="-174.5" font-family="Helvetica,sans-Serif" font-size="10.00">/Simulatio/engine/include</text>
<text text-anchor="middle" x="109" y="-163.5" font-family="Helvetica,sans-Serif" font-size="10.00">/Constraints/Loose.hpp</text>
</a>
</g>
</g>
<!-- Node2&#45;&gt;Node7 -->
<g id="edge6" class="edge">
<title>Node2&#45;&gt;Node7</title>
<path fill="none" stroke="midnightblue" d="M618.63,-246.46C518.17,-237.41 350.35,-220.59 207,-198 200.82,-197.03 194.45,-195.93 188.05,-194.77"/>
<polygon fill="midnightblue" stroke="midnightblue" points="618.47,-249.96 628.74,-247.36 619.09,-242.98 618.47,-249.96"/>
</g>
<!-- Node9 -->
<g id="node9" class="node">
<title>Node9</title>
<g id="a_node9"><a xlink:href="_slider_8hpp.html" target="_top" xlink:title=" ">
<polygon fill="none" stroke="black" points="216,-156.5 216,-197.5 374,-197.5 374,-156.5 216,-156.5"/>
<text text-anchor="start" x="224" y="-185.5" font-family="Helvetica,sans-Serif" font-size="10.00">/home/runner/work/Simulatio</text>
<text text-anchor="start" x="224" y="-174.5" font-family="Helvetica,sans-Serif" font-size="10.00">/Simulatio/engine/include</text>
<text text-anchor="middle" x="295" y="-163.5" font-family="Helvetica,sans-Serif" font-size="10.00">/Constraints/Slider.hpp</text>
</a>
</g>
</g>
<!-- Node2&#45;&gt;Node9 -->
<g id="edge8" class="edge">
<title>Node2&#45;&gt;Node9</title>
<path fill="none" stroke="midnightblue" d="M619.1,-239.98C553.65,-229.35 462.57,-213.89 383,-198 380.08,-197.42 377.11,-196.81 374.11,-196.19"/>
<polygon fill="midnightblue" stroke="midnightblue" points="618.55,-243.44 628.98,-241.58 619.67,-236.53 618.55,-243.44"/>
</g>
<!-- Node11 -->
<g id="node11" class="node">
<title>Node11</title>
<g id="a_node11"><a xlink:href="_spring_8hpp.html" target="_top" xlink:title=" ">
<polygon fill="none" stroke="black" points="392,-156.5 392,-197.5 550,-197.5 550,-156.5 392,-156.5"/>
<text text-anchor="start" x="400" y="-185.5" font-family="Helvetica,sans-Serif" font-size="10.00">/home/runner/work/Simulatio</text>
<text text-anchor="start" x="400" y="-174.5" font-family="Helvetica,sans-Serif" font-size="10.00">/Simulatio/engine/include</text>
<text text-anchor="middle" x="471" y="-163.5" font-family="Helvetica,sans-Serif" font-size="10.00">/Constraints/Spring.hpp</text>
</a>
</g>
</g>
<!-- Node2&#45;&gt;Node11 -->
<g id="edge11" class="edge">
<title>Node2&#45;&gt;Node11</title>
<path fill="none" stroke="midnightblue" d="M637.22,-231.3C603.68,-220.55 564,-207.82 531.83,-197.51"/>
<polygon fill="midnightblue" stroke="midnightblue" points="636.38,-234.71 646.97,-234.43 638.51,-228.04 636.38,-234.71"/>
</g>
<!-- Node13 -->
<g id="node13" class="node">
<title>Node13</title>
<g id="a_node13"><a xlink:href="_constraint_8cpp.html" target="_top" xlink:title=" ">
<polygon fill="none" stroke="black" points="744,-156.5 744,-197.5 922,-197.5 922,-156.5 744,-156.5"/>
<text text-anchor="start" x="752" y="-185.5" font-family="Helvetica,sans-Serif" font-size="10.00">/home/runner/work/Simulatio</text>
<text text-anchor="start" x="752" y="-174.5" font-family="Helvetica,sans-Serif" font-size="10.00">/Simulatio/engine/src/Constraints</text>
<text text-anchor="middle" x="833" y="-163.5" font-family="Helvetica,sans-Serif" font-size="10.00">/Constraint.cpp</text>
</a>
</g>
</g>
<!-- Node2&#45;&gt;Node13 -->
<g id="edge15" class="edge">
<title>Node2&#45;&gt;Node13</title>
<path fill="none" stroke="midnightblue" d="M748.78,-229.2C765.7,-218.92 785.04,-207.16 800.92,-197.51"/>
<polygon fill="midnightblue" stroke="midnightblue" points="746.92,-226.24 740.19,-234.43 750.55,-232.22 746.92,-226.24"/>
</g>
<!-- Node3&#45;&gt;Node4 -->
<g id="edge3" class="edge">
<title>Node3&#45;&gt;Node4</title>
<path fill="none" stroke="midnightblue" d="M735.95,-155.79C799.54,-141.54 861.33,-127.87 908.78,-117.42"/>
<polygon fill="midnightblue" stroke="midnightblue" points="735.14,-152.39 726.15,-157.99 736.67,-159.22 735.14,-152.39"/>
</g>
<!-- Node6 -->
<g id="node6" class="node">
<title>Node6</title>
<g id="a_node6"><a xlink:href="_link_8cpp.html" target="_top" xlink:title=" ">
<polygon fill="none" stroke="black" points="588,-78.5 588,-119.5 766,-119.5 766,-78.5 588,-78.5"/>
<text text-anchor="start" x="596" y="-107.5" font-family="Helvetica,sans-Serif" font-size="10.00">/home/runner/work/Simulatio</text>
<text text-anchor="start" x="596" y="-96.5" font-family="Helvetica,sans-Serif" font-size="10.00">/Simulatio/engine/src/Constraints</text>
<text text-anchor="middle" x="677" y="-85.5" font-family="Helvetica,sans-Serif" font-size="10.00">/Link.cpp</text>
</a>
</g>
</g>
<!-- Node3&#45;&gt;Node6 -->
<g id="edge5" class="edge">
<title>Node3&#45;&gt;Node6</title>
<path fill="none" stroke="midnightblue" d="M658.49,-146.88C662.11,-137.72 666.01,-127.83 669.3,-119.51"/>
<polygon fill="midnightblue" stroke="midnightblue" points="655.14,-145.84 654.73,-156.43 661.65,-148.41 655.14,-145.84"/>
</g>
<!-- Node5 -->
<g id="node5" class="node">
<title>Node5</title>
<g id="a_node5"><a xlink:href="_system_8cpp.html" target="_top" xlink:title=" ">
<polygon fill="none" stroke="black" points="902,-0.5 902,-41.5 1074,-41.5 1074,-0.5 902,-0.5"/>
<text text-anchor="start" x="910" y="-29.5" font-family="Helvetica,sans-Serif" font-size="10.00">/home/runner/work/Simulatio</text>
<text text-anchor="start" x="910" y="-18.5" font-family="Helvetica,sans-Serif" font-size="10.00">/Simulatio/engine/src/Structures</text>
<text text-anchor="middle" x="988" y="-7.5" font-family="Helvetica,sans-Serif" font-size="10.00">/System.cpp</text>
</a>
</g>
</g>
<!-- Node4&#45;&gt;Node5 -->
<g id="edge4" class="edge">
<title>Node4&#45;&gt;Node5</title>
<path fill="none" stroke="midnightblue" d="M988,-68.3C988,-59.3 988,-49.65 988,-41.51"/>
<polygon fill="midnightblue" stroke="midnightblue" points="984.5,-68.43 988,-78.43 991.5,-68.43 984.5,-68.43"/>
</g>
<!-- Node8 -->
<g id="node8" class="node">
<title>Node8</title>
<g id="a_node8"><a xlink:href="_loose_8cpp.html" target="_top" xlink:title=" ">
<polygon fill="none" stroke="black" points="0,-78.5 0,-119.5 178,-119.5 178,-78.5 0,-78.5"/>
<text text-anchor="start" x="8" y="-107.5" font-family="Helvetica,sans-Serif" font-size="10.00">/home/runner/work/Simulatio</text>
<text text-anchor="start" x="8" y="-96.5" font-family="Helvetica,sans-Serif" font-size="10.00">/Simulatio/engine/src/Constraints</text>
<text text-anchor="middle" x="89" y="-85.5" font-family="Helvetica,sans-Serif" font-size="10.00">/Loose.cpp</text>
</a>
</g>
</g>
<!-- Node7&#45;&gt;Node8 -->
<g id="edge7" class="edge">
<title>Node7&#45;&gt;Node8</title>
<path fill="none" stroke="midnightblue" d="M101.26,-146.59C98.87,-137.51 96.3,-127.74 94.13,-119.51"/>
<polygon fill="midnightblue" stroke="midnightblue" points="97.92,-147.65 103.85,-156.43 104.69,-145.87 97.92,-147.65"/>
</g>
<!-- Node9&#45;&gt;Node4 -->
<g id="edge9" class="edge">
<title>Node9&#45;&gt;Node4</title>
<path fill="none" stroke="midnightblue" d="M384.03,-155.94C557.5,-128.83 604.03,-135.88 775,-120 819.29,-115.89 868.75,-111.25 908.85,-107.47"/>
<polygon fill="midnightblue" stroke="midnightblue" points="383.39,-152.5 374.06,-157.51 384.48,-159.41 383.39,-152.5"/>
</g>
<!-- Node10 -->
<g id="node10" class="node">
<title>Node10</title>
<g id="a_node10"><a xlink:href="_slider_8cpp.html" target="_top" xlink:title=" ">
<polygon fill="none" stroke="black" points="196,-78.5 196,-119.5 374,-119.5 374,-78.5 196,-78.5"/>
<text text-anchor="start" x="204" y="-107.5" font-family="Helvetica,sans-Serif" font-size="10.00">/home/runner/work/Simulatio</text>
<text text-anchor="start" x="204" y="-96.5" font-family="Helvetica,sans-Serif" font-size="10.00">/Simulatio/engine/src/Constraints</text>
<text text-anchor="middle" x="285" y="-85.5" font-family="Helvetica,sans-Serif" font-size="10.00">/Slider.cpp</text>
</a>
</g>
</g>
<!-- Node9&#45;&gt;Node10 -->
<g id="edge10" class="edge">
<title>Node9&#45;&gt;Node10</title>
<path fill="none" stroke="midnightblue" d="M291.09,-146.3C289.91,-137.3 288.64,-127.65 287.57,-119.51"/>
<polygon fill="midnightblue" stroke="midnightblue" points="287.65,-146.97 292.42,-156.43 294.59,-146.06 287.65,-146.97"/>
</g>
<!-- Node11&#45;&gt;Node4 -->
<g id="edge12" class="edge">
<title>Node11&#45;&gt;Node4</title>
<path fill="none" stroke="midnightblue" d="M560.03,-155.89C687.64,-133.47 824.85,-117.17 908.99,-108.07"/>
<polygon fill="midnightblue" stroke="midnightblue" points="559.32,-152.47 550.08,-157.66 560.54,-159.36 559.32,-152.47"/>
</g>
<!-- Node12 -->
<g id="node12" class="node">
<title>Node12</title>
<g id="a_node12"><a xlink:href="_spring_8cpp.html" target="_top" xlink:title=" ">
<polygon fill="none" stroke="black" points="392,-78.5 392,-119.5 570,-119.5 570,-78.5 392,-78.5"/>
<text text-anchor="start" x="400" y="-107.5" font-family="Helvetica,sans-Serif" font-size="10.00">/home/runner/work/Simulatio</text>
<text text-anchor="start" x="400" y="-96.5" font-family="Helvetica,sans-Serif" font-size="10.00">/Simulatio/engine/src/Constraints</text>
<text text-anchor="middle" x="481" y="-85.5" font-family="Helvetica,sans-Serif" font-size="10.00">/Spring.cpp</text>
</a>
</g>
</g>
<!-- Node11&#45;&gt;Node12 -->
<g id="edge13" class="edge">
<title>Node11&#45;&gt;Node12</title>
<path fill="none" stroke="midnightblue" d="M474.91,-146.3C476.09,-137.3 477.36,-127.65 478.43,-119.51"/>
<polygon fill="midnightblue" stroke="midnightblue" points="471.41,-146.06 473.58,-156.43 478.35,-146.97 471.41,-146.06"/>
</g>
<!-- Node14&#45;&gt;Node2 -->
<g id="edge17" class="edge">
<title>Node14&#45;&gt;Node2</title>
<path fill="none" stroke="midnightblue" d="M982,-397.45C937.31,-388.98 883.21,-375.33 838,-354 795.06,-333.74 752.49,-297.86 728.3,-275.6"/>
<polygon fill="midnightblue" stroke="midnightblue" points="981.5,-400.92 991.97,-399.29 982.77,-394.03 981.5,-400.92"/>
</g>
<!-- Node14&#45;&gt;Node4 -->
<g id="edge34" class="edge">
<title>Node14&#45;&gt;Node4</title>
<path fill="none" stroke="midnightblue" d="M1063.09,-380.45C1046.29,-317.7 1007.42,-172.55 993.27,-119.7"/>
<polygon fill="midnightblue" stroke="midnightblue" points="1059.71,-381.38 1065.68,-390.14 1066.48,-379.57 1059.71,-381.38"/>
</g>
<!-- Node14&#45;&gt;Node15 -->
<g id="edge18" class="edge">
<title>Node14&#45;&gt;Node15</title>
<path fill="none" stroke="midnightblue" d="M1018.7,-385.91C998.11,-375.46 975.18,-363.38 957.23,-353.51"/>
<polygon fill="midnightblue" stroke="midnightblue" points="1017.17,-389.05 1027.67,-390.43 1020.32,-382.8 1017.17,-389.05"/>
</g>
<!-- Node14&#45;&gt;Node16 -->
<g id="edge31" class="edge">
<title>Node14&#45;&gt;Node16</title>
<path fill="none" stroke="midnightblue" d="M1071.15,-380.08C1072.6,-359.36 1077.31,-332.01 1091,-312 1101.45,-296.73 1117.57,-284.68 1133.11,-275.74"/>
<polygon fill="midnightblue" stroke="midnightblue" points="1067.65,-380.08 1070.66,-390.23 1074.64,-380.41 1067.65,-380.08"/>
</g>
<!-- Node14&#45;&gt;Node18 -->
<g id="edge32" class="edge">
<title>Node14&#45;&gt;Node18</title>
<path fill="none" stroke="midnightblue" d="M1160.19,-400.66C1205.31,-393 1259.56,-379.11 1303,-354 1337.11,-334.28 1366.51,-298.24 1382.68,-275.79"/>
<polygon fill="midnightblue" stroke="midnightblue" points="1159.43,-397.24 1150.12,-402.29 1160.55,-404.15 1159.43,-397.24"/>
</g>
<!-- Node14&#45;&gt;Node19 -->
<g id="edge33" class="edge">
<title>Node14&#45;&gt;Node19</title>
<path fill="none" stroke="midnightblue" d="M1160.26,-403.58C1198.4,-396.52 1240.77,-382.3 1270,-354 1310.19,-315.09 1279.61,-282.2 1308,-234 1315.95,-220.51 1327.7,-207.65 1338.12,-197.66"/>
<polygon fill="midnightblue" stroke="midnightblue" points="1159.42,-400.17 1150.15,-405.3 1160.6,-407.07 1159.42,-400.17"/>
</g>
<!-- Node22 -->
<g id="node22" class="node">
<title>Node22</title>
<g id="a_node22"><a xlink:href="_circle_8cpp.html" target="_top" xlink:title=" ">
<polygon fill="none" stroke="black" points="1099.5,-312.5 1099.5,-353.5 1260.5,-353.5 1260.5,-312.5 1099.5,-312.5"/>
<text text-anchor="start" x="1107.5" y="-341.5" font-family="Helvetica,sans-Serif" font-size="10.00">/home/runner/work/Simulatio</text>
<text text-anchor="start" x="1107.5" y="-330.5" font-family="Helvetica,sans-Serif" font-size="10.00">/Simulatio/engine/src/Corpses</text>
<text text-anchor="middle" x="1180" y="-319.5" font-family="Helvetica,sans-Serif" font-size="10.00">/Circle.cpp</text>
</a>
</g>
</g>
<!-- Node14&#45;&gt;Node22 -->
<g id="edge35" class="edge">
<title>Node14&#45;&gt;Node22</title>
<path fill="none" stroke="midnightblue" d="M1107.38,-384.64C1121.93,-374.49 1138.43,-362.98 1152.02,-353.51"/>
<polygon fill="midnightblue" stroke="midnightblue" points="1105.27,-381.84 1099.07,-390.43 1109.27,-387.58 1105.27,-381.84"/>
</g>
<!-- Node15&#45;&gt;Node2 -->
<g id="edge19" class="edge">
<title>Node15&#45;&gt;Node2</title>
<path fill="none" stroke="midnightblue" d="M860.1,-309.03C829.41,-298.33 793.29,-285.73 763.95,-275.51"/>
<polygon fill="midnightblue" stroke="midnightblue" points="859.26,-312.44 869.86,-312.43 861.57,-305.83 859.26,-312.44"/>
</g>
<!-- Node15&#45;&gt;Node4 -->
<g id="edge29" class="edge">
<title>Node15&#45;&gt;Node4</title>
<path fill="none" stroke="midnightblue" d="M866.19,-307.24C853.73,-299.18 842.21,-288.89 835,-276 825.89,-259.7 823.76,-248.9 835,-234 870.07,-187.5 920.01,-239.38 961,-198 981.74,-177.06 986.91,-141.74 988,-119.71"/>
<polygon fill="midnightblue" stroke="midnightblue" points="864.55,-310.34 874.93,-312.47 868.15,-304.33 864.55,-310.34"/>
</g>
<!-- Node15&#45;&gt;Node14 -->
<g id="edge20" class="edge">
<title>Node15&#45;&gt;Node14</title>
<path fill="none" stroke="midnightblue" d="M978.16,-358.02C998.74,-368.46 1021.68,-380.54 1039.65,-390.43"/>
<polygon fill="midnightblue" stroke="midnightblue" points="979.7,-354.88 969.2,-353.51 976.55,-361.13 979.7,-354.88"/>
</g>
<!-- Node15&#45;&gt;Node16 -->
<g id="edge21" class="edge">
<title>Node15&#45;&gt;Node16</title>
<path fill="none" stroke="midnightblue" d="M1000.8,-309.44C1036.56,-298.66 1078.97,-285.87 1113.32,-275.51"/>
<polygon fill="midnightblue" stroke="midnightblue" points="999.46,-306.19 990.9,-312.43 1001.48,-312.89 999.46,-306.19"/>
</g>
<!-- Node15&#45;&gt;Node18 -->
<g id="edge24" class="edge">
<title>Node15&#45;&gt;Node18</title>
<path fill="none" stroke="midnightblue" d="M1015.33,-317.56C1102.38,-303.48 1233.47,-282.28 1316.87,-268.8"/>
<polygon fill="midnightblue" stroke="midnightblue" points="1014.51,-314.14 1005.2,-319.19 1015.63,-321.05 1014.51,-314.14"/>
</g>
<!-- Node15&#45;&gt;Node19 -->
<g id="edge28" class="edge">
<title>Node15&#45;&gt;Node19</title>
<path fill="none" stroke="midnightblue" d="M965.98,-307.13C1010.21,-279.77 1076.97,-239 1090,-234 1167.39,-204.3 1191.91,-215.19 1273,-198 1275.91,-197.38 1278.88,-196.75 1281.87,-196.1"/>
<polygon fill="midnightblue" stroke="midnightblue" points="964.12,-304.16 957.46,-312.41 967.8,-310.12 964.12,-304.16"/>
</g>
<!-- Node21 -->
<g id="node21" class="node">
<title>Node21</title>
<g id="a_node21"><a xlink:href="_polygon_8cpp.html" target="_top" xlink:title=" ">
<polygon fill="none" stroke="black" points="843.5,-234.5 843.5,-275.5 1004.5,-275.5 1004.5,-234.5 843.5,-234.5"/>
<text text-anchor="start" x="851.5" y="-263.5" font-family="Helvetica,sans-Serif" font-size="10.00">/home/runner/work/Simulatio</text>
<text text-anchor="start" x="851.5" y="-252.5" font-family="Helvetica,sans-Serif" font-size="10.00">/Simulatio/engine/src/Corpses</text>
<text text-anchor="middle" x="924" y="-241.5" font-family="Helvetica,sans-Serif" font-size="10.00">/Polygon.cpp</text>
</a>
</g>
</g>
<!-- Node15&#45;&gt;Node21 -->
<g id="edge30" class="edge">
<title>Node15&#45;&gt;Node21</title>
<path fill="none" stroke="midnightblue" d="M925.22,-302.3C924.98,-293.3 924.73,-283.65 924.51,-275.51"/>
<polygon fill="midnightblue" stroke="midnightblue" points="921.72,-302.52 925.48,-312.43 928.72,-302.34 921.72,-302.52"/>
</g>
<!-- Node16&#45;&gt;Node4 -->
<g id="edge22" class="edge">
<title>Node16&#45;&gt;Node4</title>
<path fill="none" stroke="midnightblue" d="M1131.01,-229.2C1115.47,-220.18 1098.48,-209.39 1084,-198 1067.71,-185.19 1029.22,-144.52 1006.23,-119.78"/>
<polygon fill="midnightblue" stroke="midnightblue" points="1129.53,-232.39 1139.95,-234.3 1132.99,-226.31 1129.53,-232.39"/>
</g>
<!-- Node17 -->
<g id="node17" class="node">
<title>Node17</title>
<g id="a_node17"><a xlink:href="_collision_8cpp.html" target="_top" xlink:title=" ">
<polygon fill="none" stroke="black" points="1092.5,-156.5 1092.5,-197.5 1263.5,-197.5 1263.5,-156.5 1092.5,-156.5"/>
<text text-anchor="start" x="1100.5" y="-185.5" font-family="Helvetica,sans-Serif" font-size="10.00">/home/runner/work/Simulatio</text>
<text text-anchor="start" x="1100.5" y="-174.5" font-family="Helvetica,sans-Serif" font-size="10.00">/Simulatio/engine/src/Geometry</text>
<text text-anchor="middle" x="1178" y="-163.5" font-family="Helvetica,sans-Serif" font-size="10.00">/Collision.cpp</text>
</a>
</g>
</g>
<!-- Node16&#45;&gt;Node17 -->
<g id="edge23" class="edge">
<title>Node16&#45;&gt;Node17</title>
<path fill="none" stroke="midnightblue" d="M1178,-224.3C1178,-215.3 1178,-205.65 1178,-197.51"/>
<polygon fill="midnightblue" stroke="midnightblue" points="1174.5,-224.43 1178,-234.43 1181.5,-224.43 1174.5,-224.43"/>
</g>
<!-- Node18&#45;&gt;Node19 -->
<g id="edge25" class="edge">
<title>Node18&#45;&gt;Node19</title>
<path fill="none" stroke="midnightblue" d="M1382.73,-225.17C1378.47,-215.93 1373.86,-205.92 1369.98,-197.51"/>
<polygon fill="midnightblue" stroke="midnightblue" points="1379.62,-226.81 1386.99,-234.43 1385.98,-223.88 1379.62,-226.81"/>
</g>
<!-- Node20 -->
<g id="node20" class="node">
<title>Node20</title>
<g id="a_node20"><a xlink:href="_quad_node_8cpp.html" target="_top" xlink:title=" ">
<polygon fill="none" stroke="black" points="1458,-156.5 1458,-197.5 1630,-197.5 1630,-156.5 1458,-156.5"/>
<text text-anchor="start" x="1466" y="-185.5" font-family="Helvetica,sans-Serif" font-size="10.00">/home/runner/work/Simulatio</text>
<text text-anchor="start" x="1466" y="-174.5" font-family="Helvetica,sans-Serif" font-size="10.00">/Simulatio/engine/src/Structures</text>
<text text-anchor="middle" x="1544" y="-163.5" font-family="Helvetica,sans-Serif" font-size="10.00">/QuadNode.cpp</text>
</a>
</g>
</g>
<!-- Node18&#45;&gt;Node20 -->
<g id="edge27" class="edge">
<title>Node18&#45;&gt;Node20</title>
<path fill="none" stroke="midnightblue" d="M1443.19,-229.77C1463.48,-219.35 1486.87,-207.34 1506.02,-197.51"/>
<polygon fill="midnightblue" stroke="midnightblue" points="1441.41,-226.75 1434.11,-234.43 1444.61,-232.97 1441.41,-226.75"/>
</g>
<!-- Node19&#45;&gt;Node4 -->
<g id="edge26" class="edge">
<title>Node19&#45;&gt;Node4</title>
<path fill="none" stroke="midnightblue" d="M1271.77,-155.77C1196.8,-139.97 1121.87,-125.36 1067.06,-114.89"/>
<polygon fill="midnightblue" stroke="midnightblue" points="1271.36,-159.26 1281.87,-157.9 1272.81,-152.41 1271.36,-159.26"/>
</g>
</g>
</svg>
