<?xml version="1.0" encoding="UTF-8" standalone="no"?>
<!DOCTYPE svg PUBLIC "-//W3C//DTD SVG 1.1//EN"
 "http://www.w3.org/Graphics/SVG/1.1/DTD/svg11.dtd">
<!-- Generated by graphviz version 2.43.0 (0)
 -->
<!-- Title: /home/runner/work/Simulatio/Simulatio/include/Corpses/Corpse.hpp Pages: 1 -->
<svg width="835pt" height="386pt"
 viewBox="0.00 0.00 835.00 386.00" xmlns="http://www.w3.org/2000/svg" xmlns:xlink="http://www.w3.org/1999/xlink">
<g id="graph0" class="graph" transform="scale(1 1) rotate(0) translate(4 382)">
<title>/home/runner/work/Simulatio/Simulatio/include/Corpses/Corpse.hpp</title>
<!-- Node1 -->
<g id="node1" class="node">
<title>Node1</title>
<g id="a_node1"><a xlink:title=" ">
<polygon fill="#bfbfbf" stroke="black" points="575.5,-336.5 575.5,-377.5 733.5,-377.5 733.5,-336.5 575.5,-336.5"/>
<text text-anchor="start" x="583.5" y="-365.5" font-family="Helvetica,sans-Serif" font-size="10.00">/home/runner/work/Simulatio</text>
<text text-anchor="start" x="583.5" y="-354.5" font-family="Helvetica,sans-Serif" font-size="10.00">/Simulatio/include/Corpses</text>
<text text-anchor="middle" x="654.5" y="-343.5" font-family="Helvetica,sans-Serif" font-size="10.00">/Corpse.hpp</text>
</a>
</g>
</g>
<!-- Node2 -->
<g id="node2" class="node">
<title>Node2</title>
<g id="a_node2"><a xlink:title=" ">
<polygon fill="none" stroke="#bfbfbf" points="0,-0.5 0,-19.5 47,-19.5 47,-0.5 0,-0.5"/>
<text text-anchor="middle" x="23.5" y="-7.5" font-family="Helvetica,sans-Serif" font-size="10.00">cmath</text>
</a>
</g>
</g>
<!-- Node1&#45;&gt;Node2 -->
<g id="edge1" class="edge">
<title>Node1&#45;&gt;Node2</title>
<path fill="none" stroke="midnightblue" d="M575.44,-355.15C421.51,-351.34 96.5,-331.83 96.5,-235 96.5,-235 96.5,-235 96.5,-121 96.5,-81.78 63.88,-45.84 42.25,-26.32"/>
<polygon fill="midnightblue" stroke="midnightblue" points="44.43,-23.58 34.59,-19.67 39.85,-28.87 44.43,-23.58"/>
</g>
<!-- Node3 -->
<g id="node3" class="node">
<title>Node3</title>
<g id="a_node3"><a xlink:title=" ">
<polygon fill="none" stroke="#bfbfbf" points="625.5,-0.5 625.5,-19.5 685.5,-19.5 685.5,-0.5 625.5,-0.5"/>
<text text-anchor="middle" x="655.5" y="-7.5" font-family="Helvetica,sans-Serif" font-size="10.00">iostream</text>
</a>
</g>
</g>
<!-- Node1&#45;&gt;Node3 -->
<g id="edge2" class="edge">
<title>Node1&#45;&gt;Node3</title>
<path fill="none" stroke="midnightblue" d="M659.49,-336.45C665.12,-312.65 673.5,-271.15 673.5,-235 673.5,-235 673.5,-235 673.5,-121 673.5,-88.54 665.77,-51.38 660.44,-29.63"/>
<polygon fill="midnightblue" stroke="midnightblue" points="663.79,-28.59 657.93,-19.76 657.01,-30.32 663.79,-28.59"/>
</g>
<!-- Node4 -->
<g id="node4" class="node">
<title>Node4</title>
<g id="a_node4"><a xlink:title=" ">
<polygon fill="none" stroke="#bfbfbf" points="703.5,-0.5 703.5,-19.5 761.5,-19.5 761.5,-0.5 703.5,-0.5"/>
<text text-anchor="middle" x="732.5" y="-7.5" font-family="Helvetica,sans-Serif" font-size="10.00">memory</text>
</a>
</g>
</g>
<!-- Node1&#45;&gt;Node4 -->
<g id="edge3" class="edge">
<title>Node1&#45;&gt;Node4</title>
<path fill="none" stroke="midnightblue" d="M673.52,-336.43C693.33,-313.9 721.5,-274.86 721.5,-235 721.5,-235 721.5,-235 721.5,-121 721.5,-88.79 726.23,-51.53 729.48,-29.69"/>
<polygon fill="midnightblue" stroke="midnightblue" points="732.99,-29.95 731.06,-19.53 726.07,-28.87 732.99,-29.95"/>
</g>
<!-- Node5 -->
<g id="node5" class="node">
<title>Node5</title>
<g id="a_node5"><a xlink:title=" ">
<polygon fill="none" stroke="#bfbfbf" points="780,-0.5 780,-19.5 827,-19.5 827,-0.5 780,-0.5"/>
<text text-anchor="middle" x="803.5" y="-7.5" font-family="Helvetica,sans-Serif" font-size="10.00">vector</text>
</a>
</g>
</g>
<!-- Node1&#45;&gt;Node5 -->
<g id="edge4" class="edge">
<title>Node1&#45;&gt;Node5</title>
<path fill="none" stroke="midnightblue" d="M698.21,-336.4C734.94,-316.6 781.5,-282.2 781.5,-235 781.5,-235 781.5,-235 781.5,-121 781.5,-88.33 790.95,-51.24 797.46,-29.55"/>
<polygon fill="midnightblue" stroke="midnightblue" points="800.89,-30.31 800.53,-19.72 794.21,-28.22 800.89,-30.31"/>
</g>
<!-- Node6 -->
<g id="node6" class="node">
<title>Node6</title>
<g id="a_node6"><a xlink:href="_geometry_8hpp.html" target="_top" xlink:title=" ">
<polygon fill="none" stroke="black" points="409.5,-280.5 409.5,-299.5 555.5,-299.5 555.5,-280.5 409.5,-280.5"/>
<text text-anchor="middle" x="482.5" y="-287.5" font-family="Helvetica,sans-Serif" font-size="10.00">../Geometry/Geometry.hpp</text>
</a>
</g>
</g>
<!-- Node1&#45;&gt;Node6 -->
<g id="edge5" class="edge">
<title>Node1&#45;&gt;Node6</title>
<path fill="none" stroke="midnightblue" d="M602.89,-336.5C574.37,-325.72 539.8,-312.65 515.03,-303.29"/>
<polygon fill="midnightblue" stroke="midnightblue" points="515.99,-299.91 505.4,-299.65 513.51,-306.46 515.99,-299.91"/>
</g>
<!-- Node20 -->
<g id="node20" class="node">
<title>Node20</title>
<g id="a_node20"><a xlink:title=" ">
<polygon fill="none" stroke="#bfbfbf" points="577.5,-224.5 577.5,-243.5 645.5,-243.5 645.5,-224.5 577.5,-224.5"/>
<text text-anchor="middle" x="611.5" y="-231.5" font-family="Helvetica,sans-Serif" font-size="10.00">Config.hpp</text>
</a>
</g>
</g>
<!-- Node1&#45;&gt;Node20 -->
<g id="edge32" class="edge">
<title>Node1&#45;&gt;Node20</title>
<path fill="none" stroke="midnightblue" d="M647.5,-336.29C639.32,-313.27 625.89,-275.5 617.96,-253.17"/>
<polygon fill="midnightblue" stroke="midnightblue" points="621.19,-251.83 614.55,-243.57 614.6,-254.17 621.19,-251.83"/>
</g>
<!-- Node7 -->
<g id="node7" class="node">
<title>Node7</title>
<g id="a_node7"><a xlink:href="_recorder_8hpp.html" target="_top" xlink:title=" ">
<polygon fill="none" stroke="black" points="196.5,-224.5 196.5,-243.5 344.5,-243.5 344.5,-224.5 196.5,-224.5"/>
<text text-anchor="middle" x="270.5" y="-231.5" font-family="Helvetica,sans-Serif" font-size="10.00">../Benchmark/Recorder.hpp</text>
</a>
</g>
</g>
<!-- Node6&#45;&gt;Node7 -->
<g id="edge6" class="edge">
<title>Node6&#45;&gt;Node7</title>
<path fill="none" stroke="midnightblue" d="M448.91,-280.44C412.31,-271.12 353.66,-256.18 313.67,-246"/>
<polygon fill="midnightblue" stroke="midnightblue" points="314.49,-242.59 303.93,-243.52 312.76,-249.38 314.49,-242.59"/>
</g>
<!-- Node10 -->
<g id="node10" class="node">
<title>Node10</title>
<g id="a_node10"><a xlink:href="_maths_8hpp.html" target="_top" xlink:title=" ">
<polygon fill="none" stroke="black" points="370.5,-56.5 370.5,-75.5 498.5,-75.5 498.5,-56.5 370.5,-56.5"/>
<text text-anchor="middle" x="434.5" y="-63.5" font-family="Helvetica,sans-Serif" font-size="10.00">../Geometry/Maths.hpp</text>
</a>
</g>
</g>
<!-- Node6&#45;&gt;Node10 -->
<g id="edge26" class="edge">
<title>Node6&#45;&gt;Node10</title>
<path fill="none" stroke="midnightblue" d="M466.44,-280.37C453.34,-272.53 435.27,-259.79 424.5,-244 395.25,-201.13 398.91,-183.36 391.5,-132 390.23,-123.2 388.19,-120.25 391.5,-112 396.18,-100.33 405.49,-89.97 414.26,-82.14"/>
<polygon fill="midnightblue" stroke="midnightblue" points="416.55,-84.78 422,-75.7 412.08,-79.4 416.55,-84.78"/>
</g>
<!-- Node18 -->
<g id="node18" class="node">
<title>Node18</title>
<g id="a_node18"><a xlink:href="_bounds_8hpp.html" target="_top" xlink:title=" ">
<polygon fill="none" stroke="black" points="519.5,-168.5 519.5,-187.5 593.5,-187.5 593.5,-168.5 519.5,-168.5"/>
<text text-anchor="middle" x="556.5" y="-175.5" font-family="Helvetica,sans-Serif" font-size="10.00">Bounds.hpp</text>
</a>
</g>
</g>
<!-- Node6&#45;&gt;Node18 -->
<g id="edge21" class="edge">
<title>Node6&#45;&gt;Node18</title>
<path fill="none" stroke="midnightblue" d="M494.56,-280.18C505.23,-271.86 520.58,-258.53 530.5,-244 540.34,-229.59 547.32,-210.89 551.56,-197.25"/>
<polygon fill="midnightblue" stroke="midnightblue" points="554.94,-198.15 554.37,-187.57 548.22,-196.2 554.94,-198.15"/>
</g>
<!-- Node19 -->
<g id="node19" class="node">
<title>Node19</title>
<g id="a_node19"><a xlink:href="_vector_8hpp.html" target="_top" xlink:title=" ">
<polygon fill="none" stroke="black" points="400.5,-112.5 400.5,-131.5 468.5,-131.5 468.5,-112.5 400.5,-112.5"/>
<text text-anchor="middle" x="434.5" y="-119.5" font-family="Helvetica,sans-Serif" font-size="10.00">Vector.hpp</text>
</a>
</g>
</g>
<!-- Node6&#45;&gt;Node19 -->
<g id="edge27" class="edge">
<title>Node6&#45;&gt;Node19</title>
<path fill="none" stroke="midnightblue" d="M468.13,-280.33C456.62,-272.47 441.31,-259.72 434.5,-244 419.87,-210.23 425.26,-166.02 430.13,-141.47"/>
<polygon fill="midnightblue" stroke="midnightblue" points="433.55,-142.2 432.25,-131.68 426.71,-140.71 433.55,-142.2"/>
</g>
<!-- Node6&#45;&gt;Node20 -->
<g id="edge25" class="edge">
<title>Node6&#45;&gt;Node20</title>
<path fill="none" stroke="midnightblue" d="M502.94,-280.44C524.17,-271.56 557.6,-257.56 581.75,-247.45"/>
<polygon fill="midnightblue" stroke="midnightblue" points="583.28,-250.61 591.16,-243.52 580.58,-244.15 583.28,-250.61"/>
</g>
<!-- Node21 -->
<g id="node21" class="node">
<title>Node21</title>
<g id="a_node21"><a xlink:href="_vertices_8hpp.html" target="_top" xlink:title=" ">
<polygon fill="none" stroke="black" points="444,-224.5 444,-243.5 521,-243.5 521,-224.5 444,-224.5"/>
<text text-anchor="middle" x="482.5" y="-231.5" font-family="Helvetica,sans-Serif" font-size="10.00">Vertices.hpp</text>
</a>
</g>
</g>
<!-- Node6&#45;&gt;Node21 -->
<g id="edge28" class="edge">
<title>Node6&#45;&gt;Node21</title>
<path fill="none" stroke="midnightblue" d="M482.5,-280.08C482.5,-273.01 482.5,-262.86 482.5,-253.99"/>
<polygon fill="midnightblue" stroke="midnightblue" points="486,-253.75 482.5,-243.75 479,-253.75 486,-253.75"/>
</g>
<!-- Node8 -->
<g id="node8" class="node">
<title>Node8</title>
<g id="a_node8"><a xlink:href="_performance_8hpp.html" target="_top" xlink:title=" ">
<polygon fill="none" stroke="black" points="227.5,-168.5 227.5,-187.5 327.5,-187.5 327.5,-168.5 227.5,-168.5"/>
<text text-anchor="middle" x="277.5" y="-175.5" font-family="Helvetica,sans-Serif" font-size="10.00">Performance.hpp</text>
</a>
</g>
</g>
<!-- Node7&#45;&gt;Node8 -->
<g id="edge7" class="edge">
<title>Node7&#45;&gt;Node8</title>
<path fill="none" stroke="midnightblue" d="M271.66,-224.08C272.58,-216.93 273.92,-206.64 275.08,-197.69"/>
<polygon fill="midnightblue" stroke="midnightblue" points="278.55,-198.12 276.37,-187.75 271.61,-197.22 278.55,-198.12"/>
</g>
<!-- Node9 -->
<g id="node9" class="node">
<title>Node9</title>
<g id="a_node9"><a xlink:href="_block_data_8hpp.html" target="_top" xlink:title=" ">
<polygon fill="none" stroke="black" points="248.5,-112.5 248.5,-131.5 336.5,-131.5 336.5,-112.5 248.5,-112.5"/>
<text text-anchor="middle" x="292.5" y="-119.5" font-family="Helvetica,sans-Serif" font-size="10.00">BlockData.hpp</text>
</a>
</g>
</g>
<!-- Node8&#45;&gt;Node9 -->
<g id="edge8" class="edge">
<title>Node8&#45;&gt;Node9</title>
<path fill="none" stroke="midnightblue" d="M279.98,-168.08C281.99,-160.85 284.89,-150.41 287.39,-141.4"/>
<polygon fill="midnightblue" stroke="midnightblue" points="290.76,-142.32 290.07,-131.75 284.02,-140.45 290.76,-142.32"/>
</g>
<!-- Node9&#45;&gt;Node10 -->
<g id="edge9" class="edge">
<title>Node9&#45;&gt;Node10</title>
<path fill="none" stroke="midnightblue" d="M315,-112.44C338.58,-103.48 375.82,-89.31 402.46,-79.18"/>
<polygon fill="midnightblue" stroke="midnightblue" points="404,-82.34 412.1,-75.52 401.51,-75.8 404,-82.34"/>
</g>
<!-- Node10&#45;&gt;Node2 -->
<g id="edge12" class="edge">
<title>Node10&#45;&gt;Node2</title>
<path fill="none" stroke="midnightblue" d="M370.32,-60.45C296.7,-54.54 172.3,-42.47 57.2,-20.08"/>
<polygon fill="midnightblue" stroke="midnightblue" points="57.65,-16.61 47.17,-18.1 56.3,-23.47 57.65,-16.61"/>
</g>
<!-- Node10&#45;&gt;Node3 -->
<g id="edge14" class="edge">
<title>Node10&#45;&gt;Node3</title>
<path fill="none" stroke="midnightblue" d="M469.52,-56.44C509.21,-46.75 573.79,-30.97 615.45,-20.79"/>
<polygon fill="midnightblue" stroke="midnightblue" points="616.38,-24.16 625.26,-18.39 614.72,-17.36 616.38,-24.16"/>
</g>
<!-- Node10&#45;&gt;Node4 -->
<g id="edge16" class="edge">
<title>Node10&#45;&gt;Node4</title>
<path fill="none" stroke="midnightblue" d="M489.46,-56.49C539.95,-48.44 617.06,-35.59 693.24,-20.16"/>
<polygon fill="midnightblue" stroke="midnightblue" points="694.4,-23.49 703.49,-18.06 693,-16.63 694.4,-23.49"/>
</g>
<!-- Node10&#45;&gt;Node5 -->
<g id="edge20" class="edge">
<title>Node10&#45;&gt;Node5</title>
<path fill="none" stroke="midnightblue" d="M498.71,-58.97C564.45,-52.21 669.71,-39.8 769.82,-19.88"/>
<polygon fill="midnightblue" stroke="midnightblue" points="770.69,-23.28 779.8,-17.87 769.3,-16.42 770.69,-23.28"/>
</g>
<!-- Node11 -->
<g id="node11" class="node">
<title>Node11</title>
<g id="a_node11"><a xlink:title=" ">
<polygon fill="none" stroke="#bfbfbf" points="413.5,-0.5 413.5,-19.5 455.5,-19.5 455.5,-0.5 413.5,-0.5"/>
<text text-anchor="middle" x="434.5" y="-7.5" font-family="Helvetica,sans-Serif" font-size="10.00">array</text>
</a>
</g>
</g>
<!-- Node10&#45;&gt;Node11 -->
<g id="edge10" class="edge">
<title>Node10&#45;&gt;Node11</title>
<path fill="none" stroke="midnightblue" d="M434.5,-56.08C434.5,-49.01 434.5,-38.86 434.5,-29.99"/>
<polygon fill="midnightblue" stroke="midnightblue" points="438,-29.75 434.5,-19.75 431,-29.75 438,-29.75"/>
</g>
<!-- Node12 -->
<g id="node12" class="node">
<title>Node12</title>
<g id="a_node12"><a xlink:title=" ">
<polygon fill="none" stroke="#bfbfbf" points="473.5,-0.5 473.5,-19.5 523.5,-19.5 523.5,-0.5 473.5,-0.5"/>
<text text-anchor="middle" x="498.5" y="-7.5" font-family="Helvetica,sans-Serif" font-size="10.00">chrono</text>
</a>
</g>
</g>
<!-- Node10&#45;&gt;Node12 -->
<g id="edge11" class="edge">
<title>Node10&#45;&gt;Node12</title>
<path fill="none" stroke="midnightblue" d="M444.78,-56.32C454.34,-48.26 468.78,-36.08 480.28,-26.37"/>
<polygon fill="midnightblue" stroke="midnightblue" points="482.64,-28.96 488.03,-19.83 478.13,-23.61 482.64,-28.96"/>
</g>
<!-- Node13 -->
<g id="node13" class="node">
<title>Node13</title>
<g id="a_node13"><a xlink:title=" ">
<polygon fill="none" stroke="#bfbfbf" points="542,-0.5 542,-19.5 607,-19.5 607,-0.5 542,-0.5"/>
<text text-anchor="middle" x="574.5" y="-7.5" font-family="Helvetica,sans-Serif" font-size="10.00">functional</text>
</a>
</g>
</g>
<!-- Node10&#45;&gt;Node13 -->
<g id="edge13" class="edge">
<title>Node10&#45;&gt;Node13</title>
<path fill="none" stroke="midnightblue" d="M456.68,-56.44C479.93,-47.48 516.65,-33.31 542.92,-23.18"/>
<polygon fill="midnightblue" stroke="midnightblue" points="544.35,-26.38 552.42,-19.52 541.83,-19.85 544.35,-26.38"/>
</g>
<!-- Node14 -->
<g id="node14" class="node">
<title>Node14</title>
<g id="a_node14"><a xlink:title=" ">
<polygon fill="none" stroke="#bfbfbf" points="65,-0.5 65,-19.5 118,-19.5 118,-0.5 65,-0.5"/>
<text text-anchor="middle" x="91.5" y="-7.5" font-family="Helvetica,sans-Serif" font-size="10.00">iterator</text>
</a>
</g>
</g>
<!-- Node10&#45;&gt;Node14 -->
<g id="edge15" class="edge">
<title>Node10&#45;&gt;Node14</title>
<path fill="none" stroke="midnightblue" d="M370.39,-57.49C310.31,-50.02 217.84,-37.44 128.23,-19.97"/>
<polygon fill="midnightblue" stroke="midnightblue" points="128.66,-16.48 118.17,-17.98 127.3,-23.35 128.66,-16.48"/>
</g>
<!-- Node15 -->
<g id="node15" class="node">
<title>Node15</title>
<g id="a_node15"><a xlink:title=" ">
<polygon fill="none" stroke="#bfbfbf" points="136.5,-0.5 136.5,-19.5 192.5,-19.5 192.5,-0.5 136.5,-0.5"/>
<text text-anchor="middle" x="164.5" y="-7.5" font-family="Helvetica,sans-Serif" font-size="10.00">sstream</text>
</a>
</g>
</g>
<!-- Node10&#45;&gt;Node15 -->
<g id="edge17" class="edge">
<title>Node10&#45;&gt;Node15</title>
<path fill="none" stroke="midnightblue" d="M386.62,-56.44C341.54,-48.23 271.91,-35.15 202.53,-20.15"/>
<polygon fill="midnightblue" stroke="midnightblue" points="203.27,-16.73 192.75,-18.02 201.78,-23.57 203.27,-16.73"/>
</g>
<!-- Node16 -->
<g id="node16" class="node">
<title>Node16</title>
<g id="a_node16"><a xlink:title=" ">
<polygon fill="none" stroke="#bfbfbf" points="211,-0.5 211,-19.5 284,-19.5 284,-0.5 211,-0.5"/>
<text text-anchor="middle" x="247.5" y="-7.5" font-family="Helvetica,sans-Serif" font-size="10.00">string_view</text>
</a>
</g>
</g>
<!-- Node10&#45;&gt;Node16 -->
<g id="edge18" class="edge">
<title>Node10&#45;&gt;Node16</title>
<path fill="none" stroke="midnightblue" d="M404.87,-56.44C373,-47.24 322.17,-32.56 286.94,-22.39"/>
<polygon fill="midnightblue" stroke="midnightblue" points="287.57,-18.93 276.99,-19.52 285.63,-25.65 287.57,-18.93"/>
</g>
<!-- Node17 -->
<g id="node17" class="node">
<title>Node17</title>
<g id="a_node17"><a xlink:title=" ">
<polygon fill="none" stroke="#bfbfbf" points="302,-0.5 302,-19.5 395,-19.5 395,-0.5 302,-0.5"/>
<text text-anchor="middle" x="348.5" y="-7.5" font-family="Helvetica,sans-Serif" font-size="10.00">unordered_map</text>
</a>
</g>
</g>
<!-- Node10&#45;&gt;Node17 -->
<g id="edge19" class="edge">
<title>Node10&#45;&gt;Node17</title>
<path fill="none" stroke="midnightblue" d="M420.68,-56.32C407.27,-47.9 386.68,-34.97 370.91,-25.07"/>
<polygon fill="midnightblue" stroke="midnightblue" points="372.61,-22.01 362.28,-19.65 368.89,-27.94 372.61,-22.01"/>
</g>
<!-- Node18&#45;&gt;Node10 -->
<g id="edge22" class="edge">
<title>Node18&#45;&gt;Node10</title>
<path fill="none" stroke="midnightblue" d="M551.83,-168.12C544.44,-154.71 529,-129.05 510.5,-112 496.4,-99 477.94,-87.97 462.75,-80.08"/>
<polygon fill="midnightblue" stroke="midnightblue" points="464.28,-76.93 453.78,-75.58 461.15,-83.19 464.28,-76.93"/>
</g>
<!-- Node18&#45;&gt;Node19 -->
<g id="edge23" class="edge">
<title>Node18&#45;&gt;Node19</title>
<path fill="none" stroke="midnightblue" d="M537.17,-168.44C517.18,-159.6 485.76,-145.69 462.94,-135.59"/>
<polygon fill="midnightblue" stroke="midnightblue" points="464.3,-132.36 453.74,-131.52 461.47,-138.76 464.3,-132.36"/>
</g>
<!-- Node19&#45;&gt;Node10 -->
<g id="edge24" class="edge">
<title>Node19&#45;&gt;Node10</title>
<path fill="none" stroke="midnightblue" d="M434.5,-112.08C434.5,-105.01 434.5,-94.86 434.5,-85.99"/>
<polygon fill="midnightblue" stroke="midnightblue" points="438,-85.75 434.5,-75.75 431,-85.75 438,-85.75"/>
</g>
<!-- Node21&#45;&gt;Node10 -->
<g id="edge30" class="edge">
<title>Node21&#45;&gt;Node10</title>
<path fill="none" stroke="midnightblue" d="M484.14,-224.34C487.62,-203.83 494.12,-151.08 477.5,-112 472.58,-100.43 463.25,-90.08 454.53,-82.23"/>
<polygon fill="midnightblue" stroke="midnightblue" points="456.75,-79.52 446.84,-75.76 452.24,-84.88 456.75,-79.52"/>
</g>
<!-- Node21&#45;&gt;Node18 -->
<g id="edge29" class="edge">
<title>Node21&#45;&gt;Node18</title>
<path fill="none" stroke="midnightblue" d="M494.39,-224.32C505.65,-216.11 522.79,-203.6 536.21,-193.81"/>
<polygon fill="midnightblue" stroke="midnightblue" points="538.38,-196.56 544.39,-187.83 534.25,-190.9 538.38,-196.56"/>
</g>
<!-- Node21&#45;&gt;Node19 -->
<g id="edge31" class="edge">
<title>Node21&#45;&gt;Node19</title>
<path fill="none" stroke="midnightblue" d="M478.73,-224.37C470.92,-206.46 452.79,-164.92 442.33,-140.95"/>
<polygon fill="midnightblue" stroke="midnightblue" points="445.46,-139.36 438.25,-131.59 439.04,-142.16 445.46,-139.36"/>
</g>
</g>
</svg>
