<?xml version="1.0" encoding="UTF-8" standalone="no"?>
<!DOCTYPE svg PUBLIC "-//W3C//DTD SVG 1.1//EN"
 "http://www.w3.org/Graphics/SVG/1.1/DTD/svg11.dtd">
<!-- Generated by graphviz version 2.43.0 (0)
 -->
<!-- Title: /home/runner/work/Simulatio/Simulatio/include/Corpses/Corpse.hpp Pages: 1 -->
<svg width="1303pt" height="518pt"
 viewBox="0.00 0.00 1303.42 518.00" xmlns="http://www.w3.org/2000/svg" xmlns:xlink="http://www.w3.org/1999/xlink">
<g id="graph0" class="graph" transform="scale(1 1) rotate(0) translate(4 514)">
<title>/home/runner/work/Simulatio/Simulatio/include/Corpses/Corpse.hpp</title>
<!-- Node1 -->
<g id="node1" class="node">
<title>Node1</title>
<g id="a_node1"><a xlink:title=" ">
<polygon fill="#bfbfbf" stroke="black" points="983.42,-468.5 983.42,-509.5 1141.42,-509.5 1141.42,-468.5 983.42,-468.5"/>
<text text-anchor="start" x="991.42" y="-497.5" font-family="Helvetica,sans-Serif" font-size="10.00">/home/runner/work/Simulatio</text>
<text text-anchor="start" x="991.42" y="-486.5" font-family="Helvetica,sans-Serif" font-size="10.00">/Simulatio/include/Corpses</text>
<text text-anchor="middle" x="1062.42" y="-475.5" font-family="Helvetica,sans-Serif" font-size="10.00">/Corpse.hpp</text>
</a>
</g>
</g>
<!-- Node2 -->
<g id="node2" class="node">
<title>Node2</title>
<g id="a_node2"><a xlink:href="_constraint_8hpp.html" target="_top" xlink:title=" ">
<polygon fill="none" stroke="black" points="383.92,-234.5 383.92,-275.5 546.92,-275.5 546.92,-234.5 383.92,-234.5"/>
<text text-anchor="start" x="391.92" y="-263.5" font-family="Helvetica,sans-Serif" font-size="10.00">/home/runner/work/Simulatio</text>
<text text-anchor="start" x="391.92" y="-252.5" font-family="Helvetica,sans-Serif" font-size="10.00">/Simulatio/include/Constraints</text>
<text text-anchor="middle" x="465.42" y="-241.5" font-family="Helvetica,sans-Serif" font-size="10.00">/Constraint.hpp</text>
</a>
</g>
</g>
<!-- Node1&#45;&gt;Node2 -->
<g id="edge1" class="edge">
<title>Node1&#45;&gt;Node2</title>
<path fill="none" stroke="midnightblue" d="M973.18,-483.6C903.59,-477.73 805.61,-464.02 725.42,-432 627.72,-392.99 529.55,-312.77 487.16,-275.64"/>
<polygon fill="midnightblue" stroke="midnightblue" points="972.99,-487.1 983.24,-484.41 973.55,-480.12 972.99,-487.1"/>
</g>
<!-- Node4 -->
<g id="node4" class="node">
<title>Node4</title>
<g id="a_node4"><a xlink:href="_system_8hpp.html" target="_top" xlink:title=" ">
<polygon fill="none" stroke="black" points="674.42,-78.5 674.42,-119.5 832.42,-119.5 832.42,-78.5 674.42,-78.5"/>
<text text-anchor="start" x="682.42" y="-107.5" font-family="Helvetica,sans-Serif" font-size="10.00">/home/runner/work/Simulatio</text>
<text text-anchor="start" x="682.42" y="-96.5" font-family="Helvetica,sans-Serif" font-size="10.00">/Simulatio/include/Structures</text>
<text text-anchor="middle" x="753.42" y="-85.5" font-family="Helvetica,sans-Serif" font-size="10.00">/System.hpp</text>
</a>
</g>
</g>
<!-- Node1&#45;&gt;Node4 -->
<g id="edge34" class="edge">
<title>Node1&#45;&gt;Node4</title>
<path fill="none" stroke="midnightblue" d="M1151.24,-467.41C1217.07,-446.27 1295.42,-405.98 1295.42,-334 1295.42,-334 1295.42,-334 1295.42,-254 1295.42,-158.93 982.95,-119.45 832.52,-105.95"/>
<polygon fill="midnightblue" stroke="midnightblue" points="1150.14,-464.09 1141.63,-470.39 1152.22,-470.77 1150.14,-464.09"/>
</g>
<!-- Node9 -->
<g id="node9" class="node">
<title>Node9</title>
<g id="a_node9"><a xlink:href="_circle_8hpp.html" target="_top" xlink:title=" ">
<polygon fill="none" stroke="black" points="819.42,-390.5 819.42,-431.5 977.42,-431.5 977.42,-390.5 819.42,-390.5"/>
<text text-anchor="start" x="827.42" y="-419.5" font-family="Helvetica,sans-Serif" font-size="10.00">/home/runner/work/Simulatio</text>
<text text-anchor="start" x="827.42" y="-408.5" font-family="Helvetica,sans-Serif" font-size="10.00">/Simulatio/include/Corpses</text>
<text text-anchor="middle" x="898.42" y="-397.5" font-family="Helvetica,sans-Serif" font-size="10.00">/Circle.hpp</text>
</a>
</g>
</g>
<!-- Node1&#45;&gt;Node9 -->
<g id="edge11" class="edge">
<title>Node1&#45;&gt;Node9</title>
<path fill="none" stroke="midnightblue" d="M1011.04,-464.19C988.35,-453.67 962.01,-441.47 940.51,-431.51"/>
<polygon fill="midnightblue" stroke="midnightblue" points="1009.64,-467.4 1020.18,-468.43 1012.58,-461.05 1009.64,-467.4"/>
</g>
<!-- Node10 -->
<g id="node10" class="node">
<title>Node10</title>
<g id="a_node10"><a xlink:href="_polygon_8hpp.html" target="_top" xlink:title=" ">
<polygon fill="none" stroke="black" points="819.42,-312.5 819.42,-353.5 977.42,-353.5 977.42,-312.5 819.42,-312.5"/>
<text text-anchor="start" x="827.42" y="-341.5" font-family="Helvetica,sans-Serif" font-size="10.00">/home/runner/work/Simulatio</text>
<text text-anchor="start" x="827.42" y="-330.5" font-family="Helvetica,sans-Serif" font-size="10.00">/Simulatio/include/Corpses</text>
<text text-anchor="middle" x="898.42" y="-319.5" font-family="Helvetica,sans-Serif" font-size="10.00">/Polygon.hpp</text>
</a>
</g>
</g>
<!-- Node1&#45;&gt;Node10 -->
<g id="edge29" class="edge">
<title>Node1&#45;&gt;Node10</title>
<path fill="none" stroke="midnightblue" d="M1044.52,-459.91C1030.37,-439.08 1009.26,-410.81 986.42,-390 971.16,-376.1 952.04,-363.47 935.52,-353.74"/>
<polygon fill="midnightblue" stroke="midnightblue" points="1041.68,-461.96 1050.14,-468.34 1047.5,-458.08 1041.68,-461.96"/>
</g>
<!-- Node11 -->
<g id="node11" class="node">
<title>Node11</title>
<g id="a_node11"><a xlink:href="_collision_8hpp.html" target="_top" xlink:title=" ">
<polygon fill="none" stroke="black" points="567.42,-234.5 567.42,-275.5 725.42,-275.5 725.42,-234.5 567.42,-234.5"/>
<text text-anchor="start" x="575.42" y="-263.5" font-family="Helvetica,sans-Serif" font-size="10.00">/home/runner/work/Simulatio</text>
<text text-anchor="start" x="575.42" y="-252.5" font-family="Helvetica,sans-Serif" font-size="10.00">/Simulatio/include/Geometry</text>
<text text-anchor="middle" x="646.42" y="-241.5" font-family="Helvetica,sans-Serif" font-size="10.00">/Collision.hpp</text>
</a>
</g>
</g>
<!-- Node1&#45;&gt;Node11 -->
<g id="edge30" class="edge">
<title>Node1&#45;&gt;Node11</title>
<path fill="none" stroke="midnightblue" d="M973.21,-476.33C923.86,-467.88 862.23,-453.99 810.42,-432 752.55,-407.44 733.53,-401.56 692.42,-354 672.26,-330.68 659.05,-297.02 652.16,-275.84"/>
<polygon fill="midnightblue" stroke="midnightblue" points="972.78,-479.81 983.22,-478 973.93,-472.9 972.78,-479.81"/>
</g>
<!-- Node12 -->
<g id="node12" class="node">
<title>Node12</title>
<g id="a_node12"><a xlink:href="_old_quadtree_8hpp.html" target="_top" xlink:title=" ">
<polygon fill="none" stroke="black" points="895.42,-234.5 895.42,-275.5 1053.42,-275.5 1053.42,-234.5 895.42,-234.5"/>
<text text-anchor="start" x="903.42" y="-263.5" font-family="Helvetica,sans-Serif" font-size="10.00">/home/runner/work/Simulatio</text>
<text text-anchor="start" x="903.42" y="-252.5" font-family="Helvetica,sans-Serif" font-size="10.00">/Simulatio/include/Structures</text>
<text text-anchor="middle" x="974.42" y="-241.5" font-family="Helvetica,sans-Serif" font-size="10.00">/OldQuadtree.hpp</text>
</a>
</g>
</g>
<!-- Node1&#45;&gt;Node12 -->
<g id="edge31" class="edge">
<title>Node1&#45;&gt;Node12</title>
<path fill="none" stroke="midnightblue" d="M1054.43,-458.62C1044.42,-423.2 1025.94,-362.19 1004.42,-312 999.07,-299.53 991.94,-286.12 985.97,-275.54"/>
<polygon fill="midnightblue" stroke="midnightblue" points="1051.08,-459.63 1057.14,-468.32 1057.82,-457.75 1051.08,-459.63"/>
</g>
<!-- Node13 -->
<g id="node13" class="node">
<title>Node13</title>
<g id="a_node13"><a xlink:href="_quad_node_8hpp.html" target="_top" xlink:title=" ">
<polygon fill="none" stroke="black" points="1071.42,-234.5 1071.42,-275.5 1229.42,-275.5 1229.42,-234.5 1071.42,-234.5"/>
<text text-anchor="start" x="1079.42" y="-263.5" font-family="Helvetica,sans-Serif" font-size="10.00">/home/runner/work/Simulatio</text>
<text text-anchor="start" x="1079.42" y="-252.5" font-family="Helvetica,sans-Serif" font-size="10.00">/Simulatio/include/Structures</text>
<text text-anchor="middle" x="1150.42" y="-241.5" font-family="Helvetica,sans-Serif" font-size="10.00">/QuadNode.hpp</text>
</a>
</g>
</g>
<!-- Node1&#45;&gt;Node13 -->
<g id="edge32" class="edge">
<title>Node1&#45;&gt;Node13</title>
<path fill="none" stroke="midnightblue" d="M1073.53,-458.72C1091.73,-410.73 1127.43,-316.61 1142.94,-275.73"/>
<polygon fill="midnightblue" stroke="midnightblue" points="1070.2,-457.63 1069.92,-468.22 1076.74,-460.11 1070.2,-457.63"/>
</g>
<!-- Node14 -->
<g id="node14" class="node">
<title>Node14</title>
<g id="a_node14"><a xlink:href="_quadtree_8hpp.html" target="_top" xlink:title=" ">
<polygon fill="none" stroke="black" points="857.42,-156.5 857.42,-197.5 1015.42,-197.5 1015.42,-156.5 857.42,-156.5"/>
<text text-anchor="start" x="865.42" y="-185.5" font-family="Helvetica,sans-Serif" font-size="10.00">/home/runner/work/Simulatio</text>
<text text-anchor="start" x="865.42" y="-174.5" font-family="Helvetica,sans-Serif" font-size="10.00">/Simulatio/include/Structures</text>
<text text-anchor="middle" x="936.42" y="-163.5" font-family="Helvetica,sans-Serif" font-size="10.00">/Quadtree.hpp</text>
</a>
</g>
</g>
<!-- Node1&#45;&gt;Node14 -->
<g id="edge33" class="edge">
<title>Node1&#45;&gt;Node14</title>
<path fill="none" stroke="midnightblue" d="M1103.02,-462.66C1173.29,-415.74 1304.05,-312.92 1238.42,-234 1210.59,-200.53 1095.44,-186.98 1015.66,-181.55"/>
<polygon fill="midnightblue" stroke="midnightblue" points="1100.78,-459.95 1094.35,-468.37 1104.63,-465.79 1100.78,-459.95"/>
</g>
<!-- Node3 -->
<g id="node3" class="node">
<title>Node3</title>
<g id="a_node3"><a xlink:href="_link_8hpp.html" target="_top" xlink:title=" ">
<polygon fill="none" stroke="black" points="18.92,-156.5 18.92,-197.5 181.92,-197.5 181.92,-156.5 18.92,-156.5"/>
<text text-anchor="start" x="26.92" y="-185.5" font-family="Helvetica,sans-Serif" font-size="10.00">/home/runner/work/Simulatio</text>
<text text-anchor="start" x="26.92" y="-174.5" font-family="Helvetica,sans-Serif" font-size="10.00">/Simulatio/include/Constraints</text>
<text text-anchor="middle" x="100.42" y="-163.5" font-family="Helvetica,sans-Serif" font-size="10.00">/Link.hpp</text>
</a>
</g>
</g>
<!-- Node2&#45;&gt;Node3 -->
<g id="edge2" class="edge">
<title>Node2&#45;&gt;Node3</title>
<path fill="none" stroke="midnightblue" d="M374,-235.81C320.45,-225.05 251.54,-211.01 190.42,-198 187.76,-197.43 185.05,-196.85 182.32,-196.27"/>
<polygon fill="midnightblue" stroke="midnightblue" points="373.32,-239.24 383.82,-237.78 374.7,-232.38 373.32,-239.24"/>
</g>
<!-- Node2&#45;&gt;Node4 -->
<g id="edge10" class="edge">
<title>Node2&#45;&gt;Node4</title>
<path fill="none" stroke="midnightblue" d="M373.72,-249.15C247.52,-241.53 33.12,-224.79 9.42,-198 -2.95,-184.02 -3.28,-169.69 9.42,-156 53.93,-108.01 491.96,-100.89 674.35,-100.02"/>
<polygon fill="midnightblue" stroke="midnightblue" points="373.58,-252.65 383.77,-249.75 374,-245.66 373.58,-252.65"/>
</g>
<!-- Node6 -->
<g id="node6" class="node">
<title>Node6</title>
<g id="a_node6"><a xlink:href="_loose_8hpp.html" target="_top" xlink:title=" ">
<polygon fill="none" stroke="black" points="561.92,-156.5 561.92,-197.5 724.92,-197.5 724.92,-156.5 561.92,-156.5"/>
<text text-anchor="start" x="569.92" y="-185.5" font-family="Helvetica,sans-Serif" font-size="10.00">/home/runner/work/Simulatio</text>
<text text-anchor="start" x="569.92" y="-174.5" font-family="Helvetica,sans-Serif" font-size="10.00">/Simulatio/include/Constraints</text>
<text text-anchor="middle" x="643.42" y="-163.5" font-family="Helvetica,sans-Serif" font-size="10.00">/Loose.hpp</text>
</a>
</g>
</g>
<!-- Node2&#45;&gt;Node6 -->
<g id="edge5" class="edge">
<title>Node2&#45;&gt;Node6</title>
<path fill="none" stroke="midnightblue" d="M520.53,-230.47C545.3,-219.89 574.19,-207.56 597.73,-197.51"/>
<polygon fill="midnightblue" stroke="midnightblue" points="519.08,-227.28 511.26,-234.43 521.83,-233.72 519.08,-227.28"/>
</g>
<!-- Node7 -->
<g id="node7" class="node">
<title>Node7</title>
<g id="a_node7"><a xlink:href="_slider_8hpp.html" target="_top" xlink:title=" ">
<polygon fill="none" stroke="black" points="199.92,-156.5 199.92,-197.5 362.92,-197.5 362.92,-156.5 199.92,-156.5"/>
<text text-anchor="start" x="207.92" y="-185.5" font-family="Helvetica,sans-Serif" font-size="10.00">/home/runner/work/Simulatio</text>
<text text-anchor="start" x="207.92" y="-174.5" font-family="Helvetica,sans-Serif" font-size="10.00">/Simulatio/include/Constraints</text>
<text text-anchor="middle" x="281.42" y="-163.5" font-family="Helvetica,sans-Serif" font-size="10.00">/Slider.hpp</text>
</a>
</g>
</g>
<!-- Node2&#45;&gt;Node7 -->
<g id="edge6" class="edge">
<title>Node2&#45;&gt;Node7</title>
<path fill="none" stroke="midnightblue" d="M408.79,-230.61C383.11,-220 353.09,-207.6 328.64,-197.51"/>
<polygon fill="midnightblue" stroke="midnightblue" points="407.46,-233.85 418.03,-234.43 410.13,-227.38 407.46,-233.85"/>
</g>
<!-- Node8 -->
<g id="node8" class="node">
<title>Node8</title>
<g id="a_node8"><a xlink:href="_spring_8hpp.html" target="_top" xlink:title=" ">
<polygon fill="none" stroke="black" points="380.92,-156.5 380.92,-197.5 543.92,-197.5 543.92,-156.5 380.92,-156.5"/>
<text text-anchor="start" x="388.92" y="-185.5" font-family="Helvetica,sans-Serif" font-size="10.00">/home/runner/work/Simulatio</text>
<text text-anchor="start" x="388.92" y="-174.5" font-family="Helvetica,sans-Serif" font-size="10.00">/Simulatio/include/Constraints</text>
<text text-anchor="middle" x="462.42" y="-163.5" font-family="Helvetica,sans-Serif" font-size="10.00">/Spring.hpp</text>
</a>
</g>
</g>
<!-- Node2&#45;&gt;Node8 -->
<g id="edge8" class="edge">
<title>Node2&#45;&gt;Node8</title>
<path fill="none" stroke="midnightblue" d="M464.25,-224.3C463.89,-215.3 463.51,-205.65 463.19,-197.51"/>
<polygon fill="midnightblue" stroke="midnightblue" points="460.75,-224.57 464.65,-234.43 467.75,-224.3 460.75,-224.57"/>
</g>
<!-- Node3&#45;&gt;Node4 -->
<g id="edge3" class="edge">
<title>Node3&#45;&gt;Node4</title>
<path fill="none" stroke="midnightblue" d="M192.28,-155.79C369.35,-127.93 566.96,-112.16 674.25,-104.88"/>
<polygon fill="midnightblue" stroke="midnightblue" points="191.58,-152.35 182.26,-157.38 192.68,-159.27 191.58,-152.35"/>
</g>
<!-- Node5 -->
<g id="node5" class="node">
<title>Node5</title>
<g id="a_node5"><a xlink:href="_renderer_8hpp.html" target="_top" xlink:title=" ">
<polygon fill="none" stroke="black" points="674.42,-0.5 674.42,-41.5 832.42,-41.5 832.42,-0.5 674.42,-0.5"/>
<text text-anchor="start" x="682.42" y="-29.5" font-family="Helvetica,sans-Serif" font-size="10.00">/home/runner/work/Simulatio</text>
<text text-anchor="start" x="682.42" y="-18.5" font-family="Helvetica,sans-Serif" font-size="10.00">/Simulatio/include/Renderer</text>
<text text-anchor="middle" x="753.42" y="-7.5" font-family="Helvetica,sans-Serif" font-size="10.00">/Renderer.hpp</text>
</a>
</g>
</g>
<!-- Node4&#45;&gt;Node5 -->
<g id="edge4" class="edge">
<title>Node4&#45;&gt;Node5</title>
<path fill="none" stroke="midnightblue" d="M753.42,-68.3C753.42,-59.3 753.42,-49.65 753.42,-41.51"/>
<polygon fill="midnightblue" stroke="midnightblue" points="749.92,-68.43 753.42,-78.43 756.92,-68.43 749.92,-68.43"/>
</g>
<!-- Node7&#45;&gt;Node4 -->
<g id="edge7" class="edge">
<title>Node7&#45;&gt;Node4</title>
<path fill="none" stroke="midnightblue" d="M373.17,-155.73C482.63,-135.84 598.94,-119.69 674.13,-109.9"/>
<polygon fill="midnightblue" stroke="midnightblue" points="372.49,-152.3 363.28,-157.54 373.75,-159.18 372.49,-152.3"/>
</g>
<!-- Node8&#45;&gt;Node4 -->
<g id="edge9" class="edge">
<title>Node8&#45;&gt;Node4</title>
<path fill="none" stroke="midnightblue" d="M547.21,-153.86C588.84,-142.98 638.55,-130 678.73,-119.51"/>
<polygon fill="midnightblue" stroke="midnightblue" points="546.15,-150.51 537.36,-156.43 547.92,-157.29 546.15,-150.51"/>
</g>
<!-- Node9&#45;&gt;Node2 -->
<g id="edge12" class="edge">
<title>Node9&#45;&gt;Node2</title>
<path fill="none" stroke="midnightblue" d="M809.22,-388.71C772.66,-379.22 730.15,-367.2 692.42,-354 625.77,-330.69 551.04,-296.87 506.14,-275.67"/>
<polygon fill="midnightblue" stroke="midnightblue" points="808.8,-392.21 819.36,-391.31 810.55,-385.43 808.8,-392.21"/>
</g>
<!-- Node9&#45;&gt;Node4 -->
<g id="edge28" class="edge">
<title>Node9&#45;&gt;Node4</title>
<path fill="none" stroke="midnightblue" d="M837.5,-385.47C823.79,-377.33 810.6,-366.95 801.42,-354 774.48,-316.02 759.68,-172.74 755.03,-119.81"/>
<polygon fill="midnightblue" stroke="midnightblue" points="836.1,-388.7 846.54,-390.5 839.5,-382.58 836.1,-388.7"/>
</g>
<!-- Node9&#45;&gt;Node10 -->
<g id="edge13" class="edge">
<title>Node9&#45;&gt;Node10</title>
<path fill="none" stroke="midnightblue" d="M891.81,-380.3C891.49,-371.3 891.7,-361.65 892.44,-353.51"/>
<polygon fill="midnightblue" stroke="midnightblue" points="888.33,-380.66 892.43,-390.43 895.32,-380.23 888.33,-380.66"/>
</g>
<!-- Node9&#45;&gt;Node11 -->
<g id="edge24" class="edge">
<title>Node9&#45;&gt;Node11</title>
<path fill="none" stroke="midnightblue" d="M810.29,-387.23C786.22,-378.85 760.88,-367.91 739.42,-354 722.2,-342.84 685.06,-301.14 663.29,-275.87"/>
<polygon fill="midnightblue" stroke="midnightblue" points="809.2,-390.55 819.8,-390.43 811.44,-383.92 809.2,-390.55"/>
</g>
<!-- Node9&#45;&gt;Node12 -->
<g id="edge25" class="edge">
<title>Node9&#45;&gt;Node12</title>
<path fill="none" stroke="midnightblue" d="M955.92,-385.13C968.12,-377.04 979.41,-366.77 986.42,-354 999.86,-329.51 991.32,-296.47 983.34,-275.71"/>
<polygon fill="midnightblue" stroke="midnightblue" points="954.07,-382.16 947.38,-390.38 957.73,-388.12 954.07,-382.16"/>
</g>
<!-- Node9&#45;&gt;Node13 -->
<g id="edge26" class="edge">
<title>Node9&#45;&gt;Node13</title>
<path fill="none" stroke="midnightblue" d="M946.76,-385.83C965.06,-376.32 985.93,-365.05 1004.42,-354 1046.87,-328.63 1094.06,-296.13 1122.99,-275.68"/>
<polygon fill="midnightblue" stroke="midnightblue" points="945.01,-382.79 937.73,-390.48 948.22,-389.01 945.01,-382.79"/>
</g>
<!-- Node9&#45;&gt;Node14 -->
<g id="edge27" class="edge">
<title>Node9&#45;&gt;Node14</title>
<path fill="none" stroke="midnightblue" d="M840.91,-385.13C828.72,-377.04 817.43,-366.77 810.42,-354 801.44,-337.64 803.87,-329.48 810.42,-312 829.02,-262.36 876.48,-220.75 907.55,-197.64"/>
<polygon fill="midnightblue" stroke="midnightblue" points="839.1,-388.12 849.46,-390.38 842.77,-382.16 839.1,-388.12"/>
</g>
<!-- Node10&#45;&gt;Node2 -->
<g id="edge14" class="edge">
<title>Node10&#45;&gt;Node2</title>
<path fill="none" stroke="midnightblue" d="M809.3,-318.53C740.59,-307.86 643.29,-292.11 558.42,-276 554.69,-275.29 550.88,-274.55 547.03,-273.78"/>
<polygon fill="midnightblue" stroke="midnightblue" points="808.8,-322 819.22,-320.07 809.87,-315.08 808.8,-322"/>
</g>
<!-- Node10&#45;&gt;Node4 -->
<g id="edge23" class="edge">
<title>Node10&#45;&gt;Node4</title>
<path fill="none" stroke="midnightblue" d="M885.89,-302.86C869.76,-266.81 839.7,-204.3 805.42,-156 796.2,-143.02 784.2,-129.9 774.05,-119.63"/>
<polygon fill="midnightblue" stroke="midnightblue" points="882.82,-304.56 890.06,-312.29 889.22,-301.73 882.82,-304.56"/>
</g>
<!-- Node10&#45;&gt;Node9 -->
<g id="edge15" class="edge">
<title>Node10&#45;&gt;Node9</title>
<path fill="none" stroke="midnightblue" d="M905.02,-363.63C905.34,-372.62 905.14,-382.27 904.41,-390.43"/>
<polygon fill="midnightblue" stroke="midnightblue" points="908.51,-363.27 904.4,-353.51 901.52,-363.7 908.51,-363.27"/>
</g>
<!-- Node10&#45;&gt;Node11 -->
<g id="edge16" class="edge">
<title>Node10&#45;&gt;Node11</title>
<path fill="none" stroke="midnightblue" d="M823.62,-309.44C787.85,-298.66 745.45,-285.87 711.1,-275.51"/>
<polygon fill="midnightblue" stroke="midnightblue" points="822.94,-312.89 833.52,-312.43 824.96,-306.19 822.94,-312.89"/>
</g>
<!-- Node10&#45;&gt;Node12 -->
<g id="edge18" class="edge">
<title>Node10&#45;&gt;Node12</title>
<path fill="none" stroke="midnightblue" d="M925.21,-305.2C935,-295.42 945.88,-284.54 954.91,-275.51"/>
<polygon fill="midnightblue" stroke="midnightblue" points="922.59,-302.88 917.99,-312.43 927.54,-307.83 922.59,-302.88"/>
</g>
<!-- Node10&#45;&gt;Node13 -->
<g id="edge19" class="edge">
<title>Node10&#45;&gt;Node13</title>
<path fill="none" stroke="midnightblue" d="M973.22,-309.44C1008.98,-298.66 1051.39,-285.87 1085.74,-275.51"/>
<polygon fill="midnightblue" stroke="midnightblue" points="971.88,-306.19 963.32,-312.43 973.9,-312.89 971.88,-306.19"/>
</g>
<!-- Node10&#45;&gt;Node14 -->
<g id="edge22" class="edge">
<title>Node10&#45;&gt;Node14</title>
<path fill="none" stroke="midnightblue" d="M887.64,-302.43C882.08,-282.5 878.04,-255.96 886.42,-234 891.76,-220 902.39,-207.27 912.49,-197.51"/>
<polygon fill="midnightblue" stroke="midnightblue" points="884.35,-303.64 890.62,-312.18 891.04,-301.6 884.35,-303.64"/>
</g>
<!-- Node11&#45;&gt;Node4 -->
<g id="edge17" class="edge">
<title>Node11&#45;&gt;Node4</title>
<path fill="none" stroke="midnightblue" d="M700.07,-228.9C712.69,-220.69 724.93,-210.41 733.42,-198 749.5,-174.5 753.19,-140.89 753.76,-119.77"/>
<polygon fill="midnightblue" stroke="midnightblue" points="698.01,-226.06 691.3,-234.26 701.66,-232.03 698.01,-226.06"/>
</g>
<!-- Node13&#45;&gt;Node14 -->
<g id="edge20" class="edge">
<title>Node13&#45;&gt;Node14</title>
<path fill="none" stroke="midnightblue" d="M1085.73,-231.03C1055.6,-220.33 1020.14,-207.73 991.34,-197.51"/>
<polygon fill="midnightblue" stroke="midnightblue" points="1084.71,-234.38 1095.31,-234.43 1087.06,-227.78 1084.71,-234.38"/>
</g>
<!-- Node14&#45;&gt;Node4 -->
<g id="edge21" class="edge">
<title>Node14&#45;&gt;Node4</title>
<path fill="none" stroke="midnightblue" d="M879.76,-152.47C854.29,-141.89 824.59,-129.56 800.39,-119.51"/>
<polygon fill="midnightblue" stroke="midnightblue" points="878.71,-155.82 889.29,-156.43 881.4,-149.36 878.71,-155.82"/>
</g>
</g>
</svg>
