<?xml version="1.0" encoding="UTF-8" standalone="no"?>
<!DOCTYPE svg PUBLIC "-//W3C//DTD SVG 1.1//EN"
 "http://www.w3.org/Graphics/SVG/1.1/DTD/svg11.dtd">
<!-- Generated by graphviz version 2.43.0 (0)
 -->
<!-- Title: /home/runner/work/Simulatio/Simulatio/include/Corpses/Corpse.hpp Pages: 1 -->
<svg width="1948pt" height="596pt"
 viewBox="0.00 0.00 1947.50 596.00" xmlns="http://www.w3.org/2000/svg" xmlns:xlink="http://www.w3.org/1999/xlink">
<g id="graph0" class="graph" transform="scale(1 1) rotate(0) translate(4 592)">
<title>/home/runner/work/Simulatio/Simulatio/include/Corpses/Corpse.hpp</title>
<!-- Node1 -->
<g id="node1" class="node">
<title>Node1</title>
<g id="a_node1"><a xlink:title=" ">
<polygon fill="#bfbfbf" stroke="black" points="1228.5,-546.5 1228.5,-587.5 1386.5,-587.5 1386.5,-546.5 1228.5,-546.5"/>
<text text-anchor="start" x="1236.5" y="-575.5" font-family="Helvetica,sans-Serif" font-size="10.00">/home/runner/work/Simulatio</text>
<text text-anchor="start" x="1236.5" y="-564.5" font-family="Helvetica,sans-Serif" font-size="10.00">/Simulatio/include/Corpses</text>
<text text-anchor="middle" x="1307.5" y="-553.5" font-family="Helvetica,sans-Serif" font-size="10.00">/Corpse.hpp</text>
</a>
</g>
</g>
<!-- Node2 -->
<g id="node2" class="node">
<title>Node2</title>
<g id="a_node2"><a xlink:href="_constraint_8hpp.html" target="_top" xlink:title=" ">
<polygon fill="none" stroke="black" points="720,-312.5 720,-353.5 883,-353.5 883,-312.5 720,-312.5"/>
<text text-anchor="start" x="728" y="-341.5" font-family="Helvetica,sans-Serif" font-size="10.00">/home/runner/work/Simulatio</text>
<text text-anchor="start" x="728" y="-330.5" font-family="Helvetica,sans-Serif" font-size="10.00">/Simulatio/include/Constraints</text>
<text text-anchor="middle" x="801.5" y="-319.5" font-family="Helvetica,sans-Serif" font-size="10.00">/Constraint.hpp</text>
</a>
</g>
</g>
<!-- Node1&#45;&gt;Node2 -->
<g id="edge1" class="edge">
<title>Node1&#45;&gt;Node2</title>
<path fill="none" stroke="midnightblue" d="M1217.85,-563.07C1113.18,-558.07 947.94,-544.78 897.5,-510 842.05,-471.77 815.58,-390.78 805.96,-353.51"/>
<polygon fill="midnightblue" stroke="midnightblue" points="1217.95,-566.58 1228.1,-563.54 1218.27,-559.59 1217.95,-566.58"/>
</g>
<!-- Node4 -->
<g id="node4" class="node">
<title>Node4</title>
<g id="a_node4"><a xlink:href="_system_8hpp.html" target="_top" xlink:title=" ">
<polygon fill="none" stroke="black" points="884.5,-156.5 884.5,-197.5 1042.5,-197.5 1042.5,-156.5 884.5,-156.5"/>
<text text-anchor="start" x="892.5" y="-185.5" font-family="Helvetica,sans-Serif" font-size="10.00">/home/runner/work/Simulatio</text>
<text text-anchor="start" x="892.5" y="-174.5" font-family="Helvetica,sans-Serif" font-size="10.00">/Simulatio/include/Structures</text>
<text text-anchor="middle" x="963.5" y="-163.5" font-family="Helvetica,sans-Serif" font-size="10.00">/System.hpp</text>
</a>
</g>
</g>
<!-- Node1&#45;&gt;Node4 -->
<g id="edge50" class="edge">
<title>Node1&#45;&gt;Node4</title>
<path fill="none" stroke="midnightblue" d="M1218.49,-553.53C1179.15,-545.28 1133.53,-531.81 1096.5,-510 1055.06,-485.6 1047.08,-472.72 1021.5,-432 982.15,-369.36 976.6,-348.8 963.5,-276 958.68,-249.21 959.89,-217.62 961.47,-197.7"/>
<polygon fill="midnightblue" stroke="midnightblue" points="1217.85,-556.97 1228.35,-555.51 1219.24,-550.11 1217.85,-556.97"/>
</g>
<!-- Node20 -->
<g id="node20" class="node">
<title>Node20</title>
<g id="a_node20"><a xlink:href="_circle_8hpp.html" target="_top" xlink:title=" ">
<polygon fill="none" stroke="black" points="1228.5,-468.5 1228.5,-509.5 1386.5,-509.5 1386.5,-468.5 1228.5,-468.5"/>
<text text-anchor="start" x="1236.5" y="-497.5" font-family="Helvetica,sans-Serif" font-size="10.00">/home/runner/work/Simulatio</text>
<text text-anchor="start" x="1236.5" y="-486.5" font-family="Helvetica,sans-Serif" font-size="10.00">/Simulatio/include/Corpses</text>
<text text-anchor="middle" x="1307.5" y="-475.5" font-family="Helvetica,sans-Serif" font-size="10.00">/Circle.hpp</text>
</a>
</g>
</g>
<!-- Node1&#45;&gt;Node20 -->
<g id="edge22" class="edge">
<title>Node1&#45;&gt;Node20</title>
<path fill="none" stroke="midnightblue" d="M1307.5,-536.3C1307.5,-527.3 1307.5,-517.65 1307.5,-509.51"/>
<polygon fill="midnightblue" stroke="midnightblue" points="1304,-536.43 1307.5,-546.43 1311,-536.43 1304,-536.43"/>
</g>
<!-- Node21 -->
<g id="node21" class="node">
<title>Node21</title>
<g id="a_node21"><a xlink:href="_polygon_8hpp.html" target="_top" xlink:title=" ">
<polygon fill="none" stroke="black" points="1083.5,-390.5 1083.5,-431.5 1241.5,-431.5 1241.5,-390.5 1083.5,-390.5"/>
<text text-anchor="start" x="1091.5" y="-419.5" font-family="Helvetica,sans-Serif" font-size="10.00">/home/runner/work/Simulatio</text>
<text text-anchor="start" x="1091.5" y="-408.5" font-family="Helvetica,sans-Serif" font-size="10.00">/Simulatio/include/Corpses</text>
<text text-anchor="middle" x="1162.5" y="-397.5" font-family="Helvetica,sans-Serif" font-size="10.00">/Polygon.hpp</text>
</a>
</g>
</g>
<!-- Node1&#45;&gt;Node21 -->
<g id="edge45" class="edge">
<title>Node1&#45;&gt;Node21</title>
<path fill="none" stroke="midnightblue" d="M1259.6,-541.27C1245.63,-532.61 1231.03,-522 1219.5,-510 1197.14,-486.72 1180.03,-453.05 1170.63,-431.85"/>
<polygon fill="midnightblue" stroke="midnightblue" points="1257.81,-544.27 1268.19,-546.4 1261.41,-538.27 1257.81,-544.27"/>
</g>
<!-- Node22 -->
<g id="node22" class="node">
<title>Node22</title>
<g id="a_node22"><a xlink:href="_collision_8hpp.html" target="_top" xlink:title=" ">
<polygon fill="none" stroke="black" points="1511.5,-312.5 1511.5,-353.5 1669.5,-353.5 1669.5,-312.5 1511.5,-312.5"/>
<text text-anchor="start" x="1519.5" y="-341.5" font-family="Helvetica,sans-Serif" font-size="10.00">/home/runner/work/Simulatio</text>
<text text-anchor="start" x="1519.5" y="-330.5" font-family="Helvetica,sans-Serif" font-size="10.00">/Simulatio/include/Geometry</text>
<text text-anchor="middle" x="1590.5" y="-319.5" font-family="Helvetica,sans-Serif" font-size="10.00">/Collision.hpp</text>
</a>
</g>
</g>
<!-- Node1&#45;&gt;Node22 -->
<g id="edge46" class="edge">
<title>Node1&#45;&gt;Node22</title>
<path fill="none" stroke="midnightblue" d="M1396.35,-550.68C1429.83,-542.2 1467.13,-529.32 1497.5,-510 1536.55,-485.16 1545.04,-473.01 1566.5,-432 1579.66,-406.86 1585.77,-374.29 1588.49,-353.77"/>
<polygon fill="midnightblue" stroke="midnightblue" points="1395.44,-547.3 1386.56,-553.07 1397.1,-554.1 1395.44,-547.3"/>
</g>
<!-- Node24 -->
<g id="node24" class="node">
<title>Node24</title>
<g id="a_node24"><a xlink:href="_old_quadtree_8hpp.html" target="_top" xlink:title=" ">
<polygon fill="none" stroke="black" points="1687.5,-312.5 1687.5,-353.5 1845.5,-353.5 1845.5,-312.5 1687.5,-312.5"/>
<text text-anchor="start" x="1695.5" y="-341.5" font-family="Helvetica,sans-Serif" font-size="10.00">/home/runner/work/Simulatio</text>
<text text-anchor="start" x="1695.5" y="-330.5" font-family="Helvetica,sans-Serif" font-size="10.00">/Simulatio/include/Structures</text>
<text text-anchor="middle" x="1766.5" y="-319.5" font-family="Helvetica,sans-Serif" font-size="10.00">/OldQuadtree.hpp</text>
</a>
</g>
</g>
<!-- Node1&#45;&gt;Node24 -->
<g id="edge47" class="edge">
<title>Node1&#45;&gt;Node24</title>
<path fill="none" stroke="midnightblue" d="M1396.53,-552.73C1439.62,-544.16 1491.26,-530.65 1534.5,-510 1622.1,-468.18 1708.8,-390.09 1746.67,-353.66"/>
<polygon fill="midnightblue" stroke="midnightblue" points="1395.78,-549.31 1386.63,-554.64 1397.11,-556.18 1395.78,-549.31"/>
</g>
<!-- Node26 -->
<g id="node26" class="node">
<title>Node26</title>
<g id="a_node26"><a xlink:href="_quad_node_8hpp.html" target="_top" xlink:title=" ">
<polygon fill="none" stroke="black" points="1335.5,-312.5 1335.5,-353.5 1493.5,-353.5 1493.5,-312.5 1335.5,-312.5"/>
<text text-anchor="start" x="1343.5" y="-341.5" font-family="Helvetica,sans-Serif" font-size="10.00">/home/runner/work/Simulatio</text>
<text text-anchor="start" x="1343.5" y="-330.5" font-family="Helvetica,sans-Serif" font-size="10.00">/Simulatio/include/Structures</text>
<text text-anchor="middle" x="1414.5" y="-319.5" font-family="Helvetica,sans-Serif" font-size="10.00">/QuadNode.hpp</text>
</a>
</g>
</g>
<!-- Node1&#45;&gt;Node26 -->
<g id="edge48" class="edge">
<title>Node1&#45;&gt;Node26</title>
<path fill="none" stroke="midnightblue" d="M1386.42,-542.98C1439.41,-522.96 1505.24,-488.13 1537.5,-432 1546.8,-415.82 1547.6,-405.7 1537.5,-390 1526.9,-373.52 1510.13,-361.84 1492.34,-353.57"/>
<polygon fill="midnightblue" stroke="midnightblue" points="1385.2,-539.7 1377.02,-546.43 1387.61,-546.27 1385.2,-539.7"/>
</g>
<!-- Node27 -->
<g id="node27" class="node">
<title>Node27</title>
<g id="a_node27"><a xlink:href="_quadtree_8hpp.html" target="_top" xlink:title=" ">
<polygon fill="none" stroke="black" points="1121.5,-234.5 1121.5,-275.5 1279.5,-275.5 1279.5,-234.5 1121.5,-234.5"/>
<text text-anchor="start" x="1129.5" y="-263.5" font-family="Helvetica,sans-Serif" font-size="10.00">/home/runner/work/Simulatio</text>
<text text-anchor="start" x="1129.5" y="-252.5" font-family="Helvetica,sans-Serif" font-size="10.00">/Simulatio/include/Structures</text>
<text text-anchor="middle" x="1200.5" y="-241.5" font-family="Helvetica,sans-Serif" font-size="10.00">/Quadtree.hpp</text>
</a>
</g>
</g>
<!-- Node1&#45;&gt;Node27 -->
<g id="edge49" class="edge">
<title>Node1&#45;&gt;Node27</title>
<path fill="none" stroke="midnightblue" d="M1236.39,-542.86C1159.77,-513.28 1043.81,-453.59 1006.5,-354 999.95,-336.52 995.28,-326.92 1006.5,-312 1020.75,-293.05 1074.09,-278.5 1121.24,-268.98"/>
<polygon fill="midnightblue" stroke="midnightblue" points="1235.4,-546.23 1245.99,-546.49 1237.87,-539.68 1235.4,-546.23"/>
</g>
<!-- Node31 -->
<g id="node31" class="node">
<title>Node31</title>
<g id="a_node31"><a xlink:href="_corpse_8cpp.html" target="_top" xlink:title=" ">
<polygon fill="none" stroke="black" points="1757.5,-474 1757.5,-504 1939.5,-504 1939.5,-474 1757.5,-474"/>
<text text-anchor="start" x="1765.5" y="-492" font-family="Helvetica,sans-Serif" font-size="10.00">/home/runner/work/Simulatio</text>
<text text-anchor="middle" x="1848.5" y="-481" font-family="Helvetica,sans-Serif" font-size="10.00">/Simulatio/src/Corpses/Corpse.cpp</text>
</a>
</g>
</g>
<!-- Node1&#45;&gt;Node31 -->
<g id="edge51" class="edge">
<title>Node1&#45;&gt;Node31</title>
<path fill="none" stroke="midnightblue" d="M1396.85,-556.13C1485.14,-545.99 1623.94,-529.05 1743.5,-510 1754.68,-508.22 1766.49,-506.15 1778,-504.03"/>
<polygon fill="midnightblue" stroke="midnightblue" points="1396.41,-552.65 1386.87,-557.27 1397.2,-559.61 1396.41,-552.65"/>
</g>
<!-- Node3 -->
<g id="node3" class="node">
<title>Node3</title>
<g id="a_node3"><a xlink:href="_link_8hpp.html" target="_top" xlink:title=" ">
<polygon fill="none" stroke="black" points="181,-234.5 181,-275.5 344,-275.5 344,-234.5 181,-234.5"/>
<text text-anchor="start" x="189" y="-263.5" font-family="Helvetica,sans-Serif" font-size="10.00">/home/runner/work/Simulatio</text>
<text text-anchor="start" x="189" y="-252.5" font-family="Helvetica,sans-Serif" font-size="10.00">/Simulatio/include/Constraints</text>
<text text-anchor="middle" x="262.5" y="-241.5" font-family="Helvetica,sans-Serif" font-size="10.00">/Link.hpp</text>
</a>
</g>
</g>
<!-- Node2&#45;&gt;Node3 -->
<g id="edge2" class="edge">
<title>Node2&#45;&gt;Node3</title>
<path fill="none" stroke="midnightblue" d="M709.84,-323.04C619.03,-313.57 476.17,-297.1 353.5,-276 350.47,-275.48 347.39,-274.93 344.28,-274.35"/>
<polygon fill="midnightblue" stroke="midnightblue" points="709.52,-326.52 719.83,-324.07 710.24,-319.56 709.52,-326.52"/>
</g>
<!-- Node2&#45;&gt;Node4 -->
<g id="edge20" class="edge">
<title>Node2&#45;&gt;Node4</title>
<path fill="none" stroke="midnightblue" d="M849.54,-307.23C864.19,-298.46 879.77,-287.8 892.5,-276 917.76,-252.57 939.8,-218.94 952.37,-197.8"/>
<polygon fill="midnightblue" stroke="midnightblue" points="847.46,-304.39 840.57,-312.44 850.98,-310.44 847.46,-304.39"/>
</g>
<!-- Node13 -->
<g id="node13" class="node">
<title>Node13</title>
<g id="a_node13"><a xlink:href="_loose_8hpp.html" target="_top" xlink:title=" ">
<polygon fill="none" stroke="black" points="0,-234.5 0,-275.5 163,-275.5 163,-234.5 0,-234.5"/>
<text text-anchor="start" x="8" y="-263.5" font-family="Helvetica,sans-Serif" font-size="10.00">/home/runner/work/Simulatio</text>
<text text-anchor="start" x="8" y="-252.5" font-family="Helvetica,sans-Serif" font-size="10.00">/Simulatio/include/Constraints</text>
<text text-anchor="middle" x="81.5" y="-241.5" font-family="Helvetica,sans-Serif" font-size="10.00">/Loose.hpp</text>
</a>
</g>
</g>
<!-- Node2&#45;&gt;Node13 -->
<g id="edge12" class="edge">
<title>Node2&#45;&gt;Node13</title>
<path fill="none" stroke="midnightblue" d="M709.65,-327.59C586.58,-320.82 361.61,-305.45 171.5,-276 168.81,-275.58 166.08,-275.13 163.33,-274.66"/>
<polygon fill="midnightblue" stroke="midnightblue" points="709.61,-331.09 719.79,-328.14 709.99,-324.1 709.61,-331.09"/>
</g>
<!-- Node15 -->
<g id="node15" class="node">
<title>Node15</title>
<g id="a_node15"><a xlink:href="_slider_8hpp.html" target="_top" xlink:title=" ">
<polygon fill="none" stroke="black" points="362,-234.5 362,-275.5 525,-275.5 525,-234.5 362,-234.5"/>
<text text-anchor="start" x="370" y="-263.5" font-family="Helvetica,sans-Serif" font-size="10.00">/home/runner/work/Simulatio</text>
<text text-anchor="start" x="370" y="-252.5" font-family="Helvetica,sans-Serif" font-size="10.00">/Simulatio/include/Constraints</text>
<text text-anchor="middle" x="443.5" y="-241.5" font-family="Helvetica,sans-Serif" font-size="10.00">/Slider.hpp</text>
</a>
</g>
</g>
<!-- Node2&#45;&gt;Node15 -->
<g id="edge14" class="edge">
<title>Node2&#45;&gt;Node15</title>
<path fill="none" stroke="midnightblue" d="M710.16,-313.07C658.57,-302.32 592.9,-288.54 534.5,-276 531.5,-275.35 528.44,-274.7 525.34,-274.03"/>
<polygon fill="midnightblue" stroke="midnightblue" points="709.45,-316.5 719.95,-315.11 710.88,-309.64 709.45,-316.5"/>
</g>
<!-- Node17 -->
<g id="node17" class="node">
<title>Node17</title>
<g id="a_node17"><a xlink:href="_spring_8hpp.html" target="_top" xlink:title=" ">
<polygon fill="none" stroke="black" points="720,-234.5 720,-275.5 883,-275.5 883,-234.5 720,-234.5"/>
<text text-anchor="start" x="728" y="-263.5" font-family="Helvetica,sans-Serif" font-size="10.00">/home/runner/work/Simulatio</text>
<text text-anchor="start" x="728" y="-252.5" font-family="Helvetica,sans-Serif" font-size="10.00">/Simulatio/include/Constraints</text>
<text text-anchor="middle" x="801.5" y="-241.5" font-family="Helvetica,sans-Serif" font-size="10.00">/Spring.hpp</text>
</a>
</g>
</g>
<!-- Node2&#45;&gt;Node17 -->
<g id="edge17" class="edge">
<title>Node2&#45;&gt;Node17</title>
<path fill="none" stroke="midnightblue" d="M801.5,-302.3C801.5,-293.3 801.5,-283.65 801.5,-275.51"/>
<polygon fill="midnightblue" stroke="midnightblue" points="798,-302.43 801.5,-312.43 805,-302.43 798,-302.43"/>
</g>
<!-- Node19 -->
<g id="node19" class="node">
<title>Node19</title>
<g id="a_node19"><a xlink:href="_constraint_8cpp.html" target="_top" xlink:title=" ">
<polygon fill="none" stroke="black" points="543.5,-234.5 543.5,-275.5 701.5,-275.5 701.5,-234.5 543.5,-234.5"/>
<text text-anchor="start" x="551.5" y="-263.5" font-family="Helvetica,sans-Serif" font-size="10.00">/home/runner/work/Simulatio</text>
<text text-anchor="start" x="551.5" y="-252.5" font-family="Helvetica,sans-Serif" font-size="10.00">/Simulatio/src/Constraints</text>
<text text-anchor="middle" x="622.5" y="-241.5" font-family="Helvetica,sans-Serif" font-size="10.00">/Constraint.cpp</text>
</a>
</g>
</g>
<!-- Node2&#45;&gt;Node19 -->
<g id="edge21" class="edge">
<title>Node2&#45;&gt;Node19</title>
<path fill="none" stroke="midnightblue" d="M746.08,-308.47C721.17,-297.89 692.12,-285.56 668.44,-275.51"/>
<polygon fill="midnightblue" stroke="midnightblue" points="744.83,-311.74 755.4,-312.43 747.57,-305.3 744.83,-311.74"/>
</g>
<!-- Node3&#45;&gt;Node4 -->
<g id="edge3" class="edge">
<title>Node3&#45;&gt;Node4</title>
<path fill="none" stroke="midnightblue" d="M354.31,-234.01C585.47,-201.81 648.69,-231.39 875.5,-198 878.45,-197.57 881.44,-197.09 884.45,-196.57"/>
<polygon fill="midnightblue" stroke="midnightblue" points="353.66,-230.57 344.25,-235.44 354.64,-237.5 353.66,-230.57"/>
</g>
<!-- Node12 -->
<g id="node12" class="node">
<title>Node12</title>
<g id="a_node12"><a xlink:href="_link_8cpp.html" target="_top" xlink:title=" ">
<polygon fill="none" stroke="black" points="183.5,-156.5 183.5,-197.5 341.5,-197.5 341.5,-156.5 183.5,-156.5"/>
<text text-anchor="start" x="191.5" y="-185.5" font-family="Helvetica,sans-Serif" font-size="10.00">/home/runner/work/Simulatio</text>
<text text-anchor="start" x="191.5" y="-174.5" font-family="Helvetica,sans-Serif" font-size="10.00">/Simulatio/src/Constraints</text>
<text text-anchor="middle" x="262.5" y="-163.5" font-family="Helvetica,sans-Serif" font-size="10.00">/Link.cpp</text>
</a>
</g>
</g>
<!-- Node3&#45;&gt;Node12 -->
<g id="edge11" class="edge">
<title>Node3&#45;&gt;Node12</title>
<path fill="none" stroke="midnightblue" d="M262.5,-224.3C262.5,-215.3 262.5,-205.65 262.5,-197.51"/>
<polygon fill="midnightblue" stroke="midnightblue" points="259,-224.43 262.5,-234.43 266,-224.43 259,-224.43"/>
</g>
<!-- Node5 -->
<g id="node5" class="node">
<title>Node5</title>
<g id="a_node5"><a xlink:href="_renderer_8hpp.html" target="_top" xlink:title=" ">
<polygon fill="none" stroke="black" points="796.5,-78.5 796.5,-119.5 954.5,-119.5 954.5,-78.5 796.5,-78.5"/>
<text text-anchor="start" x="804.5" y="-107.5" font-family="Helvetica,sans-Serif" font-size="10.00">/home/runner/work/Simulatio</text>
<text text-anchor="start" x="804.5" y="-96.5" font-family="Helvetica,sans-Serif" font-size="10.00">/Simulatio/include/Renderer</text>
<text text-anchor="middle" x="875.5" y="-85.5" font-family="Helvetica,sans-Serif" font-size="10.00">/Renderer.hpp</text>
</a>
</g>
</g>
<!-- Node4&#45;&gt;Node5 -->
<g id="edge4" class="edge">
<title>Node4&#45;&gt;Node5</title>
<path fill="none" stroke="midnightblue" d="M933.14,-149.78C921.63,-139.84 908.75,-128.72 898.09,-119.51"/>
<polygon fill="midnightblue" stroke="midnightblue" points="930.98,-152.54 940.84,-156.43 935.56,-147.24 930.98,-152.54"/>
</g>
<!-- Node11 -->
<g id="node11" class="node">
<title>Node11</title>
<g id="a_node11"><a xlink:href="_system_8cpp.html" target="_top" xlink:title=" ">
<polygon fill="none" stroke="black" points="972.5,-78.5 972.5,-119.5 1130.5,-119.5 1130.5,-78.5 972.5,-78.5"/>
<text text-anchor="start" x="980.5" y="-107.5" font-family="Helvetica,sans-Serif" font-size="10.00">/home/runner/work/Simulatio</text>
<text text-anchor="start" x="980.5" y="-96.5" font-family="Helvetica,sans-Serif" font-size="10.00">/Simulatio/src/Structures</text>
<text text-anchor="middle" x="1051.5" y="-85.5" font-family="Helvetica,sans-Serif" font-size="10.00">/System.cpp</text>
</a>
</g>
</g>
<!-- Node4&#45;&gt;Node11 -->
<g id="edge10" class="edge">
<title>Node4&#45;&gt;Node11</title>
<path fill="none" stroke="midnightblue" d="M993.86,-149.78C1005.37,-139.84 1018.25,-128.72 1028.91,-119.51"/>
<polygon fill="midnightblue" stroke="midnightblue" points="991.44,-147.24 986.16,-156.43 996.02,-152.54 991.44,-147.24"/>
</g>
<!-- Node6 -->
<g id="node6" class="node">
<title>Node6</title>
<g id="a_node6"><a xlink:href="_draw_8cpp.html" target="_top" xlink:title=" ">
<polygon fill="none" stroke="black" points="444.5,-0.5 444.5,-41.5 602.5,-41.5 602.5,-0.5 444.5,-0.5"/>
<text text-anchor="start" x="452.5" y="-29.5" font-family="Helvetica,sans-Serif" font-size="10.00">/home/runner/work/Simulatio</text>
<text text-anchor="start" x="452.5" y="-18.5" font-family="Helvetica,sans-Serif" font-size="10.00">/Simulatio/src/Renderer</text>
<text text-anchor="middle" x="523.5" y="-7.5" font-family="Helvetica,sans-Serif" font-size="10.00">/Draw.cpp</text>
</a>
</g>
</g>
<!-- Node5&#45;&gt;Node6 -->
<g id="edge5" class="edge">
<title>Node5&#45;&gt;Node6</title>
<path fill="none" stroke="midnightblue" d="M786.26,-79.41C735.08,-68.66 669.63,-54.77 611.5,-42 608.59,-41.36 605.63,-40.71 602.64,-40.04"/>
<polygon fill="midnightblue" stroke="midnightblue" points="785.8,-82.88 796.3,-81.51 787.24,-76.03 785.8,-82.88"/>
</g>
<!-- Node7 -->
<g id="node7" class="node">
<title>Node7</title>
<g id="a_node7"><a xlink:href="_event_8cpp.html" target="_top" xlink:title=" ">
<polygon fill="none" stroke="black" points="620.5,-0.5 620.5,-41.5 778.5,-41.5 778.5,-0.5 620.5,-0.5"/>
<text text-anchor="start" x="628.5" y="-29.5" font-family="Helvetica,sans-Serif" font-size="10.00">/home/runner/work/Simulatio</text>
<text text-anchor="start" x="628.5" y="-18.5" font-family="Helvetica,sans-Serif" font-size="10.00">/Simulatio/src/Renderer</text>
<text text-anchor="middle" x="699.5" y="-7.5" font-family="Helvetica,sans-Serif" font-size="10.00">/Event.cpp</text>
</a>
</g>
</g>
<!-- Node5&#45;&gt;Node7 -->
<g id="edge6" class="edge">
<title>Node5&#45;&gt;Node7</title>
<path fill="none" stroke="midnightblue" d="M820.68,-74.33C796.26,-63.78 767.85,-51.51 744.67,-41.51"/>
<polygon fill="midnightblue" stroke="midnightblue" points="819.61,-77.68 830.18,-78.43 822.38,-71.25 819.61,-77.68"/>
</g>
<!-- Node8 -->
<g id="node8" class="node">
<title>Node8</title>
<g id="a_node8"><a xlink:href="_gui_8cpp.html" target="_top" xlink:title=" ">
<polygon fill="none" stroke="black" points="796.5,-0.5 796.5,-41.5 954.5,-41.5 954.5,-0.5 796.5,-0.5"/>
<text text-anchor="start" x="804.5" y="-29.5" font-family="Helvetica,sans-Serif" font-size="10.00">/home/runner/work/Simulatio</text>
<text text-anchor="start" x="804.5" y="-18.5" font-family="Helvetica,sans-Serif" font-size="10.00">/Simulatio/src/Renderer</text>
<text text-anchor="middle" x="875.5" y="-7.5" font-family="Helvetica,sans-Serif" font-size="10.00">/Gui.cpp</text>
</a>
</g>
</g>
<!-- Node5&#45;&gt;Node8 -->
<g id="edge7" class="edge">
<title>Node5&#45;&gt;Node8</title>
<path fill="none" stroke="midnightblue" d="M875.5,-68.3C875.5,-59.3 875.5,-49.65 875.5,-41.51"/>
<polygon fill="midnightblue" stroke="midnightblue" points="872,-68.43 875.5,-78.43 879,-68.43 872,-68.43"/>
</g>
<!-- Node9 -->
<g id="node9" class="node">
<title>Node9</title>
<g id="a_node9"><a xlink:href="_renderer_8cpp.html" target="_top" xlink:title=" ">
<polygon fill="none" stroke="black" points="972.5,-0.5 972.5,-41.5 1130.5,-41.5 1130.5,-0.5 972.5,-0.5"/>
<text text-anchor="start" x="980.5" y="-29.5" font-family="Helvetica,sans-Serif" font-size="10.00">/home/runner/work/Simulatio</text>
<text text-anchor="start" x="980.5" y="-18.5" font-family="Helvetica,sans-Serif" font-size="10.00">/Simulatio/src/Renderer</text>
<text text-anchor="middle" x="1051.5" y="-7.5" font-family="Helvetica,sans-Serif" font-size="10.00">/Renderer.cpp</text>
</a>
</g>
</g>
<!-- Node5&#45;&gt;Node9 -->
<g id="edge8" class="edge">
<title>Node5&#45;&gt;Node9</title>
<path fill="none" stroke="midnightblue" d="M930.32,-74.33C954.74,-63.78 983.15,-51.51 1006.33,-41.51"/>
<polygon fill="midnightblue" stroke="midnightblue" points="928.62,-71.25 920.82,-78.43 931.39,-77.68 928.62,-71.25"/>
</g>
<!-- Node10 -->
<g id="node10" class="node">
<title>Node10</title>
<g id="a_node10"><a xlink:href="main_8cpp.html" target="_top" xlink:title=" ">
<polygon fill="none" stroke="black" points="1148,-6 1148,-36 1307,-36 1307,-6 1148,-6"/>
<text text-anchor="start" x="1156" y="-24" font-family="Helvetica,sans-Serif" font-size="10.00">/home/runner/work/Simulatio</text>
<text text-anchor="middle" x="1227.5" y="-13" font-family="Helvetica,sans-Serif" font-size="10.00">/Simulatio/src/main/main.cpp</text>
</a>
</g>
</g>
<!-- Node5&#45;&gt;Node10 -->
<g id="edge9" class="edge">
<title>Node5&#45;&gt;Node10</title>
<path fill="none" stroke="midnightblue" d="M964.52,-77.8C1043.19,-60.95 1064.5,-58.19 1139.5,-42 1148.23,-40.12 1157.43,-38.08 1166.47,-36.05"/>
<polygon fill="midnightblue" stroke="midnightblue" points="963.68,-74.4 954.64,-79.93 965.15,-81.25 963.68,-74.4"/>
</g>
<!-- Node14 -->
<g id="node14" class="node">
<title>Node14</title>
<g id="a_node14"><a xlink:href="_loose_8cpp.html" target="_top" xlink:title=" ">
<polygon fill="none" stroke="black" points="2.5,-156.5 2.5,-197.5 160.5,-197.5 160.5,-156.5 2.5,-156.5"/>
<text text-anchor="start" x="10.5" y="-185.5" font-family="Helvetica,sans-Serif" font-size="10.00">/home/runner/work/Simulatio</text>
<text text-anchor="start" x="10.5" y="-174.5" font-family="Helvetica,sans-Serif" font-size="10.00">/Simulatio/src/Constraints</text>
<text text-anchor="middle" x="81.5" y="-163.5" font-family="Helvetica,sans-Serif" font-size="10.00">/Loose.cpp</text>
</a>
</g>
</g>
<!-- Node13&#45;&gt;Node14 -->
<g id="edge13" class="edge">
<title>Node13&#45;&gt;Node14</title>
<path fill="none" stroke="midnightblue" d="M81.5,-224.3C81.5,-215.3 81.5,-205.65 81.5,-197.51"/>
<polygon fill="midnightblue" stroke="midnightblue" points="78,-224.43 81.5,-234.43 85,-224.43 78,-224.43"/>
</g>
<!-- Node15&#45;&gt;Node4 -->
<g id="edge15" class="edge">
<title>Node15&#45;&gt;Node4</title>
<path fill="none" stroke="midnightblue" d="M535.4,-233.96C686.71,-210.16 728.39,-222.4 875.5,-198 878.44,-197.51 881.42,-196.99 884.43,-196.43"/>
<polygon fill="midnightblue" stroke="midnightblue" points="534.59,-230.54 525.27,-235.58 535.7,-237.46 534.59,-230.54"/>
</g>
<!-- Node16 -->
<g id="node16" class="node">
<title>Node16</title>
<g id="a_node16"><a xlink:href="_slider_8cpp.html" target="_top" xlink:title=" ">
<polygon fill="none" stroke="black" points="364.5,-156.5 364.5,-197.5 522.5,-197.5 522.5,-156.5 364.5,-156.5"/>
<text text-anchor="start" x="372.5" y="-185.5" font-family="Helvetica,sans-Serif" font-size="10.00">/home/runner/work/Simulatio</text>
<text text-anchor="start" x="372.5" y="-174.5" font-family="Helvetica,sans-Serif" font-size="10.00">/Simulatio/src/Constraints</text>
<text text-anchor="middle" x="443.5" y="-163.5" font-family="Helvetica,sans-Serif" font-size="10.00">/Slider.cpp</text>
</a>
</g>
</g>
<!-- Node15&#45;&gt;Node16 -->
<g id="edge16" class="edge">
<title>Node15&#45;&gt;Node16</title>
<path fill="none" stroke="midnightblue" d="M443.5,-224.3C443.5,-215.3 443.5,-205.65 443.5,-197.51"/>
<polygon fill="midnightblue" stroke="midnightblue" points="440,-224.43 443.5,-234.43 447,-224.43 440,-224.43"/>
</g>
<!-- Node17&#45;&gt;Node4 -->
<g id="edge18" class="edge">
<title>Node17&#45;&gt;Node4</title>
<path fill="none" stroke="midnightblue" d="M852.55,-230.05C874.9,-219.57 900.78,-207.42 921.92,-197.51"/>
<polygon fill="midnightblue" stroke="midnightblue" points="850.79,-227.01 843.22,-234.43 853.76,-233.35 850.79,-227.01"/>
</g>
<!-- Node18 -->
<g id="node18" class="node">
<title>Node18</title>
<g id="a_node18"><a xlink:href="_spring_8cpp.html" target="_top" xlink:title=" ">
<polygon fill="none" stroke="black" points="708.5,-156.5 708.5,-197.5 866.5,-197.5 866.5,-156.5 708.5,-156.5"/>
<text text-anchor="start" x="716.5" y="-185.5" font-family="Helvetica,sans-Serif" font-size="10.00">/home/runner/work/Simulatio</text>
<text text-anchor="start" x="716.5" y="-174.5" font-family="Helvetica,sans-Serif" font-size="10.00">/Simulatio/src/Constraints</text>
<text text-anchor="middle" x="787.5" y="-163.5" font-family="Helvetica,sans-Serif" font-size="10.00">/Spring.cpp</text>
</a>
</g>
</g>
<!-- Node17&#45;&gt;Node18 -->
<g id="edge19" class="edge">
<title>Node17&#45;&gt;Node18</title>
<path fill="none" stroke="midnightblue" d="M796.08,-224.59C794.41,-215.51 792.61,-205.74 791.09,-197.51"/>
<polygon fill="midnightblue" stroke="midnightblue" points="792.64,-225.23 797.89,-234.43 799.53,-223.96 792.64,-225.23"/>
</g>
<!-- Node20&#45;&gt;Node2 -->
<g id="edge23" class="edge">
<title>Node20&#45;&gt;Node2</title>
<path fill="none" stroke="midnightblue" d="M1218.44,-468.99C1174.77,-459.06 1121.56,-446.06 1074.5,-432 995.13,-408.29 905.04,-374.59 850.78,-353.52"/>
<polygon fill="midnightblue" stroke="midnightblue" points="1217.94,-472.46 1228.47,-471.25 1219.48,-465.63 1217.94,-472.46"/>
</g>
<!-- Node20&#45;&gt;Node4 -->
<g id="edge43" class="edge">
<title>Node20&#45;&gt;Node4</title>
<path fill="none" stroke="midnightblue" d="M1309.65,-458.17C1313.29,-398.22 1317.67,-266.11 1288.5,-234 1256.4,-198.67 1128.23,-185.6 1042.76,-180.79"/>
<polygon fill="midnightblue" stroke="midnightblue" points="1306.15,-457.95 1309.01,-468.15 1313.14,-458.39 1306.15,-457.95"/>
</g>
<!-- Node20&#45;&gt;Node21 -->
<g id="edge24" class="edge">
<title>Node20&#45;&gt;Node21</title>
<path fill="none" stroke="midnightblue" d="M1255.2,-463.91C1234.61,-453.46 1211.68,-441.38 1193.73,-431.51"/>
<polygon fill="midnightblue" stroke="midnightblue" points="1253.67,-467.05 1264.17,-468.43 1256.82,-460.8 1253.67,-467.05"/>
</g>
<!-- Node20&#45;&gt;Node22 -->
<g id="edge39" class="edge">
<title>Node20&#45;&gt;Node22</title>
<path fill="none" stroke="midnightblue" d="M1396.59,-483.39C1442.63,-477.05 1497.4,-462.92 1537.5,-432 1563.23,-412.16 1578.02,-376.15 1585.14,-353.74"/>
<polygon fill="midnightblue" stroke="midnightblue" points="1396.08,-479.93 1386.6,-484.66 1396.97,-486.87 1396.08,-479.93"/>
</g>
<!-- Node20&#45;&gt;Node24 -->
<g id="edge40" class="edge">
<title>Node20&#45;&gt;Node24</title>
<path fill="none" stroke="midnightblue" d="M1396.72,-474.23C1447.34,-465.06 1511.4,-451.14 1566.5,-432 1627.5,-410.81 1694.02,-375.57 1732.91,-353.62"/>
<polygon fill="midnightblue" stroke="midnightblue" points="1396.01,-470.8 1386.78,-476 1397.24,-477.69 1396.01,-470.8"/>
</g>
<!-- Node20&#45;&gt;Node26 -->
<g id="edge41" class="edge">
<title>Node20&#45;&gt;Node26</title>
<path fill="none" stroke="midnightblue" d="M1396.87,-475.61C1447.98,-466.49 1504.96,-452.15 1520.5,-432 1531.9,-417.22 1530.14,-405.99 1520.5,-390 1510.72,-373.78 1494.5,-362.01 1477.66,-353.59"/>
<polygon fill="midnightblue" stroke="midnightblue" points="1395.99,-472.21 1386.74,-477.37 1397.19,-479.11 1395.99,-472.21"/>
</g>
<!-- Node20&#45;&gt;Node27 -->
<g id="edge42" class="edge">
<title>Node20&#45;&gt;Node27</title>
<path fill="none" stroke="midnightblue" d="M1294.81,-458.74C1279.5,-423.67 1252.79,-363.23 1228.5,-312 1222.73,-299.82 1215.98,-286.3 1210.55,-275.6"/>
<polygon fill="midnightblue" stroke="midnightblue" points="1291.79,-460.57 1299,-468.34 1298.21,-457.78 1291.79,-460.57"/>
</g>
<!-- Node30 -->
<g id="node30" class="node">
<title>Node30</title>
<g id="a_node30"><a xlink:href="_circle_8cpp.html" target="_top" xlink:title=" ">
<polygon fill="none" stroke="black" points="1335.5,-396 1335.5,-426 1511.5,-426 1511.5,-396 1335.5,-396"/>
<text text-anchor="start" x="1343.5" y="-414" font-family="Helvetica,sans-Serif" font-size="10.00">/home/runner/work/Simulatio</text>
<text text-anchor="middle" x="1423.5" y="-403" font-family="Helvetica,sans-Serif" font-size="10.00">/Simulatio/src/Corpses/Circle.cpp</text>
</a>
</g>
</g>
<!-- Node20&#45;&gt;Node30 -->
<g id="edge44" class="edge">
<title>Node20&#45;&gt;Node30</title>
<path fill="none" stroke="midnightblue" d="M1345.93,-462.82C1364.5,-450.65 1386.1,-436.5 1401.79,-426.23"/>
<polygon fill="midnightblue" stroke="midnightblue" points="1343.82,-460.02 1337.37,-468.43 1347.66,-465.88 1343.82,-460.02"/>
</g>
<!-- Node21&#45;&gt;Node2 -->
<g id="edge25" class="edge">
<title>Node21&#45;&gt;Node2</title>
<path fill="none" stroke="midnightblue" d="M1073.35,-391.23C1015.12,-378.97 939.68,-363.09 883.04,-351.17"/>
<polygon fill="midnightblue" stroke="midnightblue" points="1072.77,-394.69 1083.28,-393.32 1074.21,-387.84 1072.77,-394.69"/>
</g>
<!-- Node21&#45;&gt;Node4 -->
<g id="edge37" class="edge">
<title>Node21&#45;&gt;Node4</title>
<path fill="none" stroke="midnightblue" d="M1073.4,-394.43C1048.76,-386.14 1024.01,-373.45 1006.5,-354 966.31,-309.35 962.15,-233.35 962.64,-197.64"/>
<polygon fill="midnightblue" stroke="midnightblue" points="1072.6,-397.85 1083.19,-397.51 1074.69,-391.17 1072.6,-397.85"/>
</g>
<!-- Node21&#45;&gt;Node20 -->
<g id="edge26" class="edge">
<title>Node21&#45;&gt;Node20</title>
<path fill="none" stroke="midnightblue" d="M1214.66,-436.02C1235.24,-446.46 1258.18,-458.54 1276.15,-468.43"/>
<polygon fill="midnightblue" stroke="midnightblue" points="1216.2,-432.88 1205.7,-431.51 1213.05,-439.13 1216.2,-432.88"/>
</g>
<!-- Node21&#45;&gt;Node22 -->
<g id="edge27" class="edge">
<title>Node21&#45;&gt;Node22</title>
<path fill="none" stroke="midnightblue" d="M1251.68,-396.82C1320.41,-386.29 1417.73,-370.6 1502.5,-354 1505.42,-353.43 1508.39,-352.83 1511.39,-352.22"/>
<polygon fill="midnightblue" stroke="midnightblue" points="1251.11,-393.36 1241.75,-398.33 1252.16,-400.28 1251.11,-393.36"/>
</g>
<!-- Node21&#45;&gt;Node24 -->
<g id="edge30" class="edge">
<title>Node21&#45;&gt;Node24</title>
<path fill="none" stroke="midnightblue" d="M1251.94,-398.77C1276.13,-395.82 1302.31,-392.71 1326.5,-390 1482.78,-372.48 1523.32,-379.47 1678.5,-354 1681.44,-353.52 1684.42,-353 1687.44,-352.45"/>
<polygon fill="midnightblue" stroke="midnightblue" points="1251.21,-395.34 1241.71,-400.03 1252.06,-402.28 1251.21,-395.34"/>
</g>
<!-- Node21&#45;&gt;Node26 -->
<g id="edge32" class="edge">
<title>Node21&#45;&gt;Node26</title>
<path fill="none" stroke="midnightblue" d="M1237.3,-387.44C1273.06,-376.66 1315.47,-363.87 1349.82,-353.51"/>
<polygon fill="midnightblue" stroke="midnightblue" points="1235.96,-384.19 1227.4,-390.43 1237.98,-390.89 1235.96,-384.19"/>
</g>
<!-- Node21&#45;&gt;Node27 -->
<g id="edge36" class="edge">
<title>Node21&#45;&gt;Node27</title>
<path fill="none" stroke="midnightblue" d="M1193.54,-383.16C1201.22,-374.69 1208.41,-364.72 1212.5,-354 1222.34,-328.22 1215.05,-296.1 1208.29,-275.82"/>
<polygon fill="midnightblue" stroke="midnightblue" points="1190.88,-380.88 1186.43,-390.49 1195.91,-385.75 1190.88,-380.88"/>
</g>
<!-- Node29 -->
<g id="node29" class="node">
<title>Node29</title>
<g id="a_node29"><a xlink:href="_polygon_8cpp.html" target="_top" xlink:title=" ">
<polygon fill="none" stroke="black" points="1015.5,-318 1015.5,-348 1203.5,-348 1203.5,-318 1015.5,-318"/>
<text text-anchor="start" x="1023.5" y="-336" font-family="Helvetica,sans-Serif" font-size="10.00">/home/runner/work/Simulatio</text>
<text text-anchor="middle" x="1109.5" y="-325" font-family="Helvetica,sans-Serif" font-size="10.00">/Simulatio/src/Corpses/Polygon.cpp</text>
</a>
</g>
</g>
<!-- Node21&#45;&gt;Node29 -->
<g id="edge38" class="edge">
<title>Node21&#45;&gt;Node29</title>
<path fill="none" stroke="midnightblue" d="M1142.96,-381.98C1134.95,-370.5 1126.04,-357.71 1119.42,-348.23"/>
<polygon fill="midnightblue" stroke="midnightblue" points="1140.26,-384.23 1148.85,-390.43 1146,-380.22 1140.26,-384.23"/>
</g>
<!-- Node22&#45;&gt;Node4 -->
<g id="edge28" class="edge">
<title>Node22&#45;&gt;Node4</title>
<path fill="none" stroke="midnightblue" d="M1565.88,-304.47C1540.03,-275.57 1503.03,-234.27 1502.5,-234 1424.07,-194.03 1172.31,-182.57 1042.52,-179.3"/>
<polygon fill="midnightblue" stroke="midnightblue" points="1563.56,-307.12 1572.84,-312.24 1568.78,-302.46 1563.56,-307.12"/>
</g>
<!-- Node23 -->
<g id="node23" class="node">
<title>Node23</title>
<g id="a_node23"><a xlink:href="_collision_8cpp.html" target="_top" xlink:title=" ">
<polygon fill="none" stroke="black" points="1549.5,-234.5 1549.5,-275.5 1707.5,-275.5 1707.5,-234.5 1549.5,-234.5"/>
<text text-anchor="start" x="1557.5" y="-263.5" font-family="Helvetica,sans-Serif" font-size="10.00">/home/runner/work/Simulatio</text>
<text text-anchor="start" x="1557.5" y="-252.5" font-family="Helvetica,sans-Serif" font-size="10.00">/Simulatio/src/Geometry</text>
<text text-anchor="middle" x="1628.5" y="-241.5" font-family="Helvetica,sans-Serif" font-size="10.00">/Collision.cpp</text>
</a>
</g>
</g>
<!-- Node22&#45;&gt;Node23 -->
<g id="edge29" class="edge">
<title>Node22&#45;&gt;Node23</title>
<path fill="none" stroke="midnightblue" d="M1604.77,-303.47C1609.43,-294.14 1614.5,-284.01 1618.75,-275.51"/>
<polygon fill="midnightblue" stroke="midnightblue" points="1601.63,-301.92 1600.29,-312.43 1607.89,-305.05 1601.63,-301.92"/>
</g>
<!-- Node25 -->
<g id="node25" class="node">
<title>Node25</title>
<g id="a_node25"><a xlink:href="_old_quadtree_8cpp.html" target="_top" xlink:title=" ">
<polygon fill="none" stroke="black" points="1725.5,-234.5 1725.5,-275.5 1883.5,-275.5 1883.5,-234.5 1725.5,-234.5"/>
<text text-anchor="start" x="1733.5" y="-263.5" font-family="Helvetica,sans-Serif" font-size="10.00">/home/runner/work/Simulatio</text>
<text text-anchor="start" x="1733.5" y="-252.5" font-family="Helvetica,sans-Serif" font-size="10.00">/Simulatio/src/Structures</text>
<text text-anchor="middle" x="1804.5" y="-241.5" font-family="Helvetica,sans-Serif" font-size="10.00">/OldQuadtree.cpp</text>
</a>
</g>
</g>
<!-- Node24&#45;&gt;Node25 -->
<g id="edge31" class="edge">
<title>Node24&#45;&gt;Node25</title>
<path fill="none" stroke="midnightblue" d="M1780.77,-303.47C1785.43,-294.14 1790.5,-284.01 1794.75,-275.51"/>
<polygon fill="midnightblue" stroke="midnightblue" points="1777.63,-301.92 1776.29,-312.43 1783.89,-305.05 1777.63,-301.92"/>
</g>
<!-- Node26&#45;&gt;Node27 -->
<g id="edge33" class="edge">
<title>Node26&#45;&gt;Node27</title>
<path fill="none" stroke="midnightblue" d="M1349.81,-309.03C1319.69,-298.33 1284.23,-285.73 1255.42,-275.51"/>
<polygon fill="midnightblue" stroke="midnightblue" points="1348.79,-312.38 1359.39,-312.43 1351.14,-305.78 1348.79,-312.38"/>
</g>
<!-- Node28 -->
<g id="node28" class="node">
<title>Node28</title>
<g id="a_node28"><a xlink:href="_quad_node_8cpp.html" target="_top" xlink:title=" ">
<polygon fill="none" stroke="black" points="1335.5,-234.5 1335.5,-275.5 1493.5,-275.5 1493.5,-234.5 1335.5,-234.5"/>
<text text-anchor="start" x="1343.5" y="-263.5" font-family="Helvetica,sans-Serif" font-size="10.00">/home/runner/work/Simulatio</text>
<text text-anchor="start" x="1343.5" y="-252.5" font-family="Helvetica,sans-Serif" font-size="10.00">/Simulatio/src/Structures</text>
<text text-anchor="middle" x="1414.5" y="-241.5" font-family="Helvetica,sans-Serif" font-size="10.00">/QuadNode.cpp</text>
</a>
</g>
</g>
<!-- Node26&#45;&gt;Node28 -->
<g id="edge35" class="edge">
<title>Node26&#45;&gt;Node28</title>
<path fill="none" stroke="midnightblue" d="M1414.5,-302.3C1414.5,-293.3 1414.5,-283.65 1414.5,-275.51"/>
<polygon fill="midnightblue" stroke="midnightblue" points="1411,-302.43 1414.5,-312.43 1418,-302.43 1411,-302.43"/>
</g>
<!-- Node27&#45;&gt;Node4 -->
<g id="edge34" class="edge">
<title>Node27&#45;&gt;Node4</title>
<path fill="none" stroke="midnightblue" d="M1129.72,-231.3C1096.18,-220.55 1056.5,-207.82 1024.33,-197.51"/>
<polygon fill="midnightblue" stroke="midnightblue" points="1128.88,-234.71 1139.47,-234.43 1131.01,-228.04 1128.88,-234.71"/>
</g>
</g>
</svg>
