<?xml version="1.0" encoding="UTF-8" standalone="no"?>
<!DOCTYPE svg PUBLIC "-//W3C//DTD SVG 1.1//EN"
 "http://www.w3.org/Graphics/SVG/1.1/DTD/svg11.dtd">
<!-- Generated by graphviz version 2.43.0 (0)
 -->
<!-- Title: /home/runner/work/Simulatio/Simulatio/renderer/src/Renderer/EditorColorScheme.cpp Pages: 1 -->
<svg width="277pt" height="173pt"
 viewBox="0.00 0.00 276.50 173.00" xmlns="http://www.w3.org/2000/svg" xmlns:xlink="http://www.w3.org/1999/xlink">
<g id="graph0" class="graph" transform="scale(1 1) rotate(0) translate(4 169)">
<title>/home/runner/work/Simulatio/Simulatio/renderer/src/Renderer/EditorColorScheme.cpp</title>
<!-- Node1 -->
<g id="node1" class="node">
<title>Node1</title>
<g id="a_node1"><a xlink:title=" ">
<polygon fill="#bfbfbf" stroke="black" points="37.5,-123.5 37.5,-164.5 217.5,-164.5 217.5,-123.5 37.5,-123.5"/>
<text text-anchor="start" x="45.5" y="-152.5" font-family="Helvetica,sans-Serif" font-size="10.00">/home/runner/work/Simulatio</text>
<text text-anchor="start" x="45.5" y="-141.5" font-family="Helvetica,sans-Serif" font-size="10.00">/Simulatio/renderer/src</text>
<text text-anchor="middle" x="127.5" y="-130.5" font-family="Helvetica,sans-Serif" font-size="10.00">/Renderer/EditorColorScheme.cpp</text>
</a>
</g>
</g>
<!-- Node2 -->
<g id="node2" class="node">
<title>Node2</title>
<g id="a_node2"><a xlink:href="_editor_color_scheme_8hpp.html" target="_top" xlink:title=" ">
<polygon fill="none" stroke="black" points="60.5,-56.5 60.5,-86.5 194.5,-86.5 194.5,-56.5 60.5,-56.5"/>
<text text-anchor="start" x="68.5" y="-74.5" font-family="Helvetica,sans-Serif" font-size="10.00">../../include/Renderer</text>
<text text-anchor="middle" x="127.5" y="-63.5" font-family="Helvetica,sans-Serif" font-size="10.00">/EditorColorScheme.hpp</text>
</a>
</g>
</g>
<!-- Node1&#45;&gt;Node2 -->
<g id="edge1" class="edge">
<title>Node1&#45;&gt;Node2</title>
<path fill="none" stroke="midnightblue" d="M127.5,-123.36C127.5,-115.23 127.5,-105.7 127.5,-97.11"/>
<polygon fill="midnightblue" stroke="midnightblue" points="131,-96.89 127.5,-86.89 124,-96.89 131,-96.89"/>
</g>
<!-- Node3 -->
<g id="node3" class="node">
<title>Node3</title>
<g id="a_node3"><a xlink:title=" ">
<polygon fill="none" stroke="#bfbfbf" points="0,-0.5 0,-19.5 83,-19.5 83,-0.5 0,-0.5"/>
<text text-anchor="middle" x="41.5" y="-7.5" font-family="Helvetica,sans-Serif" font-size="10.00">imgui&#45;SFML.h</text>
</a>
</g>
</g>
<!-- Node2&#45;&gt;Node3 -->
<g id="edge2" class="edge">
<title>Node2&#45;&gt;Node3</title>
<path fill="none" stroke="midnightblue" d="M107.12,-56.4C93.59,-47.04 75.89,-34.79 62.28,-25.38"/>
<polygon fill="midnightblue" stroke="midnightblue" points="64.23,-22.47 54.01,-19.66 60.25,-28.23 64.23,-22.47"/>
</g>
<!-- Node4 -->
<g id="node4" class="node">
<title>Node4</title>
<g id="a_node4"><a xlink:title=" ">
<polygon fill="none" stroke="#bfbfbf" points="101,-0.5 101,-19.5 154,-19.5 154,-0.5 101,-0.5"/>
<text text-anchor="middle" x="127.5" y="-7.5" font-family="Helvetica,sans-Serif" font-size="10.00">imgui.h</text>
</a>
</g>
</g>
<!-- Node2&#45;&gt;Node4 -->
<g id="edge3" class="edge">
<title>Node2&#45;&gt;Node4</title>
<path fill="none" stroke="midnightblue" d="M127.5,-56.4C127.5,-48.47 127.5,-38.46 127.5,-29.86"/>
<polygon fill="midnightblue" stroke="midnightblue" points="131,-29.66 127.5,-19.66 124,-29.66 131,-29.66"/>
</g>
<!-- Node5 -->
<g id="node5" class="node">
<title>Node5</title>
<g id="a_node5"><a xlink:title=" ">
<polygon fill="none" stroke="#bfbfbf" points="172.5,-0.5 172.5,-19.5 268.5,-19.5 268.5,-0.5 172.5,-0.5"/>
<text text-anchor="middle" x="220.5" y="-7.5" font-family="Helvetica,sans-Serif" font-size="10.00">imgui_internal.h</text>
</a>
</g>
</g>
<!-- Node2&#45;&gt;Node5 -->
<g id="edge4" class="edge">
<title>Node2&#45;&gt;Node5</title>
<path fill="none" stroke="midnightblue" d="M149.54,-56.4C164.31,-46.95 183.68,-34.56 198.45,-25.11"/>
<polygon fill="midnightblue" stroke="midnightblue" points="200.43,-28 206.97,-19.66 196.66,-22.1 200.43,-28"/>
</g>
</g>
</svg>
