<?xml version="1.0" encoding="UTF-8" standalone="no"?>
<!DOCTYPE svg PUBLIC "-//W3C//DTD SVG 1.1//EN"
 "http://www.w3.org/Graphics/SVG/1.1/DTD/svg11.dtd">
<!-- Generated by graphviz version 2.43.0 (0)
 -->
<!-- Title: /home/runner/work/Simulatio/Simulatio/renderer/include/Renderer/EditorColorScheme.hpp Pages: 1 -->
<svg width="277pt" height="106pt"
 viewBox="0.00 0.00 276.50 106.00" xmlns="http://www.w3.org/2000/svg" xmlns:xlink="http://www.w3.org/1999/xlink">
<g id="graph0" class="graph" transform="scale(1 1) rotate(0) translate(4 102)">
<title>/home/runner/work/Simulatio/Simulatio/renderer/include/Renderer/EditorColorScheme.hpp</title>
<!-- Node1 -->
<g id="node1" class="node">
<title>Node1</title>
<g id="a_node1"><a xlink:title=" ">
<polygon fill="#bfbfbf" stroke="black" points="37,-56.5 37,-97.5 218,-97.5 218,-56.5 37,-56.5"/>
<text text-anchor="start" x="45" y="-85.5" font-family="Helvetica,sans-Serif" font-size="10.00">/home/runner/work/Simulatio</text>
<text text-anchor="start" x="45" y="-74.5" font-family="Helvetica,sans-Serif" font-size="10.00">/Simulatio/renderer/include</text>
<text text-anchor="middle" x="127.5" y="-63.5" font-family="Helvetica,sans-Serif" font-size="10.00">/Renderer/EditorColorScheme.hpp</text>
</a>
</g>
</g>
<!-- Node2 -->
<g id="node2" class="node">
<title>Node2</title>
<g id="a_node2"><a xlink:title=" ">
<polygon fill="none" stroke="#bfbfbf" points="0,-0.5 0,-19.5 83,-19.5 83,-0.5 0,-0.5"/>
<text text-anchor="middle" x="41.5" y="-7.5" font-family="Helvetica,sans-Serif" font-size="10.00">imgui&#45;SFML.h</text>
</a>
</g>
</g>
<!-- Node1&#45;&gt;Node2 -->
<g id="edge1" class="edge">
<title>Node1&#45;&gt;Node2</title>
<path fill="none" stroke="midnightblue" d="M101.7,-56.5C88.64,-46.63 73.05,-34.84 61,-25.74"/>
<polygon fill="midnightblue" stroke="midnightblue" points="63.04,-22.89 52.95,-19.65 58.82,-28.47 63.04,-22.89"/>
</g>
<!-- Node3 -->
<g id="node3" class="node">
<title>Node3</title>
<g id="a_node3"><a xlink:title=" ">
<polygon fill="none" stroke="#bfbfbf" points="101,-0.5 101,-19.5 154,-19.5 154,-0.5 101,-0.5"/>
<text text-anchor="middle" x="127.5" y="-7.5" font-family="Helvetica,sans-Serif" font-size="10.00">imgui.h</text>
</a>
</g>
</g>
<!-- Node1&#45;&gt;Node3 -->
<g id="edge2" class="edge">
<title>Node1&#45;&gt;Node3</title>
<path fill="none" stroke="midnightblue" d="M127.5,-56.5C127.5,-48.07 127.5,-38.24 127.5,-29.87"/>
<polygon fill="midnightblue" stroke="midnightblue" points="131,-29.65 127.5,-19.65 124,-29.65 131,-29.65"/>
</g>
<!-- Node4 -->
<g id="node4" class="node">
<title>Node4</title>
<g id="a_node4"><a xlink:title=" ">
<polygon fill="none" stroke="#bfbfbf" points="172.5,-0.5 172.5,-19.5 268.5,-19.5 268.5,-0.5 172.5,-0.5"/>
<text text-anchor="middle" x="220.5" y="-7.5" font-family="Helvetica,sans-Serif" font-size="10.00">imgui_internal.h</text>
</a>
</g>
</g>
<!-- Node1&#45;&gt;Node4 -->
<g id="edge3" class="edge">
<title>Node1&#45;&gt;Node4</title>
<path fill="none" stroke="midnightblue" d="M155.4,-56.5C169.66,-46.53 186.71,-34.61 199.79,-25.48"/>
<polygon fill="midnightblue" stroke="midnightblue" points="201.93,-28.25 208.12,-19.65 197.92,-22.51 201.93,-28.25"/>
</g>
</g>
</svg>
