<?xml version="1.0" encoding="UTF-8" standalone="no"?>
<!DOCTYPE svg PUBLIC "-//W3C//DTD SVG 1.1//EN"
 "http://www.w3.org/Graphics/SVG/1.1/DTD/svg11.dtd">
<!-- Generated by graphviz version 2.43.0 (0)
 -->
<!-- Title: /home/runner/work/Simulatio/Simulatio/include/Geometry/Geometry.hpp Pages: 1 -->
<svg width="2459pt" height="674pt"
 viewBox="0.00 0.00 2459.00 674.00" xmlns="http://www.w3.org/2000/svg" xmlns:xlink="http://www.w3.org/1999/xlink">
<g id="graph0" class="graph" transform="scale(1 1) rotate(0) translate(4 670)">
<title>/home/runner/work/Simulatio/Simulatio/include/Geometry/Geometry.hpp</title>
<!-- Node1 -->
<g id="node1" class="node">
<title>Node1</title>
<g id="a_node1"><a xlink:title=" ">
<polygon fill="#bfbfbf" stroke="black" points="1293,-624.5 1293,-665.5 1451,-665.5 1451,-624.5 1293,-624.5"/>
<text text-anchor="start" x="1301" y="-653.5" font-family="Helvetica,sans-Serif" font-size="10.00">/home/runner/work/Simulatio</text>
<text text-anchor="start" x="1301" y="-642.5" font-family="Helvetica,sans-Serif" font-size="10.00">/Simulatio/include/Geometry</text>
<text text-anchor="middle" x="1372" y="-631.5" font-family="Helvetica,sans-Serif" font-size="10.00">/Geometry.hpp</text>
</a>
</g>
</g>
<!-- Node2 -->
<g id="node2" class="node">
<title>Node2</title>
<g id="a_node2"><a xlink:href="_constraint_8hpp.html" target="_top" xlink:title=" ">
<polygon fill="none" stroke="black" points="1073.5,-312.5 1073.5,-353.5 1236.5,-353.5 1236.5,-312.5 1073.5,-312.5"/>
<text text-anchor="start" x="1081.5" y="-341.5" font-family="Helvetica,sans-Serif" font-size="10.00">/home/runner/work/Simulatio</text>
<text text-anchor="start" x="1081.5" y="-330.5" font-family="Helvetica,sans-Serif" font-size="10.00">/Simulatio/include/Constraints</text>
<text text-anchor="middle" x="1155" y="-319.5" font-family="Helvetica,sans-Serif" font-size="10.00">/Constraint.hpp</text>
</a>
</g>
</g>
<!-- Node1&#45;&gt;Node2 -->
<g id="edge1" class="edge">
<title>Node1&#45;&gt;Node2</title>
<path fill="none" stroke="midnightblue" d="M1334.43,-618.42C1300.26,-593.73 1250.11,-553.73 1216,-510 1178.31,-461.68 1163,-388.46 1157.58,-353.68"/>
<polygon fill="midnightblue" stroke="midnightblue" points="1332.58,-621.4 1342.75,-624.36 1336.65,-615.7 1332.58,-621.4"/>
</g>
<!-- Node4 -->
<g id="node4" class="node">
<title>Node4</title>
<g id="a_node4"><a xlink:href="_system_8hpp.html" target="_top" xlink:title=" ">
<polygon fill="none" stroke="black" points="1506,-156.5 1506,-197.5 1664,-197.5 1664,-156.5 1506,-156.5"/>
<text text-anchor="start" x="1514" y="-185.5" font-family="Helvetica,sans-Serif" font-size="10.00">/home/runner/work/Simulatio</text>
<text text-anchor="start" x="1514" y="-174.5" font-family="Helvetica,sans-Serif" font-size="10.00">/Simulatio/include/Structures</text>
<text text-anchor="middle" x="1585" y="-163.5" font-family="Helvetica,sans-Serif" font-size="10.00">/System.hpp</text>
</a>
</g>
</g>
<!-- Node1&#45;&gt;Node4 -->
<g id="edge58" class="edge">
<title>Node1&#45;&gt;Node4</title>
<path fill="none" stroke="midnightblue" d="M1461.43,-637.9C1687.68,-621.29 2265,-570.96 2265,-490 2265,-490 2265,-490 2265,-332 2265,-286.04 2268.13,-262.4 2232,-234 2188.23,-199.6 1826.91,-184.95 1664.06,-180.05"/>
<polygon fill="midnightblue" stroke="midnightblue" points="1460.97,-634.43 1451.25,-638.65 1461.48,-641.41 1460.97,-634.43"/>
</g>
<!-- Node5 -->
<g id="node5" class="node">
<title>Node5</title>
<g id="a_node5"><a xlink:href="_renderer_8hpp.html" target="_top" xlink:title=" ">
<polygon fill="none" stroke="black" points="352,-78.5 352,-119.5 510,-119.5 510,-78.5 352,-78.5"/>
<text text-anchor="start" x="360" y="-107.5" font-family="Helvetica,sans-Serif" font-size="10.00">/home/runner/work/Simulatio</text>
<text text-anchor="start" x="360" y="-96.5" font-family="Helvetica,sans-Serif" font-size="10.00">/Simulatio/include/Renderer</text>
<text text-anchor="middle" x="431" y="-85.5" font-family="Helvetica,sans-Serif" font-size="10.00">/Renderer.hpp</text>
</a>
</g>
</g>
<!-- Node1&#45;&gt;Node5 -->
<g id="edge57" class="edge">
<title>Node1&#45;&gt;Node5</title>
<path fill="none" stroke="midnightblue" d="M1282.56,-639.28C1040.9,-625.33 393,-579.58 393,-490 393,-490 393,-490 393,-254 393,-204.43 411.79,-148.43 422.94,-119.55"/>
<polygon fill="midnightblue" stroke="midnightblue" points="1282.53,-642.78 1292.71,-639.86 1282.93,-635.79 1282.53,-642.78"/>
</g>
<!-- Node20 -->
<g id="node20" class="node">
<title>Node20</title>
<g id="a_node20"><a xlink:href="_corpse_8hpp.html" target="_top" xlink:title=" ">
<polygon fill="none" stroke="black" points="1435,-546.5 1435,-587.5 1593,-587.5 1593,-546.5 1435,-546.5"/>
<text text-anchor="start" x="1443" y="-575.5" font-family="Helvetica,sans-Serif" font-size="10.00">/home/runner/work/Simulatio</text>
<text text-anchor="start" x="1443" y="-564.5" font-family="Helvetica,sans-Serif" font-size="10.00">/Simulatio/include/Corpses</text>
<text text-anchor="middle" x="1514" y="-553.5" font-family="Helvetica,sans-Serif" font-size="10.00">/Corpse.hpp</text>
</a>
</g>
</g>
<!-- Node1&#45;&gt;Node20 -->
<g id="edge22" class="edge">
<title>Node1&#45;&gt;Node20</title>
<path fill="none" stroke="midnightblue" d="M1417.54,-619.63C1436.94,-609.24 1459.27,-597.29 1477.56,-587.51"/>
<polygon fill="midnightblue" stroke="midnightblue" points="1415.73,-616.62 1408.57,-624.43 1419.04,-622.8 1415.73,-616.62"/>
</g>
<!-- Node33 -->
<g id="node33" class="node">
<title>Node33</title>
<g id="a_node33"><a xlink:href="_converter_8hpp.html" target="_top" xlink:title=" ">
<polygon fill="none" stroke="black" points="722,-546.5 722,-587.5 880,-587.5 880,-546.5 722,-546.5"/>
<text text-anchor="start" x="730" y="-575.5" font-family="Helvetica,sans-Serif" font-size="10.00">/home/runner/work/Simulatio</text>
<text text-anchor="start" x="730" y="-564.5" font-family="Helvetica,sans-Serif" font-size="10.00">/Simulatio/include/Renderer</text>
<text text-anchor="middle" x="801" y="-553.5" font-family="Helvetica,sans-Serif" font-size="10.00">/Converter.hpp</text>
</a>
</g>
</g>
<!-- Node1&#45;&gt;Node33 -->
<g id="edge54" class="edge">
<title>Node1&#45;&gt;Node33</title>
<path fill="none" stroke="midnightblue" d="M1282.79,-632.13C1172.34,-617.42 985.92,-592.61 880.27,-578.55"/>
<polygon fill="midnightblue" stroke="midnightblue" points="1282.53,-635.62 1292.9,-633.47 1283.45,-628.68 1282.53,-635.62"/>
</g>
<!-- Node35 -->
<g id="node35" class="node">
<title>Node35</title>
<g id="a_node35"><a xlink:href="_geometry_8cpp.html" target="_top" xlink:title=" ">
<polygon fill="none" stroke="black" points="2293,-546.5 2293,-587.5 2451,-587.5 2451,-546.5 2293,-546.5"/>
<text text-anchor="start" x="2301" y="-575.5" font-family="Helvetica,sans-Serif" font-size="10.00">/home/runner/work/Simulatio</text>
<text text-anchor="start" x="2301" y="-564.5" font-family="Helvetica,sans-Serif" font-size="10.00">/Simulatio/src/Geometry</text>
<text text-anchor="middle" x="2372" y="-553.5" font-family="Helvetica,sans-Serif" font-size="10.00">/Geometry.cpp</text>
</a>
</g>
</g>
<!-- Node1&#45;&gt;Node35 -->
<g id="edge59" class="edge">
<title>Node1&#45;&gt;Node35</title>
<path fill="none" stroke="midnightblue" d="M1461.73,-642.92C1625.06,-639.95 1981.54,-628.93 2279,-588 2283.58,-587.37 2288.27,-586.64 2293,-585.83"/>
<polygon fill="midnightblue" stroke="midnightblue" points="1461.19,-639.42 1451.25,-643.1 1461.31,-646.42 1461.19,-639.42"/>
</g>
<!-- Node3 -->
<g id="node3" class="node">
<title>Node3</title>
<g id="a_node3"><a xlink:href="_link_8hpp.html" target="_top" xlink:title=" ">
<polygon fill="none" stroke="black" points="1179.5,-234.5 1179.5,-275.5 1342.5,-275.5 1342.5,-234.5 1179.5,-234.5"/>
<text text-anchor="start" x="1187.5" y="-263.5" font-family="Helvetica,sans-Serif" font-size="10.00">/home/runner/work/Simulatio</text>
<text text-anchor="start" x="1187.5" y="-252.5" font-family="Helvetica,sans-Serif" font-size="10.00">/Simulatio/include/Constraints</text>
<text text-anchor="middle" x="1261" y="-241.5" font-family="Helvetica,sans-Serif" font-size="10.00">/Link.hpp</text>
</a>
</g>
</g>
<!-- Node2&#45;&gt;Node3 -->
<g id="edge2" class="edge">
<title>Node2&#45;&gt;Node3</title>
<path fill="none" stroke="midnightblue" d="M1190.77,-306.35C1204.83,-296.27 1220.7,-284.89 1233.79,-275.51"/>
<polygon fill="midnightblue" stroke="midnightblue" points="1188.39,-303.76 1182.3,-312.43 1192.46,-309.45 1188.39,-303.76"/>
</g>
<!-- Node2&#45;&gt;Node4 -->
<g id="edge20" class="edge">
<title>Node2&#45;&gt;Node4</title>
<path fill="none" stroke="midnightblue" d="M1246.5,-311.14C1288.84,-300.45 1333.75,-287.34 1352,-276 1373.38,-262.71 1368.64,-247.32 1390,-234 1424.97,-212.2 1468.71,-198.63 1505.89,-190.32"/>
<polygon fill="midnightblue" stroke="midnightblue" points="1245.52,-307.77 1236.67,-313.59 1247.22,-314.57 1245.52,-307.77"/>
</g>
<!-- Node13 -->
<g id="node13" class="node">
<title>Node13</title>
<g id="a_node13"><a xlink:href="_loose_8hpp.html" target="_top" xlink:title=" ">
<polygon fill="none" stroke="black" points="459.5,-234.5 459.5,-275.5 622.5,-275.5 622.5,-234.5 459.5,-234.5"/>
<text text-anchor="start" x="467.5" y="-263.5" font-family="Helvetica,sans-Serif" font-size="10.00">/home/runner/work/Simulatio</text>
<text text-anchor="start" x="467.5" y="-252.5" font-family="Helvetica,sans-Serif" font-size="10.00">/Simulatio/include/Constraints</text>
<text text-anchor="middle" x="541" y="-241.5" font-family="Helvetica,sans-Serif" font-size="10.00">/Loose.hpp</text>
</a>
</g>
</g>
<!-- Node2&#45;&gt;Node13 -->
<g id="edge12" class="edge">
<title>Node2&#45;&gt;Node13</title>
<path fill="none" stroke="midnightblue" d="M1063.14,-325.32C958.19,-316.97 781.5,-300.68 631,-276 628.31,-275.56 625.59,-275.09 622.84,-274.6"/>
<polygon fill="midnightblue" stroke="midnightblue" points="1063.14,-328.83 1073.38,-326.13 1063.69,-321.85 1063.14,-328.83"/>
</g>
<!-- Node15 -->
<g id="node15" class="node">
<title>Node15</title>
<g id="a_node15"><a xlink:href="_slider_8hpp.html" target="_top" xlink:title=" ">
<polygon fill="none" stroke="black" points="640.5,-234.5 640.5,-275.5 803.5,-275.5 803.5,-234.5 640.5,-234.5"/>
<text text-anchor="start" x="648.5" y="-263.5" font-family="Helvetica,sans-Serif" font-size="10.00">/home/runner/work/Simulatio</text>
<text text-anchor="start" x="648.5" y="-252.5" font-family="Helvetica,sans-Serif" font-size="10.00">/Simulatio/include/Constraints</text>
<text text-anchor="middle" x="722" y="-241.5" font-family="Helvetica,sans-Serif" font-size="10.00">/Slider.hpp</text>
</a>
</g>
</g>
<!-- Node2&#45;&gt;Node15 -->
<g id="edge14" class="edge">
<title>Node2&#45;&gt;Node15</title>
<path fill="none" stroke="midnightblue" d="M1063.27,-318.36C994.27,-307.76 897.48,-292.19 813,-276 809.98,-275.42 806.91,-274.82 803.81,-274.2"/>
<polygon fill="midnightblue" stroke="midnightblue" points="1062.83,-321.83 1073.24,-319.88 1063.89,-314.91 1062.83,-321.83"/>
</g>
<!-- Node17 -->
<g id="node17" class="node">
<title>Node17</title>
<g id="a_node17"><a xlink:href="_spring_8hpp.html" target="_top" xlink:title=" ">
<polygon fill="none" stroke="black" points="998.5,-234.5 998.5,-275.5 1161.5,-275.5 1161.5,-234.5 998.5,-234.5"/>
<text text-anchor="start" x="1006.5" y="-263.5" font-family="Helvetica,sans-Serif" font-size="10.00">/home/runner/work/Simulatio</text>
<text text-anchor="start" x="1006.5" y="-252.5" font-family="Helvetica,sans-Serif" font-size="10.00">/Simulatio/include/Constraints</text>
<text text-anchor="middle" x="1080" y="-241.5" font-family="Helvetica,sans-Serif" font-size="10.00">/Spring.hpp</text>
</a>
</g>
</g>
<!-- Node2&#45;&gt;Node17 -->
<g id="edge17" class="edge">
<title>Node2&#45;&gt;Node17</title>
<path fill="none" stroke="midnightblue" d="M1128.56,-305.2C1118.9,-295.42 1108.16,-284.54 1099.25,-275.51"/>
<polygon fill="midnightblue" stroke="midnightblue" points="1126.17,-307.77 1135.69,-312.43 1131.15,-302.85 1126.17,-307.77"/>
</g>
<!-- Node19 -->
<g id="node19" class="node">
<title>Node19</title>
<g id="a_node19"><a xlink:href="_constraint_8cpp.html" target="_top" xlink:title=" ">
<polygon fill="none" stroke="black" points="822,-234.5 822,-275.5 980,-275.5 980,-234.5 822,-234.5"/>
<text text-anchor="start" x="830" y="-263.5" font-family="Helvetica,sans-Serif" font-size="10.00">/home/runner/work/Simulatio</text>
<text text-anchor="start" x="830" y="-252.5" font-family="Helvetica,sans-Serif" font-size="10.00">/Simulatio/src/Constraints</text>
<text text-anchor="middle" x="901" y="-241.5" font-family="Helvetica,sans-Serif" font-size="10.00">/Constraint.cpp</text>
</a>
</g>
</g>
<!-- Node2&#45;&gt;Node19 -->
<g id="edge21" class="edge">
<title>Node2&#45;&gt;Node19</title>
<path fill="none" stroke="midnightblue" d="M1079.61,-309.44C1043.56,-298.66 1000.82,-285.87 966.19,-275.51"/>
<polygon fill="midnightblue" stroke="midnightblue" points="1079.01,-312.91 1089.59,-312.43 1081.01,-306.21 1079.01,-312.91"/>
</g>
<!-- Node3&#45;&gt;Node4 -->
<g id="edge3" class="edge">
<title>Node3&#45;&gt;Node4</title>
<path fill="none" stroke="midnightblue" d="M1352.58,-232.52C1400.86,-221.19 1459.49,-207.44 1505.79,-196.58"/>
<polygon fill="midnightblue" stroke="midnightblue" points="1351.7,-229.13 1342.76,-234.82 1353.29,-235.95 1351.7,-229.13"/>
</g>
<!-- Node12 -->
<g id="node12" class="node">
<title>Node12</title>
<g id="a_node12"><a xlink:href="_link_8cpp.html" target="_top" xlink:title=" ">
<polygon fill="none" stroke="black" points="1182,-156.5 1182,-197.5 1340,-197.5 1340,-156.5 1182,-156.5"/>
<text text-anchor="start" x="1190" y="-185.5" font-family="Helvetica,sans-Serif" font-size="10.00">/home/runner/work/Simulatio</text>
<text text-anchor="start" x="1190" y="-174.5" font-family="Helvetica,sans-Serif" font-size="10.00">/Simulatio/src/Constraints</text>
<text text-anchor="middle" x="1261" y="-163.5" font-family="Helvetica,sans-Serif" font-size="10.00">/Link.cpp</text>
</a>
</g>
</g>
<!-- Node3&#45;&gt;Node12 -->
<g id="edge11" class="edge">
<title>Node3&#45;&gt;Node12</title>
<path fill="none" stroke="midnightblue" d="M1261,-224.3C1261,-215.3 1261,-205.65 1261,-197.51"/>
<polygon fill="midnightblue" stroke="midnightblue" points="1257.5,-224.43 1261,-234.43 1264.5,-224.43 1257.5,-224.43"/>
</g>
<!-- Node4&#45;&gt;Node5 -->
<g id="edge4" class="edge">
<title>Node4&#45;&gt;Node5</title>
<path fill="none" stroke="midnightblue" d="M1495.71,-167.93C1451.58,-164.07 1397.51,-159.53 1349,-156 1038.86,-133.4 669.32,-112.78 510.24,-104.2"/>
<polygon fill="midnightblue" stroke="midnightblue" points="1495.56,-171.43 1505.83,-168.82 1496.18,-164.46 1495.56,-171.43"/>
</g>
<!-- Node11 -->
<g id="node11" class="node">
<title>Node11</title>
<g id="a_node11"><a xlink:href="_system_8cpp.html" target="_top" xlink:title=" ">
<polygon fill="none" stroke="black" points="1506,-78.5 1506,-119.5 1664,-119.5 1664,-78.5 1506,-78.5"/>
<text text-anchor="start" x="1514" y="-107.5" font-family="Helvetica,sans-Serif" font-size="10.00">/home/runner/work/Simulatio</text>
<text text-anchor="start" x="1514" y="-96.5" font-family="Helvetica,sans-Serif" font-size="10.00">/Simulatio/src/Structures</text>
<text text-anchor="middle" x="1585" y="-85.5" font-family="Helvetica,sans-Serif" font-size="10.00">/System.cpp</text>
</a>
</g>
</g>
<!-- Node4&#45;&gt;Node11 -->
<g id="edge10" class="edge">
<title>Node4&#45;&gt;Node11</title>
<path fill="none" stroke="midnightblue" d="M1585,-146.3C1585,-137.3 1585,-127.65 1585,-119.51"/>
<polygon fill="midnightblue" stroke="midnightblue" points="1581.5,-146.43 1585,-156.43 1588.5,-146.43 1581.5,-146.43"/>
</g>
<!-- Node6 -->
<g id="node6" class="node">
<title>Node6</title>
<g id="a_node6"><a xlink:href="_draw_8cpp.html" target="_top" xlink:title=" ">
<polygon fill="none" stroke="black" points="0,-0.5 0,-41.5 158,-41.5 158,-0.5 0,-0.5"/>
<text text-anchor="start" x="8" y="-29.5" font-family="Helvetica,sans-Serif" font-size="10.00">/home/runner/work/Simulatio</text>
<text text-anchor="start" x="8" y="-18.5" font-family="Helvetica,sans-Serif" font-size="10.00">/Simulatio/src/Renderer</text>
<text text-anchor="middle" x="79" y="-7.5" font-family="Helvetica,sans-Serif" font-size="10.00">/Draw.cpp</text>
</a>
</g>
</g>
<!-- Node5&#45;&gt;Node6 -->
<g id="edge5" class="edge">
<title>Node5&#45;&gt;Node6</title>
<path fill="none" stroke="midnightblue" d="M341.76,-79.41C290.58,-68.66 225.13,-54.77 167,-42 164.09,-41.36 161.13,-40.71 158.14,-40.04"/>
<polygon fill="midnightblue" stroke="midnightblue" points="341.3,-82.88 351.8,-81.51 342.74,-76.03 341.3,-82.88"/>
</g>
<!-- Node7 -->
<g id="node7" class="node">
<title>Node7</title>
<g id="a_node7"><a xlink:href="_event_8cpp.html" target="_top" xlink:title=" ">
<polygon fill="none" stroke="black" points="176,-0.5 176,-41.5 334,-41.5 334,-0.5 176,-0.5"/>
<text text-anchor="start" x="184" y="-29.5" font-family="Helvetica,sans-Serif" font-size="10.00">/home/runner/work/Simulatio</text>
<text text-anchor="start" x="184" y="-18.5" font-family="Helvetica,sans-Serif" font-size="10.00">/Simulatio/src/Renderer</text>
<text text-anchor="middle" x="255" y="-7.5" font-family="Helvetica,sans-Serif" font-size="10.00">/Event.cpp</text>
</a>
</g>
</g>
<!-- Node5&#45;&gt;Node7 -->
<g id="edge6" class="edge">
<title>Node5&#45;&gt;Node7</title>
<path fill="none" stroke="midnightblue" d="M376.18,-74.33C351.76,-63.78 323.35,-51.51 300.17,-41.51"/>
<polygon fill="midnightblue" stroke="midnightblue" points="375.11,-77.68 385.68,-78.43 377.88,-71.25 375.11,-77.68"/>
</g>
<!-- Node8 -->
<g id="node8" class="node">
<title>Node8</title>
<g id="a_node8"><a xlink:href="_gui_8cpp.html" target="_top" xlink:title=" ">
<polygon fill="none" stroke="black" points="352,-0.5 352,-41.5 510,-41.5 510,-0.5 352,-0.5"/>
<text text-anchor="start" x="360" y="-29.5" font-family="Helvetica,sans-Serif" font-size="10.00">/home/runner/work/Simulatio</text>
<text text-anchor="start" x="360" y="-18.5" font-family="Helvetica,sans-Serif" font-size="10.00">/Simulatio/src/Renderer</text>
<text text-anchor="middle" x="431" y="-7.5" font-family="Helvetica,sans-Serif" font-size="10.00">/Gui.cpp</text>
</a>
</g>
</g>
<!-- Node5&#45;&gt;Node8 -->
<g id="edge7" class="edge">
<title>Node5&#45;&gt;Node8</title>
<path fill="none" stroke="midnightblue" d="M431,-68.3C431,-59.3 431,-49.65 431,-41.51"/>
<polygon fill="midnightblue" stroke="midnightblue" points="427.5,-68.43 431,-78.43 434.5,-68.43 427.5,-68.43"/>
</g>
<!-- Node9 -->
<g id="node9" class="node">
<title>Node9</title>
<g id="a_node9"><a xlink:href="_renderer_8cpp.html" target="_top" xlink:title=" ">
<polygon fill="none" stroke="black" points="528,-0.5 528,-41.5 686,-41.5 686,-0.5 528,-0.5"/>
<text text-anchor="start" x="536" y="-29.5" font-family="Helvetica,sans-Serif" font-size="10.00">/home/runner/work/Simulatio</text>
<text text-anchor="start" x="536" y="-18.5" font-family="Helvetica,sans-Serif" font-size="10.00">/Simulatio/src/Renderer</text>
<text text-anchor="middle" x="607" y="-7.5" font-family="Helvetica,sans-Serif" font-size="10.00">/Renderer.cpp</text>
</a>
</g>
</g>
<!-- Node5&#45;&gt;Node9 -->
<g id="edge8" class="edge">
<title>Node5&#45;&gt;Node9</title>
<path fill="none" stroke="midnightblue" d="M485.82,-74.33C510.24,-63.78 538.65,-51.51 561.83,-41.51"/>
<polygon fill="midnightblue" stroke="midnightblue" points="484.12,-71.25 476.32,-78.43 486.89,-77.68 484.12,-71.25"/>
</g>
<!-- Node10 -->
<g id="node10" class="node">
<title>Node10</title>
<g id="a_node10"><a xlink:href="main_8cpp.html" target="_top" xlink:title=" ">
<polygon fill="none" stroke="black" points="703.5,-6 703.5,-36 862.5,-36 862.5,-6 703.5,-6"/>
<text text-anchor="start" x="711.5" y="-24" font-family="Helvetica,sans-Serif" font-size="10.00">/home/runner/work/Simulatio</text>
<text text-anchor="middle" x="783" y="-13" font-family="Helvetica,sans-Serif" font-size="10.00">/Simulatio/src/main/main.cpp</text>
</a>
</g>
</g>
<!-- Node5&#45;&gt;Node10 -->
<g id="edge9" class="edge">
<title>Node5&#45;&gt;Node10</title>
<path fill="none" stroke="midnightblue" d="M520.24,-79.41C571.42,-68.66 636.87,-54.77 695,-42 703.57,-40.12 712.6,-38.1 721.48,-36.1"/>
<polygon fill="midnightblue" stroke="midnightblue" points="519.26,-76.03 510.2,-81.51 520.7,-82.88 519.26,-76.03"/>
</g>
<!-- Node14 -->
<g id="node14" class="node">
<title>Node14</title>
<g id="a_node14"><a xlink:href="_loose_8cpp.html" target="_top" xlink:title=" ">
<polygon fill="none" stroke="black" points="462,-156.5 462,-197.5 620,-197.5 620,-156.5 462,-156.5"/>
<text text-anchor="start" x="470" y="-185.5" font-family="Helvetica,sans-Serif" font-size="10.00">/home/runner/work/Simulatio</text>
<text text-anchor="start" x="470" y="-174.5" font-family="Helvetica,sans-Serif" font-size="10.00">/Simulatio/src/Constraints</text>
<text text-anchor="middle" x="541" y="-163.5" font-family="Helvetica,sans-Serif" font-size="10.00">/Loose.cpp</text>
</a>
</g>
</g>
<!-- Node13&#45;&gt;Node14 -->
<g id="edge13" class="edge">
<title>Node13&#45;&gt;Node14</title>
<path fill="none" stroke="midnightblue" d="M541,-224.3C541,-215.3 541,-205.65 541,-197.51"/>
<polygon fill="midnightblue" stroke="midnightblue" points="537.5,-224.43 541,-234.43 544.5,-224.43 537.5,-224.43"/>
</g>
<!-- Node15&#45;&gt;Node4 -->
<g id="edge15" class="edge">
<title>Node15&#45;&gt;Node4</title>
<path fill="none" stroke="midnightblue" d="M813.72,-234.02C1051.08,-200.71 1114.18,-215.83 1349,-198 1401.28,-194.03 1460.02,-189.05 1505.82,-185.06"/>
<polygon fill="midnightblue" stroke="midnightblue" points="813.16,-230.56 803.75,-235.43 814.14,-237.49 813.16,-230.56"/>
</g>
<!-- Node16 -->
<g id="node16" class="node">
<title>Node16</title>
<g id="a_node16"><a xlink:href="_slider_8cpp.html" target="_top" xlink:title=" ">
<polygon fill="none" stroke="black" points="643,-156.5 643,-197.5 801,-197.5 801,-156.5 643,-156.5"/>
<text text-anchor="start" x="651" y="-185.5" font-family="Helvetica,sans-Serif" font-size="10.00">/home/runner/work/Simulatio</text>
<text text-anchor="start" x="651" y="-174.5" font-family="Helvetica,sans-Serif" font-size="10.00">/Simulatio/src/Constraints</text>
<text text-anchor="middle" x="722" y="-163.5" font-family="Helvetica,sans-Serif" font-size="10.00">/Slider.cpp</text>
</a>
</g>
</g>
<!-- Node15&#45;&gt;Node16 -->
<g id="edge16" class="edge">
<title>Node15&#45;&gt;Node16</title>
<path fill="none" stroke="midnightblue" d="M722,-224.3C722,-215.3 722,-205.65 722,-197.51"/>
<polygon fill="midnightblue" stroke="midnightblue" points="718.5,-224.43 722,-234.43 725.5,-224.43 718.5,-224.43"/>
</g>
<!-- Node17&#45;&gt;Node4 -->
<g id="edge18" class="edge">
<title>Node17&#45;&gt;Node4</title>
<path fill="none" stroke="midnightblue" d="M1171.7,-233.95C1293.97,-212.57 1424.37,-196.21 1505.72,-186.77"/>
<polygon fill="midnightblue" stroke="midnightblue" points="1171.03,-230.51 1161.79,-235.69 1172.25,-237.4 1171.03,-230.51"/>
</g>
<!-- Node18 -->
<g id="node18" class="node">
<title>Node18</title>
<g id="a_node18"><a xlink:href="_spring_8cpp.html" target="_top" xlink:title=" ">
<polygon fill="none" stroke="black" points="1001,-156.5 1001,-197.5 1159,-197.5 1159,-156.5 1001,-156.5"/>
<text text-anchor="start" x="1009" y="-185.5" font-family="Helvetica,sans-Serif" font-size="10.00">/home/runner/work/Simulatio</text>
<text text-anchor="start" x="1009" y="-174.5" font-family="Helvetica,sans-Serif" font-size="10.00">/Simulatio/src/Constraints</text>
<text text-anchor="middle" x="1080" y="-163.5" font-family="Helvetica,sans-Serif" font-size="10.00">/Spring.cpp</text>
</a>
</g>
</g>
<!-- Node17&#45;&gt;Node18 -->
<g id="edge19" class="edge">
<title>Node17&#45;&gt;Node18</title>
<path fill="none" stroke="midnightblue" d="M1080,-224.3C1080,-215.3 1080,-205.65 1080,-197.51"/>
<polygon fill="midnightblue" stroke="midnightblue" points="1076.5,-224.43 1080,-234.43 1083.5,-224.43 1076.5,-224.43"/>
</g>
<!-- Node20&#45;&gt;Node2 -->
<g id="edge23" class="edge">
<title>Node20&#45;&gt;Node2</title>
<path fill="none" stroke="midnightblue" d="M1424.48,-555.05C1359.43,-545.61 1278.22,-530.29 1251,-510 1223.3,-489.35 1180.84,-394.91 1163.16,-353.52"/>
<polygon fill="midnightblue" stroke="midnightblue" points="1424.37,-558.57 1434.77,-556.51 1425.36,-551.64 1424.37,-558.57"/>
</g>
<!-- Node20&#45;&gt;Node4 -->
<g id="edge52" class="edge">
<title>Node20&#45;&gt;Node4</title>
<path fill="none" stroke="midnightblue" d="M1603.06,-565.26C1794.29,-561.27 2227,-538.28 2227,-412 2227,-412 2227,-412 2227,-332 2227,-287.63 2240.93,-263.73 2208,-234 2168.43,-198.27 1822.98,-184.4 1664.21,-179.88"/>
<polygon fill="midnightblue" stroke="midnightblue" points="1602.96,-561.76 1593.03,-565.46 1603.09,-568.76 1602.96,-561.76"/>
</g>
<!-- Node21 -->
<g id="node21" class="node">
<title>Node21</title>
<g id="a_node21"><a xlink:href="_circle_8hpp.html" target="_top" xlink:title=" ">
<polygon fill="none" stroke="black" points="1682,-468.5 1682,-509.5 1840,-509.5 1840,-468.5 1682,-468.5"/>
<text text-anchor="start" x="1690" y="-497.5" font-family="Helvetica,sans-Serif" font-size="10.00">/home/runner/work/Simulatio</text>
<text text-anchor="start" x="1690" y="-486.5" font-family="Helvetica,sans-Serif" font-size="10.00">/Simulatio/include/Corpses</text>
<text text-anchor="middle" x="1761" y="-475.5" font-family="Helvetica,sans-Serif" font-size="10.00">/Circle.hpp</text>
</a>
</g>
</g>
<!-- Node20&#45;&gt;Node21 -->
<g id="edge24" class="edge">
<title>Node20&#45;&gt;Node21</title>
<path fill="none" stroke="midnightblue" d="M1587.31,-543.44C1622.37,-532.66 1663.93,-519.87 1697.61,-509.51"/>
<polygon fill="midnightblue" stroke="midnightblue" points="1586.14,-540.14 1577.61,-546.43 1588.2,-546.83 1586.14,-540.14"/>
</g>
<!-- Node22 -->
<g id="node22" class="node">
<title>Node22</title>
<g id="a_node22"><a xlink:href="_polygon_8hpp.html" target="_top" xlink:title=" ">
<polygon fill="none" stroke="black" points="1552,-390.5 1552,-431.5 1710,-431.5 1710,-390.5 1552,-390.5"/>
<text text-anchor="start" x="1560" y="-419.5" font-family="Helvetica,sans-Serif" font-size="10.00">/home/runner/work/Simulatio</text>
<text text-anchor="start" x="1560" y="-408.5" font-family="Helvetica,sans-Serif" font-size="10.00">/Simulatio/include/Corpses</text>
<text text-anchor="middle" x="1631" y="-397.5" font-family="Helvetica,sans-Serif" font-size="10.00">/Polygon.hpp</text>
</a>
</g>
</g>
<!-- Node20&#45;&gt;Node22 -->
<g id="edge47" class="edge">
<title>Node20&#45;&gt;Node22</title>
<path fill="none" stroke="midnightblue" d="M1488.49,-538.55C1472.54,-517.95 1457.69,-489.67 1473,-468 1491.14,-442.33 1522.09,-428.35 1551.82,-420.77"/>
<polygon fill="midnightblue" stroke="midnightblue" points="1485.8,-540.78 1494.83,-546.32 1491.22,-536.36 1485.8,-540.78"/>
</g>
<!-- Node23 -->
<g id="node23" class="node">
<title>Node23</title>
<g id="a_node23"><a xlink:href="_collision_8hpp.html" target="_top" xlink:title=" ">
<polygon fill="none" stroke="black" points="2003,-312.5 2003,-353.5 2161,-353.5 2161,-312.5 2003,-312.5"/>
<text text-anchor="start" x="2011" y="-341.5" font-family="Helvetica,sans-Serif" font-size="10.00">/home/runner/work/Simulatio</text>
<text text-anchor="start" x="2011" y="-330.5" font-family="Helvetica,sans-Serif" font-size="10.00">/Simulatio/include/Geometry</text>
<text text-anchor="middle" x="2082" y="-319.5" font-family="Helvetica,sans-Serif" font-size="10.00">/Collision.hpp</text>
</a>
</g>
</g>
<!-- Node20&#45;&gt;Node23 -->
<g id="edge48" class="edge">
<title>Node20&#45;&gt;Node23</title>
<path fill="none" stroke="midnightblue" d="M1603.32,-560.04C1714.37,-551.73 1896.98,-534.82 1960,-510 2015.09,-488.3 2037.38,-482.67 2068,-432 2082.58,-407.88 2084.22,-374.44 2083.52,-353.53"/>
<polygon fill="midnightblue" stroke="midnightblue" points="1602.85,-556.57 1593.14,-560.8 1603.37,-563.55 1602.85,-556.57"/>
</g>
<!-- Node25 -->
<g id="node25" class="node">
<title>Node25</title>
<g id="a_node25"><a xlink:href="_old_quadtree_8hpp.html" target="_top" xlink:title=" ">
<polygon fill="none" stroke="black" points="1293,-312.5 1293,-353.5 1451,-353.5 1451,-312.5 1293,-312.5"/>
<text text-anchor="start" x="1301" y="-341.5" font-family="Helvetica,sans-Serif" font-size="10.00">/home/runner/work/Simulatio</text>
<text text-anchor="start" x="1301" y="-330.5" font-family="Helvetica,sans-Serif" font-size="10.00">/Simulatio/include/Structures</text>
<text text-anchor="middle" x="1372" y="-319.5" font-family="Helvetica,sans-Serif" font-size="10.00">/OldQuadtree.hpp</text>
</a>
</g>
</g>
<!-- Node20&#45;&gt;Node25 -->
<g id="edge49" class="edge">
<title>Node20&#45;&gt;Node25</title>
<path fill="none" stroke="midnightblue" d="M1486.15,-539.04C1477.84,-530.22 1469.06,-520.09 1462,-510 1425.11,-457.28 1393.98,-387.37 1379.96,-353.74"/>
<polygon fill="midnightblue" stroke="midnightblue" points="1483.83,-541.67 1493.29,-546.42 1488.86,-536.8 1483.83,-541.67"/>
</g>
<!-- Node27 -->
<g id="node27" class="node">
<title>Node27</title>
<g id="a_node27"><a xlink:href="_quad_node_8hpp.html" target="_top" xlink:title=" ">
<polygon fill="none" stroke="black" points="1789,-312.5 1789,-353.5 1947,-353.5 1947,-312.5 1789,-312.5"/>
<text text-anchor="start" x="1797" y="-341.5" font-family="Helvetica,sans-Serif" font-size="10.00">/home/runner/work/Simulatio</text>
<text text-anchor="start" x="1797" y="-330.5" font-family="Helvetica,sans-Serif" font-size="10.00">/Simulatio/include/Structures</text>
<text text-anchor="middle" x="1868" y="-319.5" font-family="Helvetica,sans-Serif" font-size="10.00">/QuadNode.hpp</text>
</a>
</g>
</g>
<!-- Node20&#45;&gt;Node27 -->
<g id="edge50" class="edge">
<title>Node20&#45;&gt;Node27</title>
<path fill="none" stroke="midnightblue" d="M1603.26,-557.69C1742.29,-542.59 1999.88,-505.21 2050,-432 2060.54,-416.6 2061.09,-405.02 2050,-390 2037.18,-372.65 1990.14,-358.44 1947.09,-348.67"/>
<polygon fill="midnightblue" stroke="midnightblue" points="1602.62,-554.24 1593.05,-558.78 1603.37,-561.2 1602.62,-554.24"/>
</g>
<!-- Node28 -->
<g id="node28" class="node">
<title>Node28</title>
<g id="a_node28"><a xlink:href="_quadtree_8hpp.html" target="_top" xlink:title=" ">
<polygon fill="none" stroke="black" points="1613,-234.5 1613,-275.5 1771,-275.5 1771,-234.5 1613,-234.5"/>
<text text-anchor="start" x="1621" y="-263.5" font-family="Helvetica,sans-Serif" font-size="10.00">/home/runner/work/Simulatio</text>
<text text-anchor="start" x="1621" y="-252.5" font-family="Helvetica,sans-Serif" font-size="10.00">/Simulatio/include/Structures</text>
<text text-anchor="middle" x="1692" y="-241.5" font-family="Helvetica,sans-Serif" font-size="10.00">/Quadtree.hpp</text>
</a>
</g>
</g>
<!-- Node20&#45;&gt;Node28 -->
<g id="edge51" class="edge">
<title>Node20&#45;&gt;Node28</title>
<path fill="none" stroke="midnightblue" d="M1462.85,-541.85C1374.3,-496.94 1208.82,-397.38 1284,-312 1325.75,-264.58 1503.46,-284.95 1566,-276 1581.13,-273.83 1597.26,-271.38 1612.74,-268.96"/>
<polygon fill="midnightblue" stroke="midnightblue" points="1461.44,-545.06 1471.95,-546.41 1464.57,-538.8 1461.44,-545.06"/>
</g>
<!-- Node32 -->
<g id="node32" class="node">
<title>Node32</title>
<g id="a_node32"><a xlink:href="_corpse_8cpp.html" target="_top" xlink:title=" ">
<polygon fill="none" stroke="black" points="1482,-474 1482,-504 1664,-504 1664,-474 1482,-474"/>
<text text-anchor="start" x="1490" y="-492" font-family="Helvetica,sans-Serif" font-size="10.00">/home/runner/work/Simulatio</text>
<text text-anchor="middle" x="1573" y="-481" font-family="Helvetica,sans-Serif" font-size="10.00">/Simulatio/src/Corpses/Corpse.cpp</text>
</a>
</g>
</g>
<!-- Node20&#45;&gt;Node32 -->
<g id="edge53" class="edge">
<title>Node20&#45;&gt;Node32</title>
<path fill="none" stroke="midnightblue" d="M1535.49,-538.32C1544.47,-526.75 1554.52,-513.8 1561.96,-504.23"/>
<polygon fill="midnightblue" stroke="midnightblue" points="1532.56,-536.38 1529.19,-546.43 1538.09,-540.68 1532.56,-536.38"/>
</g>
<!-- Node21&#45;&gt;Node2 -->
<g id="edge25" class="edge">
<title>Node21&#45;&gt;Node2</title>
<path fill="none" stroke="midnightblue" d="M1672.06,-467.86C1584.53,-450.35 1560.03,-452.19 1477,-432 1383.03,-409.15 1275.98,-374.89 1212.04,-353.52"/>
<polygon fill="midnightblue" stroke="midnightblue" points="1671.38,-471.3 1681.88,-469.85 1672.78,-464.43 1671.38,-471.3"/>
</g>
<!-- Node21&#45;&gt;Node4 -->
<g id="edge45" class="edge">
<title>Node21&#45;&gt;Node4</title>
<path fill="none" stroke="midnightblue" d="M1792.11,-461.77C1802.31,-452.69 1813.46,-442.22 1823,-432 1839.2,-414.65 1836.75,-403.89 1856,-390 1894.3,-362.35 1928.84,-392.65 1956,-354 1986.67,-310.37 1990.78,-274.43 1956,-234 1919.14,-191.16 1761.84,-180.67 1664.27,-178.35"/>
<polygon fill="midnightblue" stroke="midnightblue" points="1789.75,-459.18 1784.55,-468.41 1794.37,-464.44 1789.75,-459.18"/>
</g>
<!-- Node21&#45;&gt;Node22 -->
<g id="edge26" class="edge">
<title>Node21&#45;&gt;Node22</title>
<path fill="none" stroke="midnightblue" d="M1712.71,-463.49C1694.37,-453.13 1674.17,-441.25 1658.38,-431.51"/>
<polygon fill="midnightblue" stroke="midnightblue" points="1711.1,-466.59 1721.53,-468.43 1714.52,-460.49 1711.1,-466.59"/>
</g>
<!-- Node21&#45;&gt;Node23 -->
<g id="edge41" class="edge">
<title>Node21&#45;&gt;Node23</title>
<path fill="none" stroke="midnightblue" d="M1850.43,-480.56C1924.03,-472.7 2020.82,-457.76 2050,-432 2072.54,-412.1 2079.28,-376.11 2081.25,-353.72"/>
<polygon fill="midnightblue" stroke="midnightblue" points="1849.8,-477.11 1840.21,-481.63 1850.52,-484.07 1849.8,-477.11"/>
</g>
<!-- Node21&#45;&gt;Node25 -->
<g id="edge42" class="edge">
<title>Node21&#45;&gt;Node25</title>
<path fill="none" stroke="midnightblue" d="M1672.03,-466.54C1617.29,-453.1 1555.32,-437.34 1543,-432 1511.1,-418.17 1507.03,-407.53 1477,-390 1455.23,-377.29 1430.36,-363.98 1410.3,-353.52"/>
<polygon fill="midnightblue" stroke="midnightblue" points="1671.25,-469.96 1681.8,-468.94 1672.92,-463.16 1671.25,-469.96"/>
</g>
<!-- Node21&#45;&gt;Node27 -->
<g id="edge43" class="edge">
<title>Node21&#45;&gt;Node27</title>
<path fill="none" stroke="midnightblue" d="M1777.66,-459.83C1789.7,-439.94 1806.66,-412.87 1823,-390 1831.92,-377.52 1842.66,-364.1 1851.41,-353.53"/>
<polygon fill="midnightblue" stroke="midnightblue" points="1774.64,-458.05 1772.49,-468.42 1780.64,-461.66 1774.64,-458.05"/>
</g>
<!-- Node21&#45;&gt;Node28 -->
<g id="edge44" class="edge">
<title>Node21&#45;&gt;Node28</title>
<path fill="none" stroke="midnightblue" d="M1763.19,-457.87C1764.63,-421.63 1763.21,-359.72 1742,-312 1735.86,-298.18 1725.02,-285.39 1715,-275.53"/>
<polygon fill="midnightblue" stroke="midnightblue" points="1759.68,-458.09 1762.67,-468.25 1766.67,-458.44 1759.68,-458.09"/>
</g>
<!-- Node31 -->
<g id="node31" class="node">
<title>Node31</title>
<g id="a_node31"><a xlink:href="_circle_8cpp.html" target="_top" xlink:title=" ">
<polygon fill="none" stroke="black" points="1865,-396 1865,-426 2041,-426 2041,-396 1865,-396"/>
<text text-anchor="start" x="1873" y="-414" font-family="Helvetica,sans-Serif" font-size="10.00">/home/runner/work/Simulatio</text>
<text text-anchor="middle" x="1953" y="-403" font-family="Helvetica,sans-Serif" font-size="10.00">/Simulatio/src/Corpses/Circle.cpp</text>
</a>
</g>
</g>
<!-- Node21&#45;&gt;Node31 -->
<g id="edge46" class="edge">
<title>Node21&#45;&gt;Node31</title>
<path fill="none" stroke="midnightblue" d="M1820.09,-464.61C1851.91,-452.02 1890.1,-436.9 1917.36,-426.11"/>
<polygon fill="midnightblue" stroke="midnightblue" points="1818.45,-461.49 1810.44,-468.43 1821.03,-468 1818.45,-461.49"/>
</g>
<!-- Node22&#45;&gt;Node2 -->
<g id="edge27" class="edge">
<title>Node22&#45;&gt;Node2</title>
<path fill="none" stroke="midnightblue" d="M1541.94,-395.78C1454.33,-381.79 1321.7,-360.62 1236.72,-347.05"/>
<polygon fill="midnightblue" stroke="midnightblue" points="1541.44,-399.24 1551.86,-397.36 1542.54,-392.33 1541.44,-399.24"/>
</g>
<!-- Node22&#45;&gt;Node4 -->
<g id="edge39" class="edge">
<title>Node22&#45;&gt;Node4</title>
<path fill="none" stroke="midnightblue" d="M1557.97,-385.53C1544.44,-377.62 1532.06,-367.32 1524,-354 1514.33,-338.03 1516.2,-328.96 1524,-312 1534.27,-289.66 1553.64,-297.25 1566,-276 1580.2,-251.58 1584.02,-218.53 1584.92,-197.74"/>
<polygon fill="midnightblue" stroke="midnightblue" points="1556.52,-388.73 1566.98,-390.4 1559.84,-382.57 1556.52,-388.73"/>
</g>
<!-- Node22&#45;&gt;Node21 -->
<g id="edge28" class="edge">
<title>Node22&#45;&gt;Node21</title>
<path fill="none" stroke="midnightblue" d="M1679.16,-436.44C1697.49,-446.79 1717.7,-458.68 1733.51,-468.43"/>
<polygon fill="midnightblue" stroke="midnightblue" points="1680.78,-433.34 1670.35,-431.51 1677.36,-439.45 1680.78,-433.34"/>
</g>
<!-- Node22&#45;&gt;Node23 -->
<g id="edge29" class="edge">
<title>Node22&#45;&gt;Node23</title>
<path fill="none" stroke="midnightblue" d="M1720.17,-394.97C1802.48,-381.1 1923.6,-360.69 2002.64,-347.37"/>
<polygon fill="midnightblue" stroke="midnightblue" points="1719.35,-391.56 1710.07,-396.67 1720.52,-398.46 1719.35,-391.56"/>
</g>
<!-- Node22&#45;&gt;Node25 -->
<g id="edge32" class="edge">
<title>Node22&#45;&gt;Node25</title>
<path fill="none" stroke="midnightblue" d="M1554.6,-387.58C1517.74,-376.76 1473.94,-363.91 1438.47,-353.51"/>
<polygon fill="midnightblue" stroke="midnightblue" points="1553.72,-390.97 1564.3,-390.43 1555.69,-384.25 1553.72,-390.97"/>
</g>
<!-- Node22&#45;&gt;Node27 -->
<g id="edge34" class="edge">
<title>Node22&#45;&gt;Node27</title>
<path fill="none" stroke="midnightblue" d="M1701.78,-387.3C1735.32,-376.55 1775,-363.82 1807.17,-353.51"/>
<polygon fill="midnightblue" stroke="midnightblue" points="1700.49,-384.04 1692.03,-390.43 1702.62,-390.71 1700.49,-384.04"/>
</g>
<!-- Node22&#45;&gt;Node28 -->
<g id="edge38" class="edge">
<title>Node22&#45;&gt;Node28</title>
<path fill="none" stroke="midnightblue" d="M1567.83,-385.23C1555.12,-377.23 1543.41,-366.97 1536,-354 1526.74,-337.79 1525.26,-327.27 1536,-312 1545.73,-298.17 1579.39,-285.24 1612.97,-275.3"/>
<polygon fill="midnightblue" stroke="midnightblue" points="1566.34,-388.42 1576.74,-390.42 1569.86,-382.37 1566.34,-388.42"/>
</g>
<!-- Node30 -->
<g id="node30" class="node">
<title>Node30</title>
<g id="a_node30"><a xlink:href="_polygon_8cpp.html" target="_top" xlink:title=" ">
<polygon fill="none" stroke="black" points="1545,-318 1545,-348 1733,-348 1733,-318 1545,-318"/>
<text text-anchor="start" x="1553" y="-336" font-family="Helvetica,sans-Serif" font-size="10.00">/home/runner/work/Simulatio</text>
<text text-anchor="middle" x="1639" y="-325" font-family="Helvetica,sans-Serif" font-size="10.00">/Simulatio/src/Corpses/Polygon.cpp</text>
</a>
</g>
</g>
<!-- Node22&#45;&gt;Node30 -->
<g id="edge40" class="edge">
<title>Node22&#45;&gt;Node30</title>
<path fill="none" stroke="midnightblue" d="M1634.13,-380.28C1635.29,-369.25 1636.55,-357.25 1637.5,-348.23"/>
<polygon fill="midnightblue" stroke="midnightblue" points="1630.63,-380.12 1633.06,-390.43 1637.59,-380.85 1630.63,-380.12"/>
</g>
<!-- Node23&#45;&gt;Node4 -->
<g id="edge30" class="edge">
<title>Node23&#45;&gt;Node4</title>
<path fill="none" stroke="midnightblue" d="M2057.84,-304.74C2033.24,-277.3 1997.54,-238.39 1989,-234 1933.89,-205.68 1765.34,-189.91 1664.19,-182.77"/>
<polygon fill="midnightblue" stroke="midnightblue" points="2055.49,-307.37 2064.76,-312.49 2060.71,-302.7 2055.49,-307.37"/>
</g>
<!-- Node24 -->
<g id="node24" class="node">
<title>Node24</title>
<g id="a_node24"><a xlink:href="_collision_8cpp.html" target="_top" xlink:title=" ">
<polygon fill="none" stroke="black" points="2041,-234.5 2041,-275.5 2199,-275.5 2199,-234.5 2041,-234.5"/>
<text text-anchor="start" x="2049" y="-263.5" font-family="Helvetica,sans-Serif" font-size="10.00">/home/runner/work/Simulatio</text>
<text text-anchor="start" x="2049" y="-252.5" font-family="Helvetica,sans-Serif" font-size="10.00">/Simulatio/src/Geometry</text>
<text text-anchor="middle" x="2120" y="-241.5" font-family="Helvetica,sans-Serif" font-size="10.00">/Collision.cpp</text>
</a>
</g>
</g>
<!-- Node23&#45;&gt;Node24 -->
<g id="edge31" class="edge">
<title>Node23&#45;&gt;Node24</title>
<path fill="none" stroke="midnightblue" d="M2096.27,-303.47C2100.93,-294.14 2106,-284.01 2110.25,-275.51"/>
<polygon fill="midnightblue" stroke="midnightblue" points="2093.13,-301.92 2091.79,-312.43 2099.39,-305.05 2093.13,-301.92"/>
</g>
<!-- Node26 -->
<g id="node26" class="node">
<title>Node26</title>
<g id="a_node26"><a xlink:href="_old_quadtree_8cpp.html" target="_top" xlink:title=" ">
<polygon fill="none" stroke="black" points="1399,-234.5 1399,-275.5 1557,-275.5 1557,-234.5 1399,-234.5"/>
<text text-anchor="start" x="1407" y="-263.5" font-family="Helvetica,sans-Serif" font-size="10.00">/home/runner/work/Simulatio</text>
<text text-anchor="start" x="1407" y="-252.5" font-family="Helvetica,sans-Serif" font-size="10.00">/Simulatio/src/Structures</text>
<text text-anchor="middle" x="1478" y="-241.5" font-family="Helvetica,sans-Serif" font-size="10.00">/OldQuadtree.cpp</text>
</a>
</g>
</g>
<!-- Node25&#45;&gt;Node26 -->
<g id="edge33" class="edge">
<title>Node25&#45;&gt;Node26</title>
<path fill="none" stroke="midnightblue" d="M1407.77,-306.35C1421.83,-296.27 1437.7,-284.89 1450.79,-275.51"/>
<polygon fill="midnightblue" stroke="midnightblue" points="1405.39,-303.76 1399.3,-312.43 1409.46,-309.45 1405.39,-303.76"/>
</g>
<!-- Node27&#45;&gt;Node28 -->
<g id="edge35" class="edge">
<title>Node27&#45;&gt;Node28</title>
<path fill="none" stroke="midnightblue" d="M1813.18,-308.33C1788.76,-297.78 1760.35,-285.51 1737.17,-275.51"/>
<polygon fill="midnightblue" stroke="midnightblue" points="1812.11,-311.68 1822.68,-312.43 1814.88,-305.25 1812.11,-311.68"/>
</g>
<!-- Node29 -->
<g id="node29" class="node">
<title>Node29</title>
<g id="a_node29"><a xlink:href="_quad_node_8cpp.html" target="_top" xlink:title=" ">
<polygon fill="none" stroke="black" points="1789,-234.5 1789,-275.5 1947,-275.5 1947,-234.5 1789,-234.5"/>
<text text-anchor="start" x="1797" y="-263.5" font-family="Helvetica,sans-Serif" font-size="10.00">/home/runner/work/Simulatio</text>
<text text-anchor="start" x="1797" y="-252.5" font-family="Helvetica,sans-Serif" font-size="10.00">/Simulatio/src/Structures</text>
<text text-anchor="middle" x="1868" y="-241.5" font-family="Helvetica,sans-Serif" font-size="10.00">/QuadNode.cpp</text>
</a>
</g>
</g>
<!-- Node27&#45;&gt;Node29 -->
<g id="edge37" class="edge">
<title>Node27&#45;&gt;Node29</title>
<path fill="none" stroke="midnightblue" d="M1868,-302.3C1868,-293.3 1868,-283.65 1868,-275.51"/>
<polygon fill="midnightblue" stroke="midnightblue" points="1864.5,-302.43 1868,-312.43 1871.5,-302.43 1864.5,-302.43"/>
</g>
<!-- Node28&#45;&gt;Node4 -->
<g id="edge36" class="edge">
<title>Node28&#45;&gt;Node4</title>
<path fill="none" stroke="midnightblue" d="M1656.29,-228.64C1642,-218.49 1625.8,-206.98 1612.46,-197.51"/>
<polygon fill="midnightblue" stroke="midnightblue" points="1654.27,-231.49 1664.44,-234.43 1658.32,-225.78 1654.27,-231.49"/>
</g>
<!-- Node33&#45;&gt;Node5 -->
<g id="edge55" class="edge">
<title>Node33&#45;&gt;Node5</title>
<path fill="none" stroke="midnightblue" d="M711.56,-547.38C602.06,-521.96 431,-472.56 431,-412 431,-412 431,-412 431,-254 431,-205.88 431,-149.29 431,-119.93"/>
<polygon fill="midnightblue" stroke="midnightblue" points="711.1,-550.87 721.63,-549.69 712.66,-544.04 711.1,-550.87"/>
</g>
<!-- Node34 -->
<g id="node34" class="node">
<title>Node34</title>
<g id="a_node34"><a xlink:href="_converter_8cpp.html" target="_top" xlink:title=" ">
<polygon fill="none" stroke="black" points="722,-468.5 722,-509.5 880,-509.5 880,-468.5 722,-468.5"/>
<text text-anchor="start" x="730" y="-497.5" font-family="Helvetica,sans-Serif" font-size="10.00">/home/runner/work/Simulatio</text>
<text text-anchor="start" x="730" y="-486.5" font-family="Helvetica,sans-Serif" font-size="10.00">/Simulatio/src/Renderer</text>
<text text-anchor="middle" x="801" y="-475.5" font-family="Helvetica,sans-Serif" font-size="10.00">/Converter.cpp</text>
</a>
</g>
</g>
<!-- Node33&#45;&gt;Node34 -->
<g id="edge56" class="edge">
<title>Node33&#45;&gt;Node34</title>
<path fill="none" stroke="midnightblue" d="M801,-536.3C801,-527.3 801,-517.65 801,-509.51"/>
<polygon fill="midnightblue" stroke="midnightblue" points="797.5,-536.43 801,-546.43 804.5,-536.43 797.5,-536.43"/>
</g>
</g>
</svg>
