<?xml version="1.0" encoding="UTF-8" standalone="no"?>
<!DOCTYPE svg PUBLIC "-//W3C//DTD SVG 1.1//EN"
 "http://www.w3.org/Graphics/SVG/1.1/DTD/svg11.dtd">
<!-- Generated by graphviz version 2.43.0 (0)
 -->
<!-- Title: /home/runner/work/Simulatio/Simulatio/engine/src/Geometry/Geometry.cpp Pages: 1 -->
<svg width="900pt" height="397pt"
 viewBox="0.00 0.00 899.50 397.00" xmlns="http://www.w3.org/2000/svg" xmlns:xlink="http://www.w3.org/1999/xlink">
<g id="graph0" class="graph" transform="scale(1 1) rotate(0) translate(4 393)">
<title>/home/runner/work/Simulatio/Simulatio/engine/src/Geometry/Geometry.cpp</title>
<!-- Node1 -->
<g id="node1" class="node">
<title>Node1</title>
<g id="a_node1"><a xlink:title=" ">
<polygon fill="#bfbfbf" stroke="black" points="367.5,-347.5 367.5,-388.5 538.5,-388.5 538.5,-347.5 367.5,-347.5"/>
<text text-anchor="start" x="375.5" y="-376.5" font-family="Helvetica,sans-Serif" font-size="10.00">/home/runner/work/Simulatio</text>
<text text-anchor="start" x="375.5" y="-365.5" font-family="Helvetica,sans-Serif" font-size="10.00">/Simulatio/engine/src/Geometry</text>
<text text-anchor="middle" x="453" y="-354.5" font-family="Helvetica,sans-Serif" font-size="10.00">/Geometry.cpp</text>
</a>
</g>
</g>
<!-- Node2 -->
<g id="node2" class="node">
<title>Node2</title>
<g id="a_node2"><a xlink:href="_geometry_8hpp.html" target="_top" xlink:title=" ">
<polygon fill="none" stroke="black" points="392,-280.5 392,-310.5 514,-310.5 514,-280.5 392,-280.5"/>
<text text-anchor="start" x="400" y="-298.5" font-family="Helvetica,sans-Serif" font-size="10.00">../../include/Geometry</text>
<text text-anchor="middle" x="453" y="-287.5" font-family="Helvetica,sans-Serif" font-size="10.00">/Geometry.hpp</text>
</a>
</g>
</g>
<!-- Node1&#45;&gt;Node2 -->
<g id="edge1" class="edge">
<title>Node1&#45;&gt;Node2</title>
<path fill="none" stroke="midnightblue" d="M453,-347.36C453,-339.23 453,-329.7 453,-321.11"/>
<polygon fill="midnightblue" stroke="midnightblue" points="456.5,-320.89 453,-310.89 449.5,-320.89 456.5,-320.89"/>
</g>
<!-- Node3 -->
<g id="node3" class="node">
<title>Node3</title>
<g id="a_node3"><a xlink:href="_recorder_8hpp.html" target="_top" xlink:title=" ">
<polygon fill="none" stroke="black" points="257,-224.5 257,-243.5 405,-243.5 405,-224.5 257,-224.5"/>
<text text-anchor="middle" x="331" y="-231.5" font-family="Helvetica,sans-Serif" font-size="10.00">../Benchmark/Recorder.hpp</text>
</a>
</g>
</g>
<!-- Node2&#45;&gt;Node3 -->
<g id="edge2" class="edge">
<title>Node2&#45;&gt;Node3</title>
<path fill="none" stroke="midnightblue" d="M424.09,-280.4C403.98,-270.59 377.38,-257.62 357.76,-248.05"/>
<polygon fill="midnightblue" stroke="midnightblue" points="359.27,-244.9 348.75,-243.66 356.21,-251.19 359.27,-244.9"/>
</g>
<!-- Node6 -->
<g id="node6" class="node">
<title>Node6</title>
<g id="a_node6"><a xlink:href="_maths_8hpp.html" target="_top" xlink:title=" ">
<polygon fill="none" stroke="black" points="345,-56.5 345,-75.5 473,-75.5 473,-56.5 345,-56.5"/>
<text text-anchor="middle" x="409" y="-63.5" font-family="Helvetica,sans-Serif" font-size="10.00">../Geometry/Maths.hpp</text>
</a>
</g>
</g>
<!-- Node2&#45;&gt;Node6 -->
<g id="edge23" class="edge">
<title>Node2&#45;&gt;Node6</title>
<path fill="none" stroke="midnightblue" d="M391.94,-287.49C338.37,-279.96 266.23,-266.02 248,-244 210.17,-198.29 224.38,-152.23 268,-112 286.43,-95 311.29,-84.43 335,-77.84"/>
<polygon fill="midnightblue" stroke="midnightblue" points="335.9,-81.23 344.72,-75.34 334.16,-74.45 335.9,-81.23"/>
</g>
<!-- Node19 -->
<g id="node19" class="node">
<title>Node19</title>
<g id="a_node19"><a xlink:href="_bounds_8hpp.html" target="_top" xlink:title=" ">
<polygon fill="none" stroke="black" points="372,-168.5 372,-187.5 446,-187.5 446,-168.5 372,-168.5"/>
<text text-anchor="middle" x="409" y="-175.5" font-family="Helvetica,sans-Serif" font-size="10.00">Bounds.hpp</text>
</a>
</g>
</g>
<!-- Node2&#45;&gt;Node19 -->
<g id="edge18" class="edge">
<title>Node2&#45;&gt;Node19</title>
<path fill="none" stroke="midnightblue" d="M447.6,-280.34C439.64,-259.43 424.74,-220.31 415.96,-197.27"/>
<polygon fill="midnightblue" stroke="midnightblue" points="419.13,-195.77 412.3,-187.67 412.59,-198.26 419.13,-195.77"/>
</g>
<!-- Node20 -->
<g id="node20" class="node">
<title>Node20</title>
<g id="a_node20"><a xlink:href="_vector_8hpp.html" target="_top" xlink:title=" ">
<polygon fill="none" stroke="black" points="439,-112.5 439,-131.5 507,-131.5 507,-112.5 439,-112.5"/>
<text text-anchor="middle" x="473" y="-119.5" font-family="Helvetica,sans-Serif" font-size="10.00">Vector.hpp</text>
</a>
</g>
</g>
<!-- Node2&#45;&gt;Node20 -->
<g id="edge24" class="edge">
<title>Node2&#45;&gt;Node20</title>
<path fill="none" stroke="midnightblue" d="M454.64,-280.47C458.22,-249.7 466.78,-176.33 470.82,-141.7"/>
<polygon fill="midnightblue" stroke="midnightblue" points="474.32,-141.9 472,-131.56 467.37,-141.09 474.32,-141.9"/>
</g>
<!-- Node21 -->
<g id="node21" class="node">
<title>Node21</title>
<g id="a_node21"><a xlink:title=" ">
<polygon fill="none" stroke="#bfbfbf" points="597,-224.5 597,-243.5 665,-243.5 665,-224.5 597,-224.5"/>
<text text-anchor="middle" x="631" y="-231.5" font-family="Helvetica,sans-Serif" font-size="10.00">Config.hpp</text>
</a>
</g>
</g>
<!-- Node2&#45;&gt;Node21 -->
<g id="edge22" class="edge">
<title>Node2&#45;&gt;Node21</title>
<path fill="none" stroke="midnightblue" d="M495.18,-280.4C525.81,-270.16 566.77,-256.47 595.67,-246.81"/>
<polygon fill="midnightblue" stroke="midnightblue" points="596.98,-250.06 605.36,-243.57 594.77,-243.42 596.98,-250.06"/>
</g>
<!-- Node22 -->
<g id="node22" class="node">
<title>Node22</title>
<g id="a_node22"><a xlink:href="_vertices_8hpp.html" target="_top" xlink:title=" ">
<polygon fill="none" stroke="black" points="501.5,-224.5 501.5,-243.5 578.5,-243.5 578.5,-224.5 501.5,-224.5"/>
<text text-anchor="middle" x="540" y="-231.5" font-family="Helvetica,sans-Serif" font-size="10.00">Vertices.hpp</text>
</a>
</g>
</g>
<!-- Node2&#45;&gt;Node22 -->
<g id="edge25" class="edge">
<title>Node2&#45;&gt;Node22</title>
<path fill="none" stroke="midnightblue" d="M473.62,-280.4C487.3,-271.04 505.21,-258.79 518.98,-249.38"/>
<polygon fill="midnightblue" stroke="midnightblue" points="521.06,-252.19 527.34,-243.66 517.11,-246.41 521.06,-252.19"/>
</g>
<!-- Node4 -->
<g id="node4" class="node">
<title>Node4</title>
<g id="a_node4"><a xlink:href="_performance_8hpp.html" target="_top" xlink:title=" ">
<polygon fill="none" stroke="black" points="254,-168.5 254,-187.5 354,-187.5 354,-168.5 254,-168.5"/>
<text text-anchor="middle" x="304" y="-175.5" font-family="Helvetica,sans-Serif" font-size="10.00">Performance.hpp</text>
</a>
</g>
</g>
<!-- Node3&#45;&gt;Node4 -->
<g id="edge3" class="edge">
<title>Node3&#45;&gt;Node4</title>
<path fill="none" stroke="midnightblue" d="M326.54,-224.08C322.85,-216.69 317.48,-205.95 312.91,-196.81"/>
<polygon fill="midnightblue" stroke="midnightblue" points="315.98,-195.13 308.38,-187.75 309.72,-198.26 315.98,-195.13"/>
</g>
<!-- Node5 -->
<g id="node5" class="node">
<title>Node5</title>
<g id="a_node5"><a xlink:href="_block_data_8hpp.html" target="_top" xlink:title=" ">
<polygon fill="none" stroke="black" points="277,-112.5 277,-131.5 365,-131.5 365,-112.5 277,-112.5"/>
<text text-anchor="middle" x="321" y="-119.5" font-family="Helvetica,sans-Serif" font-size="10.00">BlockData.hpp</text>
</a>
</g>
</g>
<!-- Node4&#45;&gt;Node5 -->
<g id="edge4" class="edge">
<title>Node4&#45;&gt;Node5</title>
<path fill="none" stroke="midnightblue" d="M306.81,-168.08C309.08,-160.85 312.37,-150.41 315.21,-141.4"/>
<polygon fill="midnightblue" stroke="midnightblue" points="318.58,-142.34 318.25,-131.75 311.9,-140.24 318.58,-142.34"/>
</g>
<!-- Node5&#45;&gt;Node6 -->
<g id="edge5" class="edge">
<title>Node5&#45;&gt;Node6</title>
<path fill="none" stroke="midnightblue" d="M335.14,-112.32C348.87,-103.9 369.94,-90.97 386.06,-81.07"/>
<polygon fill="midnightblue" stroke="midnightblue" points="388.2,-83.87 394.9,-75.65 384.54,-77.9 388.2,-83.87"/>
</g>
<!-- Node7 -->
<g id="node7" class="node">
<title>Node7</title>
<g id="a_node7"><a xlink:title=" ">
<polygon fill="none" stroke="#bfbfbf" points="0,-0.5 0,-19.5 42,-19.5 42,-0.5 0,-0.5"/>
<text text-anchor="middle" x="21" y="-7.5" font-family="Helvetica,sans-Serif" font-size="10.00">array</text>
</a>
</g>
</g>
<!-- Node6&#45;&gt;Node7 -->
<g id="edge6" class="edge">
<title>Node6&#45;&gt;Node7</title>
<path fill="none" stroke="midnightblue" d="M344.77,-60.17C274.88,-54.19 159.81,-42.22 52.24,-19.95"/>
<polygon fill="midnightblue" stroke="midnightblue" points="52.7,-16.47 42.19,-17.83 51.26,-23.32 52.7,-16.47"/>
</g>
<!-- Node8 -->
<g id="node8" class="node">
<title>Node8</title>
<g id="a_node8"><a xlink:title=" ">
<polygon fill="none" stroke="#bfbfbf" points="60,-0.5 60,-19.5 110,-19.5 110,-0.5 60,-0.5"/>
<text text-anchor="middle" x="85" y="-7.5" font-family="Helvetica,sans-Serif" font-size="10.00">chrono</text>
</a>
</g>
</g>
<!-- Node6&#45;&gt;Node8 -->
<g id="edge7" class="edge">
<title>Node6&#45;&gt;Node8</title>
<path fill="none" stroke="midnightblue" d="M344.72,-56.99C287.97,-49.48 202.83,-37.12 120.01,-20.03"/>
<polygon fill="midnightblue" stroke="midnightblue" points="120.69,-16.6 110.18,-17.98 119.25,-23.45 120.69,-16.6"/>
</g>
<!-- Node9 -->
<g id="node9" class="node">
<title>Node9</title>
<g id="a_node9"><a xlink:title=" ">
<polygon fill="none" stroke="#bfbfbf" points="128.5,-0.5 128.5,-19.5 175.5,-19.5 175.5,-0.5 128.5,-0.5"/>
<text text-anchor="middle" x="152" y="-7.5" font-family="Helvetica,sans-Serif" font-size="10.00">cmath</text>
</a>
</g>
</g>
<!-- Node6&#45;&gt;Node9 -->
<g id="edge8" class="edge">
<title>Node6&#45;&gt;Node9</title>
<path fill="none" stroke="midnightblue" d="M360.92,-56.49C317.44,-48.55 251.45,-35.88 185.82,-20.31"/>
<polygon fill="midnightblue" stroke="midnightblue" points="186.25,-16.81 175.71,-17.89 184.62,-23.62 186.25,-16.81"/>
</g>
<!-- Node10 -->
<g id="node10" class="node">
<title>Node10</title>
<g id="a_node10"><a xlink:title=" ">
<polygon fill="none" stroke="#bfbfbf" points="193.5,-0.5 193.5,-19.5 240.5,-19.5 240.5,-0.5 193.5,-0.5"/>
<text text-anchor="middle" x="217" y="-7.5" font-family="Helvetica,sans-Serif" font-size="10.00">deque</text>
</a>
</g>
</g>
<!-- Node6&#45;&gt;Node10 -->
<g id="edge9" class="edge">
<title>Node6&#45;&gt;Node10</title>
<path fill="none" stroke="midnightblue" d="M378.58,-56.44C343.74,-46.65 286.83,-30.64 250.68,-20.47"/>
<polygon fill="midnightblue" stroke="midnightblue" points="251.2,-16.98 240.62,-17.64 249.3,-23.72 251.2,-16.98"/>
</g>
<!-- Node11 -->
<g id="node11" class="node">
<title>Node11</title>
<g id="a_node11"><a xlink:title=" ">
<polygon fill="none" stroke="#bfbfbf" points="258.5,-0.5 258.5,-19.5 323.5,-19.5 323.5,-0.5 258.5,-0.5"/>
<text text-anchor="middle" x="291" y="-7.5" font-family="Helvetica,sans-Serif" font-size="10.00">functional</text>
</a>
</g>
</g>
<!-- Node6&#45;&gt;Node11 -->
<g id="edge10" class="edge">
<title>Node6&#45;&gt;Node11</title>
<path fill="none" stroke="midnightblue" d="M390.3,-56.44C371.06,-47.64 340.85,-33.81 318.8,-23.72"/>
<polygon fill="midnightblue" stroke="midnightblue" points="320.16,-20.5 309.61,-19.52 317.25,-26.86 320.16,-20.5"/>
</g>
<!-- Node12 -->
<g id="node12" class="node">
<title>Node12</title>
<g id="a_node12"><a xlink:title=" ">
<polygon fill="none" stroke="#bfbfbf" points="342,-0.5 342,-19.5 402,-19.5 402,-0.5 342,-0.5"/>
<text text-anchor="middle" x="372" y="-7.5" font-family="Helvetica,sans-Serif" font-size="10.00">iostream</text>
</a>
</g>
</g>
<!-- Node6&#45;&gt;Node12 -->
<g id="edge11" class="edge">
<title>Node6&#45;&gt;Node12</title>
<path fill="none" stroke="midnightblue" d="M402.89,-56.08C397.72,-48.53 390.15,-37.49 383.81,-28.23"/>
<polygon fill="midnightblue" stroke="midnightblue" points="386.54,-26.02 378,-19.75 380.76,-29.98 386.54,-26.02"/>
</g>
<!-- Node13 -->
<g id="node13" class="node">
<title>Node13</title>
<g id="a_node13"><a xlink:title=" ">
<polygon fill="none" stroke="#bfbfbf" points="420.5,-0.5 420.5,-19.5 473.5,-19.5 473.5,-0.5 420.5,-0.5"/>
<text text-anchor="middle" x="447" y="-7.5" font-family="Helvetica,sans-Serif" font-size="10.00">iterator</text>
</a>
</g>
</g>
<!-- Node6&#45;&gt;Node13 -->
<g id="edge12" class="edge">
<title>Node6&#45;&gt;Node13</title>
<path fill="none" stroke="midnightblue" d="M415.27,-56.08C420.64,-48.46 428.52,-37.26 435.08,-27.94"/>
<polygon fill="midnightblue" stroke="midnightblue" points="437.95,-29.94 440.84,-19.75 432.22,-25.91 437.95,-29.94"/>
</g>
<!-- Node14 -->
<g id="node14" class="node">
<title>Node14</title>
<g id="a_node14"><a xlink:title=" ">
<polygon fill="none" stroke="#bfbfbf" points="492,-0.5 492,-19.5 550,-19.5 550,-0.5 492,-0.5"/>
<text text-anchor="middle" x="521" y="-7.5" font-family="Helvetica,sans-Serif" font-size="10.00">memory</text>
</a>
</g>
</g>
<!-- Node6&#45;&gt;Node14 -->
<g id="edge13" class="edge">
<title>Node6&#45;&gt;Node14</title>
<path fill="none" stroke="midnightblue" d="M426.99,-56.32C445.04,-47.62 473.05,-34.12 493.8,-24.11"/>
<polygon fill="midnightblue" stroke="midnightblue" points="495.56,-27.15 503.05,-19.65 492.52,-20.84 495.56,-27.15"/>
</g>
<!-- Node15 -->
<g id="node15" class="node">
<title>Node15</title>
<g id="a_node15"><a xlink:title=" ">
<polygon fill="none" stroke="#bfbfbf" points="568,-0.5 568,-19.5 624,-19.5 624,-0.5 568,-0.5"/>
<text text-anchor="middle" x="596" y="-7.5" font-family="Helvetica,sans-Serif" font-size="10.00">sstream</text>
</a>
</g>
</g>
<!-- Node6&#45;&gt;Node15 -->
<g id="edge14" class="edge">
<title>Node6&#45;&gt;Node15</title>
<path fill="none" stroke="midnightblue" d="M438.63,-56.44C470.88,-47.13 522.53,-32.22 557.8,-22.03"/>
<polygon fill="midnightblue" stroke="midnightblue" points="559.1,-25.3 567.73,-19.16 557.15,-18.57 559.1,-25.3"/>
</g>
<!-- Node16 -->
<g id="node16" class="node">
<title>Node16</title>
<g id="a_node16"><a xlink:title=" ">
<polygon fill="none" stroke="#bfbfbf" points="642.5,-0.5 642.5,-19.5 715.5,-19.5 715.5,-0.5 642.5,-0.5"/>
<text text-anchor="middle" x="679" y="-7.5" font-family="Helvetica,sans-Serif" font-size="10.00">string_view</text>
</a>
</g>
</g>
<!-- Node6&#45;&gt;Node16 -->
<g id="edge15" class="edge">
<title>Node6&#45;&gt;Node16</title>
<path fill="none" stroke="midnightblue" d="M451.78,-56.44C501.03,-46.59 581.63,-30.47 632.43,-20.31"/>
<polygon fill="midnightblue" stroke="midnightblue" points="633.36,-23.7 642.48,-18.3 631.99,-16.83 633.36,-23.7"/>
</g>
<!-- Node17 -->
<g id="node17" class="node">
<title>Node17</title>
<g id="a_node17"><a xlink:title=" ">
<polygon fill="none" stroke="#bfbfbf" points="733.5,-0.5 733.5,-19.5 826.5,-19.5 826.5,-0.5 733.5,-0.5"/>
<text text-anchor="middle" x="780" y="-7.5" font-family="Helvetica,sans-Serif" font-size="10.00">unordered_map</text>
</a>
</g>
</g>
<!-- Node6&#45;&gt;Node17 -->
<g id="edge16" class="edge">
<title>Node6&#45;&gt;Node17</title>
<path fill="none" stroke="midnightblue" d="M471.71,-56.46C533.33,-47.98 630.31,-34.4 723.61,-20.19"/>
<polygon fill="midnightblue" stroke="midnightblue" points="724.14,-23.65 733.5,-18.68 723.09,-16.73 724.14,-23.65"/>
</g>
<!-- Node18 -->
<g id="node18" class="node">
<title>Node18</title>
<g id="a_node18"><a xlink:title=" ">
<polygon fill="none" stroke="#bfbfbf" points="844.5,-0.5 844.5,-19.5 891.5,-19.5 891.5,-0.5 844.5,-0.5"/>
<text text-anchor="middle" x="868" y="-7.5" font-family="Helvetica,sans-Serif" font-size="10.00">vector</text>
</a>
</g>
</g>
<!-- Node6&#45;&gt;Node18 -->
<g id="edge17" class="edge">
<title>Node6&#45;&gt;Node18</title>
<path fill="none" stroke="midnightblue" d="M473.16,-61.63C555.08,-56.57 701.26,-45.02 834.37,-20.04"/>
<polygon fill="midnightblue" stroke="midnightblue" points="835.17,-23.45 844.34,-18.14 833.86,-16.57 835.17,-23.45"/>
</g>
<!-- Node19&#45;&gt;Node6 -->
<g id="edge19" class="edge">
<title>Node19&#45;&gt;Node6</title>
<path fill="none" stroke="midnightblue" d="M409,-168.37C409,-150.62 409,-109.67 409,-85.6"/>
<polygon fill="midnightblue" stroke="midnightblue" points="412.5,-85.59 409,-75.59 405.5,-85.59 412.5,-85.59"/>
</g>
<!-- Node19&#45;&gt;Node20 -->
<g id="edge20" class="edge">
<title>Node19&#45;&gt;Node20</title>
<path fill="none" stroke="midnightblue" d="M419.28,-168.32C428.84,-160.26 443.28,-148.08 454.78,-138.37"/>
<polygon fill="midnightblue" stroke="midnightblue" points="457.14,-140.96 462.53,-131.83 452.63,-135.61 457.14,-140.96"/>
</g>
<!-- Node20&#45;&gt;Node6 -->
<g id="edge21" class="edge">
<title>Node20&#45;&gt;Node6</title>
<path fill="none" stroke="midnightblue" d="M462.72,-112.32C453.16,-104.26 438.72,-92.08 427.22,-82.37"/>
<polygon fill="midnightblue" stroke="midnightblue" points="429.37,-79.61 419.47,-75.83 424.86,-84.96 429.37,-79.61"/>
</g>
<!-- Node22&#45;&gt;Node6 -->
<g id="edge27" class="edge">
<title>Node22&#45;&gt;Node6</title>
<path fill="none" stroke="midnightblue" d="M540.85,-224.24C542.46,-202.59 543.62,-145.85 516,-112 502.76,-95.77 482.63,-85.3 463.39,-78.59"/>
<polygon fill="midnightblue" stroke="midnightblue" points="464.35,-75.22 453.76,-75.5 462.21,-81.89 464.35,-75.22"/>
</g>
<!-- Node22&#45;&gt;Node19 -->
<g id="edge26" class="edge">
<title>Node22&#45;&gt;Node19</title>
<path fill="none" stroke="midnightblue" d="M519.24,-224.44C497.68,-215.56 463.74,-201.56 439.21,-191.45"/>
<polygon fill="midnightblue" stroke="midnightblue" points="440.24,-188.09 429.66,-187.52 437.57,-194.56 440.24,-188.09"/>
</g>
<!-- Node22&#45;&gt;Node20 -->
<g id="edge28" class="edge">
<title>Node22&#45;&gt;Node20</title>
<path fill="none" stroke="midnightblue" d="M534.74,-224.37C523.73,-206.3 498.08,-164.18 483.54,-140.31"/>
<polygon fill="midnightblue" stroke="midnightblue" points="486.42,-138.31 478.23,-131.59 480.45,-141.95 486.42,-138.31"/>
</g>
</g>
</svg>
