<?xml version="1.0" encoding="UTF-8" standalone="no"?>
<!DOCTYPE svg PUBLIC "-//W3C//DTD SVG 1.1//EN"
 "http://www.w3.org/Graphics/SVG/1.1/DTD/svg11.dtd">
<!-- Generated by graphviz version 2.43.0 (0)
 -->
<!-- Title: /home/runner/work/Simulatio/Simulatio/renderer/src/Renderer/Gui.cpp Pages: 1 -->
<svg width="1993pt" height="240pt"
 viewBox="0.00 0.00 1992.50 240.00" xmlns="http://www.w3.org/2000/svg" xmlns:xlink="http://www.w3.org/1999/xlink">
<g id="graph0" class="graph" transform="scale(1 1) rotate(0) translate(4 236)">
<title>/home/runner/work/Simulatio/Simulatio/renderer/src/Renderer/Gui.cpp</title>
<!-- Node1 -->
<g id="node1" class="node">
<title>Node1</title>
<g id="a_node1"><a xlink:title=" ">
<polygon fill="#bfbfbf" stroke="black" points="837,-190.5 837,-231.5 995,-231.5 995,-190.5 837,-190.5"/>
<text text-anchor="start" x="845" y="-219.5" font-family="Helvetica,sans-Serif" font-size="10.00">/home/runner/work/Simulatio</text>
<text text-anchor="start" x="845" y="-208.5" font-family="Helvetica,sans-Serif" font-size="10.00">/Simulatio/renderer/src</text>
<text text-anchor="middle" x="916" y="-197.5" font-family="Helvetica,sans-Serif" font-size="10.00">/Renderer/Gui.cpp</text>
</a>
</g>
</g>
<!-- Node2 -->
<g id="node2" class="node">
<title>Node2</title>
<g id="a_node2"><a xlink:href="_renderer_8hpp.html" target="_top" xlink:title=" ">
<polygon fill="none" stroke="black" points="857.5,-123.5 857.5,-153.5 974.5,-153.5 974.5,-123.5 857.5,-123.5"/>
<text text-anchor="start" x="865.5" y="-141.5" font-family="Helvetica,sans-Serif" font-size="10.00">../../include/Renderer</text>
<text text-anchor="middle" x="916" y="-130.5" font-family="Helvetica,sans-Serif" font-size="10.00">/Renderer.hpp</text>
</a>
</g>
</g>
<!-- Node1&#45;&gt;Node2 -->
<g id="edge1" class="edge">
<title>Node1&#45;&gt;Node2</title>
<path fill="none" stroke="midnightblue" d="M916,-190.36C916,-182.23 916,-172.7 916,-164.11"/>
<polygon fill="midnightblue" stroke="midnightblue" points="919.5,-163.89 916,-153.89 912.5,-163.89 919.5,-163.89"/>
</g>
<!-- Node3 -->
<g id="node3" class="node">
<title>Node3</title>
<g id="a_node3"><a xlink:title=" ">
<polygon fill="none" stroke="#bfbfbf" points="0,-0.5 0,-19.5 110,-19.5 110,-0.5 0,-0.5"/>
<text text-anchor="middle" x="55" y="-7.5" font-family="Helvetica,sans-Serif" font-size="10.00">SFML/Graphics.hpp</text>
</a>
</g>
</g>
<!-- Node2&#45;&gt;Node3 -->
<g id="edge2" class="edge">
<title>Node2&#45;&gt;Node3</title>
<path fill="none" stroke="midnightblue" d="M857.44,-137.81C676.94,-138.26 137.61,-135.47 77,-87 60.02,-73.42 55.63,-47.59 54.75,-29.84"/>
<polygon fill="midnightblue" stroke="midnightblue" points="58.25,-29.73 54.58,-19.79 51.25,-29.85 58.25,-29.73"/>
</g>
<!-- Node4 -->
<g id="node4" class="node">
<title>Node4</title>
<g id="a_node4"><a xlink:title=" ">
<polygon fill="none" stroke="#bfbfbf" points="228.5,-62 228.5,-81 319.5,-81 319.5,-62 228.5,-62"/>
<text text-anchor="middle" x="274" y="-69" font-family="Helvetica,sans-Serif" font-size="10.00">SFML/Main.hpp</text>
</a>
</g>
</g>
<!-- Node2&#45;&gt;Node4 -->
<g id="edge3" class="edge">
<title>Node2&#45;&gt;Node4</title>
<path fill="none" stroke="midnightblue" d="M857.25,-135.79C751.08,-131.95 520.48,-120.22 329,-87 323.59,-86.06 317.93,-84.85 312.39,-83.52"/>
<polygon fill="midnightblue" stroke="midnightblue" points="313.18,-80.11 302.62,-81.04 311.46,-86.89 313.18,-80.11"/>
</g>
<!-- Node5 -->
<g id="node5" class="node">
<title>Node5</title>
<g id="a_node5"><a xlink:title=" ">
<polygon fill="none" stroke="#bfbfbf" points="338,-56.5 338,-86.5 432,-86.5 432,-56.5 338,-56.5"/>
<text text-anchor="start" x="346" y="-74.5" font-family="Helvetica,sans-Serif" font-size="10.00">../../assets/fonts</text>
<text text-anchor="middle" x="385" y="-63.5" font-family="Helvetica,sans-Serif" font-size="10.00">/consolas.hpp</text>
</a>
</g>
</g>
<!-- Node2&#45;&gt;Node5 -->
<g id="edge4" class="edge">
<title>Node2&#45;&gt;Node5</title>
<path fill="none" stroke="midnightblue" d="M857.47,-134.07C769.36,-128.28 597.3,-114.61 442.42,-87.09"/>
<polygon fill="midnightblue" stroke="midnightblue" points="442.71,-83.58 432.25,-85.26 441.47,-90.47 442.71,-83.58"/>
</g>
<!-- Node6 -->
<g id="node6" class="node">
<title>Node6</title>
<g id="a_node6"><a xlink:title=" ">
<polygon fill="none" stroke="#bfbfbf" points="450,-56.5 450,-86.5 560,-86.5 560,-56.5 450,-56.5"/>
<text text-anchor="start" x="458" y="-74.5" font-family="Helvetica,sans-Serif" font-size="10.00">../../assets/fonts</text>
<text text-anchor="middle" x="505" y="-63.5" font-family="Helvetica,sans-Serif" font-size="10.00">/forkawersome.hpp</text>
</a>
</g>
</g>
<!-- Node2&#45;&gt;Node6 -->
<g id="edge5" class="edge">
<title>Node2&#45;&gt;Node6</title>
<path fill="none" stroke="midnightblue" d="M857.44,-130.4C790.37,-121.95 676.98,-106.69 570.09,-87.12"/>
<polygon fill="midnightblue" stroke="midnightblue" points="570.57,-83.65 560.1,-85.27 569.3,-90.53 570.57,-83.65"/>
</g>
<!-- Node7 -->
<g id="node7" class="node">
<title>Node7</title>
<g id="a_node7"><a xlink:title=" ">
<polygon fill="none" stroke="#bfbfbf" points="578,-56.5 578,-86.5 672,-86.5 672,-56.5 578,-56.5"/>
<text text-anchor="start" x="586" y="-74.5" font-family="Helvetica,sans-Serif" font-size="10.00">../../assets/fonts</text>
<text text-anchor="middle" x="625" y="-63.5" font-family="Helvetica,sans-Serif" font-size="10.00">/icons.hpp</text>
</a>
</g>
</g>
<!-- Node2&#45;&gt;Node7 -->
<g id="edge6" class="edge">
<title>Node2&#45;&gt;Node7</title>
<path fill="none" stroke="midnightblue" d="M857.42,-125.62C812.11,-116.27 747.57,-102.6 682.11,-87.21"/>
<polygon fill="midnightblue" stroke="midnightblue" points="682.56,-83.72 672.02,-84.83 680.95,-90.53 682.56,-83.72"/>
</g>
<!-- Node8 -->
<g id="node8" class="node">
<title>Node8</title>
<g id="a_node8"><a xlink:title=" ">
<polygon fill="none" stroke="#bfbfbf" points="690,-56.5 690,-86.5 784,-86.5 784,-56.5 690,-56.5"/>
<text text-anchor="start" x="698" y="-74.5" font-family="Helvetica,sans-Serif" font-size="10.00">../../assets/fonts</text>
<text text-anchor="middle" x="737" y="-63.5" font-family="Helvetica,sans-Serif" font-size="10.00">/proggy.hpp</text>
</a>
</g>
</g>
<!-- Node2&#45;&gt;Node8 -->
<g id="edge7" class="edge">
<title>Node2&#45;&gt;Node8</title>
<path fill="none" stroke="midnightblue" d="M877.16,-123.4C850.18,-113.6 814.06,-100.48 785.23,-90.02"/>
<polygon fill="midnightblue" stroke="midnightblue" points="786.36,-86.7 775.76,-86.58 783.97,-93.28 786.36,-86.7"/>
</g>
<!-- Node9 -->
<g id="node9" class="node">
<title>Node9</title>
<g id="a_node9"><a xlink:title=" ">
<polygon fill="none" stroke="#bfbfbf" points="802,-56.5 802,-86.5 896,-86.5 896,-56.5 802,-56.5"/>
<text text-anchor="start" x="810" y="-74.5" font-family="Helvetica,sans-Serif" font-size="10.00">../../assets/fonts</text>
<text text-anchor="middle" x="849" y="-63.5" font-family="Helvetica,sans-Serif" font-size="10.00">/roboto.hpp</text>
</a>
</g>
</g>
<!-- Node2&#45;&gt;Node9 -->
<g id="edge8" class="edge">
<title>Node2&#45;&gt;Node9</title>
<path fill="none" stroke="midnightblue" d="M901.46,-123.4C892.51,-114.71 880.86,-103.4 870.81,-93.66"/>
<polygon fill="midnightblue" stroke="midnightblue" points="873.12,-91.03 863.51,-86.58 868.25,-96.05 873.12,-91.03"/>
</g>
<!-- Node10 -->
<g id="node10" class="node">
<title>Node10</title>
<g id="a_node10"><a xlink:title=" ">
<polygon fill="none" stroke="#bfbfbf" points="914.5,-62 914.5,-81 1051.5,-81 1051.5,-62 914.5,-62"/>
<text text-anchor="middle" x="983" y="-69" font-family="Helvetica,sans-Serif" font-size="10.00">../../assets/icon/ricon.hpp</text>
</a>
</g>
</g>
<!-- Node2&#45;&gt;Node10 -->
<g id="edge9" class="edge">
<title>Node2&#45;&gt;Node10</title>
<path fill="none" stroke="midnightblue" d="M930.54,-123.4C941.19,-113.06 955.66,-99.02 966.7,-88.31"/>
<polygon fill="midnightblue" stroke="midnightblue" points="969.3,-90.67 974.04,-81.19 964.42,-85.65 969.3,-90.67"/>
</g>
<!-- Node11 -->
<g id="node11" class="node">
<title>Node11</title>
<g id="a_node11"><a xlink:title=" ">
<polygon fill="none" stroke="#bfbfbf" points="128,-0.5 128,-19.5 274,-19.5 274,-0.5 128,-0.5"/>
<text text-anchor="middle" x="201" y="-7.5" font-family="Helvetica,sans-Serif" font-size="10.00">../Geometry/Geometry.hpp</text>
</a>
</g>
</g>
<!-- Node2&#45;&gt;Node11 -->
<g id="edge10" class="edge">
<title>Node2&#45;&gt;Node11</title>
<path fill="none" stroke="midnightblue" d="M857.32,-137.16C698.18,-135.69 267.1,-127.95 219,-87 202.74,-73.16 199.67,-47.58 199.72,-29.95"/>
<polygon fill="midnightblue" stroke="midnightblue" points="203.23,-29.83 200.1,-19.71 196.23,-29.58 203.23,-29.83"/>
</g>
<!-- Node12 -->
<g id="node12" class="node">
<title>Node12</title>
<g id="a_node12"><a xlink:title=" ">
<polygon fill="none" stroke="#bfbfbf" points="986,-0.5 986,-19.5 1114,-19.5 1114,-0.5 986,-0.5"/>
<text text-anchor="middle" x="1050" y="-7.5" font-family="Helvetica,sans-Serif" font-size="10.00">../Geometry/Maths.hpp</text>
</a>
</g>
</g>
<!-- Node2&#45;&gt;Node12 -->
<g id="edge11" class="edge">
<title>Node2&#45;&gt;Node12</title>
<path fill="none" stroke="midnightblue" d="M974.75,-132.72C1005.51,-126.89 1040.69,-114.23 1060,-87 1071.98,-70.1 1065.69,-45.65 1058.92,-29.08"/>
<polygon fill="midnightblue" stroke="midnightblue" points="1062.1,-27.6 1054.8,-19.92 1055.71,-30.47 1062.1,-27.6"/>
</g>
<!-- Node13 -->
<g id="node13" class="node">
<title>Node13</title>
<g id="a_node13"><a xlink:title=" ">
<polygon fill="none" stroke="#bfbfbf" points="1365.5,-62 1365.5,-81 1492.5,-81 1492.5,-62 1365.5,-62"/>
<text text-anchor="middle" x="1429" y="-69" font-family="Helvetica,sans-Serif" font-size="10.00">../Geometry/String.hpp</text>
</a>
</g>
</g>
<!-- Node2&#45;&gt;Node13 -->
<g id="edge12" class="edge">
<title>Node2&#45;&gt;Node13</title>
<path fill="none" stroke="midnightblue" d="M974.71,-132.37C1059.42,-124.61 1220.74,-108.48 1357,-87 1364.44,-85.83 1372.29,-84.42 1379.95,-82.96"/>
<polygon fill="midnightblue" stroke="midnightblue" points="1380.73,-86.37 1389.87,-81.01 1379.39,-79.5 1380.73,-86.37"/>
</g>
<!-- Node14 -->
<g id="node14" class="node">
<title>Node14</title>
<g id="a_node14"><a xlink:title=" ">
<polygon fill="none" stroke="#bfbfbf" points="1511,-62 1511,-81 1639,-81 1639,-62 1511,-62"/>
<text text-anchor="middle" x="1575" y="-69" font-family="Helvetica,sans-Serif" font-size="10.00">../Geometry/Vector.hpp</text>
</a>
</g>
</g>
<!-- Node2&#45;&gt;Node14 -->
<g id="edge13" class="edge">
<title>Node2&#45;&gt;Node14</title>
<path fill="none" stroke="midnightblue" d="M974.88,-134.58C1080.77,-128.84 1310.16,-114.23 1502,-87 1509.83,-85.89 1518.08,-84.48 1526.11,-82.98"/>
<polygon fill="midnightblue" stroke="midnightblue" points="1526.96,-86.38 1536.11,-81.05 1525.63,-79.51 1526.96,-86.38"/>
</g>
<!-- Node15 -->
<g id="node15" class="node">
<title>Node15</title>
<g id="a_node15"><a xlink:title=" ">
<polygon fill="none" stroke="#bfbfbf" points="1657,-62 1657,-81 1793,-81 1793,-62 1657,-62"/>
<text text-anchor="middle" x="1725" y="-69" font-family="Helvetica,sans-Serif" font-size="10.00">../Structures/System.hpp</text>
</a>
</g>
</g>
<!-- Node2&#45;&gt;Node15 -->
<g id="edge14" class="edge">
<title>Node2&#45;&gt;Node15</title>
<path fill="none" stroke="midnightblue" d="M974.58,-135.79C1099.03,-131.65 1398.77,-118.95 1648,-87 1656.53,-85.91 1665.55,-84.47 1674.29,-82.92"/>
<polygon fill="midnightblue" stroke="midnightblue" points="1675.18,-86.32 1684.38,-81.07 1673.91,-79.43 1675.18,-86.32"/>
</g>
<!-- Node16 -->
<g id="node16" class="node">
<title>Node16</title>
<g id="a_node16"><a xlink:title=" ">
<polygon fill="none" stroke="#bfbfbf" points="1811,-62 1811,-81 1879,-81 1879,-62 1811,-62"/>
<text text-anchor="middle" x="1845" y="-69" font-family="Helvetica,sans-Serif" font-size="10.00">Config.hpp</text>
</a>
</g>
</g>
<!-- Node2&#45;&gt;Node16 -->
<g id="edge15" class="edge">
<title>Node2&#45;&gt;Node16</title>
<path fill="none" stroke="midnightblue" d="M974.62,-136.21C1145.77,-132.11 1642.7,-117.82 1802,-87 1805.89,-86.25 1809.91,-85.23 1813.87,-84.08"/>
<polygon fill="midnightblue" stroke="midnightblue" points="1814.97,-87.41 1823.43,-81.03 1812.84,-80.74 1814.97,-87.41"/>
</g>
<!-- Node17 -->
<g id="node17" class="node">
<title>Node17</title>
<g id="a_node17"><a xlink:href="_converter_8hpp.html" target="_top" xlink:title=" ">
<polygon fill="none" stroke="black" points="86.5,-62 86.5,-81 171.5,-81 171.5,-62 86.5,-62"/>
<text text-anchor="middle" x="129" y="-69" font-family="Helvetica,sans-Serif" font-size="10.00">Converter.hpp</text>
</a>
</g>
</g>
<!-- Node2&#45;&gt;Node17 -->
<g id="edge16" class="edge">
<title>Node2&#45;&gt;Node17</title>
<path fill="none" stroke="midnightblue" d="M857.4,-137.01C732.95,-135.2 433.42,-126.7 186,-87 180.19,-86.07 174.1,-84.82 168.16,-83.45"/>
<polygon fill="midnightblue" stroke="midnightblue" points="168.92,-80.03 158.37,-81.05 167.25,-86.83 168.92,-80.03"/>
</g>
<!-- Node18 -->
<g id="node18" class="node">
<title>Node18</title>
<g id="a_node18"><a xlink:href="_editor_color_scheme_8hpp.html" target="_top" xlink:title=" ">
<polygon fill="none" stroke="black" points="1216.5,-62 1216.5,-81 1347.5,-81 1347.5,-62 1216.5,-62"/>
<text text-anchor="middle" x="1282" y="-69" font-family="Helvetica,sans-Serif" font-size="10.00">EditorColorScheme.hpp</text>
</a>
</g>
</g>
<!-- Node2&#45;&gt;Node18 -->
<g id="edge19" class="edge">
<title>Node2&#45;&gt;Node18</title>
<path fill="none" stroke="midnightblue" d="M974.58,-127.67C1033.39,-117.73 1126.56,-101.75 1207,-87 1213.84,-85.75 1221.02,-84.4 1228.11,-83.05"/>
<polygon fill="midnightblue" stroke="midnightblue" points="1229.24,-86.39 1238.4,-81.08 1227.92,-79.52 1229.24,-86.39"/>
</g>
<!-- Node22 -->
<g id="node22" class="node">
<title>Node22</title>
<g id="a_node22"><a xlink:href="_gui_module_8hpp.html" target="_top" xlink:title=" ">
<polygon fill="none" stroke="black" points="1108,-62 1108,-81 1198,-81 1198,-62 1108,-62"/>
<text text-anchor="middle" x="1153" y="-69" font-family="Helvetica,sans-Serif" font-size="10.00">GuiModule.hpp</text>
</a>
</g>
</g>
<!-- Node2&#45;&gt;Node22 -->
<g id="edge23" class="edge">
<title>Node2&#45;&gt;Node22</title>
<path fill="none" stroke="midnightblue" d="M967.13,-123.48C1010.54,-111.57 1072,-94.72 1112.17,-83.7"/>
<polygon fill="midnightblue" stroke="midnightblue" points="1113.19,-87.05 1121.9,-81.03 1111.33,-80.3 1113.19,-87.05"/>
</g>
<!-- Node23 -->
<g id="node23" class="node">
<title>Node23</title>
<g id="a_node23"><a xlink:href="_structures_8hpp.html" target="_top" xlink:title=" ">
<polygon fill="none" stroke="black" points="1897.5,-62 1897.5,-81 1984.5,-81 1984.5,-62 1897.5,-62"/>
<text text-anchor="middle" x="1941" y="-69" font-family="Helvetica,sans-Serif" font-size="10.00">Structures.hpp</text>
</a>
</g>
</g>
<!-- Node2&#45;&gt;Node23 -->
<g id="edge28" class="edge">
<title>Node2&#45;&gt;Node23</title>
<path fill="none" stroke="midnightblue" d="M974.66,-136.11C1156.72,-131.52 1710.53,-115.54 1888,-87 1893.42,-86.13 1899.07,-84.92 1904.59,-83.56"/>
<polygon fill="midnightblue" stroke="midnightblue" points="1905.5,-86.94 1914.28,-81.01 1903.72,-80.17 1905.5,-86.94"/>
</g>
<!-- Node17&#45;&gt;Node3 -->
<g id="edge17" class="edge">
<title>Node17&#45;&gt;Node3</title>
<path fill="none" stroke="midnightblue" d="M118.4,-61.98C106.75,-52.61 87.81,-37.38 73.67,-26.01"/>
<polygon fill="midnightblue" stroke="midnightblue" points="75.57,-23.05 65.58,-19.51 71.18,-28.5 75.57,-23.05"/>
</g>
<!-- Node17&#45;&gt;Node11 -->
<g id="edge18" class="edge">
<title>Node17&#45;&gt;Node11</title>
<path fill="none" stroke="midnightblue" d="M139.32,-61.98C150.65,-52.61 169.07,-37.38 182.84,-26.01"/>
<polygon fill="midnightblue" stroke="midnightblue" points="185.22,-28.58 190.7,-19.51 180.77,-23.18 185.22,-28.58"/>
</g>
<!-- Node19 -->
<g id="node19" class="node">
<title>Node19</title>
<g id="a_node19"><a xlink:title=" ">
<polygon fill="none" stroke="#bfbfbf" points="1132.5,-0.5 1132.5,-19.5 1215.5,-19.5 1215.5,-0.5 1132.5,-0.5"/>
<text text-anchor="middle" x="1174" y="-7.5" font-family="Helvetica,sans-Serif" font-size="10.00">imgui&#45;SFML.h</text>
</a>
</g>
</g>
<!-- Node18&#45;&gt;Node19 -->
<g id="edge20" class="edge">
<title>Node18&#45;&gt;Node19</title>
<path fill="none" stroke="midnightblue" d="M1266.53,-61.98C1248.72,-52.17 1219.26,-35.93 1198.37,-24.42"/>
<polygon fill="midnightblue" stroke="midnightblue" points="1199.89,-21.27 1189.45,-19.51 1196.51,-27.4 1199.89,-21.27"/>
</g>
<!-- Node20 -->
<g id="node20" class="node">
<title>Node20</title>
<g id="a_node20"><a xlink:title=" ">
<polygon fill="none" stroke="#bfbfbf" points="1233.5,-0.5 1233.5,-19.5 1286.5,-19.5 1286.5,-0.5 1233.5,-0.5"/>
<text text-anchor="middle" x="1260" y="-7.5" font-family="Helvetica,sans-Serif" font-size="10.00">imgui.h</text>
</a>
</g>
</g>
<!-- Node18&#45;&gt;Node20 -->
<g id="edge21" class="edge">
<title>Node18&#45;&gt;Node20</title>
<path fill="none" stroke="midnightblue" d="M1278.85,-61.98C1275.68,-53.4 1270.7,-39.93 1266.65,-28.98"/>
<polygon fill="midnightblue" stroke="midnightblue" points="1269.9,-27.67 1263.15,-19.51 1263.33,-30.1 1269.9,-27.67"/>
</g>
<!-- Node21 -->
<g id="node21" class="node">
<title>Node21</title>
<g id="a_node21"><a xlink:title=" ">
<polygon fill="none" stroke="#bfbfbf" points="1305,-0.5 1305,-19.5 1401,-19.5 1401,-0.5 1305,-0.5"/>
<text text-anchor="middle" x="1353" y="-7.5" font-family="Helvetica,sans-Serif" font-size="10.00">imgui_internal.h</text>
</a>
</g>
</g>
<!-- Node18&#45;&gt;Node21 -->
<g id="edge22" class="edge">
<title>Node18&#45;&gt;Node21</title>
<path fill="none" stroke="midnightblue" d="M1292.17,-61.98C1303.35,-52.61 1321.52,-37.38 1335.09,-26.01"/>
<polygon fill="midnightblue" stroke="midnightblue" points="1337.43,-28.61 1342.85,-19.51 1332.93,-23.25 1337.43,-28.61"/>
</g>
<!-- Node22&#45;&gt;Node12 -->
<g id="edge24" class="edge">
<title>Node22&#45;&gt;Node12</title>
<path fill="none" stroke="midnightblue" d="M1138.24,-61.98C1121.34,-52.21 1093.42,-36.08 1073.51,-24.58"/>
<polygon fill="midnightblue" stroke="midnightblue" points="1075.14,-21.48 1064.73,-19.51 1071.64,-27.54 1075.14,-21.48"/>
</g>
<!-- Node22&#45;&gt;Node19 -->
<g id="edge25" class="edge">
<title>Node22&#45;&gt;Node19</title>
<path fill="none" stroke="midnightblue" d="M1156.01,-61.98C1159.03,-53.4 1163.79,-39.93 1167.65,-28.98"/>
<polygon fill="midnightblue" stroke="midnightblue" points="1170.97,-30.1 1171,-19.51 1164.37,-27.77 1170.97,-30.1"/>
</g>
<!-- Node22&#45;&gt;Node20 -->
<g id="edge26" class="edge">
<title>Node22&#45;&gt;Node20</title>
<path fill="none" stroke="midnightblue" d="M1168.33,-61.98C1185.97,-52.17 1215.16,-35.93 1235.86,-24.42"/>
<polygon fill="midnightblue" stroke="midnightblue" points="1237.66,-27.43 1244.7,-19.51 1234.26,-21.31 1237.66,-27.43"/>
</g>
<!-- Node22&#45;&gt;Node21 -->
<g id="edge27" class="edge">
<title>Node22&#45;&gt;Node21</title>
<path fill="none" stroke="midnightblue" d="M1181.66,-61.98C1216.56,-51.59 1275.65,-34.01 1314.5,-22.45"/>
<polygon fill="midnightblue" stroke="midnightblue" points="1315.81,-25.72 1324.4,-19.51 1313.82,-19.01 1315.81,-25.72"/>
</g>
</g>
</svg>
