<?xml version="1.0" encoding="UTF-8" standalone="no"?>
<!DOCTYPE svg PUBLIC "-//W3C//DTD SVG 1.1//EN"
 "http://www.w3.org/Graphics/SVG/1.1/DTD/svg11.dtd">
<!-- Generated by graphviz version 2.43.0 (0)
 -->
<!-- Title: /home/runner/work/Simulatio/Simulatio/src/Renderer/GuiModule.cpp Pages: 1 -->
<svg width="835pt" height="229pt"
 viewBox="0.00 0.00 834.50 229.00" xmlns="http://www.w3.org/2000/svg" xmlns:xlink="http://www.w3.org/1999/xlink">
<g id="graph0" class="graph" transform="scale(1 1) rotate(0) translate(4 225)">
<title>/home/runner/work/Simulatio/Simulatio/src/Renderer/GuiModule.cpp</title>
<!-- Node1 -->
<g id="node1" class="node">
<title>Node1</title>
<g id="a_node1"><a xlink:title=" ">
<polygon fill="#bfbfbf" stroke="black" points="470,-179.5 470,-220.5 628,-220.5 628,-179.5 470,-179.5"/>
<text text-anchor="start" x="478" y="-208.5" font-family="Helvetica,sans-Serif" font-size="10.00">/home/runner/work/Simulatio</text>
<text text-anchor="start" x="478" y="-197.5" font-family="Helvetica,sans-Serif" font-size="10.00">/Simulatio/src/Renderer</text>
<text text-anchor="middle" x="549" y="-186.5" font-family="Helvetica,sans-Serif" font-size="10.00">/GuiModule.cpp</text>
</a>
</g>
</g>
<!-- Node2 -->
<g id="node2" class="node">
<title>Node2</title>
<g id="a_node2"><a xlink:href="_gui_module_8hpp.html" target="_top" xlink:title=" ">
<polygon fill="none" stroke="black" points="490.5,-112.5 490.5,-142.5 607.5,-142.5 607.5,-112.5 490.5,-112.5"/>
<text text-anchor="start" x="498.5" y="-130.5" font-family="Helvetica,sans-Serif" font-size="10.00">../../include/Renderer</text>
<text text-anchor="middle" x="549" y="-119.5" font-family="Helvetica,sans-Serif" font-size="10.00">/GuiModule.hpp</text>
</a>
</g>
</g>
<!-- Node1&#45;&gt;Node2 -->
<g id="edge1" class="edge">
<title>Node1&#45;&gt;Node2</title>
<path fill="none" stroke="midnightblue" d="M549,-179.36C549,-171.23 549,-161.7 549,-153.11"/>
<polygon fill="midnightblue" stroke="midnightblue" points="552.5,-152.89 549,-142.89 545.5,-152.89 552.5,-152.89"/>
</g>
<!-- Node3 -->
<g id="node3" class="node">
<title>Node3</title>
<g id="a_node3"><a xlink:href="_maths_8hpp.html" target="_top" xlink:title=" ">
<polygon fill="none" stroke="black" points="318,-56.5 318,-75.5 446,-75.5 446,-56.5 318,-56.5"/>
<text text-anchor="middle" x="382" y="-63.5" font-family="Helvetica,sans-Serif" font-size="10.00">../Geometry/Maths.hpp</text>
</a>
</g>
</g>
<!-- Node2&#45;&gt;Node3 -->
<g id="edge2" class="edge">
<title>Node2&#45;&gt;Node3</title>
<path fill="none" stroke="midnightblue" d="M509.42,-112.4C480.9,-102.24 442.83,-88.67 415.74,-79.02"/>
<polygon fill="midnightblue" stroke="midnightblue" points="416.89,-75.72 406.3,-75.66 414.55,-82.31 416.89,-75.72"/>
</g>
<!-- Node15 -->
<g id="node15" class="node">
<title>Node15</title>
<g id="a_node15"><a xlink:title=" ">
<polygon fill="none" stroke="#bfbfbf" points="464.5,-56.5 464.5,-75.5 547.5,-75.5 547.5,-56.5 464.5,-56.5"/>
<text text-anchor="middle" x="506" y="-63.5" font-family="Helvetica,sans-Serif" font-size="10.00">imgui&#45;SFML.h</text>
</a>
</g>
</g>
<!-- Node2&#45;&gt;Node15 -->
<g id="edge14" class="edge">
<title>Node2&#45;&gt;Node15</title>
<path fill="none" stroke="midnightblue" d="M538.81,-112.4C532.63,-103.84 524.7,-92.87 518.18,-83.86"/>
<polygon fill="midnightblue" stroke="midnightblue" points="520.95,-81.71 512.26,-75.66 515.28,-85.81 520.95,-81.71"/>
</g>
<!-- Node16 -->
<g id="node16" class="node">
<title>Node16</title>
<g id="a_node16"><a xlink:title=" ">
<polygon fill="none" stroke="#bfbfbf" points="565.5,-56.5 565.5,-75.5 618.5,-75.5 618.5,-56.5 565.5,-56.5"/>
<text text-anchor="middle" x="592" y="-63.5" font-family="Helvetica,sans-Serif" font-size="10.00">imgui.h</text>
</a>
</g>
</g>
<!-- Node2&#45;&gt;Node16 -->
<g id="edge15" class="edge">
<title>Node2&#45;&gt;Node16</title>
<path fill="none" stroke="midnightblue" d="M559.19,-112.4C565.37,-103.84 573.3,-92.87 579.82,-83.86"/>
<polygon fill="midnightblue" stroke="midnightblue" points="582.72,-85.81 585.74,-75.66 577.05,-81.71 582.72,-85.81"/>
</g>
<!-- Node17 -->
<g id="node17" class="node">
<title>Node17</title>
<g id="a_node17"><a xlink:title=" ">
<polygon fill="none" stroke="#bfbfbf" points="637,-56.5 637,-75.5 733,-75.5 733,-56.5 637,-56.5"/>
<text text-anchor="middle" x="685" y="-63.5" font-family="Helvetica,sans-Serif" font-size="10.00">imgui_internal.h</text>
</a>
</g>
</g>
<!-- Node2&#45;&gt;Node17 -->
<g id="edge16" class="edge">
<title>Node2&#45;&gt;Node17</title>
<path fill="none" stroke="midnightblue" d="M581.23,-112.4C603.84,-102.51 633.84,-89.38 655.76,-79.79"/>
<polygon fill="midnightblue" stroke="midnightblue" points="657.45,-82.87 665.21,-75.66 654.65,-76.46 657.45,-82.87"/>
</g>
<!-- Node4 -->
<g id="node4" class="node">
<title>Node4</title>
<g id="a_node4"><a xlink:title=" ">
<polygon fill="none" stroke="#bfbfbf" points="0,-0.5 0,-19.5 42,-19.5 42,-0.5 0,-0.5"/>
<text text-anchor="middle" x="21" y="-7.5" font-family="Helvetica,sans-Serif" font-size="10.00">array</text>
</a>
</g>
</g>
<!-- Node3&#45;&gt;Node4 -->
<g id="edge3" class="edge">
<title>Node3&#45;&gt;Node4</title>
<path fill="none" stroke="midnightblue" d="M317.72,-59.27C252.87,-52.81 149.8,-40.69 52.23,-19.97"/>
<polygon fill="midnightblue" stroke="midnightblue" points="52.71,-16.5 42.2,-17.81 51.23,-23.34 52.71,-16.5"/>
</g>
<!-- Node5 -->
<g id="node5" class="node">
<title>Node5</title>
<g id="a_node5"><a xlink:title=" ">
<polygon fill="none" stroke="#bfbfbf" points="60,-0.5 60,-19.5 110,-19.5 110,-0.5 60,-0.5"/>
<text text-anchor="middle" x="85" y="-7.5" font-family="Helvetica,sans-Serif" font-size="10.00">chrono</text>
</a>
</g>
</g>
<!-- Node3&#45;&gt;Node5 -->
<g id="edge4" class="edge">
<title>Node3&#45;&gt;Node5</title>
<path fill="none" stroke="midnightblue" d="M323.21,-56.48C272.02,-48.71 195.62,-36.28 120.32,-20.13"/>
<polygon fill="midnightblue" stroke="midnightblue" points="120.7,-16.64 110.19,-17.94 119.22,-23.48 120.7,-16.64"/>
</g>
<!-- Node6 -->
<g id="node6" class="node">
<title>Node6</title>
<g id="a_node6"><a xlink:title=" ">
<polygon fill="none" stroke="#bfbfbf" points="128.5,-0.5 128.5,-19.5 175.5,-19.5 175.5,-0.5 128.5,-0.5"/>
<text text-anchor="middle" x="152" y="-7.5" font-family="Helvetica,sans-Serif" font-size="10.00">cmath</text>
</a>
</g>
</g>
<!-- Node3&#45;&gt;Node6 -->
<g id="edge5" class="edge">
<title>Node3&#45;&gt;Node6</title>
<path fill="none" stroke="midnightblue" d="M341.66,-56.46C303.66,-48.27 244.93,-35.27 185.63,-20.33"/>
<polygon fill="midnightblue" stroke="midnightblue" points="186.28,-16.88 175.73,-17.82 184.56,-23.67 186.28,-16.88"/>
</g>
<!-- Node7 -->
<g id="node7" class="node">
<title>Node7</title>
<g id="a_node7"><a xlink:title=" ">
<polygon fill="none" stroke="#bfbfbf" points="193.5,-0.5 193.5,-19.5 258.5,-19.5 258.5,-0.5 193.5,-0.5"/>
<text text-anchor="middle" x="226" y="-7.5" font-family="Helvetica,sans-Serif" font-size="10.00">functional</text>
</a>
</g>
</g>
<!-- Node3&#45;&gt;Node7 -->
<g id="edge6" class="edge">
<title>Node3&#45;&gt;Node7</title>
<path fill="none" stroke="midnightblue" d="M357.28,-56.44C331.15,-47.4 289.74,-33.06 260.42,-22.92"/>
<polygon fill="midnightblue" stroke="midnightblue" points="261.2,-19.48 250.6,-19.52 258.91,-26.1 261.2,-19.48"/>
</g>
<!-- Node8 -->
<g id="node8" class="node">
<title>Node8</title>
<g id="a_node8"><a xlink:title=" ">
<polygon fill="none" stroke="#bfbfbf" points="277,-0.5 277,-19.5 337,-19.5 337,-0.5 277,-0.5"/>
<text text-anchor="middle" x="307" y="-7.5" font-family="Helvetica,sans-Serif" font-size="10.00">iostream</text>
</a>
</g>
</g>
<!-- Node3&#45;&gt;Node8 -->
<g id="edge7" class="edge">
<title>Node3&#45;&gt;Node8</title>
<path fill="none" stroke="midnightblue" d="M369.95,-56.32C358.54,-48.11 341.17,-35.6 327.57,-25.81"/>
<polygon fill="midnightblue" stroke="midnightblue" points="329.43,-22.84 319.27,-19.83 325.34,-28.52 329.43,-22.84"/>
</g>
<!-- Node9 -->
<g id="node9" class="node">
<title>Node9</title>
<g id="a_node9"><a xlink:title=" ">
<polygon fill="none" stroke="#bfbfbf" points="355.5,-0.5 355.5,-19.5 408.5,-19.5 408.5,-0.5 355.5,-0.5"/>
<text text-anchor="middle" x="382" y="-7.5" font-family="Helvetica,sans-Serif" font-size="10.00">iterator</text>
</a>
</g>
</g>
<!-- Node3&#45;&gt;Node9 -->
<g id="edge8" class="edge">
<title>Node3&#45;&gt;Node9</title>
<path fill="none" stroke="midnightblue" d="M382,-56.08C382,-49.01 382,-38.86 382,-29.99"/>
<polygon fill="midnightblue" stroke="midnightblue" points="385.5,-29.75 382,-19.75 378.5,-29.75 385.5,-29.75"/>
</g>
<!-- Node10 -->
<g id="node10" class="node">
<title>Node10</title>
<g id="a_node10"><a xlink:title=" ">
<polygon fill="none" stroke="#bfbfbf" points="427,-0.5 427,-19.5 485,-19.5 485,-0.5 427,-0.5"/>
<text text-anchor="middle" x="456" y="-7.5" font-family="Helvetica,sans-Serif" font-size="10.00">memory</text>
</a>
</g>
</g>
<!-- Node3&#45;&gt;Node10 -->
<g id="edge9" class="edge">
<title>Node3&#45;&gt;Node10</title>
<path fill="none" stroke="midnightblue" d="M393.89,-56.32C405.15,-48.11 422.29,-35.6 435.71,-25.81"/>
<polygon fill="midnightblue" stroke="midnightblue" points="437.88,-28.56 443.89,-19.83 433.75,-22.9 437.88,-28.56"/>
</g>
<!-- Node11 -->
<g id="node11" class="node">
<title>Node11</title>
<g id="a_node11"><a xlink:title=" ">
<polygon fill="none" stroke="#bfbfbf" points="503,-0.5 503,-19.5 559,-19.5 559,-0.5 503,-0.5"/>
<text text-anchor="middle" x="531" y="-7.5" font-family="Helvetica,sans-Serif" font-size="10.00">sstream</text>
</a>
</g>
</g>
<!-- Node3&#45;&gt;Node11 -->
<g id="edge10" class="edge">
<title>Node3&#45;&gt;Node11</title>
<path fill="none" stroke="midnightblue" d="M405.61,-56.44C430.46,-47.44 469.77,-33.19 497.75,-23.05"/>
<polygon fill="midnightblue" stroke="midnightblue" points="499.29,-26.21 507.5,-19.52 496.91,-19.63 499.29,-26.21"/>
</g>
<!-- Node12 -->
<g id="node12" class="node">
<title>Node12</title>
<g id="a_node12"><a xlink:title=" ">
<polygon fill="none" stroke="#bfbfbf" points="577.5,-0.5 577.5,-19.5 650.5,-19.5 650.5,-0.5 577.5,-0.5"/>
<text text-anchor="middle" x="614" y="-7.5" font-family="Helvetica,sans-Serif" font-size="10.00">string_view</text>
</a>
</g>
</g>
<!-- Node3&#45;&gt;Node12 -->
<g id="edge11" class="edge">
<title>Node3&#45;&gt;Node12</title>
<path fill="none" stroke="midnightblue" d="M418.76,-56.44C459.06,-47.06 523.81,-31.99 567.58,-21.8"/>
<polygon fill="midnightblue" stroke="midnightblue" points="568.46,-25.19 577.41,-19.52 566.88,-18.37 568.46,-25.19"/>
</g>
<!-- Node13 -->
<g id="node13" class="node">
<title>Node13</title>
<g id="a_node13"><a xlink:title=" ">
<polygon fill="none" stroke="#bfbfbf" points="668.5,-0.5 668.5,-19.5 761.5,-19.5 761.5,-0.5 668.5,-0.5"/>
<text text-anchor="middle" x="715" y="-7.5" font-family="Helvetica,sans-Serif" font-size="10.00">unordered_map</text>
</a>
</g>
</g>
<!-- Node3&#45;&gt;Node13 -->
<g id="edge12" class="edge">
<title>Node3&#45;&gt;Node13</title>
<path fill="none" stroke="midnightblue" d="M434.78,-56.48C488.57,-47.8 574.71,-33.87 658.55,-20.23"/>
<polygon fill="midnightblue" stroke="midnightblue" points="659.18,-23.68 668.49,-18.62 658.06,-16.77 659.18,-23.68"/>
</g>
<!-- Node14 -->
<g id="node14" class="node">
<title>Node14</title>
<g id="a_node14"><a xlink:title=" ">
<polygon fill="none" stroke="#bfbfbf" points="779.5,-0.5 779.5,-19.5 826.5,-19.5 826.5,-0.5 779.5,-0.5"/>
<text text-anchor="middle" x="803" y="-7.5" font-family="Helvetica,sans-Serif" font-size="10.00">vector</text>
</a>
</g>
</g>
<!-- Node3&#45;&gt;Node14 -->
<g id="edge13" class="edge">
<title>Node3&#45;&gt;Node14</title>
<path fill="none" stroke="midnightblue" d="M446.17,-57.17C449.5,-56.77 452.79,-56.38 456,-56 592.66,-39.88 630.95,-46.82 769.21,-20.09"/>
<polygon fill="midnightblue" stroke="midnightblue" points="770.2,-23.47 779.34,-18.11 768.85,-16.6 770.2,-23.47"/>
</g>
</g>
</svg>
