<?xml version="1.0" encoding="UTF-8" standalone="no"?>
<!DOCTYPE svg PUBLIC "-//W3C//DTD SVG 1.1//EN"
 "http://www.w3.org/Graphics/SVG/1.1/DTD/svg11.dtd">
<!-- Generated by graphviz version 2.43.0 (0)
 -->
<!-- Title: /home/runner/work/Simulatio/Simulatio/engine/include/Constraints/Link.hpp Pages: 1 -->
<svg width="369pt" height="206pt"
 viewBox="0.00 0.00 369.00 206.00" xmlns="http://www.w3.org/2000/svg" xmlns:xlink="http://www.w3.org/1999/xlink">
<g id="graph0" class="graph" transform="scale(1 1) rotate(0) translate(4 202)">
<title>/home/runner/work/Simulatio/Simulatio/engine/include/Constraints/Link.hpp</title>
<!-- Node1 -->
<g id="node1" class="node">
<title>Node1</title>
<g id="a_node1"><a xlink:title=" ">
<polygon fill="#bfbfbf" stroke="black" points="100,-156.5 100,-197.5 258,-197.5 258,-156.5 100,-156.5"/>
<text text-anchor="start" x="108" y="-185.5" font-family="Helvetica,sans-Serif" font-size="10.00">/home/runner/work/Simulatio</text>
<text text-anchor="start" x="108" y="-174.5" font-family="Helvetica,sans-Serif" font-size="10.00">/Simulatio/engine/include</text>
<text text-anchor="middle" x="179" y="-163.5" font-family="Helvetica,sans-Serif" font-size="10.00">/Constraints/Link.hpp</text>
</a>
</g>
</g>
<!-- Node2 -->
<g id="node2" class="node">
<title>Node2</title>
<g id="a_node2"><a xlink:href="_system_8hpp.html" target="_top" xlink:title=" ">
<polygon fill="none" stroke="black" points="7,-78.5 7,-119.5 165,-119.5 165,-78.5 7,-78.5"/>
<text text-anchor="start" x="15" y="-107.5" font-family="Helvetica,sans-Serif" font-size="10.00">/home/runner/work/Simulatio</text>
<text text-anchor="start" x="15" y="-96.5" font-family="Helvetica,sans-Serif" font-size="10.00">/Simulatio/engine/include</text>
<text text-anchor="middle" x="86" y="-85.5" font-family="Helvetica,sans-Serif" font-size="10.00">/Structures/System.hpp</text>
</a>
</g>
</g>
<!-- Node1&#45;&gt;Node2 -->
<g id="edge1" class="edge">
<title>Node1&#45;&gt;Node2</title>
<path fill="none" stroke="midnightblue" d="M147.26,-150.06C135.02,-140.06 121.25,-128.8 109.87,-119.51"/>
<polygon fill="midnightblue" stroke="midnightblue" points="145.09,-152.81 155.05,-156.43 149.52,-147.39 145.09,-152.81"/>
</g>
<!-- Node4 -->
<g id="node4" class="node">
<title>Node4</title>
<g id="a_node4"><a xlink:href="_link_8cpp.html" target="_top" xlink:title=" ">
<polygon fill="none" stroke="black" points="183,-78.5 183,-119.5 361,-119.5 361,-78.5 183,-78.5"/>
<text text-anchor="start" x="191" y="-107.5" font-family="Helvetica,sans-Serif" font-size="10.00">/home/runner/work/Simulatio</text>
<text text-anchor="start" x="191" y="-96.5" font-family="Helvetica,sans-Serif" font-size="10.00">/Simulatio/engine/src/Constraints</text>
<text text-anchor="middle" x="272" y="-85.5" font-family="Helvetica,sans-Serif" font-size="10.00">/Link.cpp</text>
</a>
</g>
</g>
<!-- Node1&#45;&gt;Node4 -->
<g id="edge3" class="edge">
<title>Node1&#45;&gt;Node4</title>
<path fill="none" stroke="midnightblue" d="M210.74,-150.06C222.98,-140.06 236.75,-128.8 248.13,-119.51"/>
<polygon fill="midnightblue" stroke="midnightblue" points="208.48,-147.39 202.95,-156.43 212.91,-152.81 208.48,-147.39"/>
</g>
<!-- Node3 -->
<g id="node3" class="node">
<title>Node3</title>
<g id="a_node3"><a xlink:href="_system_8cpp.html" target="_top" xlink:title=" ">
<polygon fill="none" stroke="black" points="0,-0.5 0,-41.5 172,-41.5 172,-0.5 0,-0.5"/>
<text text-anchor="start" x="8" y="-29.5" font-family="Helvetica,sans-Serif" font-size="10.00">/home/runner/work/Simulatio</text>
<text text-anchor="start" x="8" y="-18.5" font-family="Helvetica,sans-Serif" font-size="10.00">/Simulatio/engine/src/Structures</text>
<text text-anchor="middle" x="86" y="-7.5" font-family="Helvetica,sans-Serif" font-size="10.00">/System.cpp</text>
</a>
</g>
</g>
<!-- Node2&#45;&gt;Node3 -->
<g id="edge2" class="edge">
<title>Node2&#45;&gt;Node3</title>
<path fill="none" stroke="midnightblue" d="M86,-68.3C86,-59.3 86,-49.65 86,-41.51"/>
<polygon fill="midnightblue" stroke="midnightblue" points="82.5,-68.43 86,-78.43 89.5,-68.43 82.5,-68.43"/>
</g>
</g>
</svg>
