<?xml version="1.0" encoding="UTF-8" standalone="no"?>
<!DOCTYPE svg PUBLIC "-//W3C//DTD SVG 1.1//EN"
 "http://www.w3.org/Graphics/SVG/1.1/DTD/svg11.dtd">
<!-- Generated by graphviz version 2.43.0 (0)
 -->
<!-- Title: /home/runner/work/Simulatio/Simulatio/engine/src/Geometry/Maths.cpp Pages: 1 -->
<svg width="900pt" height="173pt"
 viewBox="0.00 0.00 899.50 173.00" xmlns="http://www.w3.org/2000/svg" xmlns:xlink="http://www.w3.org/1999/xlink">
<g id="graph0" class="graph" transform="scale(1 1) rotate(0) translate(4 169)">
<title>/home/runner/work/Simulatio/Simulatio/engine/src/Geometry/Maths.cpp</title>
<!-- Node1 -->
<g id="node1" class="node">
<title>Node1</title>
<g id="a_node1"><a xlink:title=" ">
<polygon fill="#bfbfbf" stroke="black" points="323.5,-123.5 323.5,-164.5 494.5,-164.5 494.5,-123.5 323.5,-123.5"/>
<text text-anchor="start" x="331.5" y="-152.5" font-family="Helvetica,sans-Serif" font-size="10.00">/home/runner/work/Simulatio</text>
<text text-anchor="start" x="331.5" y="-141.5" font-family="Helvetica,sans-Serif" font-size="10.00">/Simulatio/engine/src/Geometry</text>
<text text-anchor="middle" x="409" y="-130.5" font-family="Helvetica,sans-Serif" font-size="10.00">/Maths.cpp</text>
</a>
</g>
</g>
<!-- Node2 -->
<g id="node2" class="node">
<title>Node2</title>
<g id="a_node2"><a xlink:href="_maths_8hpp.html" target="_top" xlink:title=" ">
<polygon fill="none" stroke="black" points="348,-56.5 348,-86.5 470,-86.5 470,-56.5 348,-56.5"/>
<text text-anchor="start" x="356" y="-74.5" font-family="Helvetica,sans-Serif" font-size="10.00">../../include/Geometry</text>
<text text-anchor="middle" x="409" y="-63.5" font-family="Helvetica,sans-Serif" font-size="10.00">/Maths.hpp</text>
</a>
</g>
</g>
<!-- Node1&#45;&gt;Node2 -->
<g id="edge1" class="edge">
<title>Node1&#45;&gt;Node2</title>
<path fill="none" stroke="midnightblue" d="M409,-123.36C409,-115.23 409,-105.7 409,-97.11"/>
<polygon fill="midnightblue" stroke="midnightblue" points="412.5,-96.89 409,-86.89 405.5,-96.89 412.5,-96.89"/>
</g>
<!-- Node3 -->
<g id="node3" class="node">
<title>Node3</title>
<g id="a_node3"><a xlink:title=" ">
<polygon fill="none" stroke="#bfbfbf" points="0,-0.5 0,-19.5 42,-19.5 42,-0.5 0,-0.5"/>
<text text-anchor="middle" x="21" y="-7.5" font-family="Helvetica,sans-Serif" font-size="10.00">array</text>
</a>
</g>
</g>
<!-- Node2&#45;&gt;Node3 -->
<g id="edge2" class="edge">
<title>Node2&#45;&gt;Node3</title>
<path fill="none" stroke="midnightblue" d="M347.69,-64.7C278.09,-57.49 161.11,-43.43 52.05,-19.95"/>
<polygon fill="midnightblue" stroke="midnightblue" points="52.72,-16.51 42.2,-17.79 51.22,-23.35 52.72,-16.51"/>
</g>
<!-- Node4 -->
<g id="node4" class="node">
<title>Node4</title>
<g id="a_node4"><a xlink:title=" ">
<polygon fill="none" stroke="#bfbfbf" points="60,-0.5 60,-19.5 110,-19.5 110,-0.5 60,-0.5"/>
<text text-anchor="middle" x="85" y="-7.5" font-family="Helvetica,sans-Serif" font-size="10.00">chrono</text>
</a>
</g>
</g>
<!-- Node2&#45;&gt;Node4 -->
<g id="edge3" class="edge">
<title>Node2&#45;&gt;Node4</title>
<path fill="none" stroke="midnightblue" d="M347.88,-61.43C291.23,-52.66 204.42,-38.33 120.18,-20.11"/>
<polygon fill="midnightblue" stroke="midnightblue" points="120.71,-16.64 110.19,-17.93 119.21,-23.48 120.71,-16.64"/>
</g>
<!-- Node5 -->
<g id="node5" class="node">
<title>Node5</title>
<g id="a_node5"><a xlink:title=" ">
<polygon fill="none" stroke="#bfbfbf" points="128.5,-0.5 128.5,-19.5 175.5,-19.5 175.5,-0.5 128.5,-0.5"/>
<text text-anchor="middle" x="152" y="-7.5" font-family="Helvetica,sans-Serif" font-size="10.00">cmath</text>
</a>
</g>
</g>
<!-- Node2&#45;&gt;Node5 -->
<g id="edge4" class="edge">
<title>Node2&#45;&gt;Node5</title>
<path fill="none" stroke="midnightblue" d="M347.67,-57.66C304.71,-48.45 245.73,-35.39 185.75,-20.35"/>
<polygon fill="midnightblue" stroke="midnightblue" points="186.28,-16.88 175.73,-17.83 184.57,-23.67 186.28,-16.88"/>
</g>
<!-- Node6 -->
<g id="node6" class="node">
<title>Node6</title>
<g id="a_node6"><a xlink:title=" ">
<polygon fill="none" stroke="#bfbfbf" points="193.5,-0.5 193.5,-19.5 240.5,-19.5 240.5,-0.5 193.5,-0.5"/>
<text text-anchor="middle" x="217" y="-7.5" font-family="Helvetica,sans-Serif" font-size="10.00">deque</text>
</a>
</g>
</g>
<!-- Node2&#45;&gt;Node6 -->
<g id="edge5" class="edge">
<title>Node2&#45;&gt;Node6</title>
<path fill="none" stroke="midnightblue" d="M363.5,-56.4C328.68,-45.61 281.46,-30.98 250.16,-21.27"/>
<polygon fill="midnightblue" stroke="midnightblue" points="251.17,-17.93 240.59,-18.31 249.1,-24.61 251.17,-17.93"/>
</g>
<!-- Node7 -->
<g id="node7" class="node">
<title>Node7</title>
<g id="a_node7"><a xlink:title=" ">
<polygon fill="none" stroke="#bfbfbf" points="258.5,-0.5 258.5,-19.5 323.5,-19.5 323.5,-0.5 258.5,-0.5"/>
<text text-anchor="middle" x="291" y="-7.5" font-family="Helvetica,sans-Serif" font-size="10.00">functional</text>
</a>
</g>
</g>
<!-- Node2&#45;&gt;Node7 -->
<g id="edge6" class="edge">
<title>Node2&#45;&gt;Node7</title>
<path fill="none" stroke="midnightblue" d="M381.04,-56.4C361.68,-46.64 336.09,-33.74 317.14,-24.18"/>
<polygon fill="midnightblue" stroke="midnightblue" points="318.67,-21.04 308.17,-19.66 315.52,-27.29 318.67,-21.04"/>
</g>
<!-- Node8 -->
<g id="node8" class="node">
<title>Node8</title>
<g id="a_node8"><a xlink:title=" ">
<polygon fill="none" stroke="#bfbfbf" points="342,-0.5 342,-19.5 402,-19.5 402,-0.5 342,-0.5"/>
<text text-anchor="middle" x="372" y="-7.5" font-family="Helvetica,sans-Serif" font-size="10.00">iostream</text>
</a>
</g>
</g>
<!-- Node2&#45;&gt;Node8 -->
<g id="edge7" class="edge">
<title>Node2&#45;&gt;Node8</title>
<path fill="none" stroke="midnightblue" d="M400.23,-56.4C395.02,-48.02 388.37,-37.33 382.83,-28.42"/>
<polygon fill="midnightblue" stroke="midnightblue" points="385.64,-26.3 377.38,-19.66 379.69,-30 385.64,-26.3"/>
</g>
<!-- Node9 -->
<g id="node9" class="node">
<title>Node9</title>
<g id="a_node9"><a xlink:title=" ">
<polygon fill="none" stroke="#bfbfbf" points="420.5,-0.5 420.5,-19.5 473.5,-19.5 473.5,-0.5 420.5,-0.5"/>
<text text-anchor="middle" x="447" y="-7.5" font-family="Helvetica,sans-Serif" font-size="10.00">iterator</text>
</a>
</g>
</g>
<!-- Node2&#45;&gt;Node9 -->
<g id="edge8" class="edge">
<title>Node2&#45;&gt;Node9</title>
<path fill="none" stroke="midnightblue" d="M418.01,-56.4C423.41,-47.93 430.33,-37.1 436.05,-28.14"/>
<polygon fill="midnightblue" stroke="midnightblue" points="439.04,-29.97 441.47,-19.66 433.14,-26.2 439.04,-29.97"/>
</g>
<!-- Node10 -->
<g id="node10" class="node">
<title>Node10</title>
<g id="a_node10"><a xlink:title=" ">
<polygon fill="none" stroke="#bfbfbf" points="492,-0.5 492,-19.5 550,-19.5 550,-0.5 492,-0.5"/>
<text text-anchor="middle" x="521" y="-7.5" font-family="Helvetica,sans-Serif" font-size="10.00">memory</text>
</a>
</g>
</g>
<!-- Node2&#45;&gt;Node10 -->
<g id="edge9" class="edge">
<title>Node2&#45;&gt;Node10</title>
<path fill="none" stroke="midnightblue" d="M435.54,-56.4C453.66,-46.77 477.54,-34.09 495.44,-24.58"/>
<polygon fill="midnightblue" stroke="midnightblue" points="497.51,-27.44 504.7,-19.66 494.23,-21.26 497.51,-27.44"/>
</g>
<!-- Node11 -->
<g id="node11" class="node">
<title>Node11</title>
<g id="a_node11"><a xlink:title=" ">
<polygon fill="none" stroke="#bfbfbf" points="568,-0.5 568,-19.5 624,-19.5 624,-0.5 568,-0.5"/>
<text text-anchor="middle" x="596" y="-7.5" font-family="Helvetica,sans-Serif" font-size="10.00">sstream</text>
</a>
</g>
</g>
<!-- Node2&#45;&gt;Node11 -->
<g id="edge10" class="edge">
<title>Node2&#45;&gt;Node11</title>
<path fill="none" stroke="midnightblue" d="M453.32,-56.4C485.63,-46.12 528.9,-32.35 559.29,-22.68"/>
<polygon fill="midnightblue" stroke="midnightblue" points="560.59,-25.94 569.06,-19.57 558.47,-19.27 560.59,-25.94"/>
</g>
<!-- Node12 -->
<g id="node12" class="node">
<title>Node12</title>
<g id="a_node12"><a xlink:title=" ">
<polygon fill="none" stroke="#bfbfbf" points="642.5,-0.5 642.5,-19.5 715.5,-19.5 715.5,-0.5 642.5,-0.5"/>
<text text-anchor="middle" x="679" y="-7.5" font-family="Helvetica,sans-Serif" font-size="10.00">string_view</text>
</a>
</g>
</g>
<!-- Node2&#45;&gt;Node12 -->
<g id="edge11" class="edge">
<title>Node2&#45;&gt;Node12</title>
<path fill="none" stroke="midnightblue" d="M470.27,-57C519.49,-46.15 587.57,-31.15 632.42,-21.26"/>
<polygon fill="midnightblue" stroke="midnightblue" points="633.44,-24.62 642.46,-19.05 631.94,-17.79 633.44,-24.62"/>
</g>
<!-- Node13 -->
<g id="node13" class="node">
<title>Node13</title>
<g id="a_node13"><a xlink:title=" ">
<polygon fill="none" stroke="#bfbfbf" points="733.5,-0.5 733.5,-19.5 826.5,-19.5 826.5,-0.5 733.5,-0.5"/>
<text text-anchor="middle" x="780" y="-7.5" font-family="Helvetica,sans-Serif" font-size="10.00">unordered_map</text>
</a>
</g>
</g>
<!-- Node2&#45;&gt;Node13 -->
<g id="edge12" class="edge">
<title>Node2&#45;&gt;Node13</title>
<path fill="none" stroke="midnightblue" d="M470.18,-60.79C531.67,-51.02 629.46,-35.43 723.52,-20.24"/>
<polygon fill="midnightblue" stroke="midnightblue" points="724.18,-23.67 733.49,-18.62 723.06,-16.76 724.18,-23.67"/>
</g>
<!-- Node14 -->
<g id="node14" class="node">
<title>Node14</title>
<g id="a_node14"><a xlink:title=" ">
<polygon fill="none" stroke="#bfbfbf" points="844.5,-0.5 844.5,-19.5 891.5,-19.5 891.5,-0.5 844.5,-0.5"/>
<text text-anchor="middle" x="868" y="-7.5" font-family="Helvetica,sans-Serif" font-size="10.00">vector</text>
</a>
</g>
</g>
<!-- Node2&#45;&gt;Node14 -->
<g id="edge13" class="edge">
<title>Node2&#45;&gt;Node14</title>
<path fill="none" stroke="midnightblue" d="M470.28,-66.28C551.6,-60.01 699.68,-46.27 834.26,-20.09"/>
<polygon fill="midnightblue" stroke="midnightblue" points="835.2,-23.47 844.33,-18.1 833.85,-16.6 835.2,-23.47"/>
</g>
</g>
</svg>
