<?xml version="1.0" encoding="UTF-8" standalone="no"?>
<!DOCTYPE svg PUBLIC "-//W3C//DTD SVG 1.1//EN"
 "http://www.w3.org/Graphics/SVG/1.1/DTD/svg11.dtd">
<!-- Generated by graphviz version 2.43.0 (0)
 -->
<!-- Title: /home/runner/work/Simulatio/Simulatio/engine/include/Geometry/Maths.hpp Pages: 1 -->
<svg width="900pt" height="106pt"
 viewBox="0.00 0.00 899.50 106.00" xmlns="http://www.w3.org/2000/svg" xmlns:xlink="http://www.w3.org/1999/xlink">
<g id="graph0" class="graph" transform="scale(1 1) rotate(0) translate(4 102)">
<title>/home/runner/work/Simulatio/Simulatio/engine/include/Geometry/Maths.hpp</title>
<!-- Node1 -->
<g id="node1" class="node">
<title>Node1</title>
<g id="a_node1"><a xlink:title=" ">
<polygon fill="#bfbfbf" stroke="black" points="330,-56.5 330,-97.5 488,-97.5 488,-56.5 330,-56.5"/>
<text text-anchor="start" x="338" y="-85.5" font-family="Helvetica,sans-Serif" font-size="10.00">/home/runner/work/Simulatio</text>
<text text-anchor="start" x="338" y="-74.5" font-family="Helvetica,sans-Serif" font-size="10.00">/Simulatio/engine/include</text>
<text text-anchor="middle" x="409" y="-63.5" font-family="Helvetica,sans-Serif" font-size="10.00">/Geometry/Maths.hpp</text>
</a>
</g>
</g>
<!-- Node2 -->
<g id="node2" class="node">
<title>Node2</title>
<g id="a_node2"><a xlink:title=" ">
<polygon fill="none" stroke="#bfbfbf" points="0,-0.5 0,-19.5 42,-19.5 42,-0.5 0,-0.5"/>
<text text-anchor="middle" x="21" y="-7.5" font-family="Helvetica,sans-Serif" font-size="10.00">array</text>
</a>
</g>
</g>
<!-- Node1&#45;&gt;Node2 -->
<g id="edge1" class="edge">
<title>Node1&#45;&gt;Node2</title>
<path fill="none" stroke="midnightblue" d="M329.85,-66.77C259.26,-57.81 153.05,-42.58 52.26,-20.03"/>
<polygon fill="midnightblue" stroke="midnightblue" points="52.74,-16.55 42.21,-17.75 51.19,-23.38 52.74,-16.55"/>
</g>
<!-- Node3 -->
<g id="node3" class="node">
<title>Node3</title>
<g id="a_node3"><a xlink:title=" ">
<polygon fill="none" stroke="#bfbfbf" points="60,-0.5 60,-19.5 110,-19.5 110,-0.5 60,-0.5"/>
<text text-anchor="middle" x="85" y="-7.5" font-family="Helvetica,sans-Serif" font-size="10.00">chrono</text>
</a>
</g>
</g>
<!-- Node1&#45;&gt;Node3 -->
<g id="edge2" class="edge">
<title>Node1&#45;&gt;Node3</title>
<path fill="none" stroke="midnightblue" d="M329.92,-62.23C273.84,-52.12 196.63,-37.49 120.03,-20.12"/>
<polygon fill="midnightblue" stroke="midnightblue" points="120.73,-16.69 110.2,-17.88 119.17,-23.51 120.73,-16.69"/>
</g>
<!-- Node4 -->
<g id="node4" class="node">
<title>Node4</title>
<g id="a_node4"><a xlink:title=" ">
<polygon fill="none" stroke="#bfbfbf" points="128.5,-0.5 128.5,-19.5 175.5,-19.5 175.5,-0.5 128.5,-0.5"/>
<text text-anchor="middle" x="152" y="-7.5" font-family="Helvetica,sans-Serif" font-size="10.00">cmath</text>
</a>
</g>
</g>
<!-- Node1&#45;&gt;Node4 -->
<g id="edge3" class="edge">
<title>Node1&#45;&gt;Node4</title>
<path fill="none" stroke="midnightblue" d="M329.97,-56.95C289.3,-47 238.69,-34.39 185.67,-20.39"/>
<polygon fill="midnightblue" stroke="midnightblue" points="186.31,-16.94 175.74,-17.76 184.51,-23.71 186.31,-16.94"/>
</g>
<!-- Node5 -->
<g id="node5" class="node">
<title>Node5</title>
<g id="a_node5"><a xlink:title=" ">
<polygon fill="none" stroke="#bfbfbf" points="193.5,-0.5 193.5,-19.5 240.5,-19.5 240.5,-0.5 193.5,-0.5"/>
<text text-anchor="middle" x="217" y="-7.5" font-family="Helvetica,sans-Serif" font-size="10.00">deque</text>
</a>
</g>
</g>
<!-- Node1&#45;&gt;Node5 -->
<g id="edge4" class="edge">
<title>Node1&#45;&gt;Node5</title>
<path fill="none" stroke="midnightblue" d="M351.39,-56.5C318.34,-45.31 278.01,-31.66 250.21,-22.24"/>
<polygon fill="midnightblue" stroke="midnightblue" points="251.16,-18.87 240.57,-18.98 248.92,-25.5 251.16,-18.87"/>
</g>
<!-- Node6 -->
<g id="node6" class="node">
<title>Node6</title>
<g id="a_node6"><a xlink:title=" ">
<polygon fill="none" stroke="#bfbfbf" points="258.5,-0.5 258.5,-19.5 323.5,-19.5 323.5,-0.5 258.5,-0.5"/>
<text text-anchor="middle" x="291" y="-7.5" font-family="Helvetica,sans-Serif" font-size="10.00">functional</text>
</a>
</g>
</g>
<!-- Node1&#45;&gt;Node6 -->
<g id="edge5" class="edge">
<title>Node1&#45;&gt;Node6</title>
<path fill="none" stroke="midnightblue" d="M373.6,-56.5C354.98,-46.24 332.62,-33.93 315.86,-24.69"/>
<polygon fill="midnightblue" stroke="midnightblue" points="317.16,-21.41 306.71,-19.65 313.78,-27.54 317.16,-21.41"/>
</g>
<!-- Node7 -->
<g id="node7" class="node">
<title>Node7</title>
<g id="a_node7"><a xlink:title=" ">
<polygon fill="none" stroke="#bfbfbf" points="342,-0.5 342,-19.5 402,-19.5 402,-0.5 342,-0.5"/>
<text text-anchor="middle" x="372" y="-7.5" font-family="Helvetica,sans-Serif" font-size="10.00">iostream</text>
</a>
</g>
</g>
<!-- Node1&#45;&gt;Node7 -->
<g id="edge6" class="edge">
<title>Node1&#45;&gt;Node7</title>
<path fill="none" stroke="midnightblue" d="M397.9,-56.5C392.83,-47.59 386.86,-37.11 381.94,-28.46"/>
<polygon fill="midnightblue" stroke="midnightblue" points="384.91,-26.61 376.93,-19.65 378.83,-30.07 384.91,-26.61"/>
</g>
<!-- Node8 -->
<g id="node8" class="node">
<title>Node8</title>
<g id="a_node8"><a xlink:title=" ">
<polygon fill="none" stroke="#bfbfbf" points="420.5,-0.5 420.5,-19.5 473.5,-19.5 473.5,-0.5 420.5,-0.5"/>
<text text-anchor="middle" x="447" y="-7.5" font-family="Helvetica,sans-Serif" font-size="10.00">iterator</text>
</a>
</g>
</g>
<!-- Node1&#45;&gt;Node8 -->
<g id="edge7" class="edge">
<title>Node1&#45;&gt;Node8</title>
<path fill="none" stroke="midnightblue" d="M420.4,-56.5C425.61,-47.59 431.73,-37.11 436.79,-28.46"/>
<polygon fill="midnightblue" stroke="midnightblue" points="439.92,-30.05 441.94,-19.65 433.87,-26.52 439.92,-30.05"/>
</g>
<!-- Node9 -->
<g id="node9" class="node">
<title>Node9</title>
<g id="a_node9"><a xlink:title=" ">
<polygon fill="none" stroke="#bfbfbf" points="492,-0.5 492,-19.5 550,-19.5 550,-0.5 492,-0.5"/>
<text text-anchor="middle" x="521" y="-7.5" font-family="Helvetica,sans-Serif" font-size="10.00">memory</text>
</a>
</g>
</g>
<!-- Node1&#45;&gt;Node9 -->
<g id="edge8" class="edge">
<title>Node1&#45;&gt;Node9</title>
<path fill="none" stroke="midnightblue" d="M442.6,-56.5C460.27,-46.24 481.5,-33.93 497.41,-24.69"/>
<polygon fill="midnightblue" stroke="midnightblue" points="499.2,-27.7 506.09,-19.65 495.69,-21.64 499.2,-27.7"/>
</g>
<!-- Node10 -->
<g id="node10" class="node">
<title>Node10</title>
<g id="a_node10"><a xlink:title=" ">
<polygon fill="none" stroke="#bfbfbf" points="568,-0.5 568,-19.5 624,-19.5 624,-0.5 568,-0.5"/>
<text text-anchor="middle" x="596" y="-7.5" font-family="Helvetica,sans-Serif" font-size="10.00">sstream</text>
</a>
</g>
</g>
<!-- Node1&#45;&gt;Node10 -->
<g id="edge9" class="edge">
<title>Node1&#45;&gt;Node10</title>
<path fill="none" stroke="midnightblue" d="M465.11,-56.5C496.4,-45.62 534.37,-32.42 561.35,-23.05"/>
<polygon fill="midnightblue" stroke="midnightblue" points="562.81,-26.24 571.11,-19.65 560.51,-19.63 562.81,-26.24"/>
</g>
<!-- Node11 -->
<g id="node11" class="node">
<title>Node11</title>
<g id="a_node11"><a xlink:title=" ">
<polygon fill="none" stroke="#bfbfbf" points="642.5,-0.5 642.5,-19.5 715.5,-19.5 715.5,-0.5 642.5,-0.5"/>
<text text-anchor="middle" x="679" y="-7.5" font-family="Helvetica,sans-Serif" font-size="10.00">string_view</text>
</a>
</g>
</g>
<!-- Node1&#45;&gt;Node11 -->
<g id="edge10" class="edge">
<title>Node1&#45;&gt;Node11</title>
<path fill="none" stroke="midnightblue" d="M488.18,-56.94C535.57,-45.53 594.08,-31.44 633.73,-21.9"/>
<polygon fill="midnightblue" stroke="midnightblue" points="634.73,-25.26 643.63,-19.51 633.09,-18.45 634.73,-25.26"/>
</g>
<!-- Node12 -->
<g id="node12" class="node">
<title>Node12</title>
<g id="a_node12"><a xlink:title=" ">
<polygon fill="none" stroke="#bfbfbf" points="733.5,-0.5 733.5,-19.5 826.5,-19.5 826.5,-0.5 733.5,-0.5"/>
<text text-anchor="middle" x="780" y="-7.5" font-family="Helvetica,sans-Serif" font-size="10.00">unordered_map</text>
</a>
</g>
</g>
<!-- Node1&#45;&gt;Node12 -->
<g id="edge11" class="edge">
<title>Node1&#45;&gt;Node12</title>
<path fill="none" stroke="midnightblue" d="M488.13,-62.14C558.79,-49.76 660.54,-31.93 723.35,-20.93"/>
<polygon fill="midnightblue" stroke="midnightblue" points="724.22,-24.33 733.47,-19.15 723.01,-17.43 724.22,-24.33"/>
</g>
<!-- Node13 -->
<g id="node13" class="node">
<title>Node13</title>
<g id="a_node13"><a xlink:title=" ">
<polygon fill="none" stroke="#bfbfbf" points="844.5,-0.5 844.5,-19.5 891.5,-19.5 891.5,-0.5 844.5,-0.5"/>
<text text-anchor="middle" x="868" y="-7.5" font-family="Helvetica,sans-Serif" font-size="10.00">vector</text>
</a>
</g>
</g>
<!-- Node1&#45;&gt;Node13 -->
<g id="edge12" class="edge">
<title>Node1&#45;&gt;Node13</title>
<path fill="none" stroke="midnightblue" d="M488.27,-69.05C572.24,-60.9 708.73,-45.45 834.52,-20.07"/>
<polygon fill="midnightblue" stroke="midnightblue" points="835.23,-23.5 844.33,-18.07 833.83,-16.64 835.23,-23.5"/>
</g>
</g>
</svg>
