<?xml version="1.0" encoding="UTF-8" standalone="no"?>
<!DOCTYPE svg PUBLIC "-//W3C//DTD SVG 1.1//EN"
 "http://www.w3.org/Graphics/SVG/1.1/DTD/svg11.dtd">
<!-- Generated by graphviz version 2.43.0 (0)
 -->
<!-- Title: /home/runner/work/Simulatio/Simulatio/include/Geometry/Maths.hpp Pages: 1 -->
<svg width="1760pt" height="908pt"
 viewBox="0.00 0.00 1760.00 908.00" xmlns="http://www.w3.org/2000/svg" xmlns:xlink="http://www.w3.org/1999/xlink">
<g id="graph0" class="graph" transform="scale(1 1) rotate(0) translate(4 904)">
<title>/home/runner/work/Simulatio/Simulatio/include/Geometry/Maths.hpp</title>
<!-- Node1 -->
<g id="node1" class="node">
<title>Node1</title>
<g id="a_node1"><a xlink:title=" ">
<polygon fill="#bfbfbf" stroke="black" points="982,-858.5 982,-899.5 1140,-899.5 1140,-858.5 982,-858.5"/>
<text text-anchor="start" x="990" y="-887.5" font-family="Helvetica,sans-Serif" font-size="10.00">/home/runner/work/Simulatio</text>
<text text-anchor="start" x="990" y="-876.5" font-family="Helvetica,sans-Serif" font-size="10.00">/Simulatio/include/Geometry</text>
<text text-anchor="middle" x="1061" y="-865.5" font-family="Helvetica,sans-Serif" font-size="10.00">/Maths.hpp</text>
</a>
</g>
</g>
<!-- Node2 -->
<g id="node2" class="node">
<title>Node2</title>
<g id="a_node2"><a xlink:href="_block_data_8hpp.html" target="_top" xlink:title=" ">
<polygon fill="none" stroke="black" points="379.5,-780.5 379.5,-821.5 542.5,-821.5 542.5,-780.5 379.5,-780.5"/>
<text text-anchor="start" x="387.5" y="-809.5" font-family="Helvetica,sans-Serif" font-size="10.00">/home/runner/work/Simulatio</text>
<text text-anchor="start" x="387.5" y="-798.5" font-family="Helvetica,sans-Serif" font-size="10.00">/Simulatio/include/Benchmark</text>
<text text-anchor="middle" x="461" y="-787.5" font-family="Helvetica,sans-Serif" font-size="10.00">/BlockData.hpp</text>
</a>
</g>
</g>
<!-- Node1&#45;&gt;Node2 -->
<g id="edge1" class="edge">
<title>Node1&#45;&gt;Node2</title>
<path fill="none" stroke="midnightblue" d="M971.74,-867.12C880.92,-856.01 736.12,-838.13 611,-822 588.85,-819.15 564.87,-815.98 542.72,-813.03"/>
<polygon fill="midnightblue" stroke="midnightblue" points="971.37,-870.61 981.72,-868.35 972.22,-863.66 971.37,-870.61"/>
</g>
<!-- Node5 -->
<g id="node5" class="node">
<title>Node5</title>
<g id="a_node5"><a xlink:href="_geometry_8hpp.html" target="_top" xlink:title=" ">
<polygon fill="none" stroke="black" points="324,-546.5 324,-587.5 482,-587.5 482,-546.5 324,-546.5"/>
<text text-anchor="start" x="332" y="-575.5" font-family="Helvetica,sans-Serif" font-size="10.00">/home/runner/work/Simulatio</text>
<text text-anchor="start" x="332" y="-564.5" font-family="Helvetica,sans-Serif" font-size="10.00">/Simulatio/include/Geometry</text>
<text text-anchor="middle" x="403" y="-553.5" font-family="Helvetica,sans-Serif" font-size="10.00">/Geometry.hpp</text>
</a>
</g>
</g>
<!-- Node1&#45;&gt;Node5 -->
<g id="edge56" class="edge">
<title>Node1&#45;&gt;Node5</title>
<path fill="none" stroke="midnightblue" d="M971.56,-874.73C796.84,-867.78 422.65,-849.82 371,-822 289.93,-778.34 264.69,-704.17 310,-624 318.99,-608.08 334.53,-596.19 350.35,-587.55"/>
<polygon fill="midnightblue" stroke="midnightblue" points="971.63,-878.24 981.76,-875.14 971.91,-871.25 971.63,-878.24"/>
</g>
<!-- Node6 -->
<g id="node6" class="node">
<title>Node6</title>
<g id="a_node6"><a xlink:href="_constraint_8hpp.html" target="_top" xlink:title=" ">
<polygon fill="none" stroke="black" points="664.5,-234.5 664.5,-275.5 827.5,-275.5 827.5,-234.5 664.5,-234.5"/>
<text text-anchor="start" x="672.5" y="-263.5" font-family="Helvetica,sans-Serif" font-size="10.00">/home/runner/work/Simulatio</text>
<text text-anchor="start" x="672.5" y="-252.5" font-family="Helvetica,sans-Serif" font-size="10.00">/Simulatio/include/Constraints</text>
<text text-anchor="middle" x="746" y="-241.5" font-family="Helvetica,sans-Serif" font-size="10.00">/Constraint.hpp</text>
</a>
</g>
</g>
<!-- Node1&#45;&gt;Node6 -->
<g id="edge45" class="edge">
<title>Node1&#45;&gt;Node6</title>
<path fill="none" stroke="midnightblue" d="M1106.54,-853.17C1161.45,-819.93 1241.82,-758.58 1203,-702 1169.45,-653.1 741.89,-556.43 705,-510 682.63,-481.85 693.61,-312.99 694,-312 699.53,-297.92 710.44,-285.28 720.85,-275.58"/>
<polygon fill="midnightblue" stroke="midnightblue" points="1104.45,-850.35 1097.63,-858.46 1108.02,-856.37 1104.45,-850.35"/>
</g>
<!-- Node8 -->
<g id="node8" class="node">
<title>Node8</title>
<g id="a_node8"><a xlink:href="_system_8hpp.html" target="_top" xlink:title=" ">
<polygon fill="none" stroke="black" points="396,-78.5 396,-119.5 554,-119.5 554,-78.5 396,-78.5"/>
<text text-anchor="start" x="404" y="-107.5" font-family="Helvetica,sans-Serif" font-size="10.00">/home/runner/work/Simulatio</text>
<text text-anchor="start" x="404" y="-96.5" font-family="Helvetica,sans-Serif" font-size="10.00">/Simulatio/include/Structures</text>
<text text-anchor="middle" x="475" y="-85.5" font-family="Helvetica,sans-Serif" font-size="10.00">/System.hpp</text>
</a>
</g>
</g>
<!-- Node1&#45;&gt;Node8 -->
<g id="edge76" class="edge">
<title>Node1&#45;&gt;Node8</title>
<path fill="none" stroke="midnightblue" d="M971.56,-875.57C792.17,-870.08 394.29,-854.54 262,-822 156.48,-796.04 38,-832.67 38,-724 38,-724 38,-724 38,-488 38,-368.14 240.95,-214.48 331,-156 354.51,-140.73 382.82,-128.6 408.09,-119.58"/>
<polygon fill="midnightblue" stroke="midnightblue" points="971.66,-879.08 981.76,-875.88 971.87,-872.08 971.66,-879.08"/>
</g>
<!-- Node9 -->
<g id="node9" class="node">
<title>Node9</title>
<g id="a_node9"><a xlink:href="_renderer_8hpp.html" target="_top" xlink:title=" ">
<polygon fill="none" stroke="black" points="135,-0.5 135,-41.5 293,-41.5 293,-0.5 135,-0.5"/>
<text text-anchor="start" x="143" y="-29.5" font-family="Helvetica,sans-Serif" font-size="10.00">/home/runner/work/Simulatio</text>
<text text-anchor="start" x="143" y="-18.5" font-family="Helvetica,sans-Serif" font-size="10.00">/Simulatio/include/Renderer</text>
<text text-anchor="middle" x="214" y="-7.5" font-family="Helvetica,sans-Serif" font-size="10.00">/Renderer.hpp</text>
</a>
</g>
</g>
<!-- Node1&#45;&gt;Node9 -->
<g id="edge72" class="edge">
<title>Node1&#45;&gt;Node9</title>
<path fill="none" stroke="midnightblue" d="M971.68,-877.97C739.47,-877.19 129.47,-870.51 53,-822 11.19,-795.48 0,-773.52 0,-724 0,-724 0,-724 0,-176 0,-104.71 79.21,-63.16 141.25,-41.55"/>
<polygon fill="midnightblue" stroke="midnightblue" points="971.77,-881.47 981.79,-878 971.8,-874.47 971.77,-881.47"/>
</g>
<!-- Node16 -->
<g id="node16" class="node">
<title>Node16</title>
<g id="a_node16"><a xlink:href="_collision_8hpp.html" target="_top" xlink:title=" ">
<polygon fill="none" stroke="black" points="356,-234.5 356,-275.5 514,-275.5 514,-234.5 356,-234.5"/>
<text text-anchor="start" x="364" y="-263.5" font-family="Helvetica,sans-Serif" font-size="10.00">/home/runner/work/Simulatio</text>
<text text-anchor="start" x="364" y="-252.5" font-family="Helvetica,sans-Serif" font-size="10.00">/Simulatio/include/Geometry</text>
<text text-anchor="middle" x="435" y="-241.5" font-family="Helvetica,sans-Serif" font-size="10.00">/Collision.hpp</text>
</a>
</g>
</g>
<!-- Node1&#45;&gt;Node16 -->
<g id="edge55" class="edge">
<title>Node1&#45;&gt;Node16</title>
<path fill="none" stroke="midnightblue" d="M971.79,-875.78C785.79,-870.51 369.18,-855.14 314,-822 269.81,-795.47 252,-775.54 252,-724 252,-724 252,-724 252,-566 252,-440.69 364.25,-321.51 412.93,-275.72"/>
<polygon fill="midnightblue" stroke="midnightblue" points="971.73,-879.28 981.82,-876.06 971.92,-872.28 971.73,-879.28"/>
</g>
<!-- Node17 -->
<g id="node17" class="node">
<title>Node17</title>
<g id="a_node17"><a xlink:href="_old_quadtree_8hpp.html" target="_top" xlink:title=" ">
<polygon fill="none" stroke="black" points="1092,-234.5 1092,-275.5 1250,-275.5 1250,-234.5 1092,-234.5"/>
<text text-anchor="start" x="1100" y="-263.5" font-family="Helvetica,sans-Serif" font-size="10.00">/home/runner/work/Simulatio</text>
<text text-anchor="start" x="1100" y="-252.5" font-family="Helvetica,sans-Serif" font-size="10.00">/Simulatio/include/Structures</text>
<text text-anchor="middle" x="1171" y="-241.5" font-family="Helvetica,sans-Serif" font-size="10.00">/OldQuadtree.hpp</text>
</a>
</g>
</g>
<!-- Node1&#45;&gt;Node17 -->
<g id="edge73" class="edge">
<title>Node1&#45;&gt;Node17</title>
<path fill="none" stroke="midnightblue" d="M1150.1,-865.68C1202.33,-856.5 1261.26,-842.07 1278,-822 1372.76,-708.39 1302,-637.94 1302,-490 1302,-490 1302,-490 1302,-410 1302,-349.8 1243.21,-301.15 1204.4,-275.58"/>
<polygon fill="midnightblue" stroke="midnightblue" points="1149.37,-862.25 1140.1,-867.39 1150.55,-869.15 1149.37,-862.25"/>
</g>
<!-- Node18 -->
<g id="node18" class="node">
<title>Node18</title>
<g id="a_node18"><a xlink:href="_quad_node_8hpp.html" target="_top" xlink:title=" ">
<polygon fill="none" stroke="black" points="1268,-234.5 1268,-275.5 1426,-275.5 1426,-234.5 1268,-234.5"/>
<text text-anchor="start" x="1276" y="-263.5" font-family="Helvetica,sans-Serif" font-size="10.00">/home/runner/work/Simulatio</text>
<text text-anchor="start" x="1276" y="-252.5" font-family="Helvetica,sans-Serif" font-size="10.00">/Simulatio/include/Structures</text>
<text text-anchor="middle" x="1347" y="-241.5" font-family="Helvetica,sans-Serif" font-size="10.00">/QuadNode.hpp</text>
</a>
</g>
</g>
<!-- Node1&#45;&gt;Node18 -->
<g id="edge74" class="edge">
<title>Node1&#45;&gt;Node18</title>
<path fill="none" stroke="midnightblue" d="M1150.22,-876.49C1255.38,-869.42 1416,-839.68 1416,-724 1416,-724 1416,-724 1416,-410 1416,-357.85 1382.64,-303.77 1362.31,-275.65"/>
<polygon fill="midnightblue" stroke="midnightblue" points="1149.99,-872.99 1140.23,-877.1 1150.42,-879.98 1149.99,-872.99"/>
</g>
<!-- Node19 -->
<g id="node19" class="node">
<title>Node19</title>
<g id="a_node19"><a xlink:href="_quadtree_8hpp.html" target="_top" xlink:title=" ">
<polygon fill="none" stroke="black" points="1286,-156.5 1286,-197.5 1444,-197.5 1444,-156.5 1286,-156.5"/>
<text text-anchor="start" x="1294" y="-185.5" font-family="Helvetica,sans-Serif" font-size="10.00">/home/runner/work/Simulatio</text>
<text text-anchor="start" x="1294" y="-174.5" font-family="Helvetica,sans-Serif" font-size="10.00">/Simulatio/include/Structures</text>
<text text-anchor="middle" x="1365" y="-163.5" font-family="Helvetica,sans-Serif" font-size="10.00">/Quadtree.hpp</text>
</a>
</g>
</g>
<!-- Node1&#45;&gt;Node19 -->
<g id="edge75" class="edge">
<title>Node1&#45;&gt;Node19</title>
<path fill="none" stroke="midnightblue" d="M1137.95,-854.43C1155.65,-846.29 1173.28,-835.67 1187,-822 1226.35,-782.79 1249.53,-750.25 1222,-702 1188.23,-642.81 1151.99,-652.29 1090,-624 1085.46,-621.93 751.92,-514.05 749,-510 722.9,-473.75 690.78,-419.41 765,-312 785.34,-282.57 805.43,-292.84 837,-276 870.37,-258.2 874.95,-245.43 911,-234 1066.8,-184.58 1115.66,-224.16 1277,-198 1279.94,-197.52 1282.93,-197.01 1285.94,-196.46"/>
<polygon fill="midnightblue" stroke="midnightblue" points="1136.48,-851.25 1128.71,-858.46 1139.27,-857.67 1136.48,-851.25"/>
</g>
<!-- Node21 -->
<g id="node21" class="node">
<title>Node21</title>
<g id="a_node21"><a xlink:href="_bounds_8hpp.html" target="_top" xlink:title=" ">
<polygon fill="none" stroke="black" points="1036,-702.5 1036,-743.5 1194,-743.5 1194,-702.5 1036,-702.5"/>
<text text-anchor="start" x="1044" y="-731.5" font-family="Helvetica,sans-Serif" font-size="10.00">/home/runner/work/Simulatio</text>
<text text-anchor="start" x="1044" y="-720.5" font-family="Helvetica,sans-Serif" font-size="10.00">/Simulatio/include/Geometry</text>
<text text-anchor="middle" x="1115" y="-709.5" font-family="Helvetica,sans-Serif" font-size="10.00">/Bounds.hpp</text>
</a>
</g>
</g>
<!-- Node1&#45;&gt;Node21 -->
<g id="edge46" class="edge">
<title>Node1&#45;&gt;Node21</title>
<path fill="none" stroke="midnightblue" d="M1081.33,-849.95C1086.8,-841.33 1092.23,-831.58 1096,-822 1106.22,-796.04 1111.1,-763.97 1113.32,-743.74"/>
<polygon fill="midnightblue" stroke="midnightblue" points="1078.29,-848.2 1075.69,-858.47 1084.13,-852.07 1078.29,-848.2"/>
</g>
<!-- Node22 -->
<g id="node22" class="node">
<title>Node22</title>
<g id="a_node22"><a xlink:href="_vertices_8hpp.html" target="_top" xlink:title=" ">
<polygon fill="none" stroke="black" points="538,-624.5 538,-665.5 696,-665.5 696,-624.5 538,-624.5"/>
<text text-anchor="start" x="546" y="-653.5" font-family="Helvetica,sans-Serif" font-size="10.00">/home/runner/work/Simulatio</text>
<text text-anchor="start" x="546" y="-642.5" font-family="Helvetica,sans-Serif" font-size="10.00">/Simulatio/include/Geometry</text>
<text text-anchor="middle" x="617" y="-631.5" font-family="Helvetica,sans-Serif" font-size="10.00">/Vertices.hpp</text>
</a>
</g>
</g>
<!-- Node1&#45;&gt;Node22 -->
<g id="edge69" class="edge">
<title>Node1&#45;&gt;Node22</title>
<path fill="none" stroke="midnightblue" d="M971.72,-870.5C881.06,-858.36 742,-826.67 655,-744 632.91,-723.01 623.47,-687.7 619.57,-665.69"/>
<polygon fill="midnightblue" stroke="midnightblue" points="971.34,-873.98 981.7,-871.78 972.23,-867.04 971.34,-873.98"/>
</g>
<!-- Node23 -->
<g id="node23" class="node">
<title>Node23</title>
<g id="a_node23"><a xlink:href="_string_8hpp.html" target="_top" xlink:title=" ">
<polygon fill="none" stroke="black" points="1520,-234.5 1520,-275.5 1678,-275.5 1678,-234.5 1520,-234.5"/>
<text text-anchor="start" x="1528" y="-263.5" font-family="Helvetica,sans-Serif" font-size="10.00">/home/runner/work/Simulatio</text>
<text text-anchor="start" x="1528" y="-252.5" font-family="Helvetica,sans-Serif" font-size="10.00">/Simulatio/include/Geometry</text>
<text text-anchor="middle" x="1599" y="-241.5" font-family="Helvetica,sans-Serif" font-size="10.00">/String.hpp</text>
</a>
</g>
</g>
<!-- Node1&#45;&gt;Node23 -->
<g id="edge57" class="edge">
<title>Node1&#45;&gt;Node23</title>
<path fill="none" stroke="midnightblue" d="M1150.48,-873.84C1219.29,-868.1 1315.54,-854.44 1394,-822 1463.52,-793.26 1532,-799.23 1532,-724 1532,-724 1532,-724 1532,-410 1532,-358.1 1564.39,-303.92 1584.13,-275.72"/>
<polygon fill="midnightblue" stroke="midnightblue" points="1149.8,-870.39 1140.11,-874.67 1150.35,-877.36 1149.8,-870.39"/>
</g>
<!-- Node24 -->
<g id="node24" class="node">
<title>Node24</title>
<g id="a_node24"><a xlink:href="_vector_8hpp.html" target="_top" xlink:title=" ">
<polygon fill="none" stroke="black" points="929,-780.5 929,-821.5 1087,-821.5 1087,-780.5 929,-780.5"/>
<text text-anchor="start" x="937" y="-809.5" font-family="Helvetica,sans-Serif" font-size="10.00">/home/runner/work/Simulatio</text>
<text text-anchor="start" x="937" y="-798.5" font-family="Helvetica,sans-Serif" font-size="10.00">/Simulatio/include/Geometry</text>
<text text-anchor="middle" x="1008" y="-787.5" font-family="Helvetica,sans-Serif" font-size="10.00">/Vector.hpp</text>
</a>
</g>
</g>
<!-- Node1&#45;&gt;Node24 -->
<g id="edge60" class="edge">
<title>Node1&#45;&gt;Node24</title>
<path fill="none" stroke="midnightblue" d="M1041.51,-850.05C1034.89,-840.57 1027.66,-830.18 1021.6,-821.51"/>
<polygon fill="midnightblue" stroke="midnightblue" points="1038.76,-852.23 1047.35,-858.43 1044.5,-848.22 1038.76,-852.23"/>
</g>
<!-- Node25 -->
<g id="node25" class="node">
<title>Node25</title>
<g id="a_node25"><a xlink:href="_gui_module_8hpp.html" target="_top" xlink:title=" ">
<polygon fill="none" stroke="black" points="1594,-546.5 1594,-587.5 1752,-587.5 1752,-546.5 1594,-546.5"/>
<text text-anchor="start" x="1602" y="-575.5" font-family="Helvetica,sans-Serif" font-size="10.00">/home/runner/work/Simulatio</text>
<text text-anchor="start" x="1602" y="-564.5" font-family="Helvetica,sans-Serif" font-size="10.00">/Simulatio/include/Renderer</text>
<text text-anchor="middle" x="1673" y="-553.5" font-family="Helvetica,sans-Serif" font-size="10.00">/GuiModule.hpp</text>
</a>
</g>
</g>
<!-- Node1&#45;&gt;Node25 -->
<g id="edge70" class="edge">
<title>Node1&#45;&gt;Node25</title>
<path fill="none" stroke="midnightblue" d="M1150.44,-877.64C1272.73,-875.5 1484.05,-865.4 1546,-822 1628.58,-764.15 1660.27,-636.64 1669.67,-587.68"/>
<polygon fill="midnightblue" stroke="midnightblue" points="1150.28,-874.15 1140.34,-877.81 1150.39,-881.14 1150.28,-874.15"/>
</g>
<!-- Node3 -->
<g id="node3" class="node">
<title>Node3</title>
<g id="a_node3"><a xlink:href="_performance_8hpp.html" target="_top" xlink:title=" ">
<polygon fill="none" stroke="black" points="318.5,-702.5 318.5,-743.5 481.5,-743.5 481.5,-702.5 318.5,-702.5"/>
<text text-anchor="start" x="326.5" y="-731.5" font-family="Helvetica,sans-Serif" font-size="10.00">/home/runner/work/Simulatio</text>
<text text-anchor="start" x="326.5" y="-720.5" font-family="Helvetica,sans-Serif" font-size="10.00">/Simulatio/include/Benchmark</text>
<text text-anchor="middle" x="400" y="-709.5" font-family="Helvetica,sans-Serif" font-size="10.00">/Performance.hpp</text>
</a>
</g>
</g>
<!-- Node2&#45;&gt;Node3 -->
<g id="edge2" class="edge">
<title>Node2&#45;&gt;Node3</title>
<path fill="none" stroke="midnightblue" d="M439.03,-772.63C431.29,-762.99 422.76,-752.36 415.66,-743.51"/>
<polygon fill="midnightblue" stroke="midnightblue" points="436.3,-774.82 445.29,-780.43 441.76,-770.44 436.3,-774.82"/>
</g>
<!-- Node4 -->
<g id="node4" class="node">
<title>Node4</title>
<g id="a_node4"><a xlink:href="_recorder_8hpp.html" target="_top" xlink:title=" ">
<polygon fill="none" stroke="black" points="318.5,-624.5 318.5,-665.5 481.5,-665.5 481.5,-624.5 318.5,-624.5"/>
<text text-anchor="start" x="326.5" y="-653.5" font-family="Helvetica,sans-Serif" font-size="10.00">/home/runner/work/Simulatio</text>
<text text-anchor="start" x="326.5" y="-642.5" font-family="Helvetica,sans-Serif" font-size="10.00">/Simulatio/include/Benchmark</text>
<text text-anchor="middle" x="400" y="-631.5" font-family="Helvetica,sans-Serif" font-size="10.00">/Recorder.hpp</text>
</a>
</g>
</g>
<!-- Node3&#45;&gt;Node4 -->
<g id="edge3" class="edge">
<title>Node3&#45;&gt;Node4</title>
<path fill="none" stroke="midnightblue" d="M400,-692.3C400,-683.3 400,-673.65 400,-665.51"/>
<polygon fill="midnightblue" stroke="midnightblue" points="396.5,-692.43 400,-702.43 403.5,-692.43 396.5,-692.43"/>
</g>
<!-- Node4&#45;&gt;Node5 -->
<g id="edge4" class="edge">
<title>Node4&#45;&gt;Node5</title>
<path fill="none" stroke="midnightblue" d="M401.17,-614.3C401.53,-605.3 401.91,-595.65 402.23,-587.51"/>
<polygon fill="midnightblue" stroke="midnightblue" points="397.67,-614.3 400.77,-624.43 404.66,-614.57 397.67,-614.3"/>
</g>
<!-- Node5&#45;&gt;Node6 -->
<g id="edge5" class="edge">
<title>Node5&#45;&gt;Node6</title>
<path fill="none" stroke="midnightblue" d="M426.37,-538.68C468.99,-489.79 563.49,-385.59 656,-312 672.85,-298.6 693.1,-285.75 710.12,-275.75"/>
<polygon fill="midnightblue" stroke="midnightblue" points="423.66,-536.47 419.75,-546.32 428.94,-541.06 423.66,-536.47"/>
</g>
<!-- Node5&#45;&gt;Node8 -->
<g id="edge44" class="edge">
<title>Node5&#45;&gt;Node8</title>
<path fill="none" stroke="midnightblue" d="M390.62,-536.87C367.63,-479.47 321.78,-347.47 334,-234 337.8,-198.72 328.67,-183.58 351,-156 364.23,-139.66 383.25,-127.91 402.43,-119.54"/>
<polygon fill="midnightblue" stroke="midnightblue" points="387.48,-538.44 394.49,-546.38 393.96,-535.8 387.48,-538.44"/>
</g>
<!-- Node5&#45;&gt;Node9 -->
<g id="edge43" class="edge">
<title>Node5&#45;&gt;Node9</title>
<path fill="none" stroke="midnightblue" d="M380.92,-538.42C331.04,-475.03 214,-319.49 214,-256 214,-256 214,-256 214,-176 214,-127.88 214,-71.29 214,-41.93"/>
<polygon fill="midnightblue" stroke="midnightblue" points="378.26,-540.71 387.21,-546.39 383.76,-536.37 378.26,-540.71"/>
</g>
<!-- Node13 -->
<g id="node13" class="node">
<title>Node13</title>
<g id="a_node13"><a xlink:href="_corpse_8hpp.html" target="_top" xlink:title=" ">
<polygon fill="none" stroke="black" points="758,-468.5 758,-509.5 916,-509.5 916,-468.5 758,-468.5"/>
<text text-anchor="start" x="766" y="-497.5" font-family="Helvetica,sans-Serif" font-size="10.00">/home/runner/work/Simulatio</text>
<text text-anchor="start" x="766" y="-486.5" font-family="Helvetica,sans-Serif" font-size="10.00">/Simulatio/include/Corpses</text>
<text text-anchor="middle" x="837" y="-475.5" font-family="Helvetica,sans-Serif" font-size="10.00">/Corpse.hpp</text>
</a>
</g>
</g>
<!-- Node5&#45;&gt;Node13 -->
<g id="edge15" class="edge">
<title>Node5&#45;&gt;Node13</title>
<path fill="none" stroke="midnightblue" d="M492.4,-550.34C570.49,-536.67 682.77,-517.01 757.71,-503.88"/>
<polygon fill="midnightblue" stroke="midnightblue" points="491.34,-546.98 482.1,-552.15 492.55,-553.87 491.34,-546.98"/>
</g>
<!-- Node20 -->
<g id="node20" class="node">
<title>Node20</title>
<g id="a_node20"><a xlink:href="_converter_8hpp.html" target="_top" xlink:title=" ">
<polygon fill="none" stroke="black" points="104,-390.5 104,-431.5 262,-431.5 262,-390.5 104,-390.5"/>
<text text-anchor="start" x="112" y="-419.5" font-family="Helvetica,sans-Serif" font-size="10.00">/home/runner/work/Simulatio</text>
<text text-anchor="start" x="112" y="-408.5" font-family="Helvetica,sans-Serif" font-size="10.00">/Simulatio/include/Renderer</text>
<text text-anchor="middle" x="183" y="-397.5" font-family="Helvetica,sans-Serif" font-size="10.00">/Converter.hpp</text>
</a>
</g>
</g>
<!-- Node5&#45;&gt;Node20 -->
<g id="edge41" class="edge">
<title>Node5&#45;&gt;Node20</title>
<path fill="none" stroke="midnightblue" d="M336.26,-542.44C316,-533.77 294.29,-522.87 276,-510 244.16,-487.59 214.51,-453.03 197.6,-431.51"/>
<polygon fill="midnightblue" stroke="midnightblue" points="335.18,-545.78 345.76,-546.38 337.87,-539.31 335.18,-545.78"/>
</g>
<!-- Node7 -->
<g id="node7" class="node">
<title>Node7</title>
<g id="a_node7"><a xlink:href="_link_8hpp.html" target="_top" xlink:title=" ">
<polygon fill="none" stroke="black" points="1104.5,-156.5 1104.5,-197.5 1267.5,-197.5 1267.5,-156.5 1104.5,-156.5"/>
<text text-anchor="start" x="1112.5" y="-185.5" font-family="Helvetica,sans-Serif" font-size="10.00">/home/runner/work/Simulatio</text>
<text text-anchor="start" x="1112.5" y="-174.5" font-family="Helvetica,sans-Serif" font-size="10.00">/Simulatio/include/Constraints</text>
<text text-anchor="middle" x="1186" y="-163.5" font-family="Helvetica,sans-Serif" font-size="10.00">/Link.hpp</text>
</a>
</g>
</g>
<!-- Node6&#45;&gt;Node7 -->
<g id="edge6" class="edge">
<title>Node6&#45;&gt;Node7</title>
<path fill="none" stroke="midnightblue" d="M837.57,-234.79C839.05,-234.52 840.53,-234.26 842,-234 951.68,-214.63 980.32,-217.37 1090,-198 1094.69,-197.17 1099.51,-196.28 1104.36,-195.36"/>
<polygon fill="midnightblue" stroke="midnightblue" points="836.83,-231.37 827.64,-236.64 838.11,-238.25 836.83,-231.37"/>
</g>
<!-- Node6&#45;&gt;Node8 -->
<g id="edge14" class="edge">
<title>Node6&#45;&gt;Node8</title>
<path fill="none" stroke="midnightblue" d="M837.57,-234.84C839.06,-234.55 840.54,-234.27 842,-234 941.9,-215.24 1125.35,-231.24 1057,-156 1023.83,-119.49 705.51,-106.14 554.17,-101.83"/>
<polygon fill="midnightblue" stroke="midnightblue" points="836.81,-231.42 827.66,-236.76 838.14,-238.29 836.81,-231.42"/>
</g>
<!-- Node10 -->
<g id="node10" class="node">
<title>Node10</title>
<g id="a_node10"><a xlink:href="_loose_8hpp.html" target="_top" xlink:title=" ">
<polygon fill="none" stroke="black" points="703.5,-156.5 703.5,-197.5 866.5,-197.5 866.5,-156.5 703.5,-156.5"/>
<text text-anchor="start" x="711.5" y="-185.5" font-family="Helvetica,sans-Serif" font-size="10.00">/home/runner/work/Simulatio</text>
<text text-anchor="start" x="711.5" y="-174.5" font-family="Helvetica,sans-Serif" font-size="10.00">/Simulatio/include/Constraints</text>
<text text-anchor="middle" x="785" y="-163.5" font-family="Helvetica,sans-Serif" font-size="10.00">/Loose.hpp</text>
</a>
</g>
</g>
<!-- Node6&#45;&gt;Node10 -->
<g id="edge9" class="edge">
<title>Node6&#45;&gt;Node10</title>
<path fill="none" stroke="midnightblue" d="M760.64,-225.47C765.43,-216.14 770.63,-206.01 774.99,-197.51"/>
<polygon fill="midnightblue" stroke="midnightblue" points="757.5,-223.93 756.04,-234.43 763.72,-227.13 757.5,-223.93"/>
</g>
<!-- Node11 -->
<g id="node11" class="node">
<title>Node11</title>
<g id="a_node11"><a xlink:href="_slider_8hpp.html" target="_top" xlink:title=" ">
<polygon fill="none" stroke="black" points="522.5,-156.5 522.5,-197.5 685.5,-197.5 685.5,-156.5 522.5,-156.5"/>
<text text-anchor="start" x="530.5" y="-185.5" font-family="Helvetica,sans-Serif" font-size="10.00">/home/runner/work/Simulatio</text>
<text text-anchor="start" x="530.5" y="-174.5" font-family="Helvetica,sans-Serif" font-size="10.00">/Simulatio/include/Constraints</text>
<text text-anchor="middle" x="604" y="-163.5" font-family="Helvetica,sans-Serif" font-size="10.00">/Slider.hpp</text>
</a>
</g>
</g>
<!-- Node6&#45;&gt;Node11 -->
<g id="edge10" class="edge">
<title>Node6&#45;&gt;Node11</title>
<path fill="none" stroke="midnightblue" d="M700.46,-229.63C681.06,-219.24 658.73,-207.29 640.44,-197.51"/>
<polygon fill="midnightblue" stroke="midnightblue" points="698.96,-232.8 709.43,-234.43 702.27,-226.62 698.96,-232.8"/>
</g>
<!-- Node12 -->
<g id="node12" class="node">
<title>Node12</title>
<g id="a_node12"><a xlink:href="_spring_8hpp.html" target="_top" xlink:title=" ">
<polygon fill="none" stroke="black" points="884.5,-156.5 884.5,-197.5 1047.5,-197.5 1047.5,-156.5 884.5,-156.5"/>
<text text-anchor="start" x="892.5" y="-185.5" font-family="Helvetica,sans-Serif" font-size="10.00">/home/runner/work/Simulatio</text>
<text text-anchor="start" x="892.5" y="-174.5" font-family="Helvetica,sans-Serif" font-size="10.00">/Simulatio/include/Constraints</text>
<text text-anchor="middle" x="966" y="-163.5" font-family="Helvetica,sans-Serif" font-size="10.00">/Spring.hpp</text>
</a>
</g>
</g>
<!-- Node6&#45;&gt;Node12 -->
<g id="edge12" class="edge">
<title>Node6&#45;&gt;Node12</title>
<path fill="none" stroke="midnightblue" d="M812.5,-231.03C843.47,-220.33 879.93,-207.73 909.54,-197.51"/>
<polygon fill="midnightblue" stroke="midnightblue" points="810.96,-227.85 802.66,-234.43 813.25,-234.47 810.96,-227.85"/>
</g>
<!-- Node7&#45;&gt;Node8 -->
<g id="edge7" class="edge">
<title>Node7&#45;&gt;Node8</title>
<path fill="none" stroke="midnightblue" d="M1094.45,-156.68C1092.96,-156.45 1091.47,-156.22 1090,-156 898.86,-127.48 672,-111.36 554.47,-104.32"/>
<polygon fill="midnightblue" stroke="midnightblue" points="1093.97,-160.15 1104.41,-158.34 1095.12,-153.25 1093.97,-160.15"/>
</g>
<!-- Node8&#45;&gt;Node9 -->
<g id="edge8" class="edge">
<title>Node8&#45;&gt;Node9</title>
<path fill="none" stroke="midnightblue" d="M398.01,-75.58C360.86,-64.76 316.72,-51.91 280.99,-41.51"/>
<polygon fill="midnightblue" stroke="midnightblue" points="397.21,-78.99 407.79,-78.43 399.16,-72.27 397.21,-78.99"/>
</g>
<!-- Node11&#45;&gt;Node8 -->
<g id="edge11" class="edge">
<title>Node11&#45;&gt;Node8</title>
<path fill="none" stroke="midnightblue" d="M561.91,-151.2C544.45,-140.92 524.49,-129.16 508.11,-119.51"/>
<polygon fill="midnightblue" stroke="midnightblue" points="560.39,-154.37 570.78,-156.43 563.94,-148.34 560.39,-154.37"/>
</g>
<!-- Node12&#45;&gt;Node8 -->
<g id="edge13" class="edge">
<title>Node12&#45;&gt;Node8</title>
<path fill="none" stroke="midnightblue" d="M873.98,-155.69C757.5,-134.96 632.84,-118.69 554.05,-109.15"/>
<polygon fill="midnightblue" stroke="midnightblue" points="873.68,-159.2 884.14,-157.52 874.92,-152.31 873.68,-159.2"/>
</g>
<!-- Node13&#45;&gt;Node6 -->
<g id="edge16" class="edge">
<title>Node13&#45;&gt;Node6</title>
<path fill="none" stroke="midnightblue" d="M818.56,-459.77C802.16,-433.42 778.72,-392.5 765,-354 755.64,-327.72 750.53,-295.73 748.04,-275.61"/>
<polygon fill="midnightblue" stroke="midnightblue" points="815.74,-461.86 824.04,-468.45 821.66,-458.12 815.74,-461.86"/>
</g>
<!-- Node13&#45;&gt;Node8 -->
<g id="edge40" class="edge">
<title>Node13&#45;&gt;Node8</title>
<path fill="none" stroke="midnightblue" d="M747.68,-479.79C630.74,-463.58 430.82,-415.82 347,-276 311.16,-216.21 393.46,-151.19 442.23,-119.53"/>
<polygon fill="midnightblue" stroke="midnightblue" points="747.31,-483.27 757.68,-481.12 748.24,-476.33 747.31,-483.27"/>
</g>
<!-- Node14 -->
<g id="node14" class="node">
<title>Node14</title>
<g id="a_node14"><a xlink:href="_circle_8hpp.html" target="_top" xlink:title=" ">
<polygon fill="none" stroke="black" points="865,-390.5 865,-431.5 1023,-431.5 1023,-390.5 865,-390.5"/>
<text text-anchor="start" x="873" y="-419.5" font-family="Helvetica,sans-Serif" font-size="10.00">/home/runner/work/Simulatio</text>
<text text-anchor="start" x="873" y="-408.5" font-family="Helvetica,sans-Serif" font-size="10.00">/Simulatio/include/Corpses</text>
<text text-anchor="middle" x="944" y="-397.5" font-family="Helvetica,sans-Serif" font-size="10.00">/Circle.hpp</text>
</a>
</g>
</g>
<!-- Node13&#45;&gt;Node14 -->
<g id="edge17" class="edge">
<title>Node13&#45;&gt;Node14</title>
<path fill="none" stroke="midnightblue" d="M872.71,-462.64C887,-452.49 903.2,-440.98 916.54,-431.51"/>
<polygon fill="midnightblue" stroke="midnightblue" points="870.68,-459.78 864.56,-468.43 874.73,-465.49 870.68,-459.78"/>
</g>
<!-- Node15 -->
<g id="node15" class="node">
<title>Node15</title>
<g id="a_node15"><a xlink:href="_polygon_8hpp.html" target="_top" xlink:title=" ">
<polygon fill="none" stroke="black" points="774,-312.5 774,-353.5 932,-353.5 932,-312.5 774,-312.5"/>
<text text-anchor="start" x="782" y="-341.5" font-family="Helvetica,sans-Serif" font-size="10.00">/home/runner/work/Simulatio</text>
<text text-anchor="start" x="782" y="-330.5" font-family="Helvetica,sans-Serif" font-size="10.00">/Simulatio/include/Corpses</text>
<text text-anchor="middle" x="853" y="-319.5" font-family="Helvetica,sans-Serif" font-size="10.00">/Polygon.hpp</text>
</a>
</g>
</g>
<!-- Node13&#45;&gt;Node15 -->
<g id="edge35" class="edge">
<title>Node13&#45;&gt;Node15</title>
<path fill="none" stroke="midnightblue" d="M840.08,-458.36C843.27,-427.61 848.18,-380.36 850.94,-353.83"/>
<polygon fill="midnightblue" stroke="midnightblue" points="836.58,-458.19 839.03,-468.5 843.54,-458.91 836.58,-458.19"/>
</g>
<!-- Node13&#45;&gt;Node16 -->
<g id="edge36" class="edge">
<title>Node13&#45;&gt;Node16</title>
<path fill="none" stroke="midnightblue" d="M787.92,-463.95C713.46,-427.38 579.5,-361.23 570,-354 549.96,-338.76 551.58,-327.82 532,-312 514.76,-298.07 493.63,-285.44 475.51,-275.72"/>
<polygon fill="midnightblue" stroke="midnightblue" points="786.62,-467.21 797.14,-468.48 789.7,-460.93 786.62,-467.21"/>
</g>
<!-- Node13&#45;&gt;Node17 -->
<g id="edge37" class="edge">
<title>Node13&#45;&gt;Node17</title>
<path fill="none" stroke="midnightblue" d="M926.28,-477C988.18,-467.74 1063.68,-452.69 1088,-432 1131.75,-394.78 1110.01,-363.22 1136,-312 1142.33,-299.53 1150.57,-286.22 1157.47,-275.71"/>
<polygon fill="midnightblue" stroke="midnightblue" points="925.47,-473.58 916.08,-478.49 926.48,-480.5 925.47,-473.58"/>
</g>
<!-- Node13&#45;&gt;Node18 -->
<g id="edge38" class="edge">
<title>Node13&#45;&gt;Node18</title>
<path fill="none" stroke="midnightblue" d="M926.56,-480.29C982.64,-472.99 1055.33,-458.93 1115,-432 1203.71,-391.97 1290.19,-312.63 1327.63,-275.73"/>
<polygon fill="midnightblue" stroke="midnightblue" points="925.77,-476.86 916.29,-481.57 926.64,-483.8 925.77,-476.86"/>
</g>
<!-- Node13&#45;&gt;Node19 -->
<g id="edge39" class="edge">
<title>Node13&#45;&gt;Node19</title>
<path fill="none" stroke="midnightblue" d="M926.13,-481.7C963.4,-474.64 1004.38,-460.39 1032,-432 1095.36,-366.86 1016.58,-296.01 1083,-234 1147.1,-174.15 1191.11,-215.72 1277,-198 1279.92,-197.4 1282.88,-196.78 1285.88,-196.14"/>
<polygon fill="midnightblue" stroke="midnightblue" points="925.48,-478.26 916.23,-483.43 926.69,-485.16 925.48,-478.26"/>
</g>
<!-- Node14&#45;&gt;Node6 -->
<g id="edge18" class="edge">
<title>Node14&#45;&gt;Node6</title>
<path fill="none" stroke="midnightblue" d="M951.57,-380.36C955.14,-359.15 955.84,-331.08 941,-312 926.6,-293.47 874.36,-279.06 827.57,-269.5"/>
<polygon fill="midnightblue" stroke="midnightblue" points="948.08,-379.96 949.58,-390.45 954.95,-381.32 948.08,-379.96"/>
</g>
<!-- Node14&#45;&gt;Node8 -->
<g id="edge34" class="edge">
<title>Node14&#45;&gt;Node8</title>
<path fill="none" stroke="midnightblue" d="M854.5,-391.95C773.41,-372.6 653.15,-336.25 563,-276 541.57,-261.68 541.13,-252.32 523,-234 506.86,-217.69 496.09,-218.61 486,-198 473.8,-173.09 472.64,-140.46 473.43,-119.86"/>
<polygon fill="midnightblue" stroke="midnightblue" points="854.16,-395.46 864.69,-394.34 855.75,-388.65 854.16,-395.46"/>
</g>
<!-- Node14&#45;&gt;Node15 -->
<g id="edge19" class="edge">
<title>Node14&#45;&gt;Node15</title>
<path fill="none" stroke="midnightblue" d="M906.51,-384.06C893.99,-374.06 880.67,-362.8 870.37,-353.51"/>
<polygon fill="midnightblue" stroke="midnightblue" points="904.56,-386.98 914.58,-390.43 908.89,-381.49 904.56,-386.98"/>
</g>
<!-- Node14&#45;&gt;Node16 -->
<g id="edge30" class="edge">
<title>Node14&#45;&gt;Node16</title>
<path fill="none" stroke="midnightblue" d="M854.51,-400.15C772.83,-390.16 658.83,-373.45 618,-354 592.41,-341.81 594.08,-326.96 570,-312 546.4,-297.34 518.29,-284.97 493.85,-275.62"/>
<polygon fill="midnightblue" stroke="midnightblue" points="854.45,-403.67 864.8,-401.39 855.29,-396.72 854.45,-403.67"/>
</g>
<!-- Node14&#45;&gt;Node17 -->
<g id="edge31" class="edge">
<title>Node14&#45;&gt;Node17</title>
<path fill="none" stroke="midnightblue" d="M981.07,-384.85C1026.11,-354.3 1101.15,-303.39 1142.13,-275.59"/>
<polygon fill="midnightblue" stroke="midnightblue" points="979.06,-381.99 972.75,-390.5 982.99,-387.78 979.06,-381.99"/>
</g>
<!-- Node14&#45;&gt;Node18 -->
<g id="edge32" class="edge">
<title>Node14&#45;&gt;Node18</title>
<path fill="none" stroke="midnightblue" d="M1004.41,-386.92C1083.65,-356.64 1221.33,-304.02 1295.74,-275.59"/>
<polygon fill="midnightblue" stroke="midnightblue" points="1003.13,-383.66 995.04,-390.5 1005.63,-390.2 1003.13,-383.66"/>
</g>
<!-- Node14&#45;&gt;Node19 -->
<g id="edge33" class="edge">
<title>Node14&#45;&gt;Node19</title>
<path fill="none" stroke="midnightblue" d="M952.88,-380.77C966.7,-340.65 997.37,-269.47 1050,-234 1134.71,-176.91 1176.7,-217.33 1277,-198 1279.92,-197.44 1282.9,-196.85 1285.9,-196.24"/>
<polygon fill="midnightblue" stroke="midnightblue" points="949.56,-379.67 949.73,-390.26 956.2,-381.87 949.56,-379.67"/>
</g>
<!-- Node15&#45;&gt;Node6 -->
<g id="edge20" class="edge">
<title>Node15&#45;&gt;Node6</title>
<path fill="none" stroke="midnightblue" d="M817.29,-306.64C803,-296.49 786.8,-284.98 773.46,-275.51"/>
<polygon fill="midnightblue" stroke="midnightblue" points="815.27,-309.49 825.44,-312.43 819.32,-303.78 815.27,-309.49"/>
</g>
<!-- Node15&#45;&gt;Node8 -->
<g id="edge29" class="edge">
<title>Node15&#45;&gt;Node8</title>
<path fill="none" stroke="midnightblue" d="M763.96,-311.25C729.63,-302.07 690.43,-290.14 656,-276 622.7,-262.32 537.84,-224.98 514,-198 494,-175.36 483.58,-141.19 478.7,-119.76"/>
<polygon fill="midnightblue" stroke="midnightblue" points="763.41,-314.72 773.97,-313.88 765.19,-307.95 763.41,-314.72"/>
</g>
<!-- Node15&#45;&gt;Node14 -->
<g id="edge21" class="edge">
<title>Node15&#45;&gt;Node14</title>
<path fill="none" stroke="midnightblue" d="M890.4,-359.86C902.92,-369.87 916.24,-381.12 926.55,-390.43"/>
<polygon fill="midnightblue" stroke="midnightblue" points="892.36,-356.95 882.34,-353.51 888.02,-362.45 892.36,-356.95"/>
</g>
<!-- Node15&#45;&gt;Node16 -->
<g id="edge22" class="edge">
<title>Node15&#45;&gt;Node16</title>
<path fill="none" stroke="midnightblue" d="M763.64,-315.75C689.56,-302.28 585.25,-283.32 514.15,-270.39"/>
<polygon fill="midnightblue" stroke="midnightblue" points="763.42,-319.27 773.89,-317.62 764.67,-312.38 763.42,-319.27"/>
</g>
<!-- Node15&#45;&gt;Node17 -->
<g id="edge24" class="edge">
<title>Node15&#45;&gt;Node17</title>
<path fill="none" stroke="midnightblue" d="M941.9,-310.75C988.98,-299.5 1046.31,-285.8 1091.84,-274.92"/>
<polygon fill="midnightblue" stroke="midnightblue" points="940.93,-307.39 932.02,-313.12 942.56,-314.2 940.93,-307.39"/>
</g>
<!-- Node15&#45;&gt;Node18 -->
<g id="edge25" class="edge">
<title>Node15&#45;&gt;Node18</title>
<path fill="none" stroke="midnightblue" d="M942.39,-321.92C1024.88,-312.09 1150.64,-295.75 1259,-276 1261.93,-275.47 1264.91,-274.9 1267.91,-274.31"/>
<polygon fill="midnightblue" stroke="midnightblue" points="941.81,-318.47 932.29,-323.12 942.64,-325.42 941.81,-318.47"/>
</g>
<!-- Node15&#45;&gt;Node19 -->
<g id="edge28" class="edge">
<title>Node15&#45;&gt;Node19</title>
<path fill="none" stroke="midnightblue" d="M879.78,-305.22C904.56,-282.22 943.58,-250.25 984,-234 1105.73,-185.06 1147.75,-220.57 1277,-198 1279.93,-197.49 1282.91,-196.94 1285.92,-196.37"/>
<polygon fill="midnightblue" stroke="midnightblue" points="877.11,-302.93 872.25,-312.35 881.92,-308.02 877.11,-302.93"/>
</g>
<!-- Node16&#45;&gt;Node8 -->
<g id="edge23" class="edge">
<title>Node16&#45;&gt;Node8</title>
<path fill="none" stroke="midnightblue" d="M433.63,-224.12C433.56,-204.36 435.11,-178.12 442,-156 446.03,-143.07 453.53,-129.96 460.36,-119.67"/>
<polygon fill="midnightblue" stroke="midnightblue" points="430.13,-224.42 433.8,-234.36 437.13,-224.3 430.13,-224.42"/>
</g>
<!-- Node18&#45;&gt;Node19 -->
<g id="edge26" class="edge">
<title>Node18&#45;&gt;Node19</title>
<path fill="none" stroke="midnightblue" d="M1353.97,-224.59C1356.12,-215.51 1358.43,-205.74 1360.38,-197.51"/>
<polygon fill="midnightblue" stroke="midnightblue" points="1350.53,-223.89 1351.64,-234.43 1357.35,-225.5 1350.53,-223.89"/>
</g>
<!-- Node19&#45;&gt;Node8 -->
<g id="edge27" class="edge">
<title>Node19&#45;&gt;Node8</title>
<path fill="none" stroke="midnightblue" d="M1275.98,-155.97C1006.46,-116.89 696.95,-105.09 554.27,-101.5"/>
<polygon fill="midnightblue" stroke="midnightblue" points="1275.55,-159.45 1285.95,-157.43 1276.57,-152.52 1275.55,-159.45"/>
</g>
<!-- Node20&#45;&gt;Node9 -->
<g id="edge42" class="edge">
<title>Node20&#45;&gt;Node9</title>
<path fill="none" stroke="midnightblue" d="M180.82,-379.93C178.77,-348.9 176,-299.09 176,-256 176,-256 176,-256 176,-176 176,-126.43 194.79,-70.43 205.94,-41.55"/>
<polygon fill="midnightblue" stroke="midnightblue" points="177.34,-380.34 181.52,-390.08 184.33,-379.86 177.34,-380.34"/>
</g>
<!-- Node21&#45;&gt;Node5 -->
<g id="edge48" class="edge">
<title>Node21&#45;&gt;Node5</title>
<path fill="none" stroke="midnightblue" d="M1025.75,-714.35C958.52,-706.8 864.77,-692.41 786,-666 747.55,-653.11 743.35,-637.17 705,-624 631.62,-598.8 544.1,-584.15 482.21,-576.21"/>
<polygon fill="midnightblue" stroke="midnightblue" points="1025.57,-717.86 1035.89,-715.46 1026.33,-710.9 1025.57,-717.86"/>
</g>
<!-- Node21&#45;&gt;Node16 -->
<g id="edge47" class="edge">
<title>Node21&#45;&gt;Node16</title>
<path fill="none" stroke="midnightblue" d="M1046.43,-699.07C954.46,-666.28 788.65,-599.88 667,-510 569.97,-438.31 481.62,-321.61 448.66,-275.57"/>
<polygon fill="midnightblue" stroke="midnightblue" points="1045.32,-702.39 1055.91,-702.43 1047.65,-695.79 1045.32,-702.39"/>
</g>
<!-- Node21&#45;&gt;Node17 -->
<g id="edge52" class="edge">
<title>Node21&#45;&gt;Node17</title>
<path fill="none" stroke="midnightblue" d="M1121.27,-692.51C1132.07,-640.29 1154.02,-527.98 1164,-432 1169.88,-375.43 1170.91,-308.15 1171.04,-275.59"/>
<polygon fill="midnightblue" stroke="midnightblue" points="1117.81,-691.92 1119.2,-702.43 1124.67,-693.35 1117.81,-691.92"/>
</g>
<!-- Node21&#45;&gt;Node18 -->
<g id="edge53" class="edge">
<title>Node21&#45;&gt;Node18</title>
<path fill="none" stroke="midnightblue" d="M1129.31,-693.26C1172.46,-606.58 1300.64,-349.12 1337.18,-275.73"/>
<polygon fill="midnightblue" stroke="midnightblue" points="1126.14,-691.76 1124.82,-702.27 1132.41,-694.88 1126.14,-691.76"/>
</g>
<!-- Node21&#45;&gt;Node19 -->
<g id="edge54" class="edge">
<title>Node21&#45;&gt;Node19</title>
<path fill="none" stroke="midnightblue" d="M1145.59,-695.46C1215.98,-631.88 1387.08,-462.17 1435,-276 1439.65,-257.92 1443.09,-250.82 1435,-234 1427.79,-218.99 1414.37,-206.75 1401.2,-197.58"/>
<polygon fill="midnightblue" stroke="midnightblue" points="1143.03,-693.06 1137.91,-702.34 1147.7,-698.28 1143.03,-693.06"/>
</g>
<!-- Node21&#45;&gt;Node22 -->
<g id="edge49" class="edge">
<title>Node21&#45;&gt;Node22</title>
<path fill="none" stroke="midnightblue" d="M1025.64,-708.37C951.33,-697.03 842.78,-680.47 748,-666 731.28,-663.45 713.37,-660.71 696.32,-658.11"/>
<polygon fill="midnightblue" stroke="midnightblue" points="1025.48,-711.88 1035.89,-709.93 1026.53,-704.96 1025.48,-711.88"/>
</g>
<!-- Node22&#45;&gt;Node5 -->
<g id="edge51" class="edge">
<title>Node22&#45;&gt;Node5</title>
<path fill="none" stroke="midnightblue" d="M552.31,-621.03C522.19,-610.33 486.73,-597.73 457.92,-587.51"/>
<polygon fill="midnightblue" stroke="midnightblue" points="551.29,-624.38 561.89,-624.43 553.64,-617.78 551.29,-624.38"/>
</g>
<!-- Node22&#45;&gt;Node16 -->
<g id="edge50" class="edge">
<title>Node22&#45;&gt;Node16</title>
<path fill="none" stroke="midnightblue" d="M581.52,-618.04C535.85,-582.17 458.74,-512.68 428,-432 407.58,-378.42 420.83,-308.91 429.38,-275.55"/>
<polygon fill="midnightblue" stroke="midnightblue" points="579.61,-620.99 589.66,-624.34 583.89,-615.45 579.61,-620.99"/>
</g>
<!-- Node23&#45;&gt;Node9 -->
<g id="edge58" class="edge">
<title>Node23&#45;&gt;Node9</title>
<path fill="none" stroke="midnightblue" d="M1569.37,-227.72C1541.45,-204.59 1497.38,-172.17 1453,-156 1237.9,-77.62 531.74,-37.26 293.39,-25.62"/>
<polygon fill="midnightblue" stroke="midnightblue" points="1567.24,-230.5 1577.15,-234.27 1571.75,-225.15 1567.24,-230.5"/>
</g>
<!-- Node23&#45;&gt;Node19 -->
<g id="edge59" class="edge">
<title>Node23&#45;&gt;Node19</title>
<path fill="none" stroke="midnightblue" d="M1529.12,-231.3C1496,-220.55 1456.82,-207.82 1425.06,-197.51"/>
<polygon fill="midnightblue" stroke="midnightblue" points="1528.15,-234.67 1538.74,-234.43 1530.31,-228.01 1528.15,-234.67"/>
</g>
<!-- Node24&#45;&gt;Node5 -->
<g id="edge63" class="edge">
<title>Node24&#45;&gt;Node5</title>
<path fill="none" stroke="midnightblue" d="M918.9,-795.62C846.01,-789.76 741.24,-776.05 655,-744 593.26,-721.06 579.59,-708.17 529,-666 509.66,-649.88 510.24,-640.24 491,-624 474.81,-610.33 455.04,-597.46 438.34,-587.51"/>
<polygon fill="midnightblue" stroke="midnightblue" points="918.73,-799.12 928.97,-796.4 919.27,-792.14 918.73,-799.12"/>
</g>
<!-- Node24&#45;&gt;Node9 -->
<g id="edge65" class="edge">
<title>Node24&#45;&gt;Node9</title>
<path fill="none" stroke="midnightblue" d="M918.46,-797.95C828.48,-793.73 686.77,-781.14 570,-744 532.11,-731.95 528.46,-715.35 491,-702 413.74,-674.46 381.5,-706.18 310,-666 152.63,-577.56 76,-514.52 76,-334 76,-334 76,-334 76,-176 76,-114.79 137.21,-66.8 178.1,-41.58"/>
<polygon fill="midnightblue" stroke="midnightblue" points="918.48,-801.46 928.62,-798.4 918.79,-794.46 918.48,-801.46"/>
</g>
<!-- Node24&#45;&gt;Node16 -->
<g id="edge62" class="edge">
<title>Node24&#45;&gt;Node16</title>
<path fill="none" stroke="midnightblue" d="M969.13,-774.87C896.18,-726.99 735,-617.81 612,-510 575.83,-478.3 569.08,-467.83 537,-432 506.9,-398.38 494.73,-392.98 472,-354 457.16,-328.55 446.29,-296.06 440.3,-275.64"/>
<polygon fill="midnightblue" stroke="midnightblue" points="967.3,-777.85 977.59,-780.4 971.13,-772 967.3,-777.85"/>
</g>
<!-- Node24&#45;&gt;Node17 -->
<g id="edge66" class="edge">
<title>Node24&#45;&gt;Node17</title>
<path fill="none" stroke="midnightblue" d="M1012.79,-770.2C1016.17,-750.66 1021.14,-724.65 1027,-702 1058.63,-579.81 1076.31,-552.14 1115,-432 1133.28,-375.23 1154.56,-308.04 1164.83,-275.55"/>
<polygon fill="midnightblue" stroke="midnightblue" points="1009.3,-769.87 1011.08,-780.32 1016.2,-771.04 1009.3,-769.87"/>
</g>
<!-- Node24&#45;&gt;Node18 -->
<g id="edge67" class="edge">
<title>Node24&#45;&gt;Node18</title>
<path fill="none" stroke="midnightblue" d="M1097.26,-792.16C1133.94,-784.78 1174.42,-770.71 1203,-744 1344.19,-612.08 1349.23,-349.29 1347.71,-275.61"/>
<polygon fill="midnightblue" stroke="midnightblue" points="1096.21,-788.79 1087.03,-794.06 1097.5,-795.67 1096.21,-788.79"/>
</g>
<!-- Node24&#45;&gt;Node19 -->
<g id="edge68" class="edge">
<title>Node24&#45;&gt;Node19</title>
<path fill="none" stroke="midnightblue" d="M1097.26,-791.23C1141.32,-783.73 1193.73,-769.81 1235,-744 1349.77,-672.21 1378.27,-635.1 1430,-510 1477.01,-396.32 1509.63,-342.15 1451,-234 1442.51,-218.34 1427.53,-206.37 1412.42,-197.59"/>
<polygon fill="midnightblue" stroke="midnightblue" points="1096.44,-787.82 1087.13,-792.87 1097.56,-794.73 1096.44,-787.82"/>
</g>
<!-- Node24&#45;&gt;Node21 -->
<g id="edge61" class="edge">
<title>Node24&#45;&gt;Node21</title>
<path fill="none" stroke="midnightblue" d="M1043.71,-774.64C1058,-764.49 1074.2,-752.98 1087.54,-743.51"/>
<polygon fill="midnightblue" stroke="midnightblue" points="1041.68,-771.78 1035.56,-780.43 1045.73,-777.49 1041.68,-771.78"/>
</g>
<!-- Node24&#45;&gt;Node22 -->
<g id="edge64" class="edge">
<title>Node24&#45;&gt;Node22</title>
<path fill="none" stroke="midnightblue" d="M918.76,-797.56C856.89,-792.54 774.38,-779.06 710,-744 675.19,-725.04 645.81,-688.41 629.86,-665.69"/>
<polygon fill="midnightblue" stroke="midnightblue" points="918.66,-801.06 928.89,-798.32 919.18,-794.08 918.66,-801.06"/>
</g>
<!-- Node25&#45;&gt;Node9 -->
<g id="edge71" class="edge">
<title>Node25&#45;&gt;Node9</title>
<path fill="none" stroke="midnightblue" d="M1683.13,-536.71C1692.83,-506.03 1706,-456.22 1706,-412 1706,-412 1706,-412 1706,-176 1706,-32.62 601.61,-21.96 293.16,-21.78"/>
<polygon fill="midnightblue" stroke="midnightblue" points="1679.76,-535.76 1680,-546.35 1686.42,-537.93 1679.76,-535.76"/>
</g>
</g>
</svg>
