<?xml version="1.0" encoding="UTF-8" standalone="no"?>
<!DOCTYPE svg PUBLIC "-//W3C//DTD SVG 1.1//EN"
 "http://www.w3.org/Graphics/SVG/1.1/DTD/svg11.dtd">
<!-- Generated by graphviz version 2.43.0 (0)
 -->
<!-- Title: /home/runner/work/Simulatio/Simulatio/src/Structures/OldQuadtree.cpp Pages: 1 -->
<svg width="849pt" height="621pt"
 viewBox="0.00 0.00 848.50 621.00" xmlns="http://www.w3.org/2000/svg" xmlns:xlink="http://www.w3.org/1999/xlink">
<g id="graph0" class="graph" transform="scale(1 1) rotate(0) translate(4 617)">
<title>/home/runner/work/Simulatio/Simulatio/src/Structures/OldQuadtree.cpp</title>
<!-- Node1 -->
<g id="node1" class="node">
<title>Node1</title>
<g id="a_node1"><a xlink:title=" ">
<polygon fill="#bfbfbf" stroke="black" points="562,-571.5 562,-612.5 720,-612.5 720,-571.5 562,-571.5"/>
<text text-anchor="start" x="570" y="-600.5" font-family="Helvetica,sans-Serif" font-size="10.00">/home/runner/work/Simulatio</text>
<text text-anchor="start" x="570" y="-589.5" font-family="Helvetica,sans-Serif" font-size="10.00">/Simulatio/src/Structures</text>
<text text-anchor="middle" x="641" y="-578.5" font-family="Helvetica,sans-Serif" font-size="10.00">/OldQuadtree.cpp</text>
</a>
</g>
</g>
<!-- Node2 -->
<g id="node2" class="node">
<title>Node2</title>
<g id="a_node2"><a xlink:href="_old_quadtree_8hpp.html" target="_top" xlink:title=" ">
<polygon fill="none" stroke="black" points="580,-504.5 580,-534.5 702,-534.5 702,-504.5 580,-504.5"/>
<text text-anchor="start" x="588" y="-522.5" font-family="Helvetica,sans-Serif" font-size="10.00">../../include/Structures</text>
<text text-anchor="middle" x="641" y="-511.5" font-family="Helvetica,sans-Serif" font-size="10.00">/OldQuadtree.hpp</text>
</a>
</g>
</g>
<!-- Node1&#45;&gt;Node2 -->
<g id="edge1" class="edge">
<title>Node1&#45;&gt;Node2</title>
<path fill="none" stroke="midnightblue" d="M641,-571.36C641,-563.23 641,-553.7 641,-545.11"/>
<polygon fill="midnightblue" stroke="midnightblue" points="644.5,-544.89 641,-534.89 637.5,-544.89 644.5,-544.89"/>
</g>
<!-- Node3 -->
<g id="node3" class="node">
<title>Node3</title>
<g id="a_node3"><a xlink:href="_circle_8hpp.html" target="_top" xlink:title=" ">
<polygon fill="none" stroke="black" points="538,-448.5 538,-467.5 654,-467.5 654,-448.5 538,-448.5"/>
<text text-anchor="middle" x="596" y="-455.5" font-family="Helvetica,sans-Serif" font-size="10.00">../Corpses/Circle.hpp</text>
</a>
</g>
</g>
<!-- Node2&#45;&gt;Node3 -->
<g id="edge2" class="edge">
<title>Node2&#45;&gt;Node3</title>
<path fill="none" stroke="midnightblue" d="M630.34,-504.4C623.86,-495.84 615.57,-484.87 608.75,-475.86"/>
<polygon fill="midnightblue" stroke="midnightblue" points="611.37,-473.52 602.55,-467.66 605.79,-477.74 611.37,-473.52"/>
</g>
<!-- Node6 -->
<g id="node6" class="node">
<title>Node6</title>
<g id="a_node6"><a xlink:href="_corpse_8hpp.html" target="_top" xlink:title=" ">
<polygon fill="none" stroke="black" points="420.5,-336.5 420.5,-355.5 491.5,-355.5 491.5,-336.5 420.5,-336.5"/>
<text text-anchor="middle" x="456" y="-343.5" font-family="Helvetica,sans-Serif" font-size="10.00">Corpse.hpp</text>
</a>
</g>
</g>
<!-- Node2&#45;&gt;Node6 -->
<g id="edge43" class="edge">
<title>Node2&#45;&gt;Node6</title>
<path fill="none" stroke="midnightblue" d="M587.97,-504.4C564.55,-496.38 537.69,-484.55 517,-468 483.88,-441.51 467.16,-392.34 460.16,-365.56"/>
<polygon fill="midnightblue" stroke="midnightblue" points="463.5,-364.47 457.74,-355.58 456.7,-366.12 463.5,-364.47"/>
</g>
<!-- Node14 -->
<g id="node14" class="node">
<title>Node14</title>
<g id="a_node14"><a xlink:href="_maths_8hpp.html" target="_top" xlink:title=" ">
<polygon fill="none" stroke="black" points="361,-56.5 361,-75.5 489,-75.5 489,-56.5 361,-56.5"/>
<text text-anchor="middle" x="425" y="-63.5" font-family="Helvetica,sans-Serif" font-size="10.00">../Geometry/Maths.hpp</text>
</a>
</g>
</g>
<!-- Node2&#45;&gt;Node14 -->
<g id="edge46" class="edge">
<title>Node2&#45;&gt;Node14</title>
<path fill="none" stroke="midnightblue" d="M675.49,-504.38C712.49,-486.66 766,-452.49 766,-403 766,-403 766,-403 766,-177 766,-121.37 599.55,-89.78 499.23,-75.79"/>
<polygon fill="midnightblue" stroke="midnightblue" points="499.52,-72.3 489.14,-74.41 498.57,-79.23 499.52,-72.3"/>
</g>
<!-- Node22 -->
<g id="node22" class="node">
<title>Node22</title>
<g id="a_node22"><a xlink:href="_bounds_8hpp.html" target="_top" xlink:title=" ">
<polygon fill="none" stroke="black" points="491,-168.5 491,-187.5 565,-187.5 565,-168.5 491,-168.5"/>
<text text-anchor="middle" x="528" y="-175.5" font-family="Helvetica,sans-Serif" font-size="10.00">Bounds.hpp</text>
</a>
</g>
</g>
<!-- Node2&#45;&gt;Node22 -->
<g id="edge45" class="edge">
<title>Node2&#45;&gt;Node22</title>
<path fill="none" stroke="midnightblue" d="M651.39,-504.37C665.78,-483.38 690,-442.21 690,-403 690,-403 690,-403 690,-289 690,-258.9 692.06,-245.5 671,-224 645.96,-198.44 606.58,-187.36 575.48,-182.57"/>
<polygon fill="midnightblue" stroke="midnightblue" points="575.67,-179.06 565.29,-181.18 574.72,-186 575.67,-179.06"/>
</g>
<!-- Node23 -->
<g id="node23" class="node">
<title>Node23</title>
<g id="a_node23"><a xlink:href="_vector_8hpp.html" target="_top" xlink:title=" ">
<polygon fill="none" stroke="black" points="494,-112.5 494,-131.5 562,-131.5 562,-112.5 494,-112.5"/>
<text text-anchor="middle" x="528" y="-119.5" font-family="Helvetica,sans-Serif" font-size="10.00">Vector.hpp</text>
</a>
</g>
</g>
<!-- Node2&#45;&gt;Node23 -->
<g id="edge47" class="edge">
<title>Node2&#45;&gt;Node23</title>
<path fill="none" stroke="midnightblue" d="M661.62,-504.32C687.34,-484.77 728,-446.93 728,-403 728,-403 728,-403 728,-233 728,-162.53 631.5,-136.89 572.56,-127.79"/>
<polygon fill="midnightblue" stroke="midnightblue" points="572.78,-124.29 562.38,-126.33 571.78,-131.22 572.78,-124.29"/>
</g>
<!-- Node25 -->
<g id="node25" class="node">
<title>Node25</title>
<g id="a_node25"><a xlink:href="_polygon_8hpp.html" target="_top" xlink:title=" ">
<polygon fill="none" stroke="black" points="486.5,-392.5 486.5,-411.5 563.5,-411.5 563.5,-392.5 486.5,-392.5"/>
<text text-anchor="middle" x="525" y="-399.5" font-family="Helvetica,sans-Serif" font-size="10.00">Polygon.hpp</text>
</a>
</g>
</g>
<!-- Node2&#45;&gt;Node25 -->
<g id="edge44" class="edge">
<title>Node2&#45;&gt;Node25</title>
<path fill="none" stroke="midnightblue" d="M579.83,-504.42C560.47,-496.87 541,-485.38 529,-468 519.77,-454.64 519.64,-435.81 521.3,-421.86"/>
<polygon fill="midnightblue" stroke="midnightblue" points="524.77,-422.33 522.88,-411.91 517.86,-421.24 524.77,-422.33"/>
</g>
<!-- Node4 -->
<g id="node4" class="node">
<title>Node4</title>
<g id="a_node4"><a xlink:title=" ">
<polygon fill="none" stroke="#bfbfbf" points="14.5,-0.5 14.5,-19.5 61.5,-19.5 61.5,-0.5 14.5,-0.5"/>
<text text-anchor="middle" x="38" y="-7.5" font-family="Helvetica,sans-Serif" font-size="10.00">vector</text>
</a>
</g>
</g>
<!-- Node3&#45;&gt;Node4 -->
<g id="edge3" class="edge">
<title>Node3&#45;&gt;Node4</title>
<path fill="none" stroke="midnightblue" d="M537.77,-452.35C387.8,-439.58 0,-401.32 0,-347 0,-347 0,-347 0,-121 0,-86.81 16.6,-49.76 27.86,-28.57"/>
<polygon fill="midnightblue" stroke="midnightblue" points="30.95,-30.22 32.72,-19.77 24.82,-26.83 30.95,-30.22"/>
</g>
<!-- Node5 -->
<g id="node5" class="node">
<title>Node5</title>
<g id="a_node5"><a xlink:title=" ">
<polygon fill="none" stroke="#bfbfbf" points="594,-224.5 594,-243.5 662,-243.5 662,-224.5 594,-224.5"/>
<text text-anchor="middle" x="628" y="-231.5" font-family="Helvetica,sans-Serif" font-size="10.00">Config.hpp</text>
</a>
</g>
</g>
<!-- Node3&#45;&gt;Node5 -->
<g id="edge4" class="edge">
<title>Node3&#45;&gt;Node5</title>
<path fill="none" stroke="midnightblue" d="M597.25,-448.3C601.96,-415.63 618.65,-299.87 625.27,-253.96"/>
<polygon fill="midnightblue" stroke="midnightblue" points="628.76,-254.28 626.72,-243.88 621.83,-253.28 628.76,-254.28"/>
</g>
<!-- Node3&#45;&gt;Node6 -->
<g id="edge5" class="edge">
<title>Node3&#45;&gt;Node6</title>
<path fill="none" stroke="midnightblue" d="M595.21,-448.21C593.52,-434.46 588.36,-407.78 573,-392 554.01,-372.49 525.63,-361.3 501.58,-354.96"/>
<polygon fill="midnightblue" stroke="midnightblue" points="502.12,-351.49 491.58,-352.53 500.47,-358.29 502.12,-351.49"/>
</g>
<!-- Node3&#45;&gt;Node25 -->
<g id="edge38" class="edge">
<title>Node3&#45;&gt;Node25</title>
<path fill="none" stroke="midnightblue" d="M579.48,-448.32C567.13,-440.26 550.76,-428.08 539.05,-418.37"/>
<polygon fill="midnightblue" stroke="midnightblue" points="541.33,-415.71 531.47,-411.83 536.76,-421.01 541.33,-415.71"/>
</g>
<!-- Node6&#45;&gt;Node4 -->
<g id="edge9" class="edge">
<title>Node6&#45;&gt;Node4</title>
<path fill="none" stroke="midnightblue" d="M420.26,-343.15C346.9,-338.85 182.08,-326.47 133,-300 99.18,-281.76 76,-273.42 76,-235 76,-235 76,-235 76,-121 76,-86.81 59.4,-49.76 48.14,-28.57"/>
<polygon fill="midnightblue" stroke="midnightblue" points="51.18,-26.83 43.28,-19.77 45.05,-30.22 51.18,-26.83"/>
</g>
<!-- Node6&#45;&gt;Node5 -->
<g id="edge37" class="edge">
<title>Node6&#45;&gt;Node5</title>
<path fill="none" stroke="midnightblue" d="M473,-336.46C489.83,-327.81 516.17,-313.8 538,-300 563.34,-283.98 591.11,-263.43 609.01,-249.77"/>
<polygon fill="midnightblue" stroke="midnightblue" points="611.15,-252.54 616.95,-243.67 606.88,-246.99 611.15,-252.54"/>
</g>
<!-- Node7 -->
<g id="node7" class="node">
<title>Node7</title>
<g id="a_node7"><a xlink:title=" ">
<polygon fill="none" stroke="#bfbfbf" points="79.5,-0.5 79.5,-19.5 126.5,-19.5 126.5,-0.5 79.5,-0.5"/>
<text text-anchor="middle" x="103" y="-7.5" font-family="Helvetica,sans-Serif" font-size="10.00">cmath</text>
</a>
</g>
</g>
<!-- Node6&#45;&gt;Node7 -->
<g id="edge6" class="edge">
<title>Node6&#45;&gt;Node7</title>
<path fill="none" stroke="midnightblue" d="M420.5,-342.59C353.33,-337.51 210.58,-324.17 168,-300 135.34,-281.46 114,-272.56 114,-235 114,-235 114,-235 114,-121 114,-88.79 109.27,-51.53 106.02,-29.69"/>
<polygon fill="midnightblue" stroke="midnightblue" points="109.43,-28.87 104.44,-19.53 102.51,-29.95 109.43,-28.87"/>
</g>
<!-- Node8 -->
<g id="node8" class="node">
<title>Node8</title>
<g id="a_node8"><a xlink:title=" ">
<polygon fill="none" stroke="#bfbfbf" points="145,-0.5 145,-19.5 205,-19.5 205,-0.5 145,-0.5"/>
<text text-anchor="middle" x="175" y="-7.5" font-family="Helvetica,sans-Serif" font-size="10.00">iostream</text>
</a>
</g>
</g>
<!-- Node6&#45;&gt;Node8 -->
<g id="edge7" class="edge">
<title>Node6&#45;&gt;Node8</title>
<path fill="none" stroke="midnightblue" d="M420.19,-341.93C358.95,-336.15 237.22,-322.2 201,-300 170.15,-281.1 152,-271.18 152,-235 152,-235 152,-235 152,-121 152,-88.12 161.97,-50.86 168.78,-29.24"/>
<polygon fill="midnightblue" stroke="midnightblue" points="172.11,-30.3 171.9,-19.71 165.46,-28.12 172.11,-30.3"/>
</g>
<!-- Node9 -->
<g id="node9" class="node">
<title>Node9</title>
<g id="a_node9"><a xlink:title=" ">
<polygon fill="none" stroke="#bfbfbf" points="223,-0.5 223,-19.5 281,-19.5 281,-0.5 223,-0.5"/>
<text text-anchor="middle" x="252" y="-7.5" font-family="Helvetica,sans-Serif" font-size="10.00">memory</text>
</a>
</g>
</g>
<!-- Node6&#45;&gt;Node9 -->
<g id="edge8" class="edge">
<title>Node6&#45;&gt;Node9</title>
<path fill="none" stroke="midnightblue" d="M420.4,-345.85C347.92,-345.55 190,-333.57 190,-235 190,-235 190,-235 190,-121 190,-83.62 217.5,-47.24 235.87,-27.1"/>
<polygon fill="midnightblue" stroke="midnightblue" points="238.51,-29.41 242.85,-19.75 233.43,-24.59 238.51,-29.41"/>
</g>
<!-- Node10 -->
<g id="node10" class="node">
<title>Node10</title>
<g id="a_node10"><a xlink:href="_geometry_8hpp.html" target="_top" xlink:title=" ">
<polygon fill="none" stroke="black" points="383,-280.5 383,-299.5 529,-299.5 529,-280.5 383,-280.5"/>
<text text-anchor="middle" x="456" y="-287.5" font-family="Helvetica,sans-Serif" font-size="10.00">../Geometry/Geometry.hpp</text>
</a>
</g>
</g>
<!-- Node6&#45;&gt;Node10 -->
<g id="edge10" class="edge">
<title>Node6&#45;&gt;Node10</title>
<path fill="none" stroke="midnightblue" d="M456,-336.08C456,-329.01 456,-318.86 456,-309.99"/>
<polygon fill="midnightblue" stroke="midnightblue" points="459.5,-309.75 456,-299.75 452.5,-309.75 459.5,-309.75"/>
</g>
<!-- Node10&#45;&gt;Node5 -->
<g id="edge30" class="edge">
<title>Node10&#45;&gt;Node5</title>
<path fill="none" stroke="midnightblue" d="M483.25,-280.44C512.44,-271.28 558.92,-256.69 591.31,-246.52"/>
<polygon fill="midnightblue" stroke="midnightblue" points="592.38,-249.85 600.87,-243.52 590.28,-243.17 592.38,-249.85"/>
</g>
<!-- Node11 -->
<g id="node11" class="node">
<title>Node11</title>
<g id="a_node11"><a xlink:href="_recorder_8hpp.html" target="_top" xlink:title=" ">
<polygon fill="none" stroke="black" points="218,-224.5 218,-243.5 366,-243.5 366,-224.5 218,-224.5"/>
<text text-anchor="middle" x="292" y="-231.5" font-family="Helvetica,sans-Serif" font-size="10.00">../Benchmark/Recorder.hpp</text>
</a>
</g>
</g>
<!-- Node10&#45;&gt;Node11 -->
<g id="edge11" class="edge">
<title>Node10&#45;&gt;Node11</title>
<path fill="none" stroke="midnightblue" d="M430.01,-280.44C402.3,-271.32 358.25,-256.81 327.38,-246.65"/>
<polygon fill="midnightblue" stroke="midnightblue" points="328.46,-243.32 317.86,-243.52 326.27,-249.97 328.46,-243.32"/>
</g>
<!-- Node10&#45;&gt;Node14 -->
<g id="edge31" class="edge">
<title>Node10&#45;&gt;Node14</title>
<path fill="none" stroke="midnightblue" d="M443.79,-280.24C433.65,-272.14 419.96,-259.11 414,-244 392.5,-189.44 409.08,-118.09 418.98,-85.13"/>
<polygon fill="midnightblue" stroke="midnightblue" points="422.34,-86.1 422.02,-75.51 415.67,-83.99 422.34,-86.1"/>
</g>
<!-- Node10&#45;&gt;Node22 -->
<g id="edge26" class="edge">
<title>Node10&#45;&gt;Node22</title>
<path fill="none" stroke="midnightblue" d="M470.19,-280.37C482.2,-272.37 499.01,-259.39 509,-244 518.1,-229.98 522.95,-211.48 525.47,-197.8"/>
<polygon fill="midnightblue" stroke="midnightblue" points="528.97,-198.08 527.07,-187.65 522.05,-196.98 528.97,-198.08"/>
</g>
<!-- Node10&#45;&gt;Node23 -->
<g id="edge32" class="edge">
<title>Node10&#45;&gt;Node23</title>
<path fill="none" stroke="midnightblue" d="M475.2,-280.36C504.07,-266.06 557.12,-234.37 574,-188 577.04,-179.65 577.45,-176.19 574,-168 568.97,-156.05 559.06,-145.69 549.71,-137.93"/>
<polygon fill="midnightblue" stroke="midnightblue" points="551.84,-135.15 541.79,-131.81 547.56,-140.69 551.84,-135.15"/>
</g>
<!-- Node24 -->
<g id="node24" class="node">
<title>Node24</title>
<g id="a_node24"><a xlink:href="_vertices_8hpp.html" target="_top" xlink:title=" ">
<polygon fill="none" stroke="black" points="422.5,-224.5 422.5,-243.5 499.5,-243.5 499.5,-224.5 422.5,-224.5"/>
<text text-anchor="middle" x="461" y="-231.5" font-family="Helvetica,sans-Serif" font-size="10.00">Vertices.hpp</text>
</a>
</g>
</g>
<!-- Node10&#45;&gt;Node24 -->
<g id="edge33" class="edge">
<title>Node10&#45;&gt;Node24</title>
<path fill="none" stroke="midnightblue" d="M456.83,-280.08C457.48,-273.01 458.42,-262.86 459.24,-253.99"/>
<polygon fill="midnightblue" stroke="midnightblue" points="462.75,-254.03 460.19,-243.75 455.78,-253.39 462.75,-254.03"/>
</g>
<!-- Node12 -->
<g id="node12" class="node">
<title>Node12</title>
<g id="a_node12"><a xlink:href="_performance_8hpp.html" target="_top" xlink:title=" ">
<polygon fill="none" stroke="black" points="251,-168.5 251,-187.5 351,-187.5 351,-168.5 251,-168.5"/>
<text text-anchor="middle" x="301" y="-175.5" font-family="Helvetica,sans-Serif" font-size="10.00">Performance.hpp</text>
</a>
</g>
</g>
<!-- Node11&#45;&gt;Node12 -->
<g id="edge12" class="edge">
<title>Node11&#45;&gt;Node12</title>
<path fill="none" stroke="midnightblue" d="M293.49,-224.08C294.68,-216.93 296.39,-206.64 297.88,-197.69"/>
<polygon fill="midnightblue" stroke="midnightblue" points="301.35,-198.19 299.54,-187.75 294.45,-197.04 301.35,-198.19"/>
</g>
<!-- Node13 -->
<g id="node13" class="node">
<title>Node13</title>
<g id="a_node13"><a xlink:href="_block_data_8hpp.html" target="_top" xlink:title=" ">
<polygon fill="none" stroke="black" points="264,-112.5 264,-131.5 352,-131.5 352,-112.5 264,-112.5"/>
<text text-anchor="middle" x="308" y="-119.5" font-family="Helvetica,sans-Serif" font-size="10.00">BlockData.hpp</text>
</a>
</g>
</g>
<!-- Node12&#45;&gt;Node13 -->
<g id="edge13" class="edge">
<title>Node12&#45;&gt;Node13</title>
<path fill="none" stroke="midnightblue" d="M302.16,-168.08C303.08,-160.93 304.42,-150.64 305.58,-141.69"/>
<polygon fill="midnightblue" stroke="midnightblue" points="309.05,-142.12 306.87,-131.75 302.11,-141.22 309.05,-142.12"/>
</g>
<!-- Node13&#45;&gt;Node14 -->
<g id="edge14" class="edge">
<title>Node13&#45;&gt;Node14</title>
<path fill="none" stroke="midnightblue" d="M326.54,-112.44C345.62,-103.64 375.57,-89.81 397.44,-79.72"/>
<polygon fill="midnightblue" stroke="midnightblue" points="398.93,-82.88 406.55,-75.52 396,-76.53 398.93,-82.88"/>
</g>
<!-- Node14&#45;&gt;Node4 -->
<g id="edge25" class="edge">
<title>Node14&#45;&gt;Node4</title>
<path fill="none" stroke="midnightblue" d="M360.73,-59.74C291.42,-53.42 177.75,-41.18 71.59,-20.08"/>
<polygon fill="midnightblue" stroke="midnightblue" points="72.17,-16.63 61.67,-18.08 70.78,-23.49 72.17,-16.63"/>
</g>
<!-- Node14&#45;&gt;Node7 -->
<g id="edge17" class="edge">
<title>Node14&#45;&gt;Node7</title>
<path fill="none" stroke="midnightblue" d="M360.92,-57.11C304.34,-49.68 219.49,-37.36 136.56,-19.91"/>
<polygon fill="midnightblue" stroke="midnightblue" points="137.23,-16.47 126.72,-17.81 135.77,-23.32 137.23,-16.47"/>
</g>
<!-- Node14&#45;&gt;Node8 -->
<g id="edge19" class="edge">
<title>Node14&#45;&gt;Node8</title>
<path fill="none" stroke="midnightblue" d="M384.11,-56.49C343.65,-48.02 279.68,-34.51 215.16,-20.23"/>
<polygon fill="midnightblue" stroke="midnightblue" points="215.74,-16.78 205.22,-18.03 214.23,-23.61 215.74,-16.78"/>
</g>
<!-- Node14&#45;&gt;Node9 -->
<g id="edge21" class="edge">
<title>Node14&#45;&gt;Node9</title>
<path fill="none" stroke="midnightblue" d="M397.59,-56.44C368.23,-47.28 321.48,-32.69 288.9,-22.52"/>
<polygon fill="midnightblue" stroke="midnightblue" points="289.87,-19.16 279.28,-19.52 287.79,-25.84 289.87,-19.16"/>
</g>
<!-- Node15 -->
<g id="node15" class="node">
<title>Node15</title>
<g id="a_node15"><a xlink:title=" ">
<polygon fill="none" stroke="#bfbfbf" points="576,-0.5 576,-19.5 618,-19.5 618,-0.5 576,-0.5"/>
<text text-anchor="middle" x="597" y="-7.5" font-family="Helvetica,sans-Serif" font-size="10.00">array</text>
</a>
</g>
</g>
<!-- Node14&#45;&gt;Node15 -->
<g id="edge15" class="edge">
<title>Node14&#45;&gt;Node15</title>
<path fill="none" stroke="midnightblue" d="M452.25,-56.44C483.2,-46.73 533.57,-30.91 565.99,-20.74"/>
<polygon fill="midnightblue" stroke="midnightblue" points="567.35,-23.98 575.84,-17.64 565.25,-17.3 567.35,-23.98"/>
</g>
<!-- Node16 -->
<g id="node16" class="node">
<title>Node16</title>
<g id="a_node16"><a xlink:title=" ">
<polygon fill="none" stroke="#bfbfbf" points="636,-0.5 636,-19.5 686,-19.5 686,-0.5 636,-0.5"/>
<text text-anchor="middle" x="661" y="-7.5" font-family="Helvetica,sans-Serif" font-size="10.00">chrono</text>
</a>
</g>
</g>
<!-- Node14&#45;&gt;Node16 -->
<g id="edge16" class="edge">
<title>Node14&#45;&gt;Node16</title>
<path fill="none" stroke="midnightblue" d="M465.73,-56.42C504.53,-48.14 564.81,-34.99 625.96,-20.18"/>
<polygon fill="midnightblue" stroke="midnightblue" points="626.89,-23.56 635.78,-17.8 625.23,-16.76 626.89,-23.56"/>
</g>
<!-- Node17 -->
<g id="node17" class="node">
<title>Node17</title>
<g id="a_node17"><a xlink:title=" ">
<polygon fill="none" stroke="#bfbfbf" points="704.5,-0.5 704.5,-19.5 769.5,-19.5 769.5,-0.5 704.5,-0.5"/>
<text text-anchor="middle" x="737" y="-7.5" font-family="Helvetica,sans-Serif" font-size="10.00">functional</text>
</a>
</g>
</g>
<!-- Node14&#45;&gt;Node17 -->
<g id="edge18" class="edge">
<title>Node14&#45;&gt;Node17</title>
<path fill="none" stroke="midnightblue" d="M480.72,-56.48C533.17,-48.29 614.14,-35.19 694.21,-20.08"/>
<polygon fill="midnightblue" stroke="midnightblue" points="695.3,-23.43 704.47,-18.12 693.99,-16.55 695.3,-23.43"/>
</g>
<!-- Node18 -->
<g id="node18" class="node">
<title>Node18</title>
<g id="a_node18"><a xlink:title=" ">
<polygon fill="none" stroke="#bfbfbf" points="787.5,-0.5 787.5,-19.5 840.5,-19.5 840.5,-0.5 787.5,-0.5"/>
<text text-anchor="middle" x="814" y="-7.5" font-family="Helvetica,sans-Serif" font-size="10.00">iterator</text>
</a>
</g>
</g>
<!-- Node14&#45;&gt;Node18 -->
<g id="edge20" class="edge">
<title>Node14&#45;&gt;Node18</title>
<path fill="none" stroke="midnightblue" d="M489.01,-59.3C558.05,-52.6 671.33,-40.03 777.41,-20.11"/>
<polygon fill="midnightblue" stroke="midnightblue" points="778.16,-23.53 787.32,-18.23 776.85,-16.66 778.16,-23.53"/>
</g>
<!-- Node19 -->
<g id="node19" class="node">
<title>Node19</title>
<g id="a_node19"><a xlink:title=" ">
<polygon fill="none" stroke="#bfbfbf" points="299,-0.5 299,-19.5 355,-19.5 355,-0.5 299,-0.5"/>
<text text-anchor="middle" x="327" y="-7.5" font-family="Helvetica,sans-Serif" font-size="10.00">sstream</text>
</a>
</g>
</g>
<!-- Node14&#45;&gt;Node19 -->
<g id="edge22" class="edge">
<title>Node14&#45;&gt;Node19</title>
<path fill="none" stroke="midnightblue" d="M409.25,-56.32C393.68,-47.74 369.62,-34.49 351.54,-24.52"/>
<polygon fill="midnightblue" stroke="midnightblue" points="353.15,-21.42 342.71,-19.65 349.78,-27.55 353.15,-21.42"/>
</g>
<!-- Node20 -->
<g id="node20" class="node">
<title>Node20</title>
<g id="a_node20"><a xlink:title=" ">
<polygon fill="none" stroke="#bfbfbf" points="373.5,-0.5 373.5,-19.5 446.5,-19.5 446.5,-0.5 373.5,-0.5"/>
<text text-anchor="middle" x="410" y="-7.5" font-family="Helvetica,sans-Serif" font-size="10.00">string_view</text>
</a>
</g>
</g>
<!-- Node14&#45;&gt;Node20 -->
<g id="edge23" class="edge">
<title>Node14&#45;&gt;Node20</title>
<path fill="none" stroke="midnightblue" d="M422.52,-56.08C420.51,-48.85 417.61,-38.41 415.11,-29.4"/>
<polygon fill="midnightblue" stroke="midnightblue" points="418.48,-28.45 412.43,-19.75 411.74,-30.32 418.48,-28.45"/>
</g>
<!-- Node21 -->
<g id="node21" class="node">
<title>Node21</title>
<g id="a_node21"><a xlink:title=" ">
<polygon fill="none" stroke="#bfbfbf" points="464.5,-0.5 464.5,-19.5 557.5,-19.5 557.5,-0.5 464.5,-0.5"/>
<text text-anchor="middle" x="511" y="-7.5" font-family="Helvetica,sans-Serif" font-size="10.00">unordered_map</text>
</a>
</g>
</g>
<!-- Node14&#45;&gt;Node21 -->
<g id="edge24" class="edge">
<title>Node14&#45;&gt;Node21</title>
<path fill="none" stroke="midnightblue" d="M438.82,-56.32C452.23,-47.9 472.82,-34.97 488.59,-25.07"/>
<polygon fill="midnightblue" stroke="midnightblue" points="490.61,-27.94 497.22,-19.65 486.89,-22.01 490.61,-27.94"/>
</g>
<!-- Node22&#45;&gt;Node14 -->
<g id="edge27" class="edge">
<title>Node22&#45;&gt;Node14</title>
<path fill="none" stroke="midnightblue" d="M519.71,-168.42C511.02,-159.39 496.98,-144.76 485,-132 469.5,-115.5 451.96,-96.45 439.86,-83.26"/>
<polygon fill="midnightblue" stroke="midnightblue" points="442.44,-80.89 433.1,-75.88 437.28,-85.61 442.44,-80.89"/>
</g>
<!-- Node22&#45;&gt;Node23 -->
<g id="edge28" class="edge">
<title>Node22&#45;&gt;Node23</title>
<path fill="none" stroke="midnightblue" d="M528,-168.08C528,-161.01 528,-150.86 528,-141.99"/>
<polygon fill="midnightblue" stroke="midnightblue" points="531.5,-141.75 528,-131.75 524.5,-141.75 531.5,-141.75"/>
</g>
<!-- Node23&#45;&gt;Node14 -->
<g id="edge29" class="edge">
<title>Node23&#45;&gt;Node14</title>
<path fill="none" stroke="midnightblue" d="M511.45,-112.32C495.01,-103.7 469.57,-90.36 450.53,-80.39"/>
<polygon fill="midnightblue" stroke="midnightblue" points="451.99,-77.2 441.51,-75.65 448.74,-83.4 451.99,-77.2"/>
</g>
<!-- Node24&#45;&gt;Node14 -->
<g id="edge35" class="edge">
<title>Node24&#45;&gt;Node14</title>
<path fill="none" stroke="midnightblue" d="M459.06,-224.08C453.4,-197.95 436.76,-121.21 429.03,-85.58"/>
<polygon fill="midnightblue" stroke="midnightblue" points="432.4,-84.6 426.86,-75.57 425.56,-86.08 432.4,-84.6"/>
</g>
<!-- Node24&#45;&gt;Node22 -->
<g id="edge34" class="edge">
<title>Node24&#45;&gt;Node22</title>
<path fill="none" stroke="midnightblue" d="M471.76,-224.32C481.77,-216.26 496.89,-204.08 508.93,-194.37"/>
<polygon fill="midnightblue" stroke="midnightblue" points="511.45,-196.83 517.04,-187.83 507.06,-191.38 511.45,-196.83"/>
</g>
<!-- Node24&#45;&gt;Node23 -->
<g id="edge36" class="edge">
<title>Node24&#45;&gt;Node23</title>
<path fill="none" stroke="midnightblue" d="M462.4,-224.45C464.82,-211.46 470.64,-186.35 482,-168 488.93,-156.8 499.24,-146.37 508.34,-138.38"/>
<polygon fill="midnightblue" stroke="midnightblue" points="510.81,-140.88 516.23,-131.77 506.31,-135.51 510.81,-140.88"/>
</g>
<!-- Node25&#45;&gt;Node3 -->
<g id="edge40" class="edge">
<title>Node25&#45;&gt;Node3</title>
<path fill="none" stroke="midnightblue" d="M541.49,-411.65C553.9,-419.76 570.39,-432.04 582.13,-441.78"/>
<polygon fill="midnightblue" stroke="midnightblue" points="579.85,-444.44 589.71,-448.32 584.43,-439.14 579.85,-444.44"/>
</g>
<!-- Node25&#45;&gt;Node4 -->
<g id="edge39" class="edge">
<title>Node25&#45;&gt;Node4</title>
<path fill="none" stroke="midnightblue" d="M486.38,-400.5C371.19,-397.98 38,-382.77 38,-291 38,-291 38,-291 38,-121 38,-88.95 38,-51.64 38,-29.75"/>
<polygon fill="midnightblue" stroke="midnightblue" points="41.5,-29.56 38,-19.56 34.5,-29.56 41.5,-29.56"/>
</g>
<!-- Node25&#45;&gt;Node5 -->
<g id="edge41" class="edge">
<title>Node25&#45;&gt;Node5</title>
<path fill="none" stroke="midnightblue" d="M530.54,-392.08C546.96,-365.61 595.61,-287.21 617.32,-252.21"/>
<polygon fill="midnightblue" stroke="midnightblue" points="620.39,-253.91 622.68,-243.57 614.44,-250.22 620.39,-253.91"/>
</g>
<!-- Node25&#45;&gt;Node6 -->
<g id="edge42" class="edge">
<title>Node25&#45;&gt;Node6</title>
<path fill="none" stroke="midnightblue" d="M513.91,-392.32C503.51,-384.18 487.74,-371.84 475.28,-362.09"/>
<polygon fill="midnightblue" stroke="midnightblue" points="477.32,-359.24 467.29,-355.83 473.01,-364.75 477.32,-359.24"/>
</g>
</g>
</svg>
