<?xml version="1.0" encoding="UTF-8" standalone="no"?>
<!DOCTYPE svg PUBLIC "-//W3C//DTD SVG 1.1//EN"
 "http://www.w3.org/Graphics/SVG/1.1/DTD/svg11.dtd">
<!-- Generated by graphviz version 2.43.0 (0)
 -->
<!-- Title: /home/runner/work/Simulatio/Simulatio/renderer/include/Overlay/Overlay.hpp Pages: 1 -->
<svg width="342pt" height="206pt"
 viewBox="0.00 0.00 342.00 206.00" xmlns="http://www.w3.org/2000/svg" xmlns:xlink="http://www.w3.org/1999/xlink">
<g id="graph0" class="graph" transform="scale(1 1) rotate(0) translate(4 202)">
<title>/home/runner/work/Simulatio/Simulatio/renderer/include/Overlay/Overlay.hpp</title>
<!-- Node1 -->
<g id="node1" class="node">
<title>Node1</title>
<g id="a_node1"><a xlink:title=" ">
<polygon fill="#bfbfbf" stroke="black" points="88,-156.5 88,-197.5 246,-197.5 246,-156.5 88,-156.5"/>
<text text-anchor="start" x="96" y="-185.5" font-family="Helvetica,sans-Serif" font-size="10.00">/home/runner/work/Simulatio</text>
<text text-anchor="start" x="96" y="-174.5" font-family="Helvetica,sans-Serif" font-size="10.00">/Simulatio/renderer/include</text>
<text text-anchor="middle" x="167" y="-163.5" font-family="Helvetica,sans-Serif" font-size="10.00">/Overlay/Overlay.hpp</text>
</a>
</g>
</g>
<!-- Node2 -->
<g id="node2" class="node">
<title>Node2</title>
<g id="a_node2"><a xlink:href="_window_8hpp.html" target="_top" xlink:title=" ">
<polygon fill="none" stroke="black" points="0,-78.5 0,-119.5 158,-119.5 158,-78.5 0,-78.5"/>
<text text-anchor="start" x="8" y="-107.5" font-family="Helvetica,sans-Serif" font-size="10.00">/home/runner/work/Simulatio</text>
<text text-anchor="start" x="8" y="-96.5" font-family="Helvetica,sans-Serif" font-size="10.00">/Simulatio/renderer/include</text>
<text text-anchor="middle" x="79" y="-85.5" font-family="Helvetica,sans-Serif" font-size="10.00">/Drawing/Window.hpp</text>
</a>
</g>
</g>
<!-- Node1&#45;&gt;Node2 -->
<g id="edge1" class="edge">
<title>Node1&#45;&gt;Node2</title>
<path fill="none" stroke="midnightblue" d="M136.64,-149.78C125.13,-139.84 112.25,-128.72 101.59,-119.51"/>
<polygon fill="midnightblue" stroke="midnightblue" points="134.48,-152.54 144.34,-156.43 139.06,-147.24 134.48,-152.54"/>
</g>
<!-- Node4 -->
<g id="node4" class="node">
<title>Node4</title>
<g id="a_node4"><a xlink:href="_overlay_8cpp.html" target="_top" xlink:title=" ">
<polygon fill="none" stroke="black" points="176,-78.5 176,-119.5 334,-119.5 334,-78.5 176,-78.5"/>
<text text-anchor="start" x="184" y="-107.5" font-family="Helvetica,sans-Serif" font-size="10.00">/home/runner/work/Simulatio</text>
<text text-anchor="start" x="184" y="-96.5" font-family="Helvetica,sans-Serif" font-size="10.00">/Simulatio/renderer/src</text>
<text text-anchor="middle" x="255" y="-85.5" font-family="Helvetica,sans-Serif" font-size="10.00">/Overlay/Overlay.cpp</text>
</a>
</g>
</g>
<!-- Node1&#45;&gt;Node4 -->
<g id="edge3" class="edge">
<title>Node1&#45;&gt;Node4</title>
<path fill="none" stroke="midnightblue" d="M197.36,-149.78C208.87,-139.84 221.75,-128.72 232.41,-119.51"/>
<polygon fill="midnightblue" stroke="midnightblue" points="194.94,-147.24 189.66,-156.43 199.52,-152.54 194.94,-147.24"/>
</g>
<!-- Node3 -->
<g id="node3" class="node">
<title>Node3</title>
<g id="a_node3"><a xlink:href="_window_8cpp.html" target="_top" xlink:title=" ">
<polygon fill="none" stroke="black" points="0,-0.5 0,-41.5 158,-41.5 158,-0.5 0,-0.5"/>
<text text-anchor="start" x="8" y="-29.5" font-family="Helvetica,sans-Serif" font-size="10.00">/home/runner/work/Simulatio</text>
<text text-anchor="start" x="8" y="-18.5" font-family="Helvetica,sans-Serif" font-size="10.00">/Simulatio/renderer/src</text>
<text text-anchor="middle" x="79" y="-7.5" font-family="Helvetica,sans-Serif" font-size="10.00">/Drawing/Window.cpp</text>
</a>
</g>
</g>
<!-- Node2&#45;&gt;Node3 -->
<g id="edge2" class="edge">
<title>Node2&#45;&gt;Node3</title>
<path fill="none" stroke="midnightblue" d="M79,-68.3C79,-59.3 79,-49.65 79,-41.51"/>
<polygon fill="midnightblue" stroke="midnightblue" points="75.5,-68.43 79,-78.43 82.5,-68.43 75.5,-68.43"/>
</g>
</g>
</svg>
