<?xml version="1.0" encoding="UTF-8" standalone="no"?>
<!DOCTYPE svg PUBLIC "-//W3C//DTD SVG 1.1//EN"
 "http://www.w3.org/Graphics/SVG/1.1/DTD/svg11.dtd">
<!-- Generated by graphviz version 2.43.0 (0)
 -->
<!-- Title: /home/runner/work/Simulatio/Simulatio/renderer/src/Overlay/Overlay.cpp Pages: 1 -->
<svg width="502pt" height="184pt"
 viewBox="0.00 0.00 501.50 184.00" xmlns="http://www.w3.org/2000/svg" xmlns:xlink="http://www.w3.org/1999/xlink">
<g id="graph0" class="graph" transform="scale(1 1) rotate(0) translate(4 180)">
<title>/home/runner/work/Simulatio/Simulatio/renderer/src/Overlay/Overlay.cpp</title>
<!-- Node1 -->
<g id="node1" class="node">
<title>Node1</title>
<g id="a_node1"><a xlink:title=" ">
<polygon fill="#bfbfbf" stroke="black" points="220.5,-134.5 220.5,-175.5 378.5,-175.5 378.5,-134.5 220.5,-134.5"/>
<text text-anchor="start" x="228.5" y="-163.5" font-family="Helvetica,sans-Serif" font-size="10.00">/home/runner/work/Simulatio</text>
<text text-anchor="start" x="228.5" y="-152.5" font-family="Helvetica,sans-Serif" font-size="10.00">/Simulatio/renderer/src</text>
<text text-anchor="middle" x="299.5" y="-141.5" font-family="Helvetica,sans-Serif" font-size="10.00">/Overlay/Overlay.cpp</text>
</a>
</g>
</g>
<!-- Node2 -->
<g id="node2" class="node">
<title>Node2</title>
<g id="a_node2"><a xlink:href="_overlay_8hpp.html" target="_top" xlink:title=" ">
<polygon fill="none" stroke="black" points="244,-67.5 244,-97.5 355,-97.5 355,-67.5 244,-67.5"/>
<text text-anchor="start" x="252" y="-85.5" font-family="Helvetica,sans-Serif" font-size="10.00">../../include/Overlay</text>
<text text-anchor="middle" x="299.5" y="-74.5" font-family="Helvetica,sans-Serif" font-size="10.00">/Overlay.hpp</text>
</a>
</g>
</g>
<!-- Node1&#45;&gt;Node2 -->
<g id="edge1" class="edge">
<title>Node1&#45;&gt;Node2</title>
<path fill="none" stroke="midnightblue" d="M299.5,-134.36C299.5,-126.23 299.5,-116.7 299.5,-108.11"/>
<polygon fill="midnightblue" stroke="midnightblue" points="303,-107.89 299.5,-97.89 296,-107.89 303,-107.89"/>
</g>
<!-- Node3 -->
<g id="node3" class="node">
<title>Node3</title>
<g id="a_node3"><a xlink:title=" ">
<polygon fill="none" stroke="#bfbfbf" points="0,-6 0,-25 83,-25 83,-6 0,-6"/>
<text text-anchor="middle" x="41.5" y="-13" font-family="Helvetica,sans-Serif" font-size="10.00">GLFW/glfw3.h</text>
</a>
</g>
</g>
<!-- Node2&#45;&gt;Node3 -->
<g id="edge2" class="edge">
<title>Node2&#45;&gt;Node3</title>
<path fill="none" stroke="midnightblue" d="M243.57,-68.46C201.83,-58.58 143.47,-44.46 92.5,-31 88.65,-29.98 84.66,-28.9 80.66,-27.8"/>
<polygon fill="midnightblue" stroke="midnightblue" points="81.42,-24.37 70.84,-25.05 79.53,-31.11 81.42,-24.37"/>
</g>
<!-- Node4 -->
<g id="node4" class="node">
<title>Node4</title>
<g id="a_node4"><a xlink:title=" ">
<polygon fill="none" stroke="#bfbfbf" points="101.5,-0.5 101.5,-30.5 221.5,-30.5 221.5,-0.5 101.5,-0.5"/>
<text text-anchor="start" x="109.5" y="-18.5" font-family="Helvetica,sans-Serif" font-size="10.00">backends/imgui_impl</text>
<text text-anchor="middle" x="161.5" y="-7.5" font-family="Helvetica,sans-Serif" font-size="10.00">_glfw.h</text>
</a>
</g>
</g>
<!-- Node2&#45;&gt;Node4 -->
<g id="edge3" class="edge">
<title>Node2&#45;&gt;Node4</title>
<path fill="none" stroke="midnightblue" d="M269.56,-67.4C249.3,-57.86 222.35,-45.16 200.44,-34.84"/>
<polygon fill="midnightblue" stroke="midnightblue" points="201.92,-31.67 191.39,-30.58 198.94,-38 201.92,-31.67"/>
</g>
<!-- Node5 -->
<g id="node5" class="node">
<title>Node5</title>
<g id="a_node5"><a xlink:title=" ">
<polygon fill="none" stroke="#bfbfbf" points="239.5,-0.5 239.5,-30.5 359.5,-30.5 359.5,-0.5 239.5,-0.5"/>
<text text-anchor="start" x="247.5" y="-18.5" font-family="Helvetica,sans-Serif" font-size="10.00">backends/imgui_impl</text>
<text text-anchor="middle" x="299.5" y="-7.5" font-family="Helvetica,sans-Serif" font-size="10.00">_opengl3.h</text>
</a>
</g>
</g>
<!-- Node2&#45;&gt;Node5 -->
<g id="edge4" class="edge">
<title>Node2&#45;&gt;Node5</title>
<path fill="none" stroke="midnightblue" d="M299.5,-67.4C299.5,-59.64 299.5,-49.81 299.5,-40.86"/>
<polygon fill="midnightblue" stroke="midnightblue" points="303,-40.58 299.5,-30.58 296,-40.58 303,-40.58"/>
</g>
<!-- Node6 -->
<g id="node6" class="node">
<title>Node6</title>
<g id="a_node6"><a xlink:title=" ">
<polygon fill="none" stroke="#bfbfbf" points="378,-6 378,-25 431,-25 431,-6 378,-6"/>
<text text-anchor="middle" x="404.5" y="-13" font-family="Helvetica,sans-Serif" font-size="10.00">imgui.h</text>
</a>
</g>
</g>
<!-- Node2&#45;&gt;Node6 -->
<g id="edge5" class="edge">
<title>Node2&#45;&gt;Node6</title>
<path fill="none" stroke="midnightblue" d="M322.28,-67.4C340.05,-56.39 364.6,-41.2 382.24,-30.28"/>
<polygon fill="midnightblue" stroke="midnightblue" points="384.1,-33.25 390.76,-25.01 380.41,-27.29 384.1,-33.25"/>
</g>
<!-- Node7 -->
<g id="node7" class="node">
<title>Node7</title>
<g id="a_node7"><a xlink:title=" ">
<polygon fill="none" stroke="#bfbfbf" points="449.5,-6 449.5,-25 493.5,-25 493.5,-6 449.5,-6"/>
<text text-anchor="middle" x="471.5" y="-13" font-family="Helvetica,sans-Serif" font-size="10.00">string</text>
</a>
</g>
</g>
<!-- Node2&#45;&gt;Node7 -->
<g id="edge6" class="edge">
<title>Node2&#45;&gt;Node7</title>
<path fill="none" stroke="midnightblue" d="M341.85,-67.49C370.05,-57.88 407.8,-44.47 440.5,-31 441.87,-30.43 443.27,-29.84 444.68,-29.23"/>
<polygon fill="midnightblue" stroke="midnightblue" points="446.24,-32.37 453.92,-25.07 443.37,-25.99 446.24,-32.37"/>
</g>
</g>
</svg>
