<?xml version="1.0" encoding="UTF-8" standalone="no"?>
<!DOCTYPE svg PUBLIC "-//W3C//DTD SVG 1.1//EN"
 "http://www.w3.org/Graphics/SVG/1.1/DTD/svg11.dtd">
<!-- Generated by graphviz version 2.43.0 (0)
 -->
<!-- Title: /home/runner/work/Simulatio/Simulatio/engine/include/Benchmark/Performance.hpp Pages: 1 -->
<svg width="1907pt" height="752pt"
 viewBox="0.00 0.00 1907.00 752.00" xmlns="http://www.w3.org/2000/svg" xmlns:xlink="http://www.w3.org/1999/xlink">
<g id="graph0" class="graph" transform="scale(1 1) rotate(0) translate(4 748)">
<title>/home/runner/work/Simulatio/Simulatio/engine/include/Benchmark/Performance.hpp</title>
<!-- Node1 -->
<g id="node1" class="node">
<title>Node1</title>
<g id="a_node1"><a xlink:title=" ">
<polygon fill="#bfbfbf" stroke="black" points="1636.5,-702.5 1636.5,-743.5 1797.5,-743.5 1797.5,-702.5 1636.5,-702.5"/>
<text text-anchor="start" x="1644.5" y="-731.5" font-family="Helvetica,sans-Serif" font-size="10.00">/home/runner/work/Simulatio</text>
<text text-anchor="start" x="1644.5" y="-720.5" font-family="Helvetica,sans-Serif" font-size="10.00">/Simulatio/engine/include</text>
<text text-anchor="middle" x="1717" y="-709.5" font-family="Helvetica,sans-Serif" font-size="10.00">/Benchmark/Performance.hpp</text>
</a>
</g>
</g>
<!-- Node2 -->
<g id="node2" class="node">
<title>Node2</title>
<g id="a_node2"><a xlink:href="_recorder_8hpp.html" target="_top" xlink:title=" ">
<polygon fill="none" stroke="black" points="1545,-624.5 1545,-665.5 1703,-665.5 1703,-624.5 1545,-624.5"/>
<text text-anchor="start" x="1553" y="-653.5" font-family="Helvetica,sans-Serif" font-size="10.00">/home/runner/work/Simulatio</text>
<text text-anchor="start" x="1553" y="-642.5" font-family="Helvetica,sans-Serif" font-size="10.00">/Simulatio/engine/include</text>
<text text-anchor="middle" x="1624" y="-631.5" font-family="Helvetica,sans-Serif" font-size="10.00">/Benchmark/Recorder.hpp</text>
</a>
</g>
</g>
<!-- Node1&#45;&gt;Node2 -->
<g id="edge1" class="edge">
<title>Node1&#45;&gt;Node2</title>
<path fill="none" stroke="midnightblue" d="M1685.26,-696.06C1673.02,-686.06 1659.25,-674.8 1647.87,-665.51"/>
<polygon fill="midnightblue" stroke="midnightblue" points="1683.09,-698.81 1693.05,-702.43 1687.52,-693.39 1683.09,-698.81"/>
</g>
<!-- Node30 -->
<g id="node30" class="node">
<title>Node30</title>
<g id="a_node30"><a xlink:href="_performance_8cpp.html" target="_top" xlink:title=" ">
<polygon fill="none" stroke="black" points="1721,-624.5 1721,-665.5 1899,-665.5 1899,-624.5 1721,-624.5"/>
<text text-anchor="start" x="1729" y="-653.5" font-family="Helvetica,sans-Serif" font-size="10.00">/home/runner/work/Simulatio</text>
<text text-anchor="start" x="1729" y="-642.5" font-family="Helvetica,sans-Serif" font-size="10.00">/Simulatio/engine/src/Benchmark</text>
<text text-anchor="middle" x="1810" y="-631.5" font-family="Helvetica,sans-Serif" font-size="10.00">/Performance.cpp</text>
</a>
</g>
</g>
<!-- Node1&#45;&gt;Node30 -->
<g id="edge50" class="edge">
<title>Node1&#45;&gt;Node30</title>
<path fill="none" stroke="midnightblue" d="M1748.74,-696.06C1760.98,-686.06 1774.75,-674.8 1786.13,-665.51"/>
<polygon fill="midnightblue" stroke="midnightblue" points="1746.48,-693.39 1740.95,-702.43 1750.91,-698.81 1746.48,-693.39"/>
</g>
<!-- Node3 -->
<g id="node3" class="node">
<title>Node3</title>
<g id="a_node3"><a xlink:href="_geometry_8hpp.html" target="_top" xlink:title=" ">
<polygon fill="none" stroke="black" points="1452,-546.5 1452,-587.5 1610,-587.5 1610,-546.5 1452,-546.5"/>
<text text-anchor="start" x="1460" y="-575.5" font-family="Helvetica,sans-Serif" font-size="10.00">/home/runner/work/Simulatio</text>
<text text-anchor="start" x="1460" y="-564.5" font-family="Helvetica,sans-Serif" font-size="10.00">/Simulatio/engine/include</text>
<text text-anchor="middle" x="1531" y="-553.5" font-family="Helvetica,sans-Serif" font-size="10.00">/Geometry/Geometry.hpp</text>
</a>
</g>
</g>
<!-- Node2&#45;&gt;Node3 -->
<g id="edge2" class="edge">
<title>Node2&#45;&gt;Node3</title>
<path fill="none" stroke="midnightblue" d="M1592.26,-618.06C1580.02,-608.06 1566.25,-596.8 1554.87,-587.51"/>
<polygon fill="midnightblue" stroke="midnightblue" points="1590.09,-620.81 1600.05,-624.43 1594.52,-615.39 1590.09,-620.81"/>
</g>
<!-- Node29 -->
<g id="node29" class="node">
<title>Node29</title>
<g id="a_node29"><a xlink:href="_recorder_8cpp.html" target="_top" xlink:title=" ">
<polygon fill="none" stroke="black" points="1628,-546.5 1628,-587.5 1806,-587.5 1806,-546.5 1628,-546.5"/>
<text text-anchor="start" x="1636" y="-575.5" font-family="Helvetica,sans-Serif" font-size="10.00">/home/runner/work/Simulatio</text>
<text text-anchor="start" x="1636" y="-564.5" font-family="Helvetica,sans-Serif" font-size="10.00">/Simulatio/engine/src/Benchmark</text>
<text text-anchor="middle" x="1717" y="-553.5" font-family="Helvetica,sans-Serif" font-size="10.00">/Recorder.cpp</text>
</a>
</g>
</g>
<!-- Node2&#45;&gt;Node29 -->
<g id="edge49" class="edge">
<title>Node2&#45;&gt;Node29</title>
<path fill="none" stroke="midnightblue" d="M1655.74,-618.06C1667.98,-608.06 1681.75,-596.8 1693.13,-587.51"/>
<polygon fill="midnightblue" stroke="midnightblue" points="1653.48,-615.39 1647.95,-624.43 1657.91,-620.81 1653.48,-615.39"/>
</g>
<!-- Node4 -->
<g id="node4" class="node">
<title>Node4</title>
<g id="a_node4"><a xlink:href="_constraint_8hpp.html" target="_top" xlink:title=" ">
<polygon fill="none" stroke="black" points="677,-234.5 677,-275.5 835,-275.5 835,-234.5 677,-234.5"/>
<text text-anchor="start" x="685" y="-263.5" font-family="Helvetica,sans-Serif" font-size="10.00">/home/runner/work/Simulatio</text>
<text text-anchor="start" x="685" y="-252.5" font-family="Helvetica,sans-Serif" font-size="10.00">/Simulatio/engine/include</text>
<text text-anchor="middle" x="756" y="-241.5" font-family="Helvetica,sans-Serif" font-size="10.00">/Constraints/Constraint.hpp</text>
</a>
</g>
</g>
<!-- Node3&#45;&gt;Node4 -->
<g id="edge3" class="edge">
<title>Node3&#45;&gt;Node4</title>
<path fill="none" stroke="midnightblue" d="M1441.64,-557.47C1276.14,-540.3 929.71,-497.53 830,-432 776.26,-396.68 761.47,-313.82 757.46,-275.75"/>
<polygon fill="midnightblue" stroke="midnightblue" points="1441.49,-560.97 1451.79,-558.52 1442.2,-554.01 1441.49,-560.97"/>
</g>
<!-- Node6 -->
<g id="node6" class="node">
<title>Node6</title>
<g id="a_node6"><a xlink:href="_system_8hpp.html" target="_top" xlink:title=" ">
<polygon fill="none" stroke="black" points="962,-78.5 962,-119.5 1120,-119.5 1120,-78.5 962,-78.5"/>
<text text-anchor="start" x="970" y="-107.5" font-family="Helvetica,sans-Serif" font-size="10.00">/home/runner/work/Simulatio</text>
<text text-anchor="start" x="970" y="-96.5" font-family="Helvetica,sans-Serif" font-size="10.00">/Simulatio/engine/include</text>
<text text-anchor="middle" x="1041" y="-85.5" font-family="Helvetica,sans-Serif" font-size="10.00">/Structures/System.hpp</text>
</a>
</g>
</g>
<!-- Node3&#45;&gt;Node6 -->
<g id="edge47" class="edge">
<title>Node3&#45;&gt;Node6</title>
<path fill="none" stroke="midnightblue" d="M1586.91,-541.82C1634.77,-516.91 1696,-473.11 1696,-412 1696,-412 1696,-412 1696,-254 1696,-208.04 1699.08,-184.46 1663,-156 1621.23,-123.05 1277.97,-107.71 1120.01,-102.34"/>
<polygon fill="midnightblue" stroke="midnightblue" points="1585.19,-538.77 1577.84,-546.4 1588.35,-545.02 1585.19,-538.77"/>
</g>
<!-- Node17 -->
<g id="node17" class="node">
<title>Node17</title>
<g id="a_node17"><a xlink:href="_corpse_8hpp.html" target="_top" xlink:title=" ">
<polygon fill="none" stroke="black" points="1288,-468.5 1288,-509.5 1446,-509.5 1446,-468.5 1288,-468.5"/>
<text text-anchor="start" x="1296" y="-497.5" font-family="Helvetica,sans-Serif" font-size="10.00">/home/runner/work/Simulatio</text>
<text text-anchor="start" x="1296" y="-486.5" font-family="Helvetica,sans-Serif" font-size="10.00">/Simulatio/engine/include</text>
<text text-anchor="middle" x="1367" y="-475.5" font-family="Helvetica,sans-Serif" font-size="10.00">/Corpses/Corpse.hpp</text>
</a>
</g>
</g>
<!-- Node3&#45;&gt;Node17 -->
<g id="edge19" class="edge">
<title>Node3&#45;&gt;Node17</title>
<path fill="none" stroke="midnightblue" d="M1479.62,-542.19C1456.93,-531.67 1430.59,-519.47 1409.09,-509.51"/>
<polygon fill="midnightblue" stroke="midnightblue" points="1478.22,-545.4 1488.77,-546.43 1481.16,-539.05 1478.22,-545.4"/>
</g>
<!-- Node28 -->
<g id="node28" class="node">
<title>Node28</title>
<g id="a_node28"><a xlink:href="_geometry_8cpp.html" target="_top" xlink:title=" ">
<polygon fill="none" stroke="black" points="1724.5,-468.5 1724.5,-509.5 1895.5,-509.5 1895.5,-468.5 1724.5,-468.5"/>
<text text-anchor="start" x="1732.5" y="-497.5" font-family="Helvetica,sans-Serif" font-size="10.00">/home/runner/work/Simulatio</text>
<text text-anchor="start" x="1732.5" y="-486.5" font-family="Helvetica,sans-Serif" font-size="10.00">/Simulatio/engine/src/Geometry</text>
<text text-anchor="middle" x="1810" y="-475.5" font-family="Helvetica,sans-Serif" font-size="10.00">/Geometry.cpp</text>
</a>
</g>
</g>
<!-- Node3&#45;&gt;Node28 -->
<g id="edge48" class="edge">
<title>Node3&#45;&gt;Node28</title>
<path fill="none" stroke="midnightblue" d="M1612.54,-543.79C1652.41,-532.93 1699.95,-519.98 1738.39,-509.51"/>
<polygon fill="midnightblue" stroke="midnightblue" points="1611.58,-540.42 1602.85,-546.43 1613.42,-547.18 1611.58,-540.42"/>
</g>
<!-- Node5 -->
<g id="node5" class="node">
<title>Node5</title>
<g id="a_node5"><a xlink:href="_link_8hpp.html" target="_top" xlink:title=" ">
<polygon fill="none" stroke="black" points="392,-156.5 392,-197.5 550,-197.5 550,-156.5 392,-156.5"/>
<text text-anchor="start" x="400" y="-185.5" font-family="Helvetica,sans-Serif" font-size="10.00">/home/runner/work/Simulatio</text>
<text text-anchor="start" x="400" y="-174.5" font-family="Helvetica,sans-Serif" font-size="10.00">/Simulatio/engine/include</text>
<text text-anchor="middle" x="471" y="-163.5" font-family="Helvetica,sans-Serif" font-size="10.00">/Constraints/Link.hpp</text>
</a>
</g>
</g>
<!-- Node4&#45;&gt;Node5 -->
<g id="edge4" class="edge">
<title>Node4&#45;&gt;Node5</title>
<path fill="none" stroke="midnightblue" d="M672.7,-231.79C631.98,-220.93 583.42,-207.98 544.15,-197.51"/>
<polygon fill="midnightblue" stroke="midnightblue" points="672.04,-235.23 682.61,-234.43 673.84,-228.47 672.04,-235.23"/>
</g>
<!-- Node4&#45;&gt;Node6 -->
<g id="edge17" class="edge">
<title>Node4&#45;&gt;Node6</title>
<path fill="none" stroke="midnightblue" d="M752.99,-224.19C752.52,-202.46 755.78,-173.82 773,-156 798.72,-129.38 892.35,-114.42 961.73,-106.79"/>
<polygon fill="midnightblue" stroke="midnightblue" points="749.49,-224.4 753.47,-234.22 756.49,-224.06 749.49,-224.4"/>
</g>
<!-- Node10 -->
<g id="node10" class="node">
<title>Node10</title>
<g id="a_node10"><a xlink:href="_loose_8hpp.html" target="_top" xlink:title=" ">
<polygon fill="none" stroke="black" points="30,-156.5 30,-197.5 188,-197.5 188,-156.5 30,-156.5"/>
<text text-anchor="start" x="38" y="-185.5" font-family="Helvetica,sans-Serif" font-size="10.00">/home/runner/work/Simulatio</text>
<text text-anchor="start" x="38" y="-174.5" font-family="Helvetica,sans-Serif" font-size="10.00">/Simulatio/engine/include</text>
<text text-anchor="middle" x="109" y="-163.5" font-family="Helvetica,sans-Serif" font-size="10.00">/Constraints/Loose.hpp</text>
</a>
</g>
</g>
<!-- Node4&#45;&gt;Node10 -->
<g id="edge9" class="edge">
<title>Node4&#45;&gt;Node10</title>
<path fill="none" stroke="midnightblue" d="M666.3,-247.61C557.31,-239.21 368.02,-222.58 207,-198 200.82,-197.06 194.44,-195.98 188.04,-194.83"/>
<polygon fill="midnightblue" stroke="midnightblue" points="666.35,-251.12 676.59,-248.4 666.89,-244.14 666.35,-251.12"/>
</g>
<!-- Node12 -->
<g id="node12" class="node">
<title>Node12</title>
<g id="a_node12"><a xlink:href="_slider_8hpp.html" target="_top" xlink:title=" ">
<polygon fill="none" stroke="black" points="568,-156.5 568,-197.5 726,-197.5 726,-156.5 568,-156.5"/>
<text text-anchor="start" x="576" y="-185.5" font-family="Helvetica,sans-Serif" font-size="10.00">/home/runner/work/Simulatio</text>
<text text-anchor="start" x="576" y="-174.5" font-family="Helvetica,sans-Serif" font-size="10.00">/Simulatio/engine/include</text>
<text text-anchor="middle" x="647" y="-163.5" font-family="Helvetica,sans-Serif" font-size="10.00">/Constraints/Slider.hpp</text>
</a>
</g>
</g>
<!-- Node4&#45;&gt;Node12 -->
<g id="edge11" class="edge">
<title>Node4&#45;&gt;Node12</title>
<path fill="none" stroke="midnightblue" d="M719.62,-228.64C705.07,-218.49 688.57,-206.98 674.98,-197.51"/>
<polygon fill="midnightblue" stroke="midnightblue" points="717.73,-231.58 727.93,-234.43 721.73,-225.84 717.73,-231.58"/>
</g>
<!-- Node14 -->
<g id="node14" class="node">
<title>Node14</title>
<g id="a_node14"><a xlink:href="_spring_8hpp.html" target="_top" xlink:title=" ">
<polygon fill="none" stroke="black" points="216,-156.5 216,-197.5 374,-197.5 374,-156.5 216,-156.5"/>
<text text-anchor="start" x="224" y="-185.5" font-family="Helvetica,sans-Serif" font-size="10.00">/home/runner/work/Simulatio</text>
<text text-anchor="start" x="224" y="-174.5" font-family="Helvetica,sans-Serif" font-size="10.00">/Simulatio/engine/include</text>
<text text-anchor="middle" x="295" y="-163.5" font-family="Helvetica,sans-Serif" font-size="10.00">/Constraints/Spring.hpp</text>
</a>
</g>
</g>
<!-- Node4&#45;&gt;Node14 -->
<g id="edge14" class="edge">
<title>Node4&#45;&gt;Node14</title>
<path fill="none" stroke="midnightblue" d="M666.78,-242.51C591.02,-232.29 479.53,-216.19 383,-198 380.07,-197.45 377.1,-196.87 374.1,-196.27"/>
<polygon fill="midnightblue" stroke="midnightblue" points="666.39,-245.98 676.76,-243.85 667.32,-239.05 666.39,-245.98"/>
</g>
<!-- Node16 -->
<g id="node16" class="node">
<title>Node16</title>
<g id="a_node16"><a xlink:href="_constraint_8cpp.html" target="_top" xlink:title=" ">
<polygon fill="none" stroke="black" points="782,-156.5 782,-197.5 960,-197.5 960,-156.5 782,-156.5"/>
<text text-anchor="start" x="790" y="-185.5" font-family="Helvetica,sans-Serif" font-size="10.00">/home/runner/work/Simulatio</text>
<text text-anchor="start" x="790" y="-174.5" font-family="Helvetica,sans-Serif" font-size="10.00">/Simulatio/engine/src/Constraints</text>
<text text-anchor="middle" x="871" y="-163.5" font-family="Helvetica,sans-Serif" font-size="10.00">/Constraint.cpp</text>
</a>
</g>
</g>
<!-- Node4&#45;&gt;Node16 -->
<g id="edge18" class="edge">
<title>Node4&#45;&gt;Node16</title>
<path fill="none" stroke="midnightblue" d="M794.38,-228.64C809.74,-218.49 827.15,-206.98 841.49,-197.51"/>
<polygon fill="midnightblue" stroke="midnightblue" points="792.03,-225.99 785.62,-234.43 795.89,-231.83 792.03,-225.99"/>
</g>
<!-- Node5&#45;&gt;Node6 -->
<g id="edge5" class="edge">
<title>Node5&#45;&gt;Node6</title>
<path fill="none" stroke="midnightblue" d="M560.2,-155.89C707.37,-131.12 868.06,-114.92 961.73,-106.57"/>
<polygon fill="midnightblue" stroke="midnightblue" points="559.35,-152.48 550.07,-157.61 560.52,-159.38 559.35,-152.48"/>
</g>
<!-- Node9 -->
<g id="node9" class="node">
<title>Node9</title>
<g id="a_node9"><a xlink:href="_link_8cpp.html" target="_top" xlink:title=" ">
<polygon fill="none" stroke="black" points="392,-78.5 392,-119.5 570,-119.5 570,-78.5 392,-78.5"/>
<text text-anchor="start" x="400" y="-107.5" font-family="Helvetica,sans-Serif" font-size="10.00">/home/runner/work/Simulatio</text>
<text text-anchor="start" x="400" y="-96.5" font-family="Helvetica,sans-Serif" font-size="10.00">/Simulatio/engine/src/Constraints</text>
<text text-anchor="middle" x="481" y="-85.5" font-family="Helvetica,sans-Serif" font-size="10.00">/Link.cpp</text>
</a>
</g>
</g>
<!-- Node5&#45;&gt;Node9 -->
<g id="edge8" class="edge">
<title>Node5&#45;&gt;Node9</title>
<path fill="none" stroke="midnightblue" d="M474.91,-146.3C476.09,-137.3 477.36,-127.65 478.43,-119.51"/>
<polygon fill="midnightblue" stroke="midnightblue" points="471.41,-146.06 473.58,-156.43 478.35,-146.97 471.41,-146.06"/>
</g>
<!-- Node7 -->
<g id="node7" class="node">
<title>Node7</title>
<g id="a_node7"><a xlink:href="_system_8cpp.html" target="_top" xlink:title=" ">
<polygon fill="none" stroke="black" points="863,-0.5 863,-41.5 1035,-41.5 1035,-0.5 863,-0.5"/>
<text text-anchor="start" x="871" y="-29.5" font-family="Helvetica,sans-Serif" font-size="10.00">/home/runner/work/Simulatio</text>
<text text-anchor="start" x="871" y="-18.5" font-family="Helvetica,sans-Serif" font-size="10.00">/Simulatio/engine/src/Structures</text>
<text text-anchor="middle" x="949" y="-7.5" font-family="Helvetica,sans-Serif" font-size="10.00">/System.cpp</text>
</a>
</g>
</g>
<!-- Node6&#45;&gt;Node7 -->
<g id="edge6" class="edge">
<title>Node6&#45;&gt;Node7</title>
<path fill="none" stroke="midnightblue" d="M1009.26,-71.78C997.23,-61.84 983.76,-50.72 972.61,-41.51"/>
<polygon fill="midnightblue" stroke="midnightblue" points="1007.37,-74.76 1017.31,-78.43 1011.83,-69.36 1007.37,-74.76"/>
</g>
<!-- Node8 -->
<g id="node8" class="node">
<title>Node8</title>
<g id="a_node8"><a xlink:href="engine_2src_2main_2main_8cpp.html" target="_top" xlink:title=" ">
<polygon fill="none" stroke="black" points="1053,-0.5 1053,-41.5 1211,-41.5 1211,-0.5 1053,-0.5"/>
<text text-anchor="start" x="1061" y="-29.5" font-family="Helvetica,sans-Serif" font-size="10.00">/home/runner/work/Simulatio</text>
<text text-anchor="start" x="1061" y="-18.5" font-family="Helvetica,sans-Serif" font-size="10.00">/Simulatio/engine/src/main</text>
<text text-anchor="middle" x="1132" y="-7.5" font-family="Helvetica,sans-Serif" font-size="10.00">/main.cpp</text>
</a>
</g>
</g>
<!-- Node6&#45;&gt;Node8 -->
<g id="edge7" class="edge">
<title>Node6&#45;&gt;Node8</title>
<path fill="none" stroke="midnightblue" d="M1072.4,-71.78C1084.29,-61.84 1097.62,-50.72 1108.64,-41.51"/>
<polygon fill="midnightblue" stroke="midnightblue" points="1069.87,-69.33 1064.43,-78.43 1074.35,-74.7 1069.87,-69.33"/>
</g>
<!-- Node11 -->
<g id="node11" class="node">
<title>Node11</title>
<g id="a_node11"><a xlink:href="_loose_8cpp.html" target="_top" xlink:title=" ">
<polygon fill="none" stroke="black" points="0,-78.5 0,-119.5 178,-119.5 178,-78.5 0,-78.5"/>
<text text-anchor="start" x="8" y="-107.5" font-family="Helvetica,sans-Serif" font-size="10.00">/home/runner/work/Simulatio</text>
<text text-anchor="start" x="8" y="-96.5" font-family="Helvetica,sans-Serif" font-size="10.00">/Simulatio/engine/src/Constraints</text>
<text text-anchor="middle" x="89" y="-85.5" font-family="Helvetica,sans-Serif" font-size="10.00">/Loose.cpp</text>
</a>
</g>
</g>
<!-- Node10&#45;&gt;Node11 -->
<g id="edge10" class="edge">
<title>Node10&#45;&gt;Node11</title>
<path fill="none" stroke="midnightblue" d="M101.26,-146.59C98.87,-137.51 96.3,-127.74 94.13,-119.51"/>
<polygon fill="midnightblue" stroke="midnightblue" points="97.92,-147.65 103.85,-156.43 104.69,-145.87 97.92,-147.65"/>
</g>
<!-- Node12&#45;&gt;Node6 -->
<g id="edge12" class="edge">
<title>Node12&#45;&gt;Node6</title>
<path fill="none" stroke="midnightblue" d="M736.15,-156.78C737.44,-156.51 738.72,-156.26 740,-156 815.18,-140.93 901.2,-125.06 961.98,-114.08"/>
<polygon fill="midnightblue" stroke="midnightblue" points="735.21,-153.4 726.12,-158.83 736.62,-160.25 735.21,-153.4"/>
</g>
<!-- Node13 -->
<g id="node13" class="node">
<title>Node13</title>
<g id="a_node13"><a xlink:href="engine_2src_2_constraints_2_slider_8cpp.html" target="_top" xlink:title=" ">
<polygon fill="none" stroke="black" points="588,-78.5 588,-119.5 766,-119.5 766,-78.5 588,-78.5"/>
<text text-anchor="start" x="596" y="-107.5" font-family="Helvetica,sans-Serif" font-size="10.00">/home/runner/work/Simulatio</text>
<text text-anchor="start" x="596" y="-96.5" font-family="Helvetica,sans-Serif" font-size="10.00">/Simulatio/engine/src/Constraints</text>
<text text-anchor="middle" x="677" y="-85.5" font-family="Helvetica,sans-Serif" font-size="10.00">/Slider.cpp</text>
</a>
</g>
</g>
<!-- Node12&#45;&gt;Node13 -->
<g id="edge13" class="edge">
<title>Node12&#45;&gt;Node13</title>
<path fill="none" stroke="midnightblue" d="M658.49,-146.88C662.11,-137.72 666.01,-127.83 669.3,-119.51"/>
<polygon fill="midnightblue" stroke="midnightblue" points="655.14,-145.84 654.73,-156.43 661.65,-148.41 655.14,-145.84"/>
</g>
<!-- Node14&#45;&gt;Node6 -->
<g id="edge15" class="edge">
<title>Node14&#45;&gt;Node6</title>
<path fill="none" stroke="midnightblue" d="M384.01,-156.08C469.47,-144.89 806.27,-118.23 961.77,-106.12"/>
<polygon fill="midnightblue" stroke="midnightblue" points="383.46,-152.62 374.05,-157.49 384.45,-159.55 383.46,-152.62"/>
</g>
<!-- Node15 -->
<g id="node15" class="node">
<title>Node15</title>
<g id="a_node15"><a xlink:href="engine_2src_2_constraints_2_spring_8cpp.html" target="_top" xlink:title=" ">
<polygon fill="none" stroke="black" points="196,-78.5 196,-119.5 374,-119.5 374,-78.5 196,-78.5"/>
<text text-anchor="start" x="204" y="-107.5" font-family="Helvetica,sans-Serif" font-size="10.00">/home/runner/work/Simulatio</text>
<text text-anchor="start" x="204" y="-96.5" font-family="Helvetica,sans-Serif" font-size="10.00">/Simulatio/engine/src/Constraints</text>
<text text-anchor="middle" x="285" y="-85.5" font-family="Helvetica,sans-Serif" font-size="10.00">/Spring.cpp</text>
</a>
</g>
</g>
<!-- Node14&#45;&gt;Node15 -->
<g id="edge16" class="edge">
<title>Node14&#45;&gt;Node15</title>
<path fill="none" stroke="midnightblue" d="M291.09,-146.3C289.91,-137.3 288.64,-127.65 287.57,-119.51"/>
<polygon fill="midnightblue" stroke="midnightblue" points="287.65,-146.97 292.42,-156.43 294.59,-146.06 287.65,-146.97"/>
</g>
<!-- Node17&#45;&gt;Node4 -->
<g id="edge20" class="edge">
<title>Node17&#45;&gt;Node4</title>
<path fill="none" stroke="midnightblue" d="M1277.66,-486.18C1156.56,-482.28 947.94,-470.09 883,-432 820.11,-395.11 779.73,-313.44 763.77,-275.75"/>
<polygon fill="midnightblue" stroke="midnightblue" points="1277.56,-489.68 1287.66,-486.49 1277.78,-482.68 1277.56,-489.68"/>
</g>
<!-- Node17&#45;&gt;Node6 -->
<g id="edge45" class="edge">
<title>Node17&#45;&gt;Node6</title>
<path fill="none" stroke="midnightblue" d="M1456.14,-478.37C1541.7,-463.6 1658,-426.51 1658,-334 1658,-334 1658,-334 1658,-254 1658,-209.63 1671.87,-185.8 1639,-156 1601.34,-121.86 1274.08,-107.24 1120.26,-102.21"/>
<polygon fill="midnightblue" stroke="midnightblue" points="1455.43,-474.94 1446.13,-480.02 1456.57,-481.85 1455.43,-474.94"/>
</g>
<!-- Node18 -->
<g id="node18" class="node">
<title>Node18</title>
<g id="a_node18"><a xlink:href="_circle_8hpp.html" target="_top" xlink:title=" ">
<polygon fill="none" stroke="black" points="1181,-390.5 1181,-431.5 1339,-431.5 1339,-390.5 1181,-390.5"/>
<text text-anchor="start" x="1189" y="-419.5" font-family="Helvetica,sans-Serif" font-size="10.00">/home/runner/work/Simulatio</text>
<text text-anchor="start" x="1189" y="-408.5" font-family="Helvetica,sans-Serif" font-size="10.00">/Simulatio/engine/include</text>
<text text-anchor="middle" x="1260" y="-397.5" font-family="Helvetica,sans-Serif" font-size="10.00">/Corpses/Circle.hpp</text>
</a>
</g>
</g>
<!-- Node17&#45;&gt;Node18 -->
<g id="edge21" class="edge">
<title>Node17&#45;&gt;Node18</title>
<path fill="none" stroke="midnightblue" d="M1331.29,-462.64C1317,-452.49 1300.8,-440.98 1287.46,-431.51"/>
<polygon fill="midnightblue" stroke="midnightblue" points="1329.27,-465.49 1339.44,-468.43 1333.32,-459.78 1329.27,-465.49"/>
</g>
<!-- Node19 -->
<g id="node19" class="node">
<title>Node19</title>
<g id="a_node19"><a xlink:href="_polygon_8hpp.html" target="_top" xlink:title=" ">
<polygon fill="none" stroke="black" points="1181,-312.5 1181,-353.5 1339,-353.5 1339,-312.5 1181,-312.5"/>
<text text-anchor="start" x="1189" y="-341.5" font-family="Helvetica,sans-Serif" font-size="10.00">/home/runner/work/Simulatio</text>
<text text-anchor="start" x="1189" y="-330.5" font-family="Helvetica,sans-Serif" font-size="10.00">/Simulatio/engine/include</text>
<text text-anchor="middle" x="1260" y="-319.5" font-family="Helvetica,sans-Serif" font-size="10.00">/Corpses/Polygon.hpp</text>
</a>
</g>
</g>
<!-- Node17&#45;&gt;Node19 -->
<g id="edge41" class="edge">
<title>Node17&#45;&gt;Node19</title>
<path fill="none" stroke="midnightblue" d="M1367.23,-458.07C1366.04,-437.35 1361.62,-410.01 1348,-390 1337.5,-374.58 1321.21,-362.51 1305.48,-353.58"/>
<polygon fill="midnightblue" stroke="midnightblue" points="1363.74,-458.36 1367.6,-468.23 1370.74,-458.11 1363.74,-458.36"/>
</g>
<!-- Node20 -->
<g id="node20" class="node">
<title>Node20</title>
<g id="a_node20"><a xlink:href="_collision_8hpp.html" target="_top" xlink:title=" ">
<polygon fill="none" stroke="black" points="1464,-234.5 1464,-275.5 1622,-275.5 1622,-234.5 1464,-234.5"/>
<text text-anchor="start" x="1472" y="-263.5" font-family="Helvetica,sans-Serif" font-size="10.00">/home/runner/work/Simulatio</text>
<text text-anchor="start" x="1472" y="-252.5" font-family="Helvetica,sans-Serif" font-size="10.00">/Simulatio/engine/include</text>
<text text-anchor="middle" x="1543" y="-241.5" font-family="Helvetica,sans-Serif" font-size="10.00">/Geometry/Collision.hpp</text>
</a>
</g>
</g>
<!-- Node17&#45;&gt;Node20 -->
<g id="edge42" class="edge">
<title>Node17&#45;&gt;Node20</title>
<path fill="none" stroke="midnightblue" d="M1388.08,-460.21C1424.12,-412.7 1496.7,-317.03 1528.03,-275.73"/>
<polygon fill="midnightblue" stroke="midnightblue" points="1385.26,-458.14 1382.01,-468.22 1390.84,-462.37 1385.26,-458.14"/>
</g>
<!-- Node22 -->
<g id="node22" class="node">
<title>Node22</title>
<g id="a_node22"><a xlink:href="_quad_node_8hpp.html" target="_top" xlink:title=" ">
<polygon fill="none" stroke="black" points="1288,-234.5 1288,-275.5 1446,-275.5 1446,-234.5 1288,-234.5"/>
<text text-anchor="start" x="1296" y="-263.5" font-family="Helvetica,sans-Serif" font-size="10.00">/home/runner/work/Simulatio</text>
<text text-anchor="start" x="1296" y="-252.5" font-family="Helvetica,sans-Serif" font-size="10.00">/Simulatio/engine/include</text>
<text text-anchor="middle" x="1367" y="-241.5" font-family="Helvetica,sans-Serif" font-size="10.00">/Structures/QuadNode.hpp</text>
</a>
</g>
</g>
<!-- Node17&#45;&gt;Node22 -->
<g id="edge43" class="edge">
<title>Node17&#45;&gt;Node22</title>
<path fill="none" stroke="midnightblue" d="M1368.26,-458.13C1368.57,-449.68 1368.85,-440.48 1369,-432 1369.95,-378.68 1369.95,-365.32 1369,-312 1368.78,-299.94 1368.31,-286.42 1367.88,-275.69"/>
<polygon fill="midnightblue" stroke="midnightblue" points="1364.76,-458.18 1367.88,-468.31 1371.75,-458.45 1364.76,-458.18"/>
</g>
<!-- Node23 -->
<g id="node23" class="node">
<title>Node23</title>
<g id="a_node23"><a xlink:href="_quadtree_8hpp.html" target="_top" xlink:title=" ">
<polygon fill="none" stroke="black" points="1016,-156.5 1016,-197.5 1174,-197.5 1174,-156.5 1016,-156.5"/>
<text text-anchor="start" x="1024" y="-185.5" font-family="Helvetica,sans-Serif" font-size="10.00">/home/runner/work/Simulatio</text>
<text text-anchor="start" x="1024" y="-174.5" font-family="Helvetica,sans-Serif" font-size="10.00">/Simulatio/engine/include</text>
<text text-anchor="middle" x="1095" y="-163.5" font-family="Helvetica,sans-Serif" font-size="10.00">/Structures/Quadtree.hpp</text>
</a>
</g>
</g>
<!-- Node17&#45;&gt;Node23 -->
<g id="edge44" class="edge">
<title>Node17&#45;&gt;Node23</title>
<path fill="none" stroke="midnightblue" d="M1277.75,-484.09C1181.78,-478.27 1037.03,-464.31 993,-432 947.9,-398.9 933.03,-363.45 955,-312 976.74,-261.1 1028.35,-220.29 1062.46,-197.61"/>
<polygon fill="midnightblue" stroke="midnightblue" points="1277.56,-487.59 1287.74,-484.68 1277.97,-480.6 1277.56,-487.59"/>
</g>
<!-- Node27 -->
<g id="node27" class="node">
<title>Node27</title>
<g id="a_node27"><a xlink:href="_corpse_8cpp.html" target="_top" xlink:title=" ">
<polygon fill="none" stroke="black" points="1001.5,-390.5 1001.5,-431.5 1162.5,-431.5 1162.5,-390.5 1001.5,-390.5"/>
<text text-anchor="start" x="1009.5" y="-419.5" font-family="Helvetica,sans-Serif" font-size="10.00">/home/runner/work/Simulatio</text>
<text text-anchor="start" x="1009.5" y="-408.5" font-family="Helvetica,sans-Serif" font-size="10.00">/Simulatio/engine/src/Corpses</text>
<text text-anchor="middle" x="1082" y="-397.5" font-family="Helvetica,sans-Serif" font-size="10.00">/Corpse.cpp</text>
</a>
</g>
</g>
<!-- Node17&#45;&gt;Node27 -->
<g id="edge46" class="edge">
<title>Node17&#45;&gt;Node27</title>
<path fill="none" stroke="midnightblue" d="M1283.7,-465.79C1242.98,-454.93 1194.42,-441.98 1155.15,-431.51"/>
<polygon fill="midnightblue" stroke="midnightblue" points="1283.04,-469.23 1293.61,-468.43 1284.84,-462.47 1283.04,-469.23"/>
</g>
<!-- Node18&#45;&gt;Node4 -->
<g id="edge22" class="edge">
<title>Node18&#45;&gt;Node4</title>
<path fill="none" stroke="midnightblue" d="M1170.94,-389.92C1059.21,-370.69 1024.27,-390.44 921,-354 867.74,-335.21 812.68,-298.34 781.54,-275.57"/>
<polygon fill="midnightblue" stroke="midnightblue" points="1170.45,-393.39 1180.91,-391.71 1171.68,-386.5 1170.45,-393.39"/>
</g>
<!-- Node18&#45;&gt;Node6 -->
<g id="edge39" class="edge">
<title>Node18&#45;&gt;Node6</title>
<path fill="none" stroke="midnightblue" d="M1170.87,-390.14C1109.32,-381.61 984.88,-389.25 955,-354 921.18,-314.1 949.81,-279.48 1007,-156 1012.83,-143.41 1020.83,-130.1 1027.6,-119.62"/>
<polygon fill="midnightblue" stroke="midnightblue" points="1170.46,-393.61 1180.89,-391.79 1171.6,-386.71 1170.46,-393.61"/>
</g>
<!-- Node18&#45;&gt;Node19 -->
<g id="edge23" class="edge">
<title>Node18&#45;&gt;Node19</title>
<path fill="none" stroke="midnightblue" d="M1253.4,-380.3C1253.08,-371.3 1253.28,-361.65 1254.02,-353.51"/>
<polygon fill="midnightblue" stroke="midnightblue" points="1249.91,-380.66 1254.01,-390.43 1256.9,-380.23 1249.91,-380.66"/>
</g>
<!-- Node18&#45;&gt;Node20 -->
<g id="edge36" class="edge">
<title>Node18&#45;&gt;Node20</title>
<path fill="none" stroke="midnightblue" d="M1308.12,-385.78C1327.17,-376.06 1349.2,-364.66 1369,-354 1418.15,-327.54 1474.3,-295.6 1509.21,-275.54"/>
<polygon fill="midnightblue" stroke="midnightblue" points="1306.36,-382.75 1299.03,-390.4 1309.53,-388.99 1306.36,-382.75"/>
</g>
<!-- Node18&#45;&gt;Node22 -->
<g id="edge37" class="edge">
<title>Node18&#45;&gt;Node22</title>
<path fill="none" stroke="midnightblue" d="M1314.34,-385.07C1327.11,-376.85 1339.47,-366.53 1348,-354 1364,-330.51 1367.3,-296.89 1367.6,-275.77"/>
<polygon fill="midnightblue" stroke="midnightblue" points="1312.23,-382.26 1305.48,-390.42 1315.85,-388.25 1312.23,-382.26"/>
</g>
<!-- Node18&#45;&gt;Node23 -->
<g id="edge38" class="edge">
<title>Node18&#45;&gt;Node23</title>
<path fill="none" stroke="midnightblue" d="M1215.81,-385.11C1201.27,-376.09 1185.41,-365.32 1172,-354 1152.76,-337.76 1154.49,-326.63 1134,-312 1100.95,-288.4 1072.36,-309.91 1050,-276 1033.3,-250.68 1055.76,-218.16 1074.5,-197.69"/>
<polygon fill="midnightblue" stroke="midnightblue" points="1214.3,-388.28 1224.66,-390.49 1217.93,-382.3 1214.3,-388.28"/>
</g>
<!-- Node26 -->
<g id="node26" class="node">
<title>Node26</title>
<g id="a_node26"><a xlink:href="_circle_8cpp.html" target="_top" xlink:title=" ">
<polygon fill="none" stroke="black" points="963.5,-312.5 963.5,-353.5 1124.5,-353.5 1124.5,-312.5 963.5,-312.5"/>
<text text-anchor="start" x="971.5" y="-341.5" font-family="Helvetica,sans-Serif" font-size="10.00">/home/runner/work/Simulatio</text>
<text text-anchor="start" x="971.5" y="-330.5" font-family="Helvetica,sans-Serif" font-size="10.00">/Simulatio/engine/src/Corpses</text>
<text text-anchor="middle" x="1044" y="-319.5" font-family="Helvetica,sans-Serif" font-size="10.00">/Circle.cpp</text>
</a>
</g>
</g>
<!-- Node18&#45;&gt;Node26 -->
<g id="edge40" class="edge">
<title>Node18&#45;&gt;Node26</title>
<path fill="none" stroke="midnightblue" d="M1194.71,-387.03C1164.3,-376.33 1128.51,-363.73 1099.44,-353.51"/>
<polygon fill="midnightblue" stroke="midnightblue" points="1193.78,-390.41 1204.37,-390.43 1196.1,-383.81 1193.78,-390.41"/>
</g>
<!-- Node19&#45;&gt;Node4 -->
<g id="edge24" class="edge">
<title>Node19&#45;&gt;Node4</title>
<path fill="none" stroke="midnightblue" d="M1170.47,-317.67C1158.22,-315.75 1145.8,-313.81 1134,-312 1030.89,-296.18 911.82,-278.66 835.31,-267.51"/>
<polygon fill="midnightblue" stroke="midnightblue" points="1170.28,-321.19 1180.71,-319.29 1171.37,-314.27 1170.28,-321.19"/>
</g>
<!-- Node19&#45;&gt;Node6 -->
<g id="edge34" class="edge">
<title>Node19&#45;&gt;Node6</title>
<path fill="none" stroke="midnightblue" d="M1257.73,-302.38C1255.37,-282.39 1250.61,-255.77 1241,-234 1232.28,-214.24 1200.15,-169.13 1183,-156 1162.38,-140.21 1136.74,-128.3 1112.94,-119.62"/>
<polygon fill="midnightblue" stroke="midnightblue" points="1254.26,-302.87 1258.78,-312.45 1261.22,-302.15 1254.26,-302.87"/>
</g>
<!-- Node19&#45;&gt;Node18 -->
<g id="edge25" class="edge">
<title>Node19&#45;&gt;Node18</title>
<path fill="none" stroke="midnightblue" d="M1266.6,-363.63C1266.92,-372.62 1266.72,-382.27 1265.99,-390.43"/>
<polygon fill="midnightblue" stroke="midnightblue" points="1270.09,-363.27 1265.98,-353.51 1263.1,-363.7 1270.09,-363.27"/>
</g>
<!-- Node19&#45;&gt;Node20 -->
<g id="edge26" class="edge">
<title>Node19&#45;&gt;Node20</title>
<path fill="none" stroke="midnightblue" d="M1342.71,-309.79C1383.15,-298.93 1431.37,-285.98 1470.37,-275.51"/>
<polygon fill="midnightblue" stroke="midnightblue" points="1341.63,-306.45 1332.88,-312.43 1343.45,-313.21 1341.63,-306.45"/>
</g>
<!-- Node19&#45;&gt;Node22 -->
<g id="edge29" class="edge">
<title>Node19&#45;&gt;Node22</title>
<path fill="none" stroke="midnightblue" d="M1295.71,-306.64C1310,-296.49 1326.2,-284.98 1339.54,-275.51"/>
<polygon fill="midnightblue" stroke="midnightblue" points="1293.68,-303.78 1287.56,-312.43 1297.73,-309.49 1293.68,-303.78"/>
</g>
<!-- Node19&#45;&gt;Node23 -->
<g id="edge33" class="edge">
<title>Node19&#45;&gt;Node23</title>
<path fill="none" stroke="midnightblue" d="M1171.12,-312.04C1121.87,-300.09 1069.13,-285.43 1062,-276 1044.24,-252.52 1062.78,-218.9 1078.4,-197.78"/>
<polygon fill="midnightblue" stroke="midnightblue" points="1170.36,-315.46 1180.9,-314.4 1172,-308.66 1170.36,-315.46"/>
</g>
<!-- Node25 -->
<g id="node25" class="node">
<title>Node25</title>
<g id="a_node25"><a xlink:href="_polygon_8cpp.html" target="_top" xlink:title=" ">
<polygon fill="none" stroke="black" points="1070.5,-234.5 1070.5,-275.5 1231.5,-275.5 1231.5,-234.5 1070.5,-234.5"/>
<text text-anchor="start" x="1078.5" y="-263.5" font-family="Helvetica,sans-Serif" font-size="10.00">/home/runner/work/Simulatio</text>
<text text-anchor="start" x="1078.5" y="-252.5" font-family="Helvetica,sans-Serif" font-size="10.00">/Simulatio/engine/src/Corpses</text>
<text text-anchor="middle" x="1151" y="-241.5" font-family="Helvetica,sans-Serif" font-size="10.00">/Polygon.cpp</text>
</a>
</g>
</g>
<!-- Node19&#45;&gt;Node25 -->
<g id="edge35" class="edge">
<title>Node19&#45;&gt;Node25</title>
<path fill="none" stroke="midnightblue" d="M1223.62,-306.64C1209.07,-296.49 1192.57,-284.98 1178.98,-275.51"/>
<polygon fill="midnightblue" stroke="midnightblue" points="1221.73,-309.58 1231.93,-312.43 1225.73,-303.84 1221.73,-309.58"/>
</g>
<!-- Node20&#45;&gt;Node6 -->
<g id="edge27" class="edge">
<title>Node20&#45;&gt;Node6</title>
<path fill="none" stroke="midnightblue" d="M1496.34,-229.36C1480.97,-220.35 1464.19,-209.52 1450,-198 1430.23,-181.94 1433.52,-167.91 1411,-156 1361.89,-130.04 1213.3,-113.77 1120.04,-105.84"/>
<polygon fill="midnightblue" stroke="midnightblue" points="1494.79,-232.5 1505.21,-234.44 1498.27,-226.43 1494.79,-232.5"/>
</g>
<!-- Node21 -->
<g id="node21" class="node">
<title>Node21</title>
<g id="a_node21"><a xlink:href="_collision_8cpp.html" target="_top" xlink:title=" ">
<polygon fill="none" stroke="black" points="1458.5,-156.5 1458.5,-197.5 1629.5,-197.5 1629.5,-156.5 1458.5,-156.5"/>
<text text-anchor="start" x="1466.5" y="-185.5" font-family="Helvetica,sans-Serif" font-size="10.00">/home/runner/work/Simulatio</text>
<text text-anchor="start" x="1466.5" y="-174.5" font-family="Helvetica,sans-Serif" font-size="10.00">/Simulatio/engine/src/Geometry</text>
<text text-anchor="middle" x="1544" y="-163.5" font-family="Helvetica,sans-Serif" font-size="10.00">/Collision.cpp</text>
</a>
</g>
</g>
<!-- Node20&#45;&gt;Node21 -->
<g id="edge28" class="edge">
<title>Node20&#45;&gt;Node21</title>
<path fill="none" stroke="midnightblue" d="M1543.39,-224.3C1543.51,-215.3 1543.64,-205.65 1543.74,-197.51"/>
<polygon fill="midnightblue" stroke="midnightblue" points="1539.89,-224.38 1543.26,-234.43 1546.89,-224.48 1539.89,-224.38"/>
</g>
<!-- Node22&#45;&gt;Node23 -->
<g id="edge30" class="edge">
<title>Node22&#45;&gt;Node23</title>
<path fill="none" stroke="midnightblue" d="M1287.26,-231.72C1248.44,-220.87 1202.21,-207.96 1164.81,-197.51"/>
<polygon fill="midnightblue" stroke="midnightblue" points="1286.38,-235.11 1296.95,-234.43 1288.26,-228.37 1286.38,-235.11"/>
</g>
<!-- Node24 -->
<g id="node24" class="node">
<title>Node24</title>
<g id="a_node24"><a xlink:href="_quad_node_8cpp.html" target="_top" xlink:title=" ">
<polygon fill="none" stroke="black" points="1230,-156.5 1230,-197.5 1402,-197.5 1402,-156.5 1230,-156.5"/>
<text text-anchor="start" x="1238" y="-185.5" font-family="Helvetica,sans-Serif" font-size="10.00">/home/runner/work/Simulatio</text>
<text text-anchor="start" x="1238" y="-174.5" font-family="Helvetica,sans-Serif" font-size="10.00">/Simulatio/engine/src/Structures</text>
<text text-anchor="middle" x="1316" y="-163.5" font-family="Helvetica,sans-Serif" font-size="10.00">/QuadNode.cpp</text>
</a>
</g>
</g>
<!-- Node22&#45;&gt;Node24 -->
<g id="edge32" class="edge">
<title>Node22&#45;&gt;Node24</title>
<path fill="none" stroke="midnightblue" d="M1348.24,-226.05C1341.88,-216.57 1334.91,-206.18 1329.09,-197.51"/>
<polygon fill="midnightblue" stroke="midnightblue" points="1345.39,-228.07 1353.87,-234.43 1351.2,-224.17 1345.39,-228.07"/>
</g>
<!-- Node23&#45;&gt;Node6 -->
<g id="edge31" class="edge">
<title>Node23&#45;&gt;Node6</title>
<path fill="none" stroke="midnightblue" d="M1075.14,-148.05C1068.4,-138.57 1061.03,-128.18 1054.86,-119.51"/>
<polygon fill="midnightblue" stroke="midnightblue" points="1072.45,-150.3 1081.09,-156.43 1078.15,-146.25 1072.45,-150.3"/>
</g>
</g>
</svg>
