<?xml version="1.0" encoding="UTF-8" standalone="no"?>
<!DOCTYPE svg PUBLIC "-//W3C//DTD SVG 1.1//EN"
 "http://www.w3.org/Graphics/SVG/1.1/DTD/svg11.dtd">
<!-- Generated by graphviz version 2.43.0 (0)
 -->
<!-- Title: /home/runner/work/Simulatio/Simulatio/include/Corpses/Polygon.hpp Pages: 1 -->
<svg width="2001pt" height="518pt"
 viewBox="0.00 0.00 2000.50 518.00" xmlns="http://www.w3.org/2000/svg" xmlns:xlink="http://www.w3.org/1999/xlink">
<g id="graph0" class="graph" transform="scale(1 1) rotate(0) translate(4 514)">
<title>/home/runner/work/Simulatio/Simulatio/include/Corpses/Polygon.hpp</title>
<!-- Node1 -->
<g id="node1" class="node">
<title>Node1</title>
<g id="a_node1"><a xlink:title=" ">
<polygon fill="#bfbfbf" stroke="black" points="1307.5,-468.5 1307.5,-509.5 1465.5,-509.5 1465.5,-468.5 1307.5,-468.5"/>
<text text-anchor="start" x="1315.5" y="-497.5" font-family="Helvetica,sans-Serif" font-size="10.00">/home/runner/work/Simulatio</text>
<text text-anchor="start" x="1315.5" y="-486.5" font-family="Helvetica,sans-Serif" font-size="10.00">/Simulatio/include/Corpses</text>
<text text-anchor="middle" x="1386.5" y="-475.5" font-family="Helvetica,sans-Serif" font-size="10.00">/Polygon.hpp</text>
</a>
</g>
</g>
<!-- Node2 -->
<g id="node2" class="node">
<title>Node2</title>
<g id="a_node2"><a xlink:href="_constraint_8hpp.html" target="_top" xlink:title=" ">
<polygon fill="none" stroke="black" points="669,-312.5 669,-353.5 832,-353.5 832,-312.5 669,-312.5"/>
<text text-anchor="start" x="677" y="-341.5" font-family="Helvetica,sans-Serif" font-size="10.00">/home/runner/work/Simulatio</text>
<text text-anchor="start" x="677" y="-330.5" font-family="Helvetica,sans-Serif" font-size="10.00">/Simulatio/include/Constraints</text>
<text text-anchor="middle" x="750.5" y="-319.5" font-family="Helvetica,sans-Serif" font-size="10.00">/Constraint.hpp</text>
</a>
</g>
</g>
<!-- Node1&#45;&gt;Node2 -->
<g id="edge1" class="edge">
<title>Node1&#45;&gt;Node2</title>
<path fill="none" stroke="midnightblue" d="M1297.23,-472.41C1240.62,-462.06 1165.98,-447.55 1100.5,-432 999.66,-408.05 884.14,-374.49 814.29,-353.51"/>
<polygon fill="midnightblue" stroke="midnightblue" points="1296.76,-475.88 1307.23,-474.23 1298.02,-469 1296.76,-475.88"/>
</g>
<!-- Node4 -->
<g id="node4" class="node">
<title>Node4</title>
<g id="a_node4"><a xlink:href="_system_8hpp.html" target="_top" xlink:title=" ">
<polygon fill="none" stroke="black" points="870.5,-156.5 870.5,-197.5 1028.5,-197.5 1028.5,-156.5 870.5,-156.5"/>
<text text-anchor="start" x="878.5" y="-185.5" font-family="Helvetica,sans-Serif" font-size="10.00">/home/runner/work/Simulatio</text>
<text text-anchor="start" x="878.5" y="-174.5" font-family="Helvetica,sans-Serif" font-size="10.00">/Simulatio/include/Structures</text>
<text text-anchor="middle" x="949.5" y="-163.5" font-family="Helvetica,sans-Serif" font-size="10.00">/System.hpp</text>
</a>
</g>
</g>
<!-- Node1&#45;&gt;Node4 -->
<g id="edge41" class="edge">
<title>Node1&#45;&gt;Node4</title>
<path fill="none" stroke="midnightblue" d="M1475.61,-483.62C1563.67,-473.99 1694.13,-444.26 1757.5,-354 1788.14,-310.35 1793.89,-272.99 1757.5,-234 1708.49,-181.47 1222.76,-177.12 1028.84,-177.5"/>
<polygon fill="midnightblue" stroke="midnightblue" points="1475.21,-480.15 1465.62,-484.65 1475.93,-487.11 1475.21,-480.15"/>
</g>
<!-- Node20 -->
<g id="node20" class="node">
<title>Node20</title>
<g id="a_node20"><a xlink:href="_circle_8hpp.html" target="_top" xlink:title=" ">
<polygon fill="none" stroke="black" points="1200.5,-390.5 1200.5,-431.5 1358.5,-431.5 1358.5,-390.5 1200.5,-390.5"/>
<text text-anchor="start" x="1208.5" y="-419.5" font-family="Helvetica,sans-Serif" font-size="10.00">/home/runner/work/Simulatio</text>
<text text-anchor="start" x="1208.5" y="-408.5" font-family="Helvetica,sans-Serif" font-size="10.00">/Simulatio/include/Corpses</text>
<text text-anchor="middle" x="1279.5" y="-397.5" font-family="Helvetica,sans-Serif" font-size="10.00">/Circle.hpp</text>
</a>
</g>
</g>
<!-- Node1&#45;&gt;Node20 -->
<g id="edge22" class="edge">
<title>Node1&#45;&gt;Node20</title>
<path fill="none" stroke="midnightblue" d="M1344.38,-462.64C1329.52,-452.49 1313.47,-440.98 1300.98,-431.51"/>
<polygon fill="midnightblue" stroke="midnightblue" points="1342.71,-465.73 1352.96,-468.43 1346.63,-459.93 1342.71,-465.73"/>
</g>
<!-- Node21 -->
<g id="node21" class="node">
<title>Node21</title>
<g id="a_node21"><a xlink:href="_collision_8hpp.html" target="_top" xlink:title=" ">
<polygon fill="none" stroke="black" points="930.5,-312.5 930.5,-353.5 1088.5,-353.5 1088.5,-312.5 930.5,-312.5"/>
<text text-anchor="start" x="938.5" y="-341.5" font-family="Helvetica,sans-Serif" font-size="10.00">/home/runner/work/Simulatio</text>
<text text-anchor="start" x="938.5" y="-330.5" font-family="Helvetica,sans-Serif" font-size="10.00">/Simulatio/include/Geometry</text>
<text text-anchor="middle" x="1009.5" y="-319.5" font-family="Helvetica,sans-Serif" font-size="10.00">/Collision.hpp</text>
</a>
</g>
</g>
<!-- Node1&#45;&gt;Node21 -->
<g id="edge37" class="edge">
<title>Node1&#45;&gt;Node21</title>
<path fill="none" stroke="midnightblue" d="M1297.54,-466.77C1263.79,-457.6 1225.35,-445.79 1191.5,-432 1136.5,-409.6 1076.54,-375.2 1041.03,-353.68"/>
<polygon fill="midnightblue" stroke="midnightblue" points="1296.83,-470.2 1307.39,-469.41 1298.64,-463.44 1296.83,-470.2"/>
</g>
<!-- Node23 -->
<g id="node23" class="node">
<title>Node23</title>
<g id="a_node23"><a xlink:href="_old_quadtree_8hpp.html" target="_top" xlink:title=" ">
<polygon fill="none" stroke="black" points="1590.5,-312.5 1590.5,-353.5 1748.5,-353.5 1748.5,-312.5 1590.5,-312.5"/>
<text text-anchor="start" x="1598.5" y="-341.5" font-family="Helvetica,sans-Serif" font-size="10.00">/home/runner/work/Simulatio</text>
<text text-anchor="start" x="1598.5" y="-330.5" font-family="Helvetica,sans-Serif" font-size="10.00">/Simulatio/include/Structures</text>
<text text-anchor="middle" x="1669.5" y="-319.5" font-family="Helvetica,sans-Serif" font-size="10.00">/OldQuadtree.hpp</text>
</a>
</g>
</g>
<!-- Node1&#45;&gt;Node23 -->
<g id="edge38" class="edge">
<title>Node1&#45;&gt;Node23</title>
<path fill="none" stroke="midnightblue" d="M1431.32,-463.61C1487.31,-433.14 1581.99,-381.62 1633.5,-353.59"/>
<polygon fill="midnightblue" stroke="midnightblue" points="1429.45,-460.64 1422.34,-468.5 1432.8,-466.79 1429.45,-460.64"/>
</g>
<!-- Node25 -->
<g id="node25" class="node">
<title>Node25</title>
<g id="a_node25"><a xlink:href="_quad_node_8hpp.html" target="_top" xlink:title=" ">
<polygon fill="none" stroke="black" points="1414.5,-312.5 1414.5,-353.5 1572.5,-353.5 1572.5,-312.5 1414.5,-312.5"/>
<text text-anchor="start" x="1422.5" y="-341.5" font-family="Helvetica,sans-Serif" font-size="10.00">/home/runner/work/Simulatio</text>
<text text-anchor="start" x="1422.5" y="-330.5" font-family="Helvetica,sans-Serif" font-size="10.00">/Simulatio/include/Structures</text>
<text text-anchor="middle" x="1493.5" y="-319.5" font-family="Helvetica,sans-Serif" font-size="10.00">/QuadNode.hpp</text>
</a>
</g>
</g>
<!-- Node1&#45;&gt;Node25 -->
<g id="edge39" class="edge">
<title>Node1&#45;&gt;Node25</title>
<path fill="none" stroke="midnightblue" d="M1405.98,-459.96C1427.31,-429.26 1460.97,-380.82 1479.72,-353.83"/>
<polygon fill="midnightblue" stroke="midnightblue" points="1402.88,-458.29 1400.05,-468.5 1408.63,-462.28 1402.88,-458.29"/>
</g>
<!-- Node26 -->
<g id="node26" class="node">
<title>Node26</title>
<g id="a_node26"><a xlink:href="_quadtree_8hpp.html" target="_top" xlink:title=" ">
<polygon fill="none" stroke="black" points="1238.5,-234.5 1238.5,-275.5 1396.5,-275.5 1396.5,-234.5 1238.5,-234.5"/>
<text text-anchor="start" x="1246.5" y="-263.5" font-family="Helvetica,sans-Serif" font-size="10.00">/home/runner/work/Simulatio</text>
<text text-anchor="start" x="1246.5" y="-252.5" font-family="Helvetica,sans-Serif" font-size="10.00">/Simulatio/include/Structures</text>
<text text-anchor="middle" x="1317.5" y="-241.5" font-family="Helvetica,sans-Serif" font-size="10.00">/Quadtree.hpp</text>
</a>
</g>
</g>
<!-- Node1&#45;&gt;Node26 -->
<g id="edge40" class="edge">
<title>Node1&#45;&gt;Node26</title>
<path fill="none" stroke="midnightblue" d="M1382.19,-458.26C1376.44,-422.65 1364.69,-361.58 1345.5,-312 1340.67,-299.53 1334.02,-286.12 1328.41,-275.54"/>
<polygon fill="midnightblue" stroke="midnightblue" points="1378.78,-459.12 1383.79,-468.46 1385.7,-458.04 1378.78,-459.12"/>
</g>
<!-- Node29 -->
<g id="node29" class="node">
<title>Node29</title>
<g id="a_node29"><a xlink:href="_polygon_8cpp.html" target="_top" xlink:title=" ">
<polygon fill="none" stroke="black" points="1804.5,-396 1804.5,-426 1992.5,-426 1992.5,-396 1804.5,-396"/>
<text text-anchor="start" x="1812.5" y="-414" font-family="Helvetica,sans-Serif" font-size="10.00">/home/runner/work/Simulatio</text>
<text text-anchor="middle" x="1898.5" y="-403" font-family="Helvetica,sans-Serif" font-size="10.00">/Simulatio/src/Corpses/Polygon.cpp</text>
</a>
</g>
</g>
<!-- Node1&#45;&gt;Node29 -->
<g id="edge42" class="edge">
<title>Node1&#45;&gt;Node29</title>
<path fill="none" stroke="midnightblue" d="M1475.65,-476.82C1557.63,-466.27 1682.47,-449.48 1790.5,-432 1801.79,-430.17 1813.73,-428.1 1825.38,-426.01"/>
<polygon fill="midnightblue" stroke="midnightblue" points="1475.09,-473.37 1465.62,-478.11 1475.98,-480.31 1475.09,-473.37"/>
</g>
<!-- Node3 -->
<g id="node3" class="node">
<title>Node3</title>
<g id="a_node3"><a xlink:href="_link_8hpp.html" target="_top" xlink:title=" ">
<polygon fill="none" stroke="black" points="720,-234.5 720,-275.5 883,-275.5 883,-234.5 720,-234.5"/>
<text text-anchor="start" x="728" y="-263.5" font-family="Helvetica,sans-Serif" font-size="10.00">/home/runner/work/Simulatio</text>
<text text-anchor="start" x="728" y="-252.5" font-family="Helvetica,sans-Serif" font-size="10.00">/Simulatio/include/Constraints</text>
<text text-anchor="middle" x="801.5" y="-241.5" font-family="Helvetica,sans-Serif" font-size="10.00">/Link.hpp</text>
</a>
</g>
</g>
<!-- Node2&#45;&gt;Node3 -->
<g id="edge2" class="edge">
<title>Node2&#45;&gt;Node3</title>
<path fill="none" stroke="midnightblue" d="M769.26,-304.05C775.62,-294.57 782.59,-284.18 788.41,-275.51"/>
<polygon fill="midnightblue" stroke="midnightblue" points="766.3,-302.17 763.63,-312.43 772.11,-306.07 766.3,-302.17"/>
</g>
<!-- Node2&#45;&gt;Node4 -->
<g id="edge20" class="edge">
<title>Node2&#45;&gt;Node4</title>
<path fill="none" stroke="midnightblue" d="M836.23,-308.8C856.17,-300.66 876.28,-289.94 892.5,-276 917.43,-254.58 934.09,-219.4 942.66,-197.53"/>
<polygon fill="midnightblue" stroke="midnightblue" points="834.84,-305.58 826.79,-312.47 837.38,-312.11 834.84,-305.58"/>
</g>
<!-- Node13 -->
<g id="node13" class="node">
<title>Node13</title>
<g id="a_node13"><a xlink:href="_loose_8hpp.html" target="_top" xlink:title=" ">
<polygon fill="none" stroke="black" points="0,-234.5 0,-275.5 163,-275.5 163,-234.5 0,-234.5"/>
<text text-anchor="start" x="8" y="-263.5" font-family="Helvetica,sans-Serif" font-size="10.00">/home/runner/work/Simulatio</text>
<text text-anchor="start" x="8" y="-252.5" font-family="Helvetica,sans-Serif" font-size="10.00">/Simulatio/include/Constraints</text>
<text text-anchor="middle" x="81.5" y="-241.5" font-family="Helvetica,sans-Serif" font-size="10.00">/Loose.hpp</text>
</a>
</g>
</g>
<!-- Node2&#45;&gt;Node13 -->
<g id="edge12" class="edge">
<title>Node2&#45;&gt;Node13</title>
<path fill="none" stroke="midnightblue" d="M658.46,-326.58C543.87,-319.04 342.38,-303.15 171.5,-276 168.81,-275.57 166.09,-275.11 163.34,-274.63"/>
<polygon fill="midnightblue" stroke="midnightblue" points="658.39,-330.09 668.6,-327.24 658.85,-323.1 658.39,-330.09"/>
</g>
<!-- Node15 -->
<g id="node15" class="node">
<title>Node15</title>
<g id="a_node15"><a xlink:href="_slider_8hpp.html" target="_top" xlink:title=" ">
<polygon fill="none" stroke="black" points="181,-234.5 181,-275.5 344,-275.5 344,-234.5 181,-234.5"/>
<text text-anchor="start" x="189" y="-263.5" font-family="Helvetica,sans-Serif" font-size="10.00">/home/runner/work/Simulatio</text>
<text text-anchor="start" x="189" y="-252.5" font-family="Helvetica,sans-Serif" font-size="10.00">/Simulatio/include/Constraints</text>
<text text-anchor="middle" x="262.5" y="-241.5" font-family="Helvetica,sans-Serif" font-size="10.00">/Slider.hpp</text>
</a>
</g>
</g>
<!-- Node2&#45;&gt;Node15 -->
<g id="edge14" class="edge">
<title>Node2&#45;&gt;Node15</title>
<path fill="none" stroke="midnightblue" d="M658.48,-321.14C577.6,-311.1 456.86,-294.91 352.5,-276 349.82,-275.51 347.1,-275.01 344.36,-274.48"/>
<polygon fill="midnightblue" stroke="midnightblue" points="658.28,-324.65 668.64,-322.4 659.14,-317.7 658.28,-324.65"/>
</g>
<!-- Node17 -->
<g id="node17" class="node">
<title>Node17</title>
<g id="a_node17"><a xlink:href="_spring_8hpp.html" target="_top" xlink:title=" ">
<polygon fill="none" stroke="black" points="362,-234.5 362,-275.5 525,-275.5 525,-234.5 362,-234.5"/>
<text text-anchor="start" x="370" y="-263.5" font-family="Helvetica,sans-Serif" font-size="10.00">/home/runner/work/Simulatio</text>
<text text-anchor="start" x="370" y="-252.5" font-family="Helvetica,sans-Serif" font-size="10.00">/Simulatio/include/Constraints</text>
<text text-anchor="middle" x="443.5" y="-241.5" font-family="Helvetica,sans-Serif" font-size="10.00">/Spring.hpp</text>
</a>
</g>
</g>
<!-- Node2&#45;&gt;Node17 -->
<g id="edge17" class="edge">
<title>Node2&#45;&gt;Node17</title>
<path fill="none" stroke="midnightblue" d="M661.61,-309.99C617.57,-299.09 564.86,-286.04 522.29,-275.51"/>
<polygon fill="midnightblue" stroke="midnightblue" points="660.89,-313.42 671.44,-312.43 662.57,-306.63 660.89,-313.42"/>
</g>
<!-- Node19 -->
<g id="node19" class="node">
<title>Node19</title>
<g id="a_node19"><a xlink:href="_constraint_8cpp.html" target="_top" xlink:title=" ">
<polygon fill="none" stroke="black" points="543.5,-234.5 543.5,-275.5 701.5,-275.5 701.5,-234.5 543.5,-234.5"/>
<text text-anchor="start" x="551.5" y="-263.5" font-family="Helvetica,sans-Serif" font-size="10.00">/home/runner/work/Simulatio</text>
<text text-anchor="start" x="551.5" y="-252.5" font-family="Helvetica,sans-Serif" font-size="10.00">/Simulatio/src/Constraints</text>
<text text-anchor="middle" x="622.5" y="-241.5" font-family="Helvetica,sans-Serif" font-size="10.00">/Constraint.cpp</text>
</a>
</g>
</g>
<!-- Node2&#45;&gt;Node19 -->
<g id="edge21" class="edge">
<title>Node2&#45;&gt;Node19</title>
<path fill="none" stroke="midnightblue" d="M708.74,-307.2C691.41,-296.92 671.61,-285.16 655.35,-275.51"/>
<polygon fill="midnightblue" stroke="midnightblue" points="707.15,-310.33 717.54,-312.43 710.73,-304.31 707.15,-310.33"/>
</g>
<!-- Node3&#45;&gt;Node4 -->
<g id="edge3" class="edge">
<title>Node3&#45;&gt;Node4</title>
<path fill="none" stroke="midnightblue" d="M848.69,-229.77C868.98,-219.35 892.37,-207.34 911.52,-197.51"/>
<polygon fill="midnightblue" stroke="midnightblue" points="846.91,-226.75 839.61,-234.43 850.11,-232.97 846.91,-226.75"/>
</g>
<!-- Node12 -->
<g id="node12" class="node">
<title>Node12</title>
<g id="a_node12"><a xlink:href="_link_8cpp.html" target="_top" xlink:title=" ">
<polygon fill="none" stroke="black" points="694.5,-156.5 694.5,-197.5 852.5,-197.5 852.5,-156.5 694.5,-156.5"/>
<text text-anchor="start" x="702.5" y="-185.5" font-family="Helvetica,sans-Serif" font-size="10.00">/home/runner/work/Simulatio</text>
<text text-anchor="start" x="702.5" y="-174.5" font-family="Helvetica,sans-Serif" font-size="10.00">/Simulatio/src/Constraints</text>
<text text-anchor="middle" x="773.5" y="-163.5" font-family="Helvetica,sans-Serif" font-size="10.00">/Link.cpp</text>
</a>
</g>
</g>
<!-- Node3&#45;&gt;Node12 -->
<g id="edge11" class="edge">
<title>Node3&#45;&gt;Node12</title>
<path fill="none" stroke="midnightblue" d="M790.77,-224.88C787.4,-215.72 783.75,-205.83 780.69,-197.51"/>
<polygon fill="midnightblue" stroke="midnightblue" points="787.55,-226.25 794.29,-234.43 794.12,-223.83 787.55,-226.25"/>
</g>
<!-- Node5 -->
<g id="node5" class="node">
<title>Node5</title>
<g id="a_node5"><a xlink:href="_renderer_8hpp.html" target="_top" xlink:title=" ">
<polygon fill="none" stroke="black" points="782.5,-78.5 782.5,-119.5 940.5,-119.5 940.5,-78.5 782.5,-78.5"/>
<text text-anchor="start" x="790.5" y="-107.5" font-family="Helvetica,sans-Serif" font-size="10.00">/home/runner/work/Simulatio</text>
<text text-anchor="start" x="790.5" y="-96.5" font-family="Helvetica,sans-Serif" font-size="10.00">/Simulatio/include/Renderer</text>
<text text-anchor="middle" x="861.5" y="-85.5" font-family="Helvetica,sans-Serif" font-size="10.00">/Renderer.hpp</text>
</a>
</g>
</g>
<!-- Node4&#45;&gt;Node5 -->
<g id="edge4" class="edge">
<title>Node4&#45;&gt;Node5</title>
<path fill="none" stroke="midnightblue" d="M919.14,-149.78C907.63,-139.84 894.75,-128.72 884.09,-119.51"/>
<polygon fill="midnightblue" stroke="midnightblue" points="916.98,-152.54 926.84,-156.43 921.56,-147.24 916.98,-152.54"/>
</g>
<!-- Node11 -->
<g id="node11" class="node">
<title>Node11</title>
<g id="a_node11"><a xlink:href="_system_8cpp.html" target="_top" xlink:title=" ">
<polygon fill="none" stroke="black" points="958.5,-78.5 958.5,-119.5 1116.5,-119.5 1116.5,-78.5 958.5,-78.5"/>
<text text-anchor="start" x="966.5" y="-107.5" font-family="Helvetica,sans-Serif" font-size="10.00">/home/runner/work/Simulatio</text>
<text text-anchor="start" x="966.5" y="-96.5" font-family="Helvetica,sans-Serif" font-size="10.00">/Simulatio/src/Structures</text>
<text text-anchor="middle" x="1037.5" y="-85.5" font-family="Helvetica,sans-Serif" font-size="10.00">/System.cpp</text>
</a>
</g>
</g>
<!-- Node4&#45;&gt;Node11 -->
<g id="edge10" class="edge">
<title>Node4&#45;&gt;Node11</title>
<path fill="none" stroke="midnightblue" d="M979.86,-149.78C991.37,-139.84 1004.25,-128.72 1014.91,-119.51"/>
<polygon fill="midnightblue" stroke="midnightblue" points="977.44,-147.24 972.16,-156.43 982.02,-152.54 977.44,-147.24"/>
</g>
<!-- Node6 -->
<g id="node6" class="node">
<title>Node6</title>
<g id="a_node6"><a xlink:href="_draw_8cpp.html" target="_top" xlink:title=" ">
<polygon fill="none" stroke="black" points="430.5,-0.5 430.5,-41.5 588.5,-41.5 588.5,-0.5 430.5,-0.5"/>
<text text-anchor="start" x="438.5" y="-29.5" font-family="Helvetica,sans-Serif" font-size="10.00">/home/runner/work/Simulatio</text>
<text text-anchor="start" x="438.5" y="-18.5" font-family="Helvetica,sans-Serif" font-size="10.00">/Simulatio/src/Renderer</text>
<text text-anchor="middle" x="509.5" y="-7.5" font-family="Helvetica,sans-Serif" font-size="10.00">/Draw.cpp</text>
</a>
</g>
</g>
<!-- Node5&#45;&gt;Node6 -->
<g id="edge5" class="edge">
<title>Node5&#45;&gt;Node6</title>
<path fill="none" stroke="midnightblue" d="M772.26,-79.41C721.08,-68.66 655.63,-54.77 597.5,-42 594.59,-41.36 591.63,-40.71 588.64,-40.04"/>
<polygon fill="midnightblue" stroke="midnightblue" points="771.8,-82.88 782.3,-81.51 773.24,-76.03 771.8,-82.88"/>
</g>
<!-- Node7 -->
<g id="node7" class="node">
<title>Node7</title>
<g id="a_node7"><a xlink:href="_event_8cpp.html" target="_top" xlink:title=" ">
<polygon fill="none" stroke="black" points="606.5,-0.5 606.5,-41.5 764.5,-41.5 764.5,-0.5 606.5,-0.5"/>
<text text-anchor="start" x="614.5" y="-29.5" font-family="Helvetica,sans-Serif" font-size="10.00">/home/runner/work/Simulatio</text>
<text text-anchor="start" x="614.5" y="-18.5" font-family="Helvetica,sans-Serif" font-size="10.00">/Simulatio/src/Renderer</text>
<text text-anchor="middle" x="685.5" y="-7.5" font-family="Helvetica,sans-Serif" font-size="10.00">/Event.cpp</text>
</a>
</g>
</g>
<!-- Node5&#45;&gt;Node7 -->
<g id="edge6" class="edge">
<title>Node5&#45;&gt;Node7</title>
<path fill="none" stroke="midnightblue" d="M806.68,-74.33C782.26,-63.78 753.85,-51.51 730.67,-41.51"/>
<polygon fill="midnightblue" stroke="midnightblue" points="805.61,-77.68 816.18,-78.43 808.38,-71.25 805.61,-77.68"/>
</g>
<!-- Node8 -->
<g id="node8" class="node">
<title>Node8</title>
<g id="a_node8"><a xlink:href="_gui_8cpp.html" target="_top" xlink:title=" ">
<polygon fill="none" stroke="black" points="782.5,-0.5 782.5,-41.5 940.5,-41.5 940.5,-0.5 782.5,-0.5"/>
<text text-anchor="start" x="790.5" y="-29.5" font-family="Helvetica,sans-Serif" font-size="10.00">/home/runner/work/Simulatio</text>
<text text-anchor="start" x="790.5" y="-18.5" font-family="Helvetica,sans-Serif" font-size="10.00">/Simulatio/src/Renderer</text>
<text text-anchor="middle" x="861.5" y="-7.5" font-family="Helvetica,sans-Serif" font-size="10.00">/Gui.cpp</text>
</a>
</g>
</g>
<!-- Node5&#45;&gt;Node8 -->
<g id="edge7" class="edge">
<title>Node5&#45;&gt;Node8</title>
<path fill="none" stroke="midnightblue" d="M861.5,-68.3C861.5,-59.3 861.5,-49.65 861.5,-41.51"/>
<polygon fill="midnightblue" stroke="midnightblue" points="858,-68.43 861.5,-78.43 865,-68.43 858,-68.43"/>
</g>
<!-- Node9 -->
<g id="node9" class="node">
<title>Node9</title>
<g id="a_node9"><a xlink:href="_renderer_8cpp.html" target="_top" xlink:title=" ">
<polygon fill="none" stroke="black" points="958.5,-0.5 958.5,-41.5 1116.5,-41.5 1116.5,-0.5 958.5,-0.5"/>
<text text-anchor="start" x="966.5" y="-29.5" font-family="Helvetica,sans-Serif" font-size="10.00">/home/runner/work/Simulatio</text>
<text text-anchor="start" x="966.5" y="-18.5" font-family="Helvetica,sans-Serif" font-size="10.00">/Simulatio/src/Renderer</text>
<text text-anchor="middle" x="1037.5" y="-7.5" font-family="Helvetica,sans-Serif" font-size="10.00">/Renderer.cpp</text>
</a>
</g>
</g>
<!-- Node5&#45;&gt;Node9 -->
<g id="edge8" class="edge">
<title>Node5&#45;&gt;Node9</title>
<path fill="none" stroke="midnightblue" d="M916.32,-74.33C940.74,-63.78 969.15,-51.51 992.33,-41.51"/>
<polygon fill="midnightblue" stroke="midnightblue" points="914.62,-71.25 906.82,-78.43 917.39,-77.68 914.62,-71.25"/>
</g>
<!-- Node10 -->
<g id="node10" class="node">
<title>Node10</title>
<g id="a_node10"><a xlink:href="main_8cpp.html" target="_top" xlink:title=" ">
<polygon fill="none" stroke="black" points="1134,-6 1134,-36 1293,-36 1293,-6 1134,-6"/>
<text text-anchor="start" x="1142" y="-24" font-family="Helvetica,sans-Serif" font-size="10.00">/home/runner/work/Simulatio</text>
<text text-anchor="middle" x="1213.5" y="-13" font-family="Helvetica,sans-Serif" font-size="10.00">/Simulatio/src/main/main.cpp</text>
</a>
</g>
</g>
<!-- Node5&#45;&gt;Node10 -->
<g id="edge9" class="edge">
<title>Node5&#45;&gt;Node10</title>
<path fill="none" stroke="midnightblue" d="M950.52,-77.8C1029.19,-60.95 1050.5,-58.19 1125.5,-42 1134.23,-40.12 1143.43,-38.08 1152.47,-36.05"/>
<polygon fill="midnightblue" stroke="midnightblue" points="949.68,-74.4 940.64,-79.93 951.15,-81.25 949.68,-74.4"/>
</g>
<!-- Node14 -->
<g id="node14" class="node">
<title>Node14</title>
<g id="a_node14"><a xlink:href="_loose_8cpp.html" target="_top" xlink:title=" ">
<polygon fill="none" stroke="black" points="2.5,-156.5 2.5,-197.5 160.5,-197.5 160.5,-156.5 2.5,-156.5"/>
<text text-anchor="start" x="10.5" y="-185.5" font-family="Helvetica,sans-Serif" font-size="10.00">/home/runner/work/Simulatio</text>
<text text-anchor="start" x="10.5" y="-174.5" font-family="Helvetica,sans-Serif" font-size="10.00">/Simulatio/src/Constraints</text>
<text text-anchor="middle" x="81.5" y="-163.5" font-family="Helvetica,sans-Serif" font-size="10.00">/Loose.cpp</text>
</a>
</g>
</g>
<!-- Node13&#45;&gt;Node14 -->
<g id="edge13" class="edge">
<title>Node13&#45;&gt;Node14</title>
<path fill="none" stroke="midnightblue" d="M81.5,-224.3C81.5,-215.3 81.5,-205.65 81.5,-197.51"/>
<polygon fill="midnightblue" stroke="midnightblue" points="78,-224.43 81.5,-234.43 85,-224.43 78,-224.43"/>
</g>
<!-- Node15&#45;&gt;Node4 -->
<g id="edge15" class="edge">
<title>Node15&#45;&gt;Node4</title>
<path fill="none" stroke="midnightblue" d="M354.43,-233.83C578.72,-202.17 640.45,-230.74 861.5,-198 864.44,-197.56 867.44,-197.08 870.45,-196.56"/>
<polygon fill="midnightblue" stroke="midnightblue" points="353.72,-230.39 344.32,-235.28 354.72,-237.32 353.72,-230.39"/>
</g>
<!-- Node16 -->
<g id="node16" class="node">
<title>Node16</title>
<g id="a_node16"><a xlink:href="_slider_8cpp.html" target="_top" xlink:title=" ">
<polygon fill="none" stroke="black" points="183.5,-156.5 183.5,-197.5 341.5,-197.5 341.5,-156.5 183.5,-156.5"/>
<text text-anchor="start" x="191.5" y="-185.5" font-family="Helvetica,sans-Serif" font-size="10.00">/home/runner/work/Simulatio</text>
<text text-anchor="start" x="191.5" y="-174.5" font-family="Helvetica,sans-Serif" font-size="10.00">/Simulatio/src/Constraints</text>
<text text-anchor="middle" x="262.5" y="-163.5" font-family="Helvetica,sans-Serif" font-size="10.00">/Slider.cpp</text>
</a>
</g>
</g>
<!-- Node15&#45;&gt;Node16 -->
<g id="edge16" class="edge">
<title>Node15&#45;&gt;Node16</title>
<path fill="none" stroke="midnightblue" d="M262.5,-224.3C262.5,-215.3 262.5,-205.65 262.5,-197.51"/>
<polygon fill="midnightblue" stroke="midnightblue" points="259,-224.43 262.5,-234.43 266,-224.43 259,-224.43"/>
</g>
<!-- Node17&#45;&gt;Node4 -->
<g id="edge18" class="edge">
<title>Node17&#45;&gt;Node4</title>
<path fill="none" stroke="midnightblue" d="M535.44,-233.95C680.56,-210.79 720.55,-221.7 861.5,-198 864.44,-197.51 867.42,-196.98 870.43,-196.42"/>
<polygon fill="midnightblue" stroke="midnightblue" points="534.58,-230.54 525.27,-235.6 535.7,-237.45 534.58,-230.54"/>
</g>
<!-- Node18 -->
<g id="node18" class="node">
<title>Node18</title>
<g id="a_node18"><a xlink:href="_spring_8cpp.html" target="_top" xlink:title=" ">
<polygon fill="none" stroke="black" points="364.5,-156.5 364.5,-197.5 522.5,-197.5 522.5,-156.5 364.5,-156.5"/>
<text text-anchor="start" x="372.5" y="-185.5" font-family="Helvetica,sans-Serif" font-size="10.00">/home/runner/work/Simulatio</text>
<text text-anchor="start" x="372.5" y="-174.5" font-family="Helvetica,sans-Serif" font-size="10.00">/Simulatio/src/Constraints</text>
<text text-anchor="middle" x="443.5" y="-163.5" font-family="Helvetica,sans-Serif" font-size="10.00">/Spring.cpp</text>
</a>
</g>
</g>
<!-- Node17&#45;&gt;Node18 -->
<g id="edge19" class="edge">
<title>Node17&#45;&gt;Node18</title>
<path fill="none" stroke="midnightblue" d="M443.5,-224.3C443.5,-215.3 443.5,-205.65 443.5,-197.51"/>
<polygon fill="midnightblue" stroke="midnightblue" points="440,-224.43 443.5,-234.43 447,-224.43 440,-224.43"/>
</g>
<!-- Node20&#45;&gt;Node1 -->
<g id="edge24" class="edge">
<title>Node20&#45;&gt;Node1</title>
<path fill="none" stroke="midnightblue" d="M1321.51,-437.29C1336.37,-447.44 1352.43,-458.94 1364.93,-468.43"/>
<polygon fill="midnightblue" stroke="midnightblue" points="1323.19,-434.2 1312.94,-431.51 1319.27,-440 1323.19,-434.2"/>
</g>
<!-- Node20&#45;&gt;Node2 -->
<g id="edge23" class="edge">
<title>Node20&#45;&gt;Node2</title>
<path fill="none" stroke="midnightblue" d="M1190.22,-397.17C1090.17,-382.8 929.35,-359.69 832.42,-345.77"/>
<polygon fill="midnightblue" stroke="midnightblue" points="1189.91,-400.66 1200.3,-398.62 1190.9,-393.74 1189.91,-400.66"/>
</g>
<!-- Node20&#45;&gt;Node4 -->
<g id="edge35" class="edge">
<title>Node20&#45;&gt;Node4</title>
<path fill="none" stroke="midnightblue" d="M1190.74,-393.97C1169.16,-385.68 1148.56,-373.09 1135.5,-354 1105.3,-309.86 1176.68,-276.72 1144.5,-234 1130.12,-214.9 1076.15,-200.31 1028.63,-190.82"/>
<polygon fill="midnightblue" stroke="midnightblue" points="1189.77,-397.34 1200.37,-397.38 1192.11,-390.74 1189.77,-397.34"/>
</g>
<!-- Node20&#45;&gt;Node21 -->
<g id="edge25" class="edge">
<title>Node20&#45;&gt;Node21</title>
<path fill="none" stroke="midnightblue" d="M1200.34,-387.72C1161.81,-376.87 1115.92,-363.96 1078.8,-353.51"/>
<polygon fill="midnightblue" stroke="midnightblue" points="1199.39,-391.09 1209.97,-390.43 1201.29,-384.35 1199.39,-391.09"/>
</g>
<!-- Node20&#45;&gt;Node23 -->
<g id="edge28" class="edge">
<title>Node20&#45;&gt;Node23</title>
<path fill="none" stroke="midnightblue" d="M1368.38,-394.49C1428.63,-383.73 1510.01,-368.74 1581.5,-354 1584.42,-353.4 1587.38,-352.78 1590.38,-352.14"/>
<polygon fill="midnightblue" stroke="midnightblue" points="1367.75,-391.04 1358.52,-396.24 1368.98,-397.94 1367.75,-391.04"/>
</g>
<!-- Node20&#45;&gt;Node25 -->
<g id="edge30" class="edge">
<title>Node20&#45;&gt;Node25</title>
<path fill="none" stroke="midnightblue" d="M1344.19,-387.03C1374.31,-376.33 1409.77,-363.73 1438.58,-353.51"/>
<polygon fill="midnightblue" stroke="midnightblue" points="1342.86,-383.78 1334.61,-390.43 1345.21,-390.38 1342.86,-383.78"/>
</g>
<!-- Node20&#45;&gt;Node26 -->
<g id="edge34" class="edge">
<title>Node20&#45;&gt;Node26</title>
<path fill="none" stroke="midnightblue" d="M1310.54,-383.16C1318.22,-374.69 1325.41,-364.72 1329.5,-354 1339.34,-328.22 1332.05,-296.1 1325.29,-275.82"/>
<polygon fill="midnightblue" stroke="midnightblue" points="1307.88,-380.88 1303.43,-390.49 1312.91,-385.75 1307.88,-380.88"/>
</g>
<!-- Node28 -->
<g id="node28" class="node">
<title>Node28</title>
<g id="a_node28"><a xlink:href="_circle_8cpp.html" target="_top" xlink:title=" ">
<polygon fill="none" stroke="black" points="1144.5,-318 1144.5,-348 1320.5,-348 1320.5,-318 1144.5,-318"/>
<text text-anchor="start" x="1152.5" y="-336" font-family="Helvetica,sans-Serif" font-size="10.00">/home/runner/work/Simulatio</text>
<text text-anchor="middle" x="1232.5" y="-325" font-family="Helvetica,sans-Serif" font-size="10.00">/Simulatio/src/Corpses/Circle.cpp</text>
</a>
</g>
</g>
<!-- Node20&#45;&gt;Node28 -->
<g id="edge36" class="edge">
<title>Node20&#45;&gt;Node28</title>
<path fill="none" stroke="midnightblue" d="M1261.96,-381.64C1254.92,-370.25 1247.11,-357.62 1241.3,-348.23"/>
<polygon fill="midnightblue" stroke="midnightblue" points="1259.16,-383.76 1267.4,-390.43 1265.11,-380.08 1259.16,-383.76"/>
</g>
<!-- Node21&#45;&gt;Node4 -->
<g id="edge26" class="edge">
<title>Node21&#45;&gt;Node4</title>
<path fill="none" stroke="midnightblue" d="M985.45,-304.22C979.09,-295.65 972.8,-285.86 968.5,-276 957.26,-250.27 952.64,-217.86 950.76,-197.53"/>
<polygon fill="midnightblue" stroke="midnightblue" points="982.87,-306.6 991.77,-312.34 988.4,-302.3 982.87,-306.6"/>
</g>
<!-- Node22 -->
<g id="node22" class="node">
<title>Node22</title>
<g id="a_node22"><a xlink:href="_collision_8cpp.html" target="_top" xlink:title=" ">
<polygon fill="none" stroke="black" points="977.5,-234.5 977.5,-275.5 1135.5,-275.5 1135.5,-234.5 977.5,-234.5"/>
<text text-anchor="start" x="985.5" y="-263.5" font-family="Helvetica,sans-Serif" font-size="10.00">/home/runner/work/Simulatio</text>
<text text-anchor="start" x="985.5" y="-252.5" font-family="Helvetica,sans-Serif" font-size="10.00">/Simulatio/src/Geometry</text>
<text text-anchor="middle" x="1056.5" y="-241.5" font-family="Helvetica,sans-Serif" font-size="10.00">/Collision.cpp</text>
</a>
</g>
</g>
<!-- Node21&#45;&gt;Node22 -->
<g id="edge27" class="edge">
<title>Node21&#45;&gt;Node22</title>
<path fill="none" stroke="midnightblue" d="M1026.97,-303.76C1032.78,-294.35 1039.12,-284.1 1044.44,-275.51"/>
<polygon fill="midnightblue" stroke="midnightblue" points="1023.89,-302.08 1021.6,-312.43 1029.84,-305.76 1023.89,-302.08"/>
</g>
<!-- Node24 -->
<g id="node24" class="node">
<title>Node24</title>
<g id="a_node24"><a xlink:href="_old_quadtree_8cpp.html" target="_top" xlink:title=" ">
<polygon fill="none" stroke="black" points="1590.5,-234.5 1590.5,-275.5 1748.5,-275.5 1748.5,-234.5 1590.5,-234.5"/>
<text text-anchor="start" x="1598.5" y="-263.5" font-family="Helvetica,sans-Serif" font-size="10.00">/home/runner/work/Simulatio</text>
<text text-anchor="start" x="1598.5" y="-252.5" font-family="Helvetica,sans-Serif" font-size="10.00">/Simulatio/src/Structures</text>
<text text-anchor="middle" x="1669.5" y="-241.5" font-family="Helvetica,sans-Serif" font-size="10.00">/OldQuadtree.cpp</text>
</a>
</g>
</g>
<!-- Node23&#45;&gt;Node24 -->
<g id="edge29" class="edge">
<title>Node23&#45;&gt;Node24</title>
<path fill="none" stroke="midnightblue" d="M1669.5,-302.3C1669.5,-293.3 1669.5,-283.65 1669.5,-275.51"/>
<polygon fill="midnightblue" stroke="midnightblue" points="1666,-302.43 1669.5,-312.43 1673,-302.43 1666,-302.43"/>
</g>
<!-- Node25&#45;&gt;Node26 -->
<g id="edge31" class="edge">
<title>Node25&#45;&gt;Node26</title>
<path fill="none" stroke="midnightblue" d="M1438.68,-308.33C1414.26,-297.78 1385.85,-285.51 1362.67,-275.51"/>
<polygon fill="midnightblue" stroke="midnightblue" points="1437.61,-311.68 1448.18,-312.43 1440.38,-305.25 1437.61,-311.68"/>
</g>
<!-- Node27 -->
<g id="node27" class="node">
<title>Node27</title>
<g id="a_node27"><a xlink:href="_quad_node_8cpp.html" target="_top" xlink:title=" ">
<polygon fill="none" stroke="black" points="1414.5,-234.5 1414.5,-275.5 1572.5,-275.5 1572.5,-234.5 1414.5,-234.5"/>
<text text-anchor="start" x="1422.5" y="-263.5" font-family="Helvetica,sans-Serif" font-size="10.00">/home/runner/work/Simulatio</text>
<text text-anchor="start" x="1422.5" y="-252.5" font-family="Helvetica,sans-Serif" font-size="10.00">/Simulatio/src/Structures</text>
<text text-anchor="middle" x="1493.5" y="-241.5" font-family="Helvetica,sans-Serif" font-size="10.00">/QuadNode.cpp</text>
</a>
</g>
</g>
<!-- Node25&#45;&gt;Node27 -->
<g id="edge33" class="edge">
<title>Node25&#45;&gt;Node27</title>
<path fill="none" stroke="midnightblue" d="M1493.5,-302.3C1493.5,-293.3 1493.5,-283.65 1493.5,-275.51"/>
<polygon fill="midnightblue" stroke="midnightblue" points="1490,-302.43 1493.5,-312.43 1497,-302.43 1490,-302.43"/>
</g>
<!-- Node26&#45;&gt;Node4 -->
<g id="edge32" class="edge">
<title>Node26&#45;&gt;Node4</title>
<path fill="none" stroke="midnightblue" d="M1228.12,-235.54C1167.24,-222.97 1087.36,-206.47 1028.76,-194.37"/>
<polygon fill="midnightblue" stroke="midnightblue" points="1227.6,-239.01 1238.1,-237.6 1229.02,-232.15 1227.6,-239.01"/>
</g>
</g>
</svg>
