<?xml version="1.0" encoding="UTF-8" standalone="no"?>
<!DOCTYPE svg PUBLIC "-//W3C//DTD SVG 1.1//EN"
 "http://www.w3.org/Graphics/SVG/1.1/DTD/svg11.dtd">
<!-- Generated by graphviz version 2.43.0 (0)
 -->
<!-- Title: /home/runner/work/Simulatio/Simulatio/include/Corpses/Polygon.hpp Pages: 1 -->
<svg width="1236pt" height="440pt"
 viewBox="0.00 0.00 1236.26 440.00" xmlns="http://www.w3.org/2000/svg" xmlns:xlink="http://www.w3.org/1999/xlink">
<g id="graph0" class="graph" transform="scale(1 1) rotate(0) translate(4 436)">
<title>/home/runner/work/Simulatio/Simulatio/include/Corpses/Polygon.hpp</title>
<!-- Node1 -->
<g id="node1" class="node">
<title>Node1</title>
<g id="a_node1"><a xlink:title=" ">
<polygon fill="#bfbfbf" stroke="black" points="803.4,-390.5 803.4,-431.5 961.4,-431.5 961.4,-390.5 803.4,-390.5"/>
<text text-anchor="start" x="811.4" y="-419.5" font-family="Helvetica,sans-Serif" font-size="10.00">/home/runner/work/Simulatio</text>
<text text-anchor="start" x="811.4" y="-408.5" font-family="Helvetica,sans-Serif" font-size="10.00">/Simulatio/include/Corpses</text>
<text text-anchor="middle" x="882.4" y="-397.5" font-family="Helvetica,sans-Serif" font-size="10.00">/Polygon.hpp</text>
</a>
</g>
</g>
<!-- Node2 -->
<g id="node2" class="node">
<title>Node2</title>
<g id="a_node2"><a xlink:href="_constraint_8hpp.html" target="_top" xlink:title=" ">
<polygon fill="none" stroke="black" points="380.9,-234.5 380.9,-275.5 543.9,-275.5 543.9,-234.5 380.9,-234.5"/>
<text text-anchor="start" x="388.9" y="-263.5" font-family="Helvetica,sans-Serif" font-size="10.00">/home/runner/work/Simulatio</text>
<text text-anchor="start" x="388.9" y="-252.5" font-family="Helvetica,sans-Serif" font-size="10.00">/Simulatio/include/Constraints</text>
<text text-anchor="middle" x="462.4" y="-241.5" font-family="Helvetica,sans-Serif" font-size="10.00">/Constraint.hpp</text>
</a>
</g>
</g>
<!-- Node1&#45;&gt;Node2 -->
<g id="edge1" class="edge">
<title>Node1&#45;&gt;Node2</title>
<path fill="none" stroke="midnightblue" d="M806.83,-387.49C775.29,-377.74 738.39,-365.85 705.4,-354 635.83,-329.01 556.67,-296.26 508.13,-275.67"/>
<polygon fill="midnightblue" stroke="midnightblue" points="805.84,-390.85 816.43,-390.45 807.9,-384.16 805.84,-390.85"/>
</g>
<!-- Node4 -->
<g id="node4" class="node">
<title>Node4</title>
<g id="a_node4"><a xlink:href="_system_8hpp.html" target="_top" xlink:title=" ">
<polygon fill="none" stroke="black" points="619.4,-78.5 619.4,-119.5 777.4,-119.5 777.4,-78.5 619.4,-78.5"/>
<text text-anchor="start" x="627.4" y="-107.5" font-family="Helvetica,sans-Serif" font-size="10.00">/home/runner/work/Simulatio</text>
<text text-anchor="start" x="627.4" y="-96.5" font-family="Helvetica,sans-Serif" font-size="10.00">/Simulatio/include/Structures</text>
<text text-anchor="middle" x="698.4" y="-85.5" font-family="Helvetica,sans-Serif" font-size="10.00">/System.hpp</text>
</a>
</g>
</g>
<!-- Node1&#45;&gt;Node4 -->
<g id="edge26" class="edge">
<title>Node1&#45;&gt;Node4</title>
<path fill="none" stroke="midnightblue" d="M971.63,-406.18C1026.96,-400.38 1097.69,-386.54 1152.4,-354 1204.71,-322.89 1247.93,-287.23 1218.4,-234 1186.63,-176.74 1154.93,-178.41 1093.4,-156 988.46,-117.77 859,-105.48 777.55,-101.62"/>
<polygon fill="midnightblue" stroke="midnightblue" points="971.09,-402.71 961.48,-407.17 971.77,-409.68 971.09,-402.71"/>
</g>
<!-- Node9 -->
<g id="node9" class="node">
<title>Node9</title>
<g id="a_node9"><a xlink:href="_circle_8hpp.html" target="_top" xlink:title=" ">
<polygon fill="none" stroke="black" points="750.4,-312.5 750.4,-353.5 908.4,-353.5 908.4,-312.5 750.4,-312.5"/>
<text text-anchor="start" x="758.4" y="-341.5" font-family="Helvetica,sans-Serif" font-size="10.00">/home/runner/work/Simulatio</text>
<text text-anchor="start" x="758.4" y="-330.5" font-family="Helvetica,sans-Serif" font-size="10.00">/Simulatio/include/Corpses</text>
<text text-anchor="middle" x="829.4" y="-319.5" font-family="Helvetica,sans-Serif" font-size="10.00">/Circle.hpp</text>
</a>
</g>
</g>
<!-- Node1&#45;&gt;Node9 -->
<g id="edge11" class="edge">
<title>Node1&#45;&gt;Node9</title>
<path fill="none" stroke="midnightblue" d="M856.59,-382.34C849.49,-372.78 842.34,-362.27 837.02,-353.51"/>
<polygon fill="midnightblue" stroke="midnightblue" points="853.91,-384.6 862.76,-390.43 859.48,-380.36 853.91,-384.6"/>
</g>
<!-- Node10 -->
<g id="node10" class="node">
<title>Node10</title>
<g id="a_node10"><a xlink:href="_collision_8hpp.html" target="_top" xlink:title=" ">
<polygon fill="none" stroke="black" points="605.4,-234.5 605.4,-275.5 763.4,-275.5 763.4,-234.5 605.4,-234.5"/>
<text text-anchor="start" x="613.4" y="-263.5" font-family="Helvetica,sans-Serif" font-size="10.00">/home/runner/work/Simulatio</text>
<text text-anchor="start" x="613.4" y="-252.5" font-family="Helvetica,sans-Serif" font-size="10.00">/Simulatio/include/Geometry</text>
<text text-anchor="middle" x="684.4" y="-241.5" font-family="Helvetica,sans-Serif" font-size="10.00">/Collision.hpp</text>
</a>
</g>
</g>
<!-- Node1&#45;&gt;Node10 -->
<g id="edge22" class="edge">
<title>Node1&#45;&gt;Node10</title>
<path fill="none" stroke="midnightblue" d="M797.27,-386.7C777.48,-378.57 757.51,-367.87 741.4,-354 716.49,-332.55 699.83,-297.38 691.25,-275.52"/>
<polygon fill="midnightblue" stroke="midnightblue" points="796.05,-389.99 806.64,-390.38 798.61,-383.47 796.05,-389.99"/>
</g>
<!-- Node11 -->
<g id="node11" class="node">
<title>Node11</title>
<g id="a_node11"><a xlink:href="_old_quadtree_8hpp.html" target="_top" xlink:title=" ">
<polygon fill="none" stroke="black" points="857.4,-234.5 857.4,-275.5 1015.4,-275.5 1015.4,-234.5 857.4,-234.5"/>
<text text-anchor="start" x="865.4" y="-263.5" font-family="Helvetica,sans-Serif" font-size="10.00">/home/runner/work/Simulatio</text>
<text text-anchor="start" x="865.4" y="-252.5" font-family="Helvetica,sans-Serif" font-size="10.00">/Simulatio/include/Structures</text>
<text text-anchor="middle" x="936.4" y="-241.5" font-family="Helvetica,sans-Serif" font-size="10.00">/OldQuadtree.hpp</text>
</a>
</g>
</g>
<!-- Node1&#45;&gt;Node11 -->
<g id="edge23" class="edge">
<title>Node1&#45;&gt;Node11</title>
<path fill="none" stroke="midnightblue" d="M902.73,-381.95C908.2,-373.33 913.63,-363.58 917.4,-354 927.62,-328.04 932.5,-295.97 934.71,-275.74"/>
<polygon fill="midnightblue" stroke="midnightblue" points="899.69,-380.2 897.09,-390.47 905.53,-384.07 899.69,-380.2"/>
</g>
<!-- Node12 -->
<g id="node12" class="node">
<title>Node12</title>
<g id="a_node12"><a xlink:href="_quad_node_8hpp.html" target="_top" xlink:title=" ">
<polygon fill="none" stroke="black" points="1033.4,-234.5 1033.4,-275.5 1191.4,-275.5 1191.4,-234.5 1033.4,-234.5"/>
<text text-anchor="start" x="1041.4" y="-263.5" font-family="Helvetica,sans-Serif" font-size="10.00">/home/runner/work/Simulatio</text>
<text text-anchor="start" x="1041.4" y="-252.5" font-family="Helvetica,sans-Serif" font-size="10.00">/Simulatio/include/Structures</text>
<text text-anchor="middle" x="1112.4" y="-241.5" font-family="Helvetica,sans-Serif" font-size="10.00">/QuadNode.hpp</text>
</a>
</g>
</g>
<!-- Node1&#45;&gt;Node12 -->
<g id="edge24" class="edge">
<title>Node1&#45;&gt;Node12</title>
<path fill="none" stroke="midnightblue" d="M919.96,-384.85C965.59,-354.3 1041.62,-303.39 1083.14,-275.59"/>
<polygon fill="midnightblue" stroke="midnightblue" points="917.89,-382.02 911.53,-390.5 921.79,-387.84 917.89,-382.02"/>
</g>
<!-- Node13 -->
<g id="node13" class="node">
<title>Node13</title>
<g id="a_node13"><a xlink:href="_quadtree_8hpp.html" target="_top" xlink:title=" ">
<polygon fill="none" stroke="black" points="926.4,-156.5 926.4,-197.5 1084.4,-197.5 1084.4,-156.5 926.4,-156.5"/>
<text text-anchor="start" x="934.4" y="-185.5" font-family="Helvetica,sans-Serif" font-size="10.00">/home/runner/work/Simulatio</text>
<text text-anchor="start" x="934.4" y="-174.5" font-family="Helvetica,sans-Serif" font-size="10.00">/Simulatio/include/Structures</text>
<text text-anchor="middle" x="1005.4" y="-163.5" font-family="Helvetica,sans-Serif" font-size="10.00">/Quadtree.hpp</text>
</a>
</g>
</g>
<!-- Node1&#45;&gt;Node13 -->
<g id="edge25" class="edge">
<title>Node1&#45;&gt;Node13</title>
<path fill="none" stroke="midnightblue" d="M971.67,-399.3C1046.82,-385.06 1149.9,-352.07 1200.4,-276 1210.72,-260.45 1211.63,-248.91 1200.4,-234 1186.02,-214.9 1132.05,-200.31 1084.53,-190.82"/>
<polygon fill="midnightblue" stroke="midnightblue" points="970.93,-395.88 961.72,-401.11 972.18,-402.77 970.93,-395.88"/>
</g>
<!-- Node3 -->
<g id="node3" class="node">
<title>Node3</title>
<g id="a_node3"><a xlink:href="_link_8hpp.html" target="_top" xlink:title=" ">
<polygon fill="none" stroke="black" points="18.9,-156.5 18.9,-197.5 181.9,-197.5 181.9,-156.5 18.9,-156.5"/>
<text text-anchor="start" x="26.9" y="-185.5" font-family="Helvetica,sans-Serif" font-size="10.00">/home/runner/work/Simulatio</text>
<text text-anchor="start" x="26.9" y="-174.5" font-family="Helvetica,sans-Serif" font-size="10.00">/Simulatio/include/Constraints</text>
<text text-anchor="middle" x="100.4" y="-163.5" font-family="Helvetica,sans-Serif" font-size="10.00">/Link.hpp</text>
</a>
</g>
</g>
<!-- Node2&#45;&gt;Node3 -->
<g id="edge2" class="edge">
<title>Node2&#45;&gt;Node3</title>
<path fill="none" stroke="midnightblue" d="M370.78,-235.51C318,-224.76 250.41,-210.85 190.4,-198 187.74,-197.43 185.03,-196.85 182.3,-196.26"/>
<polygon fill="midnightblue" stroke="midnightblue" points="370.3,-238.98 380.8,-237.55 371.7,-232.12 370.3,-238.98"/>
</g>
<!-- Node2&#45;&gt;Node4 -->
<g id="edge10" class="edge">
<title>Node2&#45;&gt;Node4</title>
<path fill="none" stroke="midnightblue" d="M370.79,-249.08C245.35,-241.39 32.91,-224.59 9.4,-198 -2.96,-184.01 -3.25,-169.72 9.4,-156 50.02,-111.94 446.73,-102.54 619.11,-100.54"/>
<polygon fill="midnightblue" stroke="midnightblue" points="370.59,-252.57 380.79,-249.68 371.02,-245.59 370.59,-252.57"/>
</g>
<!-- Node6 -->
<g id="node6" class="node">
<title>Node6</title>
<g id="a_node6"><a xlink:href="_loose_8hpp.html" target="_top" xlink:title=" ">
<polygon fill="none" stroke="black" points="380.9,-156.5 380.9,-197.5 543.9,-197.5 543.9,-156.5 380.9,-156.5"/>
<text text-anchor="start" x="388.9" y="-185.5" font-family="Helvetica,sans-Serif" font-size="10.00">/home/runner/work/Simulatio</text>
<text text-anchor="start" x="388.9" y="-174.5" font-family="Helvetica,sans-Serif" font-size="10.00">/Simulatio/include/Constraints</text>
<text text-anchor="middle" x="462.4" y="-163.5" font-family="Helvetica,sans-Serif" font-size="10.00">/Loose.hpp</text>
</a>
</g>
</g>
<!-- Node2&#45;&gt;Node6 -->
<g id="edge5" class="edge">
<title>Node2&#45;&gt;Node6</title>
<path fill="none" stroke="midnightblue" d="M462.4,-224.3C462.4,-215.3 462.4,-205.65 462.4,-197.51"/>
<polygon fill="midnightblue" stroke="midnightblue" points="458.9,-224.43 462.4,-234.43 465.9,-224.43 458.9,-224.43"/>
</g>
<!-- Node7 -->
<g id="node7" class="node">
<title>Node7</title>
<g id="a_node7"><a xlink:href="_slider_8hpp.html" target="_top" xlink:title=" ">
<polygon fill="none" stroke="black" points="199.9,-156.5 199.9,-197.5 362.9,-197.5 362.9,-156.5 199.9,-156.5"/>
<text text-anchor="start" x="207.9" y="-185.5" font-family="Helvetica,sans-Serif" font-size="10.00">/home/runner/work/Simulatio</text>
<text text-anchor="start" x="207.9" y="-174.5" font-family="Helvetica,sans-Serif" font-size="10.00">/Simulatio/include/Constraints</text>
<text text-anchor="middle" x="281.4" y="-163.5" font-family="Helvetica,sans-Serif" font-size="10.00">/Slider.hpp</text>
</a>
</g>
</g>
<!-- Node2&#45;&gt;Node7 -->
<g id="edge6" class="edge">
<title>Node2&#45;&gt;Node7</title>
<path fill="none" stroke="midnightblue" d="M406.36,-230.47C381.17,-219.89 351.79,-207.56 327.85,-197.51"/>
<polygon fill="midnightblue" stroke="midnightblue" points="405.21,-233.78 415.79,-234.43 407.92,-227.33 405.21,-233.78"/>
</g>
<!-- Node8 -->
<g id="node8" class="node">
<title>Node8</title>
<g id="a_node8"><a xlink:href="_spring_8hpp.html" target="_top" xlink:title=" ">
<polygon fill="none" stroke="black" points="561.9,-156.5 561.9,-197.5 724.9,-197.5 724.9,-156.5 561.9,-156.5"/>
<text text-anchor="start" x="569.9" y="-185.5" font-family="Helvetica,sans-Serif" font-size="10.00">/home/runner/work/Simulatio</text>
<text text-anchor="start" x="569.9" y="-174.5" font-family="Helvetica,sans-Serif" font-size="10.00">/Simulatio/include/Constraints</text>
<text text-anchor="middle" x="643.4" y="-163.5" font-family="Helvetica,sans-Serif" font-size="10.00">/Spring.hpp</text>
</a>
</g>
</g>
<!-- Node2&#45;&gt;Node8 -->
<g id="edge8" class="edge">
<title>Node2&#45;&gt;Node8</title>
<path fill="none" stroke="midnightblue" d="M518.44,-230.47C543.63,-219.89 573.01,-207.56 596.95,-197.51"/>
<polygon fill="midnightblue" stroke="midnightblue" points="516.88,-227.33 509.01,-234.43 519.59,-233.78 516.88,-227.33"/>
</g>
<!-- Node3&#45;&gt;Node4 -->
<g id="edge3" class="edge">
<title>Node3&#45;&gt;Node4</title>
<path fill="none" stroke="midnightblue" d="M192.51,-155.73C348.78,-130.3 521.19,-114.12 619.28,-106.04"/>
<polygon fill="midnightblue" stroke="midnightblue" points="191.54,-152.34 182.24,-157.42 192.68,-159.25 191.54,-152.34"/>
</g>
<!-- Node5 -->
<g id="node5" class="node">
<title>Node5</title>
<g id="a_node5"><a xlink:href="_renderer_8hpp.html" target="_top" xlink:title=" ">
<polygon fill="none" stroke="black" points="619.4,-0.5 619.4,-41.5 777.4,-41.5 777.4,-0.5 619.4,-0.5"/>
<text text-anchor="start" x="627.4" y="-29.5" font-family="Helvetica,sans-Serif" font-size="10.00">/home/runner/work/Simulatio</text>
<text text-anchor="start" x="627.4" y="-18.5" font-family="Helvetica,sans-Serif" font-size="10.00">/Simulatio/include/Renderer</text>
<text text-anchor="middle" x="698.4" y="-7.5" font-family="Helvetica,sans-Serif" font-size="10.00">/Renderer.hpp</text>
</a>
</g>
</g>
<!-- Node4&#45;&gt;Node5 -->
<g id="edge4" class="edge">
<title>Node4&#45;&gt;Node5</title>
<path fill="none" stroke="midnightblue" d="M698.4,-68.3C698.4,-59.3 698.4,-49.65 698.4,-41.51"/>
<polygon fill="midnightblue" stroke="midnightblue" points="694.9,-68.43 698.4,-78.43 701.9,-68.43 694.9,-68.43"/>
</g>
<!-- Node7&#45;&gt;Node4 -->
<g id="edge7" class="edge">
<title>Node7&#45;&gt;Node4</title>
<path fill="none" stroke="midnightblue" d="M373.32,-155.66C462.73,-138.25 555.29,-122.75 619.24,-112.44"/>
<polygon fill="midnightblue" stroke="midnightblue" points="372.42,-152.27 363.28,-157.63 373.77,-159.14 372.42,-152.27"/>
</g>
<!-- Node8&#45;&gt;Node4 -->
<g id="edge9" class="edge">
<title>Node8&#45;&gt;Node4</title>
<path fill="none" stroke="midnightblue" d="M663.63,-148.05C670.49,-138.57 678,-128.18 684.28,-119.51"/>
<polygon fill="midnightblue" stroke="midnightblue" points="660.59,-146.27 657.56,-156.43 666.26,-150.38 660.59,-146.27"/>
</g>
<!-- Node9&#45;&gt;Node1 -->
<g id="edge13" class="edge">
<title>Node9&#45;&gt;Node1</title>
<path fill="none" stroke="midnightblue" d="M855.16,-361.59C862.26,-371.15 869.41,-381.65 874.74,-390.43"/>
<polygon fill="midnightblue" stroke="midnightblue" points="857.84,-359.33 848.98,-353.51 852.27,-363.58 857.84,-359.33"/>
</g>
<!-- Node9&#45;&gt;Node2 -->
<g id="edge12" class="edge">
<title>Node9&#45;&gt;Node2</title>
<path fill="none" stroke="midnightblue" d="M740.4,-313.57C680.54,-301.17 602.23,-284.96 543.98,-272.89"/>
<polygon fill="midnightblue" stroke="midnightblue" points="739.72,-317 750.22,-315.6 741.14,-310.15 739.72,-317"/>
</g>
<!-- Node9&#45;&gt;Node4 -->
<g id="edge21" class="edge">
<title>Node9&#45;&gt;Node4</title>
<path fill="none" stroke="midnightblue" d="M819.71,-303C806.9,-266.85 782.19,-203.98 750.4,-156 741.68,-142.84 729.83,-129.81 719.64,-119.64"/>
<polygon fill="midnightblue" stroke="midnightblue" points="816.4,-304.16 823,-312.45 823.01,-301.86 816.4,-304.16"/>
</g>
<!-- Node9&#45;&gt;Node10 -->
<g id="edge14" class="edge">
<title>Node9&#45;&gt;Node10</title>
<path fill="none" stroke="midnightblue" d="M783.17,-307.77C763.29,-297.35 740.37,-285.34 721.61,-275.51"/>
<polygon fill="midnightblue" stroke="midnightblue" points="781.58,-310.89 792.06,-312.43 784.83,-304.69 781.58,-310.89"/>
</g>
<!-- Node9&#45;&gt;Node11 -->
<g id="edge16" class="edge">
<title>Node9&#45;&gt;Node11</title>
<path fill="none" stroke="midnightblue" d="M865.11,-306.64C879.4,-296.49 895.6,-284.98 908.94,-275.51"/>
<polygon fill="midnightblue" stroke="midnightblue" points="863.08,-303.78 856.95,-312.43 867.13,-309.49 863.08,-303.78"/>
</g>
<!-- Node9&#45;&gt;Node12 -->
<g id="edge17" class="edge">
<title>Node9&#45;&gt;Node12</title>
<path fill="none" stroke="midnightblue" d="M912.11,-309.79C952.55,-298.93 1000.77,-285.98 1039.77,-275.51"/>
<polygon fill="midnightblue" stroke="midnightblue" points="911.03,-306.45 902.28,-312.43 912.84,-313.21 911.03,-306.45"/>
</g>
<!-- Node9&#45;&gt;Node13 -->
<g id="edge20" class="edge">
<title>Node9&#45;&gt;Node13</title>
<path fill="none" stroke="midnightblue" d="M827.81,-302.11C828.27,-280.78 832.36,-252.67 848.4,-234 868.11,-211.06 897.89,-197.52 926.23,-189.53"/>
<polygon fill="midnightblue" stroke="midnightblue" points="824.31,-302.28 827.84,-312.27 831.31,-302.26 824.31,-302.28"/>
</g>
<!-- Node10&#45;&gt;Node4 -->
<g id="edge15" class="edge">
<title>Node10&#45;&gt;Node4</title>
<path fill="none" stroke="midnightblue" d="M714.83,-227.07C722.35,-218.6 729.4,-208.65 733.4,-198 739.96,-180.53 738.55,-173.94 733.4,-156 729.64,-142.89 721.81,-129.86 714.51,-119.68"/>
<polygon fill="midnightblue" stroke="midnightblue" points="712.21,-224.74 707.86,-234.41 717.29,-229.56 712.21,-224.74"/>
</g>
<!-- Node12&#45;&gt;Node13 -->
<g id="edge18" class="edge">
<title>Node12&#45;&gt;Node13</title>
<path fill="none" stroke="midnightblue" d="M1076.69,-228.64C1062.4,-218.49 1046.2,-206.98 1032.86,-197.51"/>
<polygon fill="midnightblue" stroke="midnightblue" points="1074.66,-231.49 1084.84,-234.43 1078.72,-225.78 1074.66,-231.49"/>
</g>
<!-- Node13&#45;&gt;Node4 -->
<g id="edge19" class="edge">
<title>Node13&#45;&gt;Node4</title>
<path fill="none" stroke="midnightblue" d="M916.51,-153.99C872.47,-143.09 819.76,-130.04 777.19,-119.51"/>
<polygon fill="midnightblue" stroke="midnightblue" points="915.79,-157.42 926.34,-156.43 917.47,-150.63 915.79,-157.42"/>
</g>
</g>
</svg>
