<?xml version="1.0" encoding="UTF-8" standalone="no"?>
<!DOCTYPE svg PUBLIC "-//W3C//DTD SVG 1.1//EN"
 "http://www.w3.org/Graphics/SVG/1.1/DTD/svg11.dtd">
<!-- Generated by graphviz version 2.43.0 (0)
 -->
<!-- Title: /home/runner/work/Simulatio/Simulatio/src/Corpses/Polygon.cpp Pages: 1 -->
<svg width="891pt" height="554pt"
 viewBox="0.00 0.00 891.00 554.00" xmlns="http://www.w3.org/2000/svg" xmlns:xlink="http://www.w3.org/1999/xlink">
<g id="graph0" class="graph" transform="scale(1 1) rotate(0) translate(4 550)">
<title>/home/runner/work/Simulatio/Simulatio/src/Corpses/Polygon.cpp</title>
<!-- Node1 -->
<g id="node1" class="node">
<title>Node1</title>
<g id="a_node1"><a xlink:title=" ">
<polygon fill="#bfbfbf" stroke="black" points="0,-515.5 0,-545.5 188,-545.5 188,-515.5 0,-515.5"/>
<text text-anchor="start" x="8" y="-533.5" font-family="Helvetica,sans-Serif" font-size="10.00">/home/runner/work/Simulatio</text>
<text text-anchor="middle" x="94" y="-522.5" font-family="Helvetica,sans-Serif" font-size="10.00">/Simulatio/src/Corpses/Polygon.cpp</text>
</a>
</g>
</g>
<!-- Node2 -->
<g id="node2" class="node">
<title>Node2</title>
<g id="a_node2"><a xlink:href="_polygon_8hpp.html" target="_top" xlink:title=" ">
<polygon fill="none" stroke="black" points="38,-448.5 38,-478.5 150,-478.5 150,-448.5 38,-448.5"/>
<text text-anchor="start" x="46" y="-466.5" font-family="Helvetica,sans-Serif" font-size="10.00">../../include/Corpses</text>
<text text-anchor="middle" x="94" y="-455.5" font-family="Helvetica,sans-Serif" font-size="10.00">/Polygon.hpp</text>
</a>
</g>
</g>
<!-- Node1&#45;&gt;Node2 -->
<g id="edge1" class="edge">
<title>Node1&#45;&gt;Node2</title>
<path fill="none" stroke="midnightblue" d="M94,-515.4C94,-507.64 94,-497.81 94,-488.86"/>
<polygon fill="midnightblue" stroke="midnightblue" points="97.5,-488.58 94,-478.58 90.5,-488.58 97.5,-488.58"/>
</g>
<!-- Node3 -->
<g id="node3" class="node">
<title>Node3</title>
<g id="a_node3"><a xlink:title=" ">
<polygon fill="none" stroke="#bfbfbf" points="55.5,-0.5 55.5,-19.5 102.5,-19.5 102.5,-0.5 55.5,-0.5"/>
<text text-anchor="middle" x="79" y="-7.5" font-family="Helvetica,sans-Serif" font-size="10.00">vector</text>
</a>
</g>
</g>
<!-- Node2&#45;&gt;Node3 -->
<g id="edge2" class="edge">
<title>Node2&#45;&gt;Node3</title>
<path fill="none" stroke="midnightblue" d="M79.37,-448.21C70.35,-438.69 59.18,-425.49 52,-412 37.86,-385.43 33,-377.1 33,-347 33,-347 33,-347 33,-121 33,-85.82 53.28,-48.86 66.91,-28"/>
<polygon fill="midnightblue" stroke="midnightblue" points="69.88,-29.85 72.6,-19.61 64.09,-25.92 69.88,-29.85"/>
</g>
<!-- Node4 -->
<g id="node4" class="node">
<title>Node4</title>
<g id="a_node4"><a xlink:href="_circle_8hpp.html" target="_top" xlink:title=" ">
<polygon fill="none" stroke="black" points="61.5,-392.5 61.5,-411.5 126.5,-411.5 126.5,-392.5 61.5,-392.5"/>
<text text-anchor="middle" x="94" y="-399.5" font-family="Helvetica,sans-Serif" font-size="10.00">Circle.hpp</text>
</a>
</g>
</g>
<!-- Node2&#45;&gt;Node4 -->
<g id="edge3" class="edge">
<title>Node2&#45;&gt;Node4</title>
<path fill="none" stroke="midnightblue" d="M88.16,-448.4C87.13,-440.38 86.97,-430.23 87.69,-421.57"/>
<polygon fill="midnightblue" stroke="midnightblue" points="91.16,-422.04 89.07,-411.66 84.23,-421.08 91.16,-422.04"/>
</g>
<!-- Node5 -->
<g id="node5" class="node">
<title>Node5</title>
<g id="a_node5"><a xlink:title=" ">
<polygon fill="none" stroke="#bfbfbf" points="128,-224.5 128,-243.5 196,-243.5 196,-224.5 128,-224.5"/>
<text text-anchor="middle" x="162" y="-231.5" font-family="Helvetica,sans-Serif" font-size="10.00">Config.hpp</text>
</a>
</g>
</g>
<!-- Node2&#45;&gt;Node5 -->
<g id="edge40" class="edge">
<title>Node2&#45;&gt;Node5</title>
<path fill="none" stroke="midnightblue" d="M108.89,-448.45C117.93,-439.03 128.88,-425.84 135,-412 158.86,-358.09 162.18,-286.92 162.31,-253.65"/>
<polygon fill="midnightblue" stroke="midnightblue" points="165.81,-253.53 162.24,-243.55 158.81,-253.57 165.81,-253.53"/>
</g>
<!-- Node6 -->
<g id="node6" class="node">
<title>Node6</title>
<g id="a_node6"><a xlink:href="_corpse_8hpp.html" target="_top" xlink:title=" ">
<polygon fill="none" stroke="black" points="214.5,-336.5 214.5,-355.5 285.5,-355.5 285.5,-336.5 214.5,-336.5"/>
<text text-anchor="middle" x="250" y="-343.5" font-family="Helvetica,sans-Serif" font-size="10.00">Corpse.hpp</text>
</a>
</g>
</g>
<!-- Node2&#45;&gt;Node6 -->
<g id="edge41" class="edge">
<title>Node2&#45;&gt;Node6</title>
<path fill="none" stroke="midnightblue" d="M115.99,-448.39C131.12,-438.51 151.55,-424.84 169,-412 191.06,-395.77 215.45,-375.92 231.65,-362.46"/>
<polygon fill="midnightblue" stroke="midnightblue" points="234.3,-364.8 239.73,-355.7 229.82,-359.43 234.3,-364.8"/>
</g>
<!-- Node4&#45;&gt;Node2 -->
<g id="edge39" class="edge">
<title>Node4&#45;&gt;Node2</title>
<path fill="none" stroke="midnightblue" d="M98.93,-411.66C100.43,-418.65 101.01,-428.86 100.64,-438.29"/>
<polygon fill="midnightblue" stroke="midnightblue" points="97.14,-438.15 99.84,-448.4 104.12,-438.71 97.14,-438.15"/>
</g>
<!-- Node4&#45;&gt;Node3 -->
<g id="edge4" class="edge">
<title>Node4&#45;&gt;Node3</title>
<path fill="none" stroke="midnightblue" d="M92.04,-392.5C87.97,-374.09 79,-329.16 79,-291 79,-291 79,-291 79,-121 79,-88.95 79,-51.64 79,-29.75"/>
<polygon fill="midnightblue" stroke="midnightblue" points="82.5,-29.56 79,-19.56 75.5,-29.56 82.5,-29.56"/>
</g>
<!-- Node4&#45;&gt;Node5 -->
<g id="edge5" class="edge">
<title>Node4&#45;&gt;Node5</title>
<path fill="none" stroke="midnightblue" d="M97.11,-392.41C104.38,-372.49 123.21,-321.66 141,-280 144.9,-270.87 149.54,-260.85 153.47,-252.58"/>
<polygon fill="midnightblue" stroke="midnightblue" points="156.63,-254.08 157.8,-243.55 150.32,-251.05 156.63,-254.08"/>
</g>
<!-- Node4&#45;&gt;Node6 -->
<g id="edge6" class="edge">
<title>Node4&#45;&gt;Node6</title>
<path fill="none" stroke="midnightblue" d="M118.72,-392.44C144.85,-383.4 186.26,-369.06 215.58,-358.92"/>
<polygon fill="midnightblue" stroke="midnightblue" points="217.09,-362.1 225.4,-355.52 214.8,-355.48 217.09,-362.1"/>
</g>
<!-- Node6&#45;&gt;Node3 -->
<g id="edge10" class="edge">
<title>Node6&#45;&gt;Node3</title>
<path fill="none" stroke="midnightblue" d="M247.44,-336.25C242.25,-317.74 231,-273.18 231,-235 231,-235 231,-235 231,-121 231,-90.56 150.01,-45.95 106.27,-24.07"/>
<polygon fill="midnightblue" stroke="midnightblue" points="107.55,-20.8 97.03,-19.52 104.45,-27.08 107.55,-20.8"/>
</g>
<!-- Node6&#45;&gt;Node5 -->
<g id="edge38" class="edge">
<title>Node6&#45;&gt;Node5</title>
<path fill="none" stroke="midnightblue" d="M243.09,-336.37C228.51,-318.14 194.34,-275.43 175.34,-251.68"/>
<polygon fill="midnightblue" stroke="midnightblue" points="177.85,-249.21 168.87,-243.59 172.39,-253.59 177.85,-249.21"/>
</g>
<!-- Node7 -->
<g id="node7" class="node">
<title>Node7</title>
<g id="a_node7"><a xlink:title=" ">
<polygon fill="none" stroke="#bfbfbf" points="757.5,-0.5 757.5,-19.5 804.5,-19.5 804.5,-0.5 757.5,-0.5"/>
<text text-anchor="middle" x="781" y="-7.5" font-family="Helvetica,sans-Serif" font-size="10.00">cmath</text>
</a>
</g>
</g>
<!-- Node6&#45;&gt;Node7 -->
<g id="edge7" class="edge">
<title>Node6&#45;&gt;Node7</title>
<path fill="none" stroke="midnightblue" d="M285.6,-344.7C399.1,-342.78 745,-329.2 745,-235 745,-235 745,-235 745,-121 745,-86.98 760.74,-49.85 771.41,-28.6"/>
<polygon fill="midnightblue" stroke="midnightblue" points="774.62,-30.01 776.14,-19.53 768.41,-26.77 774.62,-30.01"/>
</g>
<!-- Node8 -->
<g id="node8" class="node">
<title>Node8</title>
<g id="a_node8"><a xlink:title=" ">
<polygon fill="none" stroke="#bfbfbf" points="823,-0.5 823,-19.5 883,-19.5 883,-0.5 823,-0.5"/>
<text text-anchor="middle" x="853" y="-7.5" font-family="Helvetica,sans-Serif" font-size="10.00">iostream</text>
</a>
</g>
</g>
<!-- Node6&#45;&gt;Node8 -->
<g id="edge8" class="edge">
<title>Node6&#45;&gt;Node8</title>
<path fill="none" stroke="midnightblue" d="M285.53,-345.71C409.88,-347.24 818,-343.98 818,-235 818,-235 818,-235 818,-121 818,-87.07 833.31,-49.91 843.68,-28.63"/>
<polygon fill="midnightblue" stroke="midnightblue" points="846.88,-30.05 848.28,-19.54 840.64,-26.88 846.88,-30.05"/>
</g>
<!-- Node9 -->
<g id="node9" class="node">
<title>Node9</title>
<g id="a_node9"><a xlink:title=" ">
<polygon fill="none" stroke="#bfbfbf" points="121,-0.5 121,-19.5 179,-19.5 179,-0.5 121,-0.5"/>
<text text-anchor="middle" x="150" y="-7.5" font-family="Helvetica,sans-Serif" font-size="10.00">memory</text>
</a>
</g>
</g>
<!-- Node6&#45;&gt;Node9 -->
<g id="edge9" class="edge">
<title>Node6&#45;&gt;Node9</title>
<path fill="none" stroke="midnightblue" d="M252.56,-336.25C257.75,-317.74 269,-273.18 269,-235 269,-235 269,-235 269,-121 269,-90.2 265.79,-78.72 245,-56 230.1,-39.72 208.08,-28.78 188.99,-21.77"/>
<polygon fill="midnightblue" stroke="midnightblue" points="189.93,-18.39 179.33,-18.45 187.65,-25.01 189.93,-18.39"/>
</g>
<!-- Node10 -->
<g id="node10" class="node">
<title>Node10</title>
<g id="a_node10"><a xlink:href="_geometry_8hpp.html" target="_top" xlink:title=" ">
<polygon fill="none" stroke="black" points="400,-280.5 400,-299.5 546,-299.5 546,-280.5 400,-280.5"/>
<text text-anchor="middle" x="473" y="-287.5" font-family="Helvetica,sans-Serif" font-size="10.00">../Geometry/Geometry.hpp</text>
</a>
</g>
</g>
<!-- Node6&#45;&gt;Node10 -->
<g id="edge11" class="edge">
<title>Node6&#45;&gt;Node10</title>
<path fill="none" stroke="midnightblue" d="M285.34,-336.44C323.91,-327.1 385.78,-312.12 427.85,-301.93"/>
<polygon fill="midnightblue" stroke="midnightblue" points="428.93,-305.27 437.83,-299.52 427.29,-298.47 428.93,-305.27"/>
</g>
<!-- Node10&#45;&gt;Node5 -->
<g id="edge31" class="edge">
<title>Node10&#45;&gt;Node5</title>
<path fill="none" stroke="midnightblue" d="M423.72,-280.44C363.78,-270.04 263.49,-252.62 206.03,-242.64"/>
<polygon fill="midnightblue" stroke="midnightblue" points="206.61,-239.19 196.16,-240.93 205.41,-246.09 206.61,-239.19"/>
</g>
<!-- Node11 -->
<g id="node11" class="node">
<title>Node11</title>
<g id="a_node11"><a xlink:href="_recorder_8hpp.html" target="_top" xlink:title=" ">
<polygon fill="none" stroke="black" points="297,-224.5 297,-243.5 445,-243.5 445,-224.5 297,-224.5"/>
<text text-anchor="middle" x="371" y="-231.5" font-family="Helvetica,sans-Serif" font-size="10.00">../Benchmark/Recorder.hpp</text>
</a>
</g>
</g>
<!-- Node10&#45;&gt;Node11 -->
<g id="edge12" class="edge">
<title>Node10&#45;&gt;Node11</title>
<path fill="none" stroke="midnightblue" d="M456.61,-280.32C440.33,-271.7 415.13,-258.36 396.28,-248.39"/>
<polygon fill="midnightblue" stroke="midnightblue" points="397.82,-245.24 387.35,-243.65 394.55,-251.43 397.82,-245.24"/>
</g>
<!-- Node14 -->
<g id="node14" class="node">
<title>Node14</title>
<g id="a_node14"><a xlink:href="_maths_8hpp.html" target="_top" xlink:title=" ">
<polygon fill="none" stroke="black" points="447,-56.5 447,-75.5 575,-75.5 575,-56.5 447,-56.5"/>
<text text-anchor="middle" x="511" y="-63.5" font-family="Helvetica,sans-Serif" font-size="10.00">../Geometry/Maths.hpp</text>
</a>
</g>
</g>
<!-- Node10&#45;&gt;Node14 -->
<g id="edge32" class="edge">
<title>Node10&#45;&gt;Node14</title>
<path fill="none" stroke="midnightblue" d="M518.09,-280.5C545.54,-273.78 580.33,-262.39 607,-244 633.52,-225.72 642.14,-218.32 653,-188 672.36,-133.94 596.8,-96.73 548.51,-78.95"/>
<polygon fill="midnightblue" stroke="midnightblue" points="549.55,-75.61 538.96,-75.56 547.21,-82.2 549.55,-75.61"/>
</g>
<!-- Node22 -->
<g id="node22" class="node">
<title>Node22</title>
<g id="a_node22"><a xlink:href="_bounds_8hpp.html" target="_top" xlink:title=" ">
<polygon fill="none" stroke="black" points="570,-168.5 570,-187.5 644,-187.5 644,-168.5 570,-168.5"/>
<text text-anchor="middle" x="607" y="-175.5" font-family="Helvetica,sans-Serif" font-size="10.00">Bounds.hpp</text>
</a>
</g>
</g>
<!-- Node10&#45;&gt;Node22 -->
<g id="edge27" class="edge">
<title>Node10&#45;&gt;Node22</title>
<path fill="none" stroke="midnightblue" d="M521.18,-280.46C544.28,-274.05 570.63,-262.98 588,-244 599.52,-231.41 604.09,-212.19 605.88,-197.91"/>
<polygon fill="midnightblue" stroke="midnightblue" points="609.38,-198.02 606.8,-187.75 602.41,-197.39 609.38,-198.02"/>
</g>
<!-- Node23 -->
<g id="node23" class="node">
<title>Node23</title>
<g id="a_node23"><a xlink:href="_vector_8hpp.html" target="_top" xlink:title=" ">
<polygon fill="none" stroke="black" points="446,-112.5 446,-131.5 514,-131.5 514,-112.5 446,-112.5"/>
<text text-anchor="middle" x="480" y="-119.5" font-family="Helvetica,sans-Serif" font-size="10.00">Vector.hpp</text>
</a>
</g>
</g>
<!-- Node10&#45;&gt;Node23 -->
<g id="edge33" class="edge">
<title>Node10&#45;&gt;Node23</title>
<path fill="none" stroke="midnightblue" d="M473.38,-280.08C474.48,-253.95 477.71,-177.21 479.22,-141.58"/>
<polygon fill="midnightblue" stroke="midnightblue" points="482.71,-141.71 479.64,-131.57 475.72,-141.41 482.71,-141.71"/>
</g>
<!-- Node24 -->
<g id="node24" class="node">
<title>Node24</title>
<g id="a_node24"><a xlink:href="_vertices_8hpp.html" target="_top" xlink:title=" ">
<polygon fill="none" stroke="black" points="501.5,-224.5 501.5,-243.5 578.5,-243.5 578.5,-224.5 501.5,-224.5"/>
<text text-anchor="middle" x="540" y="-231.5" font-family="Helvetica,sans-Serif" font-size="10.00">Vertices.hpp</text>
</a>
</g>
</g>
<!-- Node10&#45;&gt;Node24 -->
<g id="edge34" class="edge">
<title>Node10&#45;&gt;Node24</title>
<path fill="none" stroke="midnightblue" d="M483.76,-280.32C493.77,-272.26 508.89,-260.08 520.93,-250.37"/>
<polygon fill="midnightblue" stroke="midnightblue" points="523.45,-252.83 529.04,-243.83 519.06,-247.38 523.45,-252.83"/>
</g>
<!-- Node12 -->
<g id="node12" class="node">
<title>Node12</title>
<g id="a_node12"><a xlink:href="_performance_8hpp.html" target="_top" xlink:title=" ">
<polygon fill="none" stroke="black" points="324,-168.5 324,-187.5 424,-187.5 424,-168.5 324,-168.5"/>
<text text-anchor="middle" x="374" y="-175.5" font-family="Helvetica,sans-Serif" font-size="10.00">Performance.hpp</text>
</a>
</g>
</g>
<!-- Node11&#45;&gt;Node12 -->
<g id="edge13" class="edge">
<title>Node11&#45;&gt;Node12</title>
<path fill="none" stroke="midnightblue" d="M371.5,-224.08C371.89,-217.01 372.45,-206.86 372.95,-197.99"/>
<polygon fill="midnightblue" stroke="midnightblue" points="376.45,-197.93 373.51,-187.75 369.46,-197.54 376.45,-197.93"/>
</g>
<!-- Node13 -->
<g id="node13" class="node">
<title>Node13</title>
<g id="a_node13"><a xlink:href="_block_data_8hpp.html" target="_top" xlink:title=" ">
<polygon fill="none" stroke="black" points="334,-112.5 334,-131.5 422,-131.5 422,-112.5 334,-112.5"/>
<text text-anchor="middle" x="378" y="-119.5" font-family="Helvetica,sans-Serif" font-size="10.00">BlockData.hpp</text>
</a>
</g>
</g>
<!-- Node12&#45;&gt;Node13 -->
<g id="edge14" class="edge">
<title>Node12&#45;&gt;Node13</title>
<path fill="none" stroke="midnightblue" d="M374.66,-168.08C375.18,-161.01 375.94,-150.86 376.59,-141.99"/>
<polygon fill="midnightblue" stroke="midnightblue" points="380.1,-141.98 377.35,-131.75 373.12,-141.47 380.1,-141.98"/>
</g>
<!-- Node13&#45;&gt;Node14 -->
<g id="edge15" class="edge">
<title>Node13&#45;&gt;Node14</title>
<path fill="none" stroke="midnightblue" d="M399.07,-112.44C421.06,-103.52 455.73,-89.44 480.66,-79.32"/>
<polygon fill="midnightblue" stroke="midnightblue" points="482.08,-82.52 490.02,-75.52 479.44,-76.04 482.08,-82.52"/>
</g>
<!-- Node14&#45;&gt;Node3 -->
<g id="edge26" class="edge">
<title>Node14&#45;&gt;Node3</title>
<path fill="none" stroke="midnightblue" d="M446.97,-60.83C369.86,-55.13 236.35,-43.09 112.71,-19.84"/>
<polygon fill="midnightblue" stroke="midnightblue" points="113.17,-16.37 102.69,-17.93 111.86,-23.24 113.17,-16.37"/>
</g>
<!-- Node14&#45;&gt;Node7 -->
<g id="edge18" class="edge">
<title>Node14&#45;&gt;Node7</title>
<path fill="none" stroke="midnightblue" d="M562.1,-56.49C608.1,-48.57 677.74,-35.9 747.43,-19.98"/>
<polygon fill="midnightblue" stroke="midnightblue" points="748.31,-23.37 757.26,-17.71 746.73,-16.55 748.31,-23.37"/>
</g>
<!-- Node14&#45;&gt;Node8 -->
<g id="edge20" class="edge">
<title>Node14&#45;&gt;Node8</title>
<path fill="none" stroke="midnightblue" d="M575.09,-56.98C634.36,-49.23 725.11,-36.49 812.95,-20.08"/>
<polygon fill="midnightblue" stroke="midnightblue" points="813.64,-23.51 822.82,-18.21 812.34,-16.63 813.64,-23.51"/>
</g>
<!-- Node14&#45;&gt;Node9 -->
<g id="edge22" class="edge">
<title>Node14&#45;&gt;Node9</title>
<path fill="none" stroke="midnightblue" d="M446.97,-57.88C383.83,-50.46 284.4,-37.67 189.46,-20.13"/>
<polygon fill="midnightblue" stroke="midnightblue" points="189.87,-16.65 179.4,-18.25 188.59,-23.53 189.87,-16.65"/>
</g>
<!-- Node15 -->
<g id="node15" class="node">
<title>Node15</title>
<g id="a_node15"><a xlink:title=" ">
<polygon fill="none" stroke="#bfbfbf" points="629,-0.5 629,-19.5 671,-19.5 671,-0.5 629,-0.5"/>
<text text-anchor="middle" x="650" y="-7.5" font-family="Helvetica,sans-Serif" font-size="10.00">array</text>
</a>
</g>
</g>
<!-- Node14&#45;&gt;Node15 -->
<g id="edge16" class="edge">
<title>Node14&#45;&gt;Node15</title>
<path fill="none" stroke="midnightblue" d="M533.02,-56.44C556.38,-47.37 593.42,-32.98 619.56,-22.83"/>
<polygon fill="midnightblue" stroke="midnightblue" points="620.93,-26.05 628.99,-19.16 618.4,-19.52 620.93,-26.05"/>
</g>
<!-- Node16 -->
<g id="node16" class="node">
<title>Node16</title>
<g id="a_node16"><a xlink:title=" ">
<polygon fill="none" stroke="#bfbfbf" points="689,-0.5 689,-19.5 739,-19.5 739,-0.5 689,-0.5"/>
<text text-anchor="middle" x="714" y="-7.5" font-family="Helvetica,sans-Serif" font-size="10.00">chrono</text>
</a>
</g>
</g>
<!-- Node14&#45;&gt;Node16 -->
<g id="edge17" class="edge">
<title>Node14&#45;&gt;Node16</title>
<path fill="none" stroke="midnightblue" d="M543.17,-56.44C580.21,-46.59 640.87,-30.45 679.05,-20.3"/>
<polygon fill="midnightblue" stroke="midnightblue" points="679.95,-23.68 688.72,-17.73 678.16,-16.91 679.95,-23.68"/>
</g>
<!-- Node17 -->
<g id="node17" class="node">
<title>Node17</title>
<g id="a_node17"><a xlink:title=" ">
<polygon fill="none" stroke="#bfbfbf" points="197.5,-0.5 197.5,-19.5 262.5,-19.5 262.5,-0.5 197.5,-0.5"/>
<text text-anchor="middle" x="230" y="-7.5" font-family="Helvetica,sans-Serif" font-size="10.00">functional</text>
</a>
</g>
</g>
<!-- Node14&#45;&gt;Node17 -->
<g id="edge19" class="edge">
<title>Node14&#45;&gt;Node17</title>
<path fill="none" stroke="midnightblue" d="M463.77,-56.47C417.68,-48.06 345.3,-34.64 272.77,-20.11"/>
<polygon fill="midnightblue" stroke="midnightblue" points="273.04,-16.6 262.54,-18.06 271.66,-23.46 273.04,-16.6"/>
</g>
<!-- Node18 -->
<g id="node18" class="node">
<title>Node18</title>
<g id="a_node18"><a xlink:title=" ">
<polygon fill="none" stroke="#bfbfbf" points="280.5,-0.5 280.5,-19.5 333.5,-19.5 333.5,-0.5 280.5,-0.5"/>
<text text-anchor="middle" x="307" y="-7.5" font-family="Helvetica,sans-Serif" font-size="10.00">iterator</text>
</a>
</g>
</g>
<!-- Node14&#45;&gt;Node18 -->
<g id="edge21" class="edge">
<title>Node14&#45;&gt;Node18</title>
<path fill="none" stroke="midnightblue" d="M478.68,-56.44C441.86,-46.7 381.84,-30.81 343.4,-20.64"/>
<polygon fill="midnightblue" stroke="midnightblue" points="344.21,-17.23 333.65,-18.05 342.42,-24 344.21,-17.23"/>
</g>
<!-- Node19 -->
<g id="node19" class="node">
<title>Node19</title>
<g id="a_node19"><a xlink:title=" ">
<polygon fill="none" stroke="#bfbfbf" points="352,-0.5 352,-19.5 408,-19.5 408,-0.5 352,-0.5"/>
<text text-anchor="middle" x="380" y="-7.5" font-family="Helvetica,sans-Serif" font-size="10.00">sstream</text>
</a>
</g>
</g>
<!-- Node14&#45;&gt;Node19 -->
<g id="edge23" class="edge">
<title>Node14&#45;&gt;Node19</title>
<path fill="none" stroke="midnightblue" d="M490.24,-56.44C468.68,-47.56 434.74,-33.56 410.21,-23.45"/>
<polygon fill="midnightblue" stroke="midnightblue" points="411.24,-20.09 400.66,-19.52 408.57,-26.56 411.24,-20.09"/>
</g>
<!-- Node20 -->
<g id="node20" class="node">
<title>Node20</title>
<g id="a_node20"><a xlink:title=" ">
<polygon fill="none" stroke="#bfbfbf" points="426.5,-0.5 426.5,-19.5 499.5,-19.5 499.5,-0.5 426.5,-0.5"/>
<text text-anchor="middle" x="463" y="-7.5" font-family="Helvetica,sans-Serif" font-size="10.00">string_view</text>
</a>
</g>
</g>
<!-- Node14&#45;&gt;Node20 -->
<g id="edge24" class="edge">
<title>Node14&#45;&gt;Node20</title>
<path fill="none" stroke="midnightblue" d="M503.07,-56.08C496.15,-48.3 485.93,-36.8 477.55,-27.37"/>
<polygon fill="midnightblue" stroke="midnightblue" points="480.04,-24.9 470.78,-19.75 474.81,-29.55 480.04,-24.9"/>
</g>
<!-- Node21 -->
<g id="node21" class="node">
<title>Node21</title>
<g id="a_node21"><a xlink:title=" ">
<polygon fill="none" stroke="#bfbfbf" points="517.5,-0.5 517.5,-19.5 610.5,-19.5 610.5,-0.5 517.5,-0.5"/>
<text text-anchor="middle" x="564" y="-7.5" font-family="Helvetica,sans-Serif" font-size="10.00">unordered_map</text>
</a>
</g>
</g>
<!-- Node14&#45;&gt;Node21 -->
<g id="edge25" class="edge">
<title>Node14&#45;&gt;Node21</title>
<path fill="none" stroke="midnightblue" d="M519.75,-56.08C527.47,-48.22 538.9,-36.57 548.22,-27.08"/>
<polygon fill="midnightblue" stroke="midnightblue" points="550.9,-29.34 555.41,-19.75 545.91,-24.44 550.9,-29.34"/>
</g>
<!-- Node22&#45;&gt;Node14 -->
<g id="edge28" class="edge">
<title>Node22&#45;&gt;Node14</title>
<path fill="none" stroke="midnightblue" d="M600.71,-168.32C591.38,-155.61 573.13,-131.32 556,-112 547.02,-101.87 536.33,-91.13 527.62,-82.69"/>
<polygon fill="midnightblue" stroke="midnightblue" points="529.93,-80.05 520.29,-75.66 525.09,-85.1 529.93,-80.05"/>
</g>
<!-- Node22&#45;&gt;Node23 -->
<g id="edge29" class="edge">
<title>Node22&#45;&gt;Node23</title>
<path fill="none" stroke="midnightblue" d="M586.88,-168.44C565.98,-159.56 533.07,-145.56 509.28,-135.45"/>
<polygon fill="midnightblue" stroke="midnightblue" points="510.6,-132.21 500.03,-131.52 507.86,-138.65 510.6,-132.21"/>
</g>
<!-- Node23&#45;&gt;Node14 -->
<g id="edge30" class="edge">
<title>Node23&#45;&gt;Node14</title>
<path fill="none" stroke="midnightblue" d="M485.12,-112.08C489.41,-104.61 495.66,-93.72 500.94,-84.52"/>
<polygon fill="midnightblue" stroke="midnightblue" points="504.03,-86.17 505.98,-75.75 497.96,-82.68 504.03,-86.17"/>
</g>
<!-- Node24&#45;&gt;Node14 -->
<g id="edge36" class="edge">
<title>Node24&#45;&gt;Node14</title>
<path fill="none" stroke="midnightblue" d="M539.16,-224.43C537.12,-204.55 531.47,-153.79 523,-112 521.21,-103.17 518.71,-93.51 516.45,-85.41"/>
<polygon fill="midnightblue" stroke="midnightblue" points="519.74,-84.2 513.61,-75.55 513.01,-86.13 519.74,-84.2"/>
</g>
<!-- Node24&#45;&gt;Node22 -->
<g id="edge35" class="edge">
<title>Node24&#45;&gt;Node22</title>
<path fill="none" stroke="midnightblue" d="M550.76,-224.32C560.77,-216.26 575.89,-204.08 587.93,-194.37"/>
<polygon fill="midnightblue" stroke="midnightblue" points="590.45,-196.83 596.04,-187.83 586.06,-191.38 590.45,-196.83"/>
</g>
<!-- Node24&#45;&gt;Node23 -->
<g id="edge37" class="edge">
<title>Node24&#45;&gt;Node23</title>
<path fill="none" stroke="midnightblue" d="M535.29,-224.37C525.48,-206.38 502.66,-164.55 489.61,-140.63"/>
<polygon fill="midnightblue" stroke="midnightblue" points="492.55,-138.69 484.69,-131.59 486.4,-142.05 492.55,-138.69"/>
</g>
</g>
</svg>
