<?xml version="1.0" encoding="UTF-8" standalone="no"?>
<!DOCTYPE svg PUBLIC "-//W3C//DTD SVG 1.1//EN"
 "http://www.w3.org/Graphics/SVG/1.1/DTD/svg11.dtd">
<!-- Generated by graphviz version 2.43.0 (0)
 -->
<!-- Title: /home/runner/work/Simulatio/Simulatio/include/Corpses/Polygon.hpp Pages: 1 -->
<svg width="876pt" height="498pt"
 viewBox="0.00 0.00 876.00 498.00" xmlns="http://www.w3.org/2000/svg" xmlns:xlink="http://www.w3.org/1999/xlink">
<g id="graph0" class="graph" transform="scale(1 1) rotate(0) translate(4 494)">
<title>/home/runner/work/Simulatio/Simulatio/include/Corpses/Polygon.hpp</title>
<!-- Node1 -->
<g id="node1" class="node">
<title>Node1</title>
<g id="a_node1"><a xlink:title=" ">
<polygon fill="#bfbfbf" stroke="black" points="0,-448.5 0,-489.5 158,-489.5 158,-448.5 0,-448.5"/>
<text text-anchor="start" x="8" y="-477.5" font-family="Helvetica,sans-Serif" font-size="10.00">/home/runner/work/Simulatio</text>
<text text-anchor="start" x="8" y="-466.5" font-family="Helvetica,sans-Serif" font-size="10.00">/Simulatio/include/Corpses</text>
<text text-anchor="middle" x="79" y="-455.5" font-family="Helvetica,sans-Serif" font-size="10.00">/Polygon.hpp</text>
</a>
</g>
</g>
<!-- Node2 -->
<g id="node2" class="node">
<title>Node2</title>
<g id="a_node2"><a xlink:title=" ">
<polygon fill="none" stroke="#bfbfbf" points="40.5,-0.5 40.5,-19.5 87.5,-19.5 87.5,-0.5 40.5,-0.5"/>
<text text-anchor="middle" x="64" y="-7.5" font-family="Helvetica,sans-Serif" font-size="10.00">vector</text>
</a>
</g>
</g>
<!-- Node1&#45;&gt;Node2 -->
<g id="edge1" class="edge">
<title>Node1&#45;&gt;Node2</title>
<path fill="none" stroke="midnightblue" d="M61.56,-448.42C53.16,-438.16 43.53,-425.04 37,-412 23.53,-385.08 18,-377.1 18,-347 18,-347 18,-347 18,-121 18,-85.82 38.28,-48.86 51.91,-28"/>
<polygon fill="midnightblue" stroke="midnightblue" points="54.88,-29.85 57.6,-19.61 49.09,-25.92 54.88,-29.85"/>
</g>
<!-- Node3 -->
<g id="node3" class="node">
<title>Node3</title>
<g id="a_node3"><a xlink:href="_circle_8hpp.html" target="_top" xlink:title=" ">
<polygon fill="none" stroke="black" points="46.5,-392.5 46.5,-411.5 111.5,-411.5 111.5,-392.5 46.5,-392.5"/>
<text text-anchor="middle" x="79" y="-399.5" font-family="Helvetica,sans-Serif" font-size="10.00">Circle.hpp</text>
</a>
</g>
</g>
<!-- Node1&#45;&gt;Node3 -->
<g id="edge2" class="edge">
<title>Node1&#45;&gt;Node3</title>
<path fill="none" stroke="midnightblue" d="M72.75,-448.5C72.06,-439.97 72.08,-430.01 72.83,-421.59"/>
<polygon fill="midnightblue" stroke="midnightblue" points="76.3,-422.04 74.24,-411.65 69.37,-421.06 76.3,-422.04"/>
</g>
<!-- Node4 -->
<g id="node4" class="node">
<title>Node4</title>
<g id="a_node4"><a xlink:title=" ">
<polygon fill="none" stroke="#bfbfbf" points="113,-224.5 113,-243.5 181,-243.5 181,-224.5 113,-224.5"/>
<text text-anchor="middle" x="147" y="-231.5" font-family="Helvetica,sans-Serif" font-size="10.00">Config.hpp</text>
</a>
</g>
</g>
<!-- Node1&#45;&gt;Node4 -->
<g id="edge39" class="edge">
<title>Node1&#45;&gt;Node4</title>
<path fill="none" stroke="midnightblue" d="M96.96,-448.44C105.28,-438.29 114.53,-425.25 120,-412 142.4,-357.77 146.44,-287.29 147.03,-254"/>
<polygon fill="midnightblue" stroke="midnightblue" points="150.53,-253.89 147.11,-243.87 143.53,-253.84 150.53,-253.89"/>
</g>
<!-- Node5 -->
<g id="node5" class="node">
<title>Node5</title>
<g id="a_node5"><a xlink:href="_corpse_8hpp.html" target="_top" xlink:title=" ">
<polygon fill="none" stroke="black" points="199.5,-336.5 199.5,-355.5 270.5,-355.5 270.5,-336.5 199.5,-336.5"/>
<text text-anchor="middle" x="235" y="-343.5" font-family="Helvetica,sans-Serif" font-size="10.00">Corpse.hpp</text>
</a>
</g>
</g>
<!-- Node1&#45;&gt;Node5 -->
<g id="edge40" class="edge">
<title>Node1&#45;&gt;Node5</title>
<path fill="none" stroke="midnightblue" d="M105.9,-448.27C120.26,-437.64 138.2,-424.24 154,-412 175.65,-395.24 200.12,-375.49 216.45,-362.19"/>
<polygon fill="midnightblue" stroke="midnightblue" points="219.07,-364.57 224.61,-355.53 214.65,-359.14 219.07,-364.57"/>
</g>
<!-- Node3&#45;&gt;Node1 -->
<g id="edge38" class="edge">
<title>Node3&#45;&gt;Node1</title>
<path fill="none" stroke="midnightblue" d="M83.76,-411.65C85.23,-418.52 85.88,-428.56 85.73,-438.26"/>
<polygon fill="midnightblue" stroke="midnightblue" points="82.22,-438.34 85.25,-448.5 89.21,-438.67 82.22,-438.34"/>
</g>
<!-- Node3&#45;&gt;Node2 -->
<g id="edge3" class="edge">
<title>Node3&#45;&gt;Node2</title>
<path fill="none" stroke="midnightblue" d="M77.04,-392.5C72.97,-374.09 64,-329.16 64,-291 64,-291 64,-291 64,-121 64,-88.95 64,-51.64 64,-29.75"/>
<polygon fill="midnightblue" stroke="midnightblue" points="67.5,-29.56 64,-19.56 60.5,-29.56 67.5,-29.56"/>
</g>
<!-- Node3&#45;&gt;Node4 -->
<g id="edge4" class="edge">
<title>Node3&#45;&gt;Node4</title>
<path fill="none" stroke="midnightblue" d="M82.11,-392.41C89.38,-372.49 108.21,-321.66 126,-280 129.9,-270.87 134.54,-260.85 138.47,-252.58"/>
<polygon fill="midnightblue" stroke="midnightblue" points="141.63,-254.08 142.8,-243.55 135.32,-251.05 141.63,-254.08"/>
</g>
<!-- Node3&#45;&gt;Node5 -->
<g id="edge5" class="edge">
<title>Node3&#45;&gt;Node5</title>
<path fill="none" stroke="midnightblue" d="M103.72,-392.44C129.85,-383.4 171.26,-369.06 200.58,-358.92"/>
<polygon fill="midnightblue" stroke="midnightblue" points="202.09,-362.1 210.4,-355.52 199.8,-355.48 202.09,-362.1"/>
</g>
<!-- Node5&#45;&gt;Node2 -->
<g id="edge9" class="edge">
<title>Node5&#45;&gt;Node2</title>
<path fill="none" stroke="midnightblue" d="M232.44,-336.25C227.25,-317.74 216,-273.18 216,-235 216,-235 216,-235 216,-121 216,-90.56 135.01,-45.95 91.27,-24.07"/>
<polygon fill="midnightblue" stroke="midnightblue" points="92.55,-20.8 82.03,-19.52 89.45,-27.08 92.55,-20.8"/>
</g>
<!-- Node5&#45;&gt;Node4 -->
<g id="edge37" class="edge">
<title>Node5&#45;&gt;Node4</title>
<path fill="none" stroke="midnightblue" d="M228.09,-336.37C213.51,-318.14 179.34,-275.43 160.34,-251.68"/>
<polygon fill="midnightblue" stroke="midnightblue" points="162.85,-249.21 153.87,-243.59 157.39,-253.59 162.85,-249.21"/>
</g>
<!-- Node6 -->
<g id="node6" class="node">
<title>Node6</title>
<g id="a_node6"><a xlink:title=" ">
<polygon fill="none" stroke="#bfbfbf" points="742.5,-0.5 742.5,-19.5 789.5,-19.5 789.5,-0.5 742.5,-0.5"/>
<text text-anchor="middle" x="766" y="-7.5" font-family="Helvetica,sans-Serif" font-size="10.00">cmath</text>
</a>
</g>
</g>
<!-- Node5&#45;&gt;Node6 -->
<g id="edge6" class="edge">
<title>Node5&#45;&gt;Node6</title>
<path fill="none" stroke="midnightblue" d="M270.6,-344.7C384.1,-342.78 730,-329.2 730,-235 730,-235 730,-235 730,-121 730,-86.98 745.74,-49.85 756.41,-28.6"/>
<polygon fill="midnightblue" stroke="midnightblue" points="759.62,-30.01 761.14,-19.53 753.41,-26.77 759.62,-30.01"/>
</g>
<!-- Node7 -->
<g id="node7" class="node">
<title>Node7</title>
<g id="a_node7"><a xlink:title=" ">
<polygon fill="none" stroke="#bfbfbf" points="808,-0.5 808,-19.5 868,-19.5 868,-0.5 808,-0.5"/>
<text text-anchor="middle" x="838" y="-7.5" font-family="Helvetica,sans-Serif" font-size="10.00">iostream</text>
</a>
</g>
</g>
<!-- Node5&#45;&gt;Node7 -->
<g id="edge7" class="edge">
<title>Node5&#45;&gt;Node7</title>
<path fill="none" stroke="midnightblue" d="M270.53,-345.71C394.88,-347.24 803,-343.98 803,-235 803,-235 803,-235 803,-121 803,-87.07 818.31,-49.91 828.68,-28.63"/>
<polygon fill="midnightblue" stroke="midnightblue" points="831.88,-30.05 833.28,-19.54 825.64,-26.88 831.88,-30.05"/>
</g>
<!-- Node8 -->
<g id="node8" class="node">
<title>Node8</title>
<g id="a_node8"><a xlink:title=" ">
<polygon fill="none" stroke="#bfbfbf" points="106,-0.5 106,-19.5 164,-19.5 164,-0.5 106,-0.5"/>
<text text-anchor="middle" x="135" y="-7.5" font-family="Helvetica,sans-Serif" font-size="10.00">memory</text>
</a>
</g>
</g>
<!-- Node5&#45;&gt;Node8 -->
<g id="edge8" class="edge">
<title>Node5&#45;&gt;Node8</title>
<path fill="none" stroke="midnightblue" d="M237.56,-336.25C242.75,-317.74 254,-273.18 254,-235 254,-235 254,-235 254,-121 254,-90.2 250.79,-78.72 230,-56 215.1,-39.72 193.08,-28.78 173.99,-21.77"/>
<polygon fill="midnightblue" stroke="midnightblue" points="174.93,-18.39 164.33,-18.45 172.65,-25.01 174.93,-18.39"/>
</g>
<!-- Node9 -->
<g id="node9" class="node">
<title>Node9</title>
<g id="a_node9"><a xlink:href="_geometry_8hpp.html" target="_top" xlink:title=" ">
<polygon fill="none" stroke="black" points="385,-280.5 385,-299.5 531,-299.5 531,-280.5 385,-280.5"/>
<text text-anchor="middle" x="458" y="-287.5" font-family="Helvetica,sans-Serif" font-size="10.00">../Geometry/Geometry.hpp</text>
</a>
</g>
</g>
<!-- Node5&#45;&gt;Node9 -->
<g id="edge10" class="edge">
<title>Node5&#45;&gt;Node9</title>
<path fill="none" stroke="midnightblue" d="M270.34,-336.44C308.91,-327.1 370.78,-312.12 412.85,-301.93"/>
<polygon fill="midnightblue" stroke="midnightblue" points="413.93,-305.27 422.83,-299.52 412.29,-298.47 413.93,-305.27"/>
</g>
<!-- Node9&#45;&gt;Node4 -->
<g id="edge30" class="edge">
<title>Node9&#45;&gt;Node4</title>
<path fill="none" stroke="midnightblue" d="M408.72,-280.44C348.78,-270.04 248.49,-252.62 191.03,-242.64"/>
<polygon fill="midnightblue" stroke="midnightblue" points="191.61,-239.19 181.16,-240.93 190.41,-246.09 191.61,-239.19"/>
</g>
<!-- Node10 -->
<g id="node10" class="node">
<title>Node10</title>
<g id="a_node10"><a xlink:href="_recorder_8hpp.html" target="_top" xlink:title=" ">
<polygon fill="none" stroke="black" points="282,-224.5 282,-243.5 430,-243.5 430,-224.5 282,-224.5"/>
<text text-anchor="middle" x="356" y="-231.5" font-family="Helvetica,sans-Serif" font-size="10.00">../Benchmark/Recorder.hpp</text>
</a>
</g>
</g>
<!-- Node9&#45;&gt;Node10 -->
<g id="edge11" class="edge">
<title>Node9&#45;&gt;Node10</title>
<path fill="none" stroke="midnightblue" d="M441.61,-280.32C425.33,-271.7 400.13,-258.36 381.28,-248.39"/>
<polygon fill="midnightblue" stroke="midnightblue" points="382.82,-245.24 372.35,-243.65 379.55,-251.43 382.82,-245.24"/>
</g>
<!-- Node13 -->
<g id="node13" class="node">
<title>Node13</title>
<g id="a_node13"><a xlink:href="_maths_8hpp.html" target="_top" xlink:title=" ">
<polygon fill="none" stroke="black" points="432,-56.5 432,-75.5 560,-75.5 560,-56.5 432,-56.5"/>
<text text-anchor="middle" x="496" y="-63.5" font-family="Helvetica,sans-Serif" font-size="10.00">../Geometry/Maths.hpp</text>
</a>
</g>
</g>
<!-- Node9&#45;&gt;Node13 -->
<g id="edge31" class="edge">
<title>Node9&#45;&gt;Node13</title>
<path fill="none" stroke="midnightblue" d="M503.09,-280.5C530.54,-273.78 565.33,-262.39 592,-244 618.52,-225.72 627.14,-218.32 638,-188 657.36,-133.94 581.8,-96.73 533.51,-78.95"/>
<polygon fill="midnightblue" stroke="midnightblue" points="534.55,-75.61 523.96,-75.56 532.21,-82.2 534.55,-75.61"/>
</g>
<!-- Node21 -->
<g id="node21" class="node">
<title>Node21</title>
<g id="a_node21"><a xlink:href="_bounds_8hpp.html" target="_top" xlink:title=" ">
<polygon fill="none" stroke="black" points="555,-168.5 555,-187.5 629,-187.5 629,-168.5 555,-168.5"/>
<text text-anchor="middle" x="592" y="-175.5" font-family="Helvetica,sans-Serif" font-size="10.00">Bounds.hpp</text>
</a>
</g>
</g>
<!-- Node9&#45;&gt;Node21 -->
<g id="edge26" class="edge">
<title>Node9&#45;&gt;Node21</title>
<path fill="none" stroke="midnightblue" d="M506.18,-280.46C529.28,-274.05 555.63,-262.98 573,-244 584.52,-231.41 589.09,-212.19 590.88,-197.91"/>
<polygon fill="midnightblue" stroke="midnightblue" points="594.38,-198.02 591.8,-187.75 587.41,-197.39 594.38,-198.02"/>
</g>
<!-- Node22 -->
<g id="node22" class="node">
<title>Node22</title>
<g id="a_node22"><a xlink:href="_vector_8hpp.html" target="_top" xlink:title=" ">
<polygon fill="none" stroke="black" points="431,-112.5 431,-131.5 499,-131.5 499,-112.5 431,-112.5"/>
<text text-anchor="middle" x="465" y="-119.5" font-family="Helvetica,sans-Serif" font-size="10.00">Vector.hpp</text>
</a>
</g>
</g>
<!-- Node9&#45;&gt;Node22 -->
<g id="edge32" class="edge">
<title>Node9&#45;&gt;Node22</title>
<path fill="none" stroke="midnightblue" d="M458.38,-280.08C459.48,-253.95 462.71,-177.21 464.22,-141.58"/>
<polygon fill="midnightblue" stroke="midnightblue" points="467.71,-141.71 464.64,-131.57 460.72,-141.41 467.71,-141.71"/>
</g>
<!-- Node23 -->
<g id="node23" class="node">
<title>Node23</title>
<g id="a_node23"><a xlink:href="_vertices_8hpp.html" target="_top" xlink:title=" ">
<polygon fill="none" stroke="black" points="486.5,-224.5 486.5,-243.5 563.5,-243.5 563.5,-224.5 486.5,-224.5"/>
<text text-anchor="middle" x="525" y="-231.5" font-family="Helvetica,sans-Serif" font-size="10.00">Vertices.hpp</text>
</a>
</g>
</g>
<!-- Node9&#45;&gt;Node23 -->
<g id="edge33" class="edge">
<title>Node9&#45;&gt;Node23</title>
<path fill="none" stroke="midnightblue" d="M468.76,-280.32C478.77,-272.26 493.89,-260.08 505.93,-250.37"/>
<polygon fill="midnightblue" stroke="midnightblue" points="508.45,-252.83 514.04,-243.83 504.06,-247.38 508.45,-252.83"/>
</g>
<!-- Node11 -->
<g id="node11" class="node">
<title>Node11</title>
<g id="a_node11"><a xlink:href="_performance_8hpp.html" target="_top" xlink:title=" ">
<polygon fill="none" stroke="black" points="309,-168.5 309,-187.5 409,-187.5 409,-168.5 309,-168.5"/>
<text text-anchor="middle" x="359" y="-175.5" font-family="Helvetica,sans-Serif" font-size="10.00">Performance.hpp</text>
</a>
</g>
</g>
<!-- Node10&#45;&gt;Node11 -->
<g id="edge12" class="edge">
<title>Node10&#45;&gt;Node11</title>
<path fill="none" stroke="midnightblue" d="M356.5,-224.08C356.89,-217.01 357.45,-206.86 357.95,-197.99"/>
<polygon fill="midnightblue" stroke="midnightblue" points="361.45,-197.93 358.51,-187.75 354.46,-197.54 361.45,-197.93"/>
</g>
<!-- Node12 -->
<g id="node12" class="node">
<title>Node12</title>
<g id="a_node12"><a xlink:href="_block_data_8hpp.html" target="_top" xlink:title=" ">
<polygon fill="none" stroke="black" points="319,-112.5 319,-131.5 407,-131.5 407,-112.5 319,-112.5"/>
<text text-anchor="middle" x="363" y="-119.5" font-family="Helvetica,sans-Serif" font-size="10.00">BlockData.hpp</text>
</a>
</g>
</g>
<!-- Node11&#45;&gt;Node12 -->
<g id="edge13" class="edge">
<title>Node11&#45;&gt;Node12</title>
<path fill="none" stroke="midnightblue" d="M359.66,-168.08C360.18,-161.01 360.94,-150.86 361.59,-141.99"/>
<polygon fill="midnightblue" stroke="midnightblue" points="365.1,-141.98 362.35,-131.75 358.12,-141.47 365.1,-141.98"/>
</g>
<!-- Node12&#45;&gt;Node13 -->
<g id="edge14" class="edge">
<title>Node12&#45;&gt;Node13</title>
<path fill="none" stroke="midnightblue" d="M384.07,-112.44C406.06,-103.52 440.73,-89.44 465.66,-79.32"/>
<polygon fill="midnightblue" stroke="midnightblue" points="467.08,-82.52 475.02,-75.52 464.44,-76.04 467.08,-82.52"/>
</g>
<!-- Node13&#45;&gt;Node2 -->
<g id="edge25" class="edge">
<title>Node13&#45;&gt;Node2</title>
<path fill="none" stroke="midnightblue" d="M431.97,-60.83C354.86,-55.13 221.35,-43.09 97.71,-19.84"/>
<polygon fill="midnightblue" stroke="midnightblue" points="98.17,-16.37 87.69,-17.93 96.86,-23.24 98.17,-16.37"/>
</g>
<!-- Node13&#45;&gt;Node6 -->
<g id="edge17" class="edge">
<title>Node13&#45;&gt;Node6</title>
<path fill="none" stroke="midnightblue" d="M547.1,-56.49C593.1,-48.57 662.74,-35.9 732.43,-19.98"/>
<polygon fill="midnightblue" stroke="midnightblue" points="733.31,-23.37 742.26,-17.71 731.73,-16.55 733.31,-23.37"/>
</g>
<!-- Node13&#45;&gt;Node7 -->
<g id="edge19" class="edge">
<title>Node13&#45;&gt;Node7</title>
<path fill="none" stroke="midnightblue" d="M560.09,-56.98C619.36,-49.23 710.11,-36.49 797.95,-20.08"/>
<polygon fill="midnightblue" stroke="midnightblue" points="798.64,-23.51 807.82,-18.21 797.34,-16.63 798.64,-23.51"/>
</g>
<!-- Node13&#45;&gt;Node8 -->
<g id="edge21" class="edge">
<title>Node13&#45;&gt;Node8</title>
<path fill="none" stroke="midnightblue" d="M431.97,-57.88C368.83,-50.46 269.4,-37.67 174.46,-20.13"/>
<polygon fill="midnightblue" stroke="midnightblue" points="174.87,-16.65 164.4,-18.25 173.59,-23.53 174.87,-16.65"/>
</g>
<!-- Node14 -->
<g id="node14" class="node">
<title>Node14</title>
<g id="a_node14"><a xlink:title=" ">
<polygon fill="none" stroke="#bfbfbf" points="614,-0.5 614,-19.5 656,-19.5 656,-0.5 614,-0.5"/>
<text text-anchor="middle" x="635" y="-7.5" font-family="Helvetica,sans-Serif" font-size="10.00">array</text>
</a>
</g>
</g>
<!-- Node13&#45;&gt;Node14 -->
<g id="edge15" class="edge">
<title>Node13&#45;&gt;Node14</title>
<path fill="none" stroke="midnightblue" d="M518.02,-56.44C541.38,-47.37 578.42,-32.98 604.56,-22.83"/>
<polygon fill="midnightblue" stroke="midnightblue" points="605.93,-26.05 613.99,-19.16 603.4,-19.52 605.93,-26.05"/>
</g>
<!-- Node15 -->
<g id="node15" class="node">
<title>Node15</title>
<g id="a_node15"><a xlink:title=" ">
<polygon fill="none" stroke="#bfbfbf" points="674,-0.5 674,-19.5 724,-19.5 724,-0.5 674,-0.5"/>
<text text-anchor="middle" x="699" y="-7.5" font-family="Helvetica,sans-Serif" font-size="10.00">chrono</text>
</a>
</g>
</g>
<!-- Node13&#45;&gt;Node15 -->
<g id="edge16" class="edge">
<title>Node13&#45;&gt;Node15</title>
<path fill="none" stroke="midnightblue" d="M528.17,-56.44C565.21,-46.59 625.87,-30.45 664.05,-20.3"/>
<polygon fill="midnightblue" stroke="midnightblue" points="664.95,-23.68 673.72,-17.73 663.16,-16.91 664.95,-23.68"/>
</g>
<!-- Node16 -->
<g id="node16" class="node">
<title>Node16</title>
<g id="a_node16"><a xlink:title=" ">
<polygon fill="none" stroke="#bfbfbf" points="182.5,-0.5 182.5,-19.5 247.5,-19.5 247.5,-0.5 182.5,-0.5"/>
<text text-anchor="middle" x="215" y="-7.5" font-family="Helvetica,sans-Serif" font-size="10.00">functional</text>
</a>
</g>
</g>
<!-- Node13&#45;&gt;Node16 -->
<g id="edge18" class="edge">
<title>Node13&#45;&gt;Node16</title>
<path fill="none" stroke="midnightblue" d="M448.77,-56.47C402.68,-48.06 330.3,-34.64 257.77,-20.11"/>
<polygon fill="midnightblue" stroke="midnightblue" points="258.04,-16.6 247.54,-18.06 256.66,-23.46 258.04,-16.6"/>
</g>
<!-- Node17 -->
<g id="node17" class="node">
<title>Node17</title>
<g id="a_node17"><a xlink:title=" ">
<polygon fill="none" stroke="#bfbfbf" points="265.5,-0.5 265.5,-19.5 318.5,-19.5 318.5,-0.5 265.5,-0.5"/>
<text text-anchor="middle" x="292" y="-7.5" font-family="Helvetica,sans-Serif" font-size="10.00">iterator</text>
</a>
</g>
</g>
<!-- Node13&#45;&gt;Node17 -->
<g id="edge20" class="edge">
<title>Node13&#45;&gt;Node17</title>
<path fill="none" stroke="midnightblue" d="M463.68,-56.44C426.86,-46.7 366.84,-30.81 328.4,-20.64"/>
<polygon fill="midnightblue" stroke="midnightblue" points="329.21,-17.23 318.65,-18.05 327.42,-24 329.21,-17.23"/>
</g>
<!-- Node18 -->
<g id="node18" class="node">
<title>Node18</title>
<g id="a_node18"><a xlink:title=" ">
<polygon fill="none" stroke="#bfbfbf" points="337,-0.5 337,-19.5 393,-19.5 393,-0.5 337,-0.5"/>
<text text-anchor="middle" x="365" y="-7.5" font-family="Helvetica,sans-Serif" font-size="10.00">sstream</text>
</a>
</g>
</g>
<!-- Node13&#45;&gt;Node18 -->
<g id="edge22" class="edge">
<title>Node13&#45;&gt;Node18</title>
<path fill="none" stroke="midnightblue" d="M475.24,-56.44C453.68,-47.56 419.74,-33.56 395.21,-23.45"/>
<polygon fill="midnightblue" stroke="midnightblue" points="396.24,-20.09 385.66,-19.52 393.57,-26.56 396.24,-20.09"/>
</g>
<!-- Node19 -->
<g id="node19" class="node">
<title>Node19</title>
<g id="a_node19"><a xlink:title=" ">
<polygon fill="none" stroke="#bfbfbf" points="411.5,-0.5 411.5,-19.5 484.5,-19.5 484.5,-0.5 411.5,-0.5"/>
<text text-anchor="middle" x="448" y="-7.5" font-family="Helvetica,sans-Serif" font-size="10.00">string_view</text>
</a>
</g>
</g>
<!-- Node13&#45;&gt;Node19 -->
<g id="edge23" class="edge">
<title>Node13&#45;&gt;Node19</title>
<path fill="none" stroke="midnightblue" d="M488.07,-56.08C481.15,-48.3 470.93,-36.8 462.55,-27.37"/>
<polygon fill="midnightblue" stroke="midnightblue" points="465.04,-24.9 455.78,-19.75 459.81,-29.55 465.04,-24.9"/>
</g>
<!-- Node20 -->
<g id="node20" class="node">
<title>Node20</title>
<g id="a_node20"><a xlink:title=" ">
<polygon fill="none" stroke="#bfbfbf" points="502.5,-0.5 502.5,-19.5 595.5,-19.5 595.5,-0.5 502.5,-0.5"/>
<text text-anchor="middle" x="549" y="-7.5" font-family="Helvetica,sans-Serif" font-size="10.00">unordered_map</text>
</a>
</g>
</g>
<!-- Node13&#45;&gt;Node20 -->
<g id="edge24" class="edge">
<title>Node13&#45;&gt;Node20</title>
<path fill="none" stroke="midnightblue" d="M504.75,-56.08C512.47,-48.22 523.9,-36.57 533.22,-27.08"/>
<polygon fill="midnightblue" stroke="midnightblue" points="535.9,-29.34 540.41,-19.75 530.91,-24.44 535.9,-29.34"/>
</g>
<!-- Node21&#45;&gt;Node13 -->
<g id="edge27" class="edge">
<title>Node21&#45;&gt;Node13</title>
<path fill="none" stroke="midnightblue" d="M585.71,-168.32C576.38,-155.61 558.13,-131.32 541,-112 532.02,-101.87 521.33,-91.13 512.62,-82.69"/>
<polygon fill="midnightblue" stroke="midnightblue" points="514.93,-80.05 505.29,-75.66 510.09,-85.1 514.93,-80.05"/>
</g>
<!-- Node21&#45;&gt;Node22 -->
<g id="edge28" class="edge">
<title>Node21&#45;&gt;Node22</title>
<path fill="none" stroke="midnightblue" d="M571.88,-168.44C550.98,-159.56 518.07,-145.56 494.28,-135.45"/>
<polygon fill="midnightblue" stroke="midnightblue" points="495.6,-132.21 485.03,-131.52 492.86,-138.65 495.6,-132.21"/>
</g>
<!-- Node22&#45;&gt;Node13 -->
<g id="edge29" class="edge">
<title>Node22&#45;&gt;Node13</title>
<path fill="none" stroke="midnightblue" d="M470.12,-112.08C474.41,-104.61 480.66,-93.72 485.94,-84.52"/>
<polygon fill="midnightblue" stroke="midnightblue" points="489.03,-86.17 490.98,-75.75 482.96,-82.68 489.03,-86.17"/>
</g>
<!-- Node23&#45;&gt;Node13 -->
<g id="edge35" class="edge">
<title>Node23&#45;&gt;Node13</title>
<path fill="none" stroke="midnightblue" d="M524.16,-224.43C522.12,-204.55 516.47,-153.79 508,-112 506.21,-103.17 503.71,-93.51 501.45,-85.41"/>
<polygon fill="midnightblue" stroke="midnightblue" points="504.74,-84.2 498.61,-75.55 498.01,-86.13 504.74,-84.2"/>
</g>
<!-- Node23&#45;&gt;Node21 -->
<g id="edge34" class="edge">
<title>Node23&#45;&gt;Node21</title>
<path fill="none" stroke="midnightblue" d="M535.76,-224.32C545.77,-216.26 560.89,-204.08 572.93,-194.37"/>
<polygon fill="midnightblue" stroke="midnightblue" points="575.45,-196.83 581.04,-187.83 571.06,-191.38 575.45,-196.83"/>
</g>
<!-- Node23&#45;&gt;Node22 -->
<g id="edge36" class="edge">
<title>Node23&#45;&gt;Node22</title>
<path fill="none" stroke="midnightblue" d="M520.29,-224.37C510.48,-206.38 487.66,-164.55 474.61,-140.63"/>
<polygon fill="midnightblue" stroke="midnightblue" points="477.55,-138.69 469.69,-131.59 471.4,-142.05 477.55,-138.69"/>
</g>
</g>
</svg>
