<?xml version="1.0" encoding="UTF-8" standalone="no"?>
<!DOCTYPE svg PUBLIC "-//W3C//DTD SVG 1.1//EN"
 "http://www.w3.org/Graphics/SVG/1.1/DTD/svg11.dtd">
<!-- Generated by graphviz version 2.43.0 (0)
 -->
<!-- Title: /home/runner/work/Simulatio/Simulatio/engine/include/Corpses/Polygon.hpp Pages: 1 -->
<svg width="941pt" height="498pt"
 viewBox="0.00 0.00 941.00 498.00" xmlns="http://www.w3.org/2000/svg" xmlns:xlink="http://www.w3.org/1999/xlink">
<g id="graph0" class="graph" transform="scale(1 1) rotate(0) translate(4 494)">
<title>/home/runner/work/Simulatio/Simulatio/engine/include/Corpses/Polygon.hpp</title>
<!-- Node1 -->
<g id="node1" class="node">
<title>Node1</title>
<g id="a_node1"><a xlink:title=" ">
<polygon fill="#bfbfbf" stroke="black" points="0,-448.5 0,-489.5 158,-489.5 158,-448.5 0,-448.5"/>
<text text-anchor="start" x="8" y="-477.5" font-family="Helvetica,sans-Serif" font-size="10.00">/home/runner/work/Simulatio</text>
<text text-anchor="start" x="8" y="-466.5" font-family="Helvetica,sans-Serif" font-size="10.00">/Simulatio/engine/include</text>
<text text-anchor="middle" x="79" y="-455.5" font-family="Helvetica,sans-Serif" font-size="10.00">/Corpses/Polygon.hpp</text>
</a>
</g>
</g>
<!-- Node2 -->
<g id="node2" class="node">
<title>Node2</title>
<g id="a_node2"><a xlink:title=" ">
<polygon fill="none" stroke="#bfbfbf" points="40.5,-0.5 40.5,-19.5 87.5,-19.5 87.5,-0.5 40.5,-0.5"/>
<text text-anchor="middle" x="64" y="-7.5" font-family="Helvetica,sans-Serif" font-size="10.00">vector</text>
</a>
</g>
</g>
<!-- Node1&#45;&gt;Node2 -->
<g id="edge1" class="edge">
<title>Node1&#45;&gt;Node2</title>
<path fill="none" stroke="midnightblue" d="M61.56,-448.42C53.16,-438.16 43.53,-425.04 37,-412 23.53,-385.08 18,-377.1 18,-347 18,-347 18,-347 18,-121 18,-85.82 38.28,-48.86 51.91,-28"/>
<polygon fill="midnightblue" stroke="midnightblue" points="54.88,-29.85 57.6,-19.61 49.09,-25.92 54.88,-29.85"/>
</g>
<!-- Node3 -->
<g id="node3" class="node">
<title>Node3</title>
<g id="a_node3"><a xlink:href="_circle_8hpp.html" target="_top" xlink:title=" ">
<polygon fill="none" stroke="black" points="46.5,-392.5 46.5,-411.5 111.5,-411.5 111.5,-392.5 46.5,-392.5"/>
<text text-anchor="middle" x="79" y="-399.5" font-family="Helvetica,sans-Serif" font-size="10.00">Circle.hpp</text>
</a>
</g>
</g>
<!-- Node1&#45;&gt;Node3 -->
<g id="edge2" class="edge">
<title>Node1&#45;&gt;Node3</title>
<path fill="none" stroke="midnightblue" d="M72.75,-448.5C72.06,-439.97 72.08,-430.01 72.83,-421.59"/>
<polygon fill="midnightblue" stroke="midnightblue" points="76.3,-422.04 74.24,-411.65 69.37,-421.06 76.3,-422.04"/>
</g>
<!-- Node4 -->
<g id="node4" class="node">
<title>Node4</title>
<g id="a_node4"><a xlink:title=" ">
<polygon fill="none" stroke="#bfbfbf" points="113,-224.5 113,-243.5 181,-243.5 181,-224.5 113,-224.5"/>
<text text-anchor="middle" x="147" y="-231.5" font-family="Helvetica,sans-Serif" font-size="10.00">Config.hpp</text>
</a>
</g>
</g>
<!-- Node1&#45;&gt;Node4 -->
<g id="edge40" class="edge">
<title>Node1&#45;&gt;Node4</title>
<path fill="none" stroke="midnightblue" d="M96.96,-448.44C105.28,-438.29 114.53,-425.25 120,-412 142.4,-357.77 146.44,-287.29 147.03,-254"/>
<polygon fill="midnightblue" stroke="midnightblue" points="150.53,-253.89 147.11,-243.87 143.53,-253.84 150.53,-253.89"/>
</g>
<!-- Node5 -->
<g id="node5" class="node">
<title>Node5</title>
<g id="a_node5"><a xlink:href="_corpse_8hpp.html" target="_top" xlink:title=" ">
<polygon fill="none" stroke="black" points="199.5,-336.5 199.5,-355.5 270.5,-355.5 270.5,-336.5 199.5,-336.5"/>
<text text-anchor="middle" x="235" y="-343.5" font-family="Helvetica,sans-Serif" font-size="10.00">Corpse.hpp</text>
</a>
</g>
</g>
<!-- Node1&#45;&gt;Node5 -->
<g id="edge41" class="edge">
<title>Node1&#45;&gt;Node5</title>
<path fill="none" stroke="midnightblue" d="M105.9,-448.27C120.26,-437.64 138.2,-424.24 154,-412 175.65,-395.24 200.12,-375.49 216.45,-362.19"/>
<polygon fill="midnightblue" stroke="midnightblue" points="219.07,-364.57 224.61,-355.53 214.65,-359.14 219.07,-364.57"/>
</g>
<!-- Node3&#45;&gt;Node1 -->
<g id="edge39" class="edge">
<title>Node3&#45;&gt;Node1</title>
<path fill="none" stroke="midnightblue" d="M83.76,-411.65C85.23,-418.52 85.88,-428.56 85.73,-438.26"/>
<polygon fill="midnightblue" stroke="midnightblue" points="82.22,-438.34 85.25,-448.5 89.21,-438.67 82.22,-438.34"/>
</g>
<!-- Node3&#45;&gt;Node2 -->
<g id="edge3" class="edge">
<title>Node3&#45;&gt;Node2</title>
<path fill="none" stroke="midnightblue" d="M77.04,-392.5C72.97,-374.09 64,-329.16 64,-291 64,-291 64,-291 64,-121 64,-88.95 64,-51.64 64,-29.75"/>
<polygon fill="midnightblue" stroke="midnightblue" points="67.5,-29.56 64,-19.56 60.5,-29.56 67.5,-29.56"/>
</g>
<!-- Node3&#45;&gt;Node4 -->
<g id="edge4" class="edge">
<title>Node3&#45;&gt;Node4</title>
<path fill="none" stroke="midnightblue" d="M82.11,-392.41C89.38,-372.49 108.21,-321.66 126,-280 129.9,-270.87 134.54,-260.85 138.47,-252.58"/>
<polygon fill="midnightblue" stroke="midnightblue" points="141.63,-254.08 142.8,-243.55 135.32,-251.05 141.63,-254.08"/>
</g>
<!-- Node3&#45;&gt;Node5 -->
<g id="edge5" class="edge">
<title>Node3&#45;&gt;Node5</title>
<path fill="none" stroke="midnightblue" d="M103.72,-392.44C129.85,-383.4 171.26,-369.06 200.58,-358.92"/>
<polygon fill="midnightblue" stroke="midnightblue" points="202.09,-362.1 210.4,-355.52 199.8,-355.48 202.09,-362.1"/>
</g>
<!-- Node5&#45;&gt;Node2 -->
<g id="edge9" class="edge">
<title>Node5&#45;&gt;Node2</title>
<path fill="none" stroke="midnightblue" d="M232.44,-336.25C227.25,-317.74 216,-273.18 216,-235 216,-235 216,-235 216,-121 216,-90.56 135.01,-45.95 91.27,-24.07"/>
<polygon fill="midnightblue" stroke="midnightblue" points="92.55,-20.8 82.03,-19.52 89.45,-27.08 92.55,-20.8"/>
</g>
<!-- Node5&#45;&gt;Node4 -->
<g id="edge38" class="edge">
<title>Node5&#45;&gt;Node4</title>
<path fill="none" stroke="midnightblue" d="M228.09,-336.37C213.51,-318.14 179.34,-275.43 160.34,-251.68"/>
<polygon fill="midnightblue" stroke="midnightblue" points="162.85,-249.21 153.87,-243.59 157.39,-253.59 162.85,-249.21"/>
</g>
<!-- Node6 -->
<g id="node6" class="node">
<title>Node6</title>
<g id="a_node6"><a xlink:title=" ">
<polygon fill="none" stroke="#bfbfbf" points="807.5,-0.5 807.5,-19.5 854.5,-19.5 854.5,-0.5 807.5,-0.5"/>
<text text-anchor="middle" x="831" y="-7.5" font-family="Helvetica,sans-Serif" font-size="10.00">cmath</text>
</a>
</g>
</g>
<!-- Node5&#45;&gt;Node6 -->
<g id="edge6" class="edge">
<title>Node5&#45;&gt;Node6</title>
<path fill="none" stroke="midnightblue" d="M270.88,-345.19C389.72,-344.85 763,-335.77 763,-235 763,-235 763,-235 763,-121 763,-82.55 793.43,-46.31 813.58,-26.54"/>
<polygon fill="midnightblue" stroke="midnightblue" points="816.1,-28.98 820.97,-19.57 811.29,-23.89 816.1,-28.98"/>
</g>
<!-- Node7 -->
<g id="node7" class="node">
<title>Node7</title>
<g id="a_node7"><a xlink:title=" ">
<polygon fill="none" stroke="#bfbfbf" points="873,-0.5 873,-19.5 933,-19.5 933,-0.5 873,-0.5"/>
<text text-anchor="middle" x="903" y="-7.5" font-family="Helvetica,sans-Serif" font-size="10.00">iostream</text>
</a>
</g>
</g>
<!-- Node5&#45;&gt;Node7 -->
<g id="edge7" class="edge">
<title>Node5&#45;&gt;Node7</title>
<path fill="none" stroke="midnightblue" d="M270.59,-343.51C368.51,-339.12 640.33,-324.99 726,-300 786.49,-282.35 852,-298.01 852,-235 852,-235 852,-235 852,-121 852,-85.24 874.45,-48.51 889.56,-27.84"/>
<polygon fill="midnightblue" stroke="midnightblue" points="892.43,-29.85 895.69,-19.77 886.86,-25.61 892.43,-29.85"/>
</g>
<!-- Node8 -->
<g id="node8" class="node">
<title>Node8</title>
<g id="a_node8"><a xlink:title=" ">
<polygon fill="none" stroke="#bfbfbf" points="106,-0.5 106,-19.5 164,-19.5 164,-0.5 106,-0.5"/>
<text text-anchor="middle" x="135" y="-7.5" font-family="Helvetica,sans-Serif" font-size="10.00">memory</text>
</a>
</g>
</g>
<!-- Node5&#45;&gt;Node8 -->
<g id="edge8" class="edge">
<title>Node5&#45;&gt;Node8</title>
<path fill="none" stroke="midnightblue" d="M237.56,-336.25C242.75,-317.74 254,-273.18 254,-235 254,-235 254,-235 254,-121 254,-90.2 250.79,-78.72 230,-56 215.1,-39.72 193.08,-28.78 173.99,-21.77"/>
<polygon fill="midnightblue" stroke="midnightblue" points="174.93,-18.39 164.33,-18.45 172.65,-25.01 174.93,-18.39"/>
</g>
<!-- Node9 -->
<g id="node9" class="node">
<title>Node9</title>
<g id="a_node9"><a xlink:href="_geometry_8hpp.html" target="_top" xlink:title=" ">
<polygon fill="none" stroke="black" points="385,-280.5 385,-299.5 531,-299.5 531,-280.5 385,-280.5"/>
<text text-anchor="middle" x="458" y="-287.5" font-family="Helvetica,sans-Serif" font-size="10.00">../Geometry/Geometry.hpp</text>
</a>
</g>
</g>
<!-- Node5&#45;&gt;Node9 -->
<g id="edge10" class="edge">
<title>Node5&#45;&gt;Node9</title>
<path fill="none" stroke="midnightblue" d="M270.34,-336.44C308.91,-327.1 370.78,-312.12 412.85,-301.93"/>
<polygon fill="midnightblue" stroke="midnightblue" points="413.93,-305.27 422.83,-299.52 412.29,-298.47 413.93,-305.27"/>
</g>
<!-- Node9&#45;&gt;Node4 -->
<g id="edge31" class="edge">
<title>Node9&#45;&gt;Node4</title>
<path fill="none" stroke="midnightblue" d="M408.72,-280.44C348.78,-270.04 248.49,-252.62 191.03,-242.64"/>
<polygon fill="midnightblue" stroke="midnightblue" points="191.61,-239.19 181.16,-240.93 190.41,-246.09 191.61,-239.19"/>
</g>
<!-- Node10 -->
<g id="node10" class="node">
<title>Node10</title>
<g id="a_node10"><a xlink:href="_recorder_8hpp.html" target="_top" xlink:title=" ">
<polygon fill="none" stroke="black" points="282,-224.5 282,-243.5 430,-243.5 430,-224.5 282,-224.5"/>
<text text-anchor="middle" x="356" y="-231.5" font-family="Helvetica,sans-Serif" font-size="10.00">../Benchmark/Recorder.hpp</text>
</a>
</g>
</g>
<!-- Node9&#45;&gt;Node10 -->
<g id="edge11" class="edge">
<title>Node9&#45;&gt;Node10</title>
<path fill="none" stroke="midnightblue" d="M441.61,-280.32C425.33,-271.7 400.13,-258.36 381.28,-248.39"/>
<polygon fill="midnightblue" stroke="midnightblue" points="382.82,-245.24 372.35,-243.65 379.55,-251.43 382.82,-245.24"/>
</g>
<!-- Node13 -->
<g id="node13" class="node">
<title>Node13</title>
<g id="a_node13"><a xlink:href="_maths_8hpp.html" target="_top" xlink:title=" ">
<polygon fill="none" stroke="black" points="449,-56.5 449,-75.5 577,-75.5 577,-56.5 449,-56.5"/>
<text text-anchor="middle" x="513" y="-63.5" font-family="Helvetica,sans-Serif" font-size="10.00">../Geometry/Maths.hpp</text>
</a>
</g>
</g>
<!-- Node9&#45;&gt;Node13 -->
<g id="edge32" class="edge">
<title>Node9&#45;&gt;Node13</title>
<path fill="none" stroke="midnightblue" d="M503.09,-280.5C530.54,-273.78 565.33,-262.39 592,-244 618.52,-225.72 627.14,-218.32 638,-188 656.22,-137.11 587.88,-98.24 545.09,-79.45"/>
<polygon fill="midnightblue" stroke="midnightblue" points="546.45,-76.22 535.88,-75.54 543.71,-82.67 546.45,-76.22"/>
</g>
<!-- Node22 -->
<g id="node22" class="node">
<title>Node22</title>
<g id="a_node22"><a xlink:href="_bounds_8hpp.html" target="_top" xlink:title=" ">
<polygon fill="none" stroke="black" points="555,-168.5 555,-187.5 629,-187.5 629,-168.5 555,-168.5"/>
<text text-anchor="middle" x="592" y="-175.5" font-family="Helvetica,sans-Serif" font-size="10.00">Bounds.hpp</text>
</a>
</g>
</g>
<!-- Node9&#45;&gt;Node22 -->
<g id="edge27" class="edge">
<title>Node9&#45;&gt;Node22</title>
<path fill="none" stroke="midnightblue" d="M506.18,-280.46C529.28,-274.05 555.63,-262.98 573,-244 584.52,-231.41 589.09,-212.19 590.88,-197.91"/>
<polygon fill="midnightblue" stroke="midnightblue" points="594.38,-198.02 591.8,-187.75 587.41,-197.39 594.38,-198.02"/>
</g>
<!-- Node23 -->
<g id="node23" class="node">
<title>Node23</title>
<g id="a_node23"><a xlink:href="_vector_8hpp.html" target="_top" xlink:title=" ">
<polygon fill="none" stroke="black" points="431,-112.5 431,-131.5 499,-131.5 499,-112.5 431,-112.5"/>
<text text-anchor="middle" x="465" y="-119.5" font-family="Helvetica,sans-Serif" font-size="10.00">Vector.hpp</text>
</a>
</g>
</g>
<!-- Node9&#45;&gt;Node23 -->
<g id="edge33" class="edge">
<title>Node9&#45;&gt;Node23</title>
<path fill="none" stroke="midnightblue" d="M458.38,-280.08C459.48,-253.95 462.71,-177.21 464.22,-141.58"/>
<polygon fill="midnightblue" stroke="midnightblue" points="467.71,-141.71 464.64,-131.57 460.72,-141.41 467.71,-141.71"/>
</g>
<!-- Node24 -->
<g id="node24" class="node">
<title>Node24</title>
<g id="a_node24"><a xlink:href="_vertices_8hpp.html" target="_top" xlink:title=" ">
<polygon fill="none" stroke="black" points="486.5,-224.5 486.5,-243.5 563.5,-243.5 563.5,-224.5 486.5,-224.5"/>
<text text-anchor="middle" x="525" y="-231.5" font-family="Helvetica,sans-Serif" font-size="10.00">Vertices.hpp</text>
</a>
</g>
</g>
<!-- Node9&#45;&gt;Node24 -->
<g id="edge34" class="edge">
<title>Node9&#45;&gt;Node24</title>
<path fill="none" stroke="midnightblue" d="M468.76,-280.32C478.77,-272.26 493.89,-260.08 505.93,-250.37"/>
<polygon fill="midnightblue" stroke="midnightblue" points="508.45,-252.83 514.04,-243.83 504.06,-247.38 508.45,-252.83"/>
</g>
<!-- Node11 -->
<g id="node11" class="node">
<title>Node11</title>
<g id="a_node11"><a xlink:href="_performance_8hpp.html" target="_top" xlink:title=" ">
<polygon fill="none" stroke="black" points="309,-168.5 309,-187.5 409,-187.5 409,-168.5 309,-168.5"/>
<text text-anchor="middle" x="359" y="-175.5" font-family="Helvetica,sans-Serif" font-size="10.00">Performance.hpp</text>
</a>
</g>
</g>
<!-- Node10&#45;&gt;Node11 -->
<g id="edge12" class="edge">
<title>Node10&#45;&gt;Node11</title>
<path fill="none" stroke="midnightblue" d="M356.5,-224.08C356.89,-217.01 357.45,-206.86 357.95,-197.99"/>
<polygon fill="midnightblue" stroke="midnightblue" points="361.45,-197.93 358.51,-187.75 354.46,-197.54 361.45,-197.93"/>
</g>
<!-- Node12 -->
<g id="node12" class="node">
<title>Node12</title>
<g id="a_node12"><a xlink:href="_block_data_8hpp.html" target="_top" xlink:title=" ">
<polygon fill="none" stroke="black" points="319,-112.5 319,-131.5 407,-131.5 407,-112.5 319,-112.5"/>
<text text-anchor="middle" x="363" y="-119.5" font-family="Helvetica,sans-Serif" font-size="10.00">BlockData.hpp</text>
</a>
</g>
</g>
<!-- Node11&#45;&gt;Node12 -->
<g id="edge13" class="edge">
<title>Node11&#45;&gt;Node12</title>
<path fill="none" stroke="midnightblue" d="M359.66,-168.08C360.18,-161.01 360.94,-150.86 361.59,-141.99"/>
<polygon fill="midnightblue" stroke="midnightblue" points="365.1,-141.98 362.35,-131.75 358.12,-141.47 365.1,-141.98"/>
</g>
<!-- Node12&#45;&gt;Node13 -->
<g id="edge14" class="edge">
<title>Node12&#45;&gt;Node13</title>
<path fill="none" stroke="midnightblue" d="M386.77,-112.44C411.89,-103.4 451.71,-89.06 479.9,-78.92"/>
<polygon fill="midnightblue" stroke="midnightblue" points="481.12,-82.2 489.34,-75.52 478.75,-75.61 481.12,-82.2"/>
</g>
<!-- Node13&#45;&gt;Node2 -->
<g id="edge26" class="edge">
<title>Node13&#45;&gt;Node2</title>
<path fill="none" stroke="midnightblue" d="M448.75,-61.22C368.71,-55.81 227.69,-43.95 97.82,-19.85"/>
<polygon fill="midnightblue" stroke="midnightblue" points="98.16,-16.36 87.69,-17.94 96.87,-23.23 98.16,-16.36"/>
</g>
<!-- Node13&#45;&gt;Node6 -->
<g id="edge17" class="edge">
<title>Node13&#45;&gt;Node6</title>
<path fill="none" stroke="midnightblue" d="M577.04,-56.93C632.78,-49.45 715.9,-37.17 797.36,-19.93"/>
<polygon fill="midnightblue" stroke="midnightblue" points="798.24,-23.32 807.28,-17.8 796.77,-16.48 798.24,-23.32"/>
</g>
<!-- Node13&#45;&gt;Node7 -->
<g id="edge20" class="edge">
<title>Node13&#45;&gt;Node7</title>
<path fill="none" stroke="midnightblue" d="M577.02,-58.72C645.47,-51.58 757.34,-38.65 862.96,-20.03"/>
<polygon fill="midnightblue" stroke="midnightblue" points="863.6,-23.48 872.83,-18.27 862.37,-16.58 863.6,-23.48"/>
</g>
<!-- Node13&#45;&gt;Node8 -->
<g id="edge22" class="edge">
<title>Node13&#45;&gt;Node8</title>
<path fill="none" stroke="midnightblue" d="M448.78,-58.46C382.4,-51.25 275.61,-38.43 174.48,-20.12"/>
<polygon fill="midnightblue" stroke="midnightblue" points="174.86,-16.63 164.4,-18.27 173.6,-23.52 174.86,-16.63"/>
</g>
<!-- Node14 -->
<g id="node14" class="node">
<title>Node14</title>
<g id="a_node14"><a xlink:title=" ">
<polygon fill="none" stroke="#bfbfbf" points="679,-0.5 679,-19.5 721,-19.5 721,-0.5 679,-0.5"/>
<text text-anchor="middle" x="700" y="-7.5" font-family="Helvetica,sans-Serif" font-size="10.00">array</text>
</a>
</g>
</g>
<!-- Node13&#45;&gt;Node14 -->
<g id="edge15" class="edge">
<title>Node13&#45;&gt;Node14</title>
<path fill="none" stroke="midnightblue" d="M543.13,-56.48C572.78,-48.07 619.6,-34.73 668.83,-20.32"/>
<polygon fill="midnightblue" stroke="midnightblue" points="670.09,-23.6 678.7,-17.42 668.12,-16.88 670.09,-23.6"/>
</g>
<!-- Node15 -->
<g id="node15" class="node">
<title>Node15</title>
<g id="a_node15"><a xlink:title=" ">
<polygon fill="none" stroke="#bfbfbf" points="739,-0.5 739,-19.5 789,-19.5 789,-0.5 739,-0.5"/>
<text text-anchor="middle" x="764" y="-7.5" font-family="Helvetica,sans-Serif" font-size="10.00">chrono</text>
</a>
</g>
</g>
<!-- Node13&#45;&gt;Node15 -->
<g id="edge16" class="edge">
<title>Node13&#45;&gt;Node15</title>
<path fill="none" stroke="midnightblue" d="M557.62,-56.48C599.46,-48.33 663.96,-35.35 728.8,-20.19"/>
<polygon fill="midnightblue" stroke="midnightblue" points="729.86,-23.54 738.79,-17.84 728.25,-16.72 729.86,-23.54"/>
</g>
<!-- Node16 -->
<g id="node16" class="node">
<title>Node16</title>
<g id="a_node16"><a xlink:title=" ">
<polygon fill="none" stroke="#bfbfbf" points="182.5,-0.5 182.5,-19.5 229.5,-19.5 229.5,-0.5 182.5,-0.5"/>
<text text-anchor="middle" x="206" y="-7.5" font-family="Helvetica,sans-Serif" font-size="10.00">deque</text>
</a>
</g>
</g>
<!-- Node13&#45;&gt;Node16 -->
<g id="edge18" class="edge">
<title>Node13&#45;&gt;Node16</title>
<path fill="none" stroke="midnightblue" d="M448.99,-56.6C395.3,-49.08 316.46,-36.94 239.55,-20.16"/>
<polygon fill="midnightblue" stroke="midnightblue" points="240.21,-16.72 229.69,-17.98 238.7,-23.56 240.21,-16.72"/>
</g>
<!-- Node17 -->
<g id="node17" class="node">
<title>Node17</title>
<g id="a_node17"><a xlink:title=" ">
<polygon fill="none" stroke="#bfbfbf" points="247.5,-0.5 247.5,-19.5 312.5,-19.5 312.5,-0.5 247.5,-0.5"/>
<text text-anchor="middle" x="280" y="-7.5" font-family="Helvetica,sans-Serif" font-size="10.00">functional</text>
</a>
</g>
</g>
<!-- Node13&#45;&gt;Node17 -->
<g id="edge19" class="edge">
<title>Node13&#45;&gt;Node17</title>
<path fill="none" stroke="midnightblue" d="M476.08,-56.44C434.3,-46.76 366.35,-31.01 322.42,-20.83"/>
<polygon fill="midnightblue" stroke="midnightblue" points="323.14,-17.41 312.61,-18.56 321.56,-24.23 323.14,-17.41"/>
</g>
<!-- Node18 -->
<g id="node18" class="node">
<title>Node18</title>
<g id="a_node18"><a xlink:title=" ">
<polygon fill="none" stroke="#bfbfbf" points="330.5,-0.5 330.5,-19.5 383.5,-19.5 383.5,-0.5 330.5,-0.5"/>
<text text-anchor="middle" x="357" y="-7.5" font-family="Helvetica,sans-Serif" font-size="10.00">iterator</text>
</a>
</g>
</g>
<!-- Node13&#45;&gt;Node18 -->
<g id="edge21" class="edge">
<title>Node13&#45;&gt;Node18</title>
<path fill="none" stroke="midnightblue" d="M488.28,-56.44C462.15,-47.4 420.74,-33.06 391.42,-22.92"/>
<polygon fill="midnightblue" stroke="midnightblue" points="392.2,-19.48 381.6,-19.52 389.91,-26.1 392.2,-19.48"/>
</g>
<!-- Node19 -->
<g id="node19" class="node">
<title>Node19</title>
<g id="a_node19"><a xlink:title=" ">
<polygon fill="none" stroke="#bfbfbf" points="402,-0.5 402,-19.5 458,-19.5 458,-0.5 402,-0.5"/>
<text text-anchor="middle" x="430" y="-7.5" font-family="Helvetica,sans-Serif" font-size="10.00">sstream</text>
</a>
</g>
</g>
<!-- Node13&#45;&gt;Node19 -->
<g id="edge23" class="edge">
<title>Node13&#45;&gt;Node19</title>
<path fill="none" stroke="midnightblue" d="M499.66,-56.32C486.84,-47.98 467.22,-35.21 452.06,-25.35"/>
<polygon fill="midnightblue" stroke="midnightblue" points="453.59,-22.17 443.3,-19.65 449.78,-28.04 453.59,-22.17"/>
</g>
<!-- Node20 -->
<g id="node20" class="node">
<title>Node20</title>
<g id="a_node20"><a xlink:title=" ">
<polygon fill="none" stroke="#bfbfbf" points="476.5,-0.5 476.5,-19.5 549.5,-19.5 549.5,-0.5 476.5,-0.5"/>
<text text-anchor="middle" x="513" y="-7.5" font-family="Helvetica,sans-Serif" font-size="10.00">string_view</text>
</a>
</g>
</g>
<!-- Node13&#45;&gt;Node20 -->
<g id="edge24" class="edge">
<title>Node13&#45;&gt;Node20</title>
<path fill="none" stroke="midnightblue" d="M513,-56.08C513,-49.01 513,-38.86 513,-29.99"/>
<polygon fill="midnightblue" stroke="midnightblue" points="516.5,-29.75 513,-19.75 509.5,-29.75 516.5,-29.75"/>
</g>
<!-- Node21 -->
<g id="node21" class="node">
<title>Node21</title>
<g id="a_node21"><a xlink:title=" ">
<polygon fill="none" stroke="#bfbfbf" points="567.5,-0.5 567.5,-19.5 660.5,-19.5 660.5,-0.5 567.5,-0.5"/>
<text text-anchor="middle" x="614" y="-7.5" font-family="Helvetica,sans-Serif" font-size="10.00">unordered_map</text>
</a>
</g>
</g>
<!-- Node13&#45;&gt;Node21 -->
<g id="edge25" class="edge">
<title>Node13&#45;&gt;Node21</title>
<path fill="none" stroke="midnightblue" d="M529.23,-56.32C545.35,-47.7 570.3,-34.36 588.96,-24.39"/>
<polygon fill="midnightblue" stroke="midnightblue" points="590.64,-27.46 597.81,-19.65 587.34,-21.28 590.64,-27.46"/>
</g>
<!-- Node22&#45;&gt;Node13 -->
<g id="edge28" class="edge">
<title>Node22&#45;&gt;Node13</title>
<path fill="none" stroke="midnightblue" d="M585.8,-168.37C572.76,-150.22 542.3,-107.8 525.2,-83.99"/>
<polygon fill="midnightblue" stroke="midnightblue" points="527.85,-81.67 519.17,-75.59 522.16,-85.76 527.85,-81.67"/>
</g>
<!-- Node22&#45;&gt;Node23 -->
<g id="edge29" class="edge">
<title>Node22&#45;&gt;Node23</title>
<path fill="none" stroke="midnightblue" d="M571.88,-168.44C550.98,-159.56 518.07,-145.56 494.28,-135.45"/>
<polygon fill="midnightblue" stroke="midnightblue" points="495.6,-132.21 485.03,-131.52 492.86,-138.65 495.6,-132.21"/>
</g>
<!-- Node23&#45;&gt;Node13 -->
<g id="edge30" class="edge">
<title>Node23&#45;&gt;Node13</title>
<path fill="none" stroke="midnightblue" d="M472.93,-112.08C479.85,-104.3 490.07,-92.8 498.45,-83.37"/>
<polygon fill="midnightblue" stroke="midnightblue" points="501.19,-85.55 505.22,-75.75 495.96,-80.9 501.19,-85.55"/>
</g>
<!-- Node24&#45;&gt;Node13 -->
<g id="edge36" class="edge">
<title>Node24&#45;&gt;Node13</title>
<path fill="none" stroke="midnightblue" d="M524.35,-224.08C522.47,-197.95 516.92,-121.21 514.34,-85.58"/>
<polygon fill="midnightblue" stroke="midnightblue" points="517.83,-85.29 513.62,-75.57 510.85,-85.79 517.83,-85.29"/>
</g>
<!-- Node24&#45;&gt;Node22 -->
<g id="edge35" class="edge">
<title>Node24&#45;&gt;Node22</title>
<path fill="none" stroke="midnightblue" d="M535.76,-224.32C545.77,-216.26 560.89,-204.08 572.93,-194.37"/>
<polygon fill="midnightblue" stroke="midnightblue" points="575.45,-196.83 581.04,-187.83 571.06,-191.38 575.45,-196.83"/>
</g>
<!-- Node24&#45;&gt;Node23 -->
<g id="edge37" class="edge">
<title>Node24&#45;&gt;Node23</title>
<path fill="none" stroke="midnightblue" d="M520.29,-224.37C510.48,-206.38 487.66,-164.55 474.61,-140.63"/>
<polygon fill="midnightblue" stroke="midnightblue" points="477.55,-138.69 469.69,-131.59 471.4,-142.05 477.55,-138.69"/>
</g>
</g>
</svg>
