<?xml version="1.0" encoding="UTF-8" standalone="no"?>
<!DOCTYPE svg PUBLIC "-//W3C//DTD SVG 1.1//EN"
 "http://www.w3.org/Graphics/SVG/1.1/DTD/svg11.dtd">
<!-- Generated by graphviz version 2.43.0 (0)
 -->
<!-- Title: /home/runner/work/Simulatio/Simulatio/engine/src/Corpses/Polygon.cpp Pages: 1 -->
<svg width="943pt" height="565pt"
 viewBox="0.00 0.00 942.50 565.00" xmlns="http://www.w3.org/2000/svg" xmlns:xlink="http://www.w3.org/1999/xlink">
<g id="graph0" class="graph" transform="scale(1 1) rotate(0) translate(4 561)">
<title>/home/runner/work/Simulatio/Simulatio/engine/src/Corpses/Polygon.cpp</title>
<!-- Node1 -->
<g id="node1" class="node">
<title>Node1</title>
<g id="a_node1"><a xlink:title=" ">
<polygon fill="#bfbfbf" stroke="black" points="0,-515.5 0,-556.5 161,-556.5 161,-515.5 0,-515.5"/>
<text text-anchor="start" x="8" y="-544.5" font-family="Helvetica,sans-Serif" font-size="10.00">/home/runner/work/Simulatio</text>
<text text-anchor="start" x="8" y="-533.5" font-family="Helvetica,sans-Serif" font-size="10.00">/Simulatio/engine/src/Corpses</text>
<text text-anchor="middle" x="80.5" y="-522.5" font-family="Helvetica,sans-Serif" font-size="10.00">/Polygon.cpp</text>
</a>
</g>
</g>
<!-- Node2 -->
<g id="node2" class="node">
<title>Node2</title>
<g id="a_node2"><a xlink:href="_polygon_8hpp.html" target="_top" xlink:title=" ">
<polygon fill="none" stroke="black" points="24.5,-448.5 24.5,-478.5 136.5,-478.5 136.5,-448.5 24.5,-448.5"/>
<text text-anchor="start" x="32.5" y="-466.5" font-family="Helvetica,sans-Serif" font-size="10.00">../../include/Corpses</text>
<text text-anchor="middle" x="80.5" y="-455.5" font-family="Helvetica,sans-Serif" font-size="10.00">/Polygon.hpp</text>
</a>
</g>
</g>
<!-- Node1&#45;&gt;Node2 -->
<g id="edge1" class="edge">
<title>Node1&#45;&gt;Node2</title>
<path fill="none" stroke="midnightblue" d="M80.5,-515.36C80.5,-507.23 80.5,-497.7 80.5,-489.11"/>
<polygon fill="midnightblue" stroke="midnightblue" points="84,-488.89 80.5,-478.89 77,-488.89 84,-488.89"/>
</g>
<!-- Node3 -->
<g id="node3" class="node">
<title>Node3</title>
<g id="a_node3"><a xlink:title=" ">
<polygon fill="none" stroke="#bfbfbf" points="42,-0.5 42,-19.5 89,-19.5 89,-0.5 42,-0.5"/>
<text text-anchor="middle" x="65.5" y="-7.5" font-family="Helvetica,sans-Serif" font-size="10.00">vector</text>
</a>
</g>
</g>
<!-- Node2&#45;&gt;Node3 -->
<g id="edge2" class="edge">
<title>Node2&#45;&gt;Node3</title>
<path fill="none" stroke="midnightblue" d="M65.87,-448.21C56.85,-438.69 45.68,-425.49 38.5,-412 24.36,-385.43 19.5,-377.1 19.5,-347 19.5,-347 19.5,-347 19.5,-121 19.5,-85.82 39.78,-48.86 53.41,-28"/>
<polygon fill="midnightblue" stroke="midnightblue" points="56.38,-29.85 59.1,-19.61 50.59,-25.92 56.38,-29.85"/>
</g>
<!-- Node4 -->
<g id="node4" class="node">
<title>Node4</title>
<g id="a_node4"><a xlink:href="_circle_8hpp.html" target="_top" xlink:title=" ">
<polygon fill="none" stroke="black" points="48,-392.5 48,-411.5 113,-411.5 113,-392.5 48,-392.5"/>
<text text-anchor="middle" x="80.5" y="-399.5" font-family="Helvetica,sans-Serif" font-size="10.00">Circle.hpp</text>
</a>
</g>
</g>
<!-- Node2&#45;&gt;Node4 -->
<g id="edge3" class="edge">
<title>Node2&#45;&gt;Node4</title>
<path fill="none" stroke="midnightblue" d="M74.66,-448.4C73.63,-440.38 73.47,-430.23 74.19,-421.57"/>
<polygon fill="midnightblue" stroke="midnightblue" points="77.66,-422.04 75.57,-411.66 70.73,-421.08 77.66,-422.04"/>
</g>
<!-- Node5 -->
<g id="node5" class="node">
<title>Node5</title>
<g id="a_node5"><a xlink:title=" ">
<polygon fill="none" stroke="#bfbfbf" points="114.5,-224.5 114.5,-243.5 182.5,-243.5 182.5,-224.5 114.5,-224.5"/>
<text text-anchor="middle" x="148.5" y="-231.5" font-family="Helvetica,sans-Serif" font-size="10.00">Config.hpp</text>
</a>
</g>
</g>
<!-- Node2&#45;&gt;Node5 -->
<g id="edge41" class="edge">
<title>Node2&#45;&gt;Node5</title>
<path fill="none" stroke="midnightblue" d="M95.39,-448.45C104.43,-439.03 115.38,-425.84 121.5,-412 145.36,-358.09 148.68,-286.92 148.81,-253.65"/>
<polygon fill="midnightblue" stroke="midnightblue" points="152.31,-253.53 148.74,-243.55 145.31,-253.57 152.31,-253.53"/>
</g>
<!-- Node6 -->
<g id="node6" class="node">
<title>Node6</title>
<g id="a_node6"><a xlink:href="_corpse_8hpp.html" target="_top" xlink:title=" ">
<polygon fill="none" stroke="black" points="201,-336.5 201,-355.5 272,-355.5 272,-336.5 201,-336.5"/>
<text text-anchor="middle" x="236.5" y="-343.5" font-family="Helvetica,sans-Serif" font-size="10.00">Corpse.hpp</text>
</a>
</g>
</g>
<!-- Node2&#45;&gt;Node6 -->
<g id="edge42" class="edge">
<title>Node2&#45;&gt;Node6</title>
<path fill="none" stroke="midnightblue" d="M102.49,-448.39C117.62,-438.51 138.05,-424.84 155.5,-412 177.56,-395.77 201.95,-375.92 218.15,-362.46"/>
<polygon fill="midnightblue" stroke="midnightblue" points="220.8,-364.8 226.23,-355.7 216.32,-359.43 220.8,-364.8"/>
</g>
<!-- Node4&#45;&gt;Node2 -->
<g id="edge40" class="edge">
<title>Node4&#45;&gt;Node2</title>
<path fill="none" stroke="midnightblue" d="M85.43,-411.66C86.93,-418.65 87.51,-428.86 87.14,-438.29"/>
<polygon fill="midnightblue" stroke="midnightblue" points="83.64,-438.15 86.34,-448.4 90.62,-438.71 83.64,-438.15"/>
</g>
<!-- Node4&#45;&gt;Node3 -->
<g id="edge4" class="edge">
<title>Node4&#45;&gt;Node3</title>
<path fill="none" stroke="midnightblue" d="M78.54,-392.5C74.47,-374.09 65.5,-329.16 65.5,-291 65.5,-291 65.5,-291 65.5,-121 65.5,-88.95 65.5,-51.64 65.5,-29.75"/>
<polygon fill="midnightblue" stroke="midnightblue" points="69,-29.56 65.5,-19.56 62,-29.56 69,-29.56"/>
</g>
<!-- Node4&#45;&gt;Node5 -->
<g id="edge5" class="edge">
<title>Node4&#45;&gt;Node5</title>
<path fill="none" stroke="midnightblue" d="M83.61,-392.41C90.88,-372.49 109.71,-321.66 127.5,-280 131.4,-270.87 136.04,-260.85 139.97,-252.58"/>
<polygon fill="midnightblue" stroke="midnightblue" points="143.13,-254.08 144.3,-243.55 136.82,-251.05 143.13,-254.08"/>
</g>
<!-- Node4&#45;&gt;Node6 -->
<g id="edge6" class="edge">
<title>Node4&#45;&gt;Node6</title>
<path fill="none" stroke="midnightblue" d="M105.22,-392.44C131.35,-383.4 172.76,-369.06 202.08,-358.92"/>
<polygon fill="midnightblue" stroke="midnightblue" points="203.59,-362.1 211.9,-355.52 201.3,-355.48 203.59,-362.1"/>
</g>
<!-- Node6&#45;&gt;Node3 -->
<g id="edge10" class="edge">
<title>Node6&#45;&gt;Node3</title>
<path fill="none" stroke="midnightblue" d="M233.94,-336.25C228.75,-317.74 217.5,-273.18 217.5,-235 217.5,-235 217.5,-235 217.5,-121 217.5,-90.56 136.51,-45.95 92.77,-24.07"/>
<polygon fill="midnightblue" stroke="midnightblue" points="94.05,-20.8 83.53,-19.52 90.95,-27.08 94.05,-20.8"/>
</g>
<!-- Node6&#45;&gt;Node5 -->
<g id="edge39" class="edge">
<title>Node6&#45;&gt;Node5</title>
<path fill="none" stroke="midnightblue" d="M229.59,-336.37C215.01,-318.14 180.84,-275.43 161.84,-251.68"/>
<polygon fill="midnightblue" stroke="midnightblue" points="164.35,-249.21 155.37,-243.59 158.89,-253.59 164.35,-249.21"/>
</g>
<!-- Node7 -->
<g id="node7" class="node">
<title>Node7</title>
<g id="a_node7"><a xlink:title=" ">
<polygon fill="none" stroke="#bfbfbf" points="809,-0.5 809,-19.5 856,-19.5 856,-0.5 809,-0.5"/>
<text text-anchor="middle" x="832.5" y="-7.5" font-family="Helvetica,sans-Serif" font-size="10.00">cmath</text>
</a>
</g>
</g>
<!-- Node6&#45;&gt;Node7 -->
<g id="edge7" class="edge">
<title>Node6&#45;&gt;Node7</title>
<path fill="none" stroke="midnightblue" d="M272.38,-345.19C391.22,-344.85 764.5,-335.77 764.5,-235 764.5,-235 764.5,-235 764.5,-121 764.5,-82.55 794.93,-46.31 815.08,-26.54"/>
<polygon fill="midnightblue" stroke="midnightblue" points="817.6,-28.98 822.47,-19.57 812.79,-23.89 817.6,-28.98"/>
</g>
<!-- Node8 -->
<g id="node8" class="node">
<title>Node8</title>
<g id="a_node8"><a xlink:title=" ">
<polygon fill="none" stroke="#bfbfbf" points="874.5,-0.5 874.5,-19.5 934.5,-19.5 934.5,-0.5 874.5,-0.5"/>
<text text-anchor="middle" x="904.5" y="-7.5" font-family="Helvetica,sans-Serif" font-size="10.00">iostream</text>
</a>
</g>
</g>
<!-- Node6&#45;&gt;Node8 -->
<g id="edge8" class="edge">
<title>Node6&#45;&gt;Node8</title>
<path fill="none" stroke="midnightblue" d="M272.09,-343.51C370.01,-339.12 641.83,-324.99 727.5,-300 787.99,-282.35 853.5,-298.01 853.5,-235 853.5,-235 853.5,-235 853.5,-121 853.5,-85.24 875.95,-48.51 891.06,-27.84"/>
<polygon fill="midnightblue" stroke="midnightblue" points="893.93,-29.85 897.19,-19.77 888.36,-25.61 893.93,-29.85"/>
</g>
<!-- Node9 -->
<g id="node9" class="node">
<title>Node9</title>
<g id="a_node9"><a xlink:title=" ">
<polygon fill="none" stroke="#bfbfbf" points="107.5,-0.5 107.5,-19.5 165.5,-19.5 165.5,-0.5 107.5,-0.5"/>
<text text-anchor="middle" x="136.5" y="-7.5" font-family="Helvetica,sans-Serif" font-size="10.00">memory</text>
</a>
</g>
</g>
<!-- Node6&#45;&gt;Node9 -->
<g id="edge9" class="edge">
<title>Node6&#45;&gt;Node9</title>
<path fill="none" stroke="midnightblue" d="M239.06,-336.25C244.25,-317.74 255.5,-273.18 255.5,-235 255.5,-235 255.5,-235 255.5,-121 255.5,-90.2 252.29,-78.72 231.5,-56 216.6,-39.72 194.58,-28.78 175.49,-21.77"/>
<polygon fill="midnightblue" stroke="midnightblue" points="176.43,-18.39 165.83,-18.45 174.15,-25.01 176.43,-18.39"/>
</g>
<!-- Node10 -->
<g id="node10" class="node">
<title>Node10</title>
<g id="a_node10"><a xlink:href="_geometry_8hpp.html" target="_top" xlink:title=" ">
<polygon fill="none" stroke="black" points="386.5,-280.5 386.5,-299.5 532.5,-299.5 532.5,-280.5 386.5,-280.5"/>
<text text-anchor="middle" x="459.5" y="-287.5" font-family="Helvetica,sans-Serif" font-size="10.00">../Geometry/Geometry.hpp</text>
</a>
</g>
</g>
<!-- Node6&#45;&gt;Node10 -->
<g id="edge11" class="edge">
<title>Node6&#45;&gt;Node10</title>
<path fill="none" stroke="midnightblue" d="M271.84,-336.44C310.41,-327.1 372.28,-312.12 414.35,-301.93"/>
<polygon fill="midnightblue" stroke="midnightblue" points="415.43,-305.27 424.33,-299.52 413.79,-298.47 415.43,-305.27"/>
</g>
<!-- Node10&#45;&gt;Node5 -->
<g id="edge32" class="edge">
<title>Node10&#45;&gt;Node5</title>
<path fill="none" stroke="midnightblue" d="M410.22,-280.44C350.28,-270.04 249.99,-252.62 192.53,-242.64"/>
<polygon fill="midnightblue" stroke="midnightblue" points="193.11,-239.19 182.66,-240.93 191.91,-246.09 193.11,-239.19"/>
</g>
<!-- Node11 -->
<g id="node11" class="node">
<title>Node11</title>
<g id="a_node11"><a xlink:href="_recorder_8hpp.html" target="_top" xlink:title=" ">
<polygon fill="none" stroke="black" points="283.5,-224.5 283.5,-243.5 431.5,-243.5 431.5,-224.5 283.5,-224.5"/>
<text text-anchor="middle" x="357.5" y="-231.5" font-family="Helvetica,sans-Serif" font-size="10.00">../Benchmark/Recorder.hpp</text>
</a>
</g>
</g>
<!-- Node10&#45;&gt;Node11 -->
<g id="edge12" class="edge">
<title>Node10&#45;&gt;Node11</title>
<path fill="none" stroke="midnightblue" d="M443.11,-280.32C426.83,-271.7 401.63,-258.36 382.78,-248.39"/>
<polygon fill="midnightblue" stroke="midnightblue" points="384.32,-245.24 373.85,-243.65 381.05,-251.43 384.32,-245.24"/>
</g>
<!-- Node14 -->
<g id="node14" class="node">
<title>Node14</title>
<g id="a_node14"><a xlink:href="_maths_8hpp.html" target="_top" xlink:title=" ">
<polygon fill="none" stroke="black" points="450.5,-56.5 450.5,-75.5 578.5,-75.5 578.5,-56.5 450.5,-56.5"/>
<text text-anchor="middle" x="514.5" y="-63.5" font-family="Helvetica,sans-Serif" font-size="10.00">../Geometry/Maths.hpp</text>
</a>
</g>
</g>
<!-- Node10&#45;&gt;Node14 -->
<g id="edge33" class="edge">
<title>Node10&#45;&gt;Node14</title>
<path fill="none" stroke="midnightblue" d="M504.59,-280.5C532.04,-273.78 566.83,-262.39 593.5,-244 620.02,-225.72 628.64,-218.32 639.5,-188 657.72,-137.11 589.38,-98.24 546.59,-79.45"/>
<polygon fill="midnightblue" stroke="midnightblue" points="547.95,-76.22 537.38,-75.54 545.21,-82.67 547.95,-76.22"/>
</g>
<!-- Node23 -->
<g id="node23" class="node">
<title>Node23</title>
<g id="a_node23"><a xlink:href="_bounds_8hpp.html" target="_top" xlink:title=" ">
<polygon fill="none" stroke="black" points="556.5,-168.5 556.5,-187.5 630.5,-187.5 630.5,-168.5 556.5,-168.5"/>
<text text-anchor="middle" x="593.5" y="-175.5" font-family="Helvetica,sans-Serif" font-size="10.00">Bounds.hpp</text>
</a>
</g>
</g>
<!-- Node10&#45;&gt;Node23 -->
<g id="edge28" class="edge">
<title>Node10&#45;&gt;Node23</title>
<path fill="none" stroke="midnightblue" d="M507.68,-280.46C530.78,-274.05 557.13,-262.98 574.5,-244 586.02,-231.41 590.59,-212.19 592.38,-197.91"/>
<polygon fill="midnightblue" stroke="midnightblue" points="595.88,-198.02 593.3,-187.75 588.91,-197.39 595.88,-198.02"/>
</g>
<!-- Node24 -->
<g id="node24" class="node">
<title>Node24</title>
<g id="a_node24"><a xlink:href="_vector_8hpp.html" target="_top" xlink:title=" ">
<polygon fill="none" stroke="black" points="432.5,-112.5 432.5,-131.5 500.5,-131.5 500.5,-112.5 432.5,-112.5"/>
<text text-anchor="middle" x="466.5" y="-119.5" font-family="Helvetica,sans-Serif" font-size="10.00">Vector.hpp</text>
</a>
</g>
</g>
<!-- Node10&#45;&gt;Node24 -->
<g id="edge34" class="edge">
<title>Node10&#45;&gt;Node24</title>
<path fill="none" stroke="midnightblue" d="M459.88,-280.08C460.98,-253.95 464.21,-177.21 465.72,-141.58"/>
<polygon fill="midnightblue" stroke="midnightblue" points="469.21,-141.71 466.14,-131.57 462.22,-141.41 469.21,-141.71"/>
</g>
<!-- Node25 -->
<g id="node25" class="node">
<title>Node25</title>
<g id="a_node25"><a xlink:href="_vertices_8hpp.html" target="_top" xlink:title=" ">
<polygon fill="none" stroke="black" points="488,-224.5 488,-243.5 565,-243.5 565,-224.5 488,-224.5"/>
<text text-anchor="middle" x="526.5" y="-231.5" font-family="Helvetica,sans-Serif" font-size="10.00">Vertices.hpp</text>
</a>
</g>
</g>
<!-- Node10&#45;&gt;Node25 -->
<g id="edge35" class="edge">
<title>Node10&#45;&gt;Node25</title>
<path fill="none" stroke="midnightblue" d="M470.26,-280.32C480.27,-272.26 495.39,-260.08 507.43,-250.37"/>
<polygon fill="midnightblue" stroke="midnightblue" points="509.95,-252.83 515.54,-243.83 505.56,-247.38 509.95,-252.83"/>
</g>
<!-- Node12 -->
<g id="node12" class="node">
<title>Node12</title>
<g id="a_node12"><a xlink:href="_performance_8hpp.html" target="_top" xlink:title=" ">
<polygon fill="none" stroke="black" points="310.5,-168.5 310.5,-187.5 410.5,-187.5 410.5,-168.5 310.5,-168.5"/>
<text text-anchor="middle" x="360.5" y="-175.5" font-family="Helvetica,sans-Serif" font-size="10.00">Performance.hpp</text>
</a>
</g>
</g>
<!-- Node11&#45;&gt;Node12 -->
<g id="edge13" class="edge">
<title>Node11&#45;&gt;Node12</title>
<path fill="none" stroke="midnightblue" d="M358,-224.08C358.39,-217.01 358.95,-206.86 359.45,-197.99"/>
<polygon fill="midnightblue" stroke="midnightblue" points="362.95,-197.93 360.01,-187.75 355.96,-197.54 362.95,-197.93"/>
</g>
<!-- Node13 -->
<g id="node13" class="node">
<title>Node13</title>
<g id="a_node13"><a xlink:href="_block_data_8hpp.html" target="_top" xlink:title=" ">
<polygon fill="none" stroke="black" points="320.5,-112.5 320.5,-131.5 408.5,-131.5 408.5,-112.5 320.5,-112.5"/>
<text text-anchor="middle" x="364.5" y="-119.5" font-family="Helvetica,sans-Serif" font-size="10.00">BlockData.hpp</text>
</a>
</g>
</g>
<!-- Node12&#45;&gt;Node13 -->
<g id="edge14" class="edge">
<title>Node12&#45;&gt;Node13</title>
<path fill="none" stroke="midnightblue" d="M361.16,-168.08C361.68,-161.01 362.44,-150.86 363.09,-141.99"/>
<polygon fill="midnightblue" stroke="midnightblue" points="366.6,-141.98 363.85,-131.75 359.62,-141.47 366.6,-141.98"/>
</g>
<!-- Node13&#45;&gt;Node14 -->
<g id="edge15" class="edge">
<title>Node13&#45;&gt;Node14</title>
<path fill="none" stroke="midnightblue" d="M388.27,-112.44C413.39,-103.4 453.21,-89.06 481.4,-78.92"/>
<polygon fill="midnightblue" stroke="midnightblue" points="482.62,-82.2 490.84,-75.52 480.25,-75.61 482.62,-82.2"/>
</g>
<!-- Node14&#45;&gt;Node3 -->
<g id="edge27" class="edge">
<title>Node14&#45;&gt;Node3</title>
<path fill="none" stroke="midnightblue" d="M450.25,-61.22C370.21,-55.81 229.19,-43.95 99.32,-19.85"/>
<polygon fill="midnightblue" stroke="midnightblue" points="99.66,-16.36 89.19,-17.94 98.37,-23.23 99.66,-16.36"/>
</g>
<!-- Node14&#45;&gt;Node7 -->
<g id="edge18" class="edge">
<title>Node14&#45;&gt;Node7</title>
<path fill="none" stroke="midnightblue" d="M578.54,-56.93C634.28,-49.45 717.4,-37.17 798.86,-19.93"/>
<polygon fill="midnightblue" stroke="midnightblue" points="799.74,-23.32 808.78,-17.8 798.27,-16.48 799.74,-23.32"/>
</g>
<!-- Node14&#45;&gt;Node8 -->
<g id="edge21" class="edge">
<title>Node14&#45;&gt;Node8</title>
<path fill="none" stroke="midnightblue" d="M578.52,-58.72C646.97,-51.58 758.84,-38.65 864.46,-20.03"/>
<polygon fill="midnightblue" stroke="midnightblue" points="865.1,-23.48 874.33,-18.27 863.87,-16.58 865.1,-23.48"/>
</g>
<!-- Node14&#45;&gt;Node9 -->
<g id="edge23" class="edge">
<title>Node14&#45;&gt;Node9</title>
<path fill="none" stroke="midnightblue" d="M450.28,-58.46C383.9,-51.25 277.11,-38.43 175.98,-20.12"/>
<polygon fill="midnightblue" stroke="midnightblue" points="176.36,-16.63 165.9,-18.27 175.1,-23.52 176.36,-16.63"/>
</g>
<!-- Node15 -->
<g id="node15" class="node">
<title>Node15</title>
<g id="a_node15"><a xlink:title=" ">
<polygon fill="none" stroke="#bfbfbf" points="680.5,-0.5 680.5,-19.5 722.5,-19.5 722.5,-0.5 680.5,-0.5"/>
<text text-anchor="middle" x="701.5" y="-7.5" font-family="Helvetica,sans-Serif" font-size="10.00">array</text>
</a>
</g>
</g>
<!-- Node14&#45;&gt;Node15 -->
<g id="edge16" class="edge">
<title>Node14&#45;&gt;Node15</title>
<path fill="none" stroke="midnightblue" d="M544.63,-56.48C574.28,-48.07 621.1,-34.73 670.33,-20.32"/>
<polygon fill="midnightblue" stroke="midnightblue" points="671.59,-23.6 680.2,-17.42 669.62,-16.88 671.59,-23.6"/>
</g>
<!-- Node16 -->
<g id="node16" class="node">
<title>Node16</title>
<g id="a_node16"><a xlink:title=" ">
<polygon fill="none" stroke="#bfbfbf" points="740.5,-0.5 740.5,-19.5 790.5,-19.5 790.5,-0.5 740.5,-0.5"/>
<text text-anchor="middle" x="765.5" y="-7.5" font-family="Helvetica,sans-Serif" font-size="10.00">chrono</text>
</a>
</g>
</g>
<!-- Node14&#45;&gt;Node16 -->
<g id="edge17" class="edge">
<title>Node14&#45;&gt;Node16</title>
<path fill="none" stroke="midnightblue" d="M559.12,-56.48C600.96,-48.33 665.46,-35.35 730.3,-20.19"/>
<polygon fill="midnightblue" stroke="midnightblue" points="731.36,-23.54 740.29,-17.84 729.75,-16.72 731.36,-23.54"/>
</g>
<!-- Node17 -->
<g id="node17" class="node">
<title>Node17</title>
<g id="a_node17"><a xlink:title=" ">
<polygon fill="none" stroke="#bfbfbf" points="184,-0.5 184,-19.5 231,-19.5 231,-0.5 184,-0.5"/>
<text text-anchor="middle" x="207.5" y="-7.5" font-family="Helvetica,sans-Serif" font-size="10.00">deque</text>
</a>
</g>
</g>
<!-- Node14&#45;&gt;Node17 -->
<g id="edge19" class="edge">
<title>Node14&#45;&gt;Node17</title>
<path fill="none" stroke="midnightblue" d="M450.49,-56.6C396.8,-49.08 317.96,-36.94 241.05,-20.16"/>
<polygon fill="midnightblue" stroke="midnightblue" points="241.71,-16.72 231.19,-17.98 240.2,-23.56 241.71,-16.72"/>
</g>
<!-- Node18 -->
<g id="node18" class="node">
<title>Node18</title>
<g id="a_node18"><a xlink:title=" ">
<polygon fill="none" stroke="#bfbfbf" points="249,-0.5 249,-19.5 314,-19.5 314,-0.5 249,-0.5"/>
<text text-anchor="middle" x="281.5" y="-7.5" font-family="Helvetica,sans-Serif" font-size="10.00">functional</text>
</a>
</g>
</g>
<!-- Node14&#45;&gt;Node18 -->
<g id="edge20" class="edge">
<title>Node14&#45;&gt;Node18</title>
<path fill="none" stroke="midnightblue" d="M477.58,-56.44C435.8,-46.76 367.85,-31.01 323.92,-20.83"/>
<polygon fill="midnightblue" stroke="midnightblue" points="324.64,-17.41 314.11,-18.56 323.06,-24.23 324.64,-17.41"/>
</g>
<!-- Node19 -->
<g id="node19" class="node">
<title>Node19</title>
<g id="a_node19"><a xlink:title=" ">
<polygon fill="none" stroke="#bfbfbf" points="332,-0.5 332,-19.5 385,-19.5 385,-0.5 332,-0.5"/>
<text text-anchor="middle" x="358.5" y="-7.5" font-family="Helvetica,sans-Serif" font-size="10.00">iterator</text>
</a>
</g>
</g>
<!-- Node14&#45;&gt;Node19 -->
<g id="edge22" class="edge">
<title>Node14&#45;&gt;Node19</title>
<path fill="none" stroke="midnightblue" d="M489.78,-56.44C463.65,-47.4 422.24,-33.06 392.92,-22.92"/>
<polygon fill="midnightblue" stroke="midnightblue" points="393.7,-19.48 383.1,-19.52 391.41,-26.1 393.7,-19.48"/>
</g>
<!-- Node20 -->
<g id="node20" class="node">
<title>Node20</title>
<g id="a_node20"><a xlink:title=" ">
<polygon fill="none" stroke="#bfbfbf" points="403.5,-0.5 403.5,-19.5 459.5,-19.5 459.5,-0.5 403.5,-0.5"/>
<text text-anchor="middle" x="431.5" y="-7.5" font-family="Helvetica,sans-Serif" font-size="10.00">sstream</text>
</a>
</g>
</g>
<!-- Node14&#45;&gt;Node20 -->
<g id="edge24" class="edge">
<title>Node14&#45;&gt;Node20</title>
<path fill="none" stroke="midnightblue" d="M501.16,-56.32C488.34,-47.98 468.72,-35.21 453.56,-25.35"/>
<polygon fill="midnightblue" stroke="midnightblue" points="455.09,-22.17 444.8,-19.65 451.28,-28.04 455.09,-22.17"/>
</g>
<!-- Node21 -->
<g id="node21" class="node">
<title>Node21</title>
<g id="a_node21"><a xlink:title=" ">
<polygon fill="none" stroke="#bfbfbf" points="478,-0.5 478,-19.5 551,-19.5 551,-0.5 478,-0.5"/>
<text text-anchor="middle" x="514.5" y="-7.5" font-family="Helvetica,sans-Serif" font-size="10.00">string_view</text>
</a>
</g>
</g>
<!-- Node14&#45;&gt;Node21 -->
<g id="edge25" class="edge">
<title>Node14&#45;&gt;Node21</title>
<path fill="none" stroke="midnightblue" d="M514.5,-56.08C514.5,-49.01 514.5,-38.86 514.5,-29.99"/>
<polygon fill="midnightblue" stroke="midnightblue" points="518,-29.75 514.5,-19.75 511,-29.75 518,-29.75"/>
</g>
<!-- Node22 -->
<g id="node22" class="node">
<title>Node22</title>
<g id="a_node22"><a xlink:title=" ">
<polygon fill="none" stroke="#bfbfbf" points="569,-0.5 569,-19.5 662,-19.5 662,-0.5 569,-0.5"/>
<text text-anchor="middle" x="615.5" y="-7.5" font-family="Helvetica,sans-Serif" font-size="10.00">unordered_map</text>
</a>
</g>
</g>
<!-- Node14&#45;&gt;Node22 -->
<g id="edge26" class="edge">
<title>Node14&#45;&gt;Node22</title>
<path fill="none" stroke="midnightblue" d="M530.73,-56.32C546.85,-47.7 571.8,-34.36 590.46,-24.39"/>
<polygon fill="midnightblue" stroke="midnightblue" points="592.14,-27.46 599.31,-19.65 588.84,-21.28 592.14,-27.46"/>
</g>
<!-- Node23&#45;&gt;Node14 -->
<g id="edge29" class="edge">
<title>Node23&#45;&gt;Node14</title>
<path fill="none" stroke="midnightblue" d="M587.3,-168.37C574.26,-150.22 543.8,-107.8 526.7,-83.99"/>
<polygon fill="midnightblue" stroke="midnightblue" points="529.35,-81.67 520.67,-75.59 523.66,-85.76 529.35,-81.67"/>
</g>
<!-- Node23&#45;&gt;Node24 -->
<g id="edge30" class="edge">
<title>Node23&#45;&gt;Node24</title>
<path fill="none" stroke="midnightblue" d="M573.38,-168.44C552.48,-159.56 519.57,-145.56 495.78,-135.45"/>
<polygon fill="midnightblue" stroke="midnightblue" points="497.1,-132.21 486.53,-131.52 494.36,-138.65 497.1,-132.21"/>
</g>
<!-- Node24&#45;&gt;Node14 -->
<g id="edge31" class="edge">
<title>Node24&#45;&gt;Node14</title>
<path fill="none" stroke="midnightblue" d="M474.43,-112.08C481.35,-104.3 491.57,-92.8 499.95,-83.37"/>
<polygon fill="midnightblue" stroke="midnightblue" points="502.69,-85.55 506.72,-75.75 497.46,-80.9 502.69,-85.55"/>
</g>
<!-- Node25&#45;&gt;Node14 -->
<g id="edge37" class="edge">
<title>Node25&#45;&gt;Node14</title>
<path fill="none" stroke="midnightblue" d="M525.85,-224.08C523.97,-197.95 518.42,-121.21 515.84,-85.58"/>
<polygon fill="midnightblue" stroke="midnightblue" points="519.33,-85.29 515.12,-75.57 512.35,-85.79 519.33,-85.29"/>
</g>
<!-- Node25&#45;&gt;Node23 -->
<g id="edge36" class="edge">
<title>Node25&#45;&gt;Node23</title>
<path fill="none" stroke="midnightblue" d="M537.26,-224.32C547.27,-216.26 562.39,-204.08 574.43,-194.37"/>
<polygon fill="midnightblue" stroke="midnightblue" points="576.95,-196.83 582.54,-187.83 572.56,-191.38 576.95,-196.83"/>
</g>
<!-- Node25&#45;&gt;Node24 -->
<g id="edge38" class="edge">
<title>Node25&#45;&gt;Node24</title>
<path fill="none" stroke="midnightblue" d="M521.79,-224.37C511.98,-206.38 489.16,-164.55 476.11,-140.63"/>
<polygon fill="midnightblue" stroke="midnightblue" points="479.05,-138.69 471.19,-131.59 472.9,-142.05 479.05,-138.69"/>
</g>
</g>
</svg>
