<?xml version="1.0" encoding="UTF-8" standalone="no"?>
<!DOCTYPE svg PUBLIC "-//W3C//DTD SVG 1.1//EN"
 "http://www.w3.org/Graphics/SVG/1.1/DTD/svg11.dtd">
<!-- Generated by graphviz version 2.43.0 (0)
 -->
<!-- Title: /home/runner/work/Simulatio/Simulatio/engine/include/Structures/Quadtree.hpp Pages: 1 -->
<svg width="1113pt" height="610pt"
 viewBox="0.00 0.00 1112.50 610.00" xmlns="http://www.w3.org/2000/svg" xmlns:xlink="http://www.w3.org/1999/xlink">
<g id="graph0" class="graph" transform="scale(1 1) rotate(0) translate(4 606)">
<title>/home/runner/work/Simulatio/Simulatio/engine/include/Structures/Quadtree.hpp</title>
<!-- Node1 -->
<g id="node1" class="node">
<title>Node1</title>
<g id="a_node1"><a xlink:title=" ">
<polygon fill="#bfbfbf" stroke="black" points="675,-560.5 675,-601.5 833,-601.5 833,-560.5 675,-560.5"/>
<text text-anchor="start" x="683" y="-589.5" font-family="Helvetica,sans-Serif" font-size="10.00">/home/runner/work/Simulatio</text>
<text text-anchor="start" x="683" y="-578.5" font-family="Helvetica,sans-Serif" font-size="10.00">/Simulatio/engine/include</text>
<text text-anchor="middle" x="754" y="-567.5" font-family="Helvetica,sans-Serif" font-size="10.00">/Structures/Quadtree.hpp</text>
</a>
</g>
</g>
<!-- Node2 -->
<g id="node2" class="node">
<title>Node2</title>
<g id="a_node2"><a xlink:href="_circle_8hpp.html" target="_top" xlink:title=" ">
<polygon fill="none" stroke="black" points="233,-448.5 233,-467.5 349,-467.5 349,-448.5 233,-448.5"/>
<text text-anchor="middle" x="291" y="-455.5" font-family="Helvetica,sans-Serif" font-size="10.00">../Corpses/Circle.hpp</text>
</a>
</g>
</g>
<!-- Node1&#45;&gt;Node2 -->
<g id="edge1" class="edge">
<title>Node1&#45;&gt;Node2</title>
<path fill="none" stroke="midnightblue" d="M674.83,-571.93C609.04,-563.86 513.5,-548.99 433,-524 389.92,-510.63 342.85,-487.18 315.18,-472.4"/>
<polygon fill="midnightblue" stroke="midnightblue" points="316.7,-469.25 306.24,-467.57 313.37,-475.4 316.7,-469.25"/>
</g>
<!-- Node5 -->
<g id="node5" class="node">
<title>Node5</title>
<g id="a_node5"><a xlink:href="_corpse_8hpp.html" target="_top" xlink:title=" ">
<polygon fill="none" stroke="black" points="249.5,-336.5 249.5,-355.5 320.5,-355.5 320.5,-336.5 249.5,-336.5"/>
<text text-anchor="middle" x="285" y="-343.5" font-family="Helvetica,sans-Serif" font-size="10.00">Corpse.hpp</text>
</a>
</g>
</g>
<!-- Node1&#45;&gt;Node5 -->
<g id="edge43" class="edge">
<title>Node1&#45;&gt;Node5</title>
<path fill="none" stroke="midnightblue" d="M714.42,-560.34C621.23,-514.04 389.99,-399.16 311.53,-360.18"/>
<polygon fill="midnightblue" stroke="midnightblue" points="312.84,-356.92 302.32,-355.61 309.72,-363.19 312.84,-356.92"/>
</g>
<!-- Node13 -->
<g id="node13" class="node">
<title>Node13</title>
<g id="a_node13"><a xlink:href="_maths_8hpp.html" target="_top" xlink:title=" ">
<polygon fill="none" stroke="black" points="519,-56.5 519,-75.5 647,-75.5 647,-56.5 519,-56.5"/>
<text text-anchor="middle" x="583" y="-63.5" font-family="Helvetica,sans-Serif" font-size="10.00">../Geometry/Maths.hpp</text>
</a>
</g>
</g>
<!-- Node1&#45;&gt;Node13 -->
<g id="edge46" class="edge">
<title>Node1&#45;&gt;Node13</title>
<path fill="none" stroke="midnightblue" d="M813.1,-560.43C856.53,-541.9 908,-509.32 908,-459 908,-459 908,-459 908,-177 908,-127.3 862.68,-131.59 817,-112 766.17,-90.2 704.61,-78.9 657.39,-73.07"/>
<polygon fill="midnightblue" stroke="midnightblue" points="657.58,-69.57 647.24,-71.88 656.76,-76.52 657.58,-69.57"/>
</g>
<!-- Node22 -->
<g id="node22" class="node">
<title>Node22</title>
<g id="a_node22"><a xlink:href="_bounds_8hpp.html" target="_top" xlink:title=" ">
<polygon fill="none" stroke="black" points="612,-168.5 612,-187.5 686,-187.5 686,-168.5 612,-168.5"/>
<text text-anchor="middle" x="649" y="-175.5" font-family="Helvetica,sans-Serif" font-size="10.00">Bounds.hpp</text>
</a>
</g>
</g>
<!-- Node1&#45;&gt;Node22 -->
<g id="edge45" class="edge">
<title>Node1&#45;&gt;Node22</title>
<path fill="none" stroke="midnightblue" d="M754.52,-560.19C754.62,-544.77 754.06,-522.9 751,-504 730.29,-376.12 715.53,-345.28 670,-224 666.59,-214.92 662.12,-205.13 658.18,-197.01"/>
<polygon fill="midnightblue" stroke="midnightblue" points="661.19,-195.18 653.6,-187.79 654.92,-198.3 661.19,-195.18"/>
</g>
<!-- Node23 -->
<g id="node23" class="node">
<title>Node23</title>
<g id="a_node23"><a xlink:href="_vector_8hpp.html" target="_top" xlink:title=" ">
<polygon fill="none" stroke="black" points="646,-112.5 646,-131.5 714,-131.5 714,-112.5 646,-112.5"/>
<text text-anchor="middle" x="680" y="-119.5" font-family="Helvetica,sans-Serif" font-size="10.00">Vector.hpp</text>
</a>
</g>
</g>
<!-- Node1&#45;&gt;Node23 -->
<g id="edge51" class="edge">
<title>Node1&#45;&gt;Node23</title>
<path fill="none" stroke="midnightblue" d="M763.25,-560.18C783.92,-514.04 832,-395.46 832,-291 832,-291 832,-291 832,-233 832,-179.13 768.58,-148.96 723.67,-134.34"/>
<polygon fill="midnightblue" stroke="midnightblue" points="724.7,-131 714.11,-131.38 722.62,-137.69 724.7,-131"/>
</g>
<!-- Node25 -->
<g id="node25" class="node">
<title>Node25</title>
<g id="a_node25"><a xlink:href="_polygon_8hpp.html" target="_top" xlink:title=" ">
<polygon fill="none" stroke="black" points="252.5,-392.5 252.5,-411.5 329.5,-411.5 329.5,-392.5 252.5,-392.5"/>
<text text-anchor="middle" x="291" y="-399.5" font-family="Helvetica,sans-Serif" font-size="10.00">Polygon.hpp</text>
</a>
</g>
</g>
<!-- Node1&#45;&gt;Node25 -->
<g id="edge44" class="edge">
<title>Node1&#45;&gt;Node25</title>
<path fill="none" stroke="midnightblue" d="M695.64,-560.43C664.97,-549.96 626.82,-536.65 593,-524 492.4,-486.37 374.61,-437.88 320.69,-415.43"/>
<polygon fill="midnightblue" stroke="midnightblue" points="321.96,-412.16 311.38,-411.55 319.26,-418.62 321.96,-412.16"/>
</g>
<!-- Node26 -->
<g id="node26" class="node">
<title>Node26</title>
<g id="a_node26"><a xlink:href="_string_8hpp.html" target="_top" xlink:title=" ">
<polygon fill="none" stroke="black" points="936.5,-504.5 936.5,-523.5 1063.5,-523.5 1063.5,-504.5 936.5,-504.5"/>
<text text-anchor="middle" x="1000" y="-511.5" font-family="Helvetica,sans-Serif" font-size="10.00">../Geometry/String.hpp</text>
</a>
</g>
</g>
<!-- Node1&#45;&gt;Node26 -->
<g id="edge47" class="edge">
<title>Node1&#45;&gt;Node26</title>
<path fill="none" stroke="midnightblue" d="M827.81,-560.5C870.19,-549.3 921.89,-535.64 957.52,-526.22"/>
<polygon fill="midnightblue" stroke="midnightblue" points="958.8,-529.51 967.58,-523.57 957.01,-522.74 958.8,-529.51"/>
</g>
<!-- Node29 -->
<g id="node29" class="node">
<title>Node29</title>
<g id="a_node29"><a xlink:href="_quad_node_8hpp.html" target="_top" xlink:title=" ">
<polygon fill="none" stroke="black" points="652.5,-504.5 652.5,-523.5 741.5,-523.5 741.5,-504.5 652.5,-504.5"/>
<text text-anchor="middle" x="697" y="-511.5" font-family="Helvetica,sans-Serif" font-size="10.00">QuadNode.hpp</text>
</a>
</g>
</g>
<!-- Node1&#45;&gt;Node29 -->
<g id="edge52" class="edge">
<title>Node1&#45;&gt;Node29</title>
<path fill="none" stroke="midnightblue" d="M736.9,-560.5C728.75,-551.2 719.11,-540.21 711.34,-531.36"/>
<polygon fill="midnightblue" stroke="midnightblue" points="713.81,-528.86 704.59,-523.65 708.55,-533.48 713.81,-528.86"/>
</g>
<!-- Node3 -->
<g id="node3" class="node">
<title>Node3</title>
<g id="a_node3"><a xlink:title=" ">
<polygon fill="none" stroke="#bfbfbf" points="73.5,-0.5 73.5,-19.5 120.5,-19.5 120.5,-0.5 73.5,-0.5"/>
<text text-anchor="middle" x="97" y="-7.5" font-family="Helvetica,sans-Serif" font-size="10.00">vector</text>
</a>
</g>
</g>
<!-- Node2&#45;&gt;Node3 -->
<g id="edge2" class="edge">
<title>Node2&#45;&gt;Node3</title>
<path fill="none" stroke="midnightblue" d="M239.64,-448.46C156.1,-433.11 0,-397.63 0,-347 0,-347 0,-347 0,-121 0,-77.35 43.51,-42.83 72.24,-24.79"/>
<polygon fill="midnightblue" stroke="midnightblue" points="74.23,-27.68 80.98,-19.52 70.61,-21.68 74.23,-27.68"/>
</g>
<!-- Node4 -->
<g id="node4" class="node">
<title>Node4</title>
<g id="a_node4"><a xlink:title=" ">
<polygon fill="none" stroke="#bfbfbf" points="94,-224.5 94,-243.5 162,-243.5 162,-224.5 94,-224.5"/>
<text text-anchor="middle" x="128" y="-231.5" font-family="Helvetica,sans-Serif" font-size="10.00">Config.hpp</text>
</a>
</g>
</g>
<!-- Node2&#45;&gt;Node4 -->
<g id="edge3" class="edge">
<title>Node2&#45;&gt;Node4</title>
<path fill="none" stroke="midnightblue" d="M277.95,-448.23C247.5,-426.96 171.87,-369.23 139,-300 132.17,-285.61 129.51,-267.64 128.51,-254.25"/>
<polygon fill="midnightblue" stroke="midnightblue" points="131.99,-253.68 128,-243.86 125,-254.03 131.99,-253.68"/>
</g>
<!-- Node2&#45;&gt;Node5 -->
<g id="edge4" class="edge">
<title>Node2&#45;&gt;Node5</title>
<path fill="none" stroke="midnightblue" d="M276.92,-448.26C265.65,-440.35 250.65,-427.58 244,-412 236.25,-393.84 251.15,-374.96 265.11,-362.26"/>
<polygon fill="midnightblue" stroke="midnightblue" points="267.67,-364.68 273.05,-355.54 263.15,-359.33 267.67,-364.68"/>
</g>
<!-- Node2&#45;&gt;Node25 -->
<g id="edge38" class="edge">
<title>Node2&#45;&gt;Node25</title>
<path fill="none" stroke="midnightblue" d="M285.83,-448.08C284.32,-440.93 283.89,-430.64 284.54,-421.69"/>
<polygon fill="midnightblue" stroke="midnightblue" points="288.02,-422.13 285.87,-411.75 281.08,-421.2 288.02,-422.13"/>
</g>
<!-- Node5&#45;&gt;Node3 -->
<g id="edge8" class="edge">
<title>Node5&#45;&gt;Node3</title>
<path fill="none" stroke="midnightblue" d="M269.31,-336.4C242.33,-320.31 190,-282.94 190,-235 190,-235 190,-235 190,-121 190,-78.31 148.65,-43.64 121.09,-25.28"/>
<polygon fill="midnightblue" stroke="midnightblue" points="122.67,-22.13 112.36,-19.69 118.89,-28.03 122.67,-22.13"/>
</g>
<!-- Node5&#45;&gt;Node4 -->
<g id="edge37" class="edge">
<title>Node5&#45;&gt;Node4</title>
<path fill="none" stroke="midnightblue" d="M251.56,-336.37C228.63,-329.28 198.43,-317.52 176,-300 159.47,-287.09 145.88,-267.09 137.43,-252.69"/>
<polygon fill="midnightblue" stroke="midnightblue" points="140.37,-250.77 132.43,-243.76 134.26,-254.2 140.37,-250.77"/>
</g>
<!-- Node6 -->
<g id="node6" class="node">
<title>Node6</title>
<g id="a_node6"><a xlink:title=" ">
<polygon fill="none" stroke="#bfbfbf" points="177.5,-0.5 177.5,-19.5 224.5,-19.5 224.5,-0.5 177.5,-0.5"/>
<text text-anchor="middle" x="201" y="-7.5" font-family="Helvetica,sans-Serif" font-size="10.00">cmath</text>
</a>
</g>
</g>
<!-- Node5&#45;&gt;Node6 -->
<g id="edge5" class="edge">
<title>Node5&#45;&gt;Node6</title>
<path fill="none" stroke="midnightblue" d="M276.83,-336.38C261.07,-318.81 228,-276.94 228,-235 228,-235 228,-235 228,-121 228,-87.86 216.3,-50.68 208.3,-29.14"/>
<polygon fill="midnightblue" stroke="midnightblue" points="211.51,-27.73 204.64,-19.66 204.98,-30.25 211.51,-27.73"/>
</g>
<!-- Node7 -->
<g id="node7" class="node">
<title>Node7</title>
<g id="a_node7"><a xlink:title=" ">
<polygon fill="none" stroke="#bfbfbf" points="243,-0.5 243,-19.5 303,-19.5 303,-0.5 243,-0.5"/>
<text text-anchor="middle" x="273" y="-7.5" font-family="Helvetica,sans-Serif" font-size="10.00">iostream</text>
</a>
</g>
</g>
<!-- Node5&#45;&gt;Node7 -->
<g id="edge6" class="edge">
<title>Node5&#45;&gt;Node7</title>
<path fill="none" stroke="midnightblue" d="M282.44,-336.25C277.25,-317.74 266,-273.18 266,-235 266,-235 266,-235 266,-121 266,-88.88 269.01,-51.6 271.08,-29.73"/>
<polygon fill="midnightblue" stroke="midnightblue" points="274.59,-29.84 272.08,-19.55 267.62,-29.15 274.59,-29.84"/>
</g>
<!-- Node8 -->
<g id="node8" class="node">
<title>Node8</title>
<g id="a_node8"><a xlink:title=" ">
<polygon fill="none" stroke="#bfbfbf" points="321,-0.5 321,-19.5 379,-19.5 379,-0.5 321,-0.5"/>
<text text-anchor="middle" x="350" y="-7.5" font-family="Helvetica,sans-Serif" font-size="10.00">memory</text>
</a>
</g>
</g>
<!-- Node5&#45;&gt;Node8 -->
<g id="edge7" class="edge">
<title>Node5&#45;&gt;Node8</title>
<path fill="none" stroke="midnightblue" d="M287.56,-336.25C292.75,-317.74 304,-273.18 304,-235 304,-235 304,-235 304,-121 304,-85.82 324.28,-48.86 337.91,-28"/>
<polygon fill="midnightblue" stroke="midnightblue" points="340.88,-29.85 343.6,-19.61 335.09,-25.92 340.88,-29.85"/>
</g>
<!-- Node9 -->
<g id="node9" class="node">
<title>Node9</title>
<g id="a_node9"><a xlink:href="_geometry_8hpp.html" target="_top" xlink:title=" ">
<polygon fill="none" stroke="black" points="435,-280.5 435,-299.5 581,-299.5 581,-280.5 435,-280.5"/>
<text text-anchor="middle" x="508" y="-287.5" font-family="Helvetica,sans-Serif" font-size="10.00">../Geometry/Geometry.hpp</text>
</a>
</g>
</g>
<!-- Node5&#45;&gt;Node9 -->
<g id="edge9" class="edge">
<title>Node5&#45;&gt;Node9</title>
<path fill="none" stroke="midnightblue" d="M320.34,-336.44C358.91,-327.1 420.78,-312.12 462.85,-301.93"/>
<polygon fill="midnightblue" stroke="midnightblue" points="463.93,-305.27 472.83,-299.52 462.29,-298.47 463.93,-305.27"/>
</g>
<!-- Node9&#45;&gt;Node4 -->
<g id="edge30" class="edge">
<title>Node9&#45;&gt;Node4</title>
<path fill="none" stroke="midnightblue" d="M447.79,-280.44C371.05,-269.54 240.21,-250.95 172.12,-241.27"/>
<polygon fill="midnightblue" stroke="midnightblue" points="172.54,-237.79 162.14,-239.85 171.55,-244.72 172.54,-237.79"/>
</g>
<!-- Node10 -->
<g id="node10" class="node">
<title>Node10</title>
<g id="a_node10"><a xlink:href="_recorder_8hpp.html" target="_top" xlink:title=" ">
<polygon fill="none" stroke="black" points="332,-224.5 332,-243.5 480,-243.5 480,-224.5 332,-224.5"/>
<text text-anchor="middle" x="406" y="-231.5" font-family="Helvetica,sans-Serif" font-size="10.00">../Benchmark/Recorder.hpp</text>
</a>
</g>
</g>
<!-- Node9&#45;&gt;Node10 -->
<g id="edge10" class="edge">
<title>Node9&#45;&gt;Node10</title>
<path fill="none" stroke="midnightblue" d="M491.61,-280.32C475.33,-271.7 450.13,-258.36 431.28,-248.39"/>
<polygon fill="midnightblue" stroke="midnightblue" points="432.82,-245.24 422.35,-243.65 429.55,-251.43 432.82,-245.24"/>
</g>
<!-- Node9&#45;&gt;Node13 -->
<g id="edge31" class="edge">
<title>Node9&#45;&gt;Node13</title>
<path fill="none" stroke="midnightblue" d="M510.61,-280.13C514.33,-267.59 521.43,-243.96 528,-224 544.56,-173.64 565.65,-114.79 576.26,-85.51"/>
<polygon fill="midnightblue" stroke="midnightblue" points="579.65,-86.41 579.78,-75.81 573.07,-84.02 579.65,-86.41"/>
</g>
<!-- Node9&#45;&gt;Node22 -->
<g id="edge26" class="edge">
<title>Node9&#45;&gt;Node22</title>
<path fill="none" stroke="midnightblue" d="M552.86,-280.46C576.34,-273.96 604.06,-262.8 623,-244 635.52,-231.57 642.21,-212.33 645.64,-198.01"/>
<polygon fill="midnightblue" stroke="midnightblue" points="649.16,-198.3 647.75,-187.79 642.3,-196.88 649.16,-198.3"/>
</g>
<!-- Node9&#45;&gt;Node23 -->
<g id="edge32" class="edge">
<title>Node9&#45;&gt;Node23</title>
<path fill="none" stroke="midnightblue" d="M551.17,-280.45C578.95,-273.58 614.96,-262.06 643,-244 671.56,-225.61 682.59,-219.61 695,-188 701.07,-172.54 695.63,-154 689.67,-140.68"/>
<polygon fill="midnightblue" stroke="midnightblue" points="692.77,-139.06 685.2,-131.65 686.5,-142.17 692.77,-139.06"/>
</g>
<!-- Node24 -->
<g id="node24" class="node">
<title>Node24</title>
<g id="a_node24"><a xlink:href="_vertices_8hpp.html" target="_top" xlink:title=" ">
<polygon fill="none" stroke="black" points="536.5,-224.5 536.5,-243.5 613.5,-243.5 613.5,-224.5 536.5,-224.5"/>
<text text-anchor="middle" x="575" y="-231.5" font-family="Helvetica,sans-Serif" font-size="10.00">Vertices.hpp</text>
</a>
</g>
</g>
<!-- Node9&#45;&gt;Node24 -->
<g id="edge33" class="edge">
<title>Node9&#45;&gt;Node24</title>
<path fill="none" stroke="midnightblue" d="M518.76,-280.32C528.77,-272.26 543.89,-260.08 555.93,-250.37"/>
<polygon fill="midnightblue" stroke="midnightblue" points="558.45,-252.83 564.04,-243.83 554.06,-247.38 558.45,-252.83"/>
</g>
<!-- Node11 -->
<g id="node11" class="node">
<title>Node11</title>
<g id="a_node11"><a xlink:href="_performance_8hpp.html" target="_top" xlink:title=" ">
<polygon fill="none" stroke="black" points="368,-168.5 368,-187.5 468,-187.5 468,-168.5 368,-168.5"/>
<text text-anchor="middle" x="418" y="-175.5" font-family="Helvetica,sans-Serif" font-size="10.00">Performance.hpp</text>
</a>
</g>
</g>
<!-- Node10&#45;&gt;Node11 -->
<g id="edge11" class="edge">
<title>Node10&#45;&gt;Node11</title>
<path fill="none" stroke="midnightblue" d="M407.98,-224.08C409.57,-216.93 411.86,-206.64 413.85,-197.69"/>
<polygon fill="midnightblue" stroke="midnightblue" points="417.3,-198.27 416.06,-187.75 410.47,-196.75 417.3,-198.27"/>
</g>
<!-- Node12 -->
<g id="node12" class="node">
<title>Node12</title>
<g id="a_node12"><a xlink:href="_block_data_8hpp.html" target="_top" xlink:title=" ">
<polygon fill="none" stroke="black" points="383,-112.5 383,-131.5 471,-131.5 471,-112.5 383,-112.5"/>
<text text-anchor="middle" x="427" y="-119.5" font-family="Helvetica,sans-Serif" font-size="10.00">BlockData.hpp</text>
</a>
</g>
</g>
<!-- Node11&#45;&gt;Node12 -->
<g id="edge12" class="edge">
<title>Node11&#45;&gt;Node12</title>
<path fill="none" stroke="midnightblue" d="M419.49,-168.08C420.68,-160.93 422.39,-150.64 423.88,-141.69"/>
<polygon fill="midnightblue" stroke="midnightblue" points="427.35,-142.19 425.54,-131.75 420.45,-141.04 427.35,-142.19"/>
</g>
<!-- Node12&#45;&gt;Node13 -->
<g id="edge13" class="edge">
<title>Node12&#45;&gt;Node13</title>
<path fill="none" stroke="midnightblue" d="M451.72,-112.44C477.85,-103.4 519.26,-89.06 548.58,-78.92"/>
<polygon fill="midnightblue" stroke="midnightblue" points="550.09,-82.1 558.4,-75.52 547.8,-75.48 550.09,-82.1"/>
</g>
<!-- Node13&#45;&gt;Node3 -->
<g id="edge25" class="edge">
<title>Node13&#45;&gt;Node3</title>
<path fill="none" stroke="midnightblue" d="M518.97,-58.42C437.42,-49.96 292.16,-34.6 168,-20 155.78,-18.56 142.4,-16.89 130.57,-15.38"/>
<polygon fill="midnightblue" stroke="midnightblue" points="131.02,-11.91 120.65,-14.11 130.13,-18.85 131.02,-11.91"/>
</g>
<!-- Node13&#45;&gt;Node6 -->
<g id="edge16" class="edge">
<title>Node13&#45;&gt;Node6</title>
<path fill="none" stroke="midnightblue" d="M518.89,-59.41C450.68,-52.86 339.53,-40.47 234.52,-19.84"/>
<polygon fill="midnightblue" stroke="midnightblue" points="235.19,-16.41 224.7,-17.88 233.82,-23.27 235.19,-16.41"/>
</g>
<!-- Node13&#45;&gt;Node7 -->
<g id="edge19" class="edge">
<title>Node13&#45;&gt;Node7</title>
<path fill="none" stroke="midnightblue" d="M525.19,-56.47C472.45,-48.44 392.14,-35.62 313.3,-20.16"/>
<polygon fill="midnightblue" stroke="midnightblue" points="313.68,-16.67 303.19,-18.16 312.33,-23.54 313.68,-16.67"/>
</g>
<!-- Node13&#45;&gt;Node8 -->
<g id="edge21" class="edge">
<title>Node13&#45;&gt;Node8</title>
<path fill="none" stroke="midnightblue" d="M546.08,-56.44C503.2,-46.5 432.75,-30.18 389,-20.04"/>
<polygon fill="midnightblue" stroke="midnightblue" points="389.55,-16.57 379.02,-17.73 387.97,-23.39 389.55,-16.57"/>
</g>
<!-- Node14 -->
<g id="node14" class="node">
<title>Node14</title>
<g id="a_node14"><a xlink:title=" ">
<polygon fill="none" stroke="#bfbfbf" points="746,-0.5 746,-19.5 788,-19.5 788,-0.5 746,-0.5"/>
<text text-anchor="middle" x="767" y="-7.5" font-family="Helvetica,sans-Serif" font-size="10.00">array</text>
</a>
</g>
</g>
<!-- Node13&#45;&gt;Node14 -->
<g id="edge14" class="edge">
<title>Node13&#45;&gt;Node14</title>
<path fill="none" stroke="midnightblue" d="M612.54,-56.44C641.62,-47.99 687.54,-34.62 735.98,-20.29"/>
<polygon fill="midnightblue" stroke="midnightblue" points="737.11,-23.61 745.7,-17.41 735.12,-16.89 737.11,-23.61"/>
</g>
<!-- Node15 -->
<g id="node15" class="node">
<title>Node15</title>
<g id="a_node15"><a xlink:title=" ">
<polygon fill="none" stroke="#bfbfbf" points="806,-0.5 806,-19.5 856,-19.5 856,-0.5 806,-0.5"/>
<text text-anchor="middle" x="831" y="-7.5" font-family="Helvetica,sans-Serif" font-size="10.00">chrono</text>
</a>
</g>
</g>
<!-- Node13&#45;&gt;Node15 -->
<g id="edge15" class="edge">
<title>Node13&#45;&gt;Node15</title>
<path fill="none" stroke="midnightblue" d="M627,-56.44C668.25,-48.25 731.86,-35.24 795.92,-20.17"/>
<polygon fill="midnightblue" stroke="midnightblue" points="796.86,-23.54 805.79,-17.83 795.25,-16.73 796.86,-23.54"/>
</g>
<!-- Node16 -->
<g id="node16" class="node">
<title>Node16</title>
<g id="a_node16"><a xlink:title=" ">
<polygon fill="none" stroke="#bfbfbf" points="874.5,-0.5 874.5,-19.5 921.5,-19.5 921.5,-0.5 874.5,-0.5"/>
<text text-anchor="middle" x="898" y="-7.5" font-family="Helvetica,sans-Serif" font-size="10.00">deque</text>
</a>
</g>
</g>
<!-- Node13&#45;&gt;Node16 -->
<g id="edge17" class="edge">
<title>Node13&#45;&gt;Node16</title>
<path fill="none" stroke="midnightblue" d="M647.21,-56.77C702.36,-49.24 784.15,-36.98 864.49,-19.9"/>
<polygon fill="midnightblue" stroke="midnightblue" points="865.24,-23.32 874.28,-17.8 863.77,-16.48 865.24,-23.32"/>
</g>
<!-- Node17 -->
<g id="node17" class="node">
<title>Node17</title>
<g id="a_node17"><a xlink:title=" ">
<polygon fill="none" stroke="#bfbfbf" points="939.5,-0.5 939.5,-19.5 1004.5,-19.5 1004.5,-0.5 939.5,-0.5"/>
<text text-anchor="middle" x="972" y="-7.5" font-family="Helvetica,sans-Serif" font-size="10.00">functional</text>
</a>
</g>
</g>
<!-- Node13&#45;&gt;Node17 -->
<g id="edge18" class="edge">
<title>Node13&#45;&gt;Node17</title>
<path fill="none" stroke="midnightblue" d="M647.07,-58.41C714.9,-51.06 825.26,-38.01 929.33,-20.17"/>
<polygon fill="midnightblue" stroke="midnightblue" points="930.12,-23.59 939.38,-18.43 928.93,-16.69 930.12,-23.59"/>
</g>
<!-- Node18 -->
<g id="node18" class="node">
<title>Node18</title>
<g id="a_node18"><a xlink:title=" ">
<polygon fill="none" stroke="#bfbfbf" points="397.5,-0.5 397.5,-19.5 450.5,-19.5 450.5,-0.5 397.5,-0.5"/>
<text text-anchor="middle" x="424" y="-7.5" font-family="Helvetica,sans-Serif" font-size="10.00">iterator</text>
</a>
</g>
</g>
<!-- Node13&#45;&gt;Node18 -->
<g id="edge20" class="edge">
<title>Node13&#45;&gt;Node18</title>
<path fill="none" stroke="midnightblue" d="M557.81,-56.44C531.06,-47.36 488.6,-32.94 458.69,-22.78"/>
<polygon fill="midnightblue" stroke="midnightblue" points="459.67,-19.42 449.08,-19.52 457.42,-26.05 459.67,-19.42"/>
</g>
<!-- Node19 -->
<g id="node19" class="node">
<title>Node19</title>
<g id="a_node19"><a xlink:title=" ">
<polygon fill="none" stroke="#bfbfbf" points="469,-0.5 469,-19.5 525,-19.5 525,-0.5 469,-0.5"/>
<text text-anchor="middle" x="497" y="-7.5" font-family="Helvetica,sans-Serif" font-size="10.00">sstream</text>
</a>
</g>
</g>
<!-- Node13&#45;&gt;Node19 -->
<g id="edge22" class="edge">
<title>Node13&#45;&gt;Node19</title>
<path fill="none" stroke="midnightblue" d="M569.18,-56.32C555.77,-47.9 535.18,-34.97 519.41,-25.07"/>
<polygon fill="midnightblue" stroke="midnightblue" points="521.11,-22.01 510.78,-19.65 517.39,-27.94 521.11,-22.01"/>
</g>
<!-- Node20 -->
<g id="node20" class="node">
<title>Node20</title>
<g id="a_node20"><a xlink:title=" ">
<polygon fill="none" stroke="#bfbfbf" points="543.5,-0.5 543.5,-19.5 616.5,-19.5 616.5,-0.5 543.5,-0.5"/>
<text text-anchor="middle" x="580" y="-7.5" font-family="Helvetica,sans-Serif" font-size="10.00">string_view</text>
</a>
</g>
</g>
<!-- Node13&#45;&gt;Node20 -->
<g id="edge23" class="edge">
<title>Node13&#45;&gt;Node20</title>
<path fill="none" stroke="midnightblue" d="M582.5,-56.08C582.11,-49.01 581.55,-38.86 581.05,-29.99"/>
<polygon fill="midnightblue" stroke="midnightblue" points="584.54,-29.54 580.49,-19.75 577.55,-29.93 584.54,-29.54"/>
</g>
<!-- Node21 -->
<g id="node21" class="node">
<title>Node21</title>
<g id="a_node21"><a xlink:title=" ">
<polygon fill="none" stroke="#bfbfbf" points="634.5,-0.5 634.5,-19.5 727.5,-19.5 727.5,-0.5 634.5,-0.5"/>
<text text-anchor="middle" x="681" y="-7.5" font-family="Helvetica,sans-Serif" font-size="10.00">unordered_map</text>
</a>
</g>
</g>
<!-- Node13&#45;&gt;Node21 -->
<g id="edge24" class="edge">
<title>Node13&#45;&gt;Node21</title>
<path fill="none" stroke="midnightblue" d="M598.75,-56.32C614.32,-47.74 638.38,-34.49 656.46,-24.52"/>
<polygon fill="midnightblue" stroke="midnightblue" points="658.22,-27.55 665.29,-19.65 654.85,-21.42 658.22,-27.55"/>
</g>
<!-- Node22&#45;&gt;Node13 -->
<g id="edge27" class="edge">
<title>Node22&#45;&gt;Node13</title>
<path fill="none" stroke="midnightblue" d="M643.82,-168.37C632.98,-150.3 607.71,-108.18 593.38,-84.31"/>
<polygon fill="midnightblue" stroke="midnightblue" points="596.3,-82.37 588.15,-75.59 590.3,-85.97 596.3,-82.37"/>
</g>
<!-- Node22&#45;&gt;Node23 -->
<g id="edge28" class="edge">
<title>Node22&#45;&gt;Node23</title>
<path fill="none" stroke="midnightblue" d="M654.12,-168.08C658.41,-160.61 664.66,-149.72 669.94,-140.52"/>
<polygon fill="midnightblue" stroke="midnightblue" points="673.03,-142.17 674.98,-131.75 666.96,-138.68 673.03,-142.17"/>
</g>
<!-- Node23&#45;&gt;Node13 -->
<g id="edge29" class="edge">
<title>Node23&#45;&gt;Node13</title>
<path fill="none" stroke="midnightblue" d="M664.42,-112.32C649,-103.74 625.19,-90.49 607.29,-80.52"/>
<polygon fill="midnightblue" stroke="midnightblue" points="608.99,-77.46 598.55,-75.65 605.58,-83.58 608.99,-77.46"/>
</g>
<!-- Node24&#45;&gt;Node13 -->
<g id="edge35" class="edge">
<title>Node24&#45;&gt;Node13</title>
<path fill="none" stroke="midnightblue" d="M575.43,-224.08C576.69,-197.95 580.39,-121.21 582.1,-85.58"/>
<polygon fill="midnightblue" stroke="midnightblue" points="585.6,-85.73 582.59,-75.57 578.61,-85.39 585.6,-85.73"/>
</g>
<!-- Node24&#45;&gt;Node22 -->
<g id="edge34" class="edge">
<title>Node24&#45;&gt;Node22</title>
<path fill="none" stroke="midnightblue" d="M586.89,-224.32C598.15,-216.11 615.29,-203.6 628.71,-193.81"/>
<polygon fill="midnightblue" stroke="midnightblue" points="630.88,-196.56 636.89,-187.83 626.75,-190.9 630.88,-196.56"/>
</g>
<!-- Node24&#45;&gt;Node23 -->
<g id="edge36" class="edge">
<title>Node24&#45;&gt;Node23</title>
<path fill="none" stroke="midnightblue" d="M576.84,-224.49C580.11,-211.1 588.02,-184.93 603,-168 615.32,-154.08 633.02,-143.31 648.35,-135.81"/>
<polygon fill="midnightblue" stroke="midnightblue" points="649.92,-138.94 657.52,-131.56 646.97,-132.59 649.92,-138.94"/>
</g>
<!-- Node25&#45;&gt;Node2 -->
<g id="edge40" class="edge">
<title>Node25&#45;&gt;Node2</title>
<path fill="none" stroke="midnightblue" d="M296.13,-411.75C297.66,-418.86 298.1,-429.14 297.47,-438.1"/>
<polygon fill="midnightblue" stroke="midnightblue" points="293.99,-437.71 296.17,-448.08 300.93,-438.62 293.99,-437.71"/>
</g>
<!-- Node25&#45;&gt;Node3 -->
<g id="edge39" class="edge">
<title>Node25&#45;&gt;Node3</title>
<path fill="none" stroke="midnightblue" d="M263.14,-392.38C241.43,-384.85 211.19,-372.54 188,-356 110.22,-300.52 66,-274.54 66,-179 66,-179 66,-179 66,-121 66,-87.41 79.56,-50.14 88.74,-28.75"/>
<polygon fill="midnightblue" stroke="midnightblue" points="91.94,-30.17 92.82,-19.61 85.55,-27.31 91.94,-30.17"/>
</g>
<!-- Node25&#45;&gt;Node4 -->
<g id="edge41" class="edge">
<title>Node25&#45;&gt;Node4</title>
<path fill="none" stroke="midnightblue" d="M273.87,-392.47C245.32,-377.46 187.79,-343.72 154,-300 143.33,-286.19 136.45,-267.42 132.46,-253.6"/>
<polygon fill="midnightblue" stroke="midnightblue" points="135.8,-252.54 129.87,-243.77 129.03,-254.33 135.8,-252.54"/>
</g>
<!-- Node25&#45;&gt;Node5 -->
<g id="edge42" class="edge">
<title>Node25&#45;&gt;Node5</title>
<path fill="none" stroke="midnightblue" d="M290.01,-392.08C289.21,-384.93 288.07,-374.64 287.08,-365.69"/>
<polygon fill="midnightblue" stroke="midnightblue" points="290.56,-365.3 285.97,-355.75 283.6,-366.08 290.56,-365.3"/>
</g>
<!-- Node26&#45;&gt;Node13 -->
<g id="edge50" class="edge">
<title>Node26&#45;&gt;Node13</title>
<path fill="none" stroke="midnightblue" d="M992.41,-504.28C977.75,-486.52 947,-444.34 947,-403 947,-403 947,-403 947,-177 947,-146.05 946.3,-131.17 922,-112 882.15,-80.57 744.31,-71.05 657.15,-68.19"/>
<polygon fill="midnightblue" stroke="midnightblue" points="657.15,-64.69 647.04,-67.88 656.93,-71.69 657.15,-64.69"/>
</g>
<!-- Node27 -->
<g id="node27" class="node">
<title>Node27</title>
<g id="a_node27"><a xlink:title=" ">
<polygon fill="none" stroke="#bfbfbf" points="1039.5,-448.5 1039.5,-467.5 1104.5,-467.5 1104.5,-448.5 1039.5,-448.5"/>
<text text-anchor="middle" x="1072" y="-455.5" font-family="Helvetica,sans-Serif" font-size="10.00">stdexcept</text>
</a>
</g>
</g>
<!-- Node26&#45;&gt;Node27 -->
<g id="edge48" class="edge">
<title>Node26&#45;&gt;Node27</title>
<path fill="none" stroke="midnightblue" d="M1011.57,-504.32C1022.42,-496.18 1038.88,-483.84 1051.88,-474.09"/>
<polygon fill="midnightblue" stroke="midnightblue" points="1054.32,-476.63 1060.22,-467.83 1050.12,-471.03 1054.32,-476.63"/>
</g>
<!-- Node28 -->
<g id="node28" class="node">
<title>Node28</title>
<g id="a_node28"><a xlink:title=" ">
<polygon fill="none" stroke="#bfbfbf" points="977,-448.5 977,-467.5 1021,-467.5 1021,-448.5 977,-448.5"/>
<text text-anchor="middle" x="999" y="-455.5" font-family="Helvetica,sans-Serif" font-size="10.00">string</text>
</a>
</g>
</g>
<!-- Node26&#45;&gt;Node28 -->
<g id="edge49" class="edge">
<title>Node26&#45;&gt;Node28</title>
<path fill="none" stroke="midnightblue" d="M999.83,-504.08C999.7,-497.01 999.52,-486.86 999.35,-477.99"/>
<polygon fill="midnightblue" stroke="midnightblue" points="1002.85,-477.68 999.16,-467.75 995.85,-477.81 1002.85,-477.68"/>
</g>
<!-- Node29&#45;&gt;Node2 -->
<g id="edge53" class="edge">
<title>Node29&#45;&gt;Node2</title>
<path fill="none" stroke="midnightblue" d="M652.39,-507.07C581.5,-497.64 442.63,-479.17 359.2,-468.07"/>
<polygon fill="midnightblue" stroke="midnightblue" points="359.43,-464.57 349.06,-466.72 358.51,-471.51 359.43,-464.57"/>
</g>
<!-- Node29&#45;&gt;Node5 -->
<g id="edge54" class="edge">
<title>Node29&#45;&gt;Node5</title>
<path fill="none" stroke="midnightblue" d="M694.46,-504.45C687.22,-481.75 664.19,-419.78 621,-392 573.92,-361.72 411.31,-351.59 330.84,-348.39"/>
<polygon fill="midnightblue" stroke="midnightblue" points="330.64,-344.88 320.52,-348 330.38,-351.87 330.64,-344.88"/>
</g>
<!-- Node29&#45;&gt;Node13 -->
<g id="edge57" class="edge">
<title>Node29&#45;&gt;Node13</title>
<path fill="none" stroke="midnightblue" d="M711.16,-504.39C752.47,-478.06 870,-394.1 870,-291 870,-291 870,-291 870,-177 870,-128.8 727.08,-93.85 642.95,-77.45"/>
<polygon fill="midnightblue" stroke="midnightblue" points="643.47,-73.99 632.99,-75.54 642.15,-80.86 643.47,-73.99"/>
</g>
<!-- Node29&#45;&gt;Node22 -->
<g id="edge56" class="edge">
<title>Node29&#45;&gt;Node22</title>
<path fill="none" stroke="midnightblue" d="M695.77,-504.41C689.44,-460.38 660.6,-259.74 651.66,-197.48"/>
<polygon fill="midnightblue" stroke="midnightblue" points="655.11,-196.94 650.23,-187.54 648.18,-197.93 655.11,-196.94"/>
</g>
<!-- Node29&#45;&gt;Node23 -->
<g id="edge58" class="edge">
<title>Node29&#45;&gt;Node23</title>
<path fill="none" stroke="midnightblue" d="M703.98,-504.3C726.22,-475.67 794,-381.01 794,-291 794,-291 794,-291 794,-233 794,-186.11 743.45,-152.89 709.67,-135.93"/>
<polygon fill="midnightblue" stroke="midnightblue" points="711.17,-132.77 700.64,-131.58 708.13,-139.07 711.17,-132.77"/>
</g>
<!-- Node29&#45;&gt;Node25 -->
<g id="edge55" class="edge">
<title>Node29&#45;&gt;Node25</title>
<path fill="none" stroke="midnightblue" d="M666.48,-504.49C621.52,-491.98 534.85,-467.94 461,-448 417.54,-436.26 367.75,-423.12 333.34,-414.08"/>
<polygon fill="midnightblue" stroke="midnightblue" points="334.18,-410.68 323.62,-411.53 332.4,-417.45 334.18,-410.68"/>
</g>
</g>
</svg>
