<?xml version="1.0" encoding="UTF-8" standalone="no"?>
<!DOCTYPE svg PUBLIC "-//W3C//DTD SVG 1.1//EN"
 "http://www.w3.org/Graphics/SVG/1.1/DTD/svg11.dtd">
<!-- Generated by graphviz version 2.43.0 (0)
 -->
<!-- Title: /home/runner/work/Simulatio/Simulatio/engine/include/Structures/QuadNode.hpp Pages: 1 -->
<svg width="363pt" height="284pt"
 viewBox="0.00 0.00 363.00 284.00" xmlns="http://www.w3.org/2000/svg" xmlns:xlink="http://www.w3.org/1999/xlink">
<g id="graph0" class="graph" transform="scale(1 1) rotate(0) translate(4 280)">
<title>/home/runner/work/Simulatio/Simulatio/engine/include/Structures/QuadNode.hpp</title>
<!-- Node1 -->
<g id="node1" class="node">
<title>Node1</title>
<g id="a_node1"><a xlink:title=" ">
<polygon fill="#bfbfbf" stroke="black" points="98,-234.5 98,-275.5 256,-275.5 256,-234.5 98,-234.5"/>
<text text-anchor="start" x="106" y="-263.5" font-family="Helvetica,sans-Serif" font-size="10.00">/home/runner/work/Simulatio</text>
<text text-anchor="start" x="106" y="-252.5" font-family="Helvetica,sans-Serif" font-size="10.00">/Simulatio/engine/include</text>
<text text-anchor="middle" x="177" y="-241.5" font-family="Helvetica,sans-Serif" font-size="10.00">/Structures/QuadNode.hpp</text>
</a>
</g>
</g>
<!-- Node2 -->
<g id="node2" class="node">
<title>Node2</title>
<g id="a_node2"><a xlink:href="_quadtree_8hpp.html" target="_top" xlink:title=" ">
<polygon fill="none" stroke="black" points="7,-156.5 7,-197.5 165,-197.5 165,-156.5 7,-156.5"/>
<text text-anchor="start" x="15" y="-185.5" font-family="Helvetica,sans-Serif" font-size="10.00">/home/runner/work/Simulatio</text>
<text text-anchor="start" x="15" y="-174.5" font-family="Helvetica,sans-Serif" font-size="10.00">/Simulatio/engine/include</text>
<text text-anchor="middle" x="86" y="-163.5" font-family="Helvetica,sans-Serif" font-size="10.00">/Structures/Quadtree.hpp</text>
</a>
</g>
</g>
<!-- Node1&#45;&gt;Node2 -->
<g id="edge1" class="edge">
<title>Node1&#45;&gt;Node2</title>
<path fill="none" stroke="midnightblue" d="M145.6,-227.78C133.71,-217.84 120.38,-206.72 109.36,-197.51"/>
<polygon fill="midnightblue" stroke="midnightblue" points="143.65,-230.7 153.57,-234.43 148.13,-225.33 143.65,-230.7"/>
</g>
<!-- Node5 -->
<g id="node5" class="node">
<title>Node5</title>
<g id="a_node5"><a xlink:href="_quad_node_8cpp.html" target="_top" xlink:title=" ">
<polygon fill="none" stroke="black" points="183,-156.5 183,-197.5 355,-197.5 355,-156.5 183,-156.5"/>
<text text-anchor="start" x="191" y="-185.5" font-family="Helvetica,sans-Serif" font-size="10.00">/home/runner/work/Simulatio</text>
<text text-anchor="start" x="191" y="-174.5" font-family="Helvetica,sans-Serif" font-size="10.00">/Simulatio/engine/src/Structures</text>
<text text-anchor="middle" x="269" y="-163.5" font-family="Helvetica,sans-Serif" font-size="10.00">/QuadNode.cpp</text>
</a>
</g>
</g>
<!-- Node1&#45;&gt;Node5 -->
<g id="edge4" class="edge">
<title>Node1&#45;&gt;Node5</title>
<path fill="none" stroke="midnightblue" d="M208.74,-227.78C220.77,-217.84 234.24,-206.72 245.39,-197.51"/>
<polygon fill="midnightblue" stroke="midnightblue" points="206.17,-225.36 200.69,-234.43 210.63,-230.76 206.17,-225.36"/>
</g>
<!-- Node3 -->
<g id="node3" class="node">
<title>Node3</title>
<g id="a_node3"><a xlink:href="_system_8hpp.html" target="_top" xlink:title=" ">
<polygon fill="none" stroke="black" points="7,-78.5 7,-119.5 165,-119.5 165,-78.5 7,-78.5"/>
<text text-anchor="start" x="15" y="-107.5" font-family="Helvetica,sans-Serif" font-size="10.00">/home/runner/work/Simulatio</text>
<text text-anchor="start" x="15" y="-96.5" font-family="Helvetica,sans-Serif" font-size="10.00">/Simulatio/engine/include</text>
<text text-anchor="middle" x="86" y="-85.5" font-family="Helvetica,sans-Serif" font-size="10.00">/Structures/System.hpp</text>
</a>
</g>
</g>
<!-- Node2&#45;&gt;Node3 -->
<g id="edge2" class="edge">
<title>Node2&#45;&gt;Node3</title>
<path fill="none" stroke="midnightblue" d="M86,-146.3C86,-137.3 86,-127.65 86,-119.51"/>
<polygon fill="midnightblue" stroke="midnightblue" points="82.5,-146.43 86,-156.43 89.5,-146.43 82.5,-146.43"/>
</g>
<!-- Node4 -->
<g id="node4" class="node">
<title>Node4</title>
<g id="a_node4"><a xlink:href="_system_8cpp.html" target="_top" xlink:title=" ">
<polygon fill="none" stroke="black" points="0,-0.5 0,-41.5 172,-41.5 172,-0.5 0,-0.5"/>
<text text-anchor="start" x="8" y="-29.5" font-family="Helvetica,sans-Serif" font-size="10.00">/home/runner/work/Simulatio</text>
<text text-anchor="start" x="8" y="-18.5" font-family="Helvetica,sans-Serif" font-size="10.00">/Simulatio/engine/src/Structures</text>
<text text-anchor="middle" x="86" y="-7.5" font-family="Helvetica,sans-Serif" font-size="10.00">/System.cpp</text>
</a>
</g>
</g>
<!-- Node3&#45;&gt;Node4 -->
<g id="edge3" class="edge">
<title>Node3&#45;&gt;Node4</title>
<path fill="none" stroke="midnightblue" d="M86,-68.3C86,-59.3 86,-49.65 86,-41.51"/>
<polygon fill="midnightblue" stroke="midnightblue" points="82.5,-68.43 86,-78.43 89.5,-68.43 82.5,-68.43"/>
</g>
</g>
</svg>
