<?xml version="1.0" encoding="UTF-8" standalone="no"?>
<!DOCTYPE svg PUBLIC "-//W3C//DTD SVG 1.1//EN"
 "http://www.w3.org/Graphics/SVG/1.1/DTD/svg11.dtd">
<!-- Generated by graphviz version 2.43.0 (0)
 -->
<!-- Title: /home/runner/work/Simulatio/Simulatio/engine/src/Structures/QuadNode.cpp Pages: 1 -->
<svg width="904pt" height="621pt"
 viewBox="0.00 0.00 903.50 621.00" xmlns="http://www.w3.org/2000/svg" xmlns:xlink="http://www.w3.org/1999/xlink">
<g id="graph0" class="graph" transform="scale(1 1) rotate(0) translate(4 617)">
<title>/home/runner/work/Simulatio/Simulatio/engine/src/Structures/QuadNode.cpp</title>
<!-- Node1 -->
<g id="node1" class="node">
<title>Node1</title>
<g id="a_node1"><a xlink:title=" ">
<polygon fill="#bfbfbf" stroke="black" points="564,-571.5 564,-612.5 736,-612.5 736,-571.5 564,-571.5"/>
<text text-anchor="start" x="572" y="-600.5" font-family="Helvetica,sans-Serif" font-size="10.00">/home/runner/work/Simulatio</text>
<text text-anchor="start" x="572" y="-589.5" font-family="Helvetica,sans-Serif" font-size="10.00">/Simulatio/engine/src/Structures</text>
<text text-anchor="middle" x="650" y="-578.5" font-family="Helvetica,sans-Serif" font-size="10.00">/QuadNode.cpp</text>
</a>
</g>
</g>
<!-- Node2 -->
<g id="node2" class="node">
<title>Node2</title>
<g id="a_node2"><a xlink:href="_quad_node_8hpp.html" target="_top" xlink:title=" ">
<polygon fill="none" stroke="black" points="589,-504.5 589,-534.5 711,-534.5 711,-504.5 589,-504.5"/>
<text text-anchor="start" x="597" y="-522.5" font-family="Helvetica,sans-Serif" font-size="10.00">../../include/Structures</text>
<text text-anchor="middle" x="650" y="-511.5" font-family="Helvetica,sans-Serif" font-size="10.00">/QuadNode.hpp</text>
</a>
</g>
</g>
<!-- Node1&#45;&gt;Node2 -->
<g id="edge1" class="edge">
<title>Node1&#45;&gt;Node2</title>
<path fill="none" stroke="midnightblue" d="M650,-571.36C650,-563.23 650,-553.7 650,-545.11"/>
<polygon fill="midnightblue" stroke="midnightblue" points="653.5,-544.89 650,-534.89 646.5,-544.89 653.5,-544.89"/>
</g>
<!-- Node3 -->
<g id="node3" class="node">
<title>Node3</title>
<g id="a_node3"><a xlink:href="_circle_8hpp.html" target="_top" xlink:title=" ">
<polygon fill="none" stroke="black" points="542,-448.5 542,-467.5 658,-467.5 658,-448.5 542,-448.5"/>
<text text-anchor="middle" x="600" y="-455.5" font-family="Helvetica,sans-Serif" font-size="10.00">../Corpses/Circle.hpp</text>
</a>
</g>
</g>
<!-- Node2&#45;&gt;Node3 -->
<g id="edge2" class="edge">
<title>Node2&#45;&gt;Node3</title>
<path fill="none" stroke="midnightblue" d="M638.15,-504.4C630.89,-495.75 621.55,-484.64 613.93,-475.58"/>
<polygon fill="midnightblue" stroke="midnightblue" points="616.39,-473.06 607.28,-467.66 611.03,-477.57 616.39,-473.06"/>
</g>
<!-- Node6 -->
<g id="node6" class="node">
<title>Node6</title>
<g id="a_node6"><a xlink:href="_corpse_8hpp.html" target="_top" xlink:title=" ">
<polygon fill="none" stroke="black" points="419.5,-336.5 419.5,-355.5 490.5,-355.5 490.5,-336.5 419.5,-336.5"/>
<text text-anchor="middle" x="455" y="-343.5" font-family="Helvetica,sans-Serif" font-size="10.00">Corpse.hpp</text>
</a>
</g>
</g>
<!-- Node2&#45;&gt;Node6 -->
<g id="edge44" class="edge">
<title>Node2&#45;&gt;Node6</title>
<path fill="none" stroke="midnightblue" d="M594.76,-504.41C570.28,-496.38 542.09,-484.56 520,-468 494.89,-449.18 491.78,-439.68 477,-412 469.11,-397.22 463.25,-379.07 459.57,-365.7"/>
<polygon fill="midnightblue" stroke="midnightblue" points="462.89,-364.58 456.99,-355.78 456.12,-366.34 462.89,-364.58"/>
</g>
<!-- Node14 -->
<g id="node14" class="node">
<title>Node14</title>
<g id="a_node14"><a xlink:href="_maths_8hpp.html" target="_top" xlink:title=" ">
<polygon fill="none" stroke="black" points="384,-56.5 384,-75.5 512,-75.5 512,-56.5 384,-56.5"/>
<text text-anchor="middle" x="448" y="-63.5" font-family="Helvetica,sans-Serif" font-size="10.00">../Geometry/Maths.hpp</text>
</a>
</g>
</g>
<!-- Node2&#45;&gt;Node14 -->
<g id="edge47" class="edge">
<title>Node2&#45;&gt;Node14</title>
<path fill="none" stroke="midnightblue" d="M680.78,-504.35C715.15,-486.19 766,-451.17 766,-403 766,-403 766,-403 766,-177 766,-125.22 613.48,-92.4 519.7,-77.12"/>
<polygon fill="midnightblue" stroke="midnightblue" points="520.12,-73.64 509.69,-75.51 519.01,-80.55 520.12,-73.64"/>
</g>
<!-- Node23 -->
<g id="node23" class="node">
<title>Node23</title>
<g id="a_node23"><a xlink:href="_bounds_8hpp.html" target="_top" xlink:title=" ">
<polygon fill="none" stroke="black" points="495,-168.5 495,-187.5 569,-187.5 569,-168.5 495,-168.5"/>
<text text-anchor="middle" x="532" y="-175.5" font-family="Helvetica,sans-Serif" font-size="10.00">Bounds.hpp</text>
</a>
</g>
</g>
<!-- Node2&#45;&gt;Node23 -->
<g id="edge46" class="edge">
<title>Node2&#45;&gt;Node23</title>
<path fill="none" stroke="midnightblue" d="M658.29,-504.46C670,-483.24 690,-441.41 690,-403 690,-403 690,-403 690,-289 690,-258.9 691.97,-245.59 671,-224 647.04,-199.35 609.5,-188.18 579.46,-183.14"/>
<polygon fill="midnightblue" stroke="midnightblue" points="579.6,-179.62 569.19,-181.6 578.56,-186.54 579.6,-179.62"/>
</g>
<!-- Node24 -->
<g id="node24" class="node">
<title>Node24</title>
<g id="a_node24"><a xlink:href="_vector_8hpp.html" target="_top" xlink:title=" ">
<polygon fill="none" stroke="black" points="498,-112.5 498,-131.5 566,-131.5 566,-112.5 498,-112.5"/>
<text text-anchor="middle" x="532" y="-119.5" font-family="Helvetica,sans-Serif" font-size="10.00">Vector.hpp</text>
</a>
</g>
</g>
<!-- Node2&#45;&gt;Node24 -->
<g id="edge48" class="edge">
<title>Node2&#45;&gt;Node24</title>
<path fill="none" stroke="midnightblue" d="M668.09,-504.19C691.13,-484.21 728,-445.59 728,-403 728,-403 728,-403 728,-233 728,-163.8 633.93,-137.68 576.13,-128.17"/>
<polygon fill="midnightblue" stroke="midnightblue" points="576.56,-124.7 566.14,-126.63 575.49,-131.62 576.56,-124.7"/>
</g>
<!-- Node26 -->
<g id="node26" class="node">
<title>Node26</title>
<g id="a_node26"><a xlink:href="_polygon_8hpp.html" target="_top" xlink:title=" ">
<polygon fill="none" stroke="black" points="485.5,-392.5 485.5,-411.5 562.5,-411.5 562.5,-392.5 485.5,-392.5"/>
<text text-anchor="middle" x="524" y="-399.5" font-family="Helvetica,sans-Serif" font-size="10.00">Polygon.hpp</text>
</a>
</g>
</g>
<!-- Node2&#45;&gt;Node26 -->
<g id="edge45" class="edge">
<title>Node2&#45;&gt;Node26</title>
<path fill="none" stroke="midnightblue" d="M588.76,-505.16C568.01,-497.62 546.67,-485.96 533,-468 522.98,-454.84 521.43,-435.7 521.97,-421.59"/>
<polygon fill="midnightblue" stroke="midnightblue" points="525.46,-421.81 522.72,-411.57 518.48,-421.28 525.46,-421.81"/>
</g>
<!-- Node4 -->
<g id="node4" class="node">
<title>Node4</title>
<g id="a_node4"><a xlink:title=" ">
<polygon fill="none" stroke="#bfbfbf" points="3.5,-0.5 3.5,-19.5 50.5,-19.5 50.5,-0.5 3.5,-0.5"/>
<text text-anchor="middle" x="27" y="-7.5" font-family="Helvetica,sans-Serif" font-size="10.00">vector</text>
</a>
</g>
</g>
<!-- Node3&#45;&gt;Node4 -->
<g id="edge3" class="edge">
<title>Node3&#45;&gt;Node4</title>
<path fill="none" stroke="midnightblue" d="M541.92,-452.43C391.35,-439.81 0,-401.74 0,-347 0,-347 0,-347 0,-121 0,-87.86 11.7,-50.68 19.7,-29.14"/>
<polygon fill="midnightblue" stroke="midnightblue" points="23.02,-30.25 23.36,-19.66 16.49,-27.73 23.02,-30.25"/>
</g>
<!-- Node5 -->
<g id="node5" class="node">
<title>Node5</title>
<g id="a_node5"><a xlink:title=" ">
<polygon fill="none" stroke="#bfbfbf" points="594,-224.5 594,-243.5 662,-243.5 662,-224.5 594,-224.5"/>
<text text-anchor="middle" x="628" y="-231.5" font-family="Helvetica,sans-Serif" font-size="10.00">Config.hpp</text>
</a>
</g>
</g>
<!-- Node3&#45;&gt;Node5 -->
<g id="edge4" class="edge">
<title>Node3&#45;&gt;Node5</title>
<path fill="none" stroke="midnightblue" d="M601.1,-448.3C605.22,-415.63 619.82,-299.87 625.61,-253.96"/>
<polygon fill="midnightblue" stroke="midnightblue" points="629.1,-254.24 626.88,-243.88 622.16,-253.37 629.1,-254.24"/>
</g>
<!-- Node3&#45;&gt;Node6 -->
<g id="edge5" class="edge">
<title>Node3&#45;&gt;Node6</title>
<path fill="none" stroke="midnightblue" d="M598.47,-448.19C595.63,-434.39 588.3,-407.67 572,-392 552.5,-373.26 524.37,-362.11 500.58,-355.6"/>
<polygon fill="midnightblue" stroke="midnightblue" points="501.24,-352.16 490.69,-353.08 499.51,-358.94 501.24,-352.16"/>
</g>
<!-- Node3&#45;&gt;Node26 -->
<g id="edge39" class="edge">
<title>Node3&#45;&gt;Node26</title>
<path fill="none" stroke="midnightblue" d="M582.67,-448.32C569.46,-440.18 551.74,-427.84 539.11,-418.09"/>
<polygon fill="midnightblue" stroke="midnightblue" points="541.28,-415.34 531.28,-411.83 536.91,-420.81 541.28,-415.34"/>
</g>
<!-- Node6&#45;&gt;Node4 -->
<g id="edge9" class="edge">
<title>Node6&#45;&gt;Node4</title>
<path fill="none" stroke="midnightblue" d="M419.37,-343.14C346.23,-338.82 181.93,-326.4 133,-300 99.19,-281.75 76,-273.42 76,-235 76,-235 76,-235 76,-121 76,-85.47 54.4,-48.63 39.88,-27.88"/>
<polygon fill="midnightblue" stroke="midnightblue" points="42.53,-25.57 33.81,-19.54 36.87,-29.69 42.53,-25.57"/>
</g>
<!-- Node6&#45;&gt;Node5 -->
<g id="edge38" class="edge">
<title>Node6&#45;&gt;Node5</title>
<path fill="none" stroke="midnightblue" d="M471.98,-336.43C488.8,-327.77 515.14,-313.74 537,-300 562.57,-283.93 590.66,-263.39 608.77,-249.75"/>
<polygon fill="midnightblue" stroke="midnightblue" points="610.95,-252.49 616.81,-243.65 606.72,-246.91 610.95,-252.49"/>
</g>
<!-- Node7 -->
<g id="node7" class="node">
<title>Node7</title>
<g id="a_node7"><a xlink:title=" ">
<polygon fill="none" stroke="#bfbfbf" points="68.5,-0.5 68.5,-19.5 115.5,-19.5 115.5,-0.5 68.5,-0.5"/>
<text text-anchor="middle" x="92" y="-7.5" font-family="Helvetica,sans-Serif" font-size="10.00">cmath</text>
</a>
</g>
</g>
<!-- Node6&#45;&gt;Node7 -->
<g id="edge6" class="edge">
<title>Node6&#45;&gt;Node7</title>
<path fill="none" stroke="midnightblue" d="M419.36,-342.55C352.32,-337.44 210.37,-324.07 168,-300 135.34,-281.45 114,-272.56 114,-235 114,-235 114,-235 114,-121 114,-88.33 104.55,-51.24 98.04,-29.55"/>
<polygon fill="midnightblue" stroke="midnightblue" points="101.29,-28.22 94.97,-19.72 94.61,-30.31 101.29,-28.22"/>
</g>
<!-- Node8 -->
<g id="node8" class="node">
<title>Node8</title>
<g id="a_node8"><a xlink:title=" ">
<polygon fill="none" stroke="#bfbfbf" points="134,-0.5 134,-19.5 194,-19.5 194,-0.5 134,-0.5"/>
<text text-anchor="middle" x="164" y="-7.5" font-family="Helvetica,sans-Serif" font-size="10.00">iostream</text>
</a>
</g>
</g>
<!-- Node6&#45;&gt;Node8 -->
<g id="edge7" class="edge">
<title>Node6&#45;&gt;Node8</title>
<path fill="none" stroke="midnightblue" d="M419.33,-341.91C358.33,-336.11 237.08,-322.12 201,-300 170.16,-281.09 152,-271.18 152,-235 152,-235 152,-235 152,-121 152,-88.76 157.16,-51.51 160.71,-29.68"/>
<polygon fill="midnightblue" stroke="midnightblue" points="164.21,-29.97 162.43,-19.52 157.31,-28.8 164.21,-29.97"/>
</g>
<!-- Node9 -->
<g id="node9" class="node">
<title>Node9</title>
<g id="a_node9"><a xlink:title=" ">
<polygon fill="none" stroke="#bfbfbf" points="212,-0.5 212,-19.5 270,-19.5 270,-0.5 212,-0.5"/>
<text text-anchor="middle" x="241" y="-7.5" font-family="Helvetica,sans-Serif" font-size="10.00">memory</text>
</a>
</g>
</g>
<!-- Node6&#45;&gt;Node9 -->
<g id="edge8" class="edge">
<title>Node6&#45;&gt;Node9</title>
<path fill="none" stroke="midnightblue" d="M419.26,-345.8C346.93,-345.37 190,-333.13 190,-235 190,-235 190,-235 190,-121 190,-85.24 212.45,-48.51 227.56,-27.84"/>
<polygon fill="midnightblue" stroke="midnightblue" points="230.43,-29.85 233.69,-19.77 224.86,-25.61 230.43,-29.85"/>
</g>
<!-- Node10 -->
<g id="node10" class="node">
<title>Node10</title>
<g id="a_node10"><a xlink:href="_geometry_8hpp.html" target="_top" xlink:title=" ">
<polygon fill="none" stroke="black" points="382,-280.5 382,-299.5 528,-299.5 528,-280.5 382,-280.5"/>
<text text-anchor="middle" x="455" y="-287.5" font-family="Helvetica,sans-Serif" font-size="10.00">../Geometry/Geometry.hpp</text>
</a>
</g>
</g>
<!-- Node6&#45;&gt;Node10 -->
<g id="edge10" class="edge">
<title>Node6&#45;&gt;Node10</title>
<path fill="none" stroke="midnightblue" d="M455,-336.08C455,-329.01 455,-318.86 455,-309.99"/>
<polygon fill="midnightblue" stroke="midnightblue" points="458.5,-309.75 455,-299.75 451.5,-309.75 458.5,-309.75"/>
</g>
<!-- Node10&#45;&gt;Node5 -->
<g id="edge31" class="edge">
<title>Node10&#45;&gt;Node5</title>
<path fill="none" stroke="midnightblue" d="M482.41,-280.44C511.77,-271.28 558.52,-256.69 591.1,-246.52"/>
<polygon fill="midnightblue" stroke="midnightblue" points="592.21,-249.84 600.72,-243.52 590.13,-243.16 592.21,-249.84"/>
</g>
<!-- Node11 -->
<g id="node11" class="node">
<title>Node11</title>
<g id="a_node11"><a xlink:href="_recorder_8hpp.html" target="_top" xlink:title=" ">
<polygon fill="none" stroke="black" points="218,-224.5 218,-243.5 366,-243.5 366,-224.5 218,-224.5"/>
<text text-anchor="middle" x="292" y="-231.5" font-family="Helvetica,sans-Serif" font-size="10.00">../Benchmark/Recorder.hpp</text>
</a>
</g>
</g>
<!-- Node10&#45;&gt;Node11 -->
<g id="edge11" class="edge">
<title>Node10&#45;&gt;Node11</title>
<path fill="none" stroke="midnightblue" d="M429.17,-280.44C401.75,-271.36 358.22,-256.94 327.57,-246.78"/>
<polygon fill="midnightblue" stroke="midnightblue" points="328.3,-243.34 317.71,-243.52 326.1,-249.98 328.3,-243.34"/>
</g>
<!-- Node10&#45;&gt;Node14 -->
<g id="edge32" class="edge">
<title>Node10&#45;&gt;Node14</title>
<path fill="none" stroke="midnightblue" d="M443.46,-280.49C433.52,-272.38 419.88,-259.18 414,-244 392.49,-188.44 421.78,-117.62 438.21,-84.97"/>
<polygon fill="midnightblue" stroke="midnightblue" points="441.48,-86.26 443.01,-75.78 435.28,-83.02 441.48,-86.26"/>
</g>
<!-- Node10&#45;&gt;Node23 -->
<g id="edge27" class="edge">
<title>Node10&#45;&gt;Node23</title>
<path fill="none" stroke="midnightblue" d="M469.25,-280.29C481.35,-272.23 498.4,-259.22 509,-244 518.72,-230.03 524.74,-211.53 528.17,-197.84"/>
<polygon fill="midnightblue" stroke="midnightblue" points="531.68,-198.2 530.47,-187.67 524.85,-196.65 531.68,-198.2"/>
</g>
<!-- Node10&#45;&gt;Node24 -->
<g id="edge33" class="edge">
<title>Node10&#45;&gt;Node24</title>
<path fill="none" stroke="midnightblue" d="M475.4,-280.34C505.47,-266.21 560.08,-234.99 578,-188 581.17,-179.69 581.45,-176.19 578,-168 572.97,-156.05 563.06,-145.69 553.71,-137.93"/>
<polygon fill="midnightblue" stroke="midnightblue" points="555.84,-135.15 545.79,-131.81 551.56,-140.69 555.84,-135.15"/>
</g>
<!-- Node25 -->
<g id="node25" class="node">
<title>Node25</title>
<g id="a_node25"><a xlink:href="_vertices_8hpp.html" target="_top" xlink:title=" ">
<polygon fill="none" stroke="black" points="422.5,-224.5 422.5,-243.5 499.5,-243.5 499.5,-224.5 422.5,-224.5"/>
<text text-anchor="middle" x="461" y="-231.5" font-family="Helvetica,sans-Serif" font-size="10.00">Vertices.hpp</text>
</a>
</g>
</g>
<!-- Node10&#45;&gt;Node25 -->
<g id="edge34" class="edge">
<title>Node10&#45;&gt;Node25</title>
<path fill="none" stroke="midnightblue" d="M455.99,-280.08C456.79,-272.93 457.93,-262.64 458.92,-253.69"/>
<polygon fill="midnightblue" stroke="midnightblue" points="462.4,-254.08 460.03,-243.75 455.44,-253.3 462.4,-254.08"/>
</g>
<!-- Node12 -->
<g id="node12" class="node">
<title>Node12</title>
<g id="a_node12"><a xlink:href="_performance_8hpp.html" target="_top" xlink:title=" ">
<polygon fill="none" stroke="black" points="249,-168.5 249,-187.5 349,-187.5 349,-168.5 249,-168.5"/>
<text text-anchor="middle" x="299" y="-175.5" font-family="Helvetica,sans-Serif" font-size="10.00">Performance.hpp</text>
</a>
</g>
</g>
<!-- Node11&#45;&gt;Node12 -->
<g id="edge12" class="edge">
<title>Node11&#45;&gt;Node12</title>
<path fill="none" stroke="midnightblue" d="M293.16,-224.08C294.08,-216.93 295.42,-206.64 296.58,-197.69"/>
<polygon fill="midnightblue" stroke="midnightblue" points="300.05,-198.12 297.87,-187.75 293.11,-197.22 300.05,-198.12"/>
</g>
<!-- Node13 -->
<g id="node13" class="node">
<title>Node13</title>
<g id="a_node13"><a xlink:href="_block_data_8hpp.html" target="_top" xlink:title=" ">
<polygon fill="none" stroke="black" points="260,-112.5 260,-131.5 348,-131.5 348,-112.5 260,-112.5"/>
<text text-anchor="middle" x="304" y="-119.5" font-family="Helvetica,sans-Serif" font-size="10.00">BlockData.hpp</text>
</a>
</g>
</g>
<!-- Node12&#45;&gt;Node13 -->
<g id="edge13" class="edge">
<title>Node12&#45;&gt;Node13</title>
<path fill="none" stroke="midnightblue" d="M299.83,-168.08C300.48,-161.01 301.42,-150.86 302.24,-141.99"/>
<polygon fill="midnightblue" stroke="midnightblue" points="305.75,-142.03 303.19,-131.75 298.78,-141.39 305.75,-142.03"/>
</g>
<!-- Node13&#45;&gt;Node14 -->
<g id="edge14" class="edge">
<title>Node13&#45;&gt;Node14</title>
<path fill="none" stroke="midnightblue" d="M326.82,-112.44C350.83,-103.44 388.83,-89.19 415.87,-79.05"/>
<polygon fill="midnightblue" stroke="midnightblue" points="417.16,-82.3 425.29,-75.52 414.7,-75.75 417.16,-82.3"/>
</g>
<!-- Node14&#45;&gt;Node4 -->
<g id="edge26" class="edge">
<title>Node14&#45;&gt;Node4</title>
<path fill="none" stroke="midnightblue" d="M383.84,-60.72C308.45,-54.99 179.52,-43 60.66,-20.07"/>
<polygon fill="midnightblue" stroke="midnightblue" points="61.15,-16.6 50.66,-18.11 59.8,-23.47 61.15,-16.6"/>
</g>
<!-- Node14&#45;&gt;Node7 -->
<g id="edge17" class="edge">
<title>Node14&#45;&gt;Node7</title>
<path fill="none" stroke="midnightblue" d="M383.85,-58.51C320.55,-51.55 220.91,-39.12 125.52,-19.86"/>
<polygon fill="midnightblue" stroke="midnightblue" points="126.2,-16.43 115.71,-17.85 124.8,-23.29 126.2,-16.43"/>
</g>
<!-- Node14&#45;&gt;Node8 -->
<g id="edge20" class="edge">
<title>Node14&#45;&gt;Node8</title>
<path fill="none" stroke="midnightblue" d="M397.66,-56.44C350.18,-48.21 276.77,-35.09 204,-20.14"/>
<polygon fill="midnightblue" stroke="midnightblue" points="204.71,-16.71 194.2,-18.11 203.29,-23.56 204.71,-16.71"/>
</g>
<!-- Node14&#45;&gt;Node9 -->
<g id="edge22" class="edge">
<title>Node14&#45;&gt;Node9</title>
<path fill="none" stroke="midnightblue" d="M415.2,-56.44C378.57,-46.89 319.32,-31.43 280.26,-21.24"/>
<polygon fill="midnightblue" stroke="midnightblue" points="280.86,-17.78 270.3,-18.64 279.09,-24.55 280.86,-17.78"/>
</g>
<!-- Node15 -->
<g id="node15" class="node">
<title>Node15</title>
<g id="a_node15"><a xlink:title=" ">
<polygon fill="none" stroke="#bfbfbf" points="637,-0.5 637,-19.5 679,-19.5 679,-0.5 637,-0.5"/>
<text text-anchor="middle" x="658" y="-7.5" font-family="Helvetica,sans-Serif" font-size="10.00">array</text>
</a>
</g>
</g>
<!-- Node14&#45;&gt;Node15 -->
<g id="edge15" class="edge">
<title>Node14&#45;&gt;Node15</title>
<path fill="none" stroke="midnightblue" d="M484.33,-56.44C518.71,-48.23 571.99,-35.2 626.84,-20.23"/>
<polygon fill="midnightblue" stroke="midnightblue" points="628.01,-23.54 636.73,-17.51 626.16,-16.79 628.01,-23.54"/>
</g>
<!-- Node16 -->
<g id="node16" class="node">
<title>Node16</title>
<g id="a_node16"><a xlink:title=" ">
<polygon fill="none" stroke="#bfbfbf" points="697,-0.5 697,-19.5 747,-19.5 747,-0.5 697,-0.5"/>
<text text-anchor="middle" x="722" y="-7.5" font-family="Helvetica,sans-Serif" font-size="10.00">chrono</text>
</a>
</g>
</g>
<!-- Node14&#45;&gt;Node16 -->
<g id="edge16" class="edge">
<title>Node14&#45;&gt;Node16</title>
<path fill="none" stroke="midnightblue" d="M499.72,-56.43C546.29,-48.46 616.8,-35.77 686.91,-20.12"/>
<polygon fill="midnightblue" stroke="midnightblue" points="687.81,-23.5 696.8,-17.89 686.27,-16.67 687.81,-23.5"/>
</g>
<!-- Node17 -->
<g id="node17" class="node">
<title>Node17</title>
<g id="a_node17"><a xlink:title=" ">
<polygon fill="none" stroke="#bfbfbf" points="765.5,-0.5 765.5,-19.5 812.5,-19.5 812.5,-0.5 765.5,-0.5"/>
<text text-anchor="middle" x="789" y="-7.5" font-family="Helvetica,sans-Serif" font-size="10.00">deque</text>
</a>
</g>
</g>
<!-- Node14&#45;&gt;Node17 -->
<g id="edge18" class="edge">
<title>Node14&#45;&gt;Node17</title>
<path fill="none" stroke="midnightblue" d="M512.1,-57.93C572.48,-50.75 665.59,-38.35 755.48,-19.88"/>
<polygon fill="midnightblue" stroke="midnightblue" points="756.21,-23.3 765.29,-17.84 754.79,-16.45 756.21,-23.3"/>
</g>
<!-- Node18 -->
<g id="node18" class="node">
<title>Node18</title>
<g id="a_node18"><a xlink:title=" ">
<polygon fill="none" stroke="#bfbfbf" points="830.5,-0.5 830.5,-19.5 895.5,-19.5 895.5,-0.5 830.5,-0.5"/>
<text text-anchor="middle" x="863" y="-7.5" font-family="Helvetica,sans-Serif" font-size="10.00">functional</text>
</a>
</g>
</g>
<!-- Node14&#45;&gt;Node18 -->
<g id="edge19" class="edge">
<title>Node14&#45;&gt;Node18</title>
<path fill="none" stroke="midnightblue" d="M512.13,-59.18C584.72,-52.17 706.68,-39.1 820.46,-20.13"/>
<polygon fill="midnightblue" stroke="midnightblue" points="821.1,-23.57 830.38,-18.46 819.94,-16.67 821.1,-23.57"/>
</g>
<!-- Node19 -->
<g id="node19" class="node">
<title>Node19</title>
<g id="a_node19"><a xlink:title=" ">
<polygon fill="none" stroke="#bfbfbf" points="288.5,-0.5 288.5,-19.5 341.5,-19.5 341.5,-0.5 288.5,-0.5"/>
<text text-anchor="middle" x="315" y="-7.5" font-family="Helvetica,sans-Serif" font-size="10.00">iterator</text>
</a>
</g>
</g>
<!-- Node14&#45;&gt;Node19 -->
<g id="edge21" class="edge">
<title>Node14&#45;&gt;Node19</title>
<path fill="none" stroke="midnightblue" d="M426.93,-56.44C404.94,-47.52 370.27,-33.44 345.34,-23.32"/>
<polygon fill="midnightblue" stroke="midnightblue" points="346.56,-20.04 335.98,-19.52 343.92,-26.52 346.56,-20.04"/>
</g>
<!-- Node20 -->
<g id="node20" class="node">
<title>Node20</title>
<g id="a_node20"><a xlink:title=" ">
<polygon fill="none" stroke="#bfbfbf" points="360,-0.5 360,-19.5 416,-19.5 416,-0.5 360,-0.5"/>
<text text-anchor="middle" x="388" y="-7.5" font-family="Helvetica,sans-Serif" font-size="10.00">sstream</text>
</a>
</g>
</g>
<!-- Node14&#45;&gt;Node20 -->
<g id="edge23" class="edge">
<title>Node14&#45;&gt;Node20</title>
<path fill="none" stroke="midnightblue" d="M438.36,-56.32C429.49,-48.34 416.13,-36.31 405.39,-26.65"/>
<polygon fill="midnightblue" stroke="midnightblue" points="407.59,-23.92 397.82,-19.83 402.91,-29.13 407.59,-23.92"/>
</g>
<!-- Node21 -->
<g id="node21" class="node">
<title>Node21</title>
<g id="a_node21"><a xlink:title=" ">
<polygon fill="none" stroke="#bfbfbf" points="434.5,-0.5 434.5,-19.5 507.5,-19.5 507.5,-0.5 434.5,-0.5"/>
<text text-anchor="middle" x="471" y="-7.5" font-family="Helvetica,sans-Serif" font-size="10.00">string_view</text>
</a>
</g>
</g>
<!-- Node14&#45;&gt;Node21 -->
<g id="edge24" class="edge">
<title>Node14&#45;&gt;Node21</title>
<path fill="none" stroke="midnightblue" d="M451.8,-56.08C454.91,-48.77 459.42,-38.18 463.29,-29.1"/>
<polygon fill="midnightblue" stroke="midnightblue" points="466.57,-30.32 467.27,-19.75 460.13,-27.58 466.57,-30.32"/>
</g>
<!-- Node22 -->
<g id="node22" class="node">
<title>Node22</title>
<g id="a_node22"><a xlink:title=" ">
<polygon fill="none" stroke="#bfbfbf" points="525.5,-0.5 525.5,-19.5 618.5,-19.5 618.5,-0.5 525.5,-0.5"/>
<text text-anchor="middle" x="572" y="-7.5" font-family="Helvetica,sans-Serif" font-size="10.00">unordered_map</text>
</a>
</g>
</g>
<!-- Node14&#45;&gt;Node22 -->
<g id="edge25" class="edge">
<title>Node14&#45;&gt;Node22</title>
<path fill="none" stroke="midnightblue" d="M467.65,-56.44C487.96,-47.6 519.9,-33.69 543.1,-23.59"/>
<polygon fill="midnightblue" stroke="midnightblue" points="544.67,-26.72 552.44,-19.52 541.88,-20.3 544.67,-26.72"/>
</g>
<!-- Node23&#45;&gt;Node14 -->
<g id="edge28" class="edge">
<title>Node23&#45;&gt;Node14</title>
<path fill="none" stroke="midnightblue" d="M522.54,-168.18C513.42,-159.45 499.5,-145.46 489,-132 477.11,-116.77 465.55,-97.96 457.75,-84.51"/>
<polygon fill="midnightblue" stroke="midnightblue" points="460.77,-82.74 452.79,-75.78 454.69,-86.2 460.77,-82.74"/>
</g>
<!-- Node23&#45;&gt;Node24 -->
<g id="edge29" class="edge">
<title>Node23&#45;&gt;Node24</title>
<path fill="none" stroke="midnightblue" d="M532,-168.08C532,-161.01 532,-150.86 532,-141.99"/>
<polygon fill="midnightblue" stroke="midnightblue" points="535.5,-141.75 532,-131.75 528.5,-141.75 535.5,-141.75"/>
</g>
<!-- Node24&#45;&gt;Node14 -->
<g id="edge30" class="edge">
<title>Node24&#45;&gt;Node14</title>
<path fill="none" stroke="midnightblue" d="M518.5,-112.32C505.4,-103.9 485.29,-90.97 469.89,-81.07"/>
<polygon fill="midnightblue" stroke="midnightblue" points="471.77,-78.12 461.46,-75.65 467.98,-84.01 471.77,-78.12"/>
</g>
<!-- Node25&#45;&gt;Node14 -->
<g id="edge36" class="edge">
<title>Node25&#45;&gt;Node14</title>
<path fill="none" stroke="midnightblue" d="M460.3,-224.08C458.25,-197.95 452.25,-121.21 449.45,-85.58"/>
<polygon fill="midnightblue" stroke="midnightblue" points="452.94,-85.26 448.67,-75.57 445.96,-85.81 452.94,-85.26"/>
</g>
<!-- Node25&#45;&gt;Node23 -->
<g id="edge35" class="edge">
<title>Node25&#45;&gt;Node23</title>
<path fill="none" stroke="midnightblue" d="M472.41,-224.32C483.11,-216.18 499.34,-203.84 512.16,-194.09"/>
<polygon fill="midnightblue" stroke="midnightblue" points="514.54,-196.67 520.39,-187.83 510.31,-191.1 514.54,-196.67"/>
</g>
<!-- Node25&#45;&gt;Node24 -->
<g id="edge37" class="edge">
<title>Node25&#45;&gt;Node24</title>
<path fill="none" stroke="midnightblue" d="M463.03,-224.45C466.37,-211.48 473.91,-186.38 486,-168 493.33,-156.85 503.84,-146.31 512.96,-138.24"/>
<polygon fill="midnightblue" stroke="midnightblue" points="515.45,-140.71 520.81,-131.57 510.92,-135.37 515.45,-140.71"/>
</g>
<!-- Node26&#45;&gt;Node3 -->
<g id="edge41" class="edge">
<title>Node26&#45;&gt;Node3</title>
<path fill="none" stroke="midnightblue" d="M541.29,-411.65C554.58,-419.83 572.42,-432.28 585.09,-442.06"/>
<polygon fill="midnightblue" stroke="midnightblue" points="582.91,-444.8 592.9,-448.32 587.29,-439.34 582.91,-444.8"/>
</g>
<!-- Node26&#45;&gt;Node4 -->
<g id="edge40" class="edge">
<title>Node26&#45;&gt;Node4</title>
<path fill="none" stroke="midnightblue" d="M485.46,-400.49C370.51,-397.92 38,-382.59 38,-291 38,-291 38,-291 38,-121 38,-88.79 33.27,-51.53 30.02,-29.69"/>
<polygon fill="midnightblue" stroke="midnightblue" points="33.43,-28.87 28.44,-19.53 26.51,-29.95 33.43,-28.87"/>
</g>
<!-- Node26&#45;&gt;Node5 -->
<g id="edge42" class="edge">
<title>Node26&#45;&gt;Node5</title>
<path fill="none" stroke="midnightblue" d="M529.59,-392.08C546.17,-365.61 595.29,-287.21 617.22,-252.21"/>
<polygon fill="midnightblue" stroke="midnightblue" points="620.29,-253.9 622.63,-243.57 614.36,-250.18 620.29,-253.9"/>
</g>
<!-- Node26&#45;&gt;Node6 -->
<g id="edge43" class="edge">
<title>Node26&#45;&gt;Node6</title>
<path fill="none" stroke="midnightblue" d="M512.91,-392.32C502.51,-384.18 486.74,-371.84 474.28,-362.09"/>
<polygon fill="midnightblue" stroke="midnightblue" points="476.32,-359.24 466.29,-355.83 472.01,-364.75 476.32,-359.24"/>
</g>
</g>
</svg>
