<?xml version="1.0" encoding="UTF-8" standalone="no"?>
<!DOCTYPE svg PUBLIC "-//W3C//DTD SVG 1.1//EN"
 "http://www.w3.org/Graphics/SVG/1.1/DTD/svg11.dtd">
<!-- Generated by graphviz version 2.43.0 (0)
 -->
<!-- Title: /home/runner/work/Simulatio/Simulatio/include/Structures/Quadtree.hpp Pages: 1 -->
<svg width="1024pt" height="610pt"
 viewBox="0.00 0.00 1024.00 610.00" xmlns="http://www.w3.org/2000/svg" xmlns:xlink="http://www.w3.org/1999/xlink">
<g id="graph0" class="graph" transform="scale(1 1) rotate(0) translate(4 606)">
<title>/home/runner/work/Simulatio/Simulatio/include/Structures/Quadtree.hpp</title>
<!-- Node1 -->
<g id="node1" class="node">
<title>Node1</title>
<g id="a_node1"><a xlink:title=" ">
<polygon fill="#bfbfbf" stroke="black" points="200,-560.5 200,-601.5 358,-601.5 358,-560.5 200,-560.5"/>
<text text-anchor="start" x="208" y="-589.5" font-family="Helvetica,sans-Serif" font-size="10.00">/home/runner/work/Simulatio</text>
<text text-anchor="start" x="208" y="-578.5" font-family="Helvetica,sans-Serif" font-size="10.00">/Simulatio/include/Structures</text>
<text text-anchor="middle" x="279" y="-567.5" font-family="Helvetica,sans-Serif" font-size="10.00">/Quadtree.hpp</text>
</a>
</g>
</g>
<!-- Node2 -->
<g id="node2" class="node">
<title>Node2</title>
<g id="a_node2"><a xlink:href="_circle_8hpp.html" target="_top" xlink:title=" ">
<polygon fill="none" stroke="black" points="686,-448.5 686,-467.5 802,-467.5 802,-448.5 686,-448.5"/>
<text text-anchor="middle" x="744" y="-455.5" font-family="Helvetica,sans-Serif" font-size="10.00">../Corpses/Circle.hpp</text>
</a>
</g>
</g>
<!-- Node1&#45;&gt;Node2 -->
<g id="edge1" class="edge">
<title>Node1&#45;&gt;Node2</title>
<path fill="none" stroke="midnightblue" d="M358.16,-578.2C434.93,-574.13 553.49,-561.61 649,-524 678.88,-512.23 708.68,-489.63 726.73,-474.42"/>
<polygon fill="midnightblue" stroke="midnightblue" points="729.31,-476.82 734.59,-467.64 724.74,-471.52 729.31,-476.82"/>
</g>
<!-- Node5 -->
<g id="node5" class="node">
<title>Node5</title>
<g id="a_node5"><a xlink:href="_corpse_8hpp.html" target="_top" xlink:title=" ">
<polygon fill="none" stroke="black" points="712.5,-336.5 712.5,-355.5 783.5,-355.5 783.5,-336.5 712.5,-336.5"/>
<text text-anchor="middle" x="748" y="-343.5" font-family="Helvetica,sans-Serif" font-size="10.00">Corpse.hpp</text>
</a>
</g>
</g>
<!-- Node1&#45;&gt;Node5 -->
<g id="edge42" class="edge">
<title>Node1&#45;&gt;Node5</title>
<path fill="none" stroke="midnightblue" d="M318.58,-560.34C411.77,-514.04 643.01,-399.16 721.47,-360.18"/>
<polygon fill="midnightblue" stroke="midnightblue" points="723.28,-363.19 730.68,-355.61 720.16,-356.92 723.28,-363.19"/>
</g>
<!-- Node13 -->
<g id="node13" class="node">
<title>Node13</title>
<g id="a_node13"><a xlink:href="_maths_8hpp.html" target="_top" xlink:title=" ">
<polygon fill="none" stroke="black" points="368,-56.5 368,-75.5 496,-75.5 496,-56.5 368,-56.5"/>
<text text-anchor="middle" x="432" y="-63.5" font-family="Helvetica,sans-Serif" font-size="10.00">../Geometry/Maths.hpp</text>
</a>
</g>
</g>
<!-- Node1&#45;&gt;Node13 -->
<g id="edge45" class="edge">
<title>Node1&#45;&gt;Node13</title>
<path fill="none" stroke="midnightblue" d="M199.8,-578.15C117.31,-571.5 0,-546.64 0,-459 0,-459 0,-459 0,-177 0,-104.08 234.1,-78.91 357.64,-70.7"/>
<polygon fill="midnightblue" stroke="midnightblue" points="358.04,-74.18 367.79,-70.05 357.59,-67.2 358.04,-74.18"/>
</g>
<!-- Node21 -->
<g id="node21" class="node">
<title>Node21</title>
<g id="a_node21"><a xlink:href="_bounds_8hpp.html" target="_top" xlink:title=" ">
<polygon fill="none" stroke="black" points="299,-168.5 299,-187.5 373,-187.5 373,-168.5 299,-168.5"/>
<text text-anchor="middle" x="336" y="-175.5" font-family="Helvetica,sans-Serif" font-size="10.00">Bounds.hpp</text>
</a>
</g>
</g>
<!-- Node1&#45;&gt;Node21 -->
<g id="edge44" class="edge">
<title>Node1&#45;&gt;Node21</title>
<path fill="none" stroke="midnightblue" d="M263.12,-560.36C246.26,-537.46 222,-497.78 222,-459 222,-459 222,-459 222,-401 222,-315.92 289.07,-230.75 320.32,-195.68"/>
<polygon fill="midnightblue" stroke="midnightblue" points="323.28,-197.62 327.43,-187.88 318.11,-192.91 323.28,-197.62"/>
</g>
<!-- Node22 -->
<g id="node22" class="node">
<title>Node22</title>
<g id="a_node22"><a xlink:href="_vector_8hpp.html" target="_top" xlink:title=" ">
<polygon fill="none" stroke="black" points="249,-112.5 249,-131.5 317,-131.5 317,-112.5 249,-112.5"/>
<text text-anchor="middle" x="283" y="-119.5" font-family="Helvetica,sans-Serif" font-size="10.00">Vector.hpp</text>
</a>
</g>
</g>
<!-- Node1&#45;&gt;Node22 -->
<g id="edge48" class="edge">
<title>Node1&#45;&gt;Node22</title>
<path fill="none" stroke="midnightblue" d="M249.72,-560.34C221.81,-539 184,-502.13 184,-459 184,-459 184,-459 184,-233 184,-189.18 227.94,-154.93 257.27,-136.94"/>
<polygon fill="midnightblue" stroke="midnightblue" points="259.36,-139.77 266.21,-131.68 255.81,-133.74 259.36,-139.77"/>
</g>
<!-- Node24 -->
<g id="node24" class="node">
<title>Node24</title>
<g id="a_node24"><a xlink:href="_polygon_8hpp.html" target="_top" xlink:title=" ">
<polygon fill="none" stroke="black" points="705.5,-392.5 705.5,-411.5 782.5,-411.5 782.5,-392.5 705.5,-392.5"/>
<text text-anchor="middle" x="744" y="-399.5" font-family="Helvetica,sans-Serif" font-size="10.00">Polygon.hpp</text>
</a>
</g>
</g>
<!-- Node1&#45;&gt;Node24 -->
<g id="edge43" class="edge">
<title>Node1&#45;&gt;Node24</title>
<path fill="none" stroke="midnightblue" d="M358.09,-567.56C406.66,-558.53 469.58,-544.31 523,-524 600.27,-494.63 683.89,-442.68 722.38,-417.5"/>
<polygon fill="midnightblue" stroke="midnightblue" points="724.74,-420.13 731.16,-411.7 720.89,-414.29 724.74,-420.13"/>
</g>
<!-- Node25 -->
<g id="node25" class="node">
<title>Node25</title>
<g id="a_node25"><a xlink:href="_string_8hpp.html" target="_top" xlink:title=" ">
<polygon fill="none" stroke="black" points="28.5,-448.5 28.5,-467.5 155.5,-467.5 155.5,-448.5 28.5,-448.5"/>
<text text-anchor="middle" x="92" y="-455.5" font-family="Helvetica,sans-Serif" font-size="10.00">../Geometry/String.hpp</text>
</a>
</g>
</g>
<!-- Node1&#45;&gt;Node25 -->
<g id="edge46" class="edge">
<title>Node1&#45;&gt;Node25</title>
<path fill="none" stroke="midnightblue" d="M235.59,-560.42C215.1,-550.51 190.67,-537.68 170,-524 147.43,-509.06 123.87,-488.66 108.63,-474.72"/>
<polygon fill="midnightblue" stroke="midnightblue" points="110.79,-471.95 101.08,-467.72 106.03,-477.08 110.79,-471.95"/>
</g>
<!-- Node26 -->
<g id="node26" class="node">
<title>Node26</title>
<g id="a_node26"><a xlink:href="_quad_node_8hpp.html" target="_top" xlink:title=" ">
<polygon fill="none" stroke="black" points="291.5,-504.5 291.5,-523.5 380.5,-523.5 380.5,-504.5 291.5,-504.5"/>
<text text-anchor="middle" x="336" y="-511.5" font-family="Helvetica,sans-Serif" font-size="10.00">QuadNode.hpp</text>
</a>
</g>
</g>
<!-- Node1&#45;&gt;Node26 -->
<g id="edge49" class="edge">
<title>Node1&#45;&gt;Node26</title>
<path fill="none" stroke="midnightblue" d="M296.1,-560.5C304.25,-551.2 313.89,-540.21 321.66,-531.36"/>
<polygon fill="midnightblue" stroke="midnightblue" points="324.45,-533.48 328.41,-523.65 319.19,-528.86 324.45,-533.48"/>
</g>
<!-- Node3 -->
<g id="node3" class="node">
<title>Node3</title>
<g id="a_node3"><a xlink:title=" ">
<polygon fill="none" stroke="#bfbfbf" points="895.5,-0.5 895.5,-19.5 942.5,-19.5 942.5,-0.5 895.5,-0.5"/>
<text text-anchor="middle" x="919" y="-7.5" font-family="Helvetica,sans-Serif" font-size="10.00">vector</text>
</a>
</g>
</g>
<!-- Node2&#45;&gt;Node3 -->
<g id="edge2" class="edge">
<title>Node2&#45;&gt;Node3</title>
<path fill="none" stroke="midnightblue" d="M788.92,-448.48C866.17,-432.54 1016,-395.39 1016,-347 1016,-347 1016,-347 1016,-121 1016,-77.35 972.49,-42.83 943.76,-24.79"/>
<polygon fill="midnightblue" stroke="midnightblue" points="945.39,-21.68 935.02,-19.52 941.77,-27.68 945.39,-21.68"/>
</g>
<!-- Node4 -->
<g id="node4" class="node">
<title>Node4</title>
<g id="a_node4"><a xlink:title=" ">
<polygon fill="none" stroke="#bfbfbf" points="861,-224.5 861,-243.5 929,-243.5 929,-224.5 861,-224.5"/>
<text text-anchor="middle" x="895" y="-231.5" font-family="Helvetica,sans-Serif" font-size="10.00">Config.hpp</text>
</a>
</g>
</g>
<!-- Node2&#45;&gt;Node4 -->
<g id="edge3" class="edge">
<title>Node2&#45;&gt;Node4</title>
<path fill="none" stroke="midnightblue" d="M758.86,-448.45C772.39,-440.22 792.4,-426.86 807,-412 849.33,-368.9 861.32,-355.99 884,-300 889.98,-285.23 892.71,-267.3 893.96,-254.02"/>
<polygon fill="midnightblue" stroke="midnightblue" points="897.47,-253.97 894.71,-243.74 890.49,-253.45 897.47,-253.97"/>
</g>
<!-- Node2&#45;&gt;Node5 -->
<g id="edge4" class="edge">
<title>Node2&#45;&gt;Node5</title>
<path fill="none" stroke="midnightblue" d="M758.37,-448.33C769.88,-440.47 785.19,-427.72 792,-412 800.04,-393.43 783.95,-374.53 769.02,-361.94"/>
<polygon fill="midnightblue" stroke="midnightblue" points="771.02,-359.06 761,-355.63 766.69,-364.56 771.02,-359.06"/>
</g>
<!-- Node2&#45;&gt;Node24 -->
<g id="edge37" class="edge">
<title>Node2&#45;&gt;Node24</title>
<path fill="none" stroke="midnightblue" d="M738.83,-448.08C737.32,-440.93 736.89,-430.64 737.54,-421.69"/>
<polygon fill="midnightblue" stroke="midnightblue" points="741.02,-422.13 738.87,-411.75 734.08,-421.2 741.02,-422.13"/>
</g>
<!-- Node5&#45;&gt;Node3 -->
<g id="edge8" class="edge">
<title>Node5&#45;&gt;Node3</title>
<path fill="none" stroke="midnightblue" d="M760.19,-336.24C782.12,-319.35 826,-279.95 826,-235 826,-235 826,-235 826,-121 826,-78.31 867.35,-43.64 894.91,-25.28"/>
<polygon fill="midnightblue" stroke="midnightblue" points="897.11,-28.03 903.64,-19.69 893.33,-22.13 897.11,-28.03"/>
</g>
<!-- Node5&#45;&gt;Node4 -->
<g id="edge36" class="edge">
<title>Node5&#45;&gt;Node4</title>
<path fill="none" stroke="midnightblue" d="M772.22,-336.36C791.73,-328.68 819.24,-316.17 840,-300 857.6,-286.29 873.57,-266.15 883.71,-251.93"/>
<polygon fill="midnightblue" stroke="midnightblue" points="886.68,-253.78 889.49,-243.57 880.92,-249.8 886.68,-253.78"/>
</g>
<!-- Node6 -->
<g id="node6" class="node">
<title>Node6</title>
<g id="a_node6"><a xlink:title=" ">
<polygon fill="none" stroke="#bfbfbf" points="701.5,-0.5 701.5,-19.5 748.5,-19.5 748.5,-0.5 701.5,-0.5"/>
<text text-anchor="middle" x="725" y="-7.5" font-family="Helvetica,sans-Serif" font-size="10.00">cmath</text>
</a>
</g>
</g>
<!-- Node5&#45;&gt;Node6 -->
<g id="edge5" class="edge">
<title>Node5&#45;&gt;Node6</title>
<path fill="none" stroke="midnightblue" d="M748.26,-336.44C748.8,-317.94 750,-272.82 750,-235 750,-235 750,-235 750,-121 750,-88 739.17,-50.77 731.76,-29.19"/>
<polygon fill="midnightblue" stroke="midnightblue" points="735.03,-27.93 728.37,-19.69 728.43,-30.28 735.03,-27.93"/>
</g>
<!-- Node7 -->
<g id="node7" class="node">
<title>Node7</title>
<g id="a_node7"><a xlink:title=" ">
<polygon fill="none" stroke="#bfbfbf" points="767,-0.5 767,-19.5 827,-19.5 827,-0.5 767,-0.5"/>
<text text-anchor="middle" x="797" y="-7.5" font-family="Helvetica,sans-Serif" font-size="10.00">iostream</text>
</a>
</g>
</g>
<!-- Node5&#45;&gt;Node7 -->
<g id="edge6" class="edge">
<title>Node5&#45;&gt;Node7</title>
<path fill="none" stroke="midnightblue" d="M753.56,-336.27C764.55,-318.15 788,-274.83 788,-235 788,-235 788,-235 788,-121 788,-88.84 791.87,-51.57 794.53,-29.71"/>
<polygon fill="midnightblue" stroke="midnightblue" points="798.04,-29.9 795.82,-19.54 791.09,-29.02 798.04,-29.9"/>
</g>
<!-- Node8 -->
<g id="node8" class="node">
<title>Node8</title>
<g id="a_node8"><a xlink:title=" ">
<polygon fill="none" stroke="#bfbfbf" points="625,-0.5 625,-19.5 683,-19.5 683,-0.5 625,-0.5"/>
<text text-anchor="middle" x="654" y="-7.5" font-family="Helvetica,sans-Serif" font-size="10.00">memory</text>
</a>
</g>
</g>
<!-- Node5&#45;&gt;Node8 -->
<g id="edge7" class="edge">
<title>Node5&#45;&gt;Node8</title>
<path fill="none" stroke="midnightblue" d="M743.14,-336.47C733.32,-318.39 712,-274.59 712,-235 712,-235 712,-235 712,-121 712,-84.16 686.23,-47.57 669.05,-27.25"/>
<polygon fill="midnightblue" stroke="midnightblue" points="671.54,-24.79 662.31,-19.59 666.29,-29.41 671.54,-24.79"/>
</g>
<!-- Node9 -->
<g id="node9" class="node">
<title>Node9</title>
<g id="a_node9"><a xlink:href="_geometry_8hpp.html" target="_top" xlink:title=" ">
<polygon fill="none" stroke="black" points="499,-280.5 499,-299.5 645,-299.5 645,-280.5 499,-280.5"/>
<text text-anchor="middle" x="572" y="-287.5" font-family="Helvetica,sans-Serif" font-size="10.00">../Geometry/Geometry.hpp</text>
</a>
</g>
</g>
<!-- Node5&#45;&gt;Node9 -->
<g id="edge9" class="edge">
<title>Node5&#45;&gt;Node9</title>
<path fill="none" stroke="midnightblue" d="M720.11,-336.44C690.25,-327.28 642.69,-312.69 609.54,-302.52"/>
<polygon fill="midnightblue" stroke="midnightblue" points="610.34,-299.1 599.76,-299.52 608.29,-305.8 610.34,-299.1"/>
</g>
<!-- Node9&#45;&gt;Node4 -->
<g id="edge29" class="edge">
<title>Node9&#45;&gt;Node4</title>
<path fill="none" stroke="midnightblue" d="M623.18,-280.44C685.94,-269.95 791.28,-252.34 850.71,-242.4"/>
<polygon fill="midnightblue" stroke="midnightblue" points="851.62,-245.8 860.9,-240.7 850.46,-238.9 851.62,-245.8"/>
</g>
<!-- Node10 -->
<g id="node10" class="node">
<title>Node10</title>
<g id="a_node10"><a xlink:href="_recorder_8hpp.html" target="_top" xlink:title=" ">
<polygon fill="none" stroke="black" points="498,-224.5 498,-243.5 646,-243.5 646,-224.5 498,-224.5"/>
<text text-anchor="middle" x="572" y="-231.5" font-family="Helvetica,sans-Serif" font-size="10.00">../Benchmark/Recorder.hpp</text>
</a>
</g>
</g>
<!-- Node9&#45;&gt;Node10 -->
<g id="edge10" class="edge">
<title>Node9&#45;&gt;Node10</title>
<path fill="none" stroke="midnightblue" d="M572,-280.08C572,-273.01 572,-262.86 572,-253.99"/>
<polygon fill="midnightblue" stroke="midnightblue" points="575.5,-253.75 572,-243.75 568.5,-253.75 575.5,-253.75"/>
</g>
<!-- Node9&#45;&gt;Node13 -->
<g id="edge30" class="edge">
<title>Node9&#45;&gt;Node13</title>
<path fill="none" stroke="midnightblue" d="M604.18,-280.49C622.54,-273.8 644.02,-262.45 655,-244 659.55,-236.36 657.58,-232.5 655,-224 637.58,-166.68 628.12,-147.68 580,-112 557.24,-95.12 528.09,-84.51 501.7,-77.87"/>
<polygon fill="midnightblue" stroke="midnightblue" points="502.27,-74.41 491.73,-75.52 500.66,-81.22 502.27,-74.41"/>
</g>
<!-- Node9&#45;&gt;Node21 -->
<g id="edge25" class="edge">
<title>Node9&#45;&gt;Node21</title>
<path fill="none" stroke="midnightblue" d="M498.85,-280.82C464.78,-274.54 424.85,-263.47 393,-244 373.46,-232.06 356.96,-211.26 346.82,-196.41"/>
<polygon fill="midnightblue" stroke="midnightblue" points="349.51,-194.12 341.11,-187.66 343.65,-197.94 349.51,-194.12"/>
</g>
<!-- Node9&#45;&gt;Node22 -->
<g id="edge31" class="edge">
<title>Node9&#45;&gt;Node22</title>
<path fill="none" stroke="midnightblue" d="M498.61,-280.61C458.18,-274.13 407.85,-262.94 366,-244 327.78,-226.7 310.9,-224.38 290,-188 281.96,-174.01 280.69,-155.51 281.15,-141.82"/>
<polygon fill="midnightblue" stroke="midnightblue" points="284.66,-141.88 281.84,-131.66 277.67,-141.41 284.66,-141.88"/>
</g>
<!-- Node23 -->
<g id="node23" class="node">
<title>Node23</title>
<g id="a_node23"><a xlink:href="_vertices_8hpp.html" target="_top" xlink:title=" ">
<polygon fill="none" stroke="black" points="402.5,-224.5 402.5,-243.5 479.5,-243.5 479.5,-224.5 402.5,-224.5"/>
<text text-anchor="middle" x="441" y="-231.5" font-family="Helvetica,sans-Serif" font-size="10.00">Vertices.hpp</text>
</a>
</g>
</g>
<!-- Node9&#45;&gt;Node23 -->
<g id="edge32" class="edge">
<title>Node9&#45;&gt;Node23</title>
<path fill="none" stroke="midnightblue" d="M551.24,-280.44C529.68,-271.56 495.74,-257.56 471.21,-247.45"/>
<polygon fill="midnightblue" stroke="midnightblue" points="472.24,-244.09 461.66,-243.52 469.57,-250.56 472.24,-244.09"/>
</g>
<!-- Node11 -->
<g id="node11" class="node">
<title>Node11</title>
<g id="a_node11"><a xlink:href="_performance_8hpp.html" target="_top" xlink:title=" ">
<polygon fill="none" stroke="black" points="507,-168.5 507,-187.5 607,-187.5 607,-168.5 507,-168.5"/>
<text text-anchor="middle" x="557" y="-175.5" font-family="Helvetica,sans-Serif" font-size="10.00">Performance.hpp</text>
</a>
</g>
</g>
<!-- Node10&#45;&gt;Node11 -->
<g id="edge11" class="edge">
<title>Node10&#45;&gt;Node11</title>
<path fill="none" stroke="midnightblue" d="M569.52,-224.08C567.51,-216.85 564.61,-206.41 562.11,-197.4"/>
<polygon fill="midnightblue" stroke="midnightblue" points="565.48,-196.45 559.43,-187.75 558.74,-198.32 565.48,-196.45"/>
</g>
<!-- Node12 -->
<g id="node12" class="node">
<title>Node12</title>
<g id="a_node12"><a xlink:href="_block_data_8hpp.html" target="_top" xlink:title=" ">
<polygon fill="none" stroke="black" points="483,-112.5 483,-131.5 571,-131.5 571,-112.5 483,-112.5"/>
<text text-anchor="middle" x="527" y="-119.5" font-family="Helvetica,sans-Serif" font-size="10.00">BlockData.hpp</text>
</a>
</g>
</g>
<!-- Node11&#45;&gt;Node12 -->
<g id="edge12" class="edge">
<title>Node11&#45;&gt;Node12</title>
<path fill="none" stroke="midnightblue" d="M552.05,-168.08C547.9,-160.61 541.85,-149.72 536.73,-140.52"/>
<polygon fill="midnightblue" stroke="midnightblue" points="539.78,-138.79 531.86,-131.75 533.66,-142.19 539.78,-138.79"/>
</g>
<!-- Node12&#45;&gt;Node13 -->
<g id="edge13" class="edge">
<title>Node12&#45;&gt;Node13</title>
<path fill="none" stroke="midnightblue" d="M511.74,-112.32C496.78,-103.82 473.75,-90.73 456.27,-80.8"/>
<polygon fill="midnightblue" stroke="midnightblue" points="457.65,-77.55 447.23,-75.65 454.19,-83.64 457.65,-77.55"/>
</g>
<!-- Node13&#45;&gt;Node3 -->
<g id="edge24" class="edge">
<title>Node13&#45;&gt;Node3</title>
<path fill="none" stroke="midnightblue" d="M496.17,-57.88C600.85,-46.28 804.76,-23.67 885.2,-14.75"/>
<polygon fill="midnightblue" stroke="midnightblue" points="885.72,-18.21 895.27,-13.63 884.95,-11.25 885.72,-18.21"/>
</g>
<!-- Node13&#45;&gt;Node6 -->
<g id="edge16" class="edge">
<title>Node13&#45;&gt;Node6</title>
<path fill="none" stroke="midnightblue" d="M490.65,-56.48C541.28,-48.75 616.55,-36.38 691.22,-19.99"/>
<polygon fill="midnightblue" stroke="midnightblue" points="692.27,-23.34 701.27,-17.76 690.75,-16.51 692.27,-23.34"/>
</g>
<!-- Node13&#45;&gt;Node7 -->
<g id="edge18" class="edge">
<title>Node13&#45;&gt;Node7</title>
<path fill="none" stroke="midnightblue" d="M496.29,-57.85C560.05,-50.37 660.72,-37.51 756.93,-20.06"/>
<polygon fill="midnightblue" stroke="midnightblue" points="757.62,-23.49 766.82,-18.25 756.35,-16.61 757.62,-23.49"/>
</g>
<!-- Node13&#45;&gt;Node8 -->
<g id="edge20" class="edge">
<title>Node13&#45;&gt;Node8</title>
<path fill="none" stroke="midnightblue" d="M467.18,-56.44C507.39,-46.66 573.02,-30.7 614.83,-20.53"/>
<polygon fill="midnightblue" stroke="midnightblue" points="615.77,-23.9 624.66,-18.14 614.12,-17.1 615.77,-23.9"/>
</g>
<!-- Node14 -->
<g id="node14" class="node">
<title>Node14</title>
<g id="a_node14"><a xlink:title=" ">
<polygon fill="none" stroke="#bfbfbf" points="497,-0.5 497,-19.5 539,-19.5 539,-0.5 497,-0.5"/>
<text text-anchor="middle" x="518" y="-7.5" font-family="Helvetica,sans-Serif" font-size="10.00">array</text>
</a>
</g>
</g>
<!-- Node13&#45;&gt;Node14 -->
<g id="edge14" class="edge">
<title>Node13&#45;&gt;Node14</title>
<path fill="none" stroke="midnightblue" d="M445.82,-56.32C459.23,-47.9 479.82,-34.97 495.59,-25.07"/>
<polygon fill="midnightblue" stroke="midnightblue" points="497.61,-27.94 504.22,-19.65 493.89,-22.01 497.61,-27.94"/>
</g>
<!-- Node15 -->
<g id="node15" class="node">
<title>Node15</title>
<g id="a_node15"><a xlink:title=" ">
<polygon fill="none" stroke="#bfbfbf" points="557,-0.5 557,-19.5 607,-19.5 607,-0.5 557,-0.5"/>
<text text-anchor="middle" x="582" y="-7.5" font-family="Helvetica,sans-Serif" font-size="10.00">chrono</text>
</a>
</g>
</g>
<!-- Node13&#45;&gt;Node15 -->
<g id="edge15" class="edge">
<title>Node13&#45;&gt;Node15</title>
<path fill="none" stroke="midnightblue" d="M455.77,-56.44C480.89,-47.4 520.71,-33.06 548.9,-22.92"/>
<polygon fill="midnightblue" stroke="midnightblue" points="550.12,-26.2 558.34,-19.52 547.75,-19.61 550.12,-26.2"/>
</g>
<!-- Node16 -->
<g id="node16" class="node">
<title>Node16</title>
<g id="a_node16"><a xlink:title=" ">
<polygon fill="none" stroke="#bfbfbf" points="65.5,-0.5 65.5,-19.5 130.5,-19.5 130.5,-0.5 65.5,-0.5"/>
<text text-anchor="middle" x="98" y="-7.5" font-family="Helvetica,sans-Serif" font-size="10.00">functional</text>
</a>
</g>
</g>
<!-- Node13&#45;&gt;Node16 -->
<g id="edge17" class="edge">
<title>Node13&#45;&gt;Node16</title>
<path fill="none" stroke="midnightblue" d="M368.93,-56.5C311.73,-48.52 224.85,-35.73 140.63,-20.22"/>
<polygon fill="midnightblue" stroke="midnightblue" points="141.11,-16.75 130.64,-18.36 139.83,-23.63 141.11,-16.75"/>
</g>
<!-- Node17 -->
<g id="node17" class="node">
<title>Node17</title>
<g id="a_node17"><a xlink:title=" ">
<polygon fill="none" stroke="#bfbfbf" points="148.5,-0.5 148.5,-19.5 201.5,-19.5 201.5,-0.5 148.5,-0.5"/>
<text text-anchor="middle" x="175" y="-7.5" font-family="Helvetica,sans-Serif" font-size="10.00">iterator</text>
</a>
</g>
</g>
<!-- Node13&#45;&gt;Node17 -->
<g id="edge19" class="edge">
<title>Node13&#45;&gt;Node17</title>
<path fill="none" stroke="midnightblue" d="M387.01,-56.44C344.36,-48.2 278.27,-35.07 211.55,-20.05"/>
<polygon fill="midnightblue" stroke="midnightblue" points="212.23,-16.61 201.71,-17.82 210.69,-23.44 212.23,-16.61"/>
</g>
<!-- Node18 -->
<g id="node18" class="node">
<title>Node18</title>
<g id="a_node18"><a xlink:title=" ">
<polygon fill="none" stroke="#bfbfbf" points="220,-0.5 220,-19.5 276,-19.5 276,-0.5 220,-0.5"/>
<text text-anchor="middle" x="248" y="-7.5" font-family="Helvetica,sans-Serif" font-size="10.00">sstream</text>
</a>
</g>
</g>
<!-- Node13&#45;&gt;Node18 -->
<g id="edge21" class="edge">
<title>Node13&#45;&gt;Node18</title>
<path fill="none" stroke="midnightblue" d="M402.84,-56.44C371.21,-47.16 320.59,-32.3 285.89,-22.12"/>
<polygon fill="midnightblue" stroke="midnightblue" points="286.69,-18.71 276.11,-19.25 284.72,-25.43 286.69,-18.71"/>
</g>
<!-- Node19 -->
<g id="node19" class="node">
<title>Node19</title>
<g id="a_node19"><a xlink:title=" ">
<polygon fill="none" stroke="#bfbfbf" points="294.5,-0.5 294.5,-19.5 367.5,-19.5 367.5,-0.5 294.5,-0.5"/>
<text text-anchor="middle" x="331" y="-7.5" font-family="Helvetica,sans-Serif" font-size="10.00">string_view</text>
</a>
</g>
</g>
<!-- Node13&#45;&gt;Node19 -->
<g id="edge22" class="edge">
<title>Node13&#45;&gt;Node19</title>
<path fill="none" stroke="midnightblue" d="M415.77,-56.32C399.65,-47.7 374.7,-34.36 356.04,-24.39"/>
<polygon fill="midnightblue" stroke="midnightblue" points="357.66,-21.28 347.19,-19.65 354.36,-27.46 357.66,-21.28"/>
</g>
<!-- Node20 -->
<g id="node20" class="node">
<title>Node20</title>
<g id="a_node20"><a xlink:title=" ">
<polygon fill="none" stroke="#bfbfbf" points="385.5,-0.5 385.5,-19.5 478.5,-19.5 478.5,-0.5 385.5,-0.5"/>
<text text-anchor="middle" x="432" y="-7.5" font-family="Helvetica,sans-Serif" font-size="10.00">unordered_map</text>
</a>
</g>
</g>
<!-- Node13&#45;&gt;Node20 -->
<g id="edge23" class="edge">
<title>Node13&#45;&gt;Node20</title>
<path fill="none" stroke="midnightblue" d="M432,-56.08C432,-49.01 432,-38.86 432,-29.99"/>
<polygon fill="midnightblue" stroke="midnightblue" points="435.5,-29.75 432,-19.75 428.5,-29.75 435.5,-29.75"/>
</g>
<!-- Node21&#45;&gt;Node13 -->
<g id="edge26" class="edge">
<title>Node21&#45;&gt;Node13</title>
<path fill="none" stroke="midnightblue" d="M343.53,-168.37C359.52,-150.05 397.05,-107.05 417.72,-83.36"/>
<polygon fill="midnightblue" stroke="midnightblue" points="420.56,-85.43 424.5,-75.59 415.29,-80.82 420.56,-85.43"/>
</g>
<!-- Node21&#45;&gt;Node22 -->
<g id="edge27" class="edge">
<title>Node21&#45;&gt;Node22</title>
<path fill="none" stroke="midnightblue" d="M327.25,-168.08C319.53,-160.22 308.1,-148.57 298.78,-139.08"/>
<polygon fill="midnightblue" stroke="midnightblue" points="301.09,-136.44 291.59,-131.75 296.1,-141.34 301.09,-136.44"/>
</g>
<!-- Node22&#45;&gt;Node13 -->
<g id="edge28" class="edge">
<title>Node22&#45;&gt;Node13</title>
<path fill="none" stroke="midnightblue" d="M306.61,-112.44C331.46,-103.44 370.77,-89.19 398.75,-79.05"/>
<polygon fill="midnightblue" stroke="midnightblue" points="400.29,-82.21 408.5,-75.52 397.91,-75.63 400.29,-82.21"/>
</g>
<!-- Node23&#45;&gt;Node13 -->
<g id="edge34" class="edge">
<title>Node23&#45;&gt;Node13</title>
<path fill="none" stroke="midnightblue" d="M440.52,-224.08C439.1,-197.95 434.94,-121.21 433.01,-85.58"/>
<polygon fill="midnightblue" stroke="midnightblue" points="436.5,-85.36 432.46,-75.57 429.51,-85.74 436.5,-85.36"/>
</g>
<!-- Node23&#45;&gt;Node21 -->
<g id="edge33" class="edge">
<title>Node23&#45;&gt;Node21</title>
<path fill="none" stroke="midnightblue" d="M424.13,-224.32C407.29,-215.66 381.19,-202.24 361.76,-192.25"/>
<polygon fill="midnightblue" stroke="midnightblue" points="363.32,-189.12 352.83,-187.65 360.12,-195.34 363.32,-189.12"/>
</g>
<!-- Node23&#45;&gt;Node22 -->
<g id="edge35" class="edge">
<title>Node23&#45;&gt;Node22</title>
<path fill="none" stroke="midnightblue" d="M435,-224.39C425.22,-210.87 404.66,-184.53 382,-168 362.82,-154.01 338.59,-142.9 318.91,-135.23"/>
<polygon fill="midnightblue" stroke="midnightblue" points="319.96,-131.88 309.36,-131.63 317.49,-138.43 319.96,-131.88"/>
</g>
<!-- Node24&#45;&gt;Node2 -->
<g id="edge39" class="edge">
<title>Node24&#45;&gt;Node2</title>
<path fill="none" stroke="midnightblue" d="M749.13,-411.75C750.66,-418.86 751.1,-429.14 750.47,-438.1"/>
<polygon fill="midnightblue" stroke="midnightblue" points="746.99,-437.71 749.17,-448.08 753.93,-438.62 746.99,-437.71"/>
</g>
<!-- Node24&#45;&gt;Node3 -->
<g id="edge38" class="edge">
<title>Node24&#45;&gt;Node3</title>
<path fill="none" stroke="midnightblue" d="M782.64,-399.84C849.1,-395.57 978,-376.29 978,-291 978,-291 978,-291 978,-121 978,-84.02 951.79,-47.47 934.31,-27.21"/>
<polygon fill="midnightblue" stroke="midnightblue" points="936.74,-24.67 927.45,-19.56 931.53,-29.34 936.74,-24.67"/>
</g>
<!-- Node24&#45;&gt;Node4 -->
<g id="edge40" class="edge">
<title>Node24&#45;&gt;Node4</title>
<path fill="none" stroke="midnightblue" d="M757.51,-392.48C781.58,-376.74 832.36,-340.93 864,-300 874.98,-285.79 883.4,-267.07 888.67,-253.37"/>
<polygon fill="midnightblue" stroke="midnightblue" points="892.08,-254.24 892.22,-243.64 885.5,-251.84 892.08,-254.24"/>
</g>
<!-- Node24&#45;&gt;Node5 -->
<g id="edge41" class="edge">
<title>Node24&#45;&gt;Node5</title>
<path fill="none" stroke="midnightblue" d="M744.66,-392.08C745.18,-385.01 745.94,-374.86 746.59,-365.99"/>
<polygon fill="midnightblue" stroke="midnightblue" points="750.1,-365.98 747.35,-355.75 743.12,-365.47 750.1,-365.98"/>
</g>
<!-- Node25&#45;&gt;Node13 -->
<g id="edge47" class="edge">
<title>Node25&#45;&gt;Node13</title>
<path fill="none" stroke="midnightblue" d="M93.05,-448.46C95.21,-429.98 100,-384.91 100,-347 100,-347 100,-347 100,-177 100,-144.8 106,-131 132,-112 166.95,-86.46 280.69,-75.17 357.64,-70.35"/>
<polygon fill="midnightblue" stroke="midnightblue" points="358,-73.84 367.77,-69.74 357.58,-66.85 358,-73.84"/>
</g>
<!-- Node26&#45;&gt;Node2 -->
<g id="edge50" class="edge">
<title>Node26&#45;&gt;Node2</title>
<path fill="none" stroke="midnightblue" d="M380.83,-507.07C452.24,-497.61 592.29,-479.08 676.07,-467.99"/>
<polygon fill="midnightblue" stroke="midnightblue" points="676.55,-471.46 686,-466.68 675.63,-464.52 676.55,-471.46"/>
</g>
<!-- Node26&#45;&gt;Node5 -->
<g id="edge51" class="edge">
<title>Node26&#45;&gt;Node5</title>
<path fill="none" stroke="midnightblue" d="M344.34,-504.24C366.48,-481.56 429.56,-420.7 495,-392 563.04,-362.16 649.62,-352.1 701.82,-348.71"/>
<polygon fill="midnightblue" stroke="midnightblue" points="702.33,-352.19 712.11,-348.11 701.92,-345.2 702.33,-352.19"/>
</g>
<!-- Node26&#45;&gt;Node13 -->
<g id="edge54" class="edge">
<title>Node26&#45;&gt;Node13</title>
<path fill="none" stroke="midnightblue" d="M327.87,-504.44C320.23,-495.89 309.09,-482.04 303,-468 239.09,-320.58 140.18,-237.92 240,-112 254.79,-93.34 310.2,-81.67 357.72,-74.91"/>
<polygon fill="midnightblue" stroke="midnightblue" points="358.28,-78.36 367.72,-73.54 357.33,-71.43 358.28,-78.36"/>
</g>
<!-- Node26&#45;&gt;Node21 -->
<g id="edge53" class="edge">
<title>Node26&#45;&gt;Node21</title>
<path fill="none" stroke="midnightblue" d="M336,-504.44C336,-485.94 336,-440.81 336,-403 336,-403 336,-403 336,-289 336,-256.95 336,-219.64 336,-197.75"/>
<polygon fill="midnightblue" stroke="midnightblue" points="339.5,-197.56 336,-187.56 332.5,-197.56 339.5,-197.56"/>
</g>
<!-- Node26&#45;&gt;Node22 -->
<g id="edge55" class="edge">
<title>Node26&#45;&gt;Node22</title>
<path fill="none" stroke="midnightblue" d="M330.72,-504.23C320.27,-486.04 298,-442.6 298,-403 298,-403 298,-403 298,-345 298,-274.77 284.01,-258.12 280,-188 279.11,-172.47 280.05,-154.85 281.1,-141.87"/>
<polygon fill="midnightblue" stroke="midnightblue" points="284.59,-142.11 282.01,-131.83 277.62,-141.48 284.59,-142.11"/>
</g>
<!-- Node26&#45;&gt;Node24 -->
<g id="edge52" class="edge">
<title>Node26&#45;&gt;Node24</title>
<path fill="none" stroke="midnightblue" d="M367.68,-504.46C440.74,-484.76 621.03,-436.15 702.66,-414.15"/>
<polygon fill="midnightblue" stroke="midnightblue" points="703.6,-417.52 712.34,-411.53 701.78,-410.76 703.6,-417.52"/>
</g>
</g>
</svg>
