<?xml version="1.0" encoding="UTF-8" standalone="no"?>
<!DOCTYPE svg PUBLIC "-//W3C//DTD SVG 1.1//EN"
 "http://www.w3.org/Graphics/SVG/1.1/DTD/svg11.dtd">
<!-- Generated by graphviz version 2.43.0 (0)
 -->
<!-- Title: /home/runner/work/Simulatio/Simulatio/renderer/include/Renderer/Renderer.hpp Pages: 1 -->
<svg width="1993pt" height="173pt"
 viewBox="0.00 0.00 1992.50 173.00" xmlns="http://www.w3.org/2000/svg" xmlns:xlink="http://www.w3.org/1999/xlink">
<g id="graph0" class="graph" transform="scale(1 1) rotate(0) translate(4 169)">
<title>/home/runner/work/Simulatio/Simulatio/renderer/include/Renderer/Renderer.hpp</title>
<!-- Node1 -->
<g id="node1" class="node">
<title>Node1</title>
<g id="a_node1"><a xlink:title=" ">
<polygon fill="#bfbfbf" stroke="black" points="837,-123.5 837,-164.5 995,-164.5 995,-123.5 837,-123.5"/>
<text text-anchor="start" x="845" y="-152.5" font-family="Helvetica,sans-Serif" font-size="10.00">/home/runner/work/Simulatio</text>
<text text-anchor="start" x="845" y="-141.5" font-family="Helvetica,sans-Serif" font-size="10.00">/Simulatio/renderer/include</text>
<text text-anchor="middle" x="916" y="-130.5" font-family="Helvetica,sans-Serif" font-size="10.00">/Renderer/Renderer.hpp</text>
</a>
</g>
</g>
<!-- Node2 -->
<g id="node2" class="node">
<title>Node2</title>
<g id="a_node2"><a xlink:title=" ">
<polygon fill="none" stroke="#bfbfbf" points="0,-0.5 0,-19.5 110,-19.5 110,-0.5 0,-0.5"/>
<text text-anchor="middle" x="55" y="-7.5" font-family="Helvetica,sans-Serif" font-size="10.00">SFML/Graphics.hpp</text>
</a>
</g>
</g>
<!-- Node1&#45;&gt;Node2 -->
<g id="edge1" class="edge">
<title>Node1&#45;&gt;Node2</title>
<path fill="none" stroke="midnightblue" d="M836.67,-142.81C638.84,-141.61 135.31,-133.95 77,-87 60.07,-73.37 55.66,-47.55 54.77,-29.82"/>
<polygon fill="midnightblue" stroke="midnightblue" points="58.27,-29.71 54.59,-19.77 51.27,-29.84 58.27,-29.71"/>
</g>
<!-- Node3 -->
<g id="node3" class="node">
<title>Node3</title>
<g id="a_node3"><a xlink:title=" ">
<polygon fill="none" stroke="#bfbfbf" points="228.5,-62 228.5,-81 319.5,-81 319.5,-62 228.5,-62"/>
<text text-anchor="middle" x="274" y="-69" font-family="Helvetica,sans-Serif" font-size="10.00">SFML/Main.hpp</text>
</a>
</g>
</g>
<!-- Node1&#45;&gt;Node3 -->
<g id="edge2" class="edge">
<title>Node1&#45;&gt;Node3</title>
<path fill="none" stroke="midnightblue" d="M836.64,-139.53C723.31,-133.65 508.9,-119.08 329,-87 323.79,-86.07 318.34,-84.89 313,-83.62"/>
<polygon fill="midnightblue" stroke="midnightblue" points="313.47,-80.12 302.92,-81.07 311.76,-86.91 313.47,-80.12"/>
</g>
<!-- Node4 -->
<g id="node4" class="node">
<title>Node4</title>
<g id="a_node4"><a xlink:title=" ">
<polygon fill="none" stroke="#bfbfbf" points="338,-56.5 338,-86.5 432,-86.5 432,-56.5 338,-56.5"/>
<text text-anchor="start" x="346" y="-74.5" font-family="Helvetica,sans-Serif" font-size="10.00">../../assets/fonts</text>
<text text-anchor="middle" x="385" y="-63.5" font-family="Helvetica,sans-Serif" font-size="10.00">/consolas.hpp</text>
</a>
</g>
</g>
<!-- Node1&#45;&gt;Node4 -->
<g id="edge3" class="edge">
<title>Node1&#45;&gt;Node4</title>
<path fill="none" stroke="midnightblue" d="M836.92,-136.99C744.36,-129.21 586.42,-113.62 442.18,-87.07"/>
<polygon fill="midnightblue" stroke="midnightblue" points="442.73,-83.61 432.25,-85.22 441.44,-90.49 442.73,-83.61"/>
</g>
<!-- Node5 -->
<g id="node5" class="node">
<title>Node5</title>
<g id="a_node5"><a xlink:title=" ">
<polygon fill="none" stroke="#bfbfbf" points="450,-56.5 450,-86.5 560,-86.5 560,-56.5 450,-56.5"/>
<text text-anchor="start" x="458" y="-74.5" font-family="Helvetica,sans-Serif" font-size="10.00">../../assets/fonts</text>
<text text-anchor="middle" x="505" y="-63.5" font-family="Helvetica,sans-Serif" font-size="10.00">/forkawersome.hpp</text>
</a>
</g>
</g>
<!-- Node1&#45;&gt;Node5 -->
<g id="edge4" class="edge">
<title>Node1&#45;&gt;Node5</title>
<path fill="none" stroke="midnightblue" d="M836.85,-131.67C768.7,-121.59 667.5,-105.82 570.13,-87.15"/>
<polygon fill="midnightblue" stroke="midnightblue" points="570.59,-83.68 560.11,-85.22 569.27,-90.55 570.59,-83.68"/>
</g>
<!-- Node6 -->
<g id="node6" class="node">
<title>Node6</title>
<g id="a_node6"><a xlink:title=" ">
<polygon fill="none" stroke="#bfbfbf" points="578,-56.5 578,-86.5 672,-86.5 672,-56.5 578,-56.5"/>
<text text-anchor="start" x="586" y="-74.5" font-family="Helvetica,sans-Serif" font-size="10.00">../../assets/fonts</text>
<text text-anchor="middle" x="625" y="-63.5" font-family="Helvetica,sans-Serif" font-size="10.00">/icons.hpp</text>
</a>
</g>
</g>
<!-- Node1&#45;&gt;Node6 -->
<g id="edge5" class="edge">
<title>Node1&#45;&gt;Node6</title>
<path fill="none" stroke="midnightblue" d="M836.77,-124.52C793.65,-114.37 739.14,-101.39 681.98,-87.22"/>
<polygon fill="midnightblue" stroke="midnightblue" points="682.59,-83.76 672.04,-84.75 680.9,-90.56 682.59,-83.76"/>
</g>
<!-- Node7 -->
<g id="node7" class="node">
<title>Node7</title>
<g id="a_node7"><a xlink:title=" ">
<polygon fill="none" stroke="#bfbfbf" points="690,-56.5 690,-86.5 784,-86.5 784,-56.5 690,-56.5"/>
<text text-anchor="start" x="698" y="-74.5" font-family="Helvetica,sans-Serif" font-size="10.00">../../assets/fonts</text>
<text text-anchor="middle" x="737" y="-63.5" font-family="Helvetica,sans-Serif" font-size="10.00">/proggy.hpp</text>
</a>
</g>
</g>
<!-- Node1&#45;&gt;Node7 -->
<g id="edge6" class="edge">
<title>Node1&#45;&gt;Node7</title>
<path fill="none" stroke="midnightblue" d="M866.14,-123.36C839.81,-112.99 807.75,-100.37 782.16,-90.29"/>
<polygon fill="midnightblue" stroke="midnightblue" points="783.28,-86.97 772.7,-86.56 780.72,-93.48 783.28,-86.97"/>
</g>
<!-- Node8 -->
<g id="node8" class="node">
<title>Node8</title>
<g id="a_node8"><a xlink:title=" ">
<polygon fill="none" stroke="#bfbfbf" points="802,-56.5 802,-86.5 896,-86.5 896,-56.5 802,-56.5"/>
<text text-anchor="start" x="810" y="-74.5" font-family="Helvetica,sans-Serif" font-size="10.00">../../assets/fonts</text>
<text text-anchor="middle" x="849" y="-63.5" font-family="Helvetica,sans-Serif" font-size="10.00">/roboto.hpp</text>
</a>
</g>
</g>
<!-- Node1&#45;&gt;Node8 -->
<g id="edge7" class="edge">
<title>Node1&#45;&gt;Node8</title>
<path fill="none" stroke="midnightblue" d="M897.34,-123.36C888.75,-114.32 878.52,-103.57 869.7,-94.28"/>
<polygon fill="midnightblue" stroke="midnightblue" points="872.1,-91.73 862.68,-86.89 867.03,-96.55 872.1,-91.73"/>
</g>
<!-- Node9 -->
<g id="node9" class="node">
<title>Node9</title>
<g id="a_node9"><a xlink:title=" ">
<polygon fill="none" stroke="#bfbfbf" points="914.5,-62 914.5,-81 1051.5,-81 1051.5,-62 914.5,-62"/>
<text text-anchor="middle" x="983" y="-69" font-family="Helvetica,sans-Serif" font-size="10.00">../../assets/icon/ricon.hpp</text>
</a>
</g>
</g>
<!-- Node1&#45;&gt;Node9 -->
<g id="edge8" class="edge">
<title>Node1&#45;&gt;Node9</title>
<path fill="none" stroke="midnightblue" d="M934.66,-123.36C945.05,-112.43 957.82,-98.99 967.63,-88.67"/>
<polygon fill="midnightblue" stroke="midnightblue" points="970.41,-90.83 974.76,-81.17 965.33,-86.01 970.41,-90.83"/>
</g>
<!-- Node10 -->
<g id="node10" class="node">
<title>Node10</title>
<g id="a_node10"><a xlink:title=" ">
<polygon fill="none" stroke="#bfbfbf" points="128,-0.5 128,-19.5 274,-19.5 274,-0.5 128,-0.5"/>
<text text-anchor="middle" x="201" y="-7.5" font-family="Helvetica,sans-Serif" font-size="10.00">../Geometry/Geometry.hpp</text>
</a>
</g>
</g>
<!-- Node1&#45;&gt;Node10 -->
<g id="edge9" class="edge">
<title>Node1&#45;&gt;Node10</title>
<path fill="none" stroke="midnightblue" d="M836.82,-141.8C664.07,-138.46 265.03,-126.5 219,-87 202.79,-73.09 199.72,-47.53 199.75,-29.92"/>
<polygon fill="midnightblue" stroke="midnightblue" points="203.25,-29.81 200.11,-19.7 196.26,-29.57 203.25,-29.81"/>
</g>
<!-- Node11 -->
<g id="node11" class="node">
<title>Node11</title>
<g id="a_node11"><a xlink:title=" ">
<polygon fill="none" stroke="#bfbfbf" points="986,-0.5 986,-19.5 1114,-19.5 1114,-0.5 986,-0.5"/>
<text text-anchor="middle" x="1050" y="-7.5" font-family="Helvetica,sans-Serif" font-size="10.00">../Geometry/Maths.hpp</text>
</a>
</g>
</g>
<!-- Node1&#45;&gt;Node11 -->
<g id="edge10" class="edge">
<title>Node1&#45;&gt;Node11</title>
<path fill="none" stroke="midnightblue" d="M995.13,-130.38C1020.07,-122.26 1045.01,-108.92 1060,-87 1071.59,-70.06 1065.59,-45.95 1058.98,-29.45"/>
<polygon fill="midnightblue" stroke="midnightblue" points="1061.98,-27.59 1054.73,-19.87 1055.58,-30.43 1061.98,-27.59"/>
</g>
<!-- Node12 -->
<g id="node12" class="node">
<title>Node12</title>
<g id="a_node12"><a xlink:title=" ">
<polygon fill="none" stroke="#bfbfbf" points="1365.5,-62 1365.5,-81 1492.5,-81 1492.5,-62 1365.5,-62"/>
<text text-anchor="middle" x="1429" y="-69" font-family="Helvetica,sans-Serif" font-size="10.00">../Geometry/String.hpp</text>
</a>
</g>
</g>
<!-- Node1&#45;&gt;Node12 -->
<g id="edge11" class="edge">
<title>Node1&#45;&gt;Node12</title>
<path fill="none" stroke="midnightblue" d="M995.12,-134.7C1083.57,-125.02 1230.95,-107.67 1357,-87 1364.18,-85.82 1371.74,-84.45 1379.15,-83.03"/>
<polygon fill="midnightblue" stroke="midnightblue" points="1379.97,-86.43 1389.11,-81.07 1378.62,-79.56 1379.97,-86.43"/>
</g>
<!-- Node13 -->
<g id="node13" class="node">
<title>Node13</title>
<g id="a_node13"><a xlink:title=" ">
<polygon fill="none" stroke="#bfbfbf" points="1511,-62 1511,-81 1639,-81 1639,-62 1511,-62"/>
<text text-anchor="middle" x="1575" y="-69" font-family="Helvetica,sans-Serif" font-size="10.00">../Geometry/Vector.hpp</text>
</a>
</g>
</g>
<!-- Node1&#45;&gt;Node13 -->
<g id="edge12" class="edge">
<title>Node1&#45;&gt;Node13</title>
<path fill="none" stroke="midnightblue" d="M995.45,-137.96C1108.41,-130.21 1321.76,-113.44 1502,-87 1509.73,-85.87 1517.88,-84.46 1525.82,-82.97"/>
<polygon fill="midnightblue" stroke="midnightblue" points="1526.57,-86.39 1535.72,-81.06 1525.24,-79.52 1526.57,-86.39"/>
</g>
<!-- Node14 -->
<g id="node14" class="node">
<title>Node14</title>
<g id="a_node14"><a xlink:title=" ">
<polygon fill="none" stroke="#bfbfbf" points="1657,-62 1657,-81 1793,-81 1793,-62 1657,-62"/>
<text text-anchor="middle" x="1725" y="-69" font-family="Helvetica,sans-Serif" font-size="10.00">../Structures/System.hpp</text>
</a>
</g>
</g>
<!-- Node1&#45;&gt;Node14 -->
<g id="edge13" class="edge">
<title>Node1&#45;&gt;Node14</title>
<path fill="none" stroke="midnightblue" d="M995.1,-139.8C1129.66,-133.72 1411.55,-118.21 1648,-87 1656.53,-85.87 1665.55,-84.42 1674.29,-82.87"/>
<polygon fill="midnightblue" stroke="midnightblue" points="1675.17,-86.26 1684.37,-81.01 1673.91,-79.38 1675.17,-86.26"/>
</g>
<!-- Node15 -->
<g id="node15" class="node">
<title>Node15</title>
<g id="a_node15"><a xlink:title=" ">
<polygon fill="none" stroke="#bfbfbf" points="1811,-62 1811,-81 1879,-81 1879,-62 1811,-62"/>
<text text-anchor="middle" x="1845" y="-69" font-family="Helvetica,sans-Serif" font-size="10.00">Config.hpp</text>
</a>
</g>
</g>
<!-- Node1&#45;&gt;Node15 -->
<g id="edge14" class="edge">
<title>Node1&#45;&gt;Node15</title>
<path fill="none" stroke="midnightblue" d="M995.16,-140.65C1182.48,-134.67 1648.69,-117.15 1802,-87 1805.89,-86.24 1809.91,-85.21 1813.86,-84.06"/>
<polygon fill="midnightblue" stroke="midnightblue" points="1814.96,-87.38 1823.42,-81.01 1812.83,-80.71 1814.96,-87.38"/>
</g>
<!-- Node16 -->
<g id="node16" class="node">
<title>Node16</title>
<g id="a_node16"><a xlink:href="_converter_8hpp.html" target="_top" xlink:title=" ">
<polygon fill="none" stroke="black" points="86.5,-62 86.5,-81 171.5,-81 171.5,-62 86.5,-62"/>
<text text-anchor="middle" x="129" y="-69" font-family="Helvetica,sans-Serif" font-size="10.00">Converter.hpp</text>
</a>
</g>
</g>
<!-- Node1&#45;&gt;Node16 -->
<g id="edge15" class="edge">
<title>Node1&#45;&gt;Node16</title>
<path fill="none" stroke="midnightblue" d="M836.88,-141.39C702.33,-137.67 420.71,-125.56 186,-87 180.19,-86.05 174.11,-84.79 168.17,-83.41"/>
<polygon fill="midnightblue" stroke="midnightblue" points="168.93,-79.99 158.38,-81 167.26,-86.79 168.93,-79.99"/>
</g>
<!-- Node17 -->
<g id="node17" class="node">
<title>Node17</title>
<g id="a_node17"><a xlink:href="_editor_color_scheme_8hpp.html" target="_top" xlink:title=" ">
<polygon fill="none" stroke="black" points="1216.5,-62 1216.5,-81 1347.5,-81 1347.5,-62 1216.5,-62"/>
<text text-anchor="middle" x="1282" y="-69" font-family="Helvetica,sans-Serif" font-size="10.00">EditorColorScheme.hpp</text>
</a>
</g>
</g>
<!-- Node1&#45;&gt;Node17 -->
<g id="edge18" class="edge">
<title>Node1&#45;&gt;Node17</title>
<path fill="none" stroke="midnightblue" d="M995.05,-127.81C1053.58,-116.55 1135.27,-100.84 1207,-87 1213.74,-85.7 1220.81,-84.33 1227.82,-82.98"/>
<polygon fill="midnightblue" stroke="midnightblue" points="1228.83,-86.35 1237.98,-81.02 1227.5,-79.48 1228.83,-86.35"/>
</g>
<!-- Node21 -->
<g id="node21" class="node">
<title>Node21</title>
<g id="a_node21"><a xlink:href="_gui_module_8hpp.html" target="_top" xlink:title=" ">
<polygon fill="none" stroke="black" points="1108,-62 1108,-81 1198,-81 1198,-62 1108,-62"/>
<text text-anchor="middle" x="1153" y="-69" font-family="Helvetica,sans-Serif" font-size="10.00">GuiModule.hpp</text>
</a>
</g>
</g>
<!-- Node1&#45;&gt;Node21 -->
<g id="edge22" class="edge">
<title>Node1&#45;&gt;Node21</title>
<path fill="none" stroke="midnightblue" d="M981.7,-123.46C1024.53,-110.72 1078.92,-94.54 1114.78,-83.87"/>
<polygon fill="midnightblue" stroke="midnightblue" points="1115.79,-87.22 1124.38,-81.01 1113.8,-80.51 1115.79,-87.22"/>
</g>
<!-- Node22 -->
<g id="node22" class="node">
<title>Node22</title>
<g id="a_node22"><a xlink:href="_structures_8hpp.html" target="_top" xlink:title=" ">
<polygon fill="none" stroke="black" points="1897.5,-62 1897.5,-81 1984.5,-81 1984.5,-62 1897.5,-62"/>
<text text-anchor="middle" x="1941" y="-69" font-family="Helvetica,sans-Serif" font-size="10.00">Structures.hpp</text>
</a>
</g>
</g>
<!-- Node1&#45;&gt;Node22 -->
<g id="edge27" class="edge">
<title>Node1&#45;&gt;Node22</title>
<path fill="none" stroke="midnightblue" d="M995.27,-140.57C1195.31,-134.11 1716.81,-115.03 1888,-87 1893.22,-86.15 1898.67,-84.98 1903.99,-83.68"/>
<polygon fill="midnightblue" stroke="midnightblue" points="1905.22,-86.98 1914.01,-81.06 1903.45,-80.21 1905.22,-86.98"/>
</g>
<!-- Node16&#45;&gt;Node2 -->
<g id="edge16" class="edge">
<title>Node16&#45;&gt;Node2</title>
<path fill="none" stroke="midnightblue" d="M118.4,-61.98C106.75,-52.61 87.81,-37.38 73.67,-26.01"/>
<polygon fill="midnightblue" stroke="midnightblue" points="75.57,-23.05 65.58,-19.51 71.18,-28.5 75.57,-23.05"/>
</g>
<!-- Node16&#45;&gt;Node10 -->
<g id="edge17" class="edge">
<title>Node16&#45;&gt;Node10</title>
<path fill="none" stroke="midnightblue" d="M139.32,-61.98C150.65,-52.61 169.07,-37.38 182.84,-26.01"/>
<polygon fill="midnightblue" stroke="midnightblue" points="185.22,-28.58 190.7,-19.51 180.77,-23.18 185.22,-28.58"/>
</g>
<!-- Node18 -->
<g id="node18" class="node">
<title>Node18</title>
<g id="a_node18"><a xlink:title=" ">
<polygon fill="none" stroke="#bfbfbf" points="1132.5,-0.5 1132.5,-19.5 1215.5,-19.5 1215.5,-0.5 1132.5,-0.5"/>
<text text-anchor="middle" x="1174" y="-7.5" font-family="Helvetica,sans-Serif" font-size="10.00">imgui&#45;SFML.h</text>
</a>
</g>
</g>
<!-- Node17&#45;&gt;Node18 -->
<g id="edge19" class="edge">
<title>Node17&#45;&gt;Node18</title>
<path fill="none" stroke="midnightblue" d="M1266.53,-61.98C1248.72,-52.17 1219.26,-35.93 1198.37,-24.42"/>
<polygon fill="midnightblue" stroke="midnightblue" points="1199.89,-21.27 1189.45,-19.51 1196.51,-27.4 1199.89,-21.27"/>
</g>
<!-- Node19 -->
<g id="node19" class="node">
<title>Node19</title>
<g id="a_node19"><a xlink:title=" ">
<polygon fill="none" stroke="#bfbfbf" points="1233.5,-0.5 1233.5,-19.5 1286.5,-19.5 1286.5,-0.5 1233.5,-0.5"/>
<text text-anchor="middle" x="1260" y="-7.5" font-family="Helvetica,sans-Serif" font-size="10.00">imgui.h</text>
</a>
</g>
</g>
<!-- Node17&#45;&gt;Node19 -->
<g id="edge20" class="edge">
<title>Node17&#45;&gt;Node19</title>
<path fill="none" stroke="midnightblue" d="M1278.85,-61.98C1275.68,-53.4 1270.7,-39.93 1266.65,-28.98"/>
<polygon fill="midnightblue" stroke="midnightblue" points="1269.9,-27.67 1263.15,-19.51 1263.33,-30.1 1269.9,-27.67"/>
</g>
<!-- Node20 -->
<g id="node20" class="node">
<title>Node20</title>
<g id="a_node20"><a xlink:title=" ">
<polygon fill="none" stroke="#bfbfbf" points="1305,-0.5 1305,-19.5 1401,-19.5 1401,-0.5 1305,-0.5"/>
<text text-anchor="middle" x="1353" y="-7.5" font-family="Helvetica,sans-Serif" font-size="10.00">imgui_internal.h</text>
</a>
</g>
</g>
<!-- Node17&#45;&gt;Node20 -->
<g id="edge21" class="edge">
<title>Node17&#45;&gt;Node20</title>
<path fill="none" stroke="midnightblue" d="M1292.17,-61.98C1303.35,-52.61 1321.52,-37.38 1335.09,-26.01"/>
<polygon fill="midnightblue" stroke="midnightblue" points="1337.43,-28.61 1342.85,-19.51 1332.93,-23.25 1337.43,-28.61"/>
</g>
<!-- Node21&#45;&gt;Node11 -->
<g id="edge23" class="edge">
<title>Node21&#45;&gt;Node11</title>
<path fill="none" stroke="midnightblue" d="M1138.24,-61.98C1121.34,-52.21 1093.42,-36.08 1073.51,-24.58"/>
<polygon fill="midnightblue" stroke="midnightblue" points="1075.14,-21.48 1064.73,-19.51 1071.64,-27.54 1075.14,-21.48"/>
</g>
<!-- Node21&#45;&gt;Node18 -->
<g id="edge24" class="edge">
<title>Node21&#45;&gt;Node18</title>
<path fill="none" stroke="midnightblue" d="M1156.01,-61.98C1159.03,-53.4 1163.79,-39.93 1167.65,-28.98"/>
<polygon fill="midnightblue" stroke="midnightblue" points="1170.97,-30.1 1171,-19.51 1164.37,-27.77 1170.97,-30.1"/>
</g>
<!-- Node21&#45;&gt;Node19 -->
<g id="edge25" class="edge">
<title>Node21&#45;&gt;Node19</title>
<path fill="none" stroke="midnightblue" d="M1168.33,-61.98C1185.97,-52.17 1215.16,-35.93 1235.86,-24.42"/>
<polygon fill="midnightblue" stroke="midnightblue" points="1237.66,-27.43 1244.7,-19.51 1234.26,-21.31 1237.66,-27.43"/>
</g>
<!-- Node21&#45;&gt;Node20 -->
<g id="edge26" class="edge">
<title>Node21&#45;&gt;Node20</title>
<path fill="none" stroke="midnightblue" d="M1181.66,-61.98C1216.56,-51.59 1275.65,-34.01 1314.5,-22.45"/>
<polygon fill="midnightblue" stroke="midnightblue" points="1315.81,-25.72 1324.4,-19.51 1313.82,-19.01 1315.81,-25.72"/>
</g>
</g>
</svg>
