<?xml version="1.0" encoding="UTF-8" standalone="no"?>
<!DOCTYPE svg PUBLIC "-//W3C//DTD SVG 1.1//EN"
 "http://www.w3.org/Graphics/SVG/1.1/DTD/svg11.dtd">
<!-- Generated by graphviz version 2.43.0 (0)
 -->
<!-- Title: /home/runner/work/Simulatio/Simulatio/renderer/include/Renderer/Renderer.hpp Pages: 1 -->
<svg width="1046pt" height="128pt"
 viewBox="0.00 0.00 1046.00 128.00" xmlns="http://www.w3.org/2000/svg" xmlns:xlink="http://www.w3.org/1999/xlink">
<g id="graph0" class="graph" transform="scale(1 1) rotate(0) translate(4 124)">
<title>/home/runner/work/Simulatio/Simulatio/renderer/include/Renderer/Renderer.hpp</title>
<!-- Node1 -->
<g id="node1" class="node">
<title>Node1</title>
<g id="a_node1"><a xlink:title=" ">
<polygon fill="#bfbfbf" stroke="black" points="440,-78.5 440,-119.5 598,-119.5 598,-78.5 440,-78.5"/>
<text text-anchor="start" x="448" y="-107.5" font-family="Helvetica,sans-Serif" font-size="10.00">/home/runner/work/Simulatio</text>
<text text-anchor="start" x="448" y="-96.5" font-family="Helvetica,sans-Serif" font-size="10.00">/Simulatio/renderer/include</text>
<text text-anchor="middle" x="519" y="-85.5" font-family="Helvetica,sans-Serif" font-size="10.00">/Renderer/Renderer.hpp</text>
</a>
</g>
</g>
<!-- Node2 -->
<g id="node2" class="node">
<title>Node2</title>
<g id="a_node2"><a xlink:href="_draw_8cpp.html" target="_top" xlink:title=" ">
<polygon fill="none" stroke="black" points="0,-0.5 0,-41.5 158,-41.5 158,-0.5 0,-0.5"/>
<text text-anchor="start" x="8" y="-29.5" font-family="Helvetica,sans-Serif" font-size="10.00">/home/runner/work/Simulatio</text>
<text text-anchor="start" x="8" y="-18.5" font-family="Helvetica,sans-Serif" font-size="10.00">/Simulatio/renderer/src</text>
<text text-anchor="middle" x="79" y="-7.5" font-family="Helvetica,sans-Serif" font-size="10.00">/Renderer/Draw.cpp</text>
</a>
</g>
</g>
<!-- Node1&#45;&gt;Node2 -->
<g id="edge1" class="edge">
<title>Node1&#45;&gt;Node2</title>
<path fill="none" stroke="midnightblue" d="M429.46,-85.41C358.15,-74.99 255.89,-59.15 167,-42 164.08,-41.44 161.1,-40.85 158.1,-40.24"/>
<polygon fill="midnightblue" stroke="midnightblue" points="429.35,-88.93 439.75,-86.91 430.36,-82.01 429.35,-88.93"/>
</g>
<!-- Node3 -->
<g id="node3" class="node">
<title>Node3</title>
<g id="a_node3"><a xlink:href="_event_8cpp.html" target="_top" xlink:title=" ">
<polygon fill="none" stroke="black" points="176,-0.5 176,-41.5 334,-41.5 334,-0.5 176,-0.5"/>
<text text-anchor="start" x="184" y="-29.5" font-family="Helvetica,sans-Serif" font-size="10.00">/home/runner/work/Simulatio</text>
<text text-anchor="start" x="184" y="-18.5" font-family="Helvetica,sans-Serif" font-size="10.00">/Simulatio/renderer/src</text>
<text text-anchor="middle" x="255" y="-7.5" font-family="Helvetica,sans-Serif" font-size="10.00">/Renderer/Event.cpp</text>
</a>
</g>
</g>
<!-- Node1&#45;&gt;Node3 -->
<g id="edge2" class="edge">
<title>Node1&#45;&gt;Node3</title>
<path fill="none" stroke="midnightblue" d="M441.12,-75.58C403.55,-64.76 358.9,-51.91 322.76,-41.51"/>
<polygon fill="midnightblue" stroke="midnightblue" points="440.44,-79.03 451.01,-78.43 442.37,-72.3 440.44,-79.03"/>
</g>
<!-- Node4 -->
<g id="node4" class="node">
<title>Node4</title>
<g id="a_node4"><a xlink:href="_gui_8cpp.html" target="_top" xlink:title=" ">
<polygon fill="none" stroke="black" points="352,-0.5 352,-41.5 510,-41.5 510,-0.5 352,-0.5"/>
<text text-anchor="start" x="360" y="-29.5" font-family="Helvetica,sans-Serif" font-size="10.00">/home/runner/work/Simulatio</text>
<text text-anchor="start" x="360" y="-18.5" font-family="Helvetica,sans-Serif" font-size="10.00">/Simulatio/renderer/src</text>
<text text-anchor="middle" x="431" y="-7.5" font-family="Helvetica,sans-Serif" font-size="10.00">/Renderer/Gui.cpp</text>
</a>
</g>
</g>
<!-- Node1&#45;&gt;Node4 -->
<g id="edge3" class="edge">
<title>Node1&#45;&gt;Node4</title>
<path fill="none" stroke="midnightblue" d="M488.64,-71.78C477.13,-61.84 464.25,-50.72 453.59,-41.51"/>
<polygon fill="midnightblue" stroke="midnightblue" points="486.48,-74.54 496.34,-78.43 491.06,-69.24 486.48,-74.54"/>
</g>
<!-- Node5 -->
<g id="node5" class="node">
<title>Node5</title>
<g id="a_node5"><a xlink:href="_renderer_8cpp.html" target="_top" xlink:title=" ">
<polygon fill="none" stroke="black" points="528,-0.5 528,-41.5 686,-41.5 686,-0.5 528,-0.5"/>
<text text-anchor="start" x="536" y="-29.5" font-family="Helvetica,sans-Serif" font-size="10.00">/home/runner/work/Simulatio</text>
<text text-anchor="start" x="536" y="-18.5" font-family="Helvetica,sans-Serif" font-size="10.00">/Simulatio/renderer/src</text>
<text text-anchor="middle" x="607" y="-7.5" font-family="Helvetica,sans-Serif" font-size="10.00">/Renderer/Renderer.cpp</text>
</a>
</g>
</g>
<!-- Node1&#45;&gt;Node5 -->
<g id="edge4" class="edge">
<title>Node1&#45;&gt;Node5</title>
<path fill="none" stroke="midnightblue" d="M549.36,-71.78C560.87,-61.84 573.75,-50.72 584.41,-41.51"/>
<polygon fill="midnightblue" stroke="midnightblue" points="546.94,-69.24 541.66,-78.43 551.52,-74.54 546.94,-69.24"/>
</g>
<!-- Node6 -->
<g id="node6" class="node">
<title>Node6</title>
<g id="a_node6"><a xlink:href="_shapes_8cpp.html" target="_top" xlink:title=" ">
<polygon fill="none" stroke="black" points="704,-0.5 704,-41.5 862,-41.5 862,-0.5 704,-0.5"/>
<text text-anchor="start" x="712" y="-29.5" font-family="Helvetica,sans-Serif" font-size="10.00">/home/runner/work/Simulatio</text>
<text text-anchor="start" x="712" y="-18.5" font-family="Helvetica,sans-Serif" font-size="10.00">/Simulatio/renderer/src</text>
<text text-anchor="middle" x="783" y="-7.5" font-family="Helvetica,sans-Serif" font-size="10.00">/Renderer/Shapes.cpp</text>
</a>
</g>
</g>
<!-- Node1&#45;&gt;Node6 -->
<g id="edge5" class="edge">
<title>Node1&#45;&gt;Node6</title>
<path fill="none" stroke="midnightblue" d="M596.88,-75.58C634.45,-64.76 679.1,-51.91 715.24,-41.51"/>
<polygon fill="midnightblue" stroke="midnightblue" points="595.63,-72.3 586.99,-78.43 597.56,-79.03 595.63,-72.3"/>
</g>
<!-- Node7 -->
<g id="node7" class="node">
<title>Node7</title>
<g id="a_node7"><a xlink:href="old__main_8cpp.html" target="_top" xlink:title=" ">
<polygon fill="none" stroke="black" points="880,-0.5 880,-41.5 1038,-41.5 1038,-0.5 880,-0.5"/>
<text text-anchor="start" x="888" y="-29.5" font-family="Helvetica,sans-Serif" font-size="10.00">/home/runner/work/Simulatio</text>
<text text-anchor="start" x="888" y="-18.5" font-family="Helvetica,sans-Serif" font-size="10.00">/Simulatio/renderer/src</text>
<text text-anchor="middle" x="959" y="-7.5" font-family="Helvetica,sans-Serif" font-size="10.00">/main/old_main.cpp</text>
</a>
</g>
</g>
<!-- Node1&#45;&gt;Node7 -->
<g id="edge6" class="edge">
<title>Node1&#45;&gt;Node7</title>
<path fill="none" stroke="midnightblue" d="M608.54,-85.41C679.85,-74.99 782.11,-59.15 871,-42 873.92,-41.44 876.9,-40.85 879.9,-40.24"/>
<polygon fill="midnightblue" stroke="midnightblue" points="607.64,-82.01 598.25,-86.91 608.65,-88.93 607.64,-82.01"/>
</g>
</g>
</svg>
