<?xml version="1.0" encoding="UTF-8" standalone="no"?>
<!DOCTYPE svg PUBLIC "-//W3C//DTD SVG 1.1//EN"
 "http://www.w3.org/Graphics/SVG/1.1/DTD/svg11.dtd">
<!-- Generated by graphviz version 2.43.0 (0)
 -->
<!-- Title: /home/runner/work/Simulatio/Simulatio/include/Constraints/Slider.hpp Pages: 1 -->
<svg width="850pt" height="610pt"
 viewBox="0.00 0.00 849.50 610.00" xmlns="http://www.w3.org/2000/svg" xmlns:xlink="http://www.w3.org/1999/xlink">
<g id="graph0" class="graph" transform="scale(1 1) rotate(0) translate(4 606)">
<title>/home/runner/work/Simulatio/Simulatio/include/Constraints/Slider.hpp</title>
<!-- Node1 -->
<g id="node1" class="node">
<title>Node1</title>
<g id="a_node1"><a xlink:title=" ">
<polygon fill="#bfbfbf" stroke="black" points="336.5,-560.5 336.5,-601.5 499.5,-601.5 499.5,-560.5 336.5,-560.5"/>
<text text-anchor="start" x="344.5" y="-589.5" font-family="Helvetica,sans-Serif" font-size="10.00">/home/runner/work/Simulatio</text>
<text text-anchor="start" x="344.5" y="-578.5" font-family="Helvetica,sans-Serif" font-size="10.00">/Simulatio/include/Constraints</text>
<text text-anchor="middle" x="418" y="-567.5" font-family="Helvetica,sans-Serif" font-size="10.00">/Slider.hpp</text>
</a>
</g>
</g>
<!-- Node2 -->
<g id="node2" class="node">
<title>Node2</title>
<g id="a_node2"><a xlink:title=" ">
<polygon fill="none" stroke="#bfbfbf" points="232,-224.5 232,-243.5 300,-243.5 300,-224.5 232,-224.5"/>
<text text-anchor="middle" x="266" y="-231.5" font-family="Helvetica,sans-Serif" font-size="10.00">Config.hpp</text>
</a>
</g>
</g>
<!-- Node1&#45;&gt;Node2 -->
<g id="edge1" class="edge">
<title>Node1&#45;&gt;Node2</title>
<path fill="none" stroke="midnightblue" d="M419.8,-560.16C423.46,-507.25 425.85,-361.25 351,-280 337.67,-265.52 318.59,-254.84 301.89,-247.52"/>
<polygon fill="midnightblue" stroke="midnightblue" points="302.97,-244.18 292.39,-243.6 300.3,-250.65 302.97,-244.18"/>
</g>
<!-- Node3 -->
<g id="node3" class="node">
<title>Node3</title>
<g id="a_node3"><a xlink:href="_constraint_8hpp.html" target="_top" xlink:title=" ">
<polygon fill="none" stroke="black" points="317,-504.5 317,-523.5 405,-523.5 405,-504.5 317,-504.5"/>
<text text-anchor="middle" x="361" y="-511.5" font-family="Helvetica,sans-Serif" font-size="10.00">Constraint.hpp</text>
</a>
</g>
</g>
<!-- Node1&#45;&gt;Node3 -->
<g id="edge2" class="edge">
<title>Node1&#45;&gt;Node3</title>
<path fill="none" stroke="midnightblue" d="M400.9,-560.5C392.75,-551.2 383.11,-540.21 375.34,-531.36"/>
<polygon fill="midnightblue" stroke="midnightblue" points="377.81,-528.86 368.59,-523.65 372.55,-533.48 377.81,-528.86"/>
</g>
<!-- Node3&#45;&gt;Node2 -->
<g id="edge48" class="edge">
<title>Node3&#45;&gt;Node2</title>
<path fill="none" stroke="midnightblue" d="M361,-504.44C361,-485.94 361,-440.81 361,-403 361,-403 361,-403 361,-345 361,-301.74 318.39,-267.09 290.25,-248.91"/>
<polygon fill="midnightblue" stroke="midnightblue" points="292.03,-245.9 281.69,-243.6 288.34,-251.85 292.03,-245.9"/>
</g>
<!-- Node4 -->
<g id="node4" class="node">
<title>Node4</title>
<g id="a_node4"><a xlink:href="_circle_8hpp.html" target="_top" xlink:title=" ">
<polygon fill="none" stroke="black" points="179,-448.5 179,-467.5 295,-467.5 295,-448.5 179,-448.5"/>
<text text-anchor="middle" x="237" y="-455.5" font-family="Helvetica,sans-Serif" font-size="10.00">../Corpses/Circle.hpp</text>
</a>
</g>
</g>
<!-- Node3&#45;&gt;Node4 -->
<g id="edge3" class="edge">
<title>Node3&#45;&gt;Node4</title>
<path fill="none" stroke="midnightblue" d="M341.35,-504.44C321.04,-495.6 289.1,-481.69 265.9,-471.59"/>
<polygon fill="midnightblue" stroke="midnightblue" points="267.12,-468.3 256.56,-467.52 264.33,-474.72 267.12,-468.3"/>
</g>
<!-- Node6 -->
<g id="node6" class="node">
<title>Node6</title>
<g id="a_node6"><a xlink:href="_corpse_8hpp.html" target="_top" xlink:title=" ">
<polygon fill="none" stroke="black" points="154.5,-336.5 154.5,-355.5 225.5,-355.5 225.5,-336.5 154.5,-336.5"/>
<text text-anchor="middle" x="190" y="-343.5" font-family="Helvetica,sans-Serif" font-size="10.00">Corpse.hpp</text>
</a>
</g>
</g>
<!-- Node3&#45;&gt;Node6 -->
<g id="edge44" class="edge">
<title>Node3&#45;&gt;Node6</title>
<path fill="none" stroke="midnightblue" d="M353.95,-504.28C343.49,-491.51 323.05,-467.15 304,-448 271.92,-415.75 231.48,-381.24 208.4,-362.06"/>
<polygon fill="midnightblue" stroke="midnightblue" points="210.39,-359.17 200.45,-355.5 205.94,-364.57 210.39,-359.17"/>
</g>
<!-- Node10 -->
<g id="node10" class="node">
<title>Node10</title>
<g id="a_node10"><a xlink:href="_geometry_8hpp.html" target="_top" xlink:title=" ">
<polygon fill="none" stroke="black" points="427,-280.5 427,-299.5 573,-299.5 573,-280.5 427,-280.5"/>
<text text-anchor="middle" x="500" y="-287.5" font-family="Helvetica,sans-Serif" font-size="10.00">../Geometry/Geometry.hpp</text>
</a>
</g>
</g>
<!-- Node3&#45;&gt;Node10 -->
<g id="edge46" class="edge">
<title>Node3&#45;&gt;Node10</title>
<path fill="none" stroke="midnightblue" d="M364.85,-504.2C373.91,-483.84 397.7,-432.14 423,-392 442.78,-360.62 469.82,-326.87 486.03,-307.41"/>
<polygon fill="midnightblue" stroke="midnightblue" points="488.89,-309.44 492.65,-299.54 483.54,-304.94 488.89,-309.44"/>
</g>
<!-- Node14 -->
<g id="node14" class="node">
<title>Node14</title>
<g id="a_node14"><a xlink:href="_maths_8hpp.html" target="_top" xlink:title=" ">
<polygon fill="none" stroke="black" points="395,-56.5 395,-75.5 523,-75.5 523,-56.5 395,-56.5"/>
<text text-anchor="middle" x="459" y="-63.5" font-family="Helvetica,sans-Serif" font-size="10.00">../Geometry/Maths.hpp</text>
</a>
</g>
</g>
<!-- Node3&#45;&gt;Node14 -->
<g id="edge47" class="edge">
<title>Node3&#45;&gt;Node14</title>
<path fill="none" stroke="midnightblue" d="M380.59,-504.33C440.16,-476.71 619.13,-384.3 685,-244 707.08,-196.97 698.19,-165.81 634,-112 606.11,-88.62 567.57,-77.19 533.75,-71.68"/>
<polygon fill="midnightblue" stroke="midnightblue" points="533.82,-68.16 523.42,-70.15 532.8,-75.08 533.82,-68.16"/>
</g>
<!-- Node25 -->
<g id="node25" class="node">
<title>Node25</title>
<g id="a_node25"><a xlink:href="_polygon_8hpp.html" target="_top" xlink:title=" ">
<polygon fill="none" stroke="black" points="136.5,-392.5 136.5,-411.5 213.5,-411.5 213.5,-392.5 136.5,-392.5"/>
<text text-anchor="middle" x="175" y="-399.5" font-family="Helvetica,sans-Serif" font-size="10.00">Polygon.hpp</text>
</a>
</g>
</g>
<!-- Node3&#45;&gt;Node25 -->
<g id="edge45" class="edge">
<title>Node3&#45;&gt;Node25</title>
<path fill="none" stroke="midnightblue" d="M316.9,-508.86C266.3,-503.1 187.98,-490.7 170,-468 159.7,-454.99 162.84,-435.56 167.4,-421.33"/>
<polygon fill="midnightblue" stroke="midnightblue" points="170.79,-422.25 170.97,-411.66 164.22,-419.83 170.79,-422.25"/>
</g>
<!-- Node4&#45;&gt;Node2 -->
<g id="edge5" class="edge">
<title>Node4&#45;&gt;Node2</title>
<path fill="none" stroke="midnightblue" d="M240.56,-448.27C250.6,-422.7 278.08,-345.66 273,-280 272.32,-271.22 270.91,-261.56 269.53,-253.45"/>
<polygon fill="midnightblue" stroke="midnightblue" points="272.97,-252.8 267.74,-243.58 266.08,-254.04 272.97,-252.8"/>
</g>
<!-- Node5 -->
<g id="node5" class="node">
<title>Node5</title>
<g id="a_node5"><a xlink:title=" ">
<polygon fill="none" stroke="#bfbfbf" points="14.5,-0.5 14.5,-19.5 61.5,-19.5 61.5,-0.5 14.5,-0.5"/>
<text text-anchor="middle" x="38" y="-7.5" font-family="Helvetica,sans-Serif" font-size="10.00">vector</text>
</a>
</g>
</g>
<!-- Node4&#45;&gt;Node5 -->
<g id="edge4" class="edge">
<title>Node4&#45;&gt;Node5</title>
<path fill="none" stroke="midnightblue" d="M178.72,-454.58C108.55,-448.19 0,-425.59 0,-347 0,-347 0,-347 0,-121 0,-86.81 16.6,-49.76 27.86,-28.57"/>
<polygon fill="midnightblue" stroke="midnightblue" points="30.95,-30.22 32.72,-19.77 24.82,-26.83 30.95,-30.22"/>
</g>
<!-- Node4&#45;&gt;Node6 -->
<g id="edge6" class="edge">
<title>Node4&#45;&gt;Node6</title>
<path fill="none" stroke="midnightblue" d="M236.28,-448.23C234.98,-435.39 231.52,-410.95 223,-392 218.39,-381.75 211.18,-371.54 204.67,-363.45"/>
<polygon fill="midnightblue" stroke="midnightblue" points="207.17,-360.98 198.05,-355.6 201.82,-365.5 207.17,-360.98"/>
</g>
<!-- Node4&#45;&gt;Node25 -->
<g id="edge39" class="edge">
<title>Node4&#45;&gt;Node25</title>
<path fill="none" stroke="midnightblue" d="M221.92,-448.32C211.14,-440.42 197.14,-428.55 187.08,-418.94"/>
<polygon fill="midnightblue" stroke="midnightblue" points="189.53,-416.44 179.99,-411.83 184.58,-421.39 189.53,-416.44"/>
</g>
<!-- Node6&#45;&gt;Node2 -->
<g id="edge38" class="edge">
<title>Node6&#45;&gt;Node2</title>
<path fill="none" stroke="midnightblue" d="M195.96,-336.37C208.51,-318.22 237.81,-275.8 254.26,-251.99"/>
<polygon fill="midnightblue" stroke="midnightblue" points="257.26,-253.81 260.06,-243.59 251.5,-249.83 257.26,-253.81"/>
</g>
<!-- Node6&#45;&gt;Node5 -->
<g id="edge10" class="edge">
<title>Node6&#45;&gt;Node5</title>
<path fill="none" stroke="midnightblue" d="M169.36,-336.42C136.5,-321.23 76,-286.29 76,-235 76,-235 76,-235 76,-121 76,-86.81 59.4,-49.76 48.14,-28.57"/>
<polygon fill="midnightblue" stroke="midnightblue" points="51.18,-26.83 43.28,-19.77 45.05,-30.22 51.18,-26.83"/>
</g>
<!-- Node7 -->
<g id="node7" class="node">
<title>Node7</title>
<g id="a_node7"><a xlink:title=" ">
<polygon fill="none" stroke="#bfbfbf" points="79.5,-0.5 79.5,-19.5 126.5,-19.5 126.5,-0.5 79.5,-0.5"/>
<text text-anchor="middle" x="103" y="-7.5" font-family="Helvetica,sans-Serif" font-size="10.00">cmath</text>
</a>
</g>
</g>
<!-- Node6&#45;&gt;Node7 -->
<g id="edge7" class="edge">
<title>Node6&#45;&gt;Node7</title>
<path fill="none" stroke="midnightblue" d="M178.46,-336.43C157.2,-319.57 114,-279.8 114,-235 114,-235 114,-235 114,-121 114,-88.79 109.27,-51.53 106.02,-29.69"/>
<polygon fill="midnightblue" stroke="midnightblue" points="109.43,-28.87 104.44,-19.53 102.51,-29.95 109.43,-28.87"/>
</g>
<!-- Node8 -->
<g id="node8" class="node">
<title>Node8</title>
<g id="a_node8"><a xlink:title=" ">
<polygon fill="none" stroke="#bfbfbf" points="145,-0.5 145,-19.5 205,-19.5 205,-0.5 145,-0.5"/>
<text text-anchor="middle" x="175" y="-7.5" font-family="Helvetica,sans-Serif" font-size="10.00">iostream</text>
</a>
</g>
</g>
<!-- Node6&#45;&gt;Node8 -->
<g id="edge8" class="edge">
<title>Node6&#45;&gt;Node8</title>
<path fill="none" stroke="midnightblue" d="M184.72,-336.23C174.27,-318.04 152,-274.6 152,-235 152,-235 152,-235 152,-121 152,-88.12 161.97,-50.86 168.78,-29.24"/>
<polygon fill="midnightblue" stroke="midnightblue" points="172.11,-30.3 171.9,-19.71 165.46,-28.12 172.11,-30.3"/>
</g>
<!-- Node9 -->
<g id="node9" class="node">
<title>Node9</title>
<g id="a_node9"><a xlink:title=" ">
<polygon fill="none" stroke="#bfbfbf" points="223,-0.5 223,-19.5 281,-19.5 281,-0.5 223,-0.5"/>
<text text-anchor="middle" x="252" y="-7.5" font-family="Helvetica,sans-Serif" font-size="10.00">memory</text>
</a>
</g>
</g>
<!-- Node6&#45;&gt;Node9 -->
<g id="edge9" class="edge">
<title>Node6&#45;&gt;Node9</title>
<path fill="none" stroke="midnightblue" d="M190,-336.44C190,-317.94 190,-272.81 190,-235 190,-235 190,-235 190,-121 190,-83.62 217.5,-47.24 235.87,-27.1"/>
<polygon fill="midnightblue" stroke="midnightblue" points="238.51,-29.41 242.85,-19.75 233.43,-24.59 238.51,-29.41"/>
</g>
<!-- Node6&#45;&gt;Node10 -->
<g id="edge11" class="edge">
<title>Node6&#45;&gt;Node10</title>
<path fill="none" stroke="midnightblue" d="M225.56,-338.81C278.25,-329.63 377.65,-312.31 441.25,-301.23"/>
<polygon fill="midnightblue" stroke="midnightblue" points="441.89,-304.68 451.14,-299.51 440.69,-297.78 441.89,-304.68"/>
</g>
<!-- Node10&#45;&gt;Node2 -->
<g id="edge31" class="edge">
<title>Node10&#45;&gt;Node2</title>
<path fill="none" stroke="midnightblue" d="M462.92,-280.44C421.44,-270.87 354.27,-255.37 310.12,-245.18"/>
<polygon fill="midnightblue" stroke="midnightblue" points="310.77,-241.74 300.24,-242.9 309.2,-248.56 310.77,-241.74"/>
</g>
<!-- Node11 -->
<g id="node11" class="node">
<title>Node11</title>
<g id="a_node11"><a xlink:href="_recorder_8hpp.html" target="_top" xlink:title=" ">
<polygon fill="none" stroke="black" points="528,-224.5 528,-243.5 676,-243.5 676,-224.5 528,-224.5"/>
<text text-anchor="middle" x="602" y="-231.5" font-family="Helvetica,sans-Serif" font-size="10.00">../Benchmark/Recorder.hpp</text>
</a>
</g>
</g>
<!-- Node10&#45;&gt;Node11 -->
<g id="edge12" class="edge">
<title>Node10&#45;&gt;Node11</title>
<path fill="none" stroke="midnightblue" d="M516.39,-280.32C532.67,-271.7 557.87,-258.36 576.72,-248.39"/>
<polygon fill="midnightblue" stroke="midnightblue" points="578.45,-251.43 585.65,-243.65 575.18,-245.24 578.45,-251.43"/>
</g>
<!-- Node10&#45;&gt;Node14 -->
<g id="edge32" class="edge">
<title>Node10&#45;&gt;Node14</title>
<path fill="none" stroke="midnightblue" d="M498.39,-280.3C492.36,-247.63 470.98,-131.87 462.5,-85.96"/>
<polygon fill="midnightblue" stroke="midnightblue" points="465.9,-85.08 460.64,-75.88 459.02,-86.35 465.9,-85.08"/>
</g>
<!-- Node22 -->
<g id="node22" class="node">
<title>Node22</title>
<g id="a_node22"><a xlink:href="_bounds_8hpp.html" target="_top" xlink:title=" ">
<polygon fill="none" stroke="black" points="360,-168.5 360,-187.5 434,-187.5 434,-168.5 360,-168.5"/>
<text text-anchor="middle" x="397" y="-175.5" font-family="Helvetica,sans-Serif" font-size="10.00">Bounds.hpp</text>
</a>
</g>
</g>
<!-- Node10&#45;&gt;Node22 -->
<g id="edge27" class="edge">
<title>Node10&#45;&gt;Node22</title>
<path fill="none" stroke="midnightblue" d="M488.69,-280.27C477.77,-271.6 461.01,-257.66 448,-244 433.53,-228.81 418.95,-209.77 409.1,-196.22"/>
<polygon fill="midnightblue" stroke="midnightblue" points="411.77,-193.94 403.11,-187.84 406.08,-198.01 411.77,-193.94"/>
</g>
<!-- Node23 -->
<g id="node23" class="node">
<title>Node23</title>
<g id="a_node23"><a xlink:href="_vector_8hpp.html" target="_top" xlink:title=" ">
<polygon fill="none" stroke="black" points="363,-112.5 363,-131.5 431,-131.5 431,-112.5 363,-112.5"/>
<text text-anchor="middle" x="397" y="-119.5" font-family="Helvetica,sans-Serif" font-size="10.00">Vector.hpp</text>
</a>
</g>
</g>
<!-- Node10&#45;&gt;Node23 -->
<g id="edge33" class="edge">
<title>Node10&#45;&gt;Node23</title>
<path fill="none" stroke="midnightblue" d="M497.09,-280.22C489.96,-259.46 470.19,-206.22 443,-168 435.27,-157.13 424.73,-146.6 415.7,-138.47"/>
<polygon fill="midnightblue" stroke="midnightblue" points="417.79,-135.65 407.95,-131.73 413.2,-140.94 417.79,-135.65"/>
</g>
<!-- Node24 -->
<g id="node24" class="node">
<title>Node24</title>
<g id="a_node24"><a xlink:href="_vertices_8hpp.html" target="_top" xlink:title=" ">
<polygon fill="none" stroke="black" points="318.5,-224.5 318.5,-243.5 395.5,-243.5 395.5,-224.5 318.5,-224.5"/>
<text text-anchor="middle" x="357" y="-231.5" font-family="Helvetica,sans-Serif" font-size="10.00">Vertices.hpp</text>
</a>
</g>
</g>
<!-- Node10&#45;&gt;Node24 -->
<g id="edge34" class="edge">
<title>Node10&#45;&gt;Node24</title>
<path fill="none" stroke="midnightblue" d="M477.34,-280.44C453.6,-271.48 416.09,-257.31 389.26,-247.18"/>
<polygon fill="midnightblue" stroke="midnightblue" points="390.14,-243.77 379.55,-243.52 387.67,-250.32 390.14,-243.77"/>
</g>
<!-- Node12 -->
<g id="node12" class="node">
<title>Node12</title>
<g id="a_node12"><a xlink:href="_performance_8hpp.html" target="_top" xlink:title=" ">
<polygon fill="none" stroke="black" points="540,-168.5 540,-187.5 640,-187.5 640,-168.5 540,-168.5"/>
<text text-anchor="middle" x="590" y="-175.5" font-family="Helvetica,sans-Serif" font-size="10.00">Performance.hpp</text>
</a>
</g>
</g>
<!-- Node11&#45;&gt;Node12 -->
<g id="edge13" class="edge">
<title>Node11&#45;&gt;Node12</title>
<path fill="none" stroke="midnightblue" d="M600.02,-224.08C598.43,-216.93 596.14,-206.64 594.15,-197.69"/>
<polygon fill="midnightblue" stroke="midnightblue" points="597.53,-196.75 591.94,-187.75 590.7,-198.27 597.53,-196.75"/>
</g>
<!-- Node13 -->
<g id="node13" class="node">
<title>Node13</title>
<g id="a_node13"><a xlink:href="_block_data_8hpp.html" target="_top" xlink:title=" ">
<polygon fill="none" stroke="black" points="537,-112.5 537,-131.5 625,-131.5 625,-112.5 537,-112.5"/>
<text text-anchor="middle" x="581" y="-119.5" font-family="Helvetica,sans-Serif" font-size="10.00">BlockData.hpp</text>
</a>
</g>
</g>
<!-- Node12&#45;&gt;Node13 -->
<g id="edge14" class="edge">
<title>Node12&#45;&gt;Node13</title>
<path fill="none" stroke="midnightblue" d="M588.51,-168.08C587.32,-160.93 585.61,-150.64 584.12,-141.69"/>
<polygon fill="midnightblue" stroke="midnightblue" points="587.55,-141.04 582.46,-131.75 580.65,-142.19 587.55,-141.04"/>
</g>
<!-- Node13&#45;&gt;Node14 -->
<g id="edge15" class="edge">
<title>Node13&#45;&gt;Node14</title>
<path fill="none" stroke="midnightblue" d="M561.67,-112.44C541.68,-103.6 510.26,-89.69 487.44,-79.59"/>
<polygon fill="midnightblue" stroke="midnightblue" points="488.8,-76.36 478.24,-75.52 485.97,-82.76 488.8,-76.36"/>
</g>
<!-- Node14&#45;&gt;Node5 -->
<g id="edge26" class="edge">
<title>Node14&#45;&gt;Node5</title>
<path fill="none" stroke="midnightblue" d="M394.84,-60.72C319.45,-54.99 190.52,-43 71.66,-20.07"/>
<polygon fill="midnightblue" stroke="midnightblue" points="72.15,-16.6 61.66,-18.11 70.8,-23.47 72.15,-16.6"/>
</g>
<!-- Node14&#45;&gt;Node7 -->
<g id="edge18" class="edge">
<title>Node14&#45;&gt;Node7</title>
<path fill="none" stroke="midnightblue" d="M394.85,-58.51C331.55,-51.55 231.91,-39.12 136.52,-19.86"/>
<polygon fill="midnightblue" stroke="midnightblue" points="137.2,-16.43 126.71,-17.85 135.8,-23.29 137.2,-16.43"/>
</g>
<!-- Node14&#45;&gt;Node8 -->
<g id="edge20" class="edge">
<title>Node14&#45;&gt;Node8</title>
<path fill="none" stroke="midnightblue" d="M408.66,-56.44C361.18,-48.21 287.77,-35.09 215,-20.14"/>
<polygon fill="midnightblue" stroke="midnightblue" points="215.71,-16.71 205.2,-18.11 214.29,-23.56 215.71,-16.71"/>
</g>
<!-- Node14&#45;&gt;Node9 -->
<g id="edge22" class="edge">
<title>Node14&#45;&gt;Node9</title>
<path fill="none" stroke="midnightblue" d="M426.2,-56.44C389.57,-46.89 330.32,-31.43 291.26,-21.24"/>
<polygon fill="midnightblue" stroke="midnightblue" points="291.86,-17.78 281.3,-18.64 290.09,-24.55 291.86,-17.78"/>
</g>
<!-- Node15 -->
<g id="node15" class="node">
<title>Node15</title>
<g id="a_node15"><a xlink:title=" ">
<polygon fill="none" stroke="#bfbfbf" points="411,-0.5 411,-19.5 453,-19.5 453,-0.5 411,-0.5"/>
<text text-anchor="middle" x="432" y="-7.5" font-family="Helvetica,sans-Serif" font-size="10.00">array</text>
</a>
</g>
</g>
<!-- Node14&#45;&gt;Node15 -->
<g id="edge16" class="edge">
<title>Node14&#45;&gt;Node15</title>
<path fill="none" stroke="midnightblue" d="M454.54,-56.08C450.85,-48.69 445.48,-37.95 440.91,-28.81"/>
<polygon fill="midnightblue" stroke="midnightblue" points="443.98,-27.13 436.38,-19.75 437.72,-30.26 443.98,-27.13"/>
</g>
<!-- Node16 -->
<g id="node16" class="node">
<title>Node16</title>
<g id="a_node16"><a xlink:title=" ">
<polygon fill="none" stroke="#bfbfbf" points="471,-0.5 471,-19.5 521,-19.5 521,-0.5 471,-0.5"/>
<text text-anchor="middle" x="496" y="-7.5" font-family="Helvetica,sans-Serif" font-size="10.00">chrono</text>
</a>
</g>
</g>
<!-- Node14&#45;&gt;Node16 -->
<g id="edge17" class="edge">
<title>Node14&#45;&gt;Node16</title>
<path fill="none" stroke="midnightblue" d="M465.11,-56.08C470.28,-48.53 477.85,-37.49 484.19,-28.23"/>
<polygon fill="midnightblue" stroke="midnightblue" points="487.24,-29.98 490,-19.75 481.46,-26.02 487.24,-29.98"/>
</g>
<!-- Node17 -->
<g id="node17" class="node">
<title>Node17</title>
<g id="a_node17"><a xlink:title=" ">
<polygon fill="none" stroke="#bfbfbf" points="539.5,-0.5 539.5,-19.5 604.5,-19.5 604.5,-0.5 539.5,-0.5"/>
<text text-anchor="middle" x="572" y="-7.5" font-family="Helvetica,sans-Serif" font-size="10.00">functional</text>
</a>
</g>
</g>
<!-- Node14&#45;&gt;Node17 -->
<g id="edge19" class="edge">
<title>Node14&#45;&gt;Node17</title>
<path fill="none" stroke="midnightblue" d="M476.91,-56.44C495.25,-47.68 524.01,-33.94 545.09,-23.86"/>
<polygon fill="midnightblue" stroke="midnightblue" points="546.67,-26.99 554.18,-19.52 543.65,-20.67 546.67,-26.99"/>
</g>
<!-- Node18 -->
<g id="node18" class="node">
<title>Node18</title>
<g id="a_node18"><a xlink:title=" ">
<polygon fill="none" stroke="#bfbfbf" points="622.5,-0.5 622.5,-19.5 675.5,-19.5 675.5,-0.5 622.5,-0.5"/>
<text text-anchor="middle" x="649" y="-7.5" font-family="Helvetica,sans-Serif" font-size="10.00">iterator</text>
</a>
</g>
</g>
<!-- Node14&#45;&gt;Node18 -->
<g id="edge21" class="edge">
<title>Node14&#45;&gt;Node18</title>
<path fill="none" stroke="midnightblue" d="M489.11,-56.44C522.53,-46.94 576.5,-31.61 612.35,-21.41"/>
<polygon fill="midnightblue" stroke="midnightblue" points="613.74,-24.66 622.41,-18.56 611.83,-17.93 613.74,-24.66"/>
</g>
<!-- Node19 -->
<g id="node19" class="node">
<title>Node19</title>
<g id="a_node19"><a xlink:title=" ">
<polygon fill="none" stroke="#bfbfbf" points="694,-0.5 694,-19.5 750,-19.5 750,-0.5 694,-0.5"/>
<text text-anchor="middle" x="722" y="-7.5" font-family="Helvetica,sans-Serif" font-size="10.00">sstream</text>
</a>
</g>
</g>
<!-- Node14&#45;&gt;Node19 -->
<g id="edge23" class="edge">
<title>Node14&#45;&gt;Node19</title>
<path fill="none" stroke="midnightblue" d="M505,-56.43C548.61,-48.17 616.18,-35.03 683.78,-20.2"/>
<polygon fill="midnightblue" stroke="midnightblue" points="684.74,-23.57 693.75,-18 683.23,-16.74 684.74,-23.57"/>
</g>
<!-- Node20 -->
<g id="node20" class="node">
<title>Node20</title>
<g id="a_node20"><a xlink:title=" ">
<polygon fill="none" stroke="#bfbfbf" points="768.5,-0.5 768.5,-19.5 841.5,-19.5 841.5,-0.5 768.5,-0.5"/>
<text text-anchor="middle" x="805" y="-7.5" font-family="Helvetica,sans-Serif" font-size="10.00">string_view</text>
</a>
</g>
</g>
<!-- Node14&#45;&gt;Node20 -->
<g id="edge24" class="edge">
<title>Node14&#45;&gt;Node20</title>
<path fill="none" stroke="midnightblue" d="M521.18,-56.49C579.75,-48.29 670.18,-35.16 758.45,-20.03"/>
<polygon fill="midnightblue" stroke="midnightblue" points="759.11,-23.47 768.37,-18.32 757.92,-16.57 759.11,-23.47"/>
</g>
<!-- Node21 -->
<g id="node21" class="node">
<title>Node21</title>
<g id="a_node21"><a xlink:title=" ">
<polygon fill="none" stroke="#bfbfbf" points="299.5,-0.5 299.5,-19.5 392.5,-19.5 392.5,-0.5 299.5,-0.5"/>
<text text-anchor="middle" x="346" y="-7.5" font-family="Helvetica,sans-Serif" font-size="10.00">unordered_map</text>
</a>
</g>
</g>
<!-- Node14&#45;&gt;Node21 -->
<g id="edge25" class="edge">
<title>Node14&#45;&gt;Node21</title>
<path fill="none" stroke="midnightblue" d="M441.09,-56.44C422.75,-47.68 393.99,-33.94 372.91,-23.86"/>
<polygon fill="midnightblue" stroke="midnightblue" points="374.35,-20.67 363.82,-19.52 371.33,-26.99 374.35,-20.67"/>
</g>
<!-- Node22&#45;&gt;Node14 -->
<g id="edge28" class="edge">
<title>Node22&#45;&gt;Node14</title>
<path fill="none" stroke="midnightblue" d="M407.7,-168.45C417.45,-160.12 431.57,-146.6 440,-132 448.36,-117.52 453.29,-99.07 456.03,-85.53"/>
<polygon fill="midnightblue" stroke="midnightblue" points="459.51,-85.97 457.84,-75.51 452.62,-84.73 459.51,-85.97"/>
</g>
<!-- Node22&#45;&gt;Node23 -->
<g id="edge29" class="edge">
<title>Node22&#45;&gt;Node23</title>
<path fill="none" stroke="midnightblue" d="M397,-168.08C397,-161.01 397,-150.86 397,-141.99"/>
<polygon fill="midnightblue" stroke="midnightblue" points="400.5,-141.75 397,-131.75 393.5,-141.75 400.5,-141.75"/>
</g>
<!-- Node23&#45;&gt;Node14 -->
<g id="edge30" class="edge">
<title>Node23&#45;&gt;Node14</title>
<path fill="none" stroke="midnightblue" d="M406.96,-112.32C416.13,-104.34 429.94,-92.31 441.03,-82.65"/>
<polygon fill="midnightblue" stroke="midnightblue" points="443.62,-85.04 448.86,-75.83 439.02,-79.76 443.62,-85.04"/>
</g>
<!-- Node24&#45;&gt;Node14 -->
<g id="edge36" class="edge">
<title>Node24&#45;&gt;Node14</title>
<path fill="none" stroke="midnightblue" d="M353.47,-224.49C345.13,-202.94 326.92,-145.5 354,-112 367.07,-95.84 387.03,-85.37 406.06,-78.64"/>
<polygon fill="midnightblue" stroke="midnightblue" points="407.16,-81.96 415.58,-75.54 404.99,-75.3 407.16,-81.96"/>
</g>
<!-- Node24&#45;&gt;Node22 -->
<g id="edge35" class="edge">
<title>Node24&#45;&gt;Node22</title>
<path fill="none" stroke="midnightblue" d="M363.61,-224.08C369.26,-216.46 377.54,-205.26 384.45,-195.94"/>
<polygon fill="midnightblue" stroke="midnightblue" points="387.38,-197.87 390.52,-187.75 381.75,-193.7 387.38,-197.87"/>
</g>
<!-- Node24&#45;&gt;Node23 -->
<g id="edge37" class="edge">
<title>Node24&#45;&gt;Node23</title>
<path fill="none" stroke="midnightblue" d="M353.64,-224.19C349.27,-211.3 343.09,-186.8 351,-168 356.03,-156.05 365.94,-145.69 375.29,-137.93"/>
<polygon fill="midnightblue" stroke="midnightblue" points="377.44,-140.69 383.21,-131.81 373.16,-135.15 377.44,-140.69"/>
</g>
<!-- Node25&#45;&gt;Node2 -->
<g id="edge42" class="edge">
<title>Node25&#45;&gt;Node2</title>
<path fill="none" stroke="midnightblue" d="M192.03,-392.44C205.66,-384.73 224.22,-372.13 235,-356 256.21,-324.26 262.91,-278.95 265.02,-253.75"/>
<polygon fill="midnightblue" stroke="midnightblue" points="268.52,-253.92 265.71,-243.7 261.54,-253.44 268.52,-253.92"/>
</g>
<!-- Node25&#45;&gt;Node4 -->
<g id="edge41" class="edge">
<title>Node25&#45;&gt;Node4</title>
<path fill="none" stroke="midnightblue" d="M190.18,-411.75C200.93,-419.64 214.83,-431.43 224.86,-441"/>
<polygon fill="midnightblue" stroke="midnightblue" points="222.39,-443.48 231.93,-448.08 227.34,-438.53 222.39,-443.48"/>
</g>
<!-- Node25&#45;&gt;Node5 -->
<g id="edge40" class="edge">
<title>Node25&#45;&gt;Node5</title>
<path fill="none" stroke="midnightblue" d="M146.61,-392.42C106.49,-378.34 38,-346.21 38,-291 38,-291 38,-291 38,-121 38,-88.95 38,-51.64 38,-29.75"/>
<polygon fill="midnightblue" stroke="midnightblue" points="41.5,-29.56 38,-19.56 34.5,-29.56 41.5,-29.56"/>
</g>
<!-- Node25&#45;&gt;Node6 -->
<g id="edge43" class="edge">
<title>Node25&#45;&gt;Node6</title>
<path fill="none" stroke="midnightblue" d="M177.48,-392.08C179.49,-384.85 182.39,-374.41 184.89,-365.4"/>
<polygon fill="midnightblue" stroke="midnightblue" points="188.26,-366.32 187.57,-355.75 181.52,-364.45 188.26,-366.32"/>
</g>
</g>
</svg>
