<?xml version="1.0" encoding="UTF-8" standalone="no"?>
<!DOCTYPE svg PUBLIC "-//W3C//DTD SVG 1.1//EN"
 "http://www.w3.org/Graphics/SVG/1.1/DTD/svg11.dtd">
<!-- Generated by graphviz version 2.43.0 (0)
 -->
<!-- Title: /home/runner/work/Simulatio/Simulatio/engine/include/Constraints/Spring.hpp Pages: 1 -->
<svg width="911pt" height="610pt"
 viewBox="0.00 0.00 910.50 610.00" xmlns="http://www.w3.org/2000/svg" xmlns:xlink="http://www.w3.org/1999/xlink">
<g id="graph0" class="graph" transform="scale(1 1) rotate(0) translate(4 606)">
<title>/home/runner/work/Simulatio/Simulatio/engine/include/Constraints/Spring.hpp</title>
<!-- Node1 -->
<g id="node1" class="node">
<title>Node1</title>
<g id="a_node1"><a xlink:title=" ">
<polygon fill="#bfbfbf" stroke="black" points="358,-560.5 358,-601.5 516,-601.5 516,-560.5 358,-560.5"/>
<text text-anchor="start" x="366" y="-589.5" font-family="Helvetica,sans-Serif" font-size="10.00">/home/runner/work/Simulatio</text>
<text text-anchor="start" x="366" y="-578.5" font-family="Helvetica,sans-Serif" font-size="10.00">/Simulatio/engine/include</text>
<text text-anchor="middle" x="437" y="-567.5" font-family="Helvetica,sans-Serif" font-size="10.00">/Constraints/Spring.hpp</text>
</a>
</g>
</g>
<!-- Node2 -->
<g id="node2" class="node">
<title>Node2</title>
<g id="a_node2"><a xlink:title=" ">
<polygon fill="none" stroke="#bfbfbf" points="232,-224.5 232,-243.5 300,-243.5 300,-224.5 232,-224.5"/>
<text text-anchor="middle" x="266" y="-231.5" font-family="Helvetica,sans-Serif" font-size="10.00">Config.hpp</text>
</a>
</g>
</g>
<!-- Node1&#45;&gt;Node2 -->
<g id="edge1" class="edge">
<title>Node1&#45;&gt;Node2</title>
<path fill="none" stroke="midnightblue" d="M439.03,-560.14C443.33,-506.52 447.16,-357.66 368,-280 352.04,-264.35 329.73,-253.66 310.03,-246.64"/>
<polygon fill="midnightblue" stroke="midnightblue" points="310.91,-243.25 300.32,-243.39 308.69,-249.88 310.91,-243.25"/>
</g>
<!-- Node3 -->
<g id="node3" class="node">
<title>Node3</title>
<g id="a_node3"><a xlink:href="_constraint_8hpp.html" target="_top" xlink:title=" ">
<polygon fill="none" stroke="black" points="336,-504.5 336,-523.5 424,-523.5 424,-504.5 336,-504.5"/>
<text text-anchor="middle" x="380" y="-511.5" font-family="Helvetica,sans-Serif" font-size="10.00">Constraint.hpp</text>
</a>
</g>
</g>
<!-- Node1&#45;&gt;Node3 -->
<g id="edge2" class="edge">
<title>Node1&#45;&gt;Node3</title>
<path fill="none" stroke="midnightblue" d="M419.9,-560.5C411.75,-551.2 402.11,-540.21 394.34,-531.36"/>
<polygon fill="midnightblue" stroke="midnightblue" points="396.81,-528.86 387.59,-523.65 391.55,-533.48 396.81,-528.86"/>
</g>
<!-- Node3&#45;&gt;Node2 -->
<g id="edge49" class="edge">
<title>Node3&#45;&gt;Node2</title>
<path fill="none" stroke="midnightblue" d="M380,-504.44C380,-485.94 380,-440.81 380,-403 380,-403 380,-403 380,-345 380,-298.11 329.45,-264.89 295.67,-247.93"/>
<polygon fill="midnightblue" stroke="midnightblue" points="297.17,-244.77 286.64,-243.58 294.13,-251.07 297.17,-244.77"/>
</g>
<!-- Node4 -->
<g id="node4" class="node">
<title>Node4</title>
<g id="a_node4"><a xlink:href="_circle_8hpp.html" target="_top" xlink:title=" ">
<polygon fill="none" stroke="black" points="198,-448.5 198,-467.5 314,-467.5 314,-448.5 198,-448.5"/>
<text text-anchor="middle" x="256" y="-455.5" font-family="Helvetica,sans-Serif" font-size="10.00">../Corpses/Circle.hpp</text>
</a>
</g>
</g>
<!-- Node3&#45;&gt;Node4 -->
<g id="edge3" class="edge">
<title>Node3&#45;&gt;Node4</title>
<path fill="none" stroke="midnightblue" d="M360.35,-504.44C340.04,-495.6 308.1,-481.69 284.9,-471.59"/>
<polygon fill="midnightblue" stroke="midnightblue" points="286.12,-468.3 275.56,-467.52 283.33,-474.72 286.12,-468.3"/>
</g>
<!-- Node6 -->
<g id="node6" class="node">
<title>Node6</title>
<g id="a_node6"><a xlink:href="_corpse_8hpp.html" target="_top" xlink:title=" ">
<polygon fill="none" stroke="black" points="154.5,-336.5 154.5,-355.5 225.5,-355.5 225.5,-336.5 154.5,-336.5"/>
<text text-anchor="middle" x="190" y="-343.5" font-family="Helvetica,sans-Serif" font-size="10.00">Corpse.hpp</text>
</a>
</g>
</g>
<!-- Node3&#45;&gt;Node6 -->
<g id="edge45" class="edge">
<title>Node3&#45;&gt;Node6</title>
<path fill="none" stroke="midnightblue" d="M373.02,-504.21C362.66,-491.34 342.33,-466.88 323,-448 295.23,-420.88 286.96,-415.4 256,-392 241.76,-381.23 225.15,-369.91 212.15,-361.32"/>
<polygon fill="midnightblue" stroke="midnightblue" points="213.7,-358.15 203.42,-355.59 209.86,-364 213.7,-358.15"/>
</g>
<!-- Node10 -->
<g id="node10" class="node">
<title>Node10</title>
<g id="a_node10"><a xlink:href="_geometry_8hpp.html" target="_top" xlink:title=" ">
<polygon fill="none" stroke="black" points="446,-280.5 446,-299.5 592,-299.5 592,-280.5 446,-280.5"/>
<text text-anchor="middle" x="519" y="-287.5" font-family="Helvetica,sans-Serif" font-size="10.00">../Geometry/Geometry.hpp</text>
</a>
</g>
</g>
<!-- Node3&#45;&gt;Node10 -->
<g id="edge47" class="edge">
<title>Node3&#45;&gt;Node10</title>
<path fill="none" stroke="midnightblue" d="M383.85,-504.2C392.91,-483.84 416.7,-432.14 442,-392 461.78,-360.62 488.82,-326.87 505.03,-307.41"/>
<polygon fill="midnightblue" stroke="midnightblue" points="507.89,-309.44 511.65,-299.54 502.54,-304.94 507.89,-309.44"/>
</g>
<!-- Node14 -->
<g id="node14" class="node">
<title>Node14</title>
<g id="a_node14"><a xlink:href="_maths_8hpp.html" target="_top" xlink:title=" ">
<polygon fill="none" stroke="black" points="410,-56.5 410,-75.5 538,-75.5 538,-56.5 410,-56.5"/>
<text text-anchor="middle" x="474" y="-63.5" font-family="Helvetica,sans-Serif" font-size="10.00">../Geometry/Maths.hpp</text>
</a>
</g>
</g>
<!-- Node3&#45;&gt;Node14 -->
<g id="edge48" class="edge">
<title>Node3&#45;&gt;Node14</title>
<path fill="none" stroke="midnightblue" d="M395.68,-504.4C446.24,-475.65 605.02,-377.11 662,-244 686.08,-187.76 670.06,-151.09 623,-112 601.8,-94.39 573.85,-83.67 547.89,-77.15"/>
<polygon fill="midnightblue" stroke="midnightblue" points="548.59,-73.72 538.06,-74.85 546.99,-80.53 548.59,-73.72"/>
</g>
<!-- Node26 -->
<g id="node26" class="node">
<title>Node26</title>
<g id="a_node26"><a xlink:href="_polygon_8hpp.html" target="_top" xlink:title=" ">
<polygon fill="none" stroke="black" points="151.5,-392.5 151.5,-411.5 228.5,-411.5 228.5,-392.5 151.5,-392.5"/>
<text text-anchor="middle" x="190" y="-399.5" font-family="Helvetica,sans-Serif" font-size="10.00">Polygon.hpp</text>
</a>
</g>
</g>
<!-- Node3&#45;&gt;Node26 -->
<g id="edge46" class="edge">
<title>Node3&#45;&gt;Node26</title>
<path fill="none" stroke="midnightblue" d="M335.9,-508.86C285.3,-503.1 206.98,-490.7 189,-468 178.73,-455.03 180.55,-435.59 183.98,-421.35"/>
<polygon fill="midnightblue" stroke="midnightblue" points="187.37,-422.25 186.75,-411.67 180.64,-420.32 187.37,-422.25"/>
</g>
<!-- Node4&#45;&gt;Node2 -->
<g id="edge5" class="edge">
<title>Node4&#45;&gt;Node2</title>
<path fill="none" stroke="midnightblue" d="M257.78,-448.17C262.78,-422.34 276.29,-344.65 272,-280 271.43,-271.34 270.23,-261.81 269.06,-253.75"/>
<polygon fill="midnightblue" stroke="midnightblue" points="272.48,-252.94 267.49,-243.59 265.56,-254.01 272.48,-252.94"/>
</g>
<!-- Node5 -->
<g id="node5" class="node">
<title>Node5</title>
<g id="a_node5"><a xlink:title=" ">
<polygon fill="none" stroke="#bfbfbf" points="10.5,-0.5 10.5,-19.5 57.5,-19.5 57.5,-0.5 10.5,-0.5"/>
<text text-anchor="middle" x="34" y="-7.5" font-family="Helvetica,sans-Serif" font-size="10.00">vector</text>
</a>
</g>
</g>
<!-- Node4&#45;&gt;Node5 -->
<g id="edge4" class="edge">
<title>Node4&#45;&gt;Node5</title>
<path fill="none" stroke="midnightblue" d="M197.91,-456.5C122.38,-452.43 0,-432.62 0,-347 0,-347 0,-347 0,-121 0,-87.16 14.87,-49.97 24.94,-28.66"/>
<polygon fill="midnightblue" stroke="midnightblue" points="28.14,-30.08 29.41,-19.56 21.86,-26.99 28.14,-30.08"/>
</g>
<!-- Node4&#45;&gt;Node6 -->
<g id="edge6" class="edge">
<title>Node4&#45;&gt;Node6</title>
<path fill="none" stroke="midnightblue" d="M255.12,-448.42C253.47,-435.4 249.03,-410.24 238,-392 230.96,-380.36 220.08,-369.81 210.46,-361.85"/>
<polygon fill="midnightblue" stroke="midnightblue" points="212.48,-358.99 202.45,-355.57 208.16,-364.5 212.48,-358.99"/>
</g>
<!-- Node4&#45;&gt;Node26 -->
<g id="edge40" class="edge">
<title>Node4&#45;&gt;Node26</title>
<path fill="none" stroke="midnightblue" d="M240.28,-448.32C228.91,-440.42 214.03,-428.55 203.26,-418.94"/>
<polygon fill="midnightblue" stroke="midnightblue" points="205.35,-416.1 195.65,-411.83 200.57,-421.22 205.35,-416.1"/>
</g>
<!-- Node6&#45;&gt;Node2 -->
<g id="edge39" class="edge">
<title>Node6&#45;&gt;Node2</title>
<path fill="none" stroke="midnightblue" d="M195.96,-336.37C208.51,-318.22 237.81,-275.8 254.26,-251.99"/>
<polygon fill="midnightblue" stroke="midnightblue" points="257.26,-253.81 260.06,-243.59 251.5,-249.83 257.26,-253.81"/>
</g>
<!-- Node6&#45;&gt;Node5 -->
<g id="edge10" class="edge">
<title>Node6&#45;&gt;Node5</title>
<path fill="none" stroke="midnightblue" d="M169.36,-336.42C136.5,-321.23 76,-286.29 76,-235 76,-235 76,-235 76,-121 76,-86.41 57.65,-49.49 45.21,-28.43"/>
<polygon fill="midnightblue" stroke="midnightblue" points="48.06,-26.38 39.84,-19.69 42.09,-30.04 48.06,-26.38"/>
</g>
<!-- Node7 -->
<g id="node7" class="node">
<title>Node7</title>
<g id="a_node7"><a xlink:title=" ">
<polygon fill="none" stroke="#bfbfbf" points="75.5,-0.5 75.5,-19.5 122.5,-19.5 122.5,-0.5 75.5,-0.5"/>
<text text-anchor="middle" x="99" y="-7.5" font-family="Helvetica,sans-Serif" font-size="10.00">cmath</text>
</a>
</g>
</g>
<!-- Node6&#45;&gt;Node7 -->
<g id="edge7" class="edge">
<title>Node6&#45;&gt;Node7</title>
<path fill="none" stroke="midnightblue" d="M178.46,-336.43C157.2,-319.57 114,-279.8 114,-235 114,-235 114,-235 114,-121 114,-88.5 107.49,-51.1 103.05,-29.34"/>
<polygon fill="midnightblue" stroke="midnightblue" points="106.46,-28.56 100.96,-19.5 99.61,-30.01 106.46,-28.56"/>
</g>
<!-- Node8 -->
<g id="node8" class="node">
<title>Node8</title>
<g id="a_node8"><a xlink:title=" ">
<polygon fill="none" stroke="#bfbfbf" points="141,-0.5 141,-19.5 201,-19.5 201,-0.5 141,-0.5"/>
<text text-anchor="middle" x="171" y="-7.5" font-family="Helvetica,sans-Serif" font-size="10.00">iostream</text>
</a>
</g>
</g>
<!-- Node6&#45;&gt;Node8 -->
<g id="edge8" class="edge">
<title>Node6&#45;&gt;Node8</title>
<path fill="none" stroke="midnightblue" d="M184.72,-336.23C174.27,-318.04 152,-274.6 152,-235 152,-235 152,-235 152,-121 152,-88.49 160.16,-51.35 165.78,-29.61"/>
<polygon fill="midnightblue" stroke="midnightblue" points="169.22,-30.32 168.44,-19.75 162.46,-28.5 169.22,-30.32"/>
</g>
<!-- Node9 -->
<g id="node9" class="node">
<title>Node9</title>
<g id="a_node9"><a xlink:title=" ">
<polygon fill="none" stroke="#bfbfbf" points="219,-0.5 219,-19.5 277,-19.5 277,-0.5 219,-0.5"/>
<text text-anchor="middle" x="248" y="-7.5" font-family="Helvetica,sans-Serif" font-size="10.00">memory</text>
</a>
</g>
</g>
<!-- Node6&#45;&gt;Node9 -->
<g id="edge9" class="edge">
<title>Node6&#45;&gt;Node9</title>
<path fill="none" stroke="midnightblue" d="M190,-336.44C190,-317.94 190,-272.81 190,-235 190,-235 190,-235 190,-121 190,-84.16 215.77,-47.57 232.95,-27.25"/>
<polygon fill="midnightblue" stroke="midnightblue" points="235.71,-29.41 239.69,-19.59 230.46,-24.79 235.71,-29.41"/>
</g>
<!-- Node6&#45;&gt;Node10 -->
<g id="edge11" class="edge">
<title>Node6&#45;&gt;Node10</title>
<path fill="none" stroke="midnightblue" d="M225.52,-339.17C280.92,-330.08 388.6,-312.4 456.99,-301.18"/>
<polygon fill="midnightblue" stroke="midnightblue" points="457.9,-304.57 467.2,-299.5 456.77,-297.67 457.9,-304.57"/>
</g>
<!-- Node10&#45;&gt;Node2 -->
<g id="edge32" class="edge">
<title>Node10&#45;&gt;Node2</title>
<path fill="none" stroke="midnightblue" d="M478.91,-280.44C432.96,-270.64 357.87,-254.61 310.24,-244.44"/>
<polygon fill="midnightblue" stroke="midnightblue" points="310.73,-240.97 300.22,-242.3 309.27,-247.81 310.73,-240.97"/>
</g>
<!-- Node11 -->
<g id="node11" class="node">
<title>Node11</title>
<g id="a_node11"><a xlink:href="_recorder_8hpp.html" target="_top" xlink:title=" ">
<polygon fill="none" stroke="black" points="490,-224.5 490,-243.5 638,-243.5 638,-224.5 490,-224.5"/>
<text text-anchor="middle" x="564" y="-231.5" font-family="Helvetica,sans-Serif" font-size="10.00">../Benchmark/Recorder.hpp</text>
</a>
</g>
</g>
<!-- Node10&#45;&gt;Node11 -->
<g id="edge12" class="edge">
<title>Node10&#45;&gt;Node11</title>
<path fill="none" stroke="midnightblue" d="M526.43,-280.08C532.85,-272.38 542.31,-261.03 550.12,-251.65"/>
<polygon fill="midnightblue" stroke="midnightblue" points="552.99,-253.67 556.71,-243.75 547.62,-249.19 552.99,-253.67"/>
</g>
<!-- Node10&#45;&gt;Node14 -->
<g id="edge33" class="edge">
<title>Node10&#45;&gt;Node14</title>
<path fill="none" stroke="midnightblue" d="M589.17,-280.46C611.32,-274.07 633.52,-263.03 647,-244 652.14,-236.75 648.72,-232.72 647,-224 636.58,-171.21 639.98,-149.1 601,-112 583.59,-95.42 559.68,-84.9 537.31,-78.25"/>
<polygon fill="midnightblue" stroke="midnightblue" points="538.07,-74.83 527.5,-75.54 536.21,-81.57 538.07,-74.83"/>
</g>
<!-- Node23 -->
<g id="node23" class="node">
<title>Node23</title>
<g id="a_node23"><a xlink:href="_bounds_8hpp.html" target="_top" xlink:title=" ">
<polygon fill="none" stroke="black" points="422,-168.5 422,-187.5 496,-187.5 496,-168.5 422,-168.5"/>
<text text-anchor="middle" x="459" y="-175.5" font-family="Helvetica,sans-Serif" font-size="10.00">Bounds.hpp</text>
</a>
</g>
</g>
<!-- Node10&#45;&gt;Node23 -->
<g id="edge28" class="edge">
<title>Node10&#45;&gt;Node23</title>
<path fill="none" stroke="midnightblue" d="M510.05,-280.45C501.55,-271.91 488.94,-258.07 481,-244 472.77,-229.41 466.94,-211.24 463.36,-197.82"/>
<polygon fill="midnightblue" stroke="midnightblue" points="466.69,-196.71 460.88,-187.85 459.9,-198.4 466.69,-196.71"/>
</g>
<!-- Node24 -->
<g id="node24" class="node">
<title>Node24</title>
<g id="a_node24"><a xlink:href="_vector_8hpp.html" target="_top" xlink:title=" ">
<polygon fill="none" stroke="black" points="365,-112.5 365,-131.5 433,-131.5 433,-112.5 365,-112.5"/>
<text text-anchor="middle" x="399" y="-119.5" font-family="Helvetica,sans-Serif" font-size="10.00">Vector.hpp</text>
</a>
</g>
</g>
<!-- Node10&#45;&gt;Node24 -->
<g id="edge34" class="edge">
<title>Node10&#45;&gt;Node24</title>
<path fill="none" stroke="midnightblue" d="M455.39,-280.45C412.46,-273.22 361.31,-261.26 348,-244 322.62,-211.07 359.29,-163.65 382.48,-139.09"/>
<polygon fill="midnightblue" stroke="midnightblue" points="385.22,-141.29 389.71,-131.7 380.22,-136.4 385.22,-141.29"/>
</g>
<!-- Node25 -->
<g id="node25" class="node">
<title>Node25</title>
<g id="a_node25"><a xlink:href="_vertices_8hpp.html" target="_top" xlink:title=" ">
<polygon fill="none" stroke="black" points="356.5,-224.5 356.5,-243.5 433.5,-243.5 433.5,-224.5 356.5,-224.5"/>
<text text-anchor="middle" x="395" y="-231.5" font-family="Helvetica,sans-Serif" font-size="10.00">Vertices.hpp</text>
</a>
</g>
</g>
<!-- Node10&#45;&gt;Node25 -->
<g id="edge35" class="edge">
<title>Node10&#45;&gt;Node25</title>
<path fill="none" stroke="midnightblue" d="M499.35,-280.44C479.04,-271.6 447.1,-257.69 423.9,-247.59"/>
<polygon fill="midnightblue" stroke="midnightblue" points="425.12,-244.3 414.56,-243.52 422.33,-250.72 425.12,-244.3"/>
</g>
<!-- Node12 -->
<g id="node12" class="node">
<title>Node12</title>
<g id="a_node12"><a xlink:href="_performance_8hpp.html" target="_top" xlink:title=" ">
<polygon fill="none" stroke="black" points="514,-168.5 514,-187.5 614,-187.5 614,-168.5 514,-168.5"/>
<text text-anchor="middle" x="564" y="-175.5" font-family="Helvetica,sans-Serif" font-size="10.00">Performance.hpp</text>
</a>
</g>
</g>
<!-- Node11&#45;&gt;Node12 -->
<g id="edge13" class="edge">
<title>Node11&#45;&gt;Node12</title>
<path fill="none" stroke="midnightblue" d="M564,-224.08C564,-217.01 564,-206.86 564,-197.99"/>
<polygon fill="midnightblue" stroke="midnightblue" points="567.5,-197.75 564,-187.75 560.5,-197.75 567.5,-197.75"/>
</g>
<!-- Node13 -->
<g id="node13" class="node">
<title>Node13</title>
<g id="a_node13"><a xlink:href="_block_data_8hpp.html" target="_top" xlink:title=" ">
<polygon fill="none" stroke="black" points="504,-112.5 504,-131.5 592,-131.5 592,-112.5 504,-112.5"/>
<text text-anchor="middle" x="548" y="-119.5" font-family="Helvetica,sans-Serif" font-size="10.00">BlockData.hpp</text>
</a>
</g>
</g>
<!-- Node12&#45;&gt;Node13 -->
<g id="edge14" class="edge">
<title>Node12&#45;&gt;Node13</title>
<path fill="none" stroke="midnightblue" d="M561.36,-168.08C559.21,-160.85 556.12,-150.41 553.45,-141.4"/>
<polygon fill="midnightblue" stroke="midnightblue" points="556.79,-140.34 550.59,-131.75 550.08,-142.33 556.79,-140.34"/>
</g>
<!-- Node13&#45;&gt;Node14 -->
<g id="edge15" class="edge">
<title>Node13&#45;&gt;Node14</title>
<path fill="none" stroke="midnightblue" d="M536.11,-112.32C524.85,-104.11 507.71,-91.6 494.29,-81.81"/>
<polygon fill="midnightblue" stroke="midnightblue" points="496.25,-78.9 486.11,-75.83 492.12,-84.56 496.25,-78.9"/>
</g>
<!-- Node14&#45;&gt;Node5 -->
<g id="edge27" class="edge">
<title>Node14&#45;&gt;Node5</title>
<path fill="none" stroke="midnightblue" d="M409.91,-61.2C331.19,-55.8 193.53,-44.01 67.49,-20.02"/>
<polygon fill="midnightblue" stroke="midnightblue" points="68.14,-16.58 57.66,-18.12 66.82,-23.46 68.14,-16.58"/>
</g>
<!-- Node14&#45;&gt;Node7 -->
<g id="edge18" class="edge">
<title>Node14&#45;&gt;Node7</title>
<path fill="none" stroke="midnightblue" d="M409.91,-59.18C343.03,-52.53 235,-40.12 132.59,-19.86"/>
<polygon fill="midnightblue" stroke="midnightblue" points="133.19,-16.41 122.7,-17.88 131.82,-23.28 133.19,-16.41"/>
</g>
<!-- Node14&#45;&gt;Node8 -->
<g id="edge21" class="edge">
<title>Node14&#45;&gt;Node8</title>
<path fill="none" stroke="midnightblue" d="M418.46,-56.49C367.11,-48.41 288.46,-35.48 211.11,-20.13"/>
<polygon fill="midnightblue" stroke="midnightblue" points="211.69,-16.68 201.2,-18.15 210.32,-23.54 211.69,-16.68"/>
</g>
<!-- Node14&#45;&gt;Node9 -->
<g id="edge23" class="edge">
<title>Node14&#45;&gt;Node9</title>
<path fill="none" stroke="midnightblue" d="M438.19,-56.44C397.03,-46.61 329.68,-30.52 287.16,-20.36"/>
<polygon fill="midnightblue" stroke="midnightblue" points="287.71,-16.89 277.17,-17.97 286.09,-23.7 287.71,-16.89"/>
</g>
<!-- Node15 -->
<g id="node15" class="node">
<title>Node15</title>
<g id="a_node15"><a xlink:title=" ">
<polygon fill="none" stroke="#bfbfbf" points="644,-0.5 644,-19.5 686,-19.5 686,-0.5 644,-0.5"/>
<text text-anchor="middle" x="665" y="-7.5" font-family="Helvetica,sans-Serif" font-size="10.00">array</text>
</a>
</g>
</g>
<!-- Node14&#45;&gt;Node15 -->
<g id="edge16" class="edge">
<title>Node14&#45;&gt;Node15</title>
<path fill="none" stroke="midnightblue" d="M505.22,-56.46C535.72,-48.08 583.72,-34.78 633.97,-20.26"/>
<polygon fill="midnightblue" stroke="midnightblue" points="635.08,-23.59 643.71,-17.44 633.13,-16.86 635.08,-23.59"/>
</g>
<!-- Node16 -->
<g id="node16" class="node">
<title>Node16</title>
<g id="a_node16"><a xlink:title=" ">
<polygon fill="none" stroke="#bfbfbf" points="704,-0.5 704,-19.5 754,-19.5 754,-0.5 704,-0.5"/>
<text text-anchor="middle" x="729" y="-7.5" font-family="Helvetica,sans-Serif" font-size="10.00">chrono</text>
</a>
</g>
</g>
<!-- Node14&#45;&gt;Node16 -->
<g id="edge17" class="edge">
<title>Node14&#45;&gt;Node16</title>
<path fill="none" stroke="midnightblue" d="M519.88,-56.46C562.51,-48.35 627.98,-35.43 693.67,-20.21"/>
<polygon fill="midnightblue" stroke="midnightblue" points="694.85,-23.53 703.79,-17.85 693.26,-16.71 694.85,-23.53"/>
</g>
<!-- Node17 -->
<g id="node17" class="node">
<title>Node17</title>
<g id="a_node17"><a xlink:title=" ">
<polygon fill="none" stroke="#bfbfbf" points="772.5,-0.5 772.5,-19.5 819.5,-19.5 819.5,-0.5 772.5,-0.5"/>
<text text-anchor="middle" x="796" y="-7.5" font-family="Helvetica,sans-Serif" font-size="10.00">deque</text>
</a>
</g>
</g>
<!-- Node14&#45;&gt;Node17 -->
<g id="edge19" class="edge">
<title>Node14&#45;&gt;Node17</title>
<path fill="none" stroke="midnightblue" d="M538.08,-57.11C594.66,-49.68 679.51,-37.36 762.44,-19.91"/>
<polygon fill="midnightblue" stroke="midnightblue" points="763.23,-23.32 772.28,-17.81 761.77,-16.47 763.23,-23.32"/>
</g>
<!-- Node18 -->
<g id="node18" class="node">
<title>Node18</title>
<g id="a_node18"><a xlink:title=" ">
<polygon fill="none" stroke="#bfbfbf" points="837.5,-0.5 837.5,-19.5 902.5,-19.5 902.5,-0.5 837.5,-0.5"/>
<text text-anchor="middle" x="870" y="-7.5" font-family="Helvetica,sans-Serif" font-size="10.00">functional</text>
</a>
</g>
</g>
<!-- Node14&#45;&gt;Node18 -->
<g id="edge20" class="edge">
<title>Node14&#45;&gt;Node18</title>
<path fill="none" stroke="midnightblue" d="M538.07,-58.63C607.2,-51.37 720.71,-38.3 827.41,-20.15"/>
<polygon fill="midnightblue" stroke="midnightblue" points="828.12,-23.58 837.38,-18.44 826.93,-16.68 828.12,-23.58"/>
</g>
<!-- Node19 -->
<g id="node19" class="node">
<title>Node19</title>
<g id="a_node19"><a xlink:title=" ">
<polygon fill="none" stroke="#bfbfbf" points="295.5,-0.5 295.5,-19.5 348.5,-19.5 348.5,-0.5 295.5,-0.5"/>
<text text-anchor="middle" x="322" y="-7.5" font-family="Helvetica,sans-Serif" font-size="10.00">iterator</text>
</a>
</g>
</g>
<!-- Node14&#45;&gt;Node19 -->
<g id="edge22" class="edge">
<title>Node14&#45;&gt;Node19</title>
<path fill="none" stroke="midnightblue" d="M449.92,-56.44C424.46,-47.4 384.11,-33.06 355.54,-22.92"/>
<polygon fill="midnightblue" stroke="midnightblue" points="356.57,-19.57 345.97,-19.52 354.22,-26.16 356.57,-19.57"/>
</g>
<!-- Node20 -->
<g id="node20" class="node">
<title>Node20</title>
<g id="a_node20"><a xlink:title=" ">
<polygon fill="none" stroke="#bfbfbf" points="367,-0.5 367,-19.5 423,-19.5 423,-0.5 367,-0.5"/>
<text text-anchor="middle" x="395" y="-7.5" font-family="Helvetica,sans-Serif" font-size="10.00">sstream</text>
</a>
</g>
</g>
<!-- Node14&#45;&gt;Node20 -->
<g id="edge24" class="edge">
<title>Node14&#45;&gt;Node20</title>
<path fill="none" stroke="midnightblue" d="M461.31,-56.32C449.1,-47.98 430.42,-35.21 416,-25.35"/>
<polygon fill="midnightblue" stroke="midnightblue" points="417.89,-22.41 407.66,-19.65 413.94,-28.19 417.89,-22.41"/>
</g>
<!-- Node21 -->
<g id="node21" class="node">
<title>Node21</title>
<g id="a_node21"><a xlink:title=" ">
<polygon fill="none" stroke="#bfbfbf" points="441.5,-0.5 441.5,-19.5 514.5,-19.5 514.5,-0.5 441.5,-0.5"/>
<text text-anchor="middle" x="478" y="-7.5" font-family="Helvetica,sans-Serif" font-size="10.00">string_view</text>
</a>
</g>
</g>
<!-- Node14&#45;&gt;Node21 -->
<g id="edge25" class="edge">
<title>Node14&#45;&gt;Node21</title>
<path fill="none" stroke="midnightblue" d="M474.66,-56.08C475.18,-49.01 475.94,-38.86 476.59,-29.99"/>
<polygon fill="midnightblue" stroke="midnightblue" points="480.1,-29.98 477.35,-19.75 473.12,-29.47 480.1,-29.98"/>
</g>
<!-- Node22 -->
<g id="node22" class="node">
<title>Node22</title>
<g id="a_node22"><a xlink:title=" ">
<polygon fill="none" stroke="#bfbfbf" points="532.5,-0.5 532.5,-19.5 625.5,-19.5 625.5,-0.5 532.5,-0.5"/>
<text text-anchor="middle" x="579" y="-7.5" font-family="Helvetica,sans-Serif" font-size="10.00">unordered_map</text>
</a>
</g>
</g>
<!-- Node14&#45;&gt;Node22 -->
<g id="edge26" class="edge">
<title>Node14&#45;&gt;Node22</title>
<path fill="none" stroke="midnightblue" d="M490.87,-56.32C507.71,-47.66 533.81,-34.24 553.24,-24.25"/>
<polygon fill="midnightblue" stroke="midnightblue" points="554.88,-27.34 562.17,-19.65 551.68,-21.12 554.88,-27.34"/>
</g>
<!-- Node23&#45;&gt;Node14 -->
<g id="edge29" class="edge">
<title>Node23&#45;&gt;Node14</title>
<path fill="none" stroke="midnightblue" d="M460.18,-168.37C462.6,-150.62 468.18,-109.67 471.46,-85.6"/>
<polygon fill="midnightblue" stroke="midnightblue" points="474.95,-85.97 472.83,-75.59 468.01,-85.03 474.95,-85.97"/>
</g>
<!-- Node23&#45;&gt;Node24 -->
<g id="edge30" class="edge">
<title>Node23&#45;&gt;Node24</title>
<path fill="none" stroke="midnightblue" d="M449.36,-168.32C440.49,-160.34 427.13,-148.31 416.39,-138.65"/>
<polygon fill="midnightblue" stroke="midnightblue" points="418.59,-135.92 408.82,-131.83 413.91,-141.13 418.59,-135.92"/>
</g>
<!-- Node24&#45;&gt;Node14 -->
<g id="edge31" class="edge">
<title>Node24&#45;&gt;Node14</title>
<path fill="none" stroke="midnightblue" d="M411.05,-112.32C422.46,-104.11 439.83,-91.6 453.43,-81.81"/>
<polygon fill="midnightblue" stroke="midnightblue" points="455.66,-84.52 461.73,-75.83 451.57,-78.84 455.66,-84.52"/>
</g>
<!-- Node25&#45;&gt;Node14 -->
<g id="edge37" class="edge">
<title>Node25&#45;&gt;Node14</title>
<path fill="none" stroke="midnightblue" d="M387.41,-224.33C370,-203.36 330.58,-148.9 356,-112 367.23,-95.7 385.21,-85.3 403.78,-78.67"/>
<polygon fill="midnightblue" stroke="midnightblue" points="405.07,-81.93 413.52,-75.53 402.93,-75.27 405.07,-81.93"/>
</g>
<!-- Node25&#45;&gt;Node23 -->
<g id="edge36" class="edge">
<title>Node25&#45;&gt;Node23</title>
<path fill="none" stroke="midnightblue" d="M405.28,-224.32C414.84,-216.26 429.28,-204.08 440.78,-194.37"/>
<polygon fill="midnightblue" stroke="midnightblue" points="443.14,-196.96 448.53,-187.83 438.63,-191.61 443.14,-196.96"/>
</g>
<!-- Node25&#45;&gt;Node24 -->
<g id="edge38" class="edge">
<title>Node25&#45;&gt;Node24</title>
<path fill="none" stroke="midnightblue" d="M395.31,-224.37C395.96,-206.62 397.45,-165.67 398.32,-141.6"/>
<polygon fill="midnightblue" stroke="midnightblue" points="401.82,-141.71 398.69,-131.59 394.83,-141.46 401.82,-141.71"/>
</g>
<!-- Node26&#45;&gt;Node2 -->
<g id="edge43" class="edge">
<title>Node26&#45;&gt;Node2</title>
<path fill="none" stroke="midnightblue" d="M201.73,-392.3C212,-384.06 226.57,-370.78 235,-356 253.73,-323.15 261.33,-278.91 264.27,-254.04"/>
<polygon fill="midnightblue" stroke="midnightblue" points="267.78,-254.11 265.34,-243.8 260.82,-253.38 267.78,-254.11"/>
</g>
<!-- Node26&#45;&gt;Node4 -->
<g id="edge42" class="edge">
<title>Node26&#45;&gt;Node4</title>
<path fill="none" stroke="midnightblue" d="M205.57,-411.57C217.03,-419.53 232.11,-431.56 242.94,-441.24"/>
<polygon fill="midnightblue" stroke="midnightblue" points="240.57,-443.82 250.27,-448.08 245.35,-438.7 240.57,-443.82"/>
</g>
<!-- Node26&#45;&gt;Node5 -->
<g id="edge41" class="edge">
<title>Node26&#45;&gt;Node5</title>
<path fill="none" stroke="midnightblue" d="M155.13,-392.4C110.25,-379 38,-348.49 38,-291 38,-291 38,-291 38,-121 38,-88.93 36.28,-51.63 35.1,-29.74"/>
<polygon fill="midnightblue" stroke="midnightblue" points="38.58,-29.34 34.52,-19.55 31.59,-29.73 38.58,-29.34"/>
</g>
<!-- Node26&#45;&gt;Node6 -->
<g id="edge44" class="edge">
<title>Node26&#45;&gt;Node6</title>
<path fill="none" stroke="midnightblue" d="M190,-392.08C190,-385.01 190,-374.86 190,-365.99"/>
<polygon fill="midnightblue" stroke="midnightblue" points="193.5,-365.75 190,-355.75 186.5,-365.75 193.5,-365.75"/>
</g>
</g>
</svg>
