<?xml version="1.0" encoding="UTF-8" standalone="no"?>
<!DOCTYPE svg PUBLIC "-//W3C//DTD SVG 1.1//EN"
 "http://www.w3.org/Graphics/SVG/1.1/DTD/svg11.dtd">
<!-- Generated by graphviz version 2.43.0 (0)
 -->
<!-- Title: /home/runner/work/Simulatio/Simulatio/include/Geometry/String.hpp Pages: 1 -->
<svg width="871pt" height="362pt"
 viewBox="0.00 0.00 870.50 362.00" xmlns="http://www.w3.org/2000/svg" xmlns:xlink="http://www.w3.org/1999/xlink">
<g id="graph0" class="graph" transform="scale(1 1) rotate(0) translate(4 358)">
<title>/home/runner/work/Simulatio/Simulatio/include/Geometry/String.hpp</title>
<!-- Node1 -->
<g id="node1" class="node">
<title>Node1</title>
<g id="a_node1"><a xlink:title=" ">
<polygon fill="#bfbfbf" stroke="black" points="405,-312.5 405,-353.5 563,-353.5 563,-312.5 405,-312.5"/>
<text text-anchor="start" x="413" y="-341.5" font-family="Helvetica,sans-Serif" font-size="10.00">/home/runner/work/Simulatio</text>
<text text-anchor="start" x="413" y="-330.5" font-family="Helvetica,sans-Serif" font-size="10.00">/Simulatio/include/Geometry</text>
<text text-anchor="middle" x="484" y="-319.5" font-family="Helvetica,sans-Serif" font-size="10.00">/String.hpp</text>
</a>
</g>
</g>
<!-- Node2 -->
<g id="node2" class="node">
<title>Node2</title>
<g id="a_node2"><a xlink:href="_renderer_8hpp.html" target="_top" xlink:title=" ">
<polygon fill="none" stroke="black" points="352,-78.5 352,-119.5 510,-119.5 510,-78.5 352,-78.5"/>
<text text-anchor="start" x="360" y="-107.5" font-family="Helvetica,sans-Serif" font-size="10.00">/home/runner/work/Simulatio</text>
<text text-anchor="start" x="360" y="-96.5" font-family="Helvetica,sans-Serif" font-size="10.00">/Simulatio/include/Renderer</text>
<text text-anchor="middle" x="431" y="-85.5" font-family="Helvetica,sans-Serif" font-size="10.00">/Renderer.hpp</text>
</a>
</g>
</g>
<!-- Node1&#45;&gt;Node2 -->
<g id="edge1" class="edge">
<title>Node1&#45;&gt;Node2</title>
<path fill="none" stroke="midnightblue" d="M463.63,-303.86C458.35,-295.29 453.25,-285.59 450,-276 431.56,-221.57 429.92,-152.75 430.38,-119.6"/>
<polygon fill="midnightblue" stroke="midnightblue" points="460.74,-305.84 469.12,-312.32 466.61,-302.03 460.74,-305.84"/>
</g>
<!-- Node8 -->
<g id="node8" class="node">
<title>Node8</title>
<g id="a_node8"><a xlink:href="_quadtree_8hpp.html" target="_top" xlink:title=" ">
<polygon fill="none" stroke="black" points="459,-234.5 459,-275.5 617,-275.5 617,-234.5 459,-234.5"/>
<text text-anchor="start" x="467" y="-263.5" font-family="Helvetica,sans-Serif" font-size="10.00">/home/runner/work/Simulatio</text>
<text text-anchor="start" x="467" y="-252.5" font-family="Helvetica,sans-Serif" font-size="10.00">/Simulatio/include/Structures</text>
<text text-anchor="middle" x="538" y="-241.5" font-family="Helvetica,sans-Serif" font-size="10.00">/Quadtree.hpp</text>
</a>
</g>
</g>
<!-- Node1&#45;&gt;Node8 -->
<g id="edge7" class="edge">
<title>Node1&#45;&gt;Node8</title>
<path fill="none" stroke="midnightblue" d="M503.86,-304.05C510.6,-294.57 517.97,-284.18 524.14,-275.51"/>
<polygon fill="midnightblue" stroke="midnightblue" points="500.85,-302.25 497.91,-312.43 506.55,-306.3 500.85,-302.25"/>
</g>
<!-- Node3 -->
<g id="node3" class="node">
<title>Node3</title>
<g id="a_node3"><a xlink:href="_draw_8cpp.html" target="_top" xlink:title=" ">
<polygon fill="none" stroke="black" points="0,-0.5 0,-41.5 158,-41.5 158,-0.5 0,-0.5"/>
<text text-anchor="start" x="8" y="-29.5" font-family="Helvetica,sans-Serif" font-size="10.00">/home/runner/work/Simulatio</text>
<text text-anchor="start" x="8" y="-18.5" font-family="Helvetica,sans-Serif" font-size="10.00">/Simulatio/src/Renderer</text>
<text text-anchor="middle" x="79" y="-7.5" font-family="Helvetica,sans-Serif" font-size="10.00">/Draw.cpp</text>
</a>
</g>
</g>
<!-- Node2&#45;&gt;Node3 -->
<g id="edge2" class="edge">
<title>Node2&#45;&gt;Node3</title>
<path fill="none" stroke="midnightblue" d="M341.76,-79.41C290.58,-68.66 225.13,-54.77 167,-42 164.09,-41.36 161.13,-40.71 158.14,-40.04"/>
<polygon fill="midnightblue" stroke="midnightblue" points="341.3,-82.88 351.8,-81.51 342.74,-76.03 341.3,-82.88"/>
</g>
<!-- Node4 -->
<g id="node4" class="node">
<title>Node4</title>
<g id="a_node4"><a xlink:href="_event_8cpp.html" target="_top" xlink:title=" ">
<polygon fill="none" stroke="black" points="176,-0.5 176,-41.5 334,-41.5 334,-0.5 176,-0.5"/>
<text text-anchor="start" x="184" y="-29.5" font-family="Helvetica,sans-Serif" font-size="10.00">/home/runner/work/Simulatio</text>
<text text-anchor="start" x="184" y="-18.5" font-family="Helvetica,sans-Serif" font-size="10.00">/Simulatio/src/Renderer</text>
<text text-anchor="middle" x="255" y="-7.5" font-family="Helvetica,sans-Serif" font-size="10.00">/Event.cpp</text>
</a>
</g>
</g>
<!-- Node2&#45;&gt;Node4 -->
<g id="edge3" class="edge">
<title>Node2&#45;&gt;Node4</title>
<path fill="none" stroke="midnightblue" d="M376.18,-74.33C351.76,-63.78 323.35,-51.51 300.17,-41.51"/>
<polygon fill="midnightblue" stroke="midnightblue" points="375.11,-77.68 385.68,-78.43 377.88,-71.25 375.11,-77.68"/>
</g>
<!-- Node5 -->
<g id="node5" class="node">
<title>Node5</title>
<g id="a_node5"><a xlink:href="_gui_8cpp.html" target="_top" xlink:title=" ">
<polygon fill="none" stroke="black" points="352,-0.5 352,-41.5 510,-41.5 510,-0.5 352,-0.5"/>
<text text-anchor="start" x="360" y="-29.5" font-family="Helvetica,sans-Serif" font-size="10.00">/home/runner/work/Simulatio</text>
<text text-anchor="start" x="360" y="-18.5" font-family="Helvetica,sans-Serif" font-size="10.00">/Simulatio/src/Renderer</text>
<text text-anchor="middle" x="431" y="-7.5" font-family="Helvetica,sans-Serif" font-size="10.00">/Gui.cpp</text>
</a>
</g>
</g>
<!-- Node2&#45;&gt;Node5 -->
<g id="edge4" class="edge">
<title>Node2&#45;&gt;Node5</title>
<path fill="none" stroke="midnightblue" d="M431,-68.3C431,-59.3 431,-49.65 431,-41.51"/>
<polygon fill="midnightblue" stroke="midnightblue" points="427.5,-68.43 431,-78.43 434.5,-68.43 427.5,-68.43"/>
</g>
<!-- Node6 -->
<g id="node6" class="node">
<title>Node6</title>
<g id="a_node6"><a xlink:href="_renderer_8cpp.html" target="_top" xlink:title=" ">
<polygon fill="none" stroke="black" points="528,-0.5 528,-41.5 686,-41.5 686,-0.5 528,-0.5"/>
<text text-anchor="start" x="536" y="-29.5" font-family="Helvetica,sans-Serif" font-size="10.00">/home/runner/work/Simulatio</text>
<text text-anchor="start" x="536" y="-18.5" font-family="Helvetica,sans-Serif" font-size="10.00">/Simulatio/src/Renderer</text>
<text text-anchor="middle" x="607" y="-7.5" font-family="Helvetica,sans-Serif" font-size="10.00">/Renderer.cpp</text>
</a>
</g>
</g>
<!-- Node2&#45;&gt;Node6 -->
<g id="edge5" class="edge">
<title>Node2&#45;&gt;Node6</title>
<path fill="none" stroke="midnightblue" d="M485.82,-74.33C510.24,-63.78 538.65,-51.51 561.83,-41.51"/>
<polygon fill="midnightblue" stroke="midnightblue" points="484.12,-71.25 476.32,-78.43 486.89,-77.68 484.12,-71.25"/>
</g>
<!-- Node7 -->
<g id="node7" class="node">
<title>Node7</title>
<g id="a_node7"><a xlink:href="main_8cpp.html" target="_top" xlink:title=" ">
<polygon fill="none" stroke="black" points="703.5,-6 703.5,-36 862.5,-36 862.5,-6 703.5,-6"/>
<text text-anchor="start" x="711.5" y="-24" font-family="Helvetica,sans-Serif" font-size="10.00">/home/runner/work/Simulatio</text>
<text text-anchor="middle" x="783" y="-13" font-family="Helvetica,sans-Serif" font-size="10.00">/Simulatio/src/main/main.cpp</text>
</a>
</g>
</g>
<!-- Node2&#45;&gt;Node7 -->
<g id="edge6" class="edge">
<title>Node2&#45;&gt;Node7</title>
<path fill="none" stroke="midnightblue" d="M520.02,-77.8C598.69,-60.95 620,-58.19 695,-42 703.73,-40.12 712.93,-38.08 721.97,-36.05"/>
<polygon fill="midnightblue" stroke="midnightblue" points="519.18,-74.4 510.14,-79.93 520.65,-81.25 519.18,-74.4"/>
</g>
<!-- Node9 -->
<g id="node9" class="node">
<title>Node9</title>
<g id="a_node9"><a xlink:href="_system_8hpp.html" target="_top" xlink:title=" ">
<polygon fill="none" stroke="black" points="459,-156.5 459,-197.5 617,-197.5 617,-156.5 459,-156.5"/>
<text text-anchor="start" x="467" y="-185.5" font-family="Helvetica,sans-Serif" font-size="10.00">/home/runner/work/Simulatio</text>
<text text-anchor="start" x="467" y="-174.5" font-family="Helvetica,sans-Serif" font-size="10.00">/Simulatio/include/Structures</text>
<text text-anchor="middle" x="538" y="-163.5" font-family="Helvetica,sans-Serif" font-size="10.00">/System.hpp</text>
</a>
</g>
</g>
<!-- Node8&#45;&gt;Node9 -->
<g id="edge8" class="edge">
<title>Node8&#45;&gt;Node9</title>
<path fill="none" stroke="midnightblue" d="M538,-224.3C538,-215.3 538,-205.65 538,-197.51"/>
<polygon fill="midnightblue" stroke="midnightblue" points="534.5,-224.43 538,-234.43 541.5,-224.43 534.5,-224.43"/>
</g>
<!-- Node9&#45;&gt;Node2 -->
<g id="edge9" class="edge">
<title>Node9&#45;&gt;Node2</title>
<path fill="none" stroke="midnightblue" d="M502.29,-150.64C488,-140.49 471.8,-128.98 458.46,-119.51"/>
<polygon fill="midnightblue" stroke="midnightblue" points="500.27,-153.49 510.44,-156.43 504.32,-147.78 500.27,-153.49"/>
</g>
<!-- Node10 -->
<g id="node10" class="node">
<title>Node10</title>
<g id="a_node10"><a xlink:href="_system_8cpp.html" target="_top" xlink:title=" ">
<polygon fill="none" stroke="black" points="528,-78.5 528,-119.5 686,-119.5 686,-78.5 528,-78.5"/>
<text text-anchor="start" x="536" y="-107.5" font-family="Helvetica,sans-Serif" font-size="10.00">/home/runner/work/Simulatio</text>
<text text-anchor="start" x="536" y="-96.5" font-family="Helvetica,sans-Serif" font-size="10.00">/Simulatio/src/Structures</text>
<text text-anchor="middle" x="607" y="-85.5" font-family="Helvetica,sans-Serif" font-size="10.00">/System.cpp</text>
</a>
</g>
</g>
<!-- Node9&#45;&gt;Node10 -->
<g id="edge10" class="edge">
<title>Node9&#45;&gt;Node10</title>
<path fill="none" stroke="midnightblue" d="M562.59,-148.92C571.41,-139.2 581.17,-128.45 589.29,-119.51"/>
<polygon fill="midnightblue" stroke="midnightblue" points="559.9,-146.67 555.77,-156.43 565.08,-151.38 559.9,-146.67"/>
</g>
</g>
</svg>
