<?xml version="1.0" encoding="UTF-8" standalone="no"?>
<!DOCTYPE svg PUBLIC "-//W3C//DTD SVG 1.1//EN"
 "http://www.w3.org/Graphics/SVG/1.1/DTD/svg11.dtd">
<!-- Generated by graphviz version 2.43.0 (0)
 -->
<!-- Title: /home/runner/work/Simulatio/Simulatio/engine/include/Geometry/String.hpp Pages: 1 -->
<svg width="991pt" height="284pt"
 viewBox="0.00 0.00 991.00 284.00" xmlns="http://www.w3.org/2000/svg" xmlns:xlink="http://www.w3.org/1999/xlink">
<g id="graph0" class="graph" transform="scale(1 1) rotate(0) translate(4 280)">
<title>/home/runner/work/Simulatio/Simulatio/engine/include/Geometry/String.hpp</title>
<!-- Node1 -->
<g id="node1" class="node">
<title>Node1</title>
<g id="a_node1"><a xlink:title=" ">
<polygon fill="#bfbfbf" stroke="black" points="190,-234.5 190,-275.5 348,-275.5 348,-234.5 190,-234.5"/>
<text text-anchor="start" x="198" y="-263.5" font-family="Helvetica,sans-Serif" font-size="10.00">/home/runner/work/Simulatio</text>
<text text-anchor="start" x="198" y="-252.5" font-family="Helvetica,sans-Serif" font-size="10.00">/Simulatio/engine/include</text>
<text text-anchor="middle" x="269" y="-241.5" font-family="Helvetica,sans-Serif" font-size="10.00">/Geometry/String.hpp</text>
</a>
</g>
</g>
<!-- Node2 -->
<g id="node2" class="node">
<title>Node2</title>
<g id="a_node2"><a xlink:href="_quadtree_8hpp.html" target="_top" xlink:title=" ">
<polygon fill="none" stroke="black" points="83,-156.5 83,-197.5 241,-197.5 241,-156.5 83,-156.5"/>
<text text-anchor="start" x="91" y="-185.5" font-family="Helvetica,sans-Serif" font-size="10.00">/home/runner/work/Simulatio</text>
<text text-anchor="start" x="91" y="-174.5" font-family="Helvetica,sans-Serif" font-size="10.00">/Simulatio/engine/include</text>
<text text-anchor="middle" x="162" y="-163.5" font-family="Helvetica,sans-Serif" font-size="10.00">/Structures/Quadtree.hpp</text>
</a>
</g>
</g>
<!-- Node1&#45;&gt;Node2 -->
<g id="edge1" class="edge">
<title>Node1&#45;&gt;Node2</title>
<path fill="none" stroke="midnightblue" d="M233.29,-228.64C219,-218.49 202.8,-206.98 189.46,-197.51"/>
<polygon fill="midnightblue" stroke="midnightblue" points="231.27,-231.49 241.44,-234.43 235.32,-225.78 231.27,-231.49"/>
</g>
<!-- Node5 -->
<g id="node5" class="node">
<title>Node5</title>
<g id="a_node5"><a xlink:href="engine_2src_2main_2main_8cpp.html" target="_top" xlink:title=" ">
<polygon fill="none" stroke="black" points="190,-0.5 190,-41.5 348,-41.5 348,-0.5 190,-0.5"/>
<text text-anchor="start" x="198" y="-29.5" font-family="Helvetica,sans-Serif" font-size="10.00">/home/runner/work/Simulatio</text>
<text text-anchor="start" x="198" y="-18.5" font-family="Helvetica,sans-Serif" font-size="10.00">/Simulatio/engine/src/main</text>
<text text-anchor="middle" x="269" y="-7.5" font-family="Helvetica,sans-Serif" font-size="10.00">/main.cpp</text>
</a>
</g>
</g>
<!-- Node1&#45;&gt;Node5 -->
<g id="edge5" class="edge">
<title>Node1&#45;&gt;Node5</title>
<path fill="none" stroke="midnightblue" d="M269,-224.11C269,-175.94 269,-82.44 269,-41.73"/>
<polygon fill="midnightblue" stroke="midnightblue" points="265.5,-224.22 269,-234.22 272.5,-224.22 265.5,-224.22"/>
</g>
<!-- Node6 -->
<g id="node6" class="node">
<title>Node6</title>
<g id="a_node6"><a xlink:href="test_8hpp.html" target="_top" xlink:title=" ">
<polygon fill="none" stroke="black" points="473,-156.5 473,-197.5 631,-197.5 631,-156.5 473,-156.5"/>
<text text-anchor="start" x="481" y="-185.5" font-family="Helvetica,sans-Serif" font-size="10.00">/home/runner/work/Simulatio</text>
<text text-anchor="start" x="481" y="-174.5" font-family="Helvetica,sans-Serif" font-size="10.00">/Simulatio/engine/tests</text>
<text text-anchor="middle" x="552" y="-163.5" font-family="Helvetica,sans-Serif" font-size="10.00">/test.hpp</text>
</a>
</g>
</g>
<!-- Node1&#45;&gt;Node6 -->
<g id="edge6" class="edge">
<title>Node1&#45;&gt;Node6</title>
<path fill="none" stroke="midnightblue" d="M351.71,-231.79C392.15,-220.93 440.37,-207.98 479.37,-197.51"/>
<polygon fill="midnightblue" stroke="midnightblue" points="350.63,-228.45 341.88,-234.43 352.45,-235.21 350.63,-228.45"/>
</g>
<!-- Node3 -->
<g id="node3" class="node">
<title>Node3</title>
<g id="a_node3"><a xlink:href="_system_8hpp.html" target="_top" xlink:title=" ">
<polygon fill="none" stroke="black" points="83,-78.5 83,-119.5 241,-119.5 241,-78.5 83,-78.5"/>
<text text-anchor="start" x="91" y="-107.5" font-family="Helvetica,sans-Serif" font-size="10.00">/home/runner/work/Simulatio</text>
<text text-anchor="start" x="91" y="-96.5" font-family="Helvetica,sans-Serif" font-size="10.00">/Simulatio/engine/include</text>
<text text-anchor="middle" x="162" y="-85.5" font-family="Helvetica,sans-Serif" font-size="10.00">/Structures/System.hpp</text>
</a>
</g>
</g>
<!-- Node2&#45;&gt;Node3 -->
<g id="edge2" class="edge">
<title>Node2&#45;&gt;Node3</title>
<path fill="none" stroke="midnightblue" d="M162,-146.3C162,-137.3 162,-127.65 162,-119.51"/>
<polygon fill="midnightblue" stroke="midnightblue" points="158.5,-146.43 162,-156.43 165.5,-146.43 158.5,-146.43"/>
</g>
<!-- Node4 -->
<g id="node4" class="node">
<title>Node4</title>
<g id="a_node4"><a xlink:href="_system_8cpp.html" target="_top" xlink:title=" ">
<polygon fill="none" stroke="black" points="0,-0.5 0,-41.5 172,-41.5 172,-0.5 0,-0.5"/>
<text text-anchor="start" x="8" y="-29.5" font-family="Helvetica,sans-Serif" font-size="10.00">/home/runner/work/Simulatio</text>
<text text-anchor="start" x="8" y="-18.5" font-family="Helvetica,sans-Serif" font-size="10.00">/Simulatio/engine/src/Structures</text>
<text text-anchor="middle" x="86" y="-7.5" font-family="Helvetica,sans-Serif" font-size="10.00">/System.cpp</text>
</a>
</g>
</g>
<!-- Node3&#45;&gt;Node4 -->
<g id="edge3" class="edge">
<title>Node3&#45;&gt;Node4</title>
<path fill="none" stroke="midnightblue" d="M135.2,-71.2C125.42,-61.42 114.54,-50.54 105.51,-41.51"/>
<polygon fill="midnightblue" stroke="midnightblue" points="132.88,-73.83 142.43,-78.43 137.83,-68.88 132.88,-73.83"/>
</g>
<!-- Node3&#45;&gt;Node5 -->
<g id="edge4" class="edge">
<title>Node3&#45;&gt;Node5</title>
<path fill="none" stroke="midnightblue" d="M197.71,-72.64C212,-62.49 228.2,-50.98 241.54,-41.51"/>
<polygon fill="midnightblue" stroke="midnightblue" points="195.68,-69.78 189.56,-78.43 199.73,-75.49 195.68,-69.78"/>
</g>
<!-- Node7 -->
<g id="node7" class="node">
<title>Node7</title>
<g id="a_node7"><a xlink:href="tests_2_bounds_8cpp.html" target="_top" xlink:title=" ">
<polygon fill="none" stroke="black" points="297,-78.5 297,-119.5 455,-119.5 455,-78.5 297,-78.5"/>
<text text-anchor="start" x="305" y="-107.5" font-family="Helvetica,sans-Serif" font-size="10.00">/home/runner/work/Simulatio</text>
<text text-anchor="start" x="305" y="-96.5" font-family="Helvetica,sans-Serif" font-size="10.00">/Simulatio/engine/tests</text>
<text text-anchor="middle" x="376" y="-85.5" font-family="Helvetica,sans-Serif" font-size="10.00">/bounds.cpp</text>
</a>
</g>
</g>
<!-- Node6&#45;&gt;Node7 -->
<g id="edge7" class="edge">
<title>Node6&#45;&gt;Node7</title>
<path fill="none" stroke="midnightblue" d="M497.18,-152.33C472.76,-141.78 444.35,-129.51 421.17,-119.51"/>
<polygon fill="midnightblue" stroke="midnightblue" points="496.11,-155.68 506.68,-156.43 498.88,-149.25 496.11,-155.68"/>
</g>
<!-- Node8 -->
<g id="node8" class="node">
<title>Node8</title>
<g id="a_node8"><a xlink:href="tests_2_maths_8cpp.html" target="_top" xlink:title=" ">
<polygon fill="none" stroke="black" points="473,-78.5 473,-119.5 631,-119.5 631,-78.5 473,-78.5"/>
<text text-anchor="start" x="481" y="-107.5" font-family="Helvetica,sans-Serif" font-size="10.00">/home/runner/work/Simulatio</text>
<text text-anchor="start" x="481" y="-96.5" font-family="Helvetica,sans-Serif" font-size="10.00">/Simulatio/engine/tests</text>
<text text-anchor="middle" x="552" y="-85.5" font-family="Helvetica,sans-Serif" font-size="10.00">/maths.cpp</text>
</a>
</g>
</g>
<!-- Node6&#45;&gt;Node8 -->
<g id="edge8" class="edge">
<title>Node6&#45;&gt;Node8</title>
<path fill="none" stroke="midnightblue" d="M552,-146.3C552,-137.3 552,-127.65 552,-119.51"/>
<polygon fill="midnightblue" stroke="midnightblue" points="548.5,-146.43 552,-156.43 555.5,-146.43 548.5,-146.43"/>
</g>
<!-- Node9 -->
<g id="node9" class="node">
<title>Node9</title>
<g id="a_node9"><a xlink:href="tests_2_vector_8cpp.html" target="_top" xlink:title=" ">
<polygon fill="none" stroke="black" points="649,-78.5 649,-119.5 807,-119.5 807,-78.5 649,-78.5"/>
<text text-anchor="start" x="657" y="-107.5" font-family="Helvetica,sans-Serif" font-size="10.00">/home/runner/work/Simulatio</text>
<text text-anchor="start" x="657" y="-96.5" font-family="Helvetica,sans-Serif" font-size="10.00">/Simulatio/engine/tests</text>
<text text-anchor="middle" x="728" y="-85.5" font-family="Helvetica,sans-Serif" font-size="10.00">/vector.cpp</text>
</a>
</g>
</g>
<!-- Node6&#45;&gt;Node9 -->
<g id="edge9" class="edge">
<title>Node6&#45;&gt;Node9</title>
<path fill="none" stroke="midnightblue" d="M606.82,-152.33C631.24,-141.78 659.65,-129.51 682.83,-119.51"/>
<polygon fill="midnightblue" stroke="midnightblue" points="605.12,-149.25 597.32,-156.43 607.89,-155.68 605.12,-149.25"/>
</g>
<!-- Node10 -->
<g id="node10" class="node">
<title>Node10</title>
<g id="a_node10"><a xlink:href="tests_2_vertices_8cpp.html" target="_top" xlink:title=" ">
<polygon fill="none" stroke="black" points="825,-78.5 825,-119.5 983,-119.5 983,-78.5 825,-78.5"/>
<text text-anchor="start" x="833" y="-107.5" font-family="Helvetica,sans-Serif" font-size="10.00">/home/runner/work/Simulatio</text>
<text text-anchor="start" x="833" y="-96.5" font-family="Helvetica,sans-Serif" font-size="10.00">/Simulatio/engine/tests</text>
<text text-anchor="middle" x="904" y="-85.5" font-family="Helvetica,sans-Serif" font-size="10.00">/vertices.cpp</text>
</a>
</g>
</g>
<!-- Node6&#45;&gt;Node10 -->
<g id="edge10" class="edge">
<title>Node6&#45;&gt;Node10</title>
<path fill="none" stroke="midnightblue" d="M641.24,-157.41C692.42,-146.66 757.87,-132.77 816,-120 818.91,-119.36 821.87,-118.71 824.86,-118.04"/>
<polygon fill="midnightblue" stroke="midnightblue" points="640.26,-154.03 631.2,-159.51 641.7,-160.88 640.26,-154.03"/>
</g>
</g>
</svg>
