<?xml version="1.0" encoding="UTF-8" standalone="no"?>
<!DOCTYPE svg PUBLIC "-//W3C//DTD SVG 1.1//EN"
 "http://www.w3.org/Graphics/SVG/1.1/DTD/svg11.dtd">
<!-- Generated by graphviz version 2.43.0 (0)
 -->
<!-- Title: /home/runner/work/Simulatio/Simulatio/src/Structures/System.cpp Pages: 1 -->
<svg width="1504pt" height="733pt"
 viewBox="0.00 0.00 1504.05 733.00" xmlns="http://www.w3.org/2000/svg" xmlns:xlink="http://www.w3.org/1999/xlink">
<g id="graph0" class="graph" transform="scale(1 1) rotate(0) translate(4 729)">
<title>/home/runner/work/Simulatio/Simulatio/src/Structures/System.cpp</title>
<!-- Node1 -->
<g id="node1" class="node">
<title>Node1</title>
<g id="a_node1"><a xlink:title=" ">
<polygon fill="#bfbfbf" stroke="black" points="465.05,-683.5 465.05,-724.5 623.05,-724.5 623.05,-683.5 465.05,-683.5"/>
<text text-anchor="start" x="473.05" y="-712.5" font-family="Helvetica,sans-Serif" font-size="10.00">/home/runner/work/Simulatio</text>
<text text-anchor="start" x="473.05" y="-701.5" font-family="Helvetica,sans-Serif" font-size="10.00">/Simulatio/src/Structures</text>
<text text-anchor="middle" x="544.05" y="-690.5" font-family="Helvetica,sans-Serif" font-size="10.00">/System.cpp</text>
</a>
</g>
</g>
<!-- Node2 -->
<g id="node2" class="node">
<title>Node2</title>
<g id="a_node2"><a xlink:href="_system_8hpp.html" target="_top" xlink:title=" ">
<polygon fill="none" stroke="black" points="483.05,-616.5 483.05,-646.5 605.05,-646.5 605.05,-616.5 483.05,-616.5"/>
<text text-anchor="start" x="491.05" y="-634.5" font-family="Helvetica,sans-Serif" font-size="10.00">../../include/Structures</text>
<text text-anchor="middle" x="544.05" y="-623.5" font-family="Helvetica,sans-Serif" font-size="10.00">/System.hpp</text>
</a>
</g>
</g>
<!-- Node1&#45;&gt;Node2 -->
<g id="edge1" class="edge">
<title>Node1&#45;&gt;Node2</title>
<path fill="none" stroke="midnightblue" d="M544.05,-683.36C544.05,-675.23 544.05,-665.7 544.05,-657.11"/>
<polygon fill="midnightblue" stroke="midnightblue" points="547.55,-656.89 544.05,-646.89 540.55,-656.89 547.55,-656.89"/>
</g>
<!-- Node3 -->
<g id="node3" class="node">
<title>Node3</title>
<g id="a_node3"><a xlink:href="_constraint_8hpp.html" target="_top" xlink:title=" ">
<polygon fill="none" stroke="black" points="199.55,-504.5 199.55,-523.5 354.55,-523.5 354.55,-504.5 199.55,-504.5"/>
<text text-anchor="middle" x="277.05" y="-511.5" font-family="Helvetica,sans-Serif" font-size="10.00">../Constraints/Constraint.hpp</text>
</a>
</g>
</g>
<!-- Node2&#45;&gt;Node3 -->
<g id="edge2" class="edge">
<title>Node2&#45;&gt;Node3</title>
<path fill="none" stroke="midnightblue" d="M482.62,-621.71C443.58,-614.38 392.89,-601.56 352.05,-580 328.13,-567.38 305.35,-545.8 291.3,-531"/>
<polygon fill="midnightblue" stroke="midnightblue" points="293.8,-528.54 284.45,-523.57 288.66,-533.29 293.8,-528.54"/>
</g>
<!-- Node4 -->
<g id="node4" class="node">
<title>Node4</title>
<g id="a_node4"><a xlink:href="_circle_8hpp.html" target="_top" xlink:title=" ">
<polygon fill="none" stroke="black" points="502.05,-448.5 502.05,-467.5 618.05,-467.5 618.05,-448.5 502.05,-448.5"/>
<text text-anchor="middle" x="560.05" y="-455.5" font-family="Helvetica,sans-Serif" font-size="10.00">../Corpses/Circle.hpp</text>
</a>
</g>
</g>
<!-- Node2&#45;&gt;Node4 -->
<g id="edge58" class="edge">
<title>Node2&#45;&gt;Node4</title>
<path fill="none" stroke="midnightblue" d="M545.36,-616.47C548.23,-585.7 555.07,-512.33 558.3,-477.7"/>
<polygon fill="midnightblue" stroke="midnightblue" points="561.8,-477.84 559.25,-467.56 554.83,-477.19 561.8,-477.84"/>
</g>
<!-- Node6 -->
<g id="node6" class="node">
<title>Node6</title>
<g id="a_node6"><a xlink:title=" ">
<polygon fill="none" stroke="#bfbfbf" points="223.05,-224.5 223.05,-243.5 291.05,-243.5 291.05,-224.5 223.05,-224.5"/>
<text text-anchor="middle" x="257.05" y="-231.5" font-family="Helvetica,sans-Serif" font-size="10.00">Config.hpp</text>
</a>
</g>
</g>
<!-- Node2&#45;&gt;Node6 -->
<g id="edge71" class="edge">
<title>Node2&#45;&gt;Node6</title>
<path fill="none" stroke="midnightblue" d="M482.89,-628.42C352.28,-623.42 55.08,-608.99 20.05,-580 -3.14,-560.81 1.05,-545.1 1.05,-515 1.05,-515 1.05,-515 1.05,-345 1.05,-254.06 139.12,-237.36 212.46,-234.91"/>
<polygon fill="midnightblue" stroke="midnightblue" points="212.88,-238.4 222.79,-234.65 212.7,-231.4 212.88,-238.4"/>
</g>
<!-- Node7 -->
<g id="node7" class="node">
<title>Node7</title>
<g id="a_node7"><a xlink:href="_corpse_8hpp.html" target="_top" xlink:title=" ">
<polygon fill="none" stroke="black" points="558.55,-336.5 558.55,-355.5 629.55,-355.5 629.55,-336.5 558.55,-336.5"/>
<text text-anchor="middle" x="594.05" y="-343.5" font-family="Helvetica,sans-Serif" font-size="10.00">Corpse.hpp</text>
</a>
</g>
</g>
<!-- Node2&#45;&gt;Node7 -->
<g id="edge59" class="edge">
<title>Node2&#45;&gt;Node7</title>
<path fill="none" stroke="midnightblue" d="M537.73,-616.46C521.4,-579.37 480.02,-479.46 493.05,-448 508.85,-409.84 546.84,-378.59 571.46,-361.4"/>
<polygon fill="midnightblue" stroke="midnightblue" points="573.54,-364.22 579.86,-355.72 569.61,-358.42 573.54,-364.22"/>
</g>
<!-- Node11 -->
<g id="node11" class="node">
<title>Node11</title>
<g id="a_node11"><a xlink:href="_geometry_8hpp.html" target="_top" xlink:title=" ">
<polygon fill="none" stroke="black" points="661.05,-280.5 661.05,-299.5 807.05,-299.5 807.05,-280.5 661.05,-280.5"/>
<text text-anchor="middle" x="734.05" y="-287.5" font-family="Helvetica,sans-Serif" font-size="10.00">../Geometry/Geometry.hpp</text>
</a>
</g>
</g>
<!-- Node2&#45;&gt;Node11 -->
<g id="edge69" class="edge">
<title>Node2&#45;&gt;Node11</title>
<path fill="none" stroke="midnightblue" d="M605.26,-629.13C738.76,-625.53 1046.76,-613.63 1079.05,-580 1194.11,-460.17 880.08,-340.04 770.33,-302.76"/>
<polygon fill="midnightblue" stroke="midnightblue" points="771.26,-299.39 760.67,-299.52 769.03,-306.02 771.26,-299.39"/>
</g>
<!-- Node15 -->
<g id="node15" class="node">
<title>Node15</title>
<g id="a_node15"><a xlink:href="_maths_8hpp.html" target="_top" xlink:title=" ">
<polygon fill="none" stroke="black" points="866.05,-56.5 866.05,-75.5 994.05,-75.5 994.05,-56.5 866.05,-56.5"/>
<text text-anchor="middle" x="930.05" y="-63.5" font-family="Helvetica,sans-Serif" font-size="10.00">../Geometry/Maths.hpp</text>
</a>
</g>
</g>
<!-- Node2&#45;&gt;Node15 -->
<g id="edge70" class="edge">
<title>Node2&#45;&gt;Node15</title>
<path fill="none" stroke="midnightblue" d="M605.05,-629.54C815.16,-625.42 1496.05,-605.11 1496.05,-515 1496.05,-515 1496.05,-515 1496.05,-177 1496.05,-77.98 1158.05,-66.31 1004.44,-66.12"/>
<polygon fill="midnightblue" stroke="midnightblue" points="1004.15,-62.62 994.15,-66.12 1004.15,-69.62 1004.15,-62.62"/>
</g>
<!-- Node26 -->
<g id="node26" class="node">
<title>Node26</title>
<g id="a_node26"><a xlink:href="_polygon_8hpp.html" target="_top" xlink:title=" ">
<polygon fill="none" stroke="black" points="572.55,-392.5 572.55,-411.5 649.55,-411.5 649.55,-392.5 572.55,-392.5"/>
<text text-anchor="middle" x="611.05" y="-399.5" font-family="Helvetica,sans-Serif" font-size="10.00">Polygon.hpp</text>
</a>
</g>
</g>
<!-- Node2&#45;&gt;Node26 -->
<g id="edge60" class="edge">
<title>Node2&#45;&gt;Node26</title>
<path fill="none" stroke="midnightblue" d="M554.35,-616.2C573.25,-588.97 612.82,-527.14 627.05,-468 630.87,-452.13 625.68,-434.11 620.22,-421.07"/>
<polygon fill="midnightblue" stroke="midnightblue" points="623.32,-419.44 615.95,-411.82 616.96,-422.37 623.32,-419.44"/>
</g>
<!-- Node27 -->
<g id="node27" class="node">
<title>Node27</title>
<g id="a_node27"><a xlink:href="_link_8hpp.html" target="_top" xlink:title=" ">
<polygon fill="none" stroke="black" points="29.55,-560.5 29.55,-579.5 154.55,-579.5 154.55,-560.5 29.55,-560.5"/>
<text text-anchor="middle" x="92.05" y="-567.5" font-family="Helvetica,sans-Serif" font-size="10.00">../Constraints/Link.hpp</text>
</a>
</g>
</g>
<!-- Node2&#45;&gt;Node27 -->
<g id="edge49" class="edge">
<title>Node2&#45;&gt;Node27</title>
<path fill="none" stroke="midnightblue" d="M482.62,-622.41C399.88,-611.52 252.86,-592.17 164.72,-580.57"/>
<polygon fill="midnightblue" stroke="midnightblue" points="165.17,-577.1 154.8,-579.26 164.25,-584.04 165.17,-577.1"/>
</g>
<!-- Node28 -->
<g id="node28" class="node">
<title>Node28</title>
<g id="a_node28"><a xlink:href="_slider_8hpp.html" target="_top" xlink:title=" ">
<polygon fill="none" stroke="black" points="173.05,-560.5 173.05,-579.5 305.05,-579.5 305.05,-560.5 173.05,-560.5"/>
<text text-anchor="middle" x="239.05" y="-567.5" font-family="Helvetica,sans-Serif" font-size="10.00">../Constraints/Slider.hpp</text>
</a>
</g>
</g>
<!-- Node2&#45;&gt;Node28 -->
<g id="edge52" class="edge">
<title>Node2&#45;&gt;Node28</title>
<path fill="none" stroke="midnightblue" d="M482.69,-618.53C427.13,-607.69 346.07,-591.88 292.95,-581.51"/>
<polygon fill="midnightblue" stroke="midnightblue" points="293.52,-578.06 283.04,-579.58 292.18,-584.93 293.52,-578.06"/>
</g>
<!-- Node29 -->
<g id="node29" class="node">
<title>Node29</title>
<g id="a_node29"><a xlink:href="_spring_8hpp.html" target="_top" xlink:title=" ">
<polygon fill="none" stroke="black" points="361.05,-560.5 361.05,-579.5 497.05,-579.5 497.05,-560.5 361.05,-560.5"/>
<text text-anchor="middle" x="429.05" y="-567.5" font-family="Helvetica,sans-Serif" font-size="10.00">../Constraints/Spring.hpp</text>
</a>
</g>
</g>
<!-- Node2&#45;&gt;Node29 -->
<g id="edge55" class="edge">
<title>Node2&#45;&gt;Node29</title>
<path fill="none" stroke="midnightblue" d="M516.79,-616.4C498.02,-606.68 473.22,-593.86 454.78,-584.31"/>
<polygon fill="midnightblue" stroke="midnightblue" points="456.27,-581.14 445.78,-579.66 453.05,-587.36 456.27,-581.14"/>
</g>
<!-- Node30 -->
<g id="node30" class="node">
<title>Node30</title>
<g id="a_node30"><a xlink:href="_collision_8hpp.html" target="_top" xlink:title=" ">
<polygon fill="none" stroke="black" points="758.05,-504.5 758.05,-523.5 898.05,-523.5 898.05,-504.5 758.05,-504.5"/>
<text text-anchor="middle" x="828.05" y="-511.5" font-family="Helvetica,sans-Serif" font-size="10.00">../Geometry/Collision.hpp</text>
</a>
</g>
</g>
<!-- Node2&#45;&gt;Node30 -->
<g id="edge61" class="edge">
<title>Node2&#45;&gt;Node30</title>
<path fill="none" stroke="midnightblue" d="M578.59,-616.45C634.55,-593.69 744.15,-549.12 797.47,-527.44"/>
<polygon fill="midnightblue" stroke="midnightblue" points="799.1,-530.55 807.04,-523.54 796.46,-524.07 799.1,-530.55"/>
</g>
<!-- Node31 -->
<g id="node31" class="node">
<title>Node31</title>
<g id="a_node31"><a xlink:href="_quadtree_8hpp.html" target="_top" xlink:title=" ">
<polygon fill="none" stroke="black" points="986.55,-560.5 986.55,-579.5 1069.55,-579.5 1069.55,-560.5 986.55,-560.5"/>
<text text-anchor="middle" x="1028.05" y="-567.5" font-family="Helvetica,sans-Serif" font-size="10.00">QuadTree.hpp</text>
</a>
</g>
</g>
<!-- Node2&#45;&gt;Node31 -->
<g id="edge72" class="edge">
<title>Node2&#45;&gt;Node31</title>
<path fill="none" stroke="midnightblue" d="M605.35,-622.96C701.6,-611.13 886.48,-588.4 976.4,-577.35"/>
<polygon fill="midnightblue" stroke="midnightblue" points="976.86,-580.82 986.36,-576.12 976.01,-573.87 976.86,-580.82"/>
</g>
<!-- Node3&#45;&gt;Node4 -->
<g id="edge3" class="edge">
<title>Node3&#45;&gt;Node4</title>
<path fill="none" stroke="midnightblue" d="M321.89,-504.44C371.67,-494.94 452.03,-479.61 505.44,-469.42"/>
<polygon fill="midnightblue" stroke="midnightblue" points="506.25,-472.83 515.41,-467.52 504.94,-465.95 506.25,-472.83"/>
</g>
<!-- Node3&#45;&gt;Node6 -->
<g id="edge48" class="edge">
<title>Node3&#45;&gt;Node6</title>
<path fill="none" stroke="midnightblue" d="M268.74,-504.41C252.7,-486.89 219.05,-445.1 219.05,-403 219.05,-403 219.05,-403 219.05,-345 219.05,-310.81 235.65,-273.76 246.9,-252.57"/>
<polygon fill="midnightblue" stroke="midnightblue" points="249.99,-254.22 251.76,-243.77 243.87,-250.83 249.99,-254.22"/>
</g>
<!-- Node3&#45;&gt;Node7 -->
<g id="edge44" class="edge">
<title>Node3&#45;&gt;Node7</title>
<path fill="none" stroke="midnightblue" d="M284.61,-504.5C304.7,-482.43 362,-422.93 422.05,-392 462.13,-371.35 512.47,-359.62 548.32,-353.34"/>
<polygon fill="midnightblue" stroke="midnightblue" points="549.2,-356.75 558.48,-351.64 548.04,-349.84 549.2,-356.75"/>
</g>
<!-- Node3&#45;&gt;Node11 -->
<g id="edge46" class="edge">
<title>Node3&#45;&gt;Node11</title>
<path fill="none" stroke="midnightblue" d="M281.3,-504.4C288.01,-491.35 301.93,-466.16 318.05,-448 344.26,-418.46 352.53,-411.19 387.05,-392 477.14,-341.93 594.49,-314.53 667.02,-301.32"/>
<polygon fill="midnightblue" stroke="midnightblue" points="667.72,-304.75 676.95,-299.55 666.49,-297.86 667.72,-304.75"/>
</g>
<!-- Node3&#45;&gt;Node15 -->
<g id="edge47" class="edge">
<title>Node3&#45;&gt;Node15</title>
<path fill="none" stroke="midnightblue" d="M261.19,-504.44C233.93,-488.43 181.05,-451.16 181.05,-403 181.05,-403 181.05,-403 181.05,-177 181.05,-109.29 666.43,-79.31 855.72,-70.19"/>
<polygon fill="midnightblue" stroke="midnightblue" points="856.04,-73.68 865.86,-69.71 855.71,-66.69 856.04,-73.68"/>
</g>
<!-- Node3&#45;&gt;Node26 -->
<g id="edge45" class="edge">
<title>Node3&#45;&gt;Node26</title>
<path fill="none" stroke="midnightblue" d="M302.98,-504.46C362.17,-484.97 507.33,-437.16 575.1,-414.84"/>
<polygon fill="midnightblue" stroke="midnightblue" points="576.5,-418.06 584.9,-411.61 574.31,-411.41 576.5,-418.06"/>
</g>
<!-- Node5 -->
<g id="node5" class="node">
<title>Node5</title>
<g id="a_node5"><a xlink:title=" ">
<polygon fill="none" stroke="#bfbfbf" points="424.55,-0.5 424.55,-19.5 471.55,-19.5 471.55,-0.5 424.55,-0.5"/>
<text text-anchor="middle" x="448.05" y="-7.5" font-family="Helvetica,sans-Serif" font-size="10.00">vector</text>
</a>
</g>
</g>
<!-- Node4&#45;&gt;Node5 -->
<g id="edge4" class="edge">
<title>Node4&#45;&gt;Node5</title>
<path fill="none" stroke="midnightblue" d="M543.51,-448.48C496.59,-423.01 366.05,-342.49 366.05,-235 366.05,-235 366.05,-235 366.05,-121 366.05,-80.27 402.63,-44.87 426.93,-25.86"/>
<polygon fill="midnightblue" stroke="midnightblue" points="429.35,-28.42 435.23,-19.61 425.14,-22.82 429.35,-28.42"/>
</g>
<!-- Node4&#45;&gt;Node6 -->
<g id="edge5" class="edge">
<title>Node4&#45;&gt;Node6</title>
<path fill="none" stroke="midnightblue" d="M534.17,-448.45C493.36,-434.08 412.95,-402.05 357.05,-356 319,-324.66 284.79,-277.19 267.99,-252.04"/>
<polygon fill="midnightblue" stroke="midnightblue" points="270.85,-250.01 262.44,-243.57 265,-253.85 270.85,-250.01"/>
</g>
<!-- Node4&#45;&gt;Node7 -->
<g id="edge6" class="edge">
<title>Node4&#45;&gt;Node7</title>
<path fill="none" stroke="midnightblue" d="M559.18,-448.31C558.21,-435.59 557.55,-411.29 564.05,-392 567.52,-381.67 574.01,-371.46 580.07,-363.39"/>
<polygon fill="midnightblue" stroke="midnightblue" points="582.81,-365.56 586.31,-355.55 577.34,-361.2 582.81,-365.56"/>
</g>
<!-- Node4&#45;&gt;Node26 -->
<g id="edge39" class="edge">
<title>Node4&#45;&gt;Node26</title>
<path fill="none" stroke="midnightblue" d="M563.3,-448.08C569.19,-440.06 580.15,-428.1 590.22,-418.51"/>
<polygon fill="midnightblue" stroke="midnightblue" points="592.61,-421.07 597.65,-411.75 587.9,-415.89 592.61,-421.07"/>
</g>
<!-- Node7&#45;&gt;Node5 -->
<g id="edge10" class="edge">
<title>Node7&#45;&gt;Node5</title>
<path fill="none" stroke="midnightblue" d="M582.28,-336.39C553.15,-314 480.05,-250.67 480.05,-179 480.05,-179 480.05,-179 480.05,-121 480.05,-87.33 466.05,-50.08 456.57,-28.72"/>
<polygon fill="midnightblue" stroke="midnightblue" points="459.73,-27.21 452.36,-19.59 453.37,-30.14 459.73,-27.21"/>
</g>
<!-- Node7&#45;&gt;Node6 -->
<g id="edge38" class="edge">
<title>Node7&#45;&gt;Node6</title>
<path fill="none" stroke="midnightblue" d="M572.57,-336.42C539.61,-323.41 474.45,-298.26 418.05,-280 378.68,-267.25 333.23,-254.75 300.68,-246.17"/>
<polygon fill="midnightblue" stroke="midnightblue" points="301.15,-242.67 290.59,-243.52 299.37,-249.44 301.15,-242.67"/>
</g>
<!-- Node8 -->
<g id="node8" class="node">
<title>Node8</title>
<g id="a_node8"><a xlink:title=" ">
<polygon fill="none" stroke="#bfbfbf" points="494.55,-0.5 494.55,-19.5 541.55,-19.5 541.55,-0.5 494.55,-0.5"/>
<text text-anchor="middle" x="518.05" y="-7.5" font-family="Helvetica,sans-Serif" font-size="10.00">cmath</text>
</a>
</g>
</g>
<!-- Node7&#45;&gt;Node8 -->
<g id="edge7" class="edge">
<title>Node7&#45;&gt;Node8</title>
<path fill="none" stroke="midnightblue" d="M586.76,-336.29C567.74,-312.65 518.05,-244.61 518.05,-179 518.05,-179 518.05,-179 518.05,-121 518.05,-88.95 518.05,-51.64 518.05,-29.75"/>
<polygon fill="midnightblue" stroke="midnightblue" points="521.55,-29.56 518.05,-19.56 514.55,-29.56 521.55,-29.56"/>
</g>
<!-- Node9 -->
<g id="node9" class="node">
<title>Node9</title>
<g id="a_node9"><a xlink:title=" ">
<polygon fill="none" stroke="#bfbfbf" points="560.05,-0.5 560.05,-19.5 620.05,-19.5 620.05,-0.5 560.05,-0.5"/>
<text text-anchor="middle" x="590.05" y="-7.5" font-family="Helvetica,sans-Serif" font-size="10.00">iostream</text>
</a>
</g>
</g>
<!-- Node7&#45;&gt;Node9 -->
<g id="edge8" class="edge">
<title>Node7&#45;&gt;Node9</title>
<path fill="none" stroke="midnightblue" d="M590.54,-336.17C581.13,-311.65 556.05,-240.5 556.05,-179 556.05,-179 556.05,-179 556.05,-121 556.05,-87.16 570.92,-49.97 580.99,-28.66"/>
<polygon fill="midnightblue" stroke="midnightblue" points="584.19,-30.08 585.46,-19.56 577.91,-26.99 584.19,-30.08"/>
</g>
<!-- Node10 -->
<g id="node10" class="node">
<title>Node10</title>
<g id="a_node10"><a xlink:title=" ">
<polygon fill="none" stroke="#bfbfbf" points="638.05,-0.5 638.05,-19.5 696.05,-19.5 696.05,-0.5 638.05,-0.5"/>
<text text-anchor="middle" x="667.05" y="-7.5" font-family="Helvetica,sans-Serif" font-size="10.00">memory</text>
</a>
</g>
</g>
<!-- Node7&#45;&gt;Node10 -->
<g id="edge9" class="edge">
<title>Node7&#45;&gt;Node10</title>
<path fill="none" stroke="midnightblue" d="M594.05,-336.36C594.05,-311.76 594.05,-239.23 594.05,-179 594.05,-179 594.05,-179 594.05,-121 594.05,-81.78 626.67,-45.84 648.3,-26.32"/>
<polygon fill="midnightblue" stroke="midnightblue" points="650.7,-28.87 655.96,-19.67 646.11,-23.58 650.7,-28.87"/>
</g>
<!-- Node7&#45;&gt;Node11 -->
<g id="edge11" class="edge">
<title>Node7&#45;&gt;Node11</title>
<path fill="none" stroke="midnightblue" d="M616.23,-336.44C639.48,-327.48 676.2,-313.31 702.46,-303.18"/>
<polygon fill="midnightblue" stroke="midnightblue" points="703.9,-306.38 711.97,-299.52 701.38,-299.85 703.9,-306.38"/>
</g>
<!-- Node11&#45;&gt;Node6 -->
<g id="edge31" class="edge">
<title>Node11&#45;&gt;Node6</title>
<path fill="none" stroke="midnightblue" d="M660.82,-280.71C560.52,-269.36 383.49,-249.31 301.29,-240.01"/>
<polygon fill="midnightblue" stroke="midnightblue" points="301.6,-236.52 291.27,-238.87 300.82,-243.48 301.6,-236.52"/>
</g>
<!-- Node12 -->
<g id="node12" class="node">
<title>Node12</title>
<g id="a_node12"><a xlink:href="_recorder_8hpp.html" target="_top" xlink:title=" ">
<polygon fill="none" stroke="black" points="660.05,-224.5 660.05,-243.5 808.05,-243.5 808.05,-224.5 660.05,-224.5"/>
<text text-anchor="middle" x="734.05" y="-231.5" font-family="Helvetica,sans-Serif" font-size="10.00">../Benchmark/Recorder.hpp</text>
</a>
</g>
</g>
<!-- Node11&#45;&gt;Node12 -->
<g id="edge12" class="edge">
<title>Node11&#45;&gt;Node12</title>
<path fill="none" stroke="midnightblue" d="M734.05,-280.08C734.05,-273.01 734.05,-262.86 734.05,-253.99"/>
<polygon fill="midnightblue" stroke="midnightblue" points="737.55,-253.75 734.05,-243.75 730.55,-253.75 737.55,-253.75"/>
</g>
<!-- Node11&#45;&gt;Node15 -->
<g id="edge32" class="edge">
<title>Node11&#45;&gt;Node15</title>
<path fill="none" stroke="midnightblue" d="M701.86,-280.49C683.51,-273.8 662.03,-262.45 651.05,-244 623.51,-197.75 615.08,-182.68 708.05,-112 731,-94.55 800.48,-82.33 855.67,-75.07"/>
<polygon fill="midnightblue" stroke="midnightblue" points="856.32,-78.51 865.79,-73.77 855.43,-71.57 856.32,-78.51"/>
</g>
<!-- Node23 -->
<g id="node23" class="node">
<title>Node23</title>
<g id="a_node23"><a xlink:href="_bounds_8hpp.html" target="_top" xlink:title=" ">
<polygon fill="none" stroke="black" points="1007.05,-168.5 1007.05,-187.5 1081.05,-187.5 1081.05,-168.5 1007.05,-168.5"/>
<text text-anchor="middle" x="1044.05" y="-175.5" font-family="Helvetica,sans-Serif" font-size="10.00">Bounds.hpp</text>
</a>
</g>
</g>
<!-- Node11&#45;&gt;Node23 -->
<g id="edge27" class="edge">
<title>Node11&#45;&gt;Node23</title>
<path fill="none" stroke="midnightblue" d="M807.08,-281.69C871.17,-274.28 958.74,-261.42 989.05,-244 1008.6,-232.76 1024.39,-211.83 1033.95,-196.75"/>
<polygon fill="midnightblue" stroke="midnightblue" points="1037.15,-198.22 1039.31,-187.85 1031.15,-194.61 1037.15,-198.22"/>
</g>
<!-- Node24 -->
<g id="node24" class="node">
<title>Node24</title>
<g id="a_node24"><a xlink:href="_vector_8hpp.html" target="_top" xlink:title=" ">
<polygon fill="none" stroke="black" points="1010.05,-112.5 1010.05,-131.5 1078.05,-131.5 1078.05,-112.5 1010.05,-112.5"/>
<text text-anchor="middle" x="1044.05" y="-119.5" font-family="Helvetica,sans-Serif" font-size="10.00">Vector.hpp</text>
</a>
</g>
</g>
<!-- Node11&#45;&gt;Node24 -->
<g id="edge33" class="edge">
<title>Node11&#45;&gt;Node24</title>
<path fill="none" stroke="midnightblue" d="M750.28,-280.31C801.13,-253.08 957.6,-169.29 1018.97,-136.43"/>
<polygon fill="midnightblue" stroke="midnightblue" points="1020.81,-139.41 1027.98,-131.61 1017.51,-133.24 1020.81,-139.41"/>
</g>
<!-- Node25 -->
<g id="node25" class="node">
<title>Node25</title>
<g id="a_node25"><a xlink:href="_vertices_8hpp.html" target="_top" xlink:title=" ">
<polygon fill="none" stroke="black" points="902.55,-224.5 902.55,-243.5 979.55,-243.5 979.55,-224.5 902.55,-224.5"/>
<text text-anchor="middle" x="941.05" y="-231.5" font-family="Helvetica,sans-Serif" font-size="10.00">Vertices.hpp</text>
</a>
</g>
</g>
<!-- Node11&#45;&gt;Node25 -->
<g id="edge34" class="edge">
<title>Node11&#45;&gt;Node25</title>
<path fill="none" stroke="midnightblue" d="M766.85,-280.44C802.43,-271.16 859.36,-256.31 898.39,-246.13"/>
<polygon fill="midnightblue" stroke="midnightblue" points="899.61,-249.43 908.4,-243.52 897.84,-242.65 899.61,-249.43"/>
</g>
<!-- Node13 -->
<g id="node13" class="node">
<title>Node13</title>
<g id="a_node13"><a xlink:href="_performance_8hpp.html" target="_top" xlink:title=" ">
<polygon fill="none" stroke="black" points="696.05,-168.5 696.05,-187.5 796.05,-187.5 796.05,-168.5 696.05,-168.5"/>
<text text-anchor="middle" x="746.05" y="-175.5" font-family="Helvetica,sans-Serif" font-size="10.00">Performance.hpp</text>
</a>
</g>
</g>
<!-- Node12&#45;&gt;Node13 -->
<g id="edge13" class="edge">
<title>Node12&#45;&gt;Node13</title>
<path fill="none" stroke="midnightblue" d="M736.03,-224.08C737.62,-216.93 739.91,-206.64 741.89,-197.69"/>
<polygon fill="midnightblue" stroke="midnightblue" points="745.35,-198.27 744.1,-187.75 738.52,-196.75 745.35,-198.27"/>
</g>
<!-- Node14 -->
<g id="node14" class="node">
<title>Node14</title>
<g id="a_node14"><a xlink:href="_block_data_8hpp.html" target="_top" xlink:title=" ">
<polygon fill="none" stroke="black" points="717.05,-112.5 717.05,-131.5 805.05,-131.5 805.05,-112.5 717.05,-112.5"/>
<text text-anchor="middle" x="761.05" y="-119.5" font-family="Helvetica,sans-Serif" font-size="10.00">BlockData.hpp</text>
</a>
</g>
</g>
<!-- Node13&#45;&gt;Node14 -->
<g id="edge14" class="edge">
<title>Node13&#45;&gt;Node14</title>
<path fill="none" stroke="midnightblue" d="M748.52,-168.08C750.53,-160.85 753.43,-150.41 755.94,-141.4"/>
<polygon fill="midnightblue" stroke="midnightblue" points="759.31,-142.32 758.62,-131.75 752.57,-140.45 759.31,-142.32"/>
</g>
<!-- Node14&#45;&gt;Node15 -->
<g id="edge15" class="edge">
<title>Node14&#45;&gt;Node15</title>
<path fill="none" stroke="midnightblue" d="M787.83,-112.44C816.38,-103.32 861.78,-88.81 893.58,-78.65"/>
<polygon fill="midnightblue" stroke="midnightblue" points="894.93,-81.89 903.39,-75.52 892.8,-75.23 894.93,-81.89"/>
</g>
<!-- Node15&#45;&gt;Node5 -->
<g id="edge26" class="edge">
<title>Node15&#45;&gt;Node5</title>
<path fill="none" stroke="midnightblue" d="M865.93,-61.3C779.11,-55.66 619.56,-43.05 485.05,-20 483.97,-19.82 482.88,-19.62 481.78,-19.41"/>
<polygon fill="midnightblue" stroke="midnightblue" points="482.34,-15.95 471.83,-17.3 480.89,-22.8 482.34,-15.95"/>
</g>
<!-- Node15&#45;&gt;Node8 -->
<g id="edge18" class="edge">
<title>Node15&#45;&gt;Node8</title>
<path fill="none" stroke="midnightblue" d="M865.89,-60.3C792.3,-54.25 667.93,-42.05 551.87,-19.88"/>
<polygon fill="midnightblue" stroke="midnightblue" points="552.22,-16.38 541.74,-17.91 550.89,-23.25 552.22,-16.38"/>
</g>
<!-- Node15&#45;&gt;Node9 -->
<g id="edge20" class="edge">
<title>Node15&#45;&gt;Node9</title>
<path fill="none" stroke="midnightblue" d="M865.8,-56.88C806.96,-49.11 717.25,-36.41 630.27,-20.11"/>
<polygon fill="midnightblue" stroke="midnightblue" points="630.71,-16.63 620.23,-18.21 629.41,-23.51 630.71,-16.63"/>
</g>
<!-- Node15&#45;&gt;Node10 -->
<g id="edge22" class="edge">
<title>Node15&#45;&gt;Node10</title>
<path fill="none" stroke="midnightblue" d="M885.13,-56.5C841.77,-48.18 774.04,-34.91 706.09,-20.17"/>
<polygon fill="midnightblue" stroke="midnightblue" points="706.59,-16.7 696.07,-17.98 705.09,-23.53 706.59,-16.7"/>
</g>
<!-- Node16 -->
<g id="node16" class="node">
<title>Node16</title>
<g id="a_node16"><a xlink:title=" ">
<polygon fill="none" stroke="#bfbfbf" points="991.05,-0.5 991.05,-19.5 1033.05,-19.5 1033.05,-0.5 991.05,-0.5"/>
<text text-anchor="middle" x="1012.05" y="-7.5" font-family="Helvetica,sans-Serif" font-size="10.00">array</text>
</a>
</g>
</g>
<!-- Node15&#45;&gt;Node16 -->
<g id="edge16" class="edge">
<title>Node15&#45;&gt;Node16</title>
<path fill="none" stroke="midnightblue" d="M943.22,-56.32C955.89,-47.98 975.28,-35.21 990.25,-25.35"/>
<polygon fill="midnightblue" stroke="midnightblue" points="992.48,-28.08 998.91,-19.65 988.63,-22.23 992.48,-28.08"/>
</g>
<!-- Node17 -->
<g id="node17" class="node">
<title>Node17</title>
<g id="a_node17"><a xlink:title=" ">
<polygon fill="none" stroke="#bfbfbf" points="1051.05,-0.5 1051.05,-19.5 1101.05,-19.5 1101.05,-0.5 1051.05,-0.5"/>
<text text-anchor="middle" x="1076.05" y="-7.5" font-family="Helvetica,sans-Serif" font-size="10.00">chrono</text>
</a>
</g>
</g>
<!-- Node15&#45;&gt;Node17 -->
<g id="edge17" class="edge">
<title>Node15&#45;&gt;Node17</title>
<path fill="none" stroke="midnightblue" d="M953.18,-56.44C977.53,-47.44 1016.05,-33.19 1043.47,-23.05"/>
<polygon fill="midnightblue" stroke="midnightblue" points="1044.86,-26.27 1053.02,-19.52 1042.43,-19.7 1044.86,-26.27"/>
</g>
<!-- Node18 -->
<g id="node18" class="node">
<title>Node18</title>
<g id="a_node18"><a xlink:title=" ">
<polygon fill="none" stroke="#bfbfbf" points="1119.55,-0.5 1119.55,-19.5 1184.55,-19.5 1184.55,-0.5 1119.55,-0.5"/>
<text text-anchor="middle" x="1152.05" y="-7.5" font-family="Helvetica,sans-Serif" font-size="10.00">functional</text>
</a>
</g>
</g>
<!-- Node15&#45;&gt;Node18 -->
<g id="edge19" class="edge">
<title>Node15&#45;&gt;Node18</title>
<path fill="none" stroke="midnightblue" d="M965.22,-56.44C1004.3,-46.94 1067.4,-31.59 1109.3,-21.4"/>
<polygon fill="midnightblue" stroke="midnightblue" points="1110.32,-24.75 1119.21,-18.99 1108.66,-17.95 1110.32,-24.75"/>
</g>
<!-- Node19 -->
<g id="node19" class="node">
<title>Node19</title>
<g id="a_node19"><a xlink:title=" ">
<polygon fill="none" stroke="#bfbfbf" points="1202.55,-0.5 1202.55,-19.5 1255.55,-19.5 1255.55,-0.5 1202.55,-0.5"/>
<text text-anchor="middle" x="1229.05" y="-7.5" font-family="Helvetica,sans-Serif" font-size="10.00">iterator</text>
</a>
</g>
</g>
<!-- Node15&#45;&gt;Node19 -->
<g id="edge21" class="edge">
<title>Node15&#45;&gt;Node19</title>
<path fill="none" stroke="midnightblue" d="M988.25,-56.5C1039.61,-48.67 1116.71,-36.15 1192.19,-20.27"/>
<polygon fill="midnightblue" stroke="midnightblue" points="1193.29,-23.61 1202.35,-18.11 1191.84,-16.77 1193.29,-23.61"/>
</g>
<!-- Node20 -->
<g id="node20" class="node">
<title>Node20</title>
<g id="a_node20"><a xlink:title=" ">
<polygon fill="none" stroke="#bfbfbf" points="714.05,-0.5 714.05,-19.5 770.05,-19.5 770.05,-0.5 714.05,-0.5"/>
<text text-anchor="middle" x="742.05" y="-7.5" font-family="Helvetica,sans-Serif" font-size="10.00">sstream</text>
</a>
</g>
</g>
<!-- Node15&#45;&gt;Node20 -->
<g id="edge23" class="edge">
<title>Node15&#45;&gt;Node20</title>
<path fill="none" stroke="midnightblue" d="M900.26,-56.44C867.75,-47.11 815.61,-32.13 780.14,-21.94"/>
<polygon fill="midnightblue" stroke="midnightblue" points="780.74,-18.47 770.16,-19.08 778.81,-25.2 780.74,-18.47"/>
</g>
<!-- Node21 -->
<g id="node21" class="node">
<title>Node21</title>
<g id="a_node21"><a xlink:title=" ">
<polygon fill="none" stroke="#bfbfbf" points="788.55,-0.5 788.55,-19.5 861.55,-19.5 861.55,-0.5 788.55,-0.5"/>
<text text-anchor="middle" x="825.05" y="-7.5" font-family="Helvetica,sans-Serif" font-size="10.00">string_view</text>
</a>
</g>
</g>
<!-- Node15&#45;&gt;Node21 -->
<g id="edge24" class="edge">
<title>Node15&#45;&gt;Node21</title>
<path fill="none" stroke="midnightblue" d="M913.18,-56.32C896.34,-47.66 870.24,-34.24 850.81,-24.25"/>
<polygon fill="midnightblue" stroke="midnightblue" points="852.37,-21.12 841.88,-19.65 849.17,-27.34 852.37,-21.12"/>
</g>
<!-- Node22 -->
<g id="node22" class="node">
<title>Node22</title>
<g id="a_node22"><a xlink:title=" ">
<polygon fill="none" stroke="#bfbfbf" points="879.55,-0.5 879.55,-19.5 972.55,-19.5 972.55,-0.5 879.55,-0.5"/>
<text text-anchor="middle" x="926.05" y="-7.5" font-family="Helvetica,sans-Serif" font-size="10.00">unordered_map</text>
</a>
</g>
</g>
<!-- Node15&#45;&gt;Node22 -->
<g id="edge25" class="edge">
<title>Node15&#45;&gt;Node22</title>
<path fill="none" stroke="midnightblue" d="M929.39,-56.08C928.86,-49.01 928.11,-38.86 927.45,-29.99"/>
<polygon fill="midnightblue" stroke="midnightblue" points="930.92,-29.47 926.7,-19.75 923.94,-29.98 930.92,-29.47"/>
</g>
<!-- Node23&#45;&gt;Node15 -->
<g id="edge28" class="edge">
<title>Node23&#45;&gt;Node15</title>
<path fill="none" stroke="midnightblue" d="M1035.1,-168.37C1015.96,-149.89 970.77,-106.29 946.36,-82.74"/>
<polygon fill="midnightblue" stroke="midnightblue" points="948.58,-80.02 938.95,-75.59 943.72,-85.05 948.58,-80.02"/>
</g>
<!-- Node23&#45;&gt;Node24 -->
<g id="edge29" class="edge">
<title>Node23&#45;&gt;Node24</title>
<path fill="none" stroke="midnightblue" d="M1044.05,-168.08C1044.05,-161.01 1044.05,-150.86 1044.05,-141.99"/>
<polygon fill="midnightblue" stroke="midnightblue" points="1047.55,-141.75 1044.05,-131.75 1040.55,-141.75 1047.55,-141.75"/>
</g>
<!-- Node24&#45;&gt;Node15 -->
<g id="edge30" class="edge">
<title>Node24&#45;&gt;Node15</title>
<path fill="none" stroke="midnightblue" d="M1025.98,-112.44C1007.47,-103.68 978.47,-89.94 957.19,-79.86"/>
<polygon fill="midnightblue" stroke="midnightblue" points="958.56,-76.63 948.03,-75.52 955.57,-82.96 958.56,-76.63"/>
</g>
<!-- Node25&#45;&gt;Node15 -->
<g id="edge36" class="edge">
<title>Node25&#45;&gt;Node15</title>
<path fill="none" stroke="midnightblue" d="M940.46,-224.08C938.72,-197.95 933.64,-121.21 931.28,-85.58"/>
<polygon fill="midnightblue" stroke="midnightblue" points="934.77,-85.31 930.62,-75.57 927.78,-85.78 934.77,-85.31"/>
</g>
<!-- Node25&#45;&gt;Node23 -->
<g id="edge35" class="edge">
<title>Node25&#45;&gt;Node23</title>
<path fill="none" stroke="midnightblue" d="M957.6,-224.32C974.04,-215.7 999.48,-202.36 1018.52,-192.39"/>
<polygon fill="midnightblue" stroke="midnightblue" points="1020.31,-195.4 1027.54,-187.65 1017.06,-189.2 1020.31,-195.4"/>
</g>
<!-- Node25&#45;&gt;Node24 -->
<g id="edge37" class="edge">
<title>Node25&#45;&gt;Node24</title>
<path fill="none" stroke="midnightblue" d="M948.22,-224.4C958.84,-211.78 979.47,-187.62 998.05,-168 1007.46,-158.06 1018.39,-147.33 1027.24,-138.84"/>
<polygon fill="midnightblue" stroke="midnightblue" points="1029.85,-141.19 1034.68,-131.76 1025.02,-136.12 1029.85,-141.19"/>
</g>
<!-- Node26&#45;&gt;Node4 -->
<g id="edge41" class="edge">
<title>Node26&#45;&gt;Node4</title>
<path fill="none" stroke="midnightblue" d="M607.85,-411.83C601.97,-419.87 590.94,-431.91 580.82,-441.54"/>
<polygon fill="midnightblue" stroke="midnightblue" points="578.4,-439.01 573.36,-448.32 583.11,-444.19 578.4,-439.01"/>
</g>
<!-- Node26&#45;&gt;Node5 -->
<g id="edge40" class="edge">
<title>Node26&#45;&gt;Node5</title>
<path fill="none" stroke="midnightblue" d="M590.32,-392.45C545.2,-372.3 442.05,-317.25 442.05,-235 442.05,-235 442.05,-235 442.05,-121 442.05,-88.9 444.63,-51.61 446.4,-29.73"/>
<polygon fill="midnightblue" stroke="midnightblue" points="449.91,-29.81 447.26,-19.55 442.93,-29.22 449.91,-29.81"/>
</g>
<!-- Node26&#45;&gt;Node6 -->
<g id="edge42" class="edge">
<title>Node26&#45;&gt;Node6</title>
<path fill="none" stroke="midnightblue" d="M572.49,-396.33C535.2,-390.66 477.91,-378.89 433.05,-356 386.11,-332.05 385.79,-309.38 342.05,-280 323.97,-267.86 302.25,-256.41 285.3,-248.1"/>
<polygon fill="midnightblue" stroke="midnightblue" points="286.45,-244.77 275.93,-243.59 283.42,-251.08 286.45,-244.77"/>
</g>
<!-- Node26&#45;&gt;Node7 -->
<g id="edge43" class="edge">
<title>Node26&#45;&gt;Node7</title>
<path fill="none" stroke="midnightblue" d="M608.24,-392.08C605.96,-384.85 602.68,-374.41 599.84,-365.4"/>
<polygon fill="midnightblue" stroke="midnightblue" points="603.14,-364.24 596.8,-355.75 596.47,-366.34 603.14,-364.24"/>
</g>
<!-- Node27&#45;&gt;Node3 -->
<g id="edge51" class="edge">
<title>Node27&#45;&gt;Node3</title>
<path fill="none" stroke="midnightblue" d="M121.36,-560.44C152.89,-551.24 203.18,-536.56 238.03,-526.39"/>
<polygon fill="midnightblue" stroke="midnightblue" points="239.25,-529.68 247.87,-523.52 237.29,-522.96 239.25,-529.68"/>
</g>
<!-- Node27&#45;&gt;Node6 -->
<g id="edge50" class="edge">
<title>Node27&#45;&gt;Node6</title>
<path fill="none" stroke="midnightblue" d="M93.75,-560.48C97.27,-542.06 105.05,-497.08 105.05,-459 105.05,-459 105.05,-459 105.05,-345 105.05,-291.13 168.47,-260.96 213.38,-246.34"/>
<polygon fill="midnightblue" stroke="midnightblue" points="214.42,-249.69 222.94,-243.38 212.35,-243 214.42,-249.69"/>
</g>
<!-- Node28&#45;&gt;Node3 -->
<g id="edge54" class="edge">
<title>Node28&#45;&gt;Node3</title>
<path fill="none" stroke="midnightblue" d="M245.32,-560.08C250.69,-552.46 258.56,-541.26 265.13,-531.94"/>
<polygon fill="midnightblue" stroke="midnightblue" points="268,-533.94 270.89,-523.75 262.27,-529.91 268,-533.94"/>
</g>
<!-- Node28&#45;&gt;Node6 -->
<g id="edge53" class="edge">
<title>Node28&#45;&gt;Node6</title>
<path fill="none" stroke="midnightblue" d="M223.19,-560.44C195.93,-544.43 143.05,-507.16 143.05,-459 143.05,-459 143.05,-459 143.05,-345 143.05,-298.11 193.6,-264.89 227.38,-247.93"/>
<polygon fill="midnightblue" stroke="midnightblue" points="228.91,-251.07 236.4,-243.58 225.87,-244.77 228.91,-251.07"/>
</g>
<!-- Node29&#45;&gt;Node3 -->
<g id="edge57" class="edge">
<title>Node29&#45;&gt;Node3</title>
<path fill="none" stroke="midnightblue" d="M404.96,-560.44C379.5,-551.4 339.15,-537.06 310.59,-526.92"/>
<polygon fill="midnightblue" stroke="midnightblue" points="311.61,-523.57 301.02,-523.52 309.27,-530.16 311.61,-523.57"/>
</g>
<!-- Node29&#45;&gt;Node6 -->
<g id="edge56" class="edge">
<title>Node29&#45;&gt;Node6</title>
<path fill="none" stroke="midnightblue" d="M424.05,-560.32C404.99,-527.07 335.42,-404.5 285.05,-300 277.47,-284.28 269.68,-265.99 264.25,-252.83"/>
<polygon fill="midnightblue" stroke="midnightblue" points="267.47,-251.45 260.45,-243.52 260.99,-254.1 267.47,-251.45"/>
</g>
<!-- Node30&#45;&gt;Node4 -->
<g id="edge62" class="edge">
<title>Node30&#45;&gt;Node4</title>
<path fill="none" stroke="midnightblue" d="M785.58,-504.44C738.63,-494.98 662.97,-479.74 612.39,-469.55"/>
<polygon fill="midnightblue" stroke="midnightblue" points="612.81,-466.06 602.31,-467.52 611.43,-472.92 612.81,-466.06"/>
</g>
<!-- Node30&#45;&gt;Node7 -->
<g id="edge63" class="edge">
<title>Node30&#45;&gt;Node7</title>
<path fill="none" stroke="midnightblue" d="M823.81,-504.22C812.66,-482.01 780.27,-423.16 736.05,-392 707.4,-371.81 669.29,-360.39 639.76,-354.11"/>
<polygon fill="midnightblue" stroke="midnightblue" points="640.2,-350.62 629.7,-352.09 638.82,-357.49 640.2,-350.62"/>
</g>
<!-- Node30&#45;&gt;Node15 -->
<g id="edge66" class="edge">
<title>Node30&#45;&gt;Node15</title>
<path fill="none" stroke="midnightblue" d="M829.09,-504.46C831.26,-485.98 836.05,-440.91 836.05,-403 836.05,-403 836.05,-403 836.05,-177 836.05,-133.93 878.21,-99.21 906.06,-80.98"/>
<polygon fill="midnightblue" stroke="midnightblue" points="907.93,-83.94 914.53,-75.65 904.2,-78.01 907.93,-83.94"/>
</g>
<!-- Node30&#45;&gt;Node23 -->
<g id="edge65" class="edge">
<title>Node30&#45;&gt;Node23</title>
<path fill="none" stroke="midnightblue" d="M836.42,-504.37C844.81,-495.55 857.9,-481.29 868.05,-468 940.17,-373.55 956.55,-348 1014.05,-244 1022.59,-228.55 1030.89,-210.24 1036.58,-196.99"/>
<polygon fill="midnightblue" stroke="midnightblue" points="1039.88,-198.18 1040.55,-187.61 1033.43,-195.46 1039.88,-198.18"/>
</g>
<!-- Node30&#45;&gt;Node24 -->
<g id="edge67" class="edge">
<title>Node30&#45;&gt;Node24</title>
<path fill="none" stroke="midnightblue" d="M841.87,-504.23C854.75,-495.74 874.14,-482.11 889.05,-468 982.81,-379.23 1013.93,-358.27 1074.05,-244 1090.12,-213.45 1103.43,-199.82 1090.05,-168 1085.02,-156.05 1075.1,-145.69 1065.76,-137.93"/>
<polygon fill="midnightblue" stroke="midnightblue" points="1067.89,-135.15 1057.83,-131.81 1063.61,-140.69 1067.89,-135.15"/>
</g>
<!-- Node30&#45;&gt;Node25 -->
<g id="edge68" class="edge">
<title>Node30&#45;&gt;Node25</title>
<path fill="none" stroke="midnightblue" d="M832.48,-504.47C837.08,-495.49 844.39,-480.9 850.05,-468 884.66,-389.12 920.27,-292.6 934.55,-253.13"/>
<polygon fill="midnightblue" stroke="midnightblue" points="937.89,-254.16 937.99,-243.57 931.31,-251.79 937.89,-254.16"/>
</g>
<!-- Node30&#45;&gt;Node26 -->
<g id="edge64" class="edge">
<title>Node30&#45;&gt;Node26</title>
<path fill="none" stroke="midnightblue" d="M811.02,-504.37C773.23,-485.21 682.14,-439.04 637.12,-416.22"/>
<polygon fill="midnightblue" stroke="midnightblue" points="638.5,-412.99 628,-411.59 635.33,-419.23 638.5,-412.99"/>
</g>
<!-- Node31&#45;&gt;Node4 -->
<g id="edge73" class="edge">
<title>Node31&#45;&gt;Node4</title>
<path fill="none" stroke="midnightblue" d="M986.29,-569.19C918.21,-568.31 779.85,-561.53 670.05,-524 635.7,-512.26 600.32,-488.97 579.26,-473.7"/>
<polygon fill="midnightblue" stroke="midnightblue" points="581.28,-470.83 571.16,-467.7 577.11,-476.46 581.28,-470.83"/>
</g>
<!-- Node31&#45;&gt;Node7 -->
<g id="edge74" class="edge">
<title>Node31&#45;&gt;Node7</title>
<path fill="none" stroke="midnightblue" d="M986.33,-566.3C918.44,-561.24 787.71,-548.57 749.05,-524 689.12,-485.91 709.08,-442.39 659.05,-392 647.06,-379.93 631.45,-369 618.53,-360.94"/>
<polygon fill="midnightblue" stroke="midnightblue" points="620.06,-357.77 609.69,-355.6 616.44,-363.76 620.06,-357.77"/>
</g>
<!-- Node31&#45;&gt;Node15 -->
<g id="edge77" class="edge">
<title>Node31&#45;&gt;Node15</title>
<path fill="none" stroke="midnightblue" d="M1069.76,-567.68C1111.64,-564.55 1176.45,-554.64 1223.05,-524 1278.83,-487.32 1312.05,-469.76 1312.05,-403 1312.05,-403 1312.05,-403 1312.05,-177 1312.05,-128.73 1269.57,-130.64 1225.05,-112 1154.01,-82.26 1066,-71.88 1004.69,-68.41"/>
<polygon fill="midnightblue" stroke="midnightblue" points="1004.49,-64.9 994.32,-67.88 1004.13,-71.89 1004.49,-64.9"/>
</g>
<!-- Node31&#45;&gt;Node23 -->
<g id="edge76" class="edge">
<title>Node31&#45;&gt;Node23</title>
<path fill="none" stroke="midnightblue" d="M1044.68,-560.46C1057.54,-552.84 1074.39,-540.36 1082.05,-524 1085.82,-515.95 1082.17,-512.89 1082.05,-504 1080.27,-379.52 1111.82,-342.63 1074.05,-224 1070.74,-213.62 1064.27,-203.4 1058.18,-195.34"/>
<polygon fill="midnightblue" stroke="midnightblue" points="1060.89,-193.12 1051.89,-187.52 1055.43,-197.51 1060.89,-193.12"/>
</g>
<!-- Node31&#45;&gt;Node24 -->
<g id="edge80" class="edge">
<title>Node31&#45;&gt;Node24</title>
<path fill="none" stroke="midnightblue" d="M1069.64,-565.44C1130.34,-557.71 1236.05,-533.55 1236.05,-459 1236.05,-459 1236.05,-459 1236.05,-233 1236.05,-165.37 1145.25,-138.74 1088.54,-128.7"/>
<polygon fill="midnightblue" stroke="midnightblue" points="1088.81,-125.19 1078.37,-127.01 1087.66,-132.1 1088.81,-125.19"/>
</g>
<!-- Node31&#45;&gt;Node26 -->
<g id="edge75" class="edge">
<title>Node31&#45;&gt;Node26</title>
<path fill="none" stroke="midnightblue" d="M986.53,-567.45C910.67,-563.93 753.29,-553.23 708.05,-524 674.49,-502.32 685.65,-478.67 660.05,-448 651,-437.16 639.43,-426.42 629.8,-418.15"/>
<polygon fill="midnightblue" stroke="midnightblue" points="631.86,-415.31 621.95,-411.58 627.37,-420.68 631.86,-415.31"/>
</g>
<!-- Node32 -->
<g id="node32" class="node">
<title>Node32</title>
<g id="a_node32"><a xlink:href="_string_8hpp.html" target="_top" xlink:title=" ">
<polygon fill="none" stroke="black" points="1340.55,-448.5 1340.55,-467.5 1467.55,-467.5 1467.55,-448.5 1340.55,-448.5"/>
<text text-anchor="middle" x="1404.05" y="-455.5" font-family="Helvetica,sans-Serif" font-size="10.00">../Geometry/String.hpp</text>
</a>
</g>
</g>
<!-- Node31&#45;&gt;Node32 -->
<g id="edge78" class="edge">
<title>Node31&#45;&gt;Node32</title>
<path fill="none" stroke="midnightblue" d="M1069.67,-566.16C1121.95,-561.61 1213.79,-550.36 1288.05,-524 1323.61,-511.38 1361.06,-488.37 1383.48,-473.39"/>
<polygon fill="midnightblue" stroke="midnightblue" points="1385.54,-476.22 1391.85,-467.7 1381.61,-470.43 1385.54,-476.22"/>
</g>
<!-- Node33 -->
<g id="node33" class="node">
<title>Node33</title>
<g id="a_node33"><a xlink:href="_quad_node_8hpp.html" target="_top" xlink:title=" ">
<polygon fill="none" stroke="black" points="983.55,-504.5 983.55,-523.5 1072.55,-523.5 1072.55,-504.5 983.55,-504.5"/>
<text text-anchor="middle" x="1028.05" y="-511.5" font-family="Helvetica,sans-Serif" font-size="10.00">QuadNode.hpp</text>
</a>
</g>
</g>
<!-- Node31&#45;&gt;Node33 -->
<g id="edge81" class="edge">
<title>Node31&#45;&gt;Node33</title>
<path fill="none" stroke="midnightblue" d="M1028.05,-560.08C1028.05,-553.01 1028.05,-542.86 1028.05,-533.99"/>
<polygon fill="midnightblue" stroke="midnightblue" points="1031.55,-533.75 1028.05,-523.75 1024.55,-533.75 1031.55,-533.75"/>
</g>
<!-- Node32&#45;&gt;Node15 -->
<g id="edge79" class="edge">
<title>Node32&#45;&gt;Node15</title>
<path fill="none" stroke="midnightblue" d="M1400.41,-448.34C1393.04,-430 1377.05,-385.74 1377.05,-347 1377.05,-347 1377.05,-347 1377.05,-177 1377.05,-140.28 1358.11,-129.9 1326.05,-112 1272.59,-82.14 1103.77,-72.06 1004.65,-68.68"/>
<polygon fill="midnightblue" stroke="midnightblue" points="1004.51,-65.18 994.4,-68.35 1004.28,-72.17 1004.51,-65.18"/>
</g>
<!-- Node33&#45;&gt;Node4 -->
<g id="edge82" class="edge">
<title>Node33&#45;&gt;Node4</title>
<path fill="none" stroke="midnightblue" d="M983.17,-507.82C900.86,-498.33 725.31,-478.07 628.19,-466.86"/>
<polygon fill="midnightblue" stroke="midnightblue" points="628.52,-463.38 618.18,-465.71 627.72,-470.33 628.52,-463.38"/>
</g>
<!-- Node33&#45;&gt;Node7 -->
<g id="edge83" class="edge">
<title>Node33&#45;&gt;Node7</title>
<path fill="none" stroke="midnightblue" d="M1011.57,-504.39C970.3,-483.07 858.77,-427.05 761.05,-392 720.83,-377.58 673.73,-365.29 639.82,-357.21"/>
<polygon fill="midnightblue" stroke="midnightblue" points="640.28,-353.72 629.75,-354.84 638.68,-360.54 640.28,-353.72"/>
</g>
<!-- Node33&#45;&gt;Node15 -->
<g id="edge86" class="edge">
<title>Node33&#45;&gt;Node15</title>
<path fill="none" stroke="midnightblue" d="M1072.6,-512.37C1143.49,-508.76 1274.05,-490.25 1274.05,-403 1274.05,-403 1274.05,-403 1274.05,-177 1274.05,-120.85 1105.68,-89.43 1004.52,-75.61"/>
<polygon fill="midnightblue" stroke="midnightblue" points="1004.72,-72.11 994.35,-74.25 1003.8,-79.05 1004.72,-72.11"/>
</g>
<!-- Node33&#45;&gt;Node23 -->
<g id="edge85" class="edge">
<title>Node33&#45;&gt;Node23</title>
<path fill="none" stroke="midnightblue" d="M1029.48,-504.21C1034.87,-470.58 1053.95,-346.82 1060.05,-244 1060.57,-235.13 1061.56,-232.76 1060.05,-224 1058.48,-214.91 1055.25,-205.22 1052.1,-197.17"/>
<polygon fill="midnightblue" stroke="midnightblue" points="1055.24,-195.6 1048.16,-187.72 1048.78,-198.3 1055.24,-195.6"/>
</g>
<!-- Node33&#45;&gt;Node24 -->
<g id="edge87" class="edge">
<title>Node33&#45;&gt;Node24</title>
<path fill="none" stroke="midnightblue" d="M1072.27,-504.44C1122.64,-491.83 1198.05,-462.94 1198.05,-403 1198.05,-403 1198.05,-403 1198.05,-233 1198.05,-202.2 1196.04,-189.55 1174.05,-168 1150.95,-145.37 1115.93,-134.09 1088.05,-128.49"/>
<polygon fill="midnightblue" stroke="midnightblue" points="1088.61,-125.03 1078.14,-126.67 1087.35,-131.92 1088.61,-125.03"/>
</g>
<!-- Node33&#45;&gt;Node26 -->
<g id="edge84" class="edge">
<title>Node33&#45;&gt;Node26</title>
<path fill="none" stroke="midnightblue" d="M995.67,-504.46C921,-484.76 736.73,-436.15 653.3,-414.15"/>
<polygon fill="midnightblue" stroke="midnightblue" points="653.96,-410.7 643.4,-411.53 652.18,-417.47 653.96,-410.7"/>
</g>
</g>
</svg>
