<?xml version="1.0" encoding="UTF-8" standalone="no"?>
<!DOCTYPE svg PUBLIC "-//W3C//DTD SVG 1.1//EN"
 "http://www.w3.org/Graphics/SVG/1.1/DTD/svg11.dtd">
<!-- Generated by graphviz version 2.43.0 (0)
 -->
<!-- Title: /home/runner/work/Simulatio/Simulatio/engine/include/Structures/System.hpp Pages: 1 -->
<svg width="1575pt" height="666pt"
 viewBox="0.00 0.00 1575.03 666.00" xmlns="http://www.w3.org/2000/svg" xmlns:xlink="http://www.w3.org/1999/xlink">
<g id="graph0" class="graph" transform="scale(1 1) rotate(0) translate(4 662)">
<title>/home/runner/work/Simulatio/Simulatio/engine/include/Structures/System.hpp</title>
<!-- Node1 -->
<g id="node1" class="node">
<title>Node1</title>
<g id="a_node1"><a xlink:title=" ">
<polygon fill="#bfbfbf" stroke="black" points="483.03,-616.5 483.03,-657.5 641.03,-657.5 641.03,-616.5 483.03,-616.5"/>
<text text-anchor="start" x="491.03" y="-645.5" font-family="Helvetica,sans-Serif" font-size="10.00">/home/runner/work/Simulatio</text>
<text text-anchor="start" x="491.03" y="-634.5" font-family="Helvetica,sans-Serif" font-size="10.00">/Simulatio/engine/include</text>
<text text-anchor="middle" x="562.03" y="-623.5" font-family="Helvetica,sans-Serif" font-size="10.00">/Structures/System.hpp</text>
</a>
</g>
</g>
<!-- Node2 -->
<g id="node2" class="node">
<title>Node2</title>
<g id="a_node2"><a xlink:href="_constraint_8hpp.html" target="_top" xlink:title=" ">
<polygon fill="none" stroke="black" points="169.53,-504.5 169.53,-523.5 324.53,-523.5 324.53,-504.5 169.53,-504.5"/>
<text text-anchor="middle" x="247.03" y="-511.5" font-family="Helvetica,sans-Serif" font-size="10.00">../Constraints/Constraint.hpp</text>
</a>
</g>
</g>
<!-- Node1&#45;&gt;Node2 -->
<g id="edge1" class="edge">
<title>Node1&#45;&gt;Node2</title>
<path fill="none" stroke="midnightblue" d="M482.67,-618.47C445.34,-609.05 400.66,-596.05 362.03,-580 352.67,-576.11 301.43,-546.62 270.6,-528.72"/>
<polygon fill="midnightblue" stroke="midnightblue" points="272.15,-525.58 261.75,-523.58 268.64,-531.63 272.15,-525.58"/>
</g>
<!-- Node3 -->
<g id="node3" class="node">
<title>Node3</title>
<g id="a_node3"><a xlink:href="_circle_8hpp.html" target="_top" xlink:title=" ">
<polygon fill="none" stroke="black" points="541.03,-448.5 541.03,-467.5 657.03,-467.5 657.03,-448.5 541.03,-448.5"/>
<text text-anchor="middle" x="599.03" y="-455.5" font-family="Helvetica,sans-Serif" font-size="10.00">../Corpses/Circle.hpp</text>
</a>
</g>
</g>
<!-- Node1&#45;&gt;Node3 -->
<g id="edge58" class="edge">
<title>Node1&#45;&gt;Node3</title>
<path fill="none" stroke="midnightblue" d="M566.13,-616.38C573.33,-581.93 588.15,-511.04 595.18,-477.44"/>
<polygon fill="midnightblue" stroke="midnightblue" points="598.62,-478.09 597.24,-467.58 591.76,-476.66 598.62,-478.09"/>
</g>
<!-- Node5 -->
<g id="node5" class="node">
<title>Node5</title>
<g id="a_node5"><a xlink:title=" ">
<polygon fill="none" stroke="#bfbfbf" points="213.03,-224.5 213.03,-243.5 281.03,-243.5 281.03,-224.5 213.03,-224.5"/>
<text text-anchor="middle" x="247.03" y="-231.5" font-family="Helvetica,sans-Serif" font-size="10.00">Config.hpp</text>
</a>
</g>
</g>
<!-- Node1&#45;&gt;Node5 -->
<g id="edge71" class="edge">
<title>Node1&#45;&gt;Node5</title>
<path fill="none" stroke="midnightblue" d="M482.78,-632.65C340.85,-625.95 54.82,-608.99 20.03,-580 -3.09,-560.73 1.03,-545.1 1.03,-515 1.03,-515 1.03,-515 1.03,-345 1.03,-257.78 131.49,-239.26 202.4,-235.63"/>
<polygon fill="midnightblue" stroke="midnightblue" points="202.98,-239.11 212.83,-235.18 202.68,-232.12 202.98,-239.11"/>
</g>
<!-- Node6 -->
<g id="node6" class="node">
<title>Node6</title>
<g id="a_node6"><a xlink:href="_corpse_8hpp.html" target="_top" xlink:title=" ">
<polygon fill="none" stroke="black" points="439.53,-336.5 439.53,-355.5 510.53,-355.5 510.53,-336.5 439.53,-336.5"/>
<text text-anchor="middle" x="475.03" y="-343.5" font-family="Helvetica,sans-Serif" font-size="10.00">Corpse.hpp</text>
</a>
</g>
</g>
<!-- Node1&#45;&gt;Node6 -->
<g id="edge59" class="edge">
<title>Node1&#45;&gt;Node6</title>
<path fill="none" stroke="midnightblue" d="M553.02,-616.43C535.82,-578.11 498.46,-490.1 481.03,-412 477.6,-396.6 476.12,-378.73 475.49,-365.62"/>
<polygon fill="midnightblue" stroke="midnightblue" points="478.99,-365.39 475.13,-355.52 471.99,-365.64 478.99,-365.39"/>
</g>
<!-- Node10 -->
<g id="node10" class="node">
<title>Node10</title>
<g id="a_node10"><a xlink:href="_geometry_8hpp.html" target="_top" xlink:title=" ">
<polygon fill="none" stroke="black" points="656.03,-280.5 656.03,-299.5 802.03,-299.5 802.03,-280.5 656.03,-280.5"/>
<text text-anchor="middle" x="729.03" y="-287.5" font-family="Helvetica,sans-Serif" font-size="10.00">../Geometry/Geometry.hpp</text>
</a>
</g>
</g>
<!-- Node1&#45;&gt;Node10 -->
<g id="edge69" class="edge">
<title>Node1&#45;&gt;Node10</title>
<path fill="none" stroke="midnightblue" d="M641.36,-634.59C831.05,-629.86 1304.65,-609.56 1434.03,-524 1459.12,-507.41 1463.2,-496.75 1472.03,-468 1511.82,-338.51 1014.79,-302.97 812.5,-293.9"/>
<polygon fill="midnightblue" stroke="midnightblue" points="812.37,-290.39 802.22,-293.45 812.06,-297.38 812.37,-290.39"/>
</g>
<!-- Node14 -->
<g id="node14" class="node">
<title>Node14</title>
<g id="a_node14"><a xlink:href="_maths_8hpp.html" target="_top" xlink:title=" ">
<polygon fill="none" stroke="black" points="862.03,-56.5 862.03,-75.5 990.03,-75.5 990.03,-56.5 862.03,-56.5"/>
<text text-anchor="middle" x="926.03" y="-63.5" font-family="Helvetica,sans-Serif" font-size="10.00">../Geometry/Maths.hpp</text>
</a>
</g>
</g>
<!-- Node1&#45;&gt;Node14 -->
<g id="edge70" class="edge">
<title>Node1&#45;&gt;Node14</title>
<path fill="none" stroke="midnightblue" d="M641.31,-634.75C878.62,-629.97 1567.03,-608.09 1567.03,-515 1567.03,-515 1567.03,-515 1567.03,-177 1567.03,-120.05 1168.91,-84.54 1000.18,-72.05"/>
<polygon fill="midnightblue" stroke="midnightblue" points="1000.36,-68.56 990.13,-71.32 999.85,-75.54 1000.36,-68.56"/>
</g>
<!-- Node26 -->
<g id="node26" class="node">
<title>Node26</title>
<g id="a_node26"><a xlink:href="_polygon_8hpp.html" target="_top" xlink:title=" ">
<polygon fill="none" stroke="black" points="579.53,-392.5 579.53,-411.5 656.53,-411.5 656.53,-392.5 579.53,-392.5"/>
<text text-anchor="middle" x="618.03" y="-399.5" font-family="Helvetica,sans-Serif" font-size="10.00">Polygon.hpp</text>
</a>
</g>
</g>
<!-- Node1&#45;&gt;Node26 -->
<g id="edge60" class="edge">
<title>Node1&#45;&gt;Node26</title>
<path fill="none" stroke="midnightblue" d="M579.62,-616.07C604.58,-586.32 649.14,-527.39 666.03,-468 668.46,-459.45 669.56,-456.16 666.03,-448 660.76,-435.84 650.41,-425.46 640.67,-417.74"/>
<polygon fill="midnightblue" stroke="midnightblue" points="642.53,-414.77 632.4,-411.67 638.39,-420.41 642.53,-414.77"/>
</g>
<!-- Node27 -->
<g id="node27" class="node">
<title>Node27</title>
<g id="a_node27"><a xlink:href="_link_8hpp.html" target="_top" xlink:title=" ">
<polygon fill="none" stroke="black" points="371.53,-560.5 371.53,-579.5 496.53,-579.5 496.53,-560.5 371.53,-560.5"/>
<text text-anchor="middle" x="434.03" y="-567.5" font-family="Helvetica,sans-Serif" font-size="10.00">../Constraints/Link.hpp</text>
</a>
</g>
</g>
<!-- Node1&#45;&gt;Node27 -->
<g id="edge49" class="edge">
<title>Node1&#45;&gt;Node27</title>
<path fill="none" stroke="midnightblue" d="M523.63,-616.5C503.15,-606.1 478.49,-593.58 460.23,-584.31"/>
<polygon fill="midnightblue" stroke="midnightblue" points="461.57,-581.06 451.07,-579.65 458.4,-587.3 461.57,-581.06"/>
</g>
<!-- Node28 -->
<g id="node28" class="node">
<title>Node28</title>
<g id="a_node28"><a xlink:href="_slider_8hpp.html" target="_top" xlink:title=" ">
<polygon fill="none" stroke="black" points="29.03,-560.5 29.03,-579.5 161.03,-579.5 161.03,-560.5 29.03,-560.5"/>
<text text-anchor="middle" x="95.03" y="-567.5" font-family="Helvetica,sans-Serif" font-size="10.00">../Constraints/Slider.hpp</text>
</a>
</g>
</g>
<!-- Node1&#45;&gt;Node28 -->
<g id="edge52" class="edge">
<title>Node1&#45;&gt;Node28</title>
<path fill="none" stroke="midnightblue" d="M482.81,-624.97C394.16,-612.64 251.82,-592.82 166.47,-580.94"/>
<polygon fill="midnightblue" stroke="midnightblue" points="166.74,-577.45 156.35,-579.53 165.77,-584.38 166.74,-577.45"/>
</g>
<!-- Node29 -->
<g id="node29" class="node">
<title>Node29</title>
<g id="a_node29"><a xlink:href="_spring_8hpp.html" target="_top" xlink:title=" ">
<polygon fill="none" stroke="black" points="179.03,-560.5 179.03,-579.5 315.03,-579.5 315.03,-560.5 179.03,-560.5"/>
<text text-anchor="middle" x="247.03" y="-567.5" font-family="Helvetica,sans-Serif" font-size="10.00">../Constraints/Spring.hpp</text>
</a>
</g>
</g>
<!-- Node1&#45;&gt;Node29 -->
<g id="edge55" class="edge">
<title>Node1&#45;&gt;Node29</title>
<path fill="none" stroke="midnightblue" d="M482.95,-619.68C425.15,-607.75 348.44,-591.92 298.42,-581.6"/>
<polygon fill="midnightblue" stroke="midnightblue" points="298.97,-578.14 288.47,-579.55 297.56,-585 298.97,-578.14"/>
</g>
<!-- Node30 -->
<g id="node30" class="node">
<title>Node30</title>
<g id="a_node30"><a xlink:href="_collision_8hpp.html" target="_top" xlink:title=" ">
<polygon fill="none" stroke="black" points="770.03,-504.5 770.03,-523.5 910.03,-523.5 910.03,-504.5 770.03,-504.5"/>
<text text-anchor="middle" x="840.03" y="-511.5" font-family="Helvetica,sans-Serif" font-size="10.00">../Geometry/Collision.hpp</text>
</a>
</g>
</g>
<!-- Node1&#45;&gt;Node30 -->
<g id="edge61" class="edge">
<title>Node1&#45;&gt;Node30</title>
<path fill="none" stroke="midnightblue" d="M607.01,-616.42C664.51,-591.39 762.44,-548.77 810.98,-527.64"/>
<polygon fill="midnightblue" stroke="midnightblue" points="812.51,-530.8 820.28,-523.6 809.72,-524.38 812.51,-530.8"/>
</g>
<!-- Node31 -->
<g id="node31" class="node">
<title>Node31</title>
<g id="a_node31"><a xlink:href="_quadtree_8hpp.html" target="_top" xlink:title=" ">
<polygon fill="none" stroke="black" points="1056.53,-560.5 1056.53,-579.5 1139.53,-579.5 1139.53,-560.5 1056.53,-560.5"/>
<text text-anchor="middle" x="1098.03" y="-567.5" font-family="Helvetica,sans-Serif" font-size="10.00">QuadTree.hpp</text>
</a>
</g>
</g>
<!-- Node1&#45;&gt;Node31 -->
<g id="edge72" class="edge">
<title>Node1&#45;&gt;Node31</title>
<path fill="none" stroke="midnightblue" d="M641.12,-626.41C752.41,-612.91 952.13,-588.69 1046.26,-577.28"/>
<polygon fill="midnightblue" stroke="midnightblue" points="1046.89,-580.73 1056.39,-576.05 1046.04,-573.78 1046.89,-580.73"/>
</g>
<!-- Node2&#45;&gt;Node3 -->
<g id="edge2" class="edge">
<title>Node2&#45;&gt;Node3</title>
<path fill="none" stroke="midnightblue" d="M302.81,-504.44C365.5,-494.83 467.18,-479.23 533.58,-469.04"/>
<polygon fill="midnightblue" stroke="midnightblue" points="534.16,-472.49 543.52,-467.52 533.1,-465.57 534.16,-472.49"/>
</g>
<!-- Node2&#45;&gt;Node5 -->
<g id="edge48" class="edge">
<title>Node2&#45;&gt;Node5</title>
<path fill="none" stroke="midnightblue" d="M241.75,-504.23C231.31,-486.04 209.03,-442.6 209.03,-403 209.03,-403 209.03,-403 209.03,-345 209.03,-310.81 225.63,-273.76 236.89,-252.57"/>
<polygon fill="midnightblue" stroke="midnightblue" points="239.98,-254.22 241.75,-243.77 233.85,-250.83 239.98,-254.22"/>
</g>
<!-- Node2&#45;&gt;Node6 -->
<g id="edge44" class="edge">
<title>Node2&#45;&gt;Node6</title>
<path fill="none" stroke="midnightblue" d="M258.97,-504.31C295.9,-477.42 408.62,-395.35 454.89,-361.67"/>
<polygon fill="midnightblue" stroke="midnightblue" points="457.19,-364.32 463.21,-355.61 453.07,-358.66 457.19,-364.32"/>
</g>
<!-- Node2&#45;&gt;Node10 -->
<g id="edge46" class="edge">
<title>Node2&#45;&gt;Node10</title>
<path fill="none" stroke="midnightblue" d="M252.72,-504.38C272.78,-474.77 343.73,-376.84 430.03,-336 467.19,-318.42 570.81,-305.5 645.65,-298.13"/>
<polygon fill="midnightblue" stroke="midnightblue" points="646.4,-301.57 656.01,-297.12 645.72,-294.61 646.4,-301.57"/>
</g>
<!-- Node2&#45;&gt;Node14 -->
<g id="edge47" class="edge">
<title>Node2&#45;&gt;Node14</title>
<path fill="none" stroke="midnightblue" d="M235.49,-504.43C214.23,-487.57 171.03,-447.8 171.03,-403 171.03,-403 171.03,-403 171.03,-345 171.03,-81.57 458.57,-167.75 716.03,-112 770.68,-100.17 833.38,-86.75 875.93,-77.67"/>
<polygon fill="midnightblue" stroke="midnightblue" points="876.71,-81.09 885.76,-75.58 875.25,-74.24 876.71,-81.09"/>
</g>
<!-- Node2&#45;&gt;Node26 -->
<g id="edge45" class="edge">
<title>Node2&#45;&gt;Node26</title>
<path fill="none" stroke="midnightblue" d="M275.83,-504.46C341.93,-484.86 504.55,-436.65 579.3,-414.48"/>
<polygon fill="midnightblue" stroke="midnightblue" points="580.65,-417.73 589.25,-411.53 578.66,-411.02 580.65,-417.73"/>
</g>
<!-- Node4 -->
<g id="node4" class="node">
<title>Node4</title>
<g id="a_node4"><a xlink:title=" ">
<polygon fill="none" stroke="#bfbfbf" points="595.53,-0.5 595.53,-19.5 642.53,-19.5 642.53,-0.5 595.53,-0.5"/>
<text text-anchor="middle" x="619.03" y="-7.5" font-family="Helvetica,sans-Serif" font-size="10.00">vector</text>
</a>
</g>
</g>
<!-- Node3&#45;&gt;Node4 -->
<g id="edge3" class="edge">
<title>Node3&#45;&gt;Node4</title>
<path fill="none" stroke="midnightblue" d="M592.36,-448.44C579.17,-430.62 551.03,-387.84 551.03,-347 551.03,-347 551.03,-347 551.03,-121 551.03,-82.55 581.47,-46.31 601.61,-26.54"/>
<polygon fill="midnightblue" stroke="midnightblue" points="604.13,-28.98 609,-19.57 599.32,-23.89 604.13,-28.98"/>
</g>
<!-- Node3&#45;&gt;Node5 -->
<g id="edge4" class="edge">
<title>Node3&#45;&gt;Node5</title>
<path fill="none" stroke="midnightblue" d="M574.63,-448.45C521.11,-428.82 391.33,-376.24 305.03,-300 288.11,-285.05 271.2,-265.43 260.04,-251.67"/>
<polygon fill="midnightblue" stroke="midnightblue" points="262.57,-249.23 253.6,-243.59 257.09,-253.59 262.57,-249.23"/>
</g>
<!-- Node3&#45;&gt;Node6 -->
<g id="edge5" class="edge">
<title>Node3&#45;&gt;Node6</title>
<path fill="none" stroke="midnightblue" d="M585.68,-448.35C572.76,-439.73 552.85,-425.83 537.03,-412 519.53,-396.7 501.39,-377.18 489.29,-363.54"/>
<polygon fill="midnightblue" stroke="midnightblue" points="491.81,-361.11 482.59,-355.9 486.55,-365.73 491.81,-361.11"/>
</g>
<!-- Node3&#45;&gt;Node26 -->
<g id="edge39" class="edge">
<title>Node3&#45;&gt;Node26</title>
<path fill="none" stroke="midnightblue" d="M597,-448.08C598.04,-440.69 601.41,-429.95 605.37,-420.81"/>
<polygon fill="midnightblue" stroke="midnightblue" points="608.56,-422.27 609.82,-411.75 602.27,-419.19 608.56,-422.27"/>
</g>
<!-- Node6&#45;&gt;Node4 -->
<g id="edge9" class="edge">
<title>Node6&#45;&gt;Node4</title>
<path fill="none" stroke="midnightblue" d="M480.31,-336.23C490.76,-318.04 513.03,-274.6 513.03,-235 513.03,-235 513.03,-235 513.03,-121 513.03,-90.2 516.93,-79.33 537.03,-56 549.97,-40.99 569.21,-30.06 585.8,-22.74"/>
<polygon fill="midnightblue" stroke="midnightblue" points="587.3,-25.9 595.2,-18.84 584.62,-19.44 587.3,-25.9"/>
</g>
<!-- Node6&#45;&gt;Node5 -->
<g id="edge38" class="edge">
<title>Node6&#45;&gt;Node5</title>
<path fill="none" stroke="midnightblue" d="M457.14,-336.37C417.35,-317.17 321.32,-270.84 274.13,-248.07"/>
<polygon fill="midnightblue" stroke="midnightblue" points="275.37,-244.78 264.84,-243.59 272.32,-251.09 275.37,-244.78"/>
</g>
<!-- Node7 -->
<g id="node7" class="node">
<title>Node7</title>
<g id="a_node7"><a xlink:title=" ">
<polygon fill="none" stroke="#bfbfbf" points="375.53,-0.5 375.53,-19.5 422.53,-19.5 422.53,-0.5 375.53,-0.5"/>
<text text-anchor="middle" x="399.03" y="-7.5" font-family="Helvetica,sans-Serif" font-size="10.00">cmath</text>
</a>
</g>
</g>
<!-- Node6&#45;&gt;Node7 -->
<g id="edge6" class="edge">
<title>Node6&#45;&gt;Node7</title>
<path fill="none" stroke="midnightblue" d="M463.49,-336.43C442.23,-319.57 399.03,-279.8 399.03,-235 399.03,-235 399.03,-235 399.03,-121 399.03,-88.95 399.03,-51.64 399.03,-29.75"/>
<polygon fill="midnightblue" stroke="midnightblue" points="402.53,-29.56 399.03,-19.56 395.53,-29.56 402.53,-29.56"/>
</g>
<!-- Node8 -->
<g id="node8" class="node">
<title>Node8</title>
<g id="a_node8"><a xlink:title=" ">
<polygon fill="none" stroke="#bfbfbf" points="441.03,-0.5 441.03,-19.5 501.03,-19.5 501.03,-0.5 441.03,-0.5"/>
<text text-anchor="middle" x="471.03" y="-7.5" font-family="Helvetica,sans-Serif" font-size="10.00">iostream</text>
</a>
</g>
</g>
<!-- Node6&#45;&gt;Node8 -->
<g id="edge7" class="edge">
<title>Node6&#45;&gt;Node8</title>
<path fill="none" stroke="midnightblue" d="M469.75,-336.23C459.31,-318.04 437.03,-274.6 437.03,-235 437.03,-235 437.03,-235 437.03,-121 437.03,-87.16 451.9,-49.97 461.97,-28.66"/>
<polygon fill="midnightblue" stroke="midnightblue" points="465.18,-30.08 466.45,-19.56 458.89,-26.99 465.18,-30.08"/>
</g>
<!-- Node9 -->
<g id="node9" class="node">
<title>Node9</title>
<g id="a_node9"><a xlink:title=" ">
<polygon fill="none" stroke="#bfbfbf" points="519.03,-0.5 519.03,-19.5 577.03,-19.5 577.03,-0.5 519.03,-0.5"/>
<text text-anchor="middle" x="548.03" y="-7.5" font-family="Helvetica,sans-Serif" font-size="10.00">memory</text>
</a>
</g>
</g>
<!-- Node6&#45;&gt;Node9 -->
<g id="edge8" class="edge">
<title>Node6&#45;&gt;Node9</title>
<path fill="none" stroke="midnightblue" d="M475.03,-336.44C475.03,-317.94 475.03,-272.81 475.03,-235 475.03,-235 475.03,-235 475.03,-121 475.03,-90.2 481.88,-81.58 499.03,-56 506.69,-44.57 517.83,-34.04 527.56,-26.04"/>
<polygon fill="midnightblue" stroke="midnightblue" points="529.92,-28.64 535.61,-19.7 525.59,-23.13 529.92,-28.64"/>
</g>
<!-- Node6&#45;&gt;Node10 -->
<g id="edge10" class="edge">
<title>Node6&#45;&gt;Node10</title>
<path fill="none" stroke="midnightblue" d="M510.62,-337.43C554.43,-328.12 629.12,-312.24 678.77,-301.69"/>
<polygon fill="midnightblue" stroke="midnightblue" points="679.6,-305.09 688.66,-299.58 678.15,-298.24 679.6,-305.09"/>
</g>
<!-- Node10&#45;&gt;Node5 -->
<g id="edge31" class="edge">
<title>Node10&#45;&gt;Node5</title>
<path fill="none" stroke="midnightblue" d="M655.83,-280.8C554.42,-269.44 374.35,-249.26 291.27,-239.96"/>
<polygon fill="midnightblue" stroke="midnightblue" points="291.49,-236.46 281.16,-238.82 290.71,-243.42 291.49,-236.46"/>
</g>
<!-- Node11 -->
<g id="node11" class="node">
<title>Node11</title>
<g id="a_node11"><a xlink:href="_recorder_8hpp.html" target="_top" xlink:title=" ">
<polygon fill="none" stroke="black" points="655.03,-224.5 655.03,-243.5 803.03,-243.5 803.03,-224.5 655.03,-224.5"/>
<text text-anchor="middle" x="729.03" y="-231.5" font-family="Helvetica,sans-Serif" font-size="10.00">../Benchmark/Recorder.hpp</text>
</a>
</g>
</g>
<!-- Node10&#45;&gt;Node11 -->
<g id="edge11" class="edge">
<title>Node10&#45;&gt;Node11</title>
<path fill="none" stroke="midnightblue" d="M729.03,-280.08C729.03,-273.01 729.03,-262.86 729.03,-253.99"/>
<polygon fill="midnightblue" stroke="midnightblue" points="732.53,-253.75 729.03,-243.75 725.53,-253.75 732.53,-253.75"/>
</g>
<!-- Node10&#45;&gt;Node14 -->
<g id="edge32" class="edge">
<title>Node10&#45;&gt;Node14</title>
<path fill="none" stroke="midnightblue" d="M696.85,-280.49C678.49,-273.8 657.02,-262.45 646.03,-244 626.45,-211.11 682.65,-175.09 689.03,-168 713.23,-141.14 716.36,-129.44 748.03,-112 779.79,-94.51 818.46,-83.68 851.63,-77.04"/>
<polygon fill="midnightblue" stroke="midnightblue" points="852.57,-80.42 861.74,-75.11 851.26,-73.55 852.57,-80.42"/>
</g>
<!-- Node23 -->
<g id="node23" class="node">
<title>Node23</title>
<g id="a_node23"><a xlink:href="_bounds_8hpp.html" target="_top" xlink:title=" ">
<polygon fill="none" stroke="black" points="1031.03,-168.5 1031.03,-187.5 1105.03,-187.5 1105.03,-168.5 1031.03,-168.5"/>
<text text-anchor="middle" x="1068.03" y="-175.5" font-family="Helvetica,sans-Serif" font-size="10.00">Bounds.hpp</text>
</a>
</g>
</g>
<!-- Node10&#45;&gt;Node23 -->
<g id="edge27" class="edge">
<title>Node10&#45;&gt;Node23</title>
<path fill="none" stroke="midnightblue" d="M793.97,-280.49C837.8,-273.55 896.46,-261.93 946.03,-244 983.09,-230.6 1022.8,-207.65 1046.52,-192.91"/>
<polygon fill="midnightblue" stroke="midnightblue" points="1048.48,-195.81 1055.07,-187.52 1044.74,-189.89 1048.48,-195.81"/>
</g>
<!-- Node24 -->
<g id="node24" class="node">
<title>Node24</title>
<g id="a_node24"><a xlink:href="_vector_8hpp.html" target="_top" xlink:title=" ">
<polygon fill="none" stroke="black" points="1069.03,-112.5 1069.03,-131.5 1137.03,-131.5 1137.03,-112.5 1069.03,-112.5"/>
<text text-anchor="middle" x="1103.03" y="-119.5" font-family="Helvetica,sans-Serif" font-size="10.00">Vector.hpp</text>
</a>
</g>
</g>
<!-- Node10&#45;&gt;Node24 -->
<g id="edge33" class="edge">
<title>Node10&#45;&gt;Node24</title>
<path fill="none" stroke="midnightblue" d="M744.65,-280.49C772.65,-265.27 830.42,-234.02 851.03,-224 906.51,-197.03 920.75,-190.91 978.03,-168 1008.09,-155.98 1042.77,-143.61 1067.96,-134.89"/>
<polygon fill="midnightblue" stroke="midnightblue" points="1069.14,-138.19 1077.46,-131.62 1066.86,-131.57 1069.14,-138.19"/>
</g>
<!-- Node25 -->
<g id="node25" class="node">
<title>Node25</title>
<g id="a_node25"><a xlink:href="_vertices_8hpp.html" target="_top" xlink:title=" ">
<polygon fill="none" stroke="black" points="859.53,-224.5 859.53,-243.5 936.53,-243.5 936.53,-224.5 859.53,-224.5"/>
<text text-anchor="middle" x="898.03" y="-231.5" font-family="Helvetica,sans-Serif" font-size="10.00">Vertices.hpp</text>
</a>
</g>
</g>
<!-- Node10&#45;&gt;Node25 -->
<g id="edge34" class="edge">
<title>Node10&#45;&gt;Node25</title>
<path fill="none" stroke="midnightblue" d="M755.81,-280.44C784.36,-271.32 829.76,-256.81 861.57,-246.65"/>
<polygon fill="midnightblue" stroke="midnightblue" points="862.92,-249.89 871.38,-243.52 860.79,-243.23 862.92,-249.89"/>
</g>
<!-- Node12 -->
<g id="node12" class="node">
<title>Node12</title>
<g id="a_node12"><a xlink:href="_performance_8hpp.html" target="_top" xlink:title=" ">
<polygon fill="none" stroke="black" points="698.03,-168.5 698.03,-187.5 798.03,-187.5 798.03,-168.5 698.03,-168.5"/>
<text text-anchor="middle" x="748.03" y="-175.5" font-family="Helvetica,sans-Serif" font-size="10.00">Performance.hpp</text>
</a>
</g>
</g>
<!-- Node11&#45;&gt;Node12 -->
<g id="edge12" class="edge">
<title>Node11&#45;&gt;Node12</title>
<path fill="none" stroke="midnightblue" d="M732.17,-224.08C734.71,-216.85 738.39,-206.41 741.56,-197.4"/>
<polygon fill="midnightblue" stroke="midnightblue" points="744.93,-198.35 744.95,-187.75 738.33,-196.02 744.93,-198.35"/>
</g>
<!-- Node13 -->
<g id="node13" class="node">
<title>Node13</title>
<g id="a_node13"><a xlink:href="_block_data_8hpp.html" target="_top" xlink:title=" ">
<polygon fill="none" stroke="black" points="757.03,-112.5 757.03,-131.5 845.03,-131.5 845.03,-112.5 757.03,-112.5"/>
<text text-anchor="middle" x="801.03" y="-119.5" font-family="Helvetica,sans-Serif" font-size="10.00">BlockData.hpp</text>
</a>
</g>
</g>
<!-- Node12&#45;&gt;Node13 -->
<g id="edge13" class="edge">
<title>Node12&#45;&gt;Node13</title>
<path fill="none" stroke="midnightblue" d="M756.78,-168.08C764.5,-160.22 775.94,-148.57 785.25,-139.08"/>
<polygon fill="midnightblue" stroke="midnightblue" points="787.93,-141.34 792.44,-131.75 782.94,-136.44 787.93,-141.34"/>
</g>
<!-- Node13&#45;&gt;Node14 -->
<g id="edge14" class="edge">
<title>Node13&#45;&gt;Node14</title>
<path fill="none" stroke="midnightblue" d="M820.84,-112.44C841.32,-103.6 873.51,-89.69 896.9,-79.59"/>
<polygon fill="midnightblue" stroke="midnightblue" points="898.52,-82.7 906.32,-75.52 895.75,-76.27 898.52,-82.7"/>
</g>
<!-- Node14&#45;&gt;Node4 -->
<g id="edge26" class="edge">
<title>Node14&#45;&gt;Node4</title>
<path fill="none" stroke="midnightblue" d="M862.56,-56.48C809.08,-48.86 730.4,-36.65 652.71,-19.95"/>
<polygon fill="midnightblue" stroke="midnightblue" points="653.27,-16.49 642.75,-17.78 651.78,-23.33 653.27,-16.49"/>
</g>
<!-- Node14&#45;&gt;Node7 -->
<g id="edge17" class="edge">
<title>Node14&#45;&gt;Node7</title>
<path fill="none" stroke="midnightblue" d="M862,-62.75C769.28,-58.71 592.24,-48.02 432.71,-19.79"/>
<polygon fill="midnightblue" stroke="midnightblue" points="433.17,-16.32 422.71,-17.99 431.93,-23.21 433.17,-16.32"/>
</g>
<!-- Node14&#45;&gt;Node8 -->
<g id="edge20" class="edge">
<title>Node14&#45;&gt;Node8</title>
<path fill="none" stroke="midnightblue" d="M861.92,-60.45C782.02,-54.24 641.15,-41.56 511.32,-20.03"/>
<polygon fill="midnightblue" stroke="midnightblue" points="511.63,-16.54 501.19,-18.33 510.48,-23.44 511.63,-16.54"/>
</g>
<!-- Node14&#45;&gt;Node9 -->
<g id="edge22" class="edge">
<title>Node14&#45;&gt;Node9</title>
<path fill="none" stroke="midnightblue" d="M862.02,-58.33C795.79,-51.02 689.17,-38.11 587.21,-19.86"/>
<polygon fill="midnightblue" stroke="midnightblue" points="587.82,-16.42 577.36,-18.08 586.57,-23.31 587.82,-16.42"/>
</g>
<!-- Node15 -->
<g id="node15" class="node">
<title>Node15</title>
<g id="a_node15"><a xlink:title=" ">
<polygon fill="none" stroke="#bfbfbf" points="1092.03,-0.5 1092.03,-19.5 1134.03,-19.5 1134.03,-0.5 1092.03,-0.5"/>
<text text-anchor="middle" x="1113.03" y="-7.5" font-family="Helvetica,sans-Serif" font-size="10.00">array</text>
</a>
</g>
</g>
<!-- Node14&#45;&gt;Node15 -->
<g id="edge15" class="edge">
<title>Node14&#45;&gt;Node15</title>
<path fill="none" stroke="midnightblue" d="M956.16,-56.48C985.81,-48.07 1032.63,-34.73 1081.86,-20.32"/>
<polygon fill="midnightblue" stroke="midnightblue" points="1083.12,-23.6 1091.74,-17.42 1081.15,-16.88 1083.12,-23.6"/>
</g>
<!-- Node16 -->
<g id="node16" class="node">
<title>Node16</title>
<g id="a_node16"><a xlink:title=" ">
<polygon fill="none" stroke="#bfbfbf" points="1152.03,-0.5 1152.03,-19.5 1202.03,-19.5 1202.03,-0.5 1152.03,-0.5"/>
<text text-anchor="middle" x="1177.03" y="-7.5" font-family="Helvetica,sans-Serif" font-size="10.00">chrono</text>
</a>
</g>
</g>
<!-- Node14&#45;&gt;Node16 -->
<g id="edge16" class="edge">
<title>Node14&#45;&gt;Node16</title>
<path fill="none" stroke="midnightblue" d="M970.66,-56.48C1012.49,-48.33 1076.99,-35.35 1141.83,-20.19"/>
<polygon fill="midnightblue" stroke="midnightblue" points="1142.89,-23.54 1151.82,-17.84 1141.28,-16.72 1142.89,-23.54"/>
</g>
<!-- Node17 -->
<g id="node17" class="node">
<title>Node17</title>
<g id="a_node17"><a xlink:title=" ">
<polygon fill="none" stroke="#bfbfbf" points="1220.53,-0.5 1220.53,-19.5 1267.53,-19.5 1267.53,-0.5 1220.53,-0.5"/>
<text text-anchor="middle" x="1244.03" y="-7.5" font-family="Helvetica,sans-Serif" font-size="10.00">deque</text>
</a>
</g>
</g>
<!-- Node14&#45;&gt;Node17 -->
<g id="edge18" class="edge">
<title>Node14&#45;&gt;Node17</title>
<path fill="none" stroke="midnightblue" d="M990.07,-56.93C1045.81,-49.45 1128.93,-37.17 1210.39,-19.93"/>
<polygon fill="midnightblue" stroke="midnightblue" points="1211.27,-23.32 1220.31,-17.8 1209.8,-16.48 1211.27,-23.32"/>
</g>
<!-- Node18 -->
<g id="node18" class="node">
<title>Node18</title>
<g id="a_node18"><a xlink:title=" ">
<polygon fill="none" stroke="#bfbfbf" points="660.53,-0.5 660.53,-19.5 725.53,-19.5 725.53,-0.5 660.53,-0.5"/>
<text text-anchor="middle" x="693.03" y="-7.5" font-family="Helvetica,sans-Serif" font-size="10.00">functional</text>
</a>
</g>
</g>
<!-- Node14&#45;&gt;Node18 -->
<g id="edge19" class="edge">
<title>Node14&#45;&gt;Node18</title>
<path fill="none" stroke="midnightblue" d="M889.11,-56.44C847.33,-46.76 779.38,-31.01 735.45,-20.83"/>
<polygon fill="midnightblue" stroke="midnightblue" points="736.17,-17.41 725.64,-18.56 734.59,-24.23 736.17,-17.41"/>
</g>
<!-- Node19 -->
<g id="node19" class="node">
<title>Node19</title>
<g id="a_node19"><a xlink:title=" ">
<polygon fill="none" stroke="#bfbfbf" points="743.53,-0.5 743.53,-19.5 796.53,-19.5 796.53,-0.5 743.53,-0.5"/>
<text text-anchor="middle" x="770.03" y="-7.5" font-family="Helvetica,sans-Serif" font-size="10.00">iterator</text>
</a>
</g>
</g>
<!-- Node14&#45;&gt;Node19 -->
<g id="edge21" class="edge">
<title>Node14&#45;&gt;Node19</title>
<path fill="none" stroke="midnightblue" d="M901.31,-56.44C875.18,-47.4 833.77,-33.06 804.45,-22.92"/>
<polygon fill="midnightblue" stroke="midnightblue" points="805.23,-19.48 794.63,-19.52 802.94,-26.1 805.23,-19.48"/>
</g>
<!-- Node20 -->
<g id="node20" class="node">
<title>Node20</title>
<g id="a_node20"><a xlink:title=" ">
<polygon fill="none" stroke="#bfbfbf" points="815.03,-0.5 815.03,-19.5 871.03,-19.5 871.03,-0.5 815.03,-0.5"/>
<text text-anchor="middle" x="843.03" y="-7.5" font-family="Helvetica,sans-Serif" font-size="10.00">sstream</text>
</a>
</g>
</g>
<!-- Node14&#45;&gt;Node20 -->
<g id="edge23" class="edge">
<title>Node14&#45;&gt;Node20</title>
<path fill="none" stroke="midnightblue" d="M912.7,-56.32C899.87,-47.98 880.25,-35.21 865.09,-25.35"/>
<polygon fill="midnightblue" stroke="midnightblue" points="866.62,-22.17 856.33,-19.65 862.81,-28.04 866.62,-22.17"/>
</g>
<!-- Node21 -->
<g id="node21" class="node">
<title>Node21</title>
<g id="a_node21"><a xlink:title=" ">
<polygon fill="none" stroke="#bfbfbf" points="889.53,-0.5 889.53,-19.5 962.53,-19.5 962.53,-0.5 889.53,-0.5"/>
<text text-anchor="middle" x="926.03" y="-7.5" font-family="Helvetica,sans-Serif" font-size="10.00">string_view</text>
</a>
</g>
</g>
<!-- Node14&#45;&gt;Node21 -->
<g id="edge24" class="edge">
<title>Node14&#45;&gt;Node21</title>
<path fill="none" stroke="midnightblue" d="M926.03,-56.08C926.03,-49.01 926.03,-38.86 926.03,-29.99"/>
<polygon fill="midnightblue" stroke="midnightblue" points="929.53,-29.75 926.03,-19.75 922.53,-29.75 929.53,-29.75"/>
</g>
<!-- Node22 -->
<g id="node22" class="node">
<title>Node22</title>
<g id="a_node22"><a xlink:title=" ">
<polygon fill="none" stroke="#bfbfbf" points="980.53,-0.5 980.53,-19.5 1073.53,-19.5 1073.53,-0.5 980.53,-0.5"/>
<text text-anchor="middle" x="1027.03" y="-7.5" font-family="Helvetica,sans-Serif" font-size="10.00">unordered_map</text>
</a>
</g>
</g>
<!-- Node14&#45;&gt;Node22 -->
<g id="edge25" class="edge">
<title>Node14&#45;&gt;Node22</title>
<path fill="none" stroke="midnightblue" d="M942.26,-56.32C958.38,-47.7 983.33,-34.36 1001.99,-24.39"/>
<polygon fill="midnightblue" stroke="midnightblue" points="1003.68,-27.46 1010.84,-19.65 1000.37,-21.28 1003.68,-27.46"/>
</g>
<!-- Node23&#45;&gt;Node14 -->
<g id="edge28" class="edge">
<title>Node23&#45;&gt;Node14</title>
<path fill="none" stroke="midnightblue" d="M1063.06,-168.42C1054.9,-154.94 1037.51,-128.64 1017.03,-112 1000.07,-98.21 978.18,-87.22 960.12,-79.56"/>
<polygon fill="midnightblue" stroke="midnightblue" points="961.12,-76.18 950.54,-75.64 958.47,-82.66 961.12,-76.18"/>
</g>
<!-- Node23&#45;&gt;Node24 -->
<g id="edge29" class="edge">
<title>Node23&#45;&gt;Node24</title>
<path fill="none" stroke="midnightblue" d="M1073.81,-168.08C1078.7,-160.53 1085.86,-149.49 1091.86,-140.23"/>
<polygon fill="midnightblue" stroke="midnightblue" points="1094.86,-142.05 1097.36,-131.75 1088.98,-138.24 1094.86,-142.05"/>
</g>
<!-- Node24&#45;&gt;Node14 -->
<g id="edge30" class="edge">
<title>Node24&#45;&gt;Node14</title>
<path fill="none" stroke="midnightblue" d="M1074.98,-112.44C1044.95,-103.28 997.12,-88.69 963.79,-78.52"/>
<polygon fill="midnightblue" stroke="midnightblue" points="964.53,-75.09 953.95,-75.52 962.49,-81.78 964.53,-75.09"/>
</g>
<!-- Node25&#45;&gt;Node14 -->
<g id="edge36" class="edge">
<title>Node25&#45;&gt;Node14</title>
<path fill="none" stroke="midnightblue" d="M899.54,-224.08C903.94,-197.95 916.89,-121.21 922.9,-85.58"/>
<polygon fill="midnightblue" stroke="midnightblue" points="926.37,-86.01 924.59,-75.57 919.47,-84.85 926.37,-86.01"/>
</g>
<!-- Node25&#45;&gt;Node23 -->
<g id="edge35" class="edge">
<title>Node25&#45;&gt;Node23</title>
<path fill="none" stroke="midnightblue" d="M924.97,-224.44C953.69,-215.32 999.36,-200.81 1031.35,-190.65"/>
<polygon fill="midnightblue" stroke="midnightblue" points="1032.75,-193.88 1041.22,-187.52 1030.63,-187.21 1032.75,-193.88"/>
</g>
<!-- Node25&#45;&gt;Node24 -->
<g id="edge37" class="edge">
<title>Node25&#45;&gt;Node24</title>
<path fill="none" stroke="midnightblue" d="M914.12,-224.37C949.74,-205.25 1035.51,-159.23 1078.13,-136.36"/>
<polygon fill="midnightblue" stroke="midnightblue" points="1079.86,-139.4 1087.02,-131.59 1076.55,-133.24 1079.86,-139.4"/>
</g>
<!-- Node26&#45;&gt;Node3 -->
<g id="edge41" class="edge">
<title>Node26&#45;&gt;Node3</title>
<path fill="none" stroke="midnightblue" d="M620.08,-411.75C619.08,-419.09 615.73,-429.82 611.78,-438.98"/>
<polygon fill="midnightblue" stroke="midnightblue" points="608.58,-437.56 607.33,-448.08 614.87,-440.63 608.58,-437.56"/>
</g>
<!-- Node26&#45;&gt;Node4 -->
<g id="edge40" class="edge">
<title>Node26&#45;&gt;Node4</title>
<path fill="none" stroke="midnightblue" d="M618.05,-392.49C618.18,-343.84 618.8,-100.61 618.98,-30.15"/>
<polygon fill="midnightblue" stroke="midnightblue" points="622.48,-29.74 619.01,-19.73 615.48,-29.72 622.48,-29.74"/>
</g>
<!-- Node26&#45;&gt;Node5 -->
<g id="edge42" class="edge">
<title>Node26&#45;&gt;Node5</title>
<path fill="none" stroke="midnightblue" d="M579.51,-395.34C540.74,-388.83 479.73,-376.34 430.03,-356 385.38,-337.72 377.29,-326.59 337.03,-300 312.02,-283.48 284.17,-263.04 266.17,-249.54"/>
<polygon fill="midnightblue" stroke="midnightblue" points="268.28,-246.74 258.18,-243.52 264.06,-252.33 268.28,-246.74"/>
</g>
<!-- Node26&#45;&gt;Node6 -->
<g id="edge43" class="edge">
<title>Node26&#45;&gt;Node6</title>
<path fill="none" stroke="midnightblue" d="M595.37,-392.44C571.63,-383.48 534.12,-369.31 507.29,-359.18"/>
<polygon fill="midnightblue" stroke="midnightblue" points="508.18,-355.77 497.58,-355.52 505.7,-362.32 508.18,-355.77"/>
</g>
<!-- Node27&#45;&gt;Node2 -->
<g id="edge51" class="edge">
<title>Node27&#45;&gt;Node2</title>
<path fill="none" stroke="midnightblue" d="M404.4,-560.44C372.53,-551.24 321.7,-536.56 286.47,-526.39"/>
<polygon fill="midnightblue" stroke="midnightblue" points="287.1,-522.93 276.52,-523.52 285.16,-529.65 287.1,-522.93"/>
</g>
<!-- Node27&#45;&gt;Node5 -->
<g id="edge50" class="edge">
<title>Node27&#45;&gt;Node5</title>
<path fill="none" stroke="midnightblue" d="M428.98,-560.21C409.67,-526.59 338.78,-402.86 282.03,-300 273.25,-284.08 263.45,-265.85 256.46,-252.75"/>
<polygon fill="midnightblue" stroke="midnightblue" points="259.52,-251.04 251.73,-243.86 253.34,-254.33 259.52,-251.04"/>
</g>
<!-- Node28&#45;&gt;Node2 -->
<g id="edge54" class="edge">
<title>Node28&#45;&gt;Node2</title>
<path fill="none" stroke="midnightblue" d="M119.12,-560.44C144.58,-551.4 184.92,-537.06 213.49,-526.92"/>
<polygon fill="midnightblue" stroke="midnightblue" points="214.81,-530.16 223.06,-523.52 212.46,-523.57 214.81,-530.16"/>
</g>
<!-- Node28&#45;&gt;Node5 -->
<g id="edge53" class="edge">
<title>Node28&#45;&gt;Node5</title>
<path fill="none" stroke="midnightblue" d="M95.03,-560.44C95.03,-541.94 95.03,-496.81 95.03,-459 95.03,-459 95.03,-459 95.03,-345 95.03,-291.13 158.46,-260.96 203.36,-246.34"/>
<polygon fill="midnightblue" stroke="midnightblue" points="204.41,-249.69 212.92,-243.38 202.33,-243 204.41,-249.69"/>
</g>
<!-- Node29&#45;&gt;Node2 -->
<g id="edge57" class="edge">
<title>Node29&#45;&gt;Node2</title>
<path fill="none" stroke="midnightblue" d="M247.03,-560.08C247.03,-553.01 247.03,-542.86 247.03,-533.99"/>
<polygon fill="midnightblue" stroke="midnightblue" points="250.53,-533.75 247.03,-523.75 243.53,-533.75 250.53,-533.75"/>
</g>
<!-- Node29&#45;&gt;Node5 -->
<g id="edge56" class="edge">
<title>Node29&#45;&gt;Node5</title>
<path fill="none" stroke="midnightblue" d="M219.56,-560.45C200.65,-553.34 176.15,-541.52 160.03,-524 138.86,-500.97 133.03,-490.28 133.03,-459 133.03,-459 133.03,-459 133.03,-345 133.03,-298.11 183.58,-264.89 217.36,-247.93"/>
<polygon fill="midnightblue" stroke="midnightblue" points="218.9,-251.07 226.39,-243.58 215.86,-244.77 218.9,-251.07"/>
</g>
<!-- Node30&#45;&gt;Node3 -->
<g id="edge62" class="edge">
<title>Node30&#45;&gt;Node3</title>
<path fill="none" stroke="midnightblue" d="M801.84,-504.44C759.89,-495.04 692.44,-479.93 646.96,-469.74"/>
<polygon fill="midnightblue" stroke="midnightblue" points="647.56,-466.29 637.04,-467.52 646.03,-473.12 647.56,-466.29"/>
</g>
<!-- Node30&#45;&gt;Node6 -->
<g id="edge63" class="edge">
<title>Node30&#45;&gt;Node6</title>
<path fill="none" stroke="midnightblue" d="M769.85,-510.34C690.83,-506.06 568.66,-495.15 532.03,-468 498.4,-443.08 483.87,-393.26 478.22,-365.97"/>
<polygon fill="midnightblue" stroke="midnightblue" points="481.59,-364.97 476.31,-355.78 474.71,-366.26 481.59,-364.97"/>
</g>
<!-- Node30&#45;&gt;Node14 -->
<g id="edge66" class="edge">
<title>Node30&#45;&gt;Node14</title>
<path fill="none" stroke="midnightblue" d="M852.54,-504.47C863.51,-496.34 879.05,-483.13 888.03,-468 944.91,-372.14 953.09,-335.24 946.03,-224 942.85,-173.89 934.02,-115.32 929.23,-85.9"/>
<polygon fill="midnightblue" stroke="midnightblue" points="932.64,-85.11 927.55,-75.81 925.74,-86.25 932.64,-85.11"/>
</g>
<!-- Node30&#45;&gt;Node23 -->
<g id="edge65" class="edge">
<title>Node30&#45;&gt;Node23</title>
<path fill="none" stroke="midnightblue" d="M870.3,-504.43C891.74,-497.26 920.27,-485.37 941.03,-468 1028.55,-394.75 1057.72,-249.43 1065.56,-197.77"/>
<polygon fill="midnightblue" stroke="midnightblue" points="1069.04,-198.12 1066.99,-187.72 1062.11,-197.13 1069.04,-198.12"/>
</g>
<!-- Node30&#45;&gt;Node24 -->
<g id="edge67" class="edge">
<title>Node30&#45;&gt;Node24</title>
<path fill="none" stroke="midnightblue" d="M879.46,-504.46C905.2,-497.56 938.6,-485.99 964.03,-468 993.85,-446.91 1083.43,-317.29 1091.03,-300 1115,-245.49 1121.15,-227.12 1114.03,-168 1112.96,-159.11 1110.74,-149.43 1108.57,-141.34"/>
<polygon fill="midnightblue" stroke="midnightblue" points="1111.87,-140.17 1105.76,-131.51 1105.14,-142.09 1111.87,-140.17"/>
</g>
<!-- Node30&#45;&gt;Node25 -->
<g id="edge68" class="edge">
<title>Node30&#45;&gt;Node25</title>
<path fill="none" stroke="midnightblue" d="M846.84,-504.46C860.31,-486.69 889.03,-443.98 889.03,-403 889.03,-403 889.03,-403 889.03,-345 889.03,-312.84 892.9,-275.57 895.56,-253.71"/>
<polygon fill="midnightblue" stroke="midnightblue" points="899.07,-253.9 896.85,-243.54 892.12,-253.02 899.07,-253.9"/>
</g>
<!-- Node30&#45;&gt;Node26 -->
<g id="edge64" class="edge">
<title>Node30&#45;&gt;Node26</title>
<path fill="none" stroke="midnightblue" d="M830.95,-504.23C816.29,-490.51 786.02,-463.87 756.03,-448 727.47,-432.88 692.89,-421.61 665.49,-414.14"/>
<polygon fill="midnightblue" stroke="midnightblue" points="666.31,-410.73 655.74,-411.55 664.51,-417.5 666.31,-410.73"/>
</g>
<!-- Node31&#45;&gt;Node3 -->
<g id="edge73" class="edge">
<title>Node31&#45;&gt;Node3</title>
<path fill="none" stroke="midnightblue" d="M1056.29,-568.57C986.74,-566.84 843.38,-558.91 728.03,-524 688.23,-511.95 645.87,-488.24 620.96,-473.03"/>
<polygon fill="midnightblue" stroke="midnightblue" points="622.65,-469.96 612.31,-467.66 618.96,-475.91 622.65,-469.96"/>
</g>
<!-- Node31&#45;&gt;Node6 -->
<g id="edge74" class="edge">
<title>Node31&#45;&gt;Node6</title>
<path fill="none" stroke="midnightblue" d="M1079.89,-560.35C1021.21,-532.64 830.82,-444.81 666.03,-392 617.19,-376.35 559.74,-363.54 520.7,-355.65"/>
<polygon fill="midnightblue" stroke="midnightblue" points="521.18,-352.18 510.69,-353.65 519.81,-359.04 521.18,-352.18"/>
</g>
<!-- Node31&#45;&gt;Node14 -->
<g id="edge77" class="edge">
<title>Node31&#45;&gt;Node14</title>
<path fill="none" stroke="midnightblue" d="M1139.86,-561.17C1190.49,-549 1269.03,-520.24 1269.03,-459 1269.03,-459 1269.03,-459 1269.03,-177 1269.03,-130.15 1228.85,-131.01 1186.03,-112 1126.93,-85.76 1053.96,-74.77 1000.38,-70.2"/>
<polygon fill="midnightblue" stroke="midnightblue" points="1000.52,-66.7 990.27,-69.39 999.96,-73.68 1000.52,-66.7"/>
</g>
<!-- Node31&#45;&gt;Node23 -->
<g id="edge76" class="edge">
<title>Node31&#45;&gt;Node23</title>
<path fill="none" stroke="midnightblue" d="M1114.66,-560.46C1127.52,-552.84 1144.37,-540.36 1152.03,-524 1155.8,-515.95 1153.06,-512.83 1152.03,-504 1137.27,-377 1124.55,-345.92 1086.03,-224 1083.18,-214.97 1079.36,-205.19 1075.97,-197.06"/>
<polygon fill="midnightblue" stroke="midnightblue" points="1079.17,-195.64 1072.02,-187.82 1072.73,-198.39 1079.17,-195.64"/>
</g>
<!-- Node31&#45;&gt;Node24 -->
<g id="edge82" class="edge">
<title>Node31&#45;&gt;Node24</title>
<path fill="none" stroke="midnightblue" d="M1139.66,-567.06C1217.99,-562.81 1383.91,-550.86 1434.03,-524 1467.9,-505.85 1491.03,-497.42 1491.03,-459 1491.03,-459 1491.03,-459 1491.03,-233 1491.03,-162.25 1249.22,-134.65 1147.39,-126.17"/>
<polygon fill="midnightblue" stroke="midnightblue" points="1147.37,-122.65 1137.12,-125.34 1146.81,-129.63 1147.37,-122.65"/>
</g>
<!-- Node31&#45;&gt;Node26 -->
<g id="edge75" class="edge">
<title>Node31&#45;&gt;Node26</title>
<path fill="none" stroke="midnightblue" d="M1056.49,-567.24C977.91,-563.31 810.88,-551.86 761.03,-524 722.98,-502.73 732.46,-475.98 699.03,-448 683.46,-434.97 663.55,-423.85 647.37,-415.92"/>
<polygon fill="midnightblue" stroke="midnightblue" points="648.87,-412.76 638.33,-411.63 645.86,-419.08 648.87,-412.76"/>
</g>
<!-- Node32 -->
<g id="node32" class="node">
<title>Node32</title>
<g id="a_node32"><a xlink:href="_string_8hpp.html" target="_top" xlink:title=" ">
<polygon fill="none" stroke="black" points="1297.53,-504.5 1297.53,-523.5 1424.53,-523.5 1424.53,-504.5 1297.53,-504.5"/>
<text text-anchor="middle" x="1361.03" y="-511.5" font-family="Helvetica,sans-Serif" font-size="10.00">../Geometry/String.hpp</text>
</a>
</g>
</g>
<!-- Node31&#45;&gt;Node32 -->
<g id="edge78" class="edge">
<title>Node31&#45;&gt;Node32</title>
<path fill="none" stroke="midnightblue" d="M1139.7,-560.44C1185.78,-550.98 1260.03,-535.74 1309.66,-525.55"/>
<polygon fill="midnightblue" stroke="midnightblue" points="1310.46,-528.96 1319.55,-523.52 1309.05,-522.1 1310.46,-528.96"/>
</g>
<!-- Node35 -->
<g id="node35" class="node">
<title>Node35</title>
<g id="a_node35"><a xlink:href="_quad_node_8hpp.html" target="_top" xlink:title=" ">
<polygon fill="none" stroke="black" points="1053.53,-504.5 1053.53,-523.5 1142.53,-523.5 1142.53,-504.5 1053.53,-504.5"/>
<text text-anchor="middle" x="1098.03" y="-511.5" font-family="Helvetica,sans-Serif" font-size="10.00">QuadNode.hpp</text>
</a>
</g>
</g>
<!-- Node31&#45;&gt;Node35 -->
<g id="edge83" class="edge">
<title>Node31&#45;&gt;Node35</title>
<path fill="none" stroke="midnightblue" d="M1098.03,-560.08C1098.03,-553.01 1098.03,-542.86 1098.03,-533.99"/>
<polygon fill="midnightblue" stroke="midnightblue" points="1101.53,-533.75 1098.03,-523.75 1094.53,-533.75 1101.53,-533.75"/>
</g>
<!-- Node32&#45;&gt;Node14 -->
<g id="edge81" class="edge">
<title>Node32&#45;&gt;Node14</title>
<path fill="none" stroke="midnightblue" d="M1352.7,-504.39C1344.81,-495.8 1333.15,-481.92 1326.03,-468 1312.33,-441.2 1307.03,-433.1 1307.03,-403 1307.03,-403 1307.03,-403 1307.03,-177 1307.03,-146.2 1307.14,-131.15 1283.03,-112 1240.6,-78.3 1091.71,-69.61 1000.15,-67.51"/>
<polygon fill="midnightblue" stroke="midnightblue" points="1000.17,-64.01 990.1,-67.3 1000.03,-71.01 1000.17,-64.01"/>
</g>
<!-- Node33 -->
<g id="node33" class="node">
<title>Node33</title>
<g id="a_node33"><a xlink:title=" ">
<polygon fill="none" stroke="#bfbfbf" points="1397.53,-448.5 1397.53,-467.5 1462.53,-467.5 1462.53,-448.5 1397.53,-448.5"/>
<text text-anchor="middle" x="1430.03" y="-455.5" font-family="Helvetica,sans-Serif" font-size="10.00">stdexcept</text>
</a>
</g>
</g>
<!-- Node32&#45;&gt;Node33 -->
<g id="edge79" class="edge">
<title>Node32&#45;&gt;Node33</title>
<path fill="none" stroke="midnightblue" d="M1372.12,-504.32C1382.52,-496.18 1398.29,-483.84 1410.75,-474.09"/>
<polygon fill="midnightblue" stroke="midnightblue" points="1413.02,-476.75 1418.74,-467.83 1408.71,-471.24 1413.02,-476.75"/>
</g>
<!-- Node34 -->
<g id="node34" class="node">
<title>Node34</title>
<g id="a_node34"><a xlink:title=" ">
<polygon fill="none" stroke="#bfbfbf" points="1335.03,-448.5 1335.03,-467.5 1379.03,-467.5 1379.03,-448.5 1335.03,-448.5"/>
<text text-anchor="middle" x="1357.03" y="-455.5" font-family="Helvetica,sans-Serif" font-size="10.00">string</text>
</a>
</g>
</g>
<!-- Node32&#45;&gt;Node34 -->
<g id="edge80" class="edge">
<title>Node32&#45;&gt;Node34</title>
<path fill="none" stroke="midnightblue" d="M1360.37,-504.08C1359.85,-497.01 1359.09,-486.86 1358.44,-477.99"/>
<polygon fill="midnightblue" stroke="midnightblue" points="1361.91,-477.47 1357.68,-467.75 1354.93,-477.98 1361.91,-477.47"/>
</g>
<!-- Node35&#45;&gt;Node3 -->
<g id="edge84" class="edge">
<title>Node35&#45;&gt;Node3</title>
<path fill="none" stroke="midnightblue" d="M1053.31,-508.16C965.68,-498.68 770.92,-477.6 667.17,-466.37"/>
<polygon fill="midnightblue" stroke="midnightblue" points="667.43,-462.88 657.11,-465.29 666.68,-469.84 667.43,-462.88"/>
</g>
<!-- Node35&#45;&gt;Node6 -->
<g id="edge85" class="edge">
<title>Node35&#45;&gt;Node6</title>
<path fill="none" stroke="midnightblue" d="M1085.61,-504.43C1051.91,-481.68 955.25,-419.61 865.03,-392 744.67,-355.17 595.02,-348.06 520.96,-346.96"/>
<polygon fill="midnightblue" stroke="midnightblue" points="520.64,-343.45 510.6,-346.83 520.55,-350.45 520.64,-343.45"/>
</g>
<!-- Node35&#45;&gt;Node14 -->
<g id="edge88" class="edge">
<title>Node35&#45;&gt;Node14</title>
<path fill="none" stroke="midnightblue" d="M1112.52,-504.4C1146.99,-482.72 1231.03,-422.15 1231.03,-347 1231.03,-347 1231.03,-347 1231.03,-177 1231.03,-129.44 1189.31,-131.71 1146.03,-112 1100.11,-91.09 1044.4,-79.82 1000.52,-73.79"/>
<polygon fill="midnightblue" stroke="midnightblue" points="1000.87,-70.3 990.5,-72.47 999.96,-77.25 1000.87,-70.3"/>
</g>
<!-- Node35&#45;&gt;Node23 -->
<g id="edge87" class="edge">
<title>Node35&#45;&gt;Node23</title>
<path fill="none" stroke="midnightblue" d="M1097.26,-504.41C1093.31,-460.47 1075.36,-260.57 1069.73,-197.87"/>
<polygon fill="midnightblue" stroke="midnightblue" points="1073.18,-197.18 1068.8,-187.54 1066.21,-197.81 1073.18,-197.18"/>
</g>
<!-- Node35&#45;&gt;Node24 -->
<g id="edge89" class="edge">
<title>Node35&#45;&gt;Node24</title>
<path fill="none" stroke="midnightblue" d="M1102.06,-504.33C1115.03,-475.86 1155.67,-382.34 1169.03,-300 1178.43,-242.09 1196.44,-219.87 1169.03,-168 1161.61,-153.95 1147.61,-143.47 1134.41,-136.17"/>
<polygon fill="midnightblue" stroke="midnightblue" points="1135.99,-133.04 1125.49,-131.62 1132.81,-139.28 1135.99,-133.04"/>
</g>
<!-- Node35&#45;&gt;Node26 -->
<g id="edge86" class="edge">
<title>Node35&#45;&gt;Node26</title>
<path fill="none" stroke="midnightblue" d="M1060.77,-504.46C974.37,-484.66 760.54,-435.66 665.21,-413.81"/>
<polygon fill="midnightblue" stroke="midnightblue" points="665.8,-410.36 655.27,-411.53 664.24,-417.18 665.8,-410.36"/>
</g>
</g>
</svg>
