<?xml version="1.0" encoding="UTF-8" standalone="no"?>
<!DOCTYPE svg PUBLIC "-//W3C//DTD SVG 1.1//EN"
 "http://www.w3.org/Graphics/SVG/1.1/DTD/svg11.dtd">
<!-- Generated by graphviz version 2.43.0 (0)
 -->
<!-- Title: /home/runner/work/Simulatio/Simulatio/engine/src/Structures/System.cpp Pages: 1 -->
<svg width="1575pt" height="733pt"
 viewBox="0.00 0.00 1575.05 733.00" xmlns="http://www.w3.org/2000/svg" xmlns:xlink="http://www.w3.org/1999/xlink">
<g id="graph0" class="graph" transform="scale(1 1) rotate(0) translate(4 729)">
<title>/home/runner/work/Simulatio/Simulatio/engine/src/Structures/System.cpp</title>
<!-- Node1 -->
<g id="node1" class="node">
<title>Node1</title>
<g id="a_node1"><a xlink:title=" ">
<polygon fill="#bfbfbf" stroke="black" points="476.05,-683.5 476.05,-724.5 648.05,-724.5 648.05,-683.5 476.05,-683.5"/>
<text text-anchor="start" x="484.05" y="-712.5" font-family="Helvetica,sans-Serif" font-size="10.00">/home/runner/work/Simulatio</text>
<text text-anchor="start" x="484.05" y="-701.5" font-family="Helvetica,sans-Serif" font-size="10.00">/Simulatio/engine/src/Structures</text>
<text text-anchor="middle" x="562.05" y="-690.5" font-family="Helvetica,sans-Serif" font-size="10.00">/System.cpp</text>
</a>
</g>
</g>
<!-- Node2 -->
<g id="node2" class="node">
<title>Node2</title>
<g id="a_node2"><a xlink:href="_system_8hpp.html" target="_top" xlink:title=" ">
<polygon fill="none" stroke="black" points="501.05,-616.5 501.05,-646.5 623.05,-646.5 623.05,-616.5 501.05,-616.5"/>
<text text-anchor="start" x="509.05" y="-634.5" font-family="Helvetica,sans-Serif" font-size="10.00">../../include/Structures</text>
<text text-anchor="middle" x="562.05" y="-623.5" font-family="Helvetica,sans-Serif" font-size="10.00">/System.hpp</text>
</a>
</g>
</g>
<!-- Node1&#45;&gt;Node2 -->
<g id="edge1" class="edge">
<title>Node1&#45;&gt;Node2</title>
<path fill="none" stroke="midnightblue" d="M562.05,-683.36C562.05,-675.23 562.05,-665.7 562.05,-657.11"/>
<polygon fill="midnightblue" stroke="midnightblue" points="565.55,-656.89 562.05,-646.89 558.55,-656.89 565.55,-656.89"/>
</g>
<!-- Node3 -->
<g id="node3" class="node">
<title>Node3</title>
<g id="a_node3"><a xlink:href="_constraint_8hpp.html" target="_top" xlink:title=" ">
<polygon fill="none" stroke="black" points="169.55,-504.5 169.55,-523.5 324.55,-523.5 324.55,-504.5 169.55,-504.5"/>
<text text-anchor="middle" x="247.05" y="-511.5" font-family="Helvetica,sans-Serif" font-size="10.00">../Constraints/Constraint.hpp</text>
</a>
</g>
</g>
<!-- Node2&#45;&gt;Node3 -->
<g id="edge2" class="edge">
<title>Node2&#45;&gt;Node3</title>
<path fill="none" stroke="midnightblue" d="M500.78,-619.46C460.49,-611.13 407.1,-598.04 362.05,-580 352.65,-576.23 301.43,-546.69 270.61,-528.76"/>
<polygon fill="midnightblue" stroke="midnightblue" points="272.17,-525.62 261.76,-523.6 268.64,-531.66 272.17,-525.62"/>
</g>
<!-- Node4 -->
<g id="node4" class="node">
<title>Node4</title>
<g id="a_node4"><a xlink:href="_circle_8hpp.html" target="_top" xlink:title=" ">
<polygon fill="none" stroke="black" points="541.05,-448.5 541.05,-467.5 657.05,-467.5 657.05,-448.5 541.05,-448.5"/>
<text text-anchor="middle" x="599.05" y="-455.5" font-family="Helvetica,sans-Serif" font-size="10.00">../Corpses/Circle.hpp</text>
</a>
</g>
</g>
<!-- Node2&#45;&gt;Node4 -->
<g id="edge59" class="edge">
<title>Node2&#45;&gt;Node4</title>
<path fill="none" stroke="midnightblue" d="M565.08,-616.47C571.72,-585.7 587.55,-512.33 595.02,-477.7"/>
<polygon fill="midnightblue" stroke="midnightblue" points="598.52,-478.07 597.21,-467.56 591.68,-476.6 598.52,-478.07"/>
</g>
<!-- Node6 -->
<g id="node6" class="node">
<title>Node6</title>
<g id="a_node6"><a xlink:title=" ">
<polygon fill="none" stroke="#bfbfbf" points="213.05,-224.5 213.05,-243.5 281.05,-243.5 281.05,-224.5 213.05,-224.5"/>
<text text-anchor="middle" x="247.05" y="-231.5" font-family="Helvetica,sans-Serif" font-size="10.00">Config.hpp</text>
</a>
</g>
</g>
<!-- Node2&#45;&gt;Node6 -->
<g id="edge72" class="edge">
<title>Node2&#45;&gt;Node6</title>
<path fill="none" stroke="midnightblue" d="M500.83,-628.62C366.81,-623.98 56.51,-610.07 20.05,-580 -3.16,-560.85 1.05,-545.1 1.05,-515 1.05,-515 1.05,-515 1.05,-345 1.05,-257.78 131.52,-239.26 202.43,-235.63"/>
<polygon fill="midnightblue" stroke="midnightblue" points="203.01,-239.11 212.85,-235.18 202.71,-232.12 203.01,-239.11"/>
</g>
<!-- Node7 -->
<g id="node7" class="node">
<title>Node7</title>
<g id="a_node7"><a xlink:href="_corpse_8hpp.html" target="_top" xlink:title=" ">
<polygon fill="none" stroke="black" points="439.55,-336.5 439.55,-355.5 510.55,-355.5 510.55,-336.5 439.55,-336.5"/>
<text text-anchor="middle" x="475.05" y="-343.5" font-family="Helvetica,sans-Serif" font-size="10.00">Corpse.hpp</text>
</a>
</g>
</g>
<!-- Node2&#45;&gt;Node7 -->
<g id="edge60" class="edge">
<title>Node2&#45;&gt;Node7</title>
<path fill="none" stroke="midnightblue" d="M555.3,-616.33C539.33,-582.11 499.21,-491.89 481.05,-412 477.56,-396.62 476.09,-378.74 475.48,-365.63"/>
<polygon fill="midnightblue" stroke="midnightblue" points="478.97,-365.4 475.13,-355.53 471.98,-365.64 478.97,-365.4"/>
</g>
<!-- Node11 -->
<g id="node11" class="node">
<title>Node11</title>
<g id="a_node11"><a xlink:href="_geometry_8hpp.html" target="_top" xlink:title=" ">
<polygon fill="none" stroke="black" points="656.05,-280.5 656.05,-299.5 802.05,-299.5 802.05,-280.5 656.05,-280.5"/>
<text text-anchor="middle" x="729.05" y="-287.5" font-family="Helvetica,sans-Serif" font-size="10.00">../Geometry/Geometry.hpp</text>
</a>
</g>
</g>
<!-- Node2&#45;&gt;Node11 -->
<g id="edge70" class="edge">
<title>Node2&#45;&gt;Node11</title>
<path fill="none" stroke="midnightblue" d="M623.15,-629.98C798.68,-627.43 1300.4,-612.39 1434.05,-524 1459.14,-507.41 1463.22,-496.75 1472.05,-468 1511.84,-338.51 1014.81,-302.97 812.53,-293.9"/>
<polygon fill="midnightblue" stroke="midnightblue" points="812.39,-290.39 802.25,-293.45 812.08,-297.38 812.39,-290.39"/>
</g>
<!-- Node15 -->
<g id="node15" class="node">
<title>Node15</title>
<g id="a_node15"><a xlink:href="_maths_8hpp.html" target="_top" xlink:title=" ">
<polygon fill="none" stroke="black" points="862.05,-56.5 862.05,-75.5 990.05,-75.5 990.05,-56.5 862.05,-56.5"/>
<text text-anchor="middle" x="926.05" y="-63.5" font-family="Helvetica,sans-Serif" font-size="10.00">../Geometry/Maths.hpp</text>
</a>
</g>
</g>
<!-- Node2&#45;&gt;Node15 -->
<g id="edge71" class="edge">
<title>Node2&#45;&gt;Node15</title>
<path fill="none" stroke="midnightblue" d="M623.41,-629.93C841.61,-627.1 1567.05,-610.5 1567.05,-515 1567.05,-515 1567.05,-515 1567.05,-177 1567.05,-120.05 1168.93,-84.54 1000.2,-72.05"/>
<polygon fill="midnightblue" stroke="midnightblue" points="1000.38,-68.56 990.16,-71.32 999.87,-75.54 1000.38,-68.56"/>
</g>
<!-- Node27 -->
<g id="node27" class="node">
<title>Node27</title>
<g id="a_node27"><a xlink:href="_polygon_8hpp.html" target="_top" xlink:title=" ">
<polygon fill="none" stroke="black" points="579.55,-392.5 579.55,-411.5 656.55,-411.5 656.55,-392.5 579.55,-392.5"/>
<text text-anchor="middle" x="618.05" y="-399.5" font-family="Helvetica,sans-Serif" font-size="10.00">Polygon.hpp</text>
</a>
</g>
</g>
<!-- Node2&#45;&gt;Node27 -->
<g id="edge61" class="edge">
<title>Node2&#45;&gt;Node27</title>
<path fill="none" stroke="midnightblue" d="M575.29,-616.27C599.04,-589.64 648.09,-529.4 666.05,-468 668.55,-459.47 669.59,-456.16 666.05,-448 660.79,-435.84 650.44,-425.46 640.69,-417.74"/>
<polygon fill="midnightblue" stroke="midnightblue" points="642.56,-414.77 632.42,-411.67 638.41,-420.41 642.56,-414.77"/>
</g>
<!-- Node28 -->
<g id="node28" class="node">
<title>Node28</title>
<g id="a_node28"><a xlink:href="_link_8hpp.html" target="_top" xlink:title=" ">
<polygon fill="none" stroke="black" points="371.55,-560.5 371.55,-579.5 496.55,-579.5 496.55,-560.5 371.55,-560.5"/>
<text text-anchor="middle" x="434.05" y="-567.5" font-family="Helvetica,sans-Serif" font-size="10.00">../Constraints/Link.hpp</text>
</a>
</g>
</g>
<!-- Node2&#45;&gt;Node28 -->
<g id="edge50" class="edge">
<title>Node2&#45;&gt;Node28</title>
<path fill="none" stroke="midnightblue" d="M531.72,-616.4C510.53,-606.55 482.46,-593.5 461.85,-583.92"/>
<polygon fill="midnightblue" stroke="midnightblue" points="463.22,-580.7 452.68,-579.66 460.27,-587.05 463.22,-580.7"/>
</g>
<!-- Node29 -->
<g id="node29" class="node">
<title>Node29</title>
<g id="a_node29"><a xlink:href="_slider_8hpp.html" target="_top" xlink:title=" ">
<polygon fill="none" stroke="black" points="29.05,-560.5 29.05,-579.5 161.05,-579.5 161.05,-560.5 29.05,-560.5"/>
<text text-anchor="middle" x="95.05" y="-567.5" font-family="Helvetica,sans-Serif" font-size="10.00">../Constraints/Slider.hpp</text>
</a>
</g>
</g>
<!-- Node2&#45;&gt;Node29 -->
<g id="edge53" class="edge">
<title>Node2&#45;&gt;Node29</title>
<path fill="none" stroke="midnightblue" d="M501,-622.72C416.4,-611.94 263.57,-592.47 171.49,-580.74"/>
<polygon fill="midnightblue" stroke="midnightblue" points="171.76,-577.24 161.4,-579.45 170.88,-584.19 171.76,-577.24"/>
</g>
<!-- Node30 -->
<g id="node30" class="node">
<title>Node30</title>
<g id="a_node30"><a xlink:href="_spring_8hpp.html" target="_top" xlink:title=" ">
<polygon fill="none" stroke="black" points="179.05,-560.5 179.05,-579.5 315.05,-579.5 315.05,-560.5 179.05,-560.5"/>
<text text-anchor="middle" x="247.05" y="-567.5" font-family="Helvetica,sans-Serif" font-size="10.00">../Constraints/Spring.hpp</text>
</a>
</g>
</g>
<!-- Node2&#45;&gt;Node30 -->
<g id="edge56" class="edge">
<title>Node2&#45;&gt;Node30</title>
<path fill="none" stroke="midnightblue" d="M500.95,-618.96C443.34,-608.08 357.79,-591.92 302.22,-581.42"/>
<polygon fill="midnightblue" stroke="midnightblue" points="302.68,-577.94 292.2,-579.53 301.38,-584.82 302.68,-577.94"/>
</g>
<!-- Node31 -->
<g id="node31" class="node">
<title>Node31</title>
<g id="a_node31"><a xlink:href="_collision_8hpp.html" target="_top" xlink:title=" ">
<polygon fill="none" stroke="black" points="770.05,-504.5 770.05,-523.5 910.05,-523.5 910.05,-504.5 770.05,-504.5"/>
<text text-anchor="middle" x="840.05" y="-511.5" font-family="Helvetica,sans-Serif" font-size="10.00">../Geometry/Collision.hpp</text>
</a>
</g>
</g>
<!-- Node2&#45;&gt;Node31 -->
<g id="edge62" class="edge">
<title>Node2&#45;&gt;Node31</title>
<path fill="none" stroke="midnightblue" d="M595.87,-616.45C650.65,-593.69 757.93,-549.12 810.12,-527.44"/>
<polygon fill="midnightblue" stroke="midnightblue" points="811.6,-530.61 819.49,-523.54 808.92,-524.15 811.6,-530.61"/>
</g>
<!-- Node32 -->
<g id="node32" class="node">
<title>Node32</title>
<g id="a_node32"><a xlink:href="_quadtree_8hpp.html" target="_top" xlink:title=" ">
<polygon fill="none" stroke="black" points="1056.55,-560.5 1056.55,-579.5 1139.55,-579.5 1139.55,-560.5 1056.55,-560.5"/>
<text text-anchor="middle" x="1098.05" y="-567.5" font-family="Helvetica,sans-Serif" font-size="10.00">QuadTree.hpp</text>
</a>
</g>
</g>
<!-- Node2&#45;&gt;Node32 -->
<g id="edge73" class="edge">
<title>Node2&#45;&gt;Node32</title>
<path fill="none" stroke="midnightblue" d="M623.28,-623.7C729.66,-611.89 946.76,-587.79 1046.21,-576.76"/>
<polygon fill="midnightblue" stroke="midnightblue" points="1046.76,-580.22 1056.32,-575.63 1045.99,-573.26 1046.76,-580.22"/>
</g>
<!-- Node3&#45;&gt;Node4 -->
<g id="edge3" class="edge">
<title>Node3&#45;&gt;Node4</title>
<path fill="none" stroke="midnightblue" d="M302.83,-504.44C365.52,-494.83 467.2,-479.23 533.6,-469.04"/>
<polygon fill="midnightblue" stroke="midnightblue" points="534.19,-472.49 543.54,-467.52 533.13,-465.57 534.19,-472.49"/>
</g>
<!-- Node3&#45;&gt;Node6 -->
<g id="edge49" class="edge">
<title>Node3&#45;&gt;Node6</title>
<path fill="none" stroke="midnightblue" d="M241.77,-504.23C231.33,-486.04 209.05,-442.6 209.05,-403 209.05,-403 209.05,-403 209.05,-345 209.05,-310.81 225.66,-273.76 236.91,-252.57"/>
<polygon fill="midnightblue" stroke="midnightblue" points="240,-254.22 241.77,-243.77 233.87,-250.83 240,-254.22"/>
</g>
<!-- Node3&#45;&gt;Node7 -->
<g id="edge45" class="edge">
<title>Node3&#45;&gt;Node7</title>
<path fill="none" stroke="midnightblue" d="M258.99,-504.31C295.93,-477.42 408.64,-395.35 454.91,-361.67"/>
<polygon fill="midnightblue" stroke="midnightblue" points="457.21,-364.32 463.24,-355.61 453.09,-358.66 457.21,-364.32"/>
</g>
<!-- Node3&#45;&gt;Node11 -->
<g id="edge47" class="edge">
<title>Node3&#45;&gt;Node11</title>
<path fill="none" stroke="midnightblue" d="M252.74,-504.38C272.81,-474.77 343.76,-376.84 430.05,-336 467.22,-318.42 570.84,-305.5 645.68,-298.13"/>
<polygon fill="midnightblue" stroke="midnightblue" points="646.42,-301.57 656.04,-297.12 645.75,-294.61 646.42,-301.57"/>
</g>
<!-- Node3&#45;&gt;Node15 -->
<g id="edge48" class="edge">
<title>Node3&#45;&gt;Node15</title>
<path fill="none" stroke="midnightblue" d="M235.51,-504.43C214.25,-487.57 171.05,-447.8 171.05,-403 171.05,-403 171.05,-403 171.05,-345 171.05,-81.57 458.59,-167.75 716.05,-112 770.71,-100.17 833.4,-86.75 875.95,-77.67"/>
<polygon fill="midnightblue" stroke="midnightblue" points="876.74,-81.09 885.79,-75.58 875.28,-74.24 876.74,-81.09"/>
</g>
<!-- Node3&#45;&gt;Node27 -->
<g id="edge46" class="edge">
<title>Node3&#45;&gt;Node27</title>
<path fill="none" stroke="midnightblue" d="M275.86,-504.46C341.96,-484.86 504.57,-436.65 579.32,-414.48"/>
<polygon fill="midnightblue" stroke="midnightblue" points="580.68,-417.73 589.27,-411.53 578.69,-411.02 580.68,-417.73"/>
</g>
<!-- Node5 -->
<g id="node5" class="node">
<title>Node5</title>
<g id="a_node5"><a xlink:title=" ">
<polygon fill="none" stroke="#bfbfbf" points="595.55,-0.5 595.55,-19.5 642.55,-19.5 642.55,-0.5 595.55,-0.5"/>
<text text-anchor="middle" x="619.05" y="-7.5" font-family="Helvetica,sans-Serif" font-size="10.00">vector</text>
</a>
</g>
</g>
<!-- Node4&#45;&gt;Node5 -->
<g id="edge4" class="edge">
<title>Node4&#45;&gt;Node5</title>
<path fill="none" stroke="midnightblue" d="M592.38,-448.44C579.19,-430.62 551.05,-387.84 551.05,-347 551.05,-347 551.05,-347 551.05,-121 551.05,-82.55 581.49,-46.31 601.64,-26.54"/>
<polygon fill="midnightblue" stroke="midnightblue" points="604.15,-28.98 609.02,-19.57 599.35,-23.89 604.15,-28.98"/>
</g>
<!-- Node4&#45;&gt;Node6 -->
<g id="edge5" class="edge">
<title>Node4&#45;&gt;Node6</title>
<path fill="none" stroke="midnightblue" d="M574.65,-448.45C521.14,-428.82 391.35,-376.24 305.05,-300 288.13,-285.05 271.22,-265.43 260.06,-251.67"/>
<polygon fill="midnightblue" stroke="midnightblue" points="262.59,-249.23 253.62,-243.59 257.12,-253.59 262.59,-249.23"/>
</g>
<!-- Node4&#45;&gt;Node7 -->
<g id="edge6" class="edge">
<title>Node4&#45;&gt;Node7</title>
<path fill="none" stroke="midnightblue" d="M585.71,-448.35C572.78,-439.73 552.88,-425.83 537.05,-412 519.55,-396.7 501.41,-377.18 489.31,-363.54"/>
<polygon fill="midnightblue" stroke="midnightblue" points="491.84,-361.11 482.62,-355.9 486.57,-365.73 491.84,-361.11"/>
</g>
<!-- Node4&#45;&gt;Node27 -->
<g id="edge40" class="edge">
<title>Node4&#45;&gt;Node27</title>
<path fill="none" stroke="midnightblue" d="M597.03,-448.08C598.07,-440.69 601.44,-429.95 605.4,-420.81"/>
<polygon fill="midnightblue" stroke="midnightblue" points="608.58,-422.27 609.84,-411.75 602.3,-419.19 608.58,-422.27"/>
</g>
<!-- Node7&#45;&gt;Node5 -->
<g id="edge10" class="edge">
<title>Node7&#45;&gt;Node5</title>
<path fill="none" stroke="midnightblue" d="M480.34,-336.23C490.78,-318.04 513.05,-274.6 513.05,-235 513.05,-235 513.05,-235 513.05,-121 513.05,-90.2 516.95,-79.33 537.05,-56 549.99,-40.99 569.23,-30.06 585.82,-22.74"/>
<polygon fill="midnightblue" stroke="midnightblue" points="587.32,-25.9 595.22,-18.84 584.64,-19.44 587.32,-25.9"/>
</g>
<!-- Node7&#45;&gt;Node6 -->
<g id="edge39" class="edge">
<title>Node7&#45;&gt;Node6</title>
<path fill="none" stroke="midnightblue" d="M457.16,-336.37C417.37,-317.17 321.35,-270.84 274.15,-248.07"/>
<polygon fill="midnightblue" stroke="midnightblue" points="275.39,-244.78 264.86,-243.59 272.35,-251.09 275.39,-244.78"/>
</g>
<!-- Node8 -->
<g id="node8" class="node">
<title>Node8</title>
<g id="a_node8"><a xlink:title=" ">
<polygon fill="none" stroke="#bfbfbf" points="375.55,-0.5 375.55,-19.5 422.55,-19.5 422.55,-0.5 375.55,-0.5"/>
<text text-anchor="middle" x="399.05" y="-7.5" font-family="Helvetica,sans-Serif" font-size="10.00">cmath</text>
</a>
</g>
</g>
<!-- Node7&#45;&gt;Node8 -->
<g id="edge7" class="edge">
<title>Node7&#45;&gt;Node8</title>
<path fill="none" stroke="midnightblue" d="M463.51,-336.43C442.25,-319.57 399.05,-279.8 399.05,-235 399.05,-235 399.05,-235 399.05,-121 399.05,-88.95 399.05,-51.64 399.05,-29.75"/>
<polygon fill="midnightblue" stroke="midnightblue" points="402.55,-29.56 399.05,-19.56 395.55,-29.56 402.55,-29.56"/>
</g>
<!-- Node9 -->
<g id="node9" class="node">
<title>Node9</title>
<g id="a_node9"><a xlink:title=" ">
<polygon fill="none" stroke="#bfbfbf" points="441.05,-0.5 441.05,-19.5 501.05,-19.5 501.05,-0.5 441.05,-0.5"/>
<text text-anchor="middle" x="471.05" y="-7.5" font-family="Helvetica,sans-Serif" font-size="10.00">iostream</text>
</a>
</g>
</g>
<!-- Node7&#45;&gt;Node9 -->
<g id="edge8" class="edge">
<title>Node7&#45;&gt;Node9</title>
<path fill="none" stroke="midnightblue" d="M469.77,-336.23C459.33,-318.04 437.05,-274.6 437.05,-235 437.05,-235 437.05,-235 437.05,-121 437.05,-87.16 451.92,-49.97 462,-28.66"/>
<polygon fill="midnightblue" stroke="midnightblue" points="465.2,-30.08 466.47,-19.56 458.92,-26.99 465.2,-30.08"/>
</g>
<!-- Node10 -->
<g id="node10" class="node">
<title>Node10</title>
<g id="a_node10"><a xlink:title=" ">
<polygon fill="none" stroke="#bfbfbf" points="519.05,-0.5 519.05,-19.5 577.05,-19.5 577.05,-0.5 519.05,-0.5"/>
<text text-anchor="middle" x="548.05" y="-7.5" font-family="Helvetica,sans-Serif" font-size="10.00">memory</text>
</a>
</g>
</g>
<!-- Node7&#45;&gt;Node10 -->
<g id="edge9" class="edge">
<title>Node7&#45;&gt;Node10</title>
<path fill="none" stroke="midnightblue" d="M475.05,-336.44C475.05,-317.94 475.05,-272.81 475.05,-235 475.05,-235 475.05,-235 475.05,-121 475.05,-90.2 481.9,-81.58 499.05,-56 506.72,-44.57 517.86,-34.04 527.58,-26.04"/>
<polygon fill="midnightblue" stroke="midnightblue" points="529.94,-28.64 535.64,-19.7 525.61,-23.13 529.94,-28.64"/>
</g>
<!-- Node7&#45;&gt;Node11 -->
<g id="edge11" class="edge">
<title>Node7&#45;&gt;Node11</title>
<path fill="none" stroke="midnightblue" d="M510.64,-337.43C554.45,-328.12 629.14,-312.24 678.79,-301.69"/>
<polygon fill="midnightblue" stroke="midnightblue" points="679.63,-305.09 688.68,-299.58 678.17,-298.24 679.63,-305.09"/>
</g>
<!-- Node11&#45;&gt;Node6 -->
<g id="edge32" class="edge">
<title>Node11&#45;&gt;Node6</title>
<path fill="none" stroke="midnightblue" d="M655.85,-280.8C554.45,-269.44 374.37,-249.26 291.3,-239.96"/>
<polygon fill="midnightblue" stroke="midnightblue" points="291.51,-236.46 281.18,-238.82 290.73,-243.42 291.51,-236.46"/>
</g>
<!-- Node12 -->
<g id="node12" class="node">
<title>Node12</title>
<g id="a_node12"><a xlink:href="_recorder_8hpp.html" target="_top" xlink:title=" ">
<polygon fill="none" stroke="black" points="655.05,-224.5 655.05,-243.5 803.05,-243.5 803.05,-224.5 655.05,-224.5"/>
<text text-anchor="middle" x="729.05" y="-231.5" font-family="Helvetica,sans-Serif" font-size="10.00">../Benchmark/Recorder.hpp</text>
</a>
</g>
</g>
<!-- Node11&#45;&gt;Node12 -->
<g id="edge12" class="edge">
<title>Node11&#45;&gt;Node12</title>
<path fill="none" stroke="midnightblue" d="M729.05,-280.08C729.05,-273.01 729.05,-262.86 729.05,-253.99"/>
<polygon fill="midnightblue" stroke="midnightblue" points="732.55,-253.75 729.05,-243.75 725.55,-253.75 732.55,-253.75"/>
</g>
<!-- Node11&#45;&gt;Node15 -->
<g id="edge33" class="edge">
<title>Node11&#45;&gt;Node15</title>
<path fill="none" stroke="midnightblue" d="M696.87,-280.49C678.52,-273.8 657.04,-262.45 646.05,-244 626.47,-211.11 682.67,-175.09 689.05,-168 713.25,-141.14 716.39,-129.44 748.05,-112 779.81,-94.51 818.48,-83.68 851.66,-77.04"/>
<polygon fill="midnightblue" stroke="midnightblue" points="852.6,-80.42 861.76,-75.11 851.29,-73.55 852.6,-80.42"/>
</g>
<!-- Node24 -->
<g id="node24" class="node">
<title>Node24</title>
<g id="a_node24"><a xlink:href="_bounds_8hpp.html" target="_top" xlink:title=" ">
<polygon fill="none" stroke="black" points="1031.05,-168.5 1031.05,-187.5 1105.05,-187.5 1105.05,-168.5 1031.05,-168.5"/>
<text text-anchor="middle" x="1068.05" y="-175.5" font-family="Helvetica,sans-Serif" font-size="10.00">Bounds.hpp</text>
</a>
</g>
</g>
<!-- Node11&#45;&gt;Node24 -->
<g id="edge28" class="edge">
<title>Node11&#45;&gt;Node24</title>
<path fill="none" stroke="midnightblue" d="M794,-280.49C837.82,-273.55 896.49,-261.93 946.05,-244 983.11,-230.6 1022.82,-207.65 1046.54,-192.91"/>
<polygon fill="midnightblue" stroke="midnightblue" points="1048.5,-195.81 1055.09,-187.52 1044.77,-189.89 1048.5,-195.81"/>
</g>
<!-- Node25 -->
<g id="node25" class="node">
<title>Node25</title>
<g id="a_node25"><a xlink:href="_vector_8hpp.html" target="_top" xlink:title=" ">
<polygon fill="none" stroke="black" points="1069.05,-112.5 1069.05,-131.5 1137.05,-131.5 1137.05,-112.5 1069.05,-112.5"/>
<text text-anchor="middle" x="1103.05" y="-119.5" font-family="Helvetica,sans-Serif" font-size="10.00">Vector.hpp</text>
</a>
</g>
</g>
<!-- Node11&#45;&gt;Node25 -->
<g id="edge34" class="edge">
<title>Node11&#45;&gt;Node25</title>
<path fill="none" stroke="midnightblue" d="M744.67,-280.49C772.68,-265.27 830.44,-234.02 851.05,-224 906.54,-197.03 920.78,-190.91 978.05,-168 1008.12,-155.98 1042.79,-143.61 1067.98,-134.89"/>
<polygon fill="midnightblue" stroke="midnightblue" points="1069.17,-138.19 1077.48,-131.62 1066.89,-131.57 1069.17,-138.19"/>
</g>
<!-- Node26 -->
<g id="node26" class="node">
<title>Node26</title>
<g id="a_node26"><a xlink:href="_vertices_8hpp.html" target="_top" xlink:title=" ">
<polygon fill="none" stroke="black" points="859.55,-224.5 859.55,-243.5 936.55,-243.5 936.55,-224.5 859.55,-224.5"/>
<text text-anchor="middle" x="898.05" y="-231.5" font-family="Helvetica,sans-Serif" font-size="10.00">Vertices.hpp</text>
</a>
</g>
</g>
<!-- Node11&#45;&gt;Node26 -->
<g id="edge35" class="edge">
<title>Node11&#45;&gt;Node26</title>
<path fill="none" stroke="midnightblue" d="M755.83,-280.44C784.39,-271.32 829.79,-256.81 861.59,-246.65"/>
<polygon fill="midnightblue" stroke="midnightblue" points="862.94,-249.89 871.4,-243.52 860.81,-243.23 862.94,-249.89"/>
</g>
<!-- Node13 -->
<g id="node13" class="node">
<title>Node13</title>
<g id="a_node13"><a xlink:href="_performance_8hpp.html" target="_top" xlink:title=" ">
<polygon fill="none" stroke="black" points="698.05,-168.5 698.05,-187.5 798.05,-187.5 798.05,-168.5 698.05,-168.5"/>
<text text-anchor="middle" x="748.05" y="-175.5" font-family="Helvetica,sans-Serif" font-size="10.00">Performance.hpp</text>
</a>
</g>
</g>
<!-- Node12&#45;&gt;Node13 -->
<g id="edge13" class="edge">
<title>Node12&#45;&gt;Node13</title>
<path fill="none" stroke="midnightblue" d="M732.19,-224.08C734.74,-216.85 738.41,-206.41 741.58,-197.4"/>
<polygon fill="midnightblue" stroke="midnightblue" points="744.96,-198.35 744.98,-187.75 738.36,-196.02 744.96,-198.35"/>
</g>
<!-- Node14 -->
<g id="node14" class="node">
<title>Node14</title>
<g id="a_node14"><a xlink:href="_block_data_8hpp.html" target="_top" xlink:title=" ">
<polygon fill="none" stroke="black" points="757.05,-112.5 757.05,-131.5 845.05,-131.5 845.05,-112.5 757.05,-112.5"/>
<text text-anchor="middle" x="801.05" y="-119.5" font-family="Helvetica,sans-Serif" font-size="10.00">BlockData.hpp</text>
</a>
</g>
</g>
<!-- Node13&#45;&gt;Node14 -->
<g id="edge14" class="edge">
<title>Node13&#45;&gt;Node14</title>
<path fill="none" stroke="midnightblue" d="M756.81,-168.08C764.52,-160.22 775.96,-148.57 785.27,-139.08"/>
<polygon fill="midnightblue" stroke="midnightblue" points="787.96,-141.34 792.47,-131.75 782.96,-136.44 787.96,-141.34"/>
</g>
<!-- Node14&#45;&gt;Node15 -->
<g id="edge15" class="edge">
<title>Node14&#45;&gt;Node15</title>
<path fill="none" stroke="midnightblue" d="M820.86,-112.44C841.34,-103.6 873.54,-89.69 896.92,-79.59"/>
<polygon fill="midnightblue" stroke="midnightblue" points="898.55,-82.7 906.34,-75.52 895.77,-76.27 898.55,-82.7"/>
</g>
<!-- Node15&#45;&gt;Node5 -->
<g id="edge27" class="edge">
<title>Node15&#45;&gt;Node5</title>
<path fill="none" stroke="midnightblue" d="M862.58,-56.48C809.11,-48.86 730.43,-36.65 652.74,-19.95"/>
<polygon fill="midnightblue" stroke="midnightblue" points="653.29,-16.49 642.78,-17.78 651.8,-23.33 653.29,-16.49"/>
</g>
<!-- Node15&#45;&gt;Node8 -->
<g id="edge18" class="edge">
<title>Node15&#45;&gt;Node8</title>
<path fill="none" stroke="midnightblue" d="M862.02,-62.75C769.3,-58.71 592.27,-48.02 432.73,-19.79"/>
<polygon fill="midnightblue" stroke="midnightblue" points="433.2,-16.32 422.73,-17.99 431.96,-23.21 433.2,-16.32"/>
</g>
<!-- Node15&#45;&gt;Node9 -->
<g id="edge21" class="edge">
<title>Node15&#45;&gt;Node9</title>
<path fill="none" stroke="midnightblue" d="M861.95,-60.45C782.05,-54.24 641.18,-41.56 511.34,-20.03"/>
<polygon fill="midnightblue" stroke="midnightblue" points="511.66,-16.54 501.22,-18.33 510.5,-23.44 511.66,-16.54"/>
</g>
<!-- Node15&#45;&gt;Node10 -->
<g id="edge23" class="edge">
<title>Node15&#45;&gt;Node10</title>
<path fill="none" stroke="midnightblue" d="M862.04,-58.33C795.81,-51.02 689.2,-38.11 587.23,-19.86"/>
<polygon fill="midnightblue" stroke="midnightblue" points="587.84,-16.42 577.38,-18.08 586.6,-23.31 587.84,-16.42"/>
</g>
<!-- Node16 -->
<g id="node16" class="node">
<title>Node16</title>
<g id="a_node16"><a xlink:title=" ">
<polygon fill="none" stroke="#bfbfbf" points="1092.05,-0.5 1092.05,-19.5 1134.05,-19.5 1134.05,-0.5 1092.05,-0.5"/>
<text text-anchor="middle" x="1113.05" y="-7.5" font-family="Helvetica,sans-Serif" font-size="10.00">array</text>
</a>
</g>
</g>
<!-- Node15&#45;&gt;Node16 -->
<g id="edge16" class="edge">
<title>Node15&#45;&gt;Node16</title>
<path fill="none" stroke="midnightblue" d="M956.18,-56.48C985.84,-48.07 1032.66,-34.73 1081.89,-20.32"/>
<polygon fill="midnightblue" stroke="midnightblue" points="1083.15,-23.6 1091.76,-17.42 1081.18,-16.88 1083.15,-23.6"/>
</g>
<!-- Node17 -->
<g id="node17" class="node">
<title>Node17</title>
<g id="a_node17"><a xlink:title=" ">
<polygon fill="none" stroke="#bfbfbf" points="1152.05,-0.5 1152.05,-19.5 1202.05,-19.5 1202.05,-0.5 1152.05,-0.5"/>
<text text-anchor="middle" x="1177.05" y="-7.5" font-family="Helvetica,sans-Serif" font-size="10.00">chrono</text>
</a>
</g>
</g>
<!-- Node15&#45;&gt;Node17 -->
<g id="edge17" class="edge">
<title>Node15&#45;&gt;Node17</title>
<path fill="none" stroke="midnightblue" d="M970.68,-56.48C1012.51,-48.33 1077.02,-35.35 1141.86,-20.19"/>
<polygon fill="midnightblue" stroke="midnightblue" points="1142.91,-23.54 1151.84,-17.84 1141.31,-16.72 1142.91,-23.54"/>
</g>
<!-- Node18 -->
<g id="node18" class="node">
<title>Node18</title>
<g id="a_node18"><a xlink:title=" ">
<polygon fill="none" stroke="#bfbfbf" points="1220.55,-0.5 1220.55,-19.5 1267.55,-19.5 1267.55,-0.5 1220.55,-0.5"/>
<text text-anchor="middle" x="1244.05" y="-7.5" font-family="Helvetica,sans-Serif" font-size="10.00">deque</text>
</a>
</g>
</g>
<!-- Node15&#45;&gt;Node18 -->
<g id="edge19" class="edge">
<title>Node15&#45;&gt;Node18</title>
<path fill="none" stroke="midnightblue" d="M990.1,-56.93C1045.84,-49.45 1128.95,-37.17 1210.41,-19.93"/>
<polygon fill="midnightblue" stroke="midnightblue" points="1211.29,-23.32 1220.34,-17.8 1209.83,-16.48 1211.29,-23.32"/>
</g>
<!-- Node19 -->
<g id="node19" class="node">
<title>Node19</title>
<g id="a_node19"><a xlink:title=" ">
<polygon fill="none" stroke="#bfbfbf" points="660.55,-0.5 660.55,-19.5 725.55,-19.5 725.55,-0.5 660.55,-0.5"/>
<text text-anchor="middle" x="693.05" y="-7.5" font-family="Helvetica,sans-Serif" font-size="10.00">functional</text>
</a>
</g>
</g>
<!-- Node15&#45;&gt;Node19 -->
<g id="edge20" class="edge">
<title>Node15&#45;&gt;Node19</title>
<path fill="none" stroke="midnightblue" d="M889.14,-56.44C847.35,-46.76 779.4,-31.01 735.47,-20.83"/>
<polygon fill="midnightblue" stroke="midnightblue" points="736.2,-17.41 725.67,-18.56 734.62,-24.23 736.2,-17.41"/>
</g>
<!-- Node20 -->
<g id="node20" class="node">
<title>Node20</title>
<g id="a_node20"><a xlink:title=" ">
<polygon fill="none" stroke="#bfbfbf" points="743.55,-0.5 743.55,-19.5 796.55,-19.5 796.55,-0.5 743.55,-0.5"/>
<text text-anchor="middle" x="770.05" y="-7.5" font-family="Helvetica,sans-Serif" font-size="10.00">iterator</text>
</a>
</g>
</g>
<!-- Node15&#45;&gt;Node20 -->
<g id="edge22" class="edge">
<title>Node15&#45;&gt;Node20</title>
<path fill="none" stroke="midnightblue" d="M901.34,-56.44C875.21,-47.4 833.8,-33.06 804.48,-22.92"/>
<polygon fill="midnightblue" stroke="midnightblue" points="805.25,-19.48 794.66,-19.52 802.96,-26.1 805.25,-19.48"/>
</g>
<!-- Node21 -->
<g id="node21" class="node">
<title>Node21</title>
<g id="a_node21"><a xlink:title=" ">
<polygon fill="none" stroke="#bfbfbf" points="815.05,-0.5 815.05,-19.5 871.05,-19.5 871.05,-0.5 815.05,-0.5"/>
<text text-anchor="middle" x="843.05" y="-7.5" font-family="Helvetica,sans-Serif" font-size="10.00">sstream</text>
</a>
</g>
</g>
<!-- Node15&#45;&gt;Node21 -->
<g id="edge24" class="edge">
<title>Node15&#45;&gt;Node21</title>
<path fill="none" stroke="midnightblue" d="M912.72,-56.32C899.89,-47.98 880.27,-35.21 865.12,-25.35"/>
<polygon fill="midnightblue" stroke="midnightblue" points="866.65,-22.17 856.36,-19.65 862.83,-28.04 866.65,-22.17"/>
</g>
<!-- Node22 -->
<g id="node22" class="node">
<title>Node22</title>
<g id="a_node22"><a xlink:title=" ">
<polygon fill="none" stroke="#bfbfbf" points="889.55,-0.5 889.55,-19.5 962.55,-19.5 962.55,-0.5 889.55,-0.5"/>
<text text-anchor="middle" x="926.05" y="-7.5" font-family="Helvetica,sans-Serif" font-size="10.00">string_view</text>
</a>
</g>
</g>
<!-- Node15&#45;&gt;Node22 -->
<g id="edge25" class="edge">
<title>Node15&#45;&gt;Node22</title>
<path fill="none" stroke="midnightblue" d="M926.05,-56.08C926.05,-49.01 926.05,-38.86 926.05,-29.99"/>
<polygon fill="midnightblue" stroke="midnightblue" points="929.55,-29.75 926.05,-19.75 922.55,-29.75 929.55,-29.75"/>
</g>
<!-- Node23 -->
<g id="node23" class="node">
<title>Node23</title>
<g id="a_node23"><a xlink:title=" ">
<polygon fill="none" stroke="#bfbfbf" points="980.55,-0.5 980.55,-19.5 1073.55,-19.5 1073.55,-0.5 980.55,-0.5"/>
<text text-anchor="middle" x="1027.05" y="-7.5" font-family="Helvetica,sans-Serif" font-size="10.00">unordered_map</text>
</a>
</g>
</g>
<!-- Node15&#45;&gt;Node23 -->
<g id="edge26" class="edge">
<title>Node15&#45;&gt;Node23</title>
<path fill="none" stroke="midnightblue" d="M942.28,-56.32C958.41,-47.7 983.35,-34.36 1002.02,-24.39"/>
<polygon fill="midnightblue" stroke="midnightblue" points="1003.7,-27.46 1010.87,-19.65 1000.4,-21.28 1003.7,-27.46"/>
</g>
<!-- Node24&#45;&gt;Node15 -->
<g id="edge29" class="edge">
<title>Node24&#45;&gt;Node15</title>
<path fill="none" stroke="midnightblue" d="M1063.08,-168.42C1054.92,-154.94 1037.54,-128.64 1017.05,-112 1000.09,-98.21 978.2,-87.22 960.15,-79.56"/>
<polygon fill="midnightblue" stroke="midnightblue" points="961.14,-76.18 950.56,-75.64 958.5,-82.66 961.14,-76.18"/>
</g>
<!-- Node24&#45;&gt;Node25 -->
<g id="edge30" class="edge">
<title>Node24&#45;&gt;Node25</title>
<path fill="none" stroke="midnightblue" d="M1073.83,-168.08C1078.73,-160.53 1085.88,-149.49 1091.89,-140.23"/>
<polygon fill="midnightblue" stroke="midnightblue" points="1094.88,-142.05 1097.38,-131.75 1089.01,-138.24 1094.88,-142.05"/>
</g>
<!-- Node25&#45;&gt;Node15 -->
<g id="edge31" class="edge">
<title>Node25&#45;&gt;Node15</title>
<path fill="none" stroke="midnightblue" d="M1075.01,-112.44C1044.97,-103.28 997.14,-88.69 963.81,-78.52"/>
<polygon fill="midnightblue" stroke="midnightblue" points="964.56,-75.09 953.97,-75.52 962.51,-81.78 964.56,-75.09"/>
</g>
<!-- Node26&#45;&gt;Node15 -->
<g id="edge37" class="edge">
<title>Node26&#45;&gt;Node15</title>
<path fill="none" stroke="midnightblue" d="M899.56,-224.08C903.97,-197.95 916.91,-121.21 922.92,-85.58"/>
<polygon fill="midnightblue" stroke="midnightblue" points="926.4,-86.01 924.61,-75.57 919.5,-84.85 926.4,-86.01"/>
</g>
<!-- Node26&#45;&gt;Node24 -->
<g id="edge36" class="edge">
<title>Node26&#45;&gt;Node24</title>
<path fill="none" stroke="midnightblue" d="M924.99,-224.44C953.72,-215.32 999.38,-200.81 1031.38,-190.65"/>
<polygon fill="midnightblue" stroke="midnightblue" points="1032.77,-193.88 1041.24,-187.52 1030.65,-187.21 1032.77,-193.88"/>
</g>
<!-- Node26&#45;&gt;Node25 -->
<g id="edge38" class="edge">
<title>Node26&#45;&gt;Node25</title>
<path fill="none" stroke="midnightblue" d="M914.14,-224.37C949.77,-205.25 1035.54,-159.23 1078.15,-136.36"/>
<polygon fill="midnightblue" stroke="midnightblue" points="1079.89,-139.4 1087.04,-131.59 1076.58,-133.24 1079.89,-139.4"/>
</g>
<!-- Node27&#45;&gt;Node4 -->
<g id="edge42" class="edge">
<title>Node27&#45;&gt;Node4</title>
<path fill="none" stroke="midnightblue" d="M620.11,-411.75C619.1,-419.09 615.75,-429.82 611.8,-438.98"/>
<polygon fill="midnightblue" stroke="midnightblue" points="608.6,-437.56 607.36,-448.08 614.89,-440.63 608.6,-437.56"/>
</g>
<!-- Node27&#45;&gt;Node5 -->
<g id="edge41" class="edge">
<title>Node27&#45;&gt;Node5</title>
<path fill="none" stroke="midnightblue" d="M618.08,-392.49C618.2,-343.84 618.83,-100.61 619.01,-30.15"/>
<polygon fill="midnightblue" stroke="midnightblue" points="622.51,-29.74 619.03,-19.73 615.51,-29.72 622.51,-29.74"/>
</g>
<!-- Node27&#45;&gt;Node6 -->
<g id="edge43" class="edge">
<title>Node27&#45;&gt;Node6</title>
<path fill="none" stroke="midnightblue" d="M579.54,-395.34C540.76,-388.83 479.75,-376.34 430.05,-356 385.4,-337.72 377.31,-326.59 337.05,-300 312.04,-283.48 284.2,-263.04 266.2,-249.54"/>
<polygon fill="midnightblue" stroke="midnightblue" points="268.3,-246.74 258.21,-243.52 264.09,-252.33 268.3,-246.74"/>
</g>
<!-- Node27&#45;&gt;Node7 -->
<g id="edge44" class="edge">
<title>Node27&#45;&gt;Node7</title>
<path fill="none" stroke="midnightblue" d="M595.4,-392.44C571.65,-383.48 534.15,-369.31 507.32,-359.18"/>
<polygon fill="midnightblue" stroke="midnightblue" points="508.2,-355.77 497.61,-355.52 505.73,-362.32 508.2,-355.77"/>
</g>
<!-- Node28&#45;&gt;Node3 -->
<g id="edge52" class="edge">
<title>Node28&#45;&gt;Node3</title>
<path fill="none" stroke="midnightblue" d="M404.42,-560.44C372.55,-551.24 321.72,-536.56 286.49,-526.39"/>
<polygon fill="midnightblue" stroke="midnightblue" points="287.13,-522.93 276.55,-523.52 285.18,-529.65 287.13,-522.93"/>
</g>
<!-- Node28&#45;&gt;Node6 -->
<g id="edge51" class="edge">
<title>Node28&#45;&gt;Node6</title>
<path fill="none" stroke="midnightblue" d="M429,-560.21C409.7,-526.59 338.8,-402.86 282.05,-300 273.27,-284.08 263.48,-265.85 256.49,-252.75"/>
<polygon fill="midnightblue" stroke="midnightblue" points="259.54,-251.04 251.75,-243.86 253.37,-254.33 259.54,-251.04"/>
</g>
<!-- Node29&#45;&gt;Node3 -->
<g id="edge55" class="edge">
<title>Node29&#45;&gt;Node3</title>
<path fill="none" stroke="midnightblue" d="M119.14,-560.44C144.6,-551.4 184.95,-537.06 213.51,-526.92"/>
<polygon fill="midnightblue" stroke="midnightblue" points="214.83,-530.16 223.08,-523.52 212.49,-523.57 214.83,-530.16"/>
</g>
<!-- Node29&#45;&gt;Node6 -->
<g id="edge54" class="edge">
<title>Node29&#45;&gt;Node6</title>
<path fill="none" stroke="midnightblue" d="M95.05,-560.44C95.05,-541.94 95.05,-496.81 95.05,-459 95.05,-459 95.05,-459 95.05,-345 95.05,-291.13 158.48,-260.96 203.39,-246.34"/>
<polygon fill="midnightblue" stroke="midnightblue" points="204.43,-249.69 212.94,-243.38 202.35,-243 204.43,-249.69"/>
</g>
<!-- Node30&#45;&gt;Node3 -->
<g id="edge58" class="edge">
<title>Node30&#45;&gt;Node3</title>
<path fill="none" stroke="midnightblue" d="M247.05,-560.08C247.05,-553.01 247.05,-542.86 247.05,-533.99"/>
<polygon fill="midnightblue" stroke="midnightblue" points="250.55,-533.75 247.05,-523.75 243.55,-533.75 250.55,-533.75"/>
</g>
<!-- Node30&#45;&gt;Node6 -->
<g id="edge57" class="edge">
<title>Node30&#45;&gt;Node6</title>
<path fill="none" stroke="midnightblue" d="M219.58,-560.45C200.68,-553.34 176.17,-541.52 160.05,-524 138.88,-500.97 133.05,-490.28 133.05,-459 133.05,-459 133.05,-459 133.05,-345 133.05,-298.11 183.61,-264.89 217.38,-247.93"/>
<polygon fill="midnightblue" stroke="midnightblue" points="218.92,-251.07 226.41,-243.58 215.88,-244.77 218.92,-251.07"/>
</g>
<!-- Node31&#45;&gt;Node4 -->
<g id="edge63" class="edge">
<title>Node31&#45;&gt;Node4</title>
<path fill="none" stroke="midnightblue" d="M801.87,-504.44C759.91,-495.04 692.46,-479.93 646.98,-469.74"/>
<polygon fill="midnightblue" stroke="midnightblue" points="647.59,-466.29 637.06,-467.52 646.06,-473.12 647.59,-466.29"/>
</g>
<!-- Node31&#45;&gt;Node7 -->
<g id="edge64" class="edge">
<title>Node31&#45;&gt;Node7</title>
<path fill="none" stroke="midnightblue" d="M769.88,-510.34C690.86,-506.06 568.69,-495.15 532.05,-468 498.43,-443.08 483.9,-393.26 478.24,-365.97"/>
<polygon fill="midnightblue" stroke="midnightblue" points="481.61,-364.97 476.33,-355.78 474.73,-366.26 481.61,-364.97"/>
</g>
<!-- Node31&#45;&gt;Node15 -->
<g id="edge67" class="edge">
<title>Node31&#45;&gt;Node15</title>
<path fill="none" stroke="midnightblue" d="M852.57,-504.47C863.53,-496.34 879.08,-483.13 888.05,-468 944.93,-372.14 953.11,-335.24 946.05,-224 942.88,-173.89 934.04,-115.32 929.25,-85.9"/>
<polygon fill="midnightblue" stroke="midnightblue" points="932.67,-85.11 927.58,-75.81 925.76,-86.25 932.67,-85.11"/>
</g>
<!-- Node31&#45;&gt;Node24 -->
<g id="edge66" class="edge">
<title>Node31&#45;&gt;Node24</title>
<path fill="none" stroke="midnightblue" d="M870.32,-504.43C891.77,-497.26 920.3,-485.37 941.05,-468 1028.58,-394.75 1057.75,-249.43 1065.58,-197.77"/>
<polygon fill="midnightblue" stroke="midnightblue" points="1069.07,-198.12 1067.01,-187.72 1062.14,-197.13 1069.07,-198.12"/>
</g>
<!-- Node31&#45;&gt;Node25 -->
<g id="edge68" class="edge">
<title>Node31&#45;&gt;Node25</title>
<path fill="none" stroke="midnightblue" d="M879.49,-504.46C905.22,-497.56 938.63,-485.99 964.05,-468 993.87,-446.91 1083.45,-317.29 1091.05,-300 1115.03,-245.49 1121.18,-227.12 1114.05,-168 1112.98,-159.11 1110.76,-149.43 1108.59,-141.34"/>
<polygon fill="midnightblue" stroke="midnightblue" points="1111.9,-140.17 1105.78,-131.51 1105.17,-142.09 1111.9,-140.17"/>
</g>
<!-- Node31&#45;&gt;Node26 -->
<g id="edge69" class="edge">
<title>Node31&#45;&gt;Node26</title>
<path fill="none" stroke="midnightblue" d="M846.87,-504.46C860.33,-486.69 889.05,-443.98 889.05,-403 889.05,-403 889.05,-403 889.05,-345 889.05,-312.84 892.92,-275.57 895.59,-253.71"/>
<polygon fill="midnightblue" stroke="midnightblue" points="899.09,-253.9 896.88,-243.54 892.15,-253.02 899.09,-253.9"/>
</g>
<!-- Node31&#45;&gt;Node27 -->
<g id="edge65" class="edge">
<title>Node31&#45;&gt;Node27</title>
<path fill="none" stroke="midnightblue" d="M830.97,-504.23C816.32,-490.51 786.04,-463.87 756.05,-448 727.49,-432.88 692.91,-421.61 665.51,-414.14"/>
<polygon fill="midnightblue" stroke="midnightblue" points="666.33,-410.73 655.77,-411.55 664.54,-417.5 666.33,-410.73"/>
</g>
<!-- Node32&#45;&gt;Node4 -->
<g id="edge74" class="edge">
<title>Node32&#45;&gt;Node4</title>
<path fill="none" stroke="midnightblue" d="M1056.31,-568.57C986.76,-566.84 843.41,-558.91 728.05,-524 688.25,-511.95 645.89,-488.24 620.98,-473.03"/>
<polygon fill="midnightblue" stroke="midnightblue" points="622.68,-469.96 612.34,-467.66 618.98,-475.91 622.68,-469.96"/>
</g>
<!-- Node32&#45;&gt;Node7 -->
<g id="edge75" class="edge">
<title>Node32&#45;&gt;Node7</title>
<path fill="none" stroke="midnightblue" d="M1079.91,-560.35C1021.24,-532.64 830.84,-444.81 666.05,-392 617.21,-376.35 559.76,-363.54 520.72,-355.65"/>
<polygon fill="midnightblue" stroke="midnightblue" points="521.21,-352.18 510.71,-353.65 519.84,-359.04 521.21,-352.18"/>
</g>
<!-- Node32&#45;&gt;Node15 -->
<g id="edge78" class="edge">
<title>Node32&#45;&gt;Node15</title>
<path fill="none" stroke="midnightblue" d="M1139.89,-561.17C1190.51,-549 1269.05,-520.24 1269.05,-459 1269.05,-459 1269.05,-459 1269.05,-177 1269.05,-130.15 1228.88,-131.01 1186.05,-112 1126.96,-85.76 1053.98,-74.77 1000.41,-70.2"/>
<polygon fill="midnightblue" stroke="midnightblue" points="1000.54,-66.7 990.3,-69.39 999.99,-73.68 1000.54,-66.7"/>
</g>
<!-- Node32&#45;&gt;Node24 -->
<g id="edge77" class="edge">
<title>Node32&#45;&gt;Node24</title>
<path fill="none" stroke="midnightblue" d="M1114.69,-560.46C1127.54,-552.84 1144.39,-540.36 1152.05,-524 1155.83,-515.95 1153.08,-512.83 1152.05,-504 1137.29,-377 1124.57,-345.92 1086.05,-224 1083.2,-214.97 1079.38,-205.19 1075.99,-197.06"/>
<polygon fill="midnightblue" stroke="midnightblue" points="1079.19,-195.64 1072.04,-187.82 1072.76,-198.39 1079.19,-195.64"/>
</g>
<!-- Node32&#45;&gt;Node25 -->
<g id="edge83" class="edge">
<title>Node32&#45;&gt;Node25</title>
<path fill="none" stroke="midnightblue" d="M1139.69,-567.06C1218.01,-562.81 1383.93,-550.86 1434.05,-524 1467.92,-505.85 1491.05,-497.42 1491.05,-459 1491.05,-459 1491.05,-459 1491.05,-233 1491.05,-162.25 1249.24,-134.65 1147.42,-126.17"/>
<polygon fill="midnightblue" stroke="midnightblue" points="1147.4,-122.65 1137.15,-125.34 1146.83,-129.63 1147.4,-122.65"/>
</g>
<!-- Node32&#45;&gt;Node27 -->
<g id="edge76" class="edge">
<title>Node32&#45;&gt;Node27</title>
<path fill="none" stroke="midnightblue" d="M1056.52,-567.24C977.93,-563.31 810.91,-551.86 761.05,-524 723,-502.73 732.49,-475.98 699.05,-448 683.48,-434.97 663.57,-423.85 647.39,-415.92"/>
<polygon fill="midnightblue" stroke="midnightblue" points="648.89,-412.76 638.35,-411.63 645.89,-419.08 648.89,-412.76"/>
</g>
<!-- Node33 -->
<g id="node33" class="node">
<title>Node33</title>
<g id="a_node33"><a xlink:href="_string_8hpp.html" target="_top" xlink:title=" ">
<polygon fill="none" stroke="black" points="1297.55,-504.5 1297.55,-523.5 1424.55,-523.5 1424.55,-504.5 1297.55,-504.5"/>
<text text-anchor="middle" x="1361.05" y="-511.5" font-family="Helvetica,sans-Serif" font-size="10.00">../Geometry/String.hpp</text>
</a>
</g>
</g>
<!-- Node32&#45;&gt;Node33 -->
<g id="edge79" class="edge">
<title>Node32&#45;&gt;Node33</title>
<path fill="none" stroke="midnightblue" d="M1139.73,-560.44C1185.8,-550.98 1260.05,-535.74 1309.69,-525.55"/>
<polygon fill="midnightblue" stroke="midnightblue" points="1310.48,-528.96 1319.58,-523.52 1309.08,-522.1 1310.48,-528.96"/>
</g>
<!-- Node36 -->
<g id="node36" class="node">
<title>Node36</title>
<g id="a_node36"><a xlink:href="_quad_node_8hpp.html" target="_top" xlink:title=" ">
<polygon fill="none" stroke="black" points="1053.55,-504.5 1053.55,-523.5 1142.55,-523.5 1142.55,-504.5 1053.55,-504.5"/>
<text text-anchor="middle" x="1098.05" y="-511.5" font-family="Helvetica,sans-Serif" font-size="10.00">QuadNode.hpp</text>
</a>
</g>
</g>
<!-- Node32&#45;&gt;Node36 -->
<g id="edge84" class="edge">
<title>Node32&#45;&gt;Node36</title>
<path fill="none" stroke="midnightblue" d="M1098.05,-560.08C1098.05,-553.01 1098.05,-542.86 1098.05,-533.99"/>
<polygon fill="midnightblue" stroke="midnightblue" points="1101.55,-533.75 1098.05,-523.75 1094.55,-533.75 1101.55,-533.75"/>
</g>
<!-- Node33&#45;&gt;Node15 -->
<g id="edge82" class="edge">
<title>Node33&#45;&gt;Node15</title>
<path fill="none" stroke="midnightblue" d="M1352.72,-504.39C1344.84,-495.8 1333.17,-481.92 1326.05,-468 1312.35,-441.2 1307.05,-433.1 1307.05,-403 1307.05,-403 1307.05,-403 1307.05,-177 1307.05,-146.2 1307.17,-131.15 1283.05,-112 1240.62,-78.3 1091.73,-69.61 1000.17,-67.51"/>
<polygon fill="midnightblue" stroke="midnightblue" points="1000.2,-64.01 990.12,-67.3 1000.05,-71.01 1000.2,-64.01"/>
</g>
<!-- Node34 -->
<g id="node34" class="node">
<title>Node34</title>
<g id="a_node34"><a xlink:title=" ">
<polygon fill="none" stroke="#bfbfbf" points="1397.55,-448.5 1397.55,-467.5 1462.55,-467.5 1462.55,-448.5 1397.55,-448.5"/>
<text text-anchor="middle" x="1430.05" y="-455.5" font-family="Helvetica,sans-Serif" font-size="10.00">stdexcept</text>
</a>
</g>
</g>
<!-- Node33&#45;&gt;Node34 -->
<g id="edge80" class="edge">
<title>Node33&#45;&gt;Node34</title>
<path fill="none" stroke="midnightblue" d="M1372.14,-504.32C1382.54,-496.18 1398.32,-483.84 1410.78,-474.09"/>
<polygon fill="midnightblue" stroke="midnightblue" points="1413.05,-476.75 1418.77,-467.83 1408.73,-471.24 1413.05,-476.75"/>
</g>
<!-- Node35 -->
<g id="node35" class="node">
<title>Node35</title>
<g id="a_node35"><a xlink:title=" ">
<polygon fill="none" stroke="#bfbfbf" points="1335.05,-448.5 1335.05,-467.5 1379.05,-467.5 1379.05,-448.5 1335.05,-448.5"/>
<text text-anchor="middle" x="1357.05" y="-455.5" font-family="Helvetica,sans-Serif" font-size="10.00">string</text>
</a>
</g>
</g>
<!-- Node33&#45;&gt;Node35 -->
<g id="edge81" class="edge">
<title>Node33&#45;&gt;Node35</title>
<path fill="none" stroke="midnightblue" d="M1360.39,-504.08C1359.87,-497.01 1359.12,-486.86 1358.46,-477.99"/>
<polygon fill="midnightblue" stroke="midnightblue" points="1361.93,-477.47 1357.7,-467.75 1354.95,-477.98 1361.93,-477.47"/>
</g>
<!-- Node36&#45;&gt;Node4 -->
<g id="edge85" class="edge">
<title>Node36&#45;&gt;Node4</title>
<path fill="none" stroke="midnightblue" d="M1053.33,-508.16C965.71,-498.68 770.94,-477.6 667.19,-466.37"/>
<polygon fill="midnightblue" stroke="midnightblue" points="667.45,-462.88 657.14,-465.29 666.7,-469.84 667.45,-462.88"/>
</g>
<!-- Node36&#45;&gt;Node7 -->
<g id="edge86" class="edge">
<title>Node36&#45;&gt;Node7</title>
<path fill="none" stroke="midnightblue" d="M1085.63,-504.43C1051.93,-481.68 955.28,-419.61 865.05,-392 744.7,-355.17 595.04,-348.06 520.99,-346.96"/>
<polygon fill="midnightblue" stroke="midnightblue" points="520.66,-343.45 510.62,-346.83 520.58,-350.45 520.66,-343.45"/>
</g>
<!-- Node36&#45;&gt;Node15 -->
<g id="edge89" class="edge">
<title>Node36&#45;&gt;Node15</title>
<path fill="none" stroke="midnightblue" d="M1112.54,-504.4C1147.01,-482.72 1231.05,-422.15 1231.05,-347 1231.05,-347 1231.05,-347 1231.05,-177 1231.05,-129.44 1189.34,-131.71 1146.05,-112 1100.14,-91.09 1044.42,-79.82 1000.55,-73.79"/>
<polygon fill="midnightblue" stroke="midnightblue" points="1000.89,-70.3 990.52,-72.47 999.98,-77.25 1000.89,-70.3"/>
</g>
<!-- Node36&#45;&gt;Node24 -->
<g id="edge88" class="edge">
<title>Node36&#45;&gt;Node24</title>
<path fill="none" stroke="midnightblue" d="M1097.28,-504.41C1093.34,-460.47 1075.38,-260.57 1069.75,-197.87"/>
<polygon fill="midnightblue" stroke="midnightblue" points="1073.2,-197.18 1068.82,-187.54 1066.23,-197.81 1073.2,-197.18"/>
</g>
<!-- Node36&#45;&gt;Node25 -->
<g id="edge90" class="edge">
<title>Node36&#45;&gt;Node25</title>
<path fill="none" stroke="midnightblue" d="M1102.08,-504.33C1115.06,-475.86 1155.69,-382.34 1169.05,-300 1178.45,-242.09 1196.47,-219.87 1169.05,-168 1161.63,-153.95 1147.63,-143.47 1134.43,-136.17"/>
<polygon fill="midnightblue" stroke="midnightblue" points="1136.01,-133.04 1125.51,-131.62 1132.83,-139.28 1136.01,-133.04"/>
</g>
<!-- Node36&#45;&gt;Node27 -->
<g id="edge87" class="edge">
<title>Node36&#45;&gt;Node27</title>
<path fill="none" stroke="midnightblue" d="M1060.79,-504.46C974.4,-484.66 760.56,-435.66 665.23,-413.81"/>
<polygon fill="midnightblue" stroke="midnightblue" points="665.83,-410.36 655.3,-411.53 664.26,-417.18 665.83,-410.36"/>
</g>
</g>
</svg>
