<?xml version="1.0" encoding="UTF-8" standalone="no"?>
<!DOCTYPE svg PUBLIC "-//W3C//DTD SVG 1.1//EN"
 "http://www.w3.org/Graphics/SVG/1.1/DTD/svg11.dtd">
<!-- Generated by graphviz version 2.43.0 (0)
 -->
<!-- Title: /home/runner/work/Simulatio/Simulatio/include/Structures/System.hpp Pages: 1 -->
<svg width="1504pt" height="666pt"
 viewBox="0.00 0.00 1504.02 666.00" xmlns="http://www.w3.org/2000/svg" xmlns:xlink="http://www.w3.org/1999/xlink">
<g id="graph0" class="graph" transform="scale(1 1) rotate(0) translate(4 662)">
<title>/home/runner/work/Simulatio/Simulatio/include/Structures/System.hpp</title>
<!-- Node1 -->
<g id="node1" class="node">
<title>Node1</title>
<g id="a_node1"><a xlink:title=" ">
<polygon fill="#bfbfbf" stroke="black" points="465.02,-616.5 465.02,-657.5 623.02,-657.5 623.02,-616.5 465.02,-616.5"/>
<text text-anchor="start" x="473.02" y="-645.5" font-family="Helvetica,sans-Serif" font-size="10.00">/home/runner/work/Simulatio</text>
<text text-anchor="start" x="473.02" y="-634.5" font-family="Helvetica,sans-Serif" font-size="10.00">/Simulatio/include/Structures</text>
<text text-anchor="middle" x="544.02" y="-623.5" font-family="Helvetica,sans-Serif" font-size="10.00">/System.hpp</text>
</a>
</g>
</g>
<!-- Node2 -->
<g id="node2" class="node">
<title>Node2</title>
<g id="a_node2"><a xlink:href="_constraint_8hpp.html" target="_top" xlink:title=" ">
<polygon fill="none" stroke="black" points="199.52,-504.5 199.52,-523.5 354.52,-523.5 354.52,-504.5 199.52,-504.5"/>
<text text-anchor="middle" x="277.02" y="-511.5" font-family="Helvetica,sans-Serif" font-size="10.00">../Constraints/Constraint.hpp</text>
</a>
</g>
</g>
<!-- Node1&#45;&gt;Node2 -->
<g id="edge1" class="edge">
<title>Node1&#45;&gt;Node2</title>
<path fill="none" stroke="midnightblue" d="M464.89,-621.02C429.02,-612.23 386.93,-599.02 352.02,-580 328.53,-567.2 305.95,-546.02 291.81,-531.33"/>
<polygon fill="midnightblue" stroke="midnightblue" points="294.27,-528.83 284.88,-523.93 289.16,-533.62 294.27,-528.83"/>
</g>
<!-- Node3 -->
<g id="node3" class="node">
<title>Node3</title>
<g id="a_node3"><a xlink:href="_circle_8hpp.html" target="_top" xlink:title=" ">
<polygon fill="none" stroke="black" points="502.02,-448.5 502.02,-467.5 618.02,-467.5 618.02,-448.5 502.02,-448.5"/>
<text text-anchor="middle" x="560.02" y="-455.5" font-family="Helvetica,sans-Serif" font-size="10.00">../Corpses/Circle.hpp</text>
</a>
</g>
</g>
<!-- Node1&#45;&gt;Node3 -->
<g id="edge57" class="edge">
<title>Node1&#45;&gt;Node3</title>
<path fill="none" stroke="midnightblue" d="M545.8,-616.38C548.9,-582.08 555.26,-511.66 558.32,-477.88"/>
<polygon fill="midnightblue" stroke="midnightblue" points="561.83,-477.86 559.25,-467.58 554.86,-477.23 561.83,-477.86"/>
</g>
<!-- Node5 -->
<g id="node5" class="node">
<title>Node5</title>
<g id="a_node5"><a xlink:title=" ">
<polygon fill="none" stroke="#bfbfbf" points="223.02,-224.5 223.02,-243.5 291.02,-243.5 291.02,-224.5 223.02,-224.5"/>
<text text-anchor="middle" x="257.02" y="-231.5" font-family="Helvetica,sans-Serif" font-size="10.00">Config.hpp</text>
</a>
</g>
</g>
<!-- Node1&#45;&gt;Node5 -->
<g id="edge70" class="edge">
<title>Node1&#45;&gt;Node5</title>
<path fill="none" stroke="midnightblue" d="M464.96,-632.35C326.93,-625.29 53.43,-607.93 20.02,-580 -3.07,-560.69 1.02,-545.1 1.02,-515 1.02,-515 1.02,-515 1.02,-345 1.02,-254.06 139.09,-237.36 212.44,-234.91"/>
<polygon fill="midnightblue" stroke="midnightblue" points="212.86,-238.4 222.76,-234.65 212.68,-231.4 212.86,-238.4"/>
</g>
<!-- Node6 -->
<g id="node6" class="node">
<title>Node6</title>
<g id="a_node6"><a xlink:href="_corpse_8hpp.html" target="_top" xlink:title=" ">
<polygon fill="none" stroke="black" points="558.52,-336.5 558.52,-355.5 629.52,-355.5 629.52,-336.5 558.52,-336.5"/>
<text text-anchor="middle" x="594.02" y="-343.5" font-family="Helvetica,sans-Serif" font-size="10.00">Corpse.hpp</text>
</a>
</g>
</g>
<!-- Node1&#45;&gt;Node6 -->
<g id="edge58" class="edge">
<title>Node1&#45;&gt;Node6</title>
<path fill="none" stroke="midnightblue" d="M535.38,-616.19C517.73,-574.48 480.21,-478.93 493.02,-448 508.83,-409.84 546.82,-378.59 571.43,-361.4"/>
<polygon fill="midnightblue" stroke="midnightblue" points="573.51,-364.22 579.83,-355.72 569.59,-358.42 573.51,-364.22"/>
</g>
<!-- Node10 -->
<g id="node10" class="node">
<title>Node10</title>
<g id="a_node10"><a xlink:href="_geometry_8hpp.html" target="_top" xlink:title=" ">
<polygon fill="none" stroke="black" points="661.02,-280.5 661.02,-299.5 807.02,-299.5 807.02,-280.5 661.02,-280.5"/>
<text text-anchor="middle" x="734.02" y="-287.5" font-family="Helvetica,sans-Serif" font-size="10.00">../Geometry/Geometry.hpp</text>
</a>
</g>
</g>
<!-- Node1&#45;&gt;Node10 -->
<g id="edge68" class="edge">
<title>Node1&#45;&gt;Node10</title>
<path fill="none" stroke="midnightblue" d="M623.21,-633.29C764.5,-627.65 1048.24,-612.39 1079.02,-580 1193.34,-459.73 880.56,-340.12 770.63,-302.84"/>
<polygon fill="midnightblue" stroke="midnightblue" points="771.54,-299.46 760.95,-299.59 769.31,-306.09 771.54,-299.46"/>
</g>
<!-- Node14 -->
<g id="node14" class="node">
<title>Node14</title>
<g id="a_node14"><a xlink:href="_maths_8hpp.html" target="_top" xlink:title=" ">
<polygon fill="none" stroke="black" points="866.02,-56.5 866.02,-75.5 994.02,-75.5 994.02,-56.5 866.02,-56.5"/>
<text text-anchor="middle" x="930.02" y="-63.5" font-family="Helvetica,sans-Serif" font-size="10.00">../Geometry/Maths.hpp</text>
</a>
</g>
</g>
<!-- Node1&#45;&gt;Node14 -->
<g id="edge69" class="edge">
<title>Node1&#45;&gt;Node14</title>
<path fill="none" stroke="midnightblue" d="M623.14,-634.21C851.59,-628.01 1496.02,-602.73 1496.02,-515 1496.02,-515 1496.02,-515 1496.02,-177 1496.02,-77.98 1158.02,-66.31 1004.41,-66.12"/>
<polygon fill="midnightblue" stroke="midnightblue" points="1004.12,-62.62 994.12,-66.12 1004.13,-69.62 1004.12,-62.62"/>
</g>
<!-- Node25 -->
<g id="node25" class="node">
<title>Node25</title>
<g id="a_node25"><a xlink:href="_polygon_8hpp.html" target="_top" xlink:title=" ">
<polygon fill="none" stroke="black" points="572.52,-392.5 572.52,-411.5 649.52,-411.5 649.52,-392.5 572.52,-392.5"/>
<text text-anchor="middle" x="611.02" y="-399.5" font-family="Helvetica,sans-Serif" font-size="10.00">Polygon.hpp</text>
</a>
</g>
</g>
<!-- Node1&#45;&gt;Node25 -->
<g id="edge59" class="edge">
<title>Node1&#45;&gt;Node25</title>
<path fill="none" stroke="midnightblue" d="M557.44,-616.46C577.29,-586.25 613.56,-525.66 627.02,-468 630.73,-452.1 625.56,-434.09 620.13,-421.06"/>
<polygon fill="midnightblue" stroke="midnightblue" points="623.24,-419.44 615.88,-411.82 616.88,-422.36 623.24,-419.44"/>
</g>
<!-- Node26 -->
<g id="node26" class="node">
<title>Node26</title>
<g id="a_node26"><a xlink:href="_link_8hpp.html" target="_top" xlink:title=" ">
<polygon fill="none" stroke="black" points="29.52,-560.5 29.52,-579.5 154.52,-579.5 154.52,-560.5 29.52,-560.5"/>
<text text-anchor="middle" x="92.02" y="-567.5" font-family="Helvetica,sans-Serif" font-size="10.00">../Constraints/Link.hpp</text>
</a>
</g>
</g>
<!-- Node1&#45;&gt;Node26 -->
<g id="edge48" class="edge">
<title>Node1&#45;&gt;Node26</title>
<path fill="none" stroke="midnightblue" d="M464.77,-624.6C378.85,-612.25 243.08,-592.72 161.29,-580.96"/>
<polygon fill="midnightblue" stroke="midnightblue" points="161.74,-577.49 151.34,-579.53 160.74,-584.42 161.74,-577.49"/>
</g>
<!-- Node27 -->
<g id="node27" class="node">
<title>Node27</title>
<g id="a_node27"><a xlink:href="_slider_8hpp.html" target="_top" xlink:title=" ">
<polygon fill="none" stroke="black" points="173.02,-560.5 173.02,-579.5 305.02,-579.5 305.02,-560.5 173.02,-560.5"/>
<text text-anchor="middle" x="239.02" y="-567.5" font-family="Helvetica,sans-Serif" font-size="10.00">../Constraints/Slider.hpp</text>
</a>
</g>
</g>
<!-- Node1&#45;&gt;Node27 -->
<g id="edge51" class="edge">
<title>Node1&#45;&gt;Node27</title>
<path fill="none" stroke="midnightblue" d="M464.68,-619.09C409.27,-607.28 336.96,-591.87 289.32,-581.72"/>
<polygon fill="midnightblue" stroke="midnightblue" points="289.75,-578.23 279.24,-579.57 288.29,-585.08 289.75,-578.23"/>
</g>
<!-- Node28 -->
<g id="node28" class="node">
<title>Node28</title>
<g id="a_node28"><a xlink:href="_spring_8hpp.html" target="_top" xlink:title=" ">
<polygon fill="none" stroke="black" points="361.02,-560.5 361.02,-579.5 497.02,-579.5 497.02,-560.5 361.02,-560.5"/>
<text text-anchor="middle" x="429.02" y="-567.5" font-family="Helvetica,sans-Serif" font-size="10.00">../Constraints/Spring.hpp</text>
</a>
</g>
</g>
<!-- Node1&#45;&gt;Node28 -->
<g id="edge54" class="edge">
<title>Node1&#45;&gt;Node28</title>
<path fill="none" stroke="midnightblue" d="M509.52,-616.5C491.38,-606.24 469.58,-593.93 453.25,-584.69"/>
<polygon fill="midnightblue" stroke="midnightblue" points="454.76,-581.53 444.33,-579.65 451.31,-587.62 454.76,-581.53"/>
</g>
<!-- Node29 -->
<g id="node29" class="node">
<title>Node29</title>
<g id="a_node29"><a xlink:href="_collision_8hpp.html" target="_top" xlink:title=" ">
<polygon fill="none" stroke="black" points="758.02,-504.5 758.02,-523.5 898.02,-523.5 898.02,-504.5 758.02,-504.5"/>
<text text-anchor="middle" x="828.02" y="-511.5" font-family="Helvetica,sans-Serif" font-size="10.00">../Geometry/Collision.hpp</text>
</a>
</g>
</g>
<!-- Node1&#45;&gt;Node29 -->
<g id="edge60" class="edge">
<title>Node1&#45;&gt;Node29</title>
<path fill="none" stroke="midnightblue" d="M589.97,-616.42C648.72,-591.39 748.76,-548.77 798.35,-527.64"/>
<polygon fill="midnightblue" stroke="midnightblue" points="800.02,-530.74 807.85,-523.6 797.27,-524.3 800.02,-530.74"/>
</g>
<!-- Node30 -->
<g id="node30" class="node">
<title>Node30</title>
<g id="a_node30"><a xlink:href="_quadtree_8hpp.html" target="_top" xlink:title=" ">
<polygon fill="none" stroke="black" points="986.52,-560.5 986.52,-579.5 1069.52,-579.5 1069.52,-560.5 986.52,-560.5"/>
<text text-anchor="middle" x="1028.02" y="-567.5" font-family="Helvetica,sans-Serif" font-size="10.00">QuadTree.hpp</text>
</a>
</g>
</g>
<!-- Node1&#45;&gt;Node30 -->
<g id="edge71" class="edge">
<title>Node1&#45;&gt;Node30</title>
<path fill="none" stroke="midnightblue" d="M623.13,-625.38C722.83,-611.99 891.38,-589.35 976.11,-577.97"/>
<polygon fill="midnightblue" stroke="midnightblue" points="976.82,-581.41 986.27,-576.61 975.89,-574.47 976.82,-581.41"/>
</g>
<!-- Node2&#45;&gt;Node3 -->
<g id="edge2" class="edge">
<title>Node2&#45;&gt;Node3</title>
<path fill="none" stroke="midnightblue" d="M321.86,-504.44C371.65,-494.94 452.01,-479.61 505.41,-469.42"/>
<polygon fill="midnightblue" stroke="midnightblue" points="506.22,-472.83 515.39,-467.52 504.91,-465.95 506.22,-472.83"/>
</g>
<!-- Node2&#45;&gt;Node5 -->
<g id="edge47" class="edge">
<title>Node2&#45;&gt;Node5</title>
<path fill="none" stroke="midnightblue" d="M268.71,-504.41C252.67,-486.89 219.02,-445.1 219.02,-403 219.02,-403 219.02,-403 219.02,-345 219.02,-310.81 235.62,-273.76 246.88,-252.57"/>
<polygon fill="midnightblue" stroke="midnightblue" points="249.97,-254.22 251.74,-243.77 243.84,-250.83 249.97,-254.22"/>
</g>
<!-- Node2&#45;&gt;Node6 -->
<g id="edge43" class="edge">
<title>Node2&#45;&gt;Node6</title>
<path fill="none" stroke="midnightblue" d="M284.58,-504.5C304.68,-482.43 361.98,-422.93 422.02,-392 462.11,-371.35 512.45,-359.62 548.29,-353.34"/>
<polygon fill="midnightblue" stroke="midnightblue" points="549.17,-356.75 558.46,-351.64 548.02,-349.84 549.17,-356.75"/>
</g>
<!-- Node2&#45;&gt;Node10 -->
<g id="edge45" class="edge">
<title>Node2&#45;&gt;Node10</title>
<path fill="none" stroke="midnightblue" d="M281.28,-504.4C287.98,-491.35 301.9,-466.16 318.02,-448 344.24,-418.46 352.5,-411.19 387.02,-392 477.11,-341.93 594.47,-314.53 667,-301.32"/>
<polygon fill="midnightblue" stroke="midnightblue" points="667.7,-304.75 676.93,-299.55 666.47,-297.86 667.7,-304.75"/>
</g>
<!-- Node2&#45;&gt;Node14 -->
<g id="edge46" class="edge">
<title>Node2&#45;&gt;Node14</title>
<path fill="none" stroke="midnightblue" d="M261.17,-504.44C233.9,-488.43 181.02,-451.16 181.02,-403 181.02,-403 181.02,-403 181.02,-177 181.02,-109.29 666.41,-79.31 855.7,-70.19"/>
<polygon fill="midnightblue" stroke="midnightblue" points="856.02,-73.68 865.84,-69.71 855.68,-66.69 856.02,-73.68"/>
</g>
<!-- Node2&#45;&gt;Node25 -->
<g id="edge44" class="edge">
<title>Node2&#45;&gt;Node25</title>
<path fill="none" stroke="midnightblue" d="M302.95,-504.46C362.14,-484.97 507.3,-437.16 575.07,-414.84"/>
<polygon fill="midnightblue" stroke="midnightblue" points="576.47,-418.06 584.88,-411.61 574.28,-411.41 576.47,-418.06"/>
</g>
<!-- Node4 -->
<g id="node4" class="node">
<title>Node4</title>
<g id="a_node4"><a xlink:title=" ">
<polygon fill="none" stroke="#bfbfbf" points="424.52,-0.5 424.52,-19.5 471.52,-19.5 471.52,-0.5 424.52,-0.5"/>
<text text-anchor="middle" x="448.02" y="-7.5" font-family="Helvetica,sans-Serif" font-size="10.00">vector</text>
</a>
</g>
</g>
<!-- Node3&#45;&gt;Node4 -->
<g id="edge3" class="edge">
<title>Node3&#45;&gt;Node4</title>
<path fill="none" stroke="midnightblue" d="M543.48,-448.48C496.57,-423.01 366.02,-342.49 366.02,-235 366.02,-235 366.02,-235 366.02,-121 366.02,-80.27 402.61,-44.87 426.91,-25.86"/>
<polygon fill="midnightblue" stroke="midnightblue" points="429.32,-28.42 435.21,-19.61 425.11,-22.82 429.32,-28.42"/>
</g>
<!-- Node3&#45;&gt;Node5 -->
<g id="edge4" class="edge">
<title>Node3&#45;&gt;Node5</title>
<path fill="none" stroke="midnightblue" d="M534.15,-448.45C493.34,-434.08 412.93,-402.05 357.02,-356 318.97,-324.66 284.77,-277.19 267.97,-252.04"/>
<polygon fill="midnightblue" stroke="midnightblue" points="270.83,-250.01 262.41,-243.57 264.97,-253.85 270.83,-250.01"/>
</g>
<!-- Node3&#45;&gt;Node6 -->
<g id="edge5" class="edge">
<title>Node3&#45;&gt;Node6</title>
<path fill="none" stroke="midnightblue" d="M559.15,-448.31C558.19,-435.59 557.53,-411.29 564.02,-392 567.5,-381.67 573.99,-371.46 580.04,-363.39"/>
<polygon fill="midnightblue" stroke="midnightblue" points="582.79,-365.56 586.28,-355.55 577.31,-361.2 582.79,-365.56"/>
</g>
<!-- Node3&#45;&gt;Node25 -->
<g id="edge38" class="edge">
<title>Node3&#45;&gt;Node25</title>
<path fill="none" stroke="midnightblue" d="M563.28,-448.08C569.16,-440.06 580.12,-428.1 590.19,-418.51"/>
<polygon fill="midnightblue" stroke="midnightblue" points="592.59,-421.07 597.63,-411.75 587.87,-415.89 592.59,-421.07"/>
</g>
<!-- Node6&#45;&gt;Node4 -->
<g id="edge9" class="edge">
<title>Node6&#45;&gt;Node4</title>
<path fill="none" stroke="midnightblue" d="M582.25,-336.39C553.12,-314 480.02,-250.67 480.02,-179 480.02,-179 480.02,-179 480.02,-121 480.02,-87.33 466.03,-50.08 456.55,-28.72"/>
<polygon fill="midnightblue" stroke="midnightblue" points="459.7,-27.21 452.34,-19.59 453.35,-30.14 459.7,-27.21"/>
</g>
<!-- Node6&#45;&gt;Node5 -->
<g id="edge37" class="edge">
<title>Node6&#45;&gt;Node5</title>
<path fill="none" stroke="midnightblue" d="M572.54,-336.42C539.58,-323.41 474.42,-298.26 418.02,-280 378.66,-267.25 333.2,-254.75 300.65,-246.17"/>
<polygon fill="midnightblue" stroke="midnightblue" points="301.12,-242.67 290.56,-243.52 299.35,-249.44 301.12,-242.67"/>
</g>
<!-- Node7 -->
<g id="node7" class="node">
<title>Node7</title>
<g id="a_node7"><a xlink:title=" ">
<polygon fill="none" stroke="#bfbfbf" points="494.52,-0.5 494.52,-19.5 541.52,-19.5 541.52,-0.5 494.52,-0.5"/>
<text text-anchor="middle" x="518.02" y="-7.5" font-family="Helvetica,sans-Serif" font-size="10.00">cmath</text>
</a>
</g>
</g>
<!-- Node6&#45;&gt;Node7 -->
<g id="edge6" class="edge">
<title>Node6&#45;&gt;Node7</title>
<path fill="none" stroke="midnightblue" d="M586.74,-336.29C567.71,-312.65 518.02,-244.61 518.02,-179 518.02,-179 518.02,-179 518.02,-121 518.02,-88.95 518.02,-51.64 518.02,-29.75"/>
<polygon fill="midnightblue" stroke="midnightblue" points="521.52,-29.56 518.02,-19.56 514.52,-29.56 521.52,-29.56"/>
</g>
<!-- Node8 -->
<g id="node8" class="node">
<title>Node8</title>
<g id="a_node8"><a xlink:title=" ">
<polygon fill="none" stroke="#bfbfbf" points="560.02,-0.5 560.02,-19.5 620.02,-19.5 620.02,-0.5 560.02,-0.5"/>
<text text-anchor="middle" x="590.02" y="-7.5" font-family="Helvetica,sans-Serif" font-size="10.00">iostream</text>
</a>
</g>
</g>
<!-- Node6&#45;&gt;Node8 -->
<g id="edge7" class="edge">
<title>Node6&#45;&gt;Node8</title>
<path fill="none" stroke="midnightblue" d="M590.52,-336.17C581.11,-311.65 556.02,-240.5 556.02,-179 556.02,-179 556.02,-179 556.02,-121 556.02,-87.16 570.89,-49.97 580.96,-28.66"/>
<polygon fill="midnightblue" stroke="midnightblue" points="584.17,-30.08 585.44,-19.56 577.88,-26.99 584.17,-30.08"/>
</g>
<!-- Node9 -->
<g id="node9" class="node">
<title>Node9</title>
<g id="a_node9"><a xlink:title=" ">
<polygon fill="none" stroke="#bfbfbf" points="638.02,-0.5 638.02,-19.5 696.02,-19.5 696.02,-0.5 638.02,-0.5"/>
<text text-anchor="middle" x="667.02" y="-7.5" font-family="Helvetica,sans-Serif" font-size="10.00">memory</text>
</a>
</g>
</g>
<!-- Node6&#45;&gt;Node9 -->
<g id="edge8" class="edge">
<title>Node6&#45;&gt;Node9</title>
<path fill="none" stroke="midnightblue" d="M594.02,-336.36C594.02,-311.76 594.02,-239.23 594.02,-179 594.02,-179 594.02,-179 594.02,-121 594.02,-81.78 626.65,-45.84 648.27,-26.32"/>
<polygon fill="midnightblue" stroke="midnightblue" points="650.68,-28.87 655.94,-19.67 646.09,-23.58 650.68,-28.87"/>
</g>
<!-- Node6&#45;&gt;Node10 -->
<g id="edge10" class="edge">
<title>Node6&#45;&gt;Node10</title>
<path fill="none" stroke="midnightblue" d="M616.21,-336.44C639.45,-327.48 676.17,-313.31 702.44,-303.18"/>
<polygon fill="midnightblue" stroke="midnightblue" points="703.87,-306.38 711.94,-299.52 701.35,-299.85 703.87,-306.38"/>
</g>
<!-- Node10&#45;&gt;Node5 -->
<g id="edge30" class="edge">
<title>Node10&#45;&gt;Node5</title>
<path fill="none" stroke="midnightblue" d="M660.8,-280.71C560.49,-269.36 383.46,-249.31 301.26,-240.01"/>
<polygon fill="midnightblue" stroke="midnightblue" points="301.58,-236.52 291.25,-238.87 300.79,-243.48 301.58,-236.52"/>
</g>
<!-- Node11 -->
<g id="node11" class="node">
<title>Node11</title>
<g id="a_node11"><a xlink:href="_recorder_8hpp.html" target="_top" xlink:title=" ">
<polygon fill="none" stroke="black" points="660.02,-224.5 660.02,-243.5 808.02,-243.5 808.02,-224.5 660.02,-224.5"/>
<text text-anchor="middle" x="734.02" y="-231.5" font-family="Helvetica,sans-Serif" font-size="10.00">../Benchmark/Recorder.hpp</text>
</a>
</g>
</g>
<!-- Node10&#45;&gt;Node11 -->
<g id="edge11" class="edge">
<title>Node10&#45;&gt;Node11</title>
<path fill="none" stroke="midnightblue" d="M734.02,-280.08C734.02,-273.01 734.02,-262.86 734.02,-253.99"/>
<polygon fill="midnightblue" stroke="midnightblue" points="737.52,-253.75 734.02,-243.75 730.52,-253.75 737.52,-253.75"/>
</g>
<!-- Node10&#45;&gt;Node14 -->
<g id="edge31" class="edge">
<title>Node10&#45;&gt;Node14</title>
<path fill="none" stroke="midnightblue" d="M701.84,-280.49C683.48,-273.8 662.01,-262.45 651.02,-244 623.49,-197.75 615.05,-182.68 708.02,-112 730.97,-94.55 800.46,-82.33 855.65,-75.07"/>
<polygon fill="midnightblue" stroke="midnightblue" points="856.3,-78.51 865.77,-73.77 855.41,-71.57 856.3,-78.51"/>
</g>
<!-- Node22 -->
<g id="node22" class="node">
<title>Node22</title>
<g id="a_node22"><a xlink:href="_bounds_8hpp.html" target="_top" xlink:title=" ">
<polygon fill="none" stroke="black" points="1007.02,-168.5 1007.02,-187.5 1081.02,-187.5 1081.02,-168.5 1007.02,-168.5"/>
<text text-anchor="middle" x="1044.02" y="-175.5" font-family="Helvetica,sans-Serif" font-size="10.00">Bounds.hpp</text>
</a>
</g>
</g>
<!-- Node10&#45;&gt;Node22 -->
<g id="edge26" class="edge">
<title>Node10&#45;&gt;Node22</title>
<path fill="none" stroke="midnightblue" d="M807.05,-281.69C871.14,-274.28 958.72,-261.42 989.02,-244 1008.58,-232.76 1024.36,-211.83 1033.92,-196.75"/>
<polygon fill="midnightblue" stroke="midnightblue" points="1037.12,-198.22 1039.28,-187.85 1031.12,-194.61 1037.12,-198.22"/>
</g>
<!-- Node23 -->
<g id="node23" class="node">
<title>Node23</title>
<g id="a_node23"><a xlink:href="_vector_8hpp.html" target="_top" xlink:title=" ">
<polygon fill="none" stroke="black" points="1010.02,-112.5 1010.02,-131.5 1078.02,-131.5 1078.02,-112.5 1010.02,-112.5"/>
<text text-anchor="middle" x="1044.02" y="-119.5" font-family="Helvetica,sans-Serif" font-size="10.00">Vector.hpp</text>
</a>
</g>
</g>
<!-- Node10&#45;&gt;Node23 -->
<g id="edge32" class="edge">
<title>Node10&#45;&gt;Node23</title>
<path fill="none" stroke="midnightblue" d="M750.25,-280.31C801.1,-253.08 957.57,-169.29 1018.95,-136.43"/>
<polygon fill="midnightblue" stroke="midnightblue" points="1020.79,-139.41 1027.95,-131.61 1017.48,-133.24 1020.79,-139.41"/>
</g>
<!-- Node24 -->
<g id="node24" class="node">
<title>Node24</title>
<g id="a_node24"><a xlink:href="_vertices_8hpp.html" target="_top" xlink:title=" ">
<polygon fill="none" stroke="black" points="902.52,-224.5 902.52,-243.5 979.52,-243.5 979.52,-224.5 902.52,-224.5"/>
<text text-anchor="middle" x="941.02" y="-231.5" font-family="Helvetica,sans-Serif" font-size="10.00">Vertices.hpp</text>
</a>
</g>
</g>
<!-- Node10&#45;&gt;Node24 -->
<g id="edge33" class="edge">
<title>Node10&#45;&gt;Node24</title>
<path fill="none" stroke="midnightblue" d="M766.82,-280.44C802.4,-271.16 859.34,-256.31 898.37,-246.13"/>
<polygon fill="midnightblue" stroke="midnightblue" points="899.58,-249.43 908.38,-243.52 897.82,-242.65 899.58,-249.43"/>
</g>
<!-- Node12 -->
<g id="node12" class="node">
<title>Node12</title>
<g id="a_node12"><a xlink:href="_performance_8hpp.html" target="_top" xlink:title=" ">
<polygon fill="none" stroke="black" points="696.02,-168.5 696.02,-187.5 796.02,-187.5 796.02,-168.5 696.02,-168.5"/>
<text text-anchor="middle" x="746.02" y="-175.5" font-family="Helvetica,sans-Serif" font-size="10.00">Performance.hpp</text>
</a>
</g>
</g>
<!-- Node11&#45;&gt;Node12 -->
<g id="edge12" class="edge">
<title>Node11&#45;&gt;Node12</title>
<path fill="none" stroke="midnightblue" d="M736,-224.08C737.59,-216.93 739.88,-206.64 741.87,-197.69"/>
<polygon fill="midnightblue" stroke="midnightblue" points="745.32,-198.27 744.08,-187.75 738.49,-196.75 745.32,-198.27"/>
</g>
<!-- Node13 -->
<g id="node13" class="node">
<title>Node13</title>
<g id="a_node13"><a xlink:href="_block_data_8hpp.html" target="_top" xlink:title=" ">
<polygon fill="none" stroke="black" points="717.02,-112.5 717.02,-131.5 805.02,-131.5 805.02,-112.5 717.02,-112.5"/>
<text text-anchor="middle" x="761.02" y="-119.5" font-family="Helvetica,sans-Serif" font-size="10.00">BlockData.hpp</text>
</a>
</g>
</g>
<!-- Node12&#45;&gt;Node13 -->
<g id="edge13" class="edge">
<title>Node12&#45;&gt;Node13</title>
<path fill="none" stroke="midnightblue" d="M748.5,-168.08C750.51,-160.85 753.41,-150.41 755.91,-141.4"/>
<polygon fill="midnightblue" stroke="midnightblue" points="759.29,-142.32 758.59,-131.75 752.54,-140.45 759.29,-142.32"/>
</g>
<!-- Node13&#45;&gt;Node14 -->
<g id="edge14" class="edge">
<title>Node13&#45;&gt;Node14</title>
<path fill="none" stroke="midnightblue" d="M787.8,-112.44C816.36,-103.32 861.75,-88.81 893.56,-78.65"/>
<polygon fill="midnightblue" stroke="midnightblue" points="894.91,-81.89 903.37,-75.52 892.78,-75.23 894.91,-81.89"/>
</g>
<!-- Node14&#45;&gt;Node4 -->
<g id="edge25" class="edge">
<title>Node14&#45;&gt;Node4</title>
<path fill="none" stroke="midnightblue" d="M865.91,-61.3C779.09,-55.66 619.53,-43.05 485.02,-20 483.95,-19.82 482.86,-19.62 481.76,-19.41"/>
<polygon fill="midnightblue" stroke="midnightblue" points="482.31,-15.95 471.81,-17.3 480.86,-22.8 482.31,-15.95"/>
</g>
<!-- Node14&#45;&gt;Node7 -->
<g id="edge17" class="edge">
<title>Node14&#45;&gt;Node7</title>
<path fill="none" stroke="midnightblue" d="M865.87,-60.3C792.28,-54.25 667.91,-42.05 551.84,-19.88"/>
<polygon fill="midnightblue" stroke="midnightblue" points="552.2,-16.38 541.72,-17.91 550.87,-23.25 552.2,-16.38"/>
</g>
<!-- Node14&#45;&gt;Node8 -->
<g id="edge19" class="edge">
<title>Node14&#45;&gt;Node8</title>
<path fill="none" stroke="midnightblue" d="M865.77,-56.88C806.93,-49.11 717.22,-36.41 630.25,-20.11"/>
<polygon fill="midnightblue" stroke="midnightblue" points="630.68,-16.63 620.21,-18.21 629.38,-23.51 630.68,-16.63"/>
</g>
<!-- Node14&#45;&gt;Node9 -->
<g id="edge21" class="edge">
<title>Node14&#45;&gt;Node9</title>
<path fill="none" stroke="midnightblue" d="M885.1,-56.5C841.75,-48.18 774.01,-34.91 706.07,-20.17"/>
<polygon fill="midnightblue" stroke="midnightblue" points="706.56,-16.7 696.04,-17.98 705.07,-23.53 706.56,-16.7"/>
</g>
<!-- Node15 -->
<g id="node15" class="node">
<title>Node15</title>
<g id="a_node15"><a xlink:title=" ">
<polygon fill="none" stroke="#bfbfbf" points="991.02,-0.5 991.02,-19.5 1033.02,-19.5 1033.02,-0.5 991.02,-0.5"/>
<text text-anchor="middle" x="1012.02" y="-7.5" font-family="Helvetica,sans-Serif" font-size="10.00">array</text>
</a>
</g>
</g>
<!-- Node14&#45;&gt;Node15 -->
<g id="edge15" class="edge">
<title>Node14&#45;&gt;Node15</title>
<path fill="none" stroke="midnightblue" d="M943.2,-56.32C955.87,-47.98 975.26,-35.21 990.23,-25.35"/>
<polygon fill="midnightblue" stroke="midnightblue" points="992.45,-28.08 998.88,-19.65 988.6,-22.23 992.45,-28.08"/>
</g>
<!-- Node16 -->
<g id="node16" class="node">
<title>Node16</title>
<g id="a_node16"><a xlink:title=" ">
<polygon fill="none" stroke="#bfbfbf" points="1051.02,-0.5 1051.02,-19.5 1101.02,-19.5 1101.02,-0.5 1051.02,-0.5"/>
<text text-anchor="middle" x="1076.02" y="-7.5" font-family="Helvetica,sans-Serif" font-size="10.00">chrono</text>
</a>
</g>
</g>
<!-- Node14&#45;&gt;Node16 -->
<g id="edge16" class="edge">
<title>Node14&#45;&gt;Node16</title>
<path fill="none" stroke="midnightblue" d="M953.16,-56.44C977.5,-47.44 1016.03,-33.19 1043.45,-23.05"/>
<polygon fill="midnightblue" stroke="midnightblue" points="1044.83,-26.27 1053,-19.52 1042.4,-19.7 1044.83,-26.27"/>
</g>
<!-- Node17 -->
<g id="node17" class="node">
<title>Node17</title>
<g id="a_node17"><a xlink:title=" ">
<polygon fill="none" stroke="#bfbfbf" points="1119.52,-0.5 1119.52,-19.5 1184.52,-19.5 1184.52,-0.5 1119.52,-0.5"/>
<text text-anchor="middle" x="1152.02" y="-7.5" font-family="Helvetica,sans-Serif" font-size="10.00">functional</text>
</a>
</g>
</g>
<!-- Node14&#45;&gt;Node17 -->
<g id="edge18" class="edge">
<title>Node14&#45;&gt;Node17</title>
<path fill="none" stroke="midnightblue" d="M965.2,-56.44C1004.28,-46.94 1067.38,-31.59 1109.28,-21.4"/>
<polygon fill="midnightblue" stroke="midnightblue" points="1110.29,-24.75 1119.18,-18.99 1108.64,-17.95 1110.29,-24.75"/>
</g>
<!-- Node18 -->
<g id="node18" class="node">
<title>Node18</title>
<g id="a_node18"><a xlink:title=" ">
<polygon fill="none" stroke="#bfbfbf" points="1202.52,-0.5 1202.52,-19.5 1255.52,-19.5 1255.52,-0.5 1202.52,-0.5"/>
<text text-anchor="middle" x="1229.02" y="-7.5" font-family="Helvetica,sans-Serif" font-size="10.00">iterator</text>
</a>
</g>
</g>
<!-- Node14&#45;&gt;Node18 -->
<g id="edge20" class="edge">
<title>Node14&#45;&gt;Node18</title>
<path fill="none" stroke="midnightblue" d="M988.22,-56.5C1039.59,-48.67 1116.68,-36.15 1192.17,-20.27"/>
<polygon fill="midnightblue" stroke="midnightblue" points="1193.27,-23.61 1202.32,-18.11 1191.81,-16.77 1193.27,-23.61"/>
</g>
<!-- Node19 -->
<g id="node19" class="node">
<title>Node19</title>
<g id="a_node19"><a xlink:title=" ">
<polygon fill="none" stroke="#bfbfbf" points="714.02,-0.5 714.02,-19.5 770.02,-19.5 770.02,-0.5 714.02,-0.5"/>
<text text-anchor="middle" x="742.02" y="-7.5" font-family="Helvetica,sans-Serif" font-size="10.00">sstream</text>
</a>
</g>
</g>
<!-- Node14&#45;&gt;Node19 -->
<g id="edge22" class="edge">
<title>Node14&#45;&gt;Node19</title>
<path fill="none" stroke="midnightblue" d="M900.23,-56.44C867.72,-47.11 815.58,-32.13 780.12,-21.94"/>
<polygon fill="midnightblue" stroke="midnightblue" points="780.71,-18.47 770.14,-19.08 778.78,-25.2 780.71,-18.47"/>
</g>
<!-- Node20 -->
<g id="node20" class="node">
<title>Node20</title>
<g id="a_node20"><a xlink:title=" ">
<polygon fill="none" stroke="#bfbfbf" points="788.52,-0.5 788.52,-19.5 861.52,-19.5 861.52,-0.5 788.52,-0.5"/>
<text text-anchor="middle" x="825.02" y="-7.5" font-family="Helvetica,sans-Serif" font-size="10.00">string_view</text>
</a>
</g>
</g>
<!-- Node14&#45;&gt;Node20 -->
<g id="edge23" class="edge">
<title>Node14&#45;&gt;Node20</title>
<path fill="none" stroke="midnightblue" d="M913.15,-56.32C896.31,-47.66 870.22,-34.24 850.78,-24.25"/>
<polygon fill="midnightblue" stroke="midnightblue" points="852.34,-21.12 841.85,-19.65 849.14,-27.34 852.34,-21.12"/>
</g>
<!-- Node21 -->
<g id="node21" class="node">
<title>Node21</title>
<g id="a_node21"><a xlink:title=" ">
<polygon fill="none" stroke="#bfbfbf" points="879.52,-0.5 879.52,-19.5 972.52,-19.5 972.52,-0.5 879.52,-0.5"/>
<text text-anchor="middle" x="926.02" y="-7.5" font-family="Helvetica,sans-Serif" font-size="10.00">unordered_map</text>
</a>
</g>
</g>
<!-- Node14&#45;&gt;Node21 -->
<g id="edge24" class="edge">
<title>Node14&#45;&gt;Node21</title>
<path fill="none" stroke="midnightblue" d="M929.36,-56.08C928.84,-49.01 928.09,-38.86 927.43,-29.99"/>
<polygon fill="midnightblue" stroke="midnightblue" points="930.9,-29.47 926.67,-19.75 923.92,-29.98 930.9,-29.47"/>
</g>
<!-- Node22&#45;&gt;Node14 -->
<g id="edge27" class="edge">
<title>Node22&#45;&gt;Node14</title>
<path fill="none" stroke="midnightblue" d="M1035.08,-168.37C1015.93,-149.89 970.74,-106.29 946.34,-82.74"/>
<polygon fill="midnightblue" stroke="midnightblue" points="948.55,-80.02 938.93,-75.59 943.69,-85.05 948.55,-80.02"/>
</g>
<!-- Node22&#45;&gt;Node23 -->
<g id="edge28" class="edge">
<title>Node22&#45;&gt;Node23</title>
<path fill="none" stroke="midnightblue" d="M1044.02,-168.08C1044.02,-161.01 1044.02,-150.86 1044.02,-141.99"/>
<polygon fill="midnightblue" stroke="midnightblue" points="1047.52,-141.75 1044.02,-131.75 1040.52,-141.75 1047.52,-141.75"/>
</g>
<!-- Node23&#45;&gt;Node14 -->
<g id="edge29" class="edge">
<title>Node23&#45;&gt;Node14</title>
<path fill="none" stroke="midnightblue" d="M1025.96,-112.44C1007.45,-103.68 978.44,-89.94 957.17,-79.86"/>
<polygon fill="midnightblue" stroke="midnightblue" points="958.54,-76.63 948,-75.52 955.54,-82.96 958.54,-76.63"/>
</g>
<!-- Node24&#45;&gt;Node14 -->
<g id="edge35" class="edge">
<title>Node24&#45;&gt;Node14</title>
<path fill="none" stroke="midnightblue" d="M940.43,-224.08C938.7,-197.95 933.61,-121.21 931.25,-85.58"/>
<polygon fill="midnightblue" stroke="midnightblue" points="934.74,-85.31 930.59,-75.57 927.76,-85.78 934.74,-85.31"/>
</g>
<!-- Node24&#45;&gt;Node22 -->
<g id="edge34" class="edge">
<title>Node24&#45;&gt;Node22</title>
<path fill="none" stroke="midnightblue" d="M957.57,-224.32C974.01,-215.7 999.46,-202.36 1018.49,-192.39"/>
<polygon fill="midnightblue" stroke="midnightblue" points="1020.28,-195.4 1027.51,-187.65 1017.03,-189.2 1020.28,-195.4"/>
</g>
<!-- Node24&#45;&gt;Node23 -->
<g id="edge36" class="edge">
<title>Node24&#45;&gt;Node23</title>
<path fill="none" stroke="midnightblue" d="M948.2,-224.4C958.81,-211.78 979.45,-187.62 998.02,-168 1007.43,-158.06 1018.37,-147.33 1027.22,-138.84"/>
<polygon fill="midnightblue" stroke="midnightblue" points="1029.82,-141.19 1034.65,-131.76 1025,-136.12 1029.82,-141.19"/>
</g>
<!-- Node25&#45;&gt;Node3 -->
<g id="edge40" class="edge">
<title>Node25&#45;&gt;Node3</title>
<path fill="none" stroke="midnightblue" d="M607.83,-411.83C601.95,-419.87 590.92,-431.91 580.8,-441.54"/>
<polygon fill="midnightblue" stroke="midnightblue" points="578.38,-439.01 573.33,-448.32 583.08,-444.19 578.38,-439.01"/>
</g>
<!-- Node25&#45;&gt;Node4 -->
<g id="edge39" class="edge">
<title>Node25&#45;&gt;Node4</title>
<path fill="none" stroke="midnightblue" d="M590.3,-392.45C545.17,-372.3 442.02,-317.25 442.02,-235 442.02,-235 442.02,-235 442.02,-121 442.02,-88.9 444.6,-51.61 446.38,-29.73"/>
<polygon fill="midnightblue" stroke="midnightblue" points="449.88,-29.81 447.24,-19.55 442.91,-29.22 449.88,-29.81"/>
</g>
<!-- Node25&#45;&gt;Node5 -->
<g id="edge41" class="edge">
<title>Node25&#45;&gt;Node5</title>
<path fill="none" stroke="midnightblue" d="M572.46,-396.33C535.17,-390.66 477.88,-378.89 433.02,-356 386.08,-332.05 385.77,-309.38 342.02,-280 323.95,-267.86 302.23,-256.41 285.27,-248.1"/>
<polygon fill="midnightblue" stroke="midnightblue" points="286.43,-244.77 275.9,-243.59 283.39,-251.08 286.43,-244.77"/>
</g>
<!-- Node25&#45;&gt;Node6 -->
<g id="edge42" class="edge">
<title>Node25&#45;&gt;Node6</title>
<path fill="none" stroke="midnightblue" d="M608.22,-392.08C605.94,-384.85 602.65,-374.41 599.81,-365.4"/>
<polygon fill="midnightblue" stroke="midnightblue" points="603.12,-364.24 596.78,-355.75 596.44,-366.34 603.12,-364.24"/>
</g>
<!-- Node26&#45;&gt;Node2 -->
<g id="edge50" class="edge">
<title>Node26&#45;&gt;Node2</title>
<path fill="none" stroke="midnightblue" d="M121.34,-560.44C152.86,-551.24 203.15,-536.56 238.01,-526.39"/>
<polygon fill="midnightblue" stroke="midnightblue" points="239.23,-529.68 247.85,-523.52 237.27,-522.96 239.23,-529.68"/>
</g>
<!-- Node26&#45;&gt;Node5 -->
<g id="edge49" class="edge">
<title>Node26&#45;&gt;Node5</title>
<path fill="none" stroke="midnightblue" d="M93.72,-560.48C97.25,-542.06 105.02,-497.08 105.02,-459 105.02,-459 105.02,-459 105.02,-345 105.02,-291.13 168.45,-260.96 213.36,-246.34"/>
<polygon fill="midnightblue" stroke="midnightblue" points="214.4,-249.69 222.91,-243.38 212.32,-243 214.4,-249.69"/>
</g>
<!-- Node27&#45;&gt;Node2 -->
<g id="edge53" class="edge">
<title>Node27&#45;&gt;Node2</title>
<path fill="none" stroke="midnightblue" d="M245.3,-560.08C250.66,-552.46 258.54,-541.26 265.1,-531.94"/>
<polygon fill="midnightblue" stroke="midnightblue" points="267.97,-533.94 270.86,-523.75 262.25,-529.91 267.97,-533.94"/>
</g>
<!-- Node27&#45;&gt;Node5 -->
<g id="edge52" class="edge">
<title>Node27&#45;&gt;Node5</title>
<path fill="none" stroke="midnightblue" d="M223.17,-560.44C195.9,-544.43 143.02,-507.16 143.02,-459 143.02,-459 143.02,-459 143.02,-345 143.02,-298.11 193.57,-264.89 227.35,-247.93"/>
<polygon fill="midnightblue" stroke="midnightblue" points="228.89,-251.07 236.38,-243.58 225.85,-244.77 228.89,-251.07"/>
</g>
<!-- Node28&#45;&gt;Node2 -->
<g id="edge56" class="edge">
<title>Node28&#45;&gt;Node2</title>
<path fill="none" stroke="midnightblue" d="M404.94,-560.44C379.48,-551.4 339.13,-537.06 310.56,-526.92"/>
<polygon fill="midnightblue" stroke="midnightblue" points="311.59,-523.57 300.99,-523.52 309.25,-530.16 311.59,-523.57"/>
</g>
<!-- Node28&#45;&gt;Node5 -->
<g id="edge55" class="edge">
<title>Node28&#45;&gt;Node5</title>
<path fill="none" stroke="midnightblue" d="M424.02,-560.32C404.96,-527.07 335.39,-404.5 285.02,-300 277.45,-284.28 269.66,-265.99 264.22,-252.83"/>
<polygon fill="midnightblue" stroke="midnightblue" points="267.44,-251.45 260.42,-243.52 260.96,-254.1 267.44,-251.45"/>
</g>
<!-- Node29&#45;&gt;Node3 -->
<g id="edge61" class="edge">
<title>Node29&#45;&gt;Node3</title>
<path fill="none" stroke="midnightblue" d="M785.56,-504.44C738.61,-494.98 662.95,-479.74 612.37,-469.55"/>
<polygon fill="midnightblue" stroke="midnightblue" points="612.78,-466.06 602.29,-467.52 611.4,-472.92 612.78,-466.06"/>
</g>
<!-- Node29&#45;&gt;Node6 -->
<g id="edge62" class="edge">
<title>Node29&#45;&gt;Node6</title>
<path fill="none" stroke="midnightblue" d="M823.79,-504.22C812.64,-482.01 780.25,-423.16 736.02,-392 707.37,-371.81 669.26,-360.39 639.73,-354.11"/>
<polygon fill="midnightblue" stroke="midnightblue" points="640.17,-350.62 629.68,-352.09 638.8,-357.49 640.17,-350.62"/>
</g>
<!-- Node29&#45;&gt;Node14 -->
<g id="edge65" class="edge">
<title>Node29&#45;&gt;Node14</title>
<path fill="none" stroke="midnightblue" d="M829.07,-504.46C831.24,-485.98 836.02,-440.91 836.02,-403 836.02,-403 836.02,-403 836.02,-177 836.02,-133.93 878.18,-99.21 906.03,-80.98"/>
<polygon fill="midnightblue" stroke="midnightblue" points="907.9,-83.94 914.5,-75.65 904.17,-78.01 907.9,-83.94"/>
</g>
<!-- Node29&#45;&gt;Node22 -->
<g id="edge64" class="edge">
<title>Node29&#45;&gt;Node22</title>
<path fill="none" stroke="midnightblue" d="M836.4,-504.37C844.78,-495.55 857.87,-481.29 868.02,-468 940.14,-373.55 956.53,-348 1014.02,-244 1022.56,-228.55 1030.86,-210.24 1036.56,-196.99"/>
<polygon fill="midnightblue" stroke="midnightblue" points="1039.85,-198.18 1040.52,-187.61 1033.41,-195.46 1039.85,-198.18"/>
</g>
<!-- Node29&#45;&gt;Node23 -->
<g id="edge66" class="edge">
<title>Node29&#45;&gt;Node23</title>
<path fill="none" stroke="midnightblue" d="M841.85,-504.23C854.72,-495.74 874.11,-482.11 889.02,-468 982.79,-379.23 1013.9,-358.27 1074.02,-244 1090.09,-213.45 1103.41,-199.82 1090.02,-168 1085,-156.05 1075.08,-145.69 1065.73,-137.93"/>
<polygon fill="midnightblue" stroke="midnightblue" points="1067.86,-135.15 1057.81,-131.81 1063.58,-140.69 1067.86,-135.15"/>
</g>
<!-- Node29&#45;&gt;Node24 -->
<g id="edge67" class="edge">
<title>Node29&#45;&gt;Node24</title>
<path fill="none" stroke="midnightblue" d="M832.45,-504.47C837.05,-495.49 844.36,-480.9 850.02,-468 884.64,-389.12 920.24,-292.6 934.52,-253.13"/>
<polygon fill="midnightblue" stroke="midnightblue" points="937.87,-254.16 937.97,-243.57 931.28,-251.79 937.87,-254.16"/>
</g>
<!-- Node29&#45;&gt;Node25 -->
<g id="edge63" class="edge">
<title>Node29&#45;&gt;Node25</title>
<path fill="none" stroke="midnightblue" d="M810.99,-504.37C773.2,-485.21 682.11,-439.04 637.1,-416.22"/>
<polygon fill="midnightblue" stroke="midnightblue" points="638.47,-412.99 627.97,-411.59 635.31,-419.23 638.47,-412.99"/>
</g>
<!-- Node30&#45;&gt;Node3 -->
<g id="edge72" class="edge">
<title>Node30&#45;&gt;Node3</title>
<path fill="none" stroke="midnightblue" d="M986.27,-569.19C918.18,-568.31 779.83,-561.53 670.02,-524 635.68,-512.26 600.3,-488.97 579.24,-473.7"/>
<polygon fill="midnightblue" stroke="midnightblue" points="581.25,-470.83 571.13,-467.7 577.09,-476.46 581.25,-470.83"/>
</g>
<!-- Node30&#45;&gt;Node6 -->
<g id="edge73" class="edge">
<title>Node30&#45;&gt;Node6</title>
<path fill="none" stroke="midnightblue" d="M986.31,-566.3C918.41,-561.24 787.69,-548.57 749.02,-524 689.1,-485.91 709.05,-442.39 659.02,-392 647.04,-379.93 631.43,-369 618.51,-360.94"/>
<polygon fill="midnightblue" stroke="midnightblue" points="620.03,-357.77 609.66,-355.6 616.41,-363.76 620.03,-357.77"/>
</g>
<!-- Node30&#45;&gt;Node14 -->
<g id="edge76" class="edge">
<title>Node30&#45;&gt;Node14</title>
<path fill="none" stroke="midnightblue" d="M1069.73,-567.68C1111.61,-564.55 1176.43,-554.64 1223.02,-524 1278.8,-487.32 1312.02,-469.76 1312.02,-403 1312.02,-403 1312.02,-403 1312.02,-177 1312.02,-128.73 1269.54,-130.64 1225.02,-112 1153.99,-82.26 1065.98,-71.88 1004.66,-68.41"/>
<polygon fill="midnightblue" stroke="midnightblue" points="1004.47,-64.9 994.3,-67.88 1004.1,-71.89 1004.47,-64.9"/>
</g>
<!-- Node30&#45;&gt;Node22 -->
<g id="edge75" class="edge">
<title>Node30&#45;&gt;Node22</title>
<path fill="none" stroke="midnightblue" d="M1044.66,-560.46C1057.51,-552.84 1074.36,-540.36 1082.02,-524 1085.79,-515.95 1082.15,-512.89 1082.02,-504 1080.24,-379.52 1111.8,-342.63 1074.02,-224 1070.72,-213.62 1064.24,-203.4 1058.16,-195.34"/>
<polygon fill="midnightblue" stroke="midnightblue" points="1060.86,-193.12 1051.87,-187.52 1055.41,-197.51 1060.86,-193.12"/>
</g>
<!-- Node30&#45;&gt;Node23 -->
<g id="edge79" class="edge">
<title>Node30&#45;&gt;Node23</title>
<path fill="none" stroke="midnightblue" d="M1069.61,-565.44C1130.31,-557.71 1236.02,-533.55 1236.02,-459 1236.02,-459 1236.02,-459 1236.02,-233 1236.02,-165.37 1145.23,-138.74 1088.51,-128.7"/>
<polygon fill="midnightblue" stroke="midnightblue" points="1088.79,-125.19 1078.35,-127.01 1087.64,-132.1 1088.79,-125.19"/>
</g>
<!-- Node30&#45;&gt;Node25 -->
<g id="edge74" class="edge">
<title>Node30&#45;&gt;Node25</title>
<path fill="none" stroke="midnightblue" d="M986.5,-567.45C910.64,-563.93 753.26,-553.23 708.02,-524 674.47,-502.32 685.63,-478.67 660.02,-448 650.98,-437.16 639.4,-426.42 629.77,-418.15"/>
<polygon fill="midnightblue" stroke="midnightblue" points="631.84,-415.31 621.93,-411.58 627.34,-420.68 631.84,-415.31"/>
</g>
<!-- Node31 -->
<g id="node31" class="node">
<title>Node31</title>
<g id="a_node31"><a xlink:href="_string_8hpp.html" target="_top" xlink:title=" ">
<polygon fill="none" stroke="black" points="1340.52,-448.5 1340.52,-467.5 1467.52,-467.5 1467.52,-448.5 1340.52,-448.5"/>
<text text-anchor="middle" x="1404.02" y="-455.5" font-family="Helvetica,sans-Serif" font-size="10.00">../Geometry/String.hpp</text>
</a>
</g>
</g>
<!-- Node30&#45;&gt;Node31 -->
<g id="edge77" class="edge">
<title>Node30&#45;&gt;Node31</title>
<path fill="none" stroke="midnightblue" d="M1069.65,-566.16C1121.92,-561.61 1213.77,-550.36 1288.02,-524 1323.59,-511.38 1361.03,-488.37 1383.45,-473.39"/>
<polygon fill="midnightblue" stroke="midnightblue" points="1385.52,-476.22 1391.82,-467.7 1381.58,-470.43 1385.52,-476.22"/>
</g>
<!-- Node32 -->
<g id="node32" class="node">
<title>Node32</title>
<g id="a_node32"><a xlink:href="_quad_node_8hpp.html" target="_top" xlink:title=" ">
<polygon fill="none" stroke="black" points="983.52,-504.5 983.52,-523.5 1072.52,-523.5 1072.52,-504.5 983.52,-504.5"/>
<text text-anchor="middle" x="1028.02" y="-511.5" font-family="Helvetica,sans-Serif" font-size="10.00">QuadNode.hpp</text>
</a>
</g>
</g>
<!-- Node30&#45;&gt;Node32 -->
<g id="edge80" class="edge">
<title>Node30&#45;&gt;Node32</title>
<path fill="none" stroke="midnightblue" d="M1028.02,-560.08C1028.02,-553.01 1028.02,-542.86 1028.02,-533.99"/>
<polygon fill="midnightblue" stroke="midnightblue" points="1031.52,-533.75 1028.02,-523.75 1024.52,-533.75 1031.52,-533.75"/>
</g>
<!-- Node31&#45;&gt;Node14 -->
<g id="edge78" class="edge">
<title>Node31&#45;&gt;Node14</title>
<path fill="none" stroke="midnightblue" d="M1400.38,-448.34C1393.01,-430 1377.02,-385.74 1377.02,-347 1377.02,-347 1377.02,-347 1377.02,-177 1377.02,-140.28 1358.08,-129.9 1326.02,-112 1272.56,-82.14 1103.75,-72.06 1004.63,-68.68"/>
<polygon fill="midnightblue" stroke="midnightblue" points="1004.49,-65.18 994.38,-68.35 1004.26,-72.17 1004.49,-65.18"/>
</g>
<!-- Node32&#45;&gt;Node3 -->
<g id="edge81" class="edge">
<title>Node32&#45;&gt;Node3</title>
<path fill="none" stroke="midnightblue" d="M983.15,-507.82C900.84,-498.33 725.29,-478.07 628.17,-466.86"/>
<polygon fill="midnightblue" stroke="midnightblue" points="628.49,-463.38 618.16,-465.71 627.69,-470.33 628.49,-463.38"/>
</g>
<!-- Node32&#45;&gt;Node6 -->
<g id="edge82" class="edge">
<title>Node32&#45;&gt;Node6</title>
<path fill="none" stroke="midnightblue" d="M1011.54,-504.39C970.27,-483.07 858.75,-427.05 761.02,-392 720.81,-377.58 673.71,-365.29 639.8,-357.21"/>
<polygon fill="midnightblue" stroke="midnightblue" points="640.26,-353.72 629.72,-354.84 638.66,-360.54 640.26,-353.72"/>
</g>
<!-- Node32&#45;&gt;Node14 -->
<g id="edge85" class="edge">
<title>Node32&#45;&gt;Node14</title>
<path fill="none" stroke="midnightblue" d="M1072.57,-512.37C1143.46,-508.76 1274.02,-490.25 1274.02,-403 1274.02,-403 1274.02,-403 1274.02,-177 1274.02,-120.85 1105.65,-89.43 1004.5,-75.61"/>
<polygon fill="midnightblue" stroke="midnightblue" points="1004.7,-72.11 994.32,-74.25 1003.77,-79.05 1004.7,-72.11"/>
</g>
<!-- Node32&#45;&gt;Node22 -->
<g id="edge84" class="edge">
<title>Node32&#45;&gt;Node22</title>
<path fill="none" stroke="midnightblue" d="M1029.45,-504.21C1034.84,-470.58 1053.93,-346.82 1060.02,-244 1060.55,-235.13 1061.53,-232.76 1060.02,-224 1058.45,-214.91 1055.23,-205.22 1052.08,-197.17"/>
<polygon fill="midnightblue" stroke="midnightblue" points="1055.22,-195.6 1048.13,-187.72 1048.76,-198.3 1055.22,-195.6"/>
</g>
<!-- Node32&#45;&gt;Node23 -->
<g id="edge86" class="edge">
<title>Node32&#45;&gt;Node23</title>
<path fill="none" stroke="midnightblue" d="M1072.24,-504.44C1122.61,-491.83 1198.02,-462.94 1198.02,-403 1198.02,-403 1198.02,-403 1198.02,-233 1198.02,-202.2 1196.02,-189.55 1174.02,-168 1150.93,-145.37 1115.9,-134.09 1088.03,-128.49"/>
<polygon fill="midnightblue" stroke="midnightblue" points="1088.58,-125.03 1078.12,-126.67 1087.32,-131.92 1088.58,-125.03"/>
</g>
<!-- Node32&#45;&gt;Node25 -->
<g id="edge83" class="edge">
<title>Node32&#45;&gt;Node25</title>
<path fill="none" stroke="midnightblue" d="M995.65,-504.46C920.97,-484.76 736.7,-436.15 653.27,-414.15"/>
<polygon fill="midnightblue" stroke="midnightblue" points="653.94,-410.7 643.38,-411.53 652.15,-417.47 653.94,-410.7"/>
</g>
</g>
</svg>
