<?xml version="1.0" encoding="UTF-8" standalone="no"?>
<!DOCTYPE svg PUBLIC "-//W3C//DTD SVG 1.1//EN"
 "http://www.w3.org/Graphics/SVG/1.1/DTD/svg11.dtd">
<!-- Generated by graphviz version 2.43.0 (0)
 -->
<!-- Title: /home/runner/work/Simulatio/Simulatio/engine/include/Geometry/Vector.hpp Pages: 1 -->
<svg width="2112pt" height="830pt"
 viewBox="0.00 0.00 2111.50 830.00" xmlns="http://www.w3.org/2000/svg" xmlns:xlink="http://www.w3.org/1999/xlink">
<g id="graph0" class="graph" transform="scale(1 1) rotate(0) translate(4 826)">
<title>/home/runner/work/Simulatio/Simulatio/engine/include/Geometry/Vector.hpp</title>
<!-- Node1 -->
<g id="node1" class="node">
<title>Node1</title>
<g id="a_node1"><a xlink:title=" ">
<polygon fill="#bfbfbf" stroke="black" points="1749,-780.5 1749,-821.5 1907,-821.5 1907,-780.5 1749,-780.5"/>
<text text-anchor="start" x="1757" y="-809.5" font-family="Helvetica,sans-Serif" font-size="10.00">/home/runner/work/Simulatio</text>
<text text-anchor="start" x="1757" y="-798.5" font-family="Helvetica,sans-Serif" font-size="10.00">/Simulatio/engine/include</text>
<text text-anchor="middle" x="1828" y="-787.5" font-family="Helvetica,sans-Serif" font-size="10.00">/Geometry/Vector.hpp</text>
</a>
</g>
</g>
<!-- Node2 -->
<g id="node2" class="node">
<title>Node2</title>
<g id="a_node2"><a xlink:href="_bounds_8hpp.html" target="_top" xlink:title=" ">
<polygon fill="none" stroke="black" points="1521,-702.5 1521,-743.5 1679,-743.5 1679,-702.5 1521,-702.5"/>
<text text-anchor="start" x="1529" y="-731.5" font-family="Helvetica,sans-Serif" font-size="10.00">/home/runner/work/Simulatio</text>
<text text-anchor="start" x="1529" y="-720.5" font-family="Helvetica,sans-Serif" font-size="10.00">/Simulatio/engine/include</text>
<text text-anchor="middle" x="1600" y="-709.5" font-family="Helvetica,sans-Serif" font-size="10.00">/Geometry/Bounds.hpp</text>
</a>
</g>
</g>
<!-- Node1&#45;&gt;Node2 -->
<g id="edge1" class="edge">
<title>Node1&#45;&gt;Node2</title>
<path fill="none" stroke="midnightblue" d="M1759.5,-777.17C1727.31,-766.44 1689.34,-753.78 1658.52,-743.51"/>
<polygon fill="midnightblue" stroke="midnightblue" points="1758.69,-780.59 1769.28,-780.43 1760.9,-773.95 1758.69,-780.59"/>
</g>
<!-- Node3 -->
<g id="node3" class="node">
<title>Node3</title>
<g id="a_node3"><a xlink:href="_collision_8hpp.html" target="_top" xlink:title=" ">
<polygon fill="none" stroke="black" points="1597,-234.5 1597,-275.5 1755,-275.5 1755,-234.5 1597,-234.5"/>
<text text-anchor="start" x="1605" y="-263.5" font-family="Helvetica,sans-Serif" font-size="10.00">/home/runner/work/Simulatio</text>
<text text-anchor="start" x="1605" y="-252.5" font-family="Helvetica,sans-Serif" font-size="10.00">/Simulatio/engine/include</text>
<text text-anchor="middle" x="1676" y="-241.5" font-family="Helvetica,sans-Serif" font-size="10.00">/Geometry/Collision.hpp</text>
</a>
</g>
</g>
<!-- Node1&#45;&gt;Node3 -->
<g id="edge56" class="edge">
<title>Node1&#45;&gt;Node3</title>
<path fill="none" stroke="midnightblue" d="M1857.96,-773.3C1866.14,-764.66 1874.3,-754.57 1880,-744 1901.27,-704.52 1904,-690.84 1904,-646 1904,-646 1904,-646 1904,-488 1904,-383.53 1784.93,-308.89 1718.89,-275.53"/>
<polygon fill="midnightblue" stroke="midnightblue" points="1855.39,-770.92 1850.83,-780.49 1860.36,-775.85 1855.39,-770.92"/>
</g>
<!-- Node7 -->
<g id="node7" class="node">
<title>Node7</title>
<g id="a_node7"><a xlink:href="_geometry_8hpp.html" target="_top" xlink:title=" ">
<polygon fill="none" stroke="black" points="1148,-546.5 1148,-587.5 1306,-587.5 1306,-546.5 1148,-546.5"/>
<text text-anchor="start" x="1156" y="-575.5" font-family="Helvetica,sans-Serif" font-size="10.00">/home/runner/work/Simulatio</text>
<text text-anchor="start" x="1156" y="-564.5" font-family="Helvetica,sans-Serif" font-size="10.00">/Simulatio/engine/include</text>
<text text-anchor="middle" x="1227" y="-553.5" font-family="Helvetica,sans-Serif" font-size="10.00">/Geometry/Geometry.hpp</text>
</a>
</g>
</g>
<!-- Node1&#45;&gt;Node7 -->
<g id="edge57" class="edge">
<title>Node1&#45;&gt;Node7</title>
<path fill="none" stroke="midnightblue" d="M1738.98,-793.47C1659.3,-786.14 1539.84,-771.5 1439,-744 1350.93,-719.98 1307.88,-735.76 1249,-666 1230.33,-643.88 1226.62,-609.24 1226.32,-587.62"/>
<polygon fill="midnightblue" stroke="midnightblue" points="1738.7,-796.96 1748.98,-794.37 1739.33,-789.98 1738.7,-796.96"/>
</g>
<!-- Node21 -->
<g id="node21" class="node">
<title>Node21</title>
<g id="a_node21"><a xlink:href="_quad_node_8hpp.html" target="_top" xlink:title=" ">
<polygon fill="none" stroke="black" points="1338,-234.5 1338,-275.5 1496,-275.5 1496,-234.5 1338,-234.5"/>
<text text-anchor="start" x="1346" y="-263.5" font-family="Helvetica,sans-Serif" font-size="10.00">/home/runner/work/Simulatio</text>
<text text-anchor="start" x="1346" y="-252.5" font-family="Helvetica,sans-Serif" font-size="10.00">/Simulatio/engine/include</text>
<text text-anchor="middle" x="1417" y="-241.5" font-family="Helvetica,sans-Serif" font-size="10.00">/Structures/QuadNode.hpp</text>
</a>
</g>
</g>
<!-- Node1&#45;&gt;Node21 -->
<g id="edge59" class="edge">
<title>Node1&#45;&gt;Node21</title>
<path fill="none" stroke="midnightblue" d="M1839.67,-770.84C1850.84,-740.26 1866,-690.53 1866,-646 1866,-646 1866,-646 1866,-566 1866,-388.39 1625.14,-304.65 1496.24,-272.56"/>
<polygon fill="midnightblue" stroke="midnightblue" points="1836.3,-769.85 1836.06,-780.45 1842.85,-772.32 1836.3,-769.85"/>
</g>
<!-- Node22 -->
<g id="node22" class="node">
<title>Node22</title>
<g id="a_node22"><a xlink:href="_quadtree_8hpp.html" target="_top" xlink:title=" ">
<polygon fill="none" stroke="black" points="1186,-156.5 1186,-197.5 1344,-197.5 1344,-156.5 1186,-156.5"/>
<text text-anchor="start" x="1194" y="-185.5" font-family="Helvetica,sans-Serif" font-size="10.00">/home/runner/work/Simulatio</text>
<text text-anchor="start" x="1194" y="-174.5" font-family="Helvetica,sans-Serif" font-size="10.00">/Simulatio/engine/include</text>
<text text-anchor="middle" x="1265" y="-163.5" font-family="Helvetica,sans-Serif" font-size="10.00">/Structures/Quadtree.hpp</text>
</a>
</g>
</g>
<!-- Node1&#45;&gt;Node22 -->
<g id="edge60" class="edge">
<title>Node1&#45;&gt;Node22</title>
<path fill="none" stroke="midnightblue" d="M1828,-769.91C1828,-738.87 1828,-689.05 1828,-646 1828,-646 1828,-646 1828,-566 1828,-415.73 1875.59,-334.64 1764,-234 1695.92,-172.6 1443.58,-212.19 1353,-198 1350.06,-197.54 1347.07,-197.04 1344.06,-196.5"/>
<polygon fill="midnightblue" stroke="midnightblue" points="1824.5,-770.06 1828,-780.07 1831.5,-770.07 1824.5,-770.06"/>
</g>
<!-- Node28 -->
<g id="node28" class="node">
<title>Node28</title>
<g id="a_node28"><a xlink:href="_vertices_8hpp.html" target="_top" xlink:title=" ">
<polygon fill="none" stroke="black" points="1300,-624.5 1300,-665.5 1458,-665.5 1458,-624.5 1300,-624.5"/>
<text text-anchor="start" x="1308" y="-653.5" font-family="Helvetica,sans-Serif" font-size="10.00">/home/runner/work/Simulatio</text>
<text text-anchor="start" x="1308" y="-642.5" font-family="Helvetica,sans-Serif" font-size="10.00">/Simulatio/engine/include</text>
<text text-anchor="middle" x="1379" y="-631.5" font-family="Helvetica,sans-Serif" font-size="10.00">/Geometry/Vertices.hpp</text>
</a>
</g>
</g>
<!-- Node1&#45;&gt;Node28 -->
<g id="edge58" class="edge">
<title>Node1&#45;&gt;Node28</title>
<path fill="none" stroke="midnightblue" d="M1738.62,-795.09C1673.57,-788.94 1584.54,-775.12 1512,-744 1467.45,-724.89 1423.76,-688.3 1399.21,-665.64"/>
<polygon fill="midnightblue" stroke="midnightblue" points="1738.58,-798.6 1748.85,-796.01 1739.2,-791.63 1738.58,-798.6"/>
</g>
<!-- Node31 -->
<g id="node31" class="node">
<title>Node31</title>
<g id="a_node31"><a xlink:href="_vector_8cpp.html" target="_top" xlink:title=" ">
<polygon fill="none" stroke="black" points="1932.5,-702.5 1932.5,-743.5 2103.5,-743.5 2103.5,-702.5 1932.5,-702.5"/>
<text text-anchor="start" x="1940.5" y="-731.5" font-family="Helvetica,sans-Serif" font-size="10.00">/home/runner/work/Simulatio</text>
<text text-anchor="start" x="1940.5" y="-720.5" font-family="Helvetica,sans-Serif" font-size="10.00">/Simulatio/engine/src/Geometry</text>
<text text-anchor="middle" x="2018" y="-709.5" font-family="Helvetica,sans-Serif" font-size="10.00">/Vector.cpp</text>
</a>
</g>
</g>
<!-- Node1&#45;&gt;Node31 -->
<g id="edge61" class="edge">
<title>Node1&#45;&gt;Node31</title>
<path fill="none" stroke="midnightblue" d="M1886.48,-776.61C1913,-766 1944,-753.6 1969.24,-743.51"/>
<polygon fill="midnightblue" stroke="midnightblue" points="1884.91,-773.46 1876.93,-780.43 1887.51,-779.96 1884.91,-773.46"/>
</g>
<!-- Node2&#45;&gt;Node3 -->
<g id="edge2" class="edge">
<title>Node2&#45;&gt;Node3</title>
<path fill="none" stroke="midnightblue" d="M1684.41,-698.24C1700.77,-690.28 1716.41,-679.78 1728,-666 1756.86,-631.68 1752,-612.84 1752,-568 1752,-568 1752,-568 1752,-410 1752,-357.23 1715.67,-303.81 1693.25,-275.87"/>
<polygon fill="midnightblue" stroke="midnightblue" points="1682.92,-695.08 1675.27,-702.41 1685.82,-701.45 1682.92,-695.08"/>
</g>
<!-- Node2&#45;&gt;Node7 -->
<g id="edge6" class="edge">
<title>Node2&#45;&gt;Node7</title>
<path fill="none" stroke="midnightblue" d="M1510.52,-713.68C1432.44,-705.02 1326.27,-689.4 1291,-666 1262.38,-647.01 1243.66,-610.39 1234.24,-587.68"/>
<polygon fill="midnightblue" stroke="midnightblue" points="1510.54,-717.21 1520.86,-714.81 1511.3,-710.25 1510.54,-717.21"/>
</g>
<!-- Node2&#45;&gt;Node21 -->
<g id="edge53" class="edge">
<title>Node2&#45;&gt;Node21</title>
<path fill="none" stroke="midnightblue" d="M1658.33,-697.41C1671.83,-689.22 1684.89,-678.83 1694,-666 1719.74,-629.75 1714,-612.45 1714,-568 1714,-568 1714,-568 1714,-488 1714,-372.19 1572.02,-305.62 1484.39,-275.56"/>
<polygon fill="midnightblue" stroke="midnightblue" points="1656.39,-694.49 1649.44,-702.48 1659.86,-700.57 1656.39,-694.49"/>
</g>
<!-- Node2&#45;&gt;Node22 -->
<g id="edge54" class="edge">
<title>Node2&#45;&gt;Node22</title>
<path fill="none" stroke="midnightblue" d="M1536.83,-697.23C1524.12,-689.23 1512.41,-678.97 1505,-666 1495.74,-649.79 1503.69,-642.62 1505,-624 1509.23,-564 1524,-550.15 1524,-490 1524,-490 1524,-490 1524,-332 1524,-287.63 1535.77,-265.96 1505,-234 1504.27,-233.24 1413.88,-212.29 1344.26,-196.23"/>
<polygon fill="midnightblue" stroke="midnightblue" points="1535.34,-700.42 1545.74,-702.42 1538.86,-694.37 1535.34,-700.42"/>
</g>
<!-- Node2&#45;&gt;Node28 -->
<g id="edge49" class="edge">
<title>Node2&#45;&gt;Node28</title>
<path fill="none" stroke="midnightblue" d="M1533.6,-699.17C1502.4,-688.44 1465.59,-675.78 1435.72,-665.51"/>
<polygon fill="midnightblue" stroke="midnightblue" points="1532.49,-702.49 1543.09,-702.43 1534.77,-695.87 1532.49,-702.49"/>
</g>
<!-- Node30 -->
<g id="node30" class="node">
<title>Node30</title>
<g id="a_node30"><a xlink:href="_bounds_8cpp.html" target="_top" xlink:title=" ">
<polygon fill="none" stroke="black" points="1514.5,-624.5 1514.5,-665.5 1685.5,-665.5 1685.5,-624.5 1514.5,-624.5"/>
<text text-anchor="start" x="1522.5" y="-653.5" font-family="Helvetica,sans-Serif" font-size="10.00">/home/runner/work/Simulatio</text>
<text text-anchor="start" x="1522.5" y="-642.5" font-family="Helvetica,sans-Serif" font-size="10.00">/Simulatio/engine/src/Geometry</text>
<text text-anchor="middle" x="1600" y="-631.5" font-family="Helvetica,sans-Serif" font-size="10.00">/Bounds.cpp</text>
</a>
</g>
</g>
<!-- Node2&#45;&gt;Node30 -->
<g id="edge55" class="edge">
<title>Node2&#45;&gt;Node30</title>
<path fill="none" stroke="midnightblue" d="M1600,-692.3C1600,-683.3 1600,-673.65 1600,-665.51"/>
<polygon fill="midnightblue" stroke="midnightblue" points="1596.5,-692.43 1600,-702.43 1603.5,-692.43 1596.5,-692.43"/>
</g>
<!-- Node4 -->
<g id="node4" class="node">
<title>Node4</title>
<g id="a_node4"><a xlink:href="_system_8hpp.html" target="_top" xlink:title=" ">
<polygon fill="none" stroke="black" points="937,-78.5 937,-119.5 1095,-119.5 1095,-78.5 937,-78.5"/>
<text text-anchor="start" x="945" y="-107.5" font-family="Helvetica,sans-Serif" font-size="10.00">/home/runner/work/Simulatio</text>
<text text-anchor="start" x="945" y="-96.5" font-family="Helvetica,sans-Serif" font-size="10.00">/Simulatio/engine/include</text>
<text text-anchor="middle" x="1016" y="-85.5" font-family="Helvetica,sans-Serif" font-size="10.00">/Structures/System.hpp</text>
</a>
</g>
</g>
<!-- Node3&#45;&gt;Node4 -->
<g id="edge3" class="edge">
<title>Node3&#45;&gt;Node4</title>
<path fill="none" stroke="midnightblue" d="M1738.52,-229.11C1751.09,-221.11 1762.68,-210.88 1770,-198 1779.22,-181.77 1782.7,-169.68 1770,-156 1724.78,-107.3 1279.32,-100.61 1095.1,-99.93"/>
<polygon fill="midnightblue" stroke="midnightblue" points="1736.55,-226.21 1729.7,-234.3 1740.09,-232.25 1736.55,-226.21"/>
</g>
<!-- Node6 -->
<g id="node6" class="node">
<title>Node6</title>
<g id="a_node6"><a xlink:href="_collision_8cpp.html" target="_top" xlink:title=" ">
<polygon fill="none" stroke="black" points="1590.5,-156.5 1590.5,-197.5 1761.5,-197.5 1761.5,-156.5 1590.5,-156.5"/>
<text text-anchor="start" x="1598.5" y="-185.5" font-family="Helvetica,sans-Serif" font-size="10.00">/home/runner/work/Simulatio</text>
<text text-anchor="start" x="1598.5" y="-174.5" font-family="Helvetica,sans-Serif" font-size="10.00">/Simulatio/engine/src/Geometry</text>
<text text-anchor="middle" x="1676" y="-163.5" font-family="Helvetica,sans-Serif" font-size="10.00">/Collision.cpp</text>
</a>
</g>
</g>
<!-- Node3&#45;&gt;Node6 -->
<g id="edge5" class="edge">
<title>Node3&#45;&gt;Node6</title>
<path fill="none" stroke="midnightblue" d="M1676,-224.3C1676,-215.3 1676,-205.65 1676,-197.51"/>
<polygon fill="midnightblue" stroke="midnightblue" points="1672.5,-224.43 1676,-234.43 1679.5,-224.43 1672.5,-224.43"/>
</g>
<!-- Node5 -->
<g id="node5" class="node">
<title>Node5</title>
<g id="a_node5"><a xlink:href="_system_8cpp.html" target="_top" xlink:title=" ">
<polygon fill="none" stroke="black" points="930,-0.5 930,-41.5 1102,-41.5 1102,-0.5 930,-0.5"/>
<text text-anchor="start" x="938" y="-29.5" font-family="Helvetica,sans-Serif" font-size="10.00">/home/runner/work/Simulatio</text>
<text text-anchor="start" x="938" y="-18.5" font-family="Helvetica,sans-Serif" font-size="10.00">/Simulatio/engine/src/Structures</text>
<text text-anchor="middle" x="1016" y="-7.5" font-family="Helvetica,sans-Serif" font-size="10.00">/System.cpp</text>
</a>
</g>
</g>
<!-- Node4&#45;&gt;Node5 -->
<g id="edge4" class="edge">
<title>Node4&#45;&gt;Node5</title>
<path fill="none" stroke="midnightblue" d="M1016,-68.3C1016,-59.3 1016,-49.65 1016,-41.51"/>
<polygon fill="midnightblue" stroke="midnightblue" points="1012.5,-68.43 1016,-78.43 1019.5,-68.43 1012.5,-68.43"/>
</g>
<!-- Node7&#45;&gt;Node4 -->
<g id="edge47" class="edge">
<title>Node7&#45;&gt;Node4</title>
<path fill="none" stroke="midnightblue" d="M1315.95,-545.65C1401.41,-524.13 1532.74,-485.81 1638,-432 1690.4,-405.21 1711.39,-402.31 1745,-354 1796.49,-280 1850.4,-222.01 1789,-156 1742.43,-105.94 1282.55,-100.07 1095,-99.78"/>
<polygon fill="midnightblue" stroke="midnightblue" points="1314.87,-542.31 1306.02,-548.13 1316.57,-549.11 1314.87,-542.31"/>
</g>
<!-- Node8 -->
<g id="node8" class="node">
<title>Node8</title>
<g id="a_node8"><a xlink:href="_constraint_8hpp.html" target="_top" xlink:title=" ">
<polygon fill="none" stroke="black" points="750,-234.5 750,-275.5 908,-275.5 908,-234.5 750,-234.5"/>
<text text-anchor="start" x="758" y="-263.5" font-family="Helvetica,sans-Serif" font-size="10.00">/home/runner/work/Simulatio</text>
<text text-anchor="start" x="758" y="-252.5" font-family="Helvetica,sans-Serif" font-size="10.00">/Simulatio/engine/include</text>
<text text-anchor="middle" x="829" y="-241.5" font-family="Helvetica,sans-Serif" font-size="10.00">/Constraints/Constraint.hpp</text>
</a>
</g>
</g>
<!-- Node7&#45;&gt;Node8 -->
<g id="edge7" class="edge">
<title>Node7&#45;&gt;Node8</title>
<path fill="none" stroke="midnightblue" d="M1137.59,-558.3C1085.8,-551.07 1020.65,-537.06 968,-510 888.73,-469.26 868.58,-439.07 842,-354 833.76,-327.63 830.74,-295.66 829.64,-275.57"/>
<polygon fill="midnightblue" stroke="midnightblue" points="1137.39,-561.81 1147.76,-559.66 1138.31,-554.87 1137.39,-561.81"/>
</g>
<!-- Node18 -->
<g id="node18" class="node">
<title>Node18</title>
<g id="a_node18"><a xlink:href="_corpse_8hpp.html" target="_top" xlink:title=" ">
<polygon fill="none" stroke="black" points="1167,-468.5 1167,-509.5 1325,-509.5 1325,-468.5 1167,-468.5"/>
<text text-anchor="start" x="1175" y="-497.5" font-family="Helvetica,sans-Serif" font-size="10.00">/home/runner/work/Simulatio</text>
<text text-anchor="start" x="1175" y="-486.5" font-family="Helvetica,sans-Serif" font-size="10.00">/Simulatio/engine/include</text>
<text text-anchor="middle" x="1246" y="-475.5" font-family="Helvetica,sans-Serif" font-size="10.00">/Corpses/Corpse.hpp</text>
</a>
</g>
</g>
<!-- Node7&#45;&gt;Node18 -->
<g id="edge21" class="edge">
<title>Node7&#45;&gt;Node18</title>
<path fill="none" stroke="midnightblue" d="M1234.35,-536.59C1236.62,-527.51 1239.06,-517.74 1241.12,-509.51"/>
<polygon fill="midnightblue" stroke="midnightblue" points="1230.92,-535.88 1231.89,-546.43 1237.71,-537.58 1230.92,-535.88"/>
</g>
<!-- Node27 -->
<g id="node27" class="node">
<title>Node27</title>
<g id="a_node27"><a xlink:href="_geometry_8cpp.html" target="_top" xlink:title=" ">
<polygon fill="none" stroke="black" points="977.5,-468.5 977.5,-509.5 1148.5,-509.5 1148.5,-468.5 977.5,-468.5"/>
<text text-anchor="start" x="985.5" y="-497.5" font-family="Helvetica,sans-Serif" font-size="10.00">/home/runner/work/Simulatio</text>
<text text-anchor="start" x="985.5" y="-486.5" font-family="Helvetica,sans-Serif" font-size="10.00">/Simulatio/engine/src/Geometry</text>
<text text-anchor="middle" x="1063" y="-475.5" font-family="Helvetica,sans-Serif" font-size="10.00">/Geometry.cpp</text>
</a>
</g>
</g>
<!-- Node7&#45;&gt;Node27 -->
<g id="edge48" class="edge">
<title>Node7&#45;&gt;Node27</title>
<path fill="none" stroke="midnightblue" d="M1175.62,-542.19C1152.93,-531.67 1126.59,-519.47 1105.09,-509.51"/>
<polygon fill="midnightblue" stroke="midnightblue" points="1174.22,-545.4 1184.77,-546.43 1177.16,-539.05 1174.22,-545.4"/>
</g>
<!-- Node8&#45;&gt;Node4 -->
<g id="edge19" class="edge">
<title>Node8&#45;&gt;Node4</title>
<path fill="none" stroke="midnightblue" d="M874.6,-229.35C889.91,-220.28 906.71,-209.41 921,-198 929.24,-191.42 971.95,-146.61 997.21,-119.92"/>
<polygon fill="midnightblue" stroke="midnightblue" points="872.68,-226.42 865.8,-234.47 876.2,-232.47 872.68,-226.42"/>
</g>
<!-- Node9 -->
<g id="node9" class="node">
<title>Node9</title>
<g id="a_node9"><a xlink:href="_link_8hpp.html" target="_top" xlink:title=" ">
<polygon fill="none" stroke="black" points="206,-156.5 206,-197.5 364,-197.5 364,-156.5 206,-156.5"/>
<text text-anchor="start" x="214" y="-185.5" font-family="Helvetica,sans-Serif" font-size="10.00">/home/runner/work/Simulatio</text>
<text text-anchor="start" x="214" y="-174.5" font-family="Helvetica,sans-Serif" font-size="10.00">/Simulatio/engine/include</text>
<text text-anchor="middle" x="285" y="-163.5" font-family="Helvetica,sans-Serif" font-size="10.00">/Constraints/Link.hpp</text>
</a>
</g>
</g>
<!-- Node8&#45;&gt;Node9 -->
<g id="edge8" class="edge">
<title>Node8&#45;&gt;Node9</title>
<path fill="none" stroke="midnightblue" d="M739.84,-245.75C647.63,-236.58 499.67,-220.11 373,-198 370.07,-197.49 367.09,-196.94 364.08,-196.37"/>
<polygon fill="midnightblue" stroke="midnightblue" points="739.67,-249.25 749.97,-246.75 740.36,-242.28 739.67,-249.25"/>
</g>
<!-- Node11 -->
<g id="node11" class="node">
<title>Node11</title>
<g id="a_node11"><a xlink:href="_loose_8hpp.html" target="_top" xlink:title=" ">
<polygon fill="none" stroke="black" points="20,-156.5 20,-197.5 178,-197.5 178,-156.5 20,-156.5"/>
<text text-anchor="start" x="28" y="-185.5" font-family="Helvetica,sans-Serif" font-size="10.00">/home/runner/work/Simulatio</text>
<text text-anchor="start" x="28" y="-174.5" font-family="Helvetica,sans-Serif" font-size="10.00">/Simulatio/engine/include</text>
<text text-anchor="middle" x="99" y="-163.5" font-family="Helvetica,sans-Serif" font-size="10.00">/Constraints/Loose.hpp</text>
</a>
</g>
</g>
<!-- Node8&#45;&gt;Node11 -->
<g id="edge11" class="edge">
<title>Node8&#45;&gt;Node11</title>
<path fill="none" stroke="midnightblue" d="M739.74,-249.28C617,-242.06 389.42,-226.07 197,-198 190.81,-197.1 184.43,-196.05 178.03,-194.93"/>
<polygon fill="midnightblue" stroke="midnightblue" points="739.66,-252.78 749.84,-249.86 740.06,-245.79 739.66,-252.78"/>
</g>
<!-- Node13 -->
<g id="node13" class="node">
<title>Node13</title>
<g id="a_node13"><a xlink:href="_slider_8hpp.html" target="_top" xlink:title=" ">
<polygon fill="none" stroke="black" points="754,-156.5 754,-197.5 912,-197.5 912,-156.5 754,-156.5"/>
<text text-anchor="start" x="762" y="-185.5" font-family="Helvetica,sans-Serif" font-size="10.00">/home/runner/work/Simulatio</text>
<text text-anchor="start" x="762" y="-174.5" font-family="Helvetica,sans-Serif" font-size="10.00">/Simulatio/engine/include</text>
<text text-anchor="middle" x="833" y="-163.5" font-family="Helvetica,sans-Serif" font-size="10.00">/Constraints/Slider.hpp</text>
</a>
</g>
</g>
<!-- Node8&#45;&gt;Node13 -->
<g id="edge13" class="edge">
<title>Node8&#45;&gt;Node13</title>
<path fill="none" stroke="midnightblue" d="M830.56,-224.3C831.04,-215.3 831.54,-205.65 831.97,-197.51"/>
<polygon fill="midnightblue" stroke="midnightblue" points="827.06,-224.26 830.03,-234.43 834.05,-224.63 827.06,-224.26"/>
</g>
<!-- Node15 -->
<g id="node15" class="node">
<title>Node15</title>
<g id="a_node15"><a xlink:href="_spring_8hpp.html" target="_top" xlink:title=" ">
<polygon fill="none" stroke="black" points="382,-156.5 382,-197.5 540,-197.5 540,-156.5 382,-156.5"/>
<text text-anchor="start" x="390" y="-185.5" font-family="Helvetica,sans-Serif" font-size="10.00">/home/runner/work/Simulatio</text>
<text text-anchor="start" x="390" y="-174.5" font-family="Helvetica,sans-Serif" font-size="10.00">/Simulatio/engine/include</text>
<text text-anchor="middle" x="461" y="-163.5" font-family="Helvetica,sans-Serif" font-size="10.00">/Constraints/Spring.hpp</text>
</a>
</g>
</g>
<!-- Node8&#45;&gt;Node15 -->
<g id="edge16" class="edge">
<title>Node8&#45;&gt;Node15</title>
<path fill="none" stroke="midnightblue" d="M739.76,-236.77C684.7,-225.98 612.67,-211.6 549,-198 546.09,-197.38 543.13,-196.74 540.13,-196.09"/>
<polygon fill="midnightblue" stroke="midnightblue" points="739.35,-240.25 749.83,-238.74 740.69,-233.38 739.35,-240.25"/>
</g>
<!-- Node17 -->
<g id="node17" class="node">
<title>Node17</title>
<g id="a_node17"><a xlink:href="_constraint_8cpp.html" target="_top" xlink:title=" ">
<polygon fill="none" stroke="black" points="558,-156.5 558,-197.5 736,-197.5 736,-156.5 558,-156.5"/>
<text text-anchor="start" x="566" y="-185.5" font-family="Helvetica,sans-Serif" font-size="10.00">/home/runner/work/Simulatio</text>
<text text-anchor="start" x="566" y="-174.5" font-family="Helvetica,sans-Serif" font-size="10.00">/Simulatio/engine/src/Constraints</text>
<text text-anchor="middle" x="647" y="-163.5" font-family="Helvetica,sans-Serif" font-size="10.00">/Constraint.cpp</text>
</a>
</g>
</g>
<!-- Node8&#45;&gt;Node17 -->
<g id="edge20" class="edge">
<title>Node8&#45;&gt;Node17</title>
<path fill="none" stroke="midnightblue" d="M772.65,-230.47C747.32,-219.89 717.78,-207.56 693.71,-197.51"/>
<polygon fill="midnightblue" stroke="midnightblue" points="771.55,-233.8 782.13,-234.43 774.25,-227.34 771.55,-233.8"/>
</g>
<!-- Node9&#45;&gt;Node4 -->
<g id="edge9" class="edge">
<title>Node9&#45;&gt;Node4</title>
<path fill="none" stroke="midnightblue" d="M373.98,-155.99C619.39,-121.41 686.6,-155.03 928,-120 930.95,-119.57 933.94,-119.1 936.96,-118.59"/>
<polygon fill="midnightblue" stroke="midnightblue" points="373.45,-152.53 364.04,-157.41 374.44,-159.46 373.45,-152.53"/>
</g>
<!-- Node10 -->
<g id="node10" class="node">
<title>Node10</title>
<g id="a_node10"><a xlink:href="_link_8cpp.html" target="_top" xlink:title=" ">
<polygon fill="none" stroke="black" points="196,-78.5 196,-119.5 374,-119.5 374,-78.5 196,-78.5"/>
<text text-anchor="start" x="204" y="-107.5" font-family="Helvetica,sans-Serif" font-size="10.00">/home/runner/work/Simulatio</text>
<text text-anchor="start" x="204" y="-96.5" font-family="Helvetica,sans-Serif" font-size="10.00">/Simulatio/engine/src/Constraints</text>
<text text-anchor="middle" x="285" y="-85.5" font-family="Helvetica,sans-Serif" font-size="10.00">/Link.cpp</text>
</a>
</g>
</g>
<!-- Node9&#45;&gt;Node10 -->
<g id="edge10" class="edge">
<title>Node9&#45;&gt;Node10</title>
<path fill="none" stroke="midnightblue" d="M285,-146.3C285,-137.3 285,-127.65 285,-119.51"/>
<polygon fill="midnightblue" stroke="midnightblue" points="281.5,-146.43 285,-156.43 288.5,-146.43 281.5,-146.43"/>
</g>
<!-- Node12 -->
<g id="node12" class="node">
<title>Node12</title>
<g id="a_node12"><a xlink:href="_loose_8cpp.html" target="_top" xlink:title=" ">
<polygon fill="none" stroke="black" points="0,-78.5 0,-119.5 178,-119.5 178,-78.5 0,-78.5"/>
<text text-anchor="start" x="8" y="-107.5" font-family="Helvetica,sans-Serif" font-size="10.00">/home/runner/work/Simulatio</text>
<text text-anchor="start" x="8" y="-96.5" font-family="Helvetica,sans-Serif" font-size="10.00">/Simulatio/engine/src/Constraints</text>
<text text-anchor="middle" x="89" y="-85.5" font-family="Helvetica,sans-Serif" font-size="10.00">/Loose.cpp</text>
</a>
</g>
</g>
<!-- Node11&#45;&gt;Node12 -->
<g id="edge12" class="edge">
<title>Node11&#45;&gt;Node12</title>
<path fill="none" stroke="midnightblue" d="M95.09,-146.3C93.91,-137.3 92.64,-127.65 91.57,-119.51"/>
<polygon fill="midnightblue" stroke="midnightblue" points="91.65,-146.97 96.42,-156.43 98.59,-146.06 91.65,-146.97"/>
</g>
<!-- Node13&#45;&gt;Node4 -->
<g id="edge14" class="edge">
<title>Node13&#45;&gt;Node4</title>
<path fill="none" stroke="midnightblue" d="M889.66,-152.47C915.13,-141.89 944.83,-129.56 969.03,-119.51"/>
<polygon fill="midnightblue" stroke="midnightblue" points="888.02,-149.36 880.13,-156.43 890.7,-155.82 888.02,-149.36"/>
</g>
<!-- Node14 -->
<g id="node14" class="node">
<title>Node14</title>
<g id="a_node14"><a xlink:href="_slider_8cpp.html" target="_top" xlink:title=" ">
<polygon fill="none" stroke="black" points="741,-78.5 741,-119.5 919,-119.5 919,-78.5 741,-78.5"/>
<text text-anchor="start" x="749" y="-107.5" font-family="Helvetica,sans-Serif" font-size="10.00">/home/runner/work/Simulatio</text>
<text text-anchor="start" x="749" y="-96.5" font-family="Helvetica,sans-Serif" font-size="10.00">/Simulatio/engine/src/Constraints</text>
<text text-anchor="middle" x="830" y="-85.5" font-family="Helvetica,sans-Serif" font-size="10.00">/Slider.cpp</text>
</a>
</g>
</g>
<!-- Node13&#45;&gt;Node14 -->
<g id="edge15" class="edge">
<title>Node13&#45;&gt;Node14</title>
<path fill="none" stroke="midnightblue" d="M831.83,-146.3C831.47,-137.3 831.09,-127.65 830.77,-119.51"/>
<polygon fill="midnightblue" stroke="midnightblue" points="828.34,-146.57 832.23,-156.43 835.33,-146.3 828.34,-146.57"/>
</g>
<!-- Node15&#45;&gt;Node4 -->
<g id="edge17" class="edge">
<title>Node15&#45;&gt;Node4</title>
<path fill="none" stroke="midnightblue" d="M549.97,-155.96C717.82,-129.85 764.12,-146.29 928,-120 930.94,-119.53 933.93,-119.02 936.94,-118.47"/>
<polygon fill="midnightblue" stroke="midnightblue" points="549.39,-152.51 540.06,-157.53 550.48,-159.42 549.39,-152.51"/>
</g>
<!-- Node16 -->
<g id="node16" class="node">
<title>Node16</title>
<g id="a_node16"><a xlink:href="_spring_8cpp.html" target="_top" xlink:title=" ">
<polygon fill="none" stroke="black" points="392,-78.5 392,-119.5 570,-119.5 570,-78.5 392,-78.5"/>
<text text-anchor="start" x="400" y="-107.5" font-family="Helvetica,sans-Serif" font-size="10.00">/home/runner/work/Simulatio</text>
<text text-anchor="start" x="400" y="-96.5" font-family="Helvetica,sans-Serif" font-size="10.00">/Simulatio/engine/src/Constraints</text>
<text text-anchor="middle" x="481" y="-85.5" font-family="Helvetica,sans-Serif" font-size="10.00">/Spring.cpp</text>
</a>
</g>
</g>
<!-- Node15&#45;&gt;Node16 -->
<g id="edge18" class="edge">
<title>Node15&#45;&gt;Node16</title>
<path fill="none" stroke="midnightblue" d="M468.74,-146.59C471.13,-137.51 473.7,-127.74 475.87,-119.51"/>
<polygon fill="midnightblue" stroke="midnightblue" points="465.31,-145.87 466.15,-156.43 472.08,-147.65 465.31,-145.87"/>
</g>
<!-- Node18&#45;&gt;Node3 -->
<g id="edge42" class="edge">
<title>Node18&#45;&gt;Node3</title>
<path fill="none" stroke="midnightblue" d="M1335.23,-484.78C1430.3,-479.59 1572.7,-466.2 1614,-432 1626.51,-421.64 1657.45,-319.55 1670.28,-275.77"/>
<polygon fill="midnightblue" stroke="midnightblue" points="1334.84,-481.3 1325.03,-485.32 1335.2,-488.29 1334.84,-481.3"/>
</g>
<!-- Node18&#45;&gt;Node4 -->
<g id="edge45" class="edge">
<title>Node18&#45;&gt;Node4</title>
<path fill="none" stroke="midnightblue" d="M1321.96,-464.93C1344.23,-456.38 1367.97,-445.42 1388,-432 1504.88,-353.69 1637.08,-260.6 1543,-156 1513.64,-123.36 1235.09,-108.26 1095.26,-102.69"/>
<polygon fill="midnightblue" stroke="midnightblue" points="1320.67,-461.67 1312.52,-468.44 1323.11,-468.23 1320.67,-461.67"/>
</g>
<!-- Node18&#45;&gt;Node8 -->
<g id="edge22" class="edge">
<title>Node18&#45;&gt;Node8</title>
<path fill="none" stroke="midnightblue" d="M1157.31,-468.06C1157.2,-468.04 1157.1,-468.02 1157,-468 1054.92,-448.6 1011.12,-491.6 926,-432 870.84,-393.38 843.72,-312.96 833.71,-275.71"/>
<polygon fill="midnightblue" stroke="midnightblue" points="1156.47,-471.46 1166.96,-469.95 1157.82,-464.59 1156.47,-471.46"/>
</g>
<!-- Node19 -->
<g id="node19" class="node">
<title>Node19</title>
<g id="a_node19"><a xlink:href="_circle_8hpp.html" target="_top" xlink:title=" ">
<polygon fill="none" stroke="black" points="1186,-390.5 1186,-431.5 1344,-431.5 1344,-390.5 1186,-390.5"/>
<text text-anchor="start" x="1194" y="-419.5" font-family="Helvetica,sans-Serif" font-size="10.00">/home/runner/work/Simulatio</text>
<text text-anchor="start" x="1194" y="-408.5" font-family="Helvetica,sans-Serif" font-size="10.00">/Simulatio/engine/include</text>
<text text-anchor="middle" x="1265" y="-397.5" font-family="Helvetica,sans-Serif" font-size="10.00">/Corpses/Circle.hpp</text>
</a>
</g>
</g>
<!-- Node18&#45;&gt;Node19 -->
<g id="edge23" class="edge">
<title>Node18&#45;&gt;Node19</title>
<path fill="none" stroke="midnightblue" d="M1253.35,-458.59C1255.62,-449.51 1258.06,-439.74 1260.12,-431.51"/>
<polygon fill="midnightblue" stroke="midnightblue" points="1249.92,-457.88 1250.89,-468.43 1256.71,-459.58 1249.92,-457.88"/>
</g>
<!-- Node20 -->
<g id="node20" class="node">
<title>Node20</title>
<g id="a_node20"><a xlink:href="_polygon_8hpp.html" target="_top" xlink:title=" ">
<polygon fill="none" stroke="black" points="1006,-312.5 1006,-353.5 1164,-353.5 1164,-312.5 1006,-312.5"/>
<text text-anchor="start" x="1014" y="-341.5" font-family="Helvetica,sans-Serif" font-size="10.00">/home/runner/work/Simulatio</text>
<text text-anchor="start" x="1014" y="-330.5" font-family="Helvetica,sans-Serif" font-size="10.00">/Simulatio/engine/include</text>
<text text-anchor="middle" x="1085" y="-319.5" font-family="Helvetica,sans-Serif" font-size="10.00">/Corpses/Polygon.hpp</text>
</a>
</g>
</g>
<!-- Node18&#45;&gt;Node20 -->
<g id="edge41" class="edge">
<title>Node18&#45;&gt;Node20</title>
<path fill="none" stroke="midnightblue" d="M1211.99,-461.96C1200.58,-452.82 1187.97,-442.26 1177,-432 1158.4,-414.6 1155.42,-408.58 1138,-390 1126.65,-377.89 1113.86,-364.37 1103.69,-353.65"/>
<polygon fill="midnightblue" stroke="midnightblue" points="1210.03,-464.88 1220.05,-468.35 1214.38,-459.39 1210.03,-464.88"/>
</g>
<!-- Node18&#45;&gt;Node21 -->
<g id="edge43" class="edge">
<title>Node18&#45;&gt;Node21</title>
<path fill="none" stroke="midnightblue" d="M1303.43,-463.91C1320.4,-455.27 1338.34,-444.52 1353,-432 1385.85,-403.95 1396.18,-394.58 1411,-354 1420.42,-328.22 1420.36,-296.11 1419.03,-275.82"/>
<polygon fill="midnightblue" stroke="midnightblue" points="1301.56,-460.93 1294.13,-468.49 1304.65,-467.21 1301.56,-460.93"/>
</g>
<!-- Node18&#45;&gt;Node22 -->
<g id="edge44" class="edge">
<title>Node18&#45;&gt;Node22</title>
<path fill="none" stroke="midnightblue" d="M1157.31,-468.06C1157.2,-468.04 1157.1,-468.02 1157,-468 1113.17,-459.1 987.66,-466.33 959,-432 893.94,-354.04 985.96,-286.3 1073,-234 1107.23,-213.43 1149.45,-200.04 1185.57,-191.53"/>
<polygon fill="midnightblue" stroke="midnightblue" points="1156.44,-471.46 1166.94,-470.06 1157.85,-464.6 1156.44,-471.46"/>
</g>
<!-- Node26 -->
<g id="node26" class="node">
<title>Node26</title>
<g id="a_node26"><a xlink:href="_corpse_8cpp.html" target="_top" xlink:title=" ">
<polygon fill="none" stroke="black" points="968.5,-390.5 968.5,-431.5 1129.5,-431.5 1129.5,-390.5 968.5,-390.5"/>
<text text-anchor="start" x="976.5" y="-419.5" font-family="Helvetica,sans-Serif" font-size="10.00">/home/runner/work/Simulatio</text>
<text text-anchor="start" x="976.5" y="-408.5" font-family="Helvetica,sans-Serif" font-size="10.00">/Simulatio/engine/src/Corpses</text>
<text text-anchor="middle" x="1049" y="-397.5" font-family="Helvetica,sans-Serif" font-size="10.00">/Corpse.cpp</text>
</a>
</g>
</g>
<!-- Node18&#45;&gt;Node26 -->
<g id="edge46" class="edge">
<title>Node18&#45;&gt;Node26</title>
<path fill="none" stroke="midnightblue" d="M1185.73,-464.75C1158.15,-454.11 1125.84,-441.65 1099.56,-431.51"/>
<polygon fill="midnightblue" stroke="midnightblue" points="1184.68,-468.09 1195.27,-468.43 1187.2,-461.56 1184.68,-468.09"/>
</g>
<!-- Node19&#45;&gt;Node3 -->
<g id="edge36" class="edge">
<title>Node19&#45;&gt;Node3</title>
<path fill="none" stroke="midnightblue" d="M1326.6,-386.92C1407.42,-356.64 1547.83,-304.02 1623.72,-275.59"/>
<polygon fill="midnightblue" stroke="midnightblue" points="1325.19,-383.71 1317.05,-390.5 1327.65,-390.26 1325.19,-383.71"/>
</g>
<!-- Node19&#45;&gt;Node4 -->
<g id="edge39" class="edge">
<title>Node19&#45;&gt;Node4</title>
<path fill="none" stroke="midnightblue" d="M1175.89,-394.14C1100.18,-380.24 1002.82,-361.16 997,-354 940.53,-284.51 985.28,-166.02 1006.46,-119.54"/>
<polygon fill="midnightblue" stroke="midnightblue" points="1175.48,-397.62 1185.95,-395.98 1176.74,-390.74 1175.48,-397.62"/>
</g>
<!-- Node19&#45;&gt;Node8 -->
<g id="edge24" class="edge">
<title>Node19&#45;&gt;Node8</title>
<path fill="none" stroke="midnightblue" d="M1175.65,-395.43C1094.08,-381.8 983.35,-362.32 964,-354 919.03,-334.67 874.6,-298.15 849.6,-275.57"/>
<polygon fill="midnightblue" stroke="midnightblue" points="1175.51,-398.95 1185.95,-397.15 1176.66,-392.05 1175.51,-398.95"/>
</g>
<!-- Node19&#45;&gt;Node20 -->
<g id="edge25" class="edge">
<title>Node19&#45;&gt;Node20</title>
<path fill="none" stroke="midnightblue" d="M1203.31,-386.61C1177.48,-376 1148.22,-363.6 1125.22,-353.51"/>
<polygon fill="midnightblue" stroke="midnightblue" points="1202.08,-389.88 1212.66,-390.43 1204.73,-383.4 1202.08,-389.88"/>
</g>
<!-- Node19&#45;&gt;Node21 -->
<g id="edge37" class="edge">
<title>Node19&#45;&gt;Node21</title>
<path fill="none" stroke="midnightblue" d="M1341.55,-386.23C1357.99,-378.17 1374,-367.63 1386,-354 1405.57,-331.77 1412.8,-297.16 1415.46,-275.58"/>
<polygon fill="midnightblue" stroke="midnightblue" points="1340.01,-383.08 1332.4,-390.45 1342.94,-389.44 1340.01,-383.08"/>
</g>
<!-- Node19&#45;&gt;Node22 -->
<g id="edge38" class="edge">
<title>Node19&#45;&gt;Node22</title>
<path fill="none" stroke="midnightblue" d="M1322.21,-384.77C1334.13,-376.73 1345.15,-366.56 1352,-354 1360.94,-337.61 1357.3,-329.9 1352,-312 1351.52,-310.39 1302.06,-234.66 1277.94,-197.77"/>
<polygon fill="midnightblue" stroke="midnightblue" points="1320.05,-382 1313.42,-390.26 1323.76,-387.94 1320.05,-382"/>
</g>
<!-- Node25 -->
<g id="node25" class="node">
<title>Node25</title>
<g id="a_node25"><a xlink:href="_circle_8cpp.html" target="_top" xlink:title=" ">
<polygon fill="none" stroke="black" points="1182.5,-312.5 1182.5,-353.5 1343.5,-353.5 1343.5,-312.5 1182.5,-312.5"/>
<text text-anchor="start" x="1190.5" y="-341.5" font-family="Helvetica,sans-Serif" font-size="10.00">/home/runner/work/Simulatio</text>
<text text-anchor="start" x="1190.5" y="-330.5" font-family="Helvetica,sans-Serif" font-size="10.00">/Simulatio/engine/src/Corpses</text>
<text text-anchor="middle" x="1263" y="-319.5" font-family="Helvetica,sans-Serif" font-size="10.00">/Circle.cpp</text>
</a>
</g>
</g>
<!-- Node19&#45;&gt;Node25 -->
<g id="edge40" class="edge">
<title>Node19&#45;&gt;Node25</title>
<path fill="none" stroke="midnightblue" d="M1264.22,-380.3C1263.98,-371.3 1263.73,-361.65 1263.51,-353.51"/>
<polygon fill="midnightblue" stroke="midnightblue" points="1260.72,-380.52 1264.48,-390.43 1267.72,-380.34 1260.72,-380.52"/>
</g>
<!-- Node20&#45;&gt;Node3 -->
<g id="edge28" class="edge">
<title>Node20&#45;&gt;Node3</title>
<path fill="none" stroke="midnightblue" d="M1174.36,-311.87C1321.15,-287.73 1360.83,-292.25 1505,-276 1535,-272.62 1567.94,-268.79 1596.84,-265.4"/>
<polygon fill="midnightblue" stroke="midnightblue" points="1173.36,-308.49 1164.07,-313.58 1174.51,-315.39 1173.36,-308.49"/>
</g>
<!-- Node20&#45;&gt;Node4 -->
<g id="edge34" class="edge">
<title>Node20&#45;&gt;Node4</title>
<path fill="none" stroke="midnightblue" d="M1076.2,-302.41C1061.9,-254.34 1034,-160.52 1021.87,-119.73"/>
<polygon fill="midnightblue" stroke="midnightblue" points="1072.91,-303.63 1079.12,-312.22 1079.62,-301.64 1072.91,-303.63"/>
</g>
<!-- Node20&#45;&gt;Node8 -->
<g id="edge26" class="edge">
<title>Node20&#45;&gt;Node8</title>
<path fill="none" stroke="midnightblue" d="M1009.48,-309.58C973.05,-298.76 929.75,-285.91 894.7,-275.51"/>
<polygon fill="midnightblue" stroke="midnightblue" points="1008.49,-312.94 1019.07,-312.43 1010.48,-306.23 1008.49,-312.94"/>
</g>
<!-- Node20&#45;&gt;Node19 -->
<g id="edge27" class="edge">
<title>Node20&#45;&gt;Node19</title>
<path fill="none" stroke="midnightblue" d="M1146.52,-357.32C1172.33,-367.92 1201.6,-380.32 1224.63,-390.43"/>
<polygon fill="midnightblue" stroke="midnightblue" points="1147.76,-354.05 1137.18,-353.51 1145.11,-360.53 1147.76,-354.05"/>
</g>
<!-- Node20&#45;&gt;Node21 -->
<g id="edge29" class="edge">
<title>Node20&#45;&gt;Node21</title>
<path fill="none" stroke="midnightblue" d="M1174.14,-311.6C1225.18,-299.91 1288.67,-285.38 1337.93,-274.1"/>
<polygon fill="midnightblue" stroke="midnightblue" points="1173.07,-308.25 1164.1,-313.89 1174.63,-315.07 1173.07,-308.25"/>
</g>
<!-- Node20&#45;&gt;Node22 -->
<g id="edge33" class="edge">
<title>Node20&#45;&gt;Node22</title>
<path fill="none" stroke="midnightblue" d="M1174.19,-311.19C1208.08,-301.47 1241.15,-289.15 1252,-276 1270.13,-254.02 1270.21,-219.34 1268.03,-197.67"/>
<polygon fill="midnightblue" stroke="midnightblue" points="1172.85,-307.93 1164.16,-313.99 1174.73,-314.67 1172.85,-307.93"/>
</g>
<!-- Node24 -->
<g id="node24" class="node">
<title>Node24</title>
<g id="a_node24"><a xlink:href="_polygon_8cpp.html" target="_top" xlink:title=" ">
<polygon fill="none" stroke="black" points="1082.5,-234.5 1082.5,-275.5 1243.5,-275.5 1243.5,-234.5 1082.5,-234.5"/>
<text text-anchor="start" x="1090.5" y="-263.5" font-family="Helvetica,sans-Serif" font-size="10.00">/home/runner/work/Simulatio</text>
<text text-anchor="start" x="1090.5" y="-252.5" font-family="Helvetica,sans-Serif" font-size="10.00">/Simulatio/engine/src/Corpses</text>
<text text-anchor="middle" x="1163" y="-241.5" font-family="Helvetica,sans-Serif" font-size="10.00">/Polygon.cpp</text>
</a>
</g>
</g>
<!-- Node20&#45;&gt;Node24 -->
<g id="edge35" class="edge">
<title>Node20&#45;&gt;Node24</title>
<path fill="none" stroke="midnightblue" d="M1112.5,-305.2C1122.55,-295.42 1133.71,-284.54 1142.98,-275.51"/>
<polygon fill="midnightblue" stroke="midnightblue" points="1109.81,-302.94 1105.09,-312.43 1114.69,-307.96 1109.81,-302.94"/>
</g>
<!-- Node21&#45;&gt;Node22 -->
<g id="edge30" class="edge">
<title>Node21&#45;&gt;Node22</title>
<path fill="none" stroke="midnightblue" d="M1368.82,-229.91C1347.92,-219.46 1323.76,-207.38 1304.01,-197.51"/>
<polygon fill="midnightblue" stroke="midnightblue" points="1367.35,-233.09 1377.86,-234.43 1370.48,-226.83 1367.35,-233.09"/>
</g>
<!-- Node23 -->
<g id="node23" class="node">
<title>Node23</title>
<g id="a_node23"><a xlink:href="_quad_node_8cpp.html" target="_top" xlink:title=" ">
<polygon fill="none" stroke="black" points="1362,-156.5 1362,-197.5 1534,-197.5 1534,-156.5 1362,-156.5"/>
<text text-anchor="start" x="1370" y="-185.5" font-family="Helvetica,sans-Serif" font-size="10.00">/home/runner/work/Simulatio</text>
<text text-anchor="start" x="1370" y="-174.5" font-family="Helvetica,sans-Serif" font-size="10.00">/Simulatio/engine/src/Structures</text>
<text text-anchor="middle" x="1448" y="-163.5" font-family="Helvetica,sans-Serif" font-size="10.00">/QuadNode.cpp</text>
</a>
</g>
</g>
<!-- Node21&#45;&gt;Node23 -->
<g id="edge32" class="edge">
<title>Node21&#45;&gt;Node23</title>
<path fill="none" stroke="midnightblue" d="M1428.88,-224.88C1432.61,-215.72 1436.65,-205.83 1440.04,-197.51"/>
<polygon fill="midnightblue" stroke="midnightblue" points="1425.52,-223.85 1424.98,-234.43 1432,-226.49 1425.52,-223.85"/>
</g>
<!-- Node22&#45;&gt;Node4 -->
<g id="edge31" class="edge">
<title>Node22&#45;&gt;Node4</title>
<path fill="none" stroke="midnightblue" d="M1191.09,-153.44C1155.75,-142.66 1113.85,-129.87 1079.91,-119.51"/>
<polygon fill="midnightblue" stroke="midnightblue" points="1190.29,-156.86 1200.88,-156.43 1192.33,-150.16 1190.29,-156.86"/>
</g>
<!-- Node28&#45;&gt;Node3 -->
<g id="edge50" class="edge">
<title>Node28&#45;&gt;Node3</title>
<path fill="none" stroke="midnightblue" d="M1453.87,-621.3C1541.85,-592.33 1676,-539.97 1676,-490 1676,-490 1676,-490 1676,-410 1676,-361.88 1676,-305.29 1676,-275.93"/>
<polygon fill="midnightblue" stroke="midnightblue" points="1452.6,-618.03 1444.18,-624.46 1454.77,-624.69 1452.6,-618.03"/>
</g>
<!-- Node28&#45;&gt;Node7 -->
<g id="edge51" class="edge">
<title>Node28&#45;&gt;Node7</title>
<path fill="none" stroke="midnightblue" d="M1330.82,-619.91C1309.92,-609.46 1285.76,-597.38 1266.01,-587.51"/>
<polygon fill="midnightblue" stroke="midnightblue" points="1329.35,-623.09 1339.86,-624.43 1332.48,-616.83 1329.35,-623.09"/>
</g>
<!-- Node29 -->
<g id="node29" class="node">
<title>Node29</title>
<g id="a_node29"><a xlink:href="_vertices_8cpp.html" target="_top" xlink:title=" ">
<polygon fill="none" stroke="black" points="1324.5,-546.5 1324.5,-587.5 1495.5,-587.5 1495.5,-546.5 1324.5,-546.5"/>
<text text-anchor="start" x="1332.5" y="-575.5" font-family="Helvetica,sans-Serif" font-size="10.00">/home/runner/work/Simulatio</text>
<text text-anchor="start" x="1332.5" y="-564.5" font-family="Helvetica,sans-Serif" font-size="10.00">/Simulatio/engine/src/Geometry</text>
<text text-anchor="middle" x="1410" y="-553.5" font-family="Helvetica,sans-Serif" font-size="10.00">/Vertices.cpp</text>
</a>
</g>
</g>
<!-- Node28&#45;&gt;Node29 -->
<g id="edge52" class="edge">
<title>Node28&#45;&gt;Node29</title>
<path fill="none" stroke="midnightblue" d="M1390.88,-614.88C1394.61,-605.72 1398.65,-595.83 1402.04,-587.51"/>
<polygon fill="midnightblue" stroke="midnightblue" points="1387.52,-613.85 1386.98,-624.43 1394,-616.49 1387.52,-613.85"/>
</g>
</g>
</svg>
