<?xml version="1.0" encoding="UTF-8" standalone="no"?>
<!DOCTYPE svg PUBLIC "-//W3C//DTD SVG 1.1//EN"
 "http://www.w3.org/Graphics/SVG/1.1/DTD/svg11.dtd">
<!-- Generated by graphviz version 2.43.0 (0)
 -->
<!-- Title: /home/runner/work/Simulatio/Simulatio/include/Geometry/Vector.hpp Pages: 1 -->
<svg width="1622pt" height="830pt"
 viewBox="0.00 0.00 1622.00 830.00" xmlns="http://www.w3.org/2000/svg" xmlns:xlink="http://www.w3.org/1999/xlink">
<g id="graph0" class="graph" transform="scale(1 1) rotate(0) translate(4 826)">
<title>/home/runner/work/Simulatio/Simulatio/include/Geometry/Vector.hpp</title>
<!-- Node1 -->
<g id="node1" class="node">
<title>Node1</title>
<g id="a_node1"><a xlink:title=" ">
<polygon fill="#bfbfbf" stroke="black" points="291,-780.5 291,-821.5 449,-821.5 449,-780.5 291,-780.5"/>
<text text-anchor="start" x="299" y="-809.5" font-family="Helvetica,sans-Serif" font-size="10.00">/home/runner/work/Simulatio</text>
<text text-anchor="start" x="299" y="-798.5" font-family="Helvetica,sans-Serif" font-size="10.00">/Simulatio/include/Geometry</text>
<text text-anchor="middle" x="370" y="-787.5" font-family="Helvetica,sans-Serif" font-size="10.00">/Vector.hpp</text>
</a>
</g>
</g>
<!-- Node2 -->
<g id="node2" class="node">
<title>Node2</title>
<g id="a_node2"><a xlink:href="_bounds_8hpp.html" target="_top" xlink:title=" ">
<polygon fill="none" stroke="black" points="345,-702.5 345,-743.5 503,-743.5 503,-702.5 345,-702.5"/>
<text text-anchor="start" x="353" y="-731.5" font-family="Helvetica,sans-Serif" font-size="10.00">/home/runner/work/Simulatio</text>
<text text-anchor="start" x="353" y="-720.5" font-family="Helvetica,sans-Serif" font-size="10.00">/Simulatio/include/Geometry</text>
<text text-anchor="middle" x="424" y="-709.5" font-family="Helvetica,sans-Serif" font-size="10.00">/Bounds.hpp</text>
</a>
</g>
</g>
<!-- Node1&#45;&gt;Node2 -->
<g id="edge1" class="edge">
<title>Node1&#45;&gt;Node2</title>
<path fill="none" stroke="midnightblue" d="M389.86,-772.05C396.6,-762.57 403.97,-752.18 410.14,-743.51"/>
<polygon fill="midnightblue" stroke="midnightblue" points="386.85,-770.25 383.91,-780.43 392.55,-774.3 386.85,-770.25"/>
</g>
<!-- Node3 -->
<g id="node3" class="node">
<title>Node3</title>
<g id="a_node3"><a xlink:href="_collision_8hpp.html" target="_top" xlink:title=" ">
<polygon fill="none" stroke="black" points="706,-234.5 706,-275.5 864,-275.5 864,-234.5 706,-234.5"/>
<text text-anchor="start" x="714" y="-263.5" font-family="Helvetica,sans-Serif" font-size="10.00">/home/runner/work/Simulatio</text>
<text text-anchor="start" x="714" y="-252.5" font-family="Helvetica,sans-Serif" font-size="10.00">/Simulatio/include/Geometry</text>
<text text-anchor="middle" x="785" y="-241.5" font-family="Helvetica,sans-Serif" font-size="10.00">/Collision.hpp</text>
</a>
</g>
</g>
<!-- Node1&#45;&gt;Node3 -->
<g id="edge50" class="edge">
<title>Node1&#45;&gt;Node3</title>
<path fill="none" stroke="midnightblue" d="M459.21,-796.12C629.48,-786.26 984,-752.89 984,-646 984,-646 984,-646 984,-410 984,-358.46 961.51,-345.1 922,-312 902.99,-296.08 878.85,-284.2 856.14,-275.58"/>
<polygon fill="midnightblue" stroke="midnightblue" points="458.8,-792.63 449.01,-796.69 459.19,-799.62 458.8,-792.63"/>
</g>
<!-- Node5 -->
<g id="node5" class="node">
<title>Node5</title>
<g id="a_node5"><a xlink:href="_renderer_8hpp.html" target="_top" xlink:title=" ">
<polygon fill="none" stroke="black" points="1146,-0.5 1146,-41.5 1304,-41.5 1304,-0.5 1146,-0.5"/>
<text text-anchor="start" x="1154" y="-29.5" font-family="Helvetica,sans-Serif" font-size="10.00">/home/runner/work/Simulatio</text>
<text text-anchor="start" x="1154" y="-18.5" font-family="Helvetica,sans-Serif" font-size="10.00">/Simulatio/include/Renderer</text>
<text text-anchor="middle" x="1225" y="-7.5" font-family="Helvetica,sans-Serif" font-size="10.00">/Renderer.hpp</text>
</a>
</g>
</g>
<!-- Node1&#45;&gt;Node5 -->
<g id="edge53" class="edge">
<title>Node1&#45;&gt;Node5</title>
<path fill="none" stroke="midnightblue" d="M280.5,-793C199.52,-785.13 87.65,-769.92 52,-744 12.12,-715.01 0,-695.31 0,-646 0,-646 0,-646 0,-176 0,-60.12 874.11,-30.12 1145.57,-23.6"/>
<polygon fill="midnightblue" stroke="midnightblue" points="280.43,-796.51 290.71,-793.97 281.09,-789.54 280.43,-796.51"/>
</g>
<!-- Node6 -->
<g id="node6" class="node">
<title>Node6</title>
<g id="a_node6"><a xlink:href="_geometry_8hpp.html" target="_top" xlink:title=" ">
<polygon fill="none" stroke="black" points="1012,-546.5 1012,-587.5 1170,-587.5 1170,-546.5 1012,-546.5"/>
<text text-anchor="start" x="1020" y="-575.5" font-family="Helvetica,sans-Serif" font-size="10.00">/home/runner/work/Simulatio</text>
<text text-anchor="start" x="1020" y="-564.5" font-family="Helvetica,sans-Serif" font-size="10.00">/Simulatio/include/Geometry</text>
<text text-anchor="middle" x="1091" y="-553.5" font-family="Helvetica,sans-Serif" font-size="10.00">/Geometry.hpp</text>
</a>
</g>
</g>
<!-- Node1&#45;&gt;Node6 -->
<g id="edge51" class="edge">
<title>Node1&#45;&gt;Node6</title>
<path fill="none" stroke="midnightblue" d="M459.52,-796.72C622.34,-790.07 954.21,-773.12 998,-744 1053.68,-706.97 1078.32,-625.37 1087.03,-587.73"/>
<polygon fill="midnightblue" stroke="midnightblue" points="458.9,-793.24 449.05,-797.14 459.18,-800.24 458.9,-793.24"/>
</g>
<!-- Node15 -->
<g id="node15" class="node">
<title>Node15</title>
<g id="a_node15"><a xlink:href="_old_quadtree_8hpp.html" target="_top" xlink:title=" ">
<polygon fill="none" stroke="black" points="142,-234.5 142,-275.5 300,-275.5 300,-234.5 142,-234.5"/>
<text text-anchor="start" x="150" y="-263.5" font-family="Helvetica,sans-Serif" font-size="10.00">/home/runner/work/Simulatio</text>
<text text-anchor="start" x="150" y="-252.5" font-family="Helvetica,sans-Serif" font-size="10.00">/Simulatio/include/Structures</text>
<text text-anchor="middle" x="221" y="-241.5" font-family="Helvetica,sans-Serif" font-size="10.00">/OldQuadtree.hpp</text>
</a>
</g>
</g>
<!-- Node1&#45;&gt;Node15 -->
<g id="edge54" class="edge">
<title>Node1&#45;&gt;Node15</title>
<path fill="none" stroke="midnightblue" d="M280.93,-784.3C207.03,-765.54 114,-726.04 114,-646 114,-646 114,-646 114,-410 114,-353.19 163.72,-302.27 195.37,-275.61"/>
<polygon fill="midnightblue" stroke="midnightblue" points="280.21,-787.72 290.75,-786.7 281.87,-780.92 280.21,-787.72"/>
</g>
<!-- Node16 -->
<g id="node16" class="node">
<title>Node16</title>
<g id="a_node16"><a xlink:href="_quad_node_8hpp.html" target="_top" xlink:title=" ">
<polygon fill="none" stroke="black" points="318,-234.5 318,-275.5 476,-275.5 476,-234.5 318,-234.5"/>
<text text-anchor="start" x="326" y="-263.5" font-family="Helvetica,sans-Serif" font-size="10.00">/home/runner/work/Simulatio</text>
<text text-anchor="start" x="326" y="-252.5" font-family="Helvetica,sans-Serif" font-size="10.00">/Simulatio/include/Structures</text>
<text text-anchor="middle" x="397" y="-241.5" font-family="Helvetica,sans-Serif" font-size="10.00">/QuadNode.hpp</text>
</a>
</g>
</g>
<!-- Node1&#45;&gt;Node16 -->
<g id="edge55" class="edge">
<title>Node1&#45;&gt;Node16</title>
<path fill="none" stroke="midnightblue" d="M350.27,-771.89C344.96,-763.26 339.68,-753.53 336,-744 320.02,-702.61 317,-690.37 317,-646 317,-646 317,-646 317,-410 317,-356.67 355.24,-303.47 378.85,-275.71"/>
<polygon fill="midnightblue" stroke="midnightblue" points="347.4,-773.89 355.74,-780.42 353.29,-770.11 347.4,-773.89"/>
</g>
<!-- Node17 -->
<g id="node17" class="node">
<title>Node17</title>
<g id="a_node17"><a xlink:href="_quadtree_8hpp.html" target="_top" xlink:title=" ">
<polygon fill="none" stroke="black" points="288,-156.5 288,-197.5 446,-197.5 446,-156.5 288,-156.5"/>
<text text-anchor="start" x="296" y="-185.5" font-family="Helvetica,sans-Serif" font-size="10.00">/home/runner/work/Simulatio</text>
<text text-anchor="start" x="296" y="-174.5" font-family="Helvetica,sans-Serif" font-size="10.00">/Simulatio/include/Structures</text>
<text text-anchor="middle" x="367" y="-163.5" font-family="Helvetica,sans-Serif" font-size="10.00">/Quadtree.hpp</text>
</a>
</g>
</g>
<!-- Node1&#45;&gt;Node17 -->
<g id="edge56" class="edge">
<title>Node1&#45;&gt;Node17</title>
<path fill="none" stroke="midnightblue" d="M280.94,-795.93C182.6,-786.08 38,-753.35 38,-646 38,-646 38,-646 38,-332 38,-281.16 55.53,-263.4 97,-234 127.22,-212.58 219.56,-196.59 287.88,-187.3"/>
<polygon fill="midnightblue" stroke="midnightblue" points="280.62,-799.41 290.9,-796.86 281.27,-792.44 280.62,-799.41"/>
</g>
<!-- Node19 -->
<g id="node19" class="node">
<title>Node19</title>
<g id="a_node19"><a xlink:href="_vertices_8hpp.html" target="_top" xlink:title=" ">
<polygon fill="none" stroke="black" points="760,-624.5 760,-665.5 918,-665.5 918,-624.5 760,-624.5"/>
<text text-anchor="start" x="768" y="-653.5" font-family="Helvetica,sans-Serif" font-size="10.00">/home/runner/work/Simulatio</text>
<text text-anchor="start" x="768" y="-642.5" font-family="Helvetica,sans-Serif" font-size="10.00">/Simulatio/include/Geometry</text>
<text text-anchor="middle" x="839" y="-631.5" font-family="Helvetica,sans-Serif" font-size="10.00">/Vertices.hpp</text>
</a>
</g>
</g>
<!-- Node1&#45;&gt;Node19 -->
<g id="edge52" class="edge">
<title>Node1&#45;&gt;Node19</title>
<path fill="none" stroke="midnightblue" d="M439.18,-777.29C531.21,-747.06 692.39,-694.14 779.34,-665.59"/>
<polygon fill="midnightblue" stroke="midnightblue" points="437.81,-774.05 429.4,-780.5 439.99,-780.7 437.81,-774.05"/>
</g>
<!-- Node2&#45;&gt;Node3 -->
<g id="edge2" class="edge">
<title>Node2&#45;&gt;Node3</title>
<path fill="none" stroke="midnightblue" d="M510.32,-699.39C598.36,-671.22 730.27,-613.63 790,-510 834.16,-433.38 806.08,-320.97 791.83,-275.84"/>
<polygon fill="midnightblue" stroke="midnightblue" points="509.1,-696.11 500.61,-702.44 511.2,-702.79 509.1,-696.11"/>
</g>
<!-- Node2&#45;&gt;Node6 -->
<g id="edge5" class="edge">
<title>Node2&#45;&gt;Node6</title>
<path fill="none" stroke="midnightblue" d="M513.48,-716.62C636.91,-708.42 852.58,-691.05 927,-666 980.44,-648.01 1035.22,-610.7 1066,-587.66"/>
<polygon fill="midnightblue" stroke="midnightblue" points="513.05,-713.14 503.3,-717.29 513.51,-720.13 513.05,-713.14"/>
</g>
<!-- Node2&#45;&gt;Node15 -->
<g id="edge47" class="edge">
<title>Node2&#45;&gt;Node15</title>
<path fill="none" stroke="midnightblue" d="M335.12,-701.62C268.94,-680.58 190,-640.31 190,-568 190,-568 190,-568 190,-410 190,-360.91 205.33,-304.72 214.43,-275.68"/>
<polygon fill="midnightblue" stroke="midnightblue" points="334.19,-705 344.78,-704.59 336.25,-698.31 334.19,-705"/>
</g>
<!-- Node2&#45;&gt;Node16 -->
<g id="edge48" class="edge">
<title>Node2&#45;&gt;Node16</title>
<path fill="none" stroke="midnightblue" d="M402.93,-694.16C382.63,-664.53 355,-615.46 355,-568 355,-568 355,-568 355,-410 355,-360.39 375.53,-304.87 387.89,-275.95"/>
<polygon fill="midnightblue" stroke="midnightblue" points="400.07,-696.18 408.69,-702.35 405.79,-692.15 400.07,-696.18"/>
</g>
<!-- Node2&#45;&gt;Node17 -->
<g id="edge49" class="edge">
<title>Node2&#45;&gt;Node17</title>
<path fill="none" stroke="midnightblue" d="M334.82,-715.18C292.55,-708.15 243.47,-694.07 207,-666 167.42,-635.54 152,-617.95 152,-568 152,-568 152,-568 152,-488 152,-374.38 52.21,-322.88 123,-234 143.44,-208.33 224.66,-193.46 287.85,-185.58"/>
<polygon fill="midnightblue" stroke="midnightblue" points="334.42,-718.67 344.84,-716.74 335.5,-711.75 334.42,-718.67"/>
</g>
<!-- Node2&#45;&gt;Node19 -->
<g id="edge44" class="edge">
<title>Node2&#45;&gt;Node19</title>
<path fill="none" stroke="midnightblue" d="M513.4,-707.43C578.11,-696.64 667.62,-681.24 746,-666 750.54,-665.12 755.2,-664.19 759.9,-663.23"/>
<polygon fill="midnightblue" stroke="midnightblue" points="512.52,-704.03 503.23,-709.12 513.67,-710.93 512.52,-704.03"/>
</g>
<!-- Node4 -->
<g id="node4" class="node">
<title>Node4</title>
<g id="a_node4"><a xlink:href="_system_8hpp.html" target="_top" xlink:title=" ">
<polygon fill="none" stroke="black" points="943,-78.5 943,-119.5 1101,-119.5 1101,-78.5 943,-78.5"/>
<text text-anchor="start" x="951" y="-107.5" font-family="Helvetica,sans-Serif" font-size="10.00">/home/runner/work/Simulatio</text>
<text text-anchor="start" x="951" y="-96.5" font-family="Helvetica,sans-Serif" font-size="10.00">/Simulatio/include/Structures</text>
<text text-anchor="middle" x="1022" y="-85.5" font-family="Helvetica,sans-Serif" font-size="10.00">/System.hpp</text>
</a>
</g>
</g>
<!-- Node3&#45;&gt;Node4 -->
<g id="edge3" class="edge">
<title>Node3&#45;&gt;Node4</title>
<path fill="none" stroke="midnightblue" d="M695.55,-243.38C618.46,-230.7 525.87,-204.79 569,-156 593.31,-128.5 819.65,-111.48 942.9,-104.17"/>
<polygon fill="midnightblue" stroke="midnightblue" points="695.4,-246.9 705.82,-245.01 696.49,-239.98 695.4,-246.9"/>
</g>
<!-- Node4&#45;&gt;Node5 -->
<g id="edge4" class="edge">
<title>Node4&#45;&gt;Node5</title>
<path fill="none" stroke="midnightblue" d="M1083.74,-74.89C1112.23,-64.22 1145.7,-51.69 1172.9,-41.51"/>
<polygon fill="midnightblue" stroke="midnightblue" points="1082.42,-71.64 1074.28,-78.43 1084.87,-78.2 1082.42,-71.64"/>
</g>
<!-- Node6&#45;&gt;Node4 -->
<g id="edge43" class="edge">
<title>Node6&#45;&gt;Node4</title>
<path fill="none" stroke="midnightblue" d="M1180.37,-557.53C1268.47,-543.68 1390,-507.3 1390,-412 1390,-412 1390,-412 1390,-254 1390,-207.12 1387.44,-185.49 1351,-156 1313.56,-125.7 1186,-111.14 1101.15,-104.65"/>
<polygon fill="midnightblue" stroke="midnightblue" points="1179.71,-554.09 1170.34,-559.03 1180.75,-561.01 1179.71,-554.09"/>
</g>
<!-- Node6&#45;&gt;Node5 -->
<g id="edge42" class="edge">
<title>Node6&#45;&gt;Node5</title>
<path fill="none" stroke="midnightblue" d="M1180.12,-562.51C1279.96,-553.26 1428,-521.14 1428,-412 1428,-412 1428,-412 1428,-176 1428,-106 1350.43,-63.69 1291.19,-41.59"/>
<polygon fill="midnightblue" stroke="midnightblue" points="1179.67,-559.03 1170.01,-563.38 1180.28,-566.01 1179.67,-559.03"/>
</g>
<!-- Node7 -->
<g id="node7" class="node">
<title>Node7</title>
<g id="a_node7"><a xlink:href="_constraint_8hpp.html" target="_top" xlink:title=" ">
<polygon fill="none" stroke="black" points="882.5,-234.5 882.5,-275.5 1045.5,-275.5 1045.5,-234.5 882.5,-234.5"/>
<text text-anchor="start" x="890.5" y="-263.5" font-family="Helvetica,sans-Serif" font-size="10.00">/home/runner/work/Simulatio</text>
<text text-anchor="start" x="890.5" y="-252.5" font-family="Helvetica,sans-Serif" font-size="10.00">/Simulatio/include/Constraints</text>
<text text-anchor="middle" x="964" y="-241.5" font-family="Helvetica,sans-Serif" font-size="10.00">/Constraint.hpp</text>
</a>
</g>
</g>
<!-- Node6&#45;&gt;Node7 -->
<g id="edge6" class="edge">
<title>Node6&#45;&gt;Node7</title>
<path fill="none" stroke="midnightblue" d="M1082.29,-536.6C1067.59,-488.49 1035.74,-390.46 998,-312 991.99,-299.5 983.98,-286.19 977.25,-275.69"/>
<polygon fill="midnightblue" stroke="midnightblue" points="1079,-537.8 1085.25,-546.36 1085.7,-535.77 1079,-537.8"/>
</g>
<!-- Node12 -->
<g id="node12" class="node">
<title>Node12</title>
<g id="a_node12"><a xlink:href="_corpse_8hpp.html" target="_top" xlink:title=" ">
<polygon fill="none" stroke="black" points="623,-468.5 623,-509.5 781,-509.5 781,-468.5 623,-468.5"/>
<text text-anchor="start" x="631" y="-497.5" font-family="Helvetica,sans-Serif" font-size="10.00">/home/runner/work/Simulatio</text>
<text text-anchor="start" x="631" y="-486.5" font-family="Helvetica,sans-Serif" font-size="10.00">/Simulatio/include/Corpses</text>
<text text-anchor="middle" x="702" y="-475.5" font-family="Helvetica,sans-Serif" font-size="10.00">/Corpse.hpp</text>
</a>
</g>
</g>
<!-- Node6&#45;&gt;Node12 -->
<g id="edge15" class="edge">
<title>Node6&#45;&gt;Node12</title>
<path fill="none" stroke="midnightblue" d="M1001.75,-548.56C935.18,-535.56 845.07,-517.95 781.08,-505.45"/>
<polygon fill="midnightblue" stroke="midnightblue" points="1001.33,-552.05 1011.81,-550.53 1002.67,-545.18 1001.33,-552.05"/>
</g>
<!-- Node18 -->
<g id="node18" class="node">
<title>Node18</title>
<g id="a_node18"><a xlink:href="_converter_8hpp.html" target="_top" xlink:title=" ">
<polygon fill="none" stroke="black" points="1456,-390.5 1456,-431.5 1614,-431.5 1614,-390.5 1456,-390.5"/>
<text text-anchor="start" x="1464" y="-419.5" font-family="Helvetica,sans-Serif" font-size="10.00">/home/runner/work/Simulatio</text>
<text text-anchor="start" x="1464" y="-408.5" font-family="Helvetica,sans-Serif" font-size="10.00">/Simulatio/include/Renderer</text>
<text text-anchor="middle" x="1535" y="-397.5" font-family="Helvetica,sans-Serif" font-size="10.00">/Converter.hpp</text>
</a>
</g>
</g>
<!-- Node6&#45;&gt;Node18 -->
<g id="edge40" class="edge">
<title>Node6&#45;&gt;Node18</title>
<path fill="none" stroke="midnightblue" d="M1180.32,-558.32C1268.96,-549.54 1397.78,-533.3 1442,-510 1477.07,-491.52 1506.37,-454.73 1522.23,-431.86"/>
<polygon fill="midnightblue" stroke="midnightblue" points="1179.87,-554.85 1170.26,-559.3 1180.55,-561.81 1179.87,-554.85"/>
</g>
<!-- Node7&#45;&gt;Node4 -->
<g id="edge14" class="edge">
<title>Node7&#45;&gt;Node4</title>
<path fill="none" stroke="midnightblue" d="M1055.47,-238.74C1077.91,-230.45 1099.37,-217.68 1113,-198 1123.63,-182.65 1122.11,-172.3 1113,-156 1104.13,-140.13 1088.72,-128.2 1073.07,-119.53"/>
<polygon fill="midnightblue" stroke="midnightblue" points="1054.15,-235.49 1045.81,-242.03 1056.41,-242.12 1054.15,-235.49"/>
</g>
<!-- Node8 -->
<g id="node8" class="node">
<title>Node8</title>
<g id="a_node8"><a xlink:href="_link_8hpp.html" target="_top" xlink:title=" ">
<polygon fill="none" stroke="black" points="1160.5,-156.5 1160.5,-197.5 1323.5,-197.5 1323.5,-156.5 1160.5,-156.5"/>
<text text-anchor="start" x="1168.5" y="-185.5" font-family="Helvetica,sans-Serif" font-size="10.00">/home/runner/work/Simulatio</text>
<text text-anchor="start" x="1168.5" y="-174.5" font-family="Helvetica,sans-Serif" font-size="10.00">/Simulatio/include/Constraints</text>
<text text-anchor="middle" x="1242" y="-163.5" font-family="Helvetica,sans-Serif" font-size="10.00">/Link.hpp</text>
</a>
</g>
</g>
<!-- Node7&#45;&gt;Node8 -->
<g id="edge7" class="edge">
<title>Node7&#45;&gt;Node8</title>
<path fill="none" stroke="midnightblue" d="M1045.25,-231.79C1084.97,-220.93 1132.34,-207.98 1170.65,-197.51"/>
<polygon fill="midnightblue" stroke="midnightblue" points="1044.31,-228.41 1035.59,-234.43 1046.16,-235.17 1044.31,-228.41"/>
</g>
<!-- Node9 -->
<g id="node9" class="node">
<title>Node9</title>
<g id="a_node9"><a xlink:href="_loose_8hpp.html" target="_top" xlink:title=" ">
<polygon fill="none" stroke="black" points="759.5,-156.5 759.5,-197.5 922.5,-197.5 922.5,-156.5 759.5,-156.5"/>
<text text-anchor="start" x="767.5" y="-185.5" font-family="Helvetica,sans-Serif" font-size="10.00">/home/runner/work/Simulatio</text>
<text text-anchor="start" x="767.5" y="-174.5" font-family="Helvetica,sans-Serif" font-size="10.00">/Simulatio/include/Constraints</text>
<text text-anchor="middle" x="841" y="-163.5" font-family="Helvetica,sans-Serif" font-size="10.00">/Loose.hpp</text>
</a>
</g>
</g>
<!-- Node7&#45;&gt;Node9 -->
<g id="edge9" class="edge">
<title>Node7&#45;&gt;Node9</title>
<path fill="none" stroke="midnightblue" d="M923.41,-228.92C906.87,-218.7 888.05,-207.07 872.57,-197.51"/>
<polygon fill="midnightblue" stroke="midnightblue" points="921.98,-232.15 932.32,-234.43 925.66,-226.19 921.98,-232.15"/>
</g>
<!-- Node10 -->
<g id="node10" class="node">
<title>Node10</title>
<g id="a_node10"><a xlink:href="_slider_8hpp.html" target="_top" xlink:title=" ">
<polygon fill="none" stroke="black" points="578.5,-156.5 578.5,-197.5 741.5,-197.5 741.5,-156.5 578.5,-156.5"/>
<text text-anchor="start" x="586.5" y="-185.5" font-family="Helvetica,sans-Serif" font-size="10.00">/home/runner/work/Simulatio</text>
<text text-anchor="start" x="586.5" y="-174.5" font-family="Helvetica,sans-Serif" font-size="10.00">/Simulatio/include/Constraints</text>
<text text-anchor="middle" x="660" y="-163.5" font-family="Helvetica,sans-Serif" font-size="10.00">/Slider.hpp</text>
</a>
</g>
</g>
<!-- Node7&#45;&gt;Node10 -->
<g id="edge10" class="edge">
<title>Node7&#45;&gt;Node10</title>
<path fill="none" stroke="midnightblue" d="M875.97,-231.99C832.37,-221.09 780.18,-208.04 738.02,-197.51"/>
<polygon fill="midnightblue" stroke="midnightblue" points="875.16,-235.4 885.71,-234.43 876.86,-228.61 875.16,-235.4"/>
</g>
<!-- Node11 -->
<g id="node11" class="node">
<title>Node11</title>
<g id="a_node11"><a xlink:href="_spring_8hpp.html" target="_top" xlink:title=" ">
<polygon fill="none" stroke="black" points="940.5,-156.5 940.5,-197.5 1103.5,-197.5 1103.5,-156.5 940.5,-156.5"/>
<text text-anchor="start" x="948.5" y="-185.5" font-family="Helvetica,sans-Serif" font-size="10.00">/home/runner/work/Simulatio</text>
<text text-anchor="start" x="948.5" y="-174.5" font-family="Helvetica,sans-Serif" font-size="10.00">/Simulatio/include/Constraints</text>
<text text-anchor="middle" x="1022" y="-163.5" font-family="Helvetica,sans-Serif" font-size="10.00">/Spring.hpp</text>
</a>
</g>
</g>
<!-- Node7&#45;&gt;Node11 -->
<g id="edge12" class="edge">
<title>Node7&#45;&gt;Node11</title>
<path fill="none" stroke="midnightblue" d="M985.11,-226.34C992.41,-216.78 1000.42,-206.27 1007.11,-197.51"/>
<polygon fill="midnightblue" stroke="midnightblue" points="982.22,-224.36 978.94,-234.43 987.79,-228.6 982.22,-224.36"/>
</g>
<!-- Node8&#45;&gt;Node4 -->
<g id="edge8" class="edge">
<title>Node8&#45;&gt;Node4</title>
<path fill="none" stroke="midnightblue" d="M1175.5,-153.03C1144.53,-142.33 1108.07,-129.73 1078.46,-119.51"/>
<polygon fill="midnightblue" stroke="midnightblue" points="1174.75,-156.47 1185.34,-156.43 1177.04,-149.85 1174.75,-156.47"/>
</g>
<!-- Node10&#45;&gt;Node4 -->
<g id="edge11" class="edge">
<title>Node10&#45;&gt;Node4</title>
<path fill="none" stroke="midnightblue" d="M751.73,-155.64C821.4,-140.77 890.92,-126.5 942.78,-115.97"/>
<polygon fill="midnightblue" stroke="midnightblue" points="750.95,-152.23 741.9,-157.74 752.42,-159.07 750.95,-152.23"/>
</g>
<!-- Node11&#45;&gt;Node4 -->
<g id="edge13" class="edge">
<title>Node11&#45;&gt;Node4</title>
<path fill="none" stroke="midnightblue" d="M1022,-146.3C1022,-137.3 1022,-127.65 1022,-119.51"/>
<polygon fill="midnightblue" stroke="midnightblue" points="1018.5,-146.43 1022,-156.43 1025.5,-146.43 1018.5,-146.43"/>
</g>
<!-- Node12&#45;&gt;Node3 -->
<g id="edge35" class="edge">
<title>Node12&#45;&gt;Node3</title>
<path fill="none" stroke="midnightblue" d="M718.25,-459.48C732.73,-432.94 753.5,-391.89 766,-354 774.74,-327.5 780,-295.57 782.7,-275.52"/>
<polygon fill="midnightblue" stroke="midnightblue" points="715.19,-457.79 713.42,-468.23 721.31,-461.17 715.19,-457.79"/>
</g>
<!-- Node12&#45;&gt;Node4 -->
<g id="edge39" class="edge">
<title>Node12&#45;&gt;Node4</title>
<path fill="none" stroke="midnightblue" d="M791.36,-477.03C934.71,-454.1 1212.2,-386.46 1333,-198 1343.07,-182.28 1344.97,-170.32 1333,-156 1304.01,-121.33 1183.53,-108.09 1101.32,-103.06"/>
<polygon fill="midnightblue" stroke="midnightblue" points="790.61,-473.61 781.27,-478.61 791.69,-480.53 790.61,-473.61"/>
</g>
<!-- Node12&#45;&gt;Node7 -->
<g id="edge16" class="edge">
<title>Node12&#45;&gt;Node7</title>
<path fill="none" stroke="midnightblue" d="M732.07,-461.38C785.24,-414.29 894.69,-317.38 941.72,-275.73"/>
<polygon fill="midnightblue" stroke="midnightblue" points="729.5,-458.97 724.34,-468.22 734.15,-464.21 729.5,-458.97"/>
</g>
<!-- Node13 -->
<g id="node13" class="node">
<title>Node13</title>
<g id="a_node13"><a xlink:href="_circle_8hpp.html" target="_top" xlink:title=" ">
<polygon fill="none" stroke="black" points="516,-390.5 516,-431.5 674,-431.5 674,-390.5 516,-390.5"/>
<text text-anchor="start" x="524" y="-419.5" font-family="Helvetica,sans-Serif" font-size="10.00">/home/runner/work/Simulatio</text>
<text text-anchor="start" x="524" y="-408.5" font-family="Helvetica,sans-Serif" font-size="10.00">/Simulatio/include/Corpses</text>
<text text-anchor="middle" x="595" y="-397.5" font-family="Helvetica,sans-Serif" font-size="10.00">/Circle.hpp</text>
</a>
</g>
</g>
<!-- Node12&#45;&gt;Node13 -->
<g id="edge17" class="edge">
<title>Node12&#45;&gt;Node13</title>
<path fill="none" stroke="midnightblue" d="M666.29,-462.64C652,-452.49 635.8,-440.98 622.46,-431.51"/>
<polygon fill="midnightblue" stroke="midnightblue" points="664.27,-465.49 674.44,-468.43 668.32,-459.78 664.27,-465.49"/>
</g>
<!-- Node14 -->
<g id="node14" class="node">
<title>Node14</title>
<g id="a_node14"><a xlink:href="_polygon_8hpp.html" target="_top" xlink:title=" ">
<polygon fill="none" stroke="black" points="570,-312.5 570,-353.5 728,-353.5 728,-312.5 570,-312.5"/>
<text text-anchor="start" x="578" y="-341.5" font-family="Helvetica,sans-Serif" font-size="10.00">/home/runner/work/Simulatio</text>
<text text-anchor="start" x="578" y="-330.5" font-family="Helvetica,sans-Serif" font-size="10.00">/Simulatio/include/Corpses</text>
<text text-anchor="middle" x="649" y="-319.5" font-family="Helvetica,sans-Serif" font-size="10.00">/Polygon.hpp</text>
</a>
</g>
</g>
<!-- Node12&#45;&gt;Node14 -->
<g id="edge34" class="edge">
<title>Node12&#45;&gt;Node14</title>
<path fill="none" stroke="midnightblue" d="M699.01,-458.29C696.36,-438.45 691.52,-412.06 683,-390 678.04,-377.16 670.17,-363.95 663.26,-353.58"/>
<polygon fill="midnightblue" stroke="midnightblue" points="695.55,-458.79 700.25,-468.28 702.5,-457.93 695.55,-458.79"/>
</g>
<!-- Node12&#45;&gt;Node15 -->
<g id="edge36" class="edge">
<title>Node12&#45;&gt;Node15</title>
<path fill="none" stroke="midnightblue" d="M612.85,-475.13C566.09,-466.47 508.58,-452.76 460,-432 401.85,-407.15 392,-391.38 341,-354 305.86,-328.24 267.14,-295.84 243.44,-275.52"/>
<polygon fill="midnightblue" stroke="midnightblue" points="612.5,-478.63 622.96,-476.96 613.74,-471.74 612.5,-478.63"/>
</g>
<!-- Node12&#45;&gt;Node16 -->
<g id="edge37" class="edge">
<title>Node12&#45;&gt;Node16</title>
<path fill="none" stroke="midnightblue" d="M613.12,-474.31C578.02,-465.99 538.61,-452.78 507,-432 448.89,-393.79 415.88,-313.16 403.15,-275.79"/>
<polygon fill="midnightblue" stroke="midnightblue" points="612.37,-477.73 622.89,-476.53 613.92,-470.9 612.37,-477.73"/>
</g>
<!-- Node12&#45;&gt;Node17 -->
<g id="edge38" class="edge">
<title>Node12&#45;&gt;Node17</title>
<path fill="none" stroke="midnightblue" d="M612.45,-487.23C477.25,-480.44 226.87,-444.52 133,-276 97.37,-212.03 206.7,-189.82 287.74,-182.1"/>
<polygon fill="midnightblue" stroke="midnightblue" points="612.62,-490.74 622.77,-487.7 612.95,-483.74 612.62,-490.74"/>
</g>
<!-- Node13&#45;&gt;Node3 -->
<g id="edge29" class="edge">
<title>Node13&#45;&gt;Node3</title>
<path fill="none" stroke="midnightblue" d="M683.63,-386.69C702.81,-378.64 721.86,-367.98 737,-354 760.25,-332.54 773.59,-297.37 780.06,-275.52"/>
<polygon fill="midnightblue" stroke="midnightblue" points="682.21,-383.49 674.21,-390.45 684.8,-389.99 682.21,-383.49"/>
</g>
<!-- Node13&#45;&gt;Node4 -->
<g id="edge33" class="edge">
<title>Node13&#45;&gt;Node4</title>
<path fill="none" stroke="midnightblue" d="M575.78,-381.63C543.41,-330.02 486.89,-220.19 544,-156 570.02,-126.76 814.03,-110.32 942.98,-103.61"/>
<polygon fill="midnightblue" stroke="midnightblue" points="572.97,-383.74 581.32,-390.27 578.87,-379.96 572.97,-383.74"/>
</g>
<!-- Node13&#45;&gt;Node7 -->
<g id="edge18" class="edge">
<title>Node13&#45;&gt;Node7</title>
<path fill="none" stroke="midnightblue" d="M672.27,-387.28C701.92,-377.89 735.86,-366.32 766,-354 824.23,-330.2 889.11,-296.67 928.22,-275.65"/>
<polygon fill="midnightblue" stroke="midnightblue" points="670.89,-384.04 662.39,-390.38 672.98,-390.72 670.89,-384.04"/>
</g>
<!-- Node13&#45;&gt;Node14 -->
<g id="edge19" class="edge">
<title>Node13&#45;&gt;Node14</title>
<path fill="none" stroke="midnightblue" d="M608.52,-381.76C614.8,-372.35 622.28,-362.1 629.16,-353.51"/>
<polygon fill="midnightblue" stroke="midnightblue" points="605.4,-380.13 602.92,-390.43 611.28,-383.93 605.4,-380.13"/>
</g>
<!-- Node13&#45;&gt;Node15 -->
<g id="edge30" class="edge">
<title>Node13&#45;&gt;Node15</title>
<path fill="none" stroke="midnightblue" d="M529.72,-386.97C502.73,-377.18 471.21,-365.41 443,-354 379.73,-328.41 307.64,-295.96 263.22,-275.58"/>
<polygon fill="midnightblue" stroke="midnightblue" points="528.85,-390.37 539.45,-390.48 531.23,-383.79 528.85,-390.37"/>
</g>
<!-- Node13&#45;&gt;Node16 -->
<g id="edge31" class="edge">
<title>Node13&#45;&gt;Node16</title>
<path fill="none" stroke="midnightblue" d="M541.59,-385.73C524.4,-376.84 505.74,-365.99 490,-354 459.39,-330.7 429.84,-297.03 412.54,-275.84"/>
<polygon fill="midnightblue" stroke="midnightblue" points="540.46,-389.08 550.96,-390.47 543.61,-382.83 540.46,-389.08"/>
</g>
<!-- Node13&#45;&gt;Node17 -->
<g id="edge32" class="edge">
<title>Node13&#45;&gt;Node17</title>
<path fill="none" stroke="midnightblue" d="M556.89,-384.02C546.42,-375.44 535.81,-365.19 528,-354 495.58,-307.54 523.03,-275.99 485,-234 470.46,-217.95 450.35,-206.08 430.85,-197.51"/>
<polygon fill="midnightblue" stroke="midnightblue" points="554.79,-386.83 564.82,-390.25 559.11,-381.32 554.79,-386.83"/>
</g>
<!-- Node14&#45;&gt;Node3 -->
<g id="edge22" class="edge">
<title>Node14&#45;&gt;Node3</title>
<path fill="none" stroke="midnightblue" d="M692.87,-307.49C711.39,-297.13 732.66,-285.25 750.1,-275.51"/>
<polygon fill="midnightblue" stroke="midnightblue" points="691.05,-304.49 684.02,-312.43 694.46,-310.61 691.05,-304.49"/>
</g>
<!-- Node14&#45;&gt;Node4 -->
<g id="edge28" class="edge">
<title>Node14&#45;&gt;Node4</title>
<path fill="none" stroke="midnightblue" d="M635.94,-303.39C625.94,-283.02 611.01,-255.55 594,-234 579.38,-215.49 564.46,-219.61 555,-198 547.51,-180.9 542.61,-169.96 555,-156 580.25,-127.54 816.26,-110.84 942.76,-103.86"/>
<polygon fill="midnightblue" stroke="midnightblue" points="632.82,-304.98 640.3,-312.48 639.13,-301.95 632.82,-304.98"/>
</g>
<!-- Node14&#45;&gt;Node7 -->
<g id="edge20" class="edge">
<title>Node14&#45;&gt;Node7</title>
<path fill="none" stroke="midnightblue" d="M737.95,-310.54C783.51,-299.55 838.59,-286.26 882.97,-275.55"/>
<polygon fill="midnightblue" stroke="midnightblue" points="736.98,-307.17 728.08,-312.92 738.62,-313.98 736.98,-307.17"/>
</g>
<!-- Node14&#45;&gt;Node13 -->
<g id="edge21" class="edge">
<title>Node14&#45;&gt;Node13</title>
<path fill="none" stroke="midnightblue" d="M635.53,-362.17C629.25,-371.57 621.78,-381.83 614.89,-390.43"/>
<polygon fill="midnightblue" stroke="midnightblue" points="638.64,-363.81 641.12,-353.51 632.76,-360.01 638.64,-363.81"/>
</g>
<!-- Node14&#45;&gt;Node15 -->
<g id="edge23" class="edge">
<title>Node14&#45;&gt;Node15</title>
<path fill="none" stroke="midnightblue" d="M559.82,-318.82C491.09,-308.29 393.77,-292.6 309,-276 306.08,-275.43 303.11,-274.83 300.11,-274.22"/>
<polygon fill="midnightblue" stroke="midnightblue" points="559.34,-322.28 569.75,-320.33 560.39,-315.36 559.34,-322.28"/>
</g>
<!-- Node14&#45;&gt;Node16 -->
<g id="edge24" class="edge">
<title>Node14&#45;&gt;Node16</title>
<path fill="none" stroke="midnightblue" d="M574.2,-309.44C538.44,-298.66 496.03,-285.87 461.68,-275.51"/>
<polygon fill="midnightblue" stroke="midnightblue" points="573.52,-312.89 584.1,-312.43 575.54,-306.19 573.52,-312.89"/>
</g>
<!-- Node14&#45;&gt;Node17 -->
<g id="edge27" class="edge">
<title>Node14&#45;&gt;Node17</title>
<path fill="none" stroke="midnightblue" d="M618.89,-305.51C593.39,-284.07 555.14,-254.23 518,-234 490.99,-219.29 459.31,-206.88 431.97,-197.51"/>
<polygon fill="midnightblue" stroke="midnightblue" points="616.82,-308.34 626.71,-312.15 621.36,-303.01 616.82,-308.34"/>
</g>
<!-- Node16&#45;&gt;Node17 -->
<g id="edge25" class="edge">
<title>Node16&#45;&gt;Node17</title>
<path fill="none" stroke="midnightblue" d="M385.51,-224.88C381.89,-215.72 377.99,-205.83 374.7,-197.51"/>
<polygon fill="midnightblue" stroke="midnightblue" points="382.35,-226.41 389.27,-234.43 388.86,-223.84 382.35,-226.41"/>
</g>
<!-- Node17&#45;&gt;Node4 -->
<g id="edge26" class="edge">
<title>Node17&#45;&gt;Node4</title>
<path fill="none" stroke="midnightblue" d="M456.12,-156.62C457.42,-156.41 458.72,-156.2 460,-156 631.21,-129.15 833.91,-112.68 942.99,-105.06"/>
<polygon fill="midnightblue" stroke="midnightblue" points="455.29,-153.22 446.03,-158.37 456.49,-160.11 455.29,-153.22"/>
</g>
<!-- Node18&#45;&gt;Node5 -->
<g id="edge41" class="edge">
<title>Node18&#45;&gt;Node5</title>
<path fill="none" stroke="midnightblue" d="M1524.56,-380.74C1514.57,-350.07 1501,-300.28 1501,-256 1501,-256 1501,-256 1501,-176 1501,-125.16 1482.76,-108.39 1442,-78 1402.23,-48.35 1348.25,-34.34 1304.08,-27.75"/>
<polygon fill="midnightblue" stroke="midnightblue" points="1521.29,-382 1527.79,-390.37 1527.93,-379.78 1521.29,-382"/>
</g>
<!-- Node19&#45;&gt;Node3 -->
<g id="edge45" class="edge">
<title>Node19&#45;&gt;Node3</title>
<path fill="none" stroke="midnightblue" d="M872.35,-617.7C903.75,-589.73 946,-542.37 946,-490 946,-490 946,-490 946,-410 946,-345.6 877.9,-299.83 830.28,-275.69"/>
<polygon fill="midnightblue" stroke="midnightblue" points="869.9,-615.19 864.63,-624.39 874.48,-620.49 869.9,-615.19"/>
</g>
<!-- Node19&#45;&gt;Node6 -->
<g id="edge46" class="edge">
<title>Node19&#45;&gt;Node6</title>
<path fill="none" stroke="midnightblue" d="M913.8,-621.44C949.56,-610.66 991.97,-597.87 1026.32,-587.51"/>
<polygon fill="midnightblue" stroke="midnightblue" points="912.46,-618.19 903.9,-624.43 914.48,-624.89 912.46,-618.19"/>
</g>
</g>
</svg>
