<?xml version="1.0" encoding="UTF-8" standalone="no"?>
<!DOCTYPE svg PUBLIC "-//W3C//DTD SVG 1.1//EN"
 "http://www.w3.org/Graphics/SVG/1.1/DTD/svg11.dtd">
<!-- Generated by graphviz version 2.43.0 (0)
 -->
<!-- Title: /home/runner/work/Simulatio/Simulatio/engine/include/Geometry/Vertices.hpp Pages: 1 -->
<svg width="1694pt" height="674pt"
 viewBox="0.00 0.00 1694.23 674.00" xmlns="http://www.w3.org/2000/svg" xmlns:xlink="http://www.w3.org/1999/xlink">
<g id="graph0" class="graph" transform="scale(1 1) rotate(0) translate(4 670)">
<title>/home/runner/work/Simulatio/Simulatio/engine/include/Geometry/Vertices.hpp</title>
<!-- Node1 -->
<g id="node1" class="node">
<title>Node1</title>
<g id="a_node1"><a xlink:title=" ">
<polygon fill="#bfbfbf" stroke="black" points="738.23,-624.5 738.23,-665.5 896.23,-665.5 896.23,-624.5 738.23,-624.5"/>
<text text-anchor="start" x="746.23" y="-653.5" font-family="Helvetica,sans-Serif" font-size="10.00">/home/runner/work/Simulatio</text>
<text text-anchor="start" x="746.23" y="-642.5" font-family="Helvetica,sans-Serif" font-size="10.00">/Simulatio/engine/include</text>
<text text-anchor="middle" x="817.23" y="-631.5" font-family="Helvetica,sans-Serif" font-size="10.00">/Geometry/Vertices.hpp</text>
</a>
</g>
</g>
<!-- Node2 -->
<g id="node2" class="node">
<title>Node2</title>
<g id="a_node2"><a xlink:href="_collision_8hpp.html" target="_top" xlink:title=" ">
<polygon fill="none" stroke="black" points="629.23,-234.5 629.23,-275.5 787.23,-275.5 787.23,-234.5 629.23,-234.5"/>
<text text-anchor="start" x="637.23" y="-263.5" font-family="Helvetica,sans-Serif" font-size="10.00">/home/runner/work/Simulatio</text>
<text text-anchor="start" x="637.23" y="-252.5" font-family="Helvetica,sans-Serif" font-size="10.00">/Simulatio/engine/include</text>
<text text-anchor="middle" x="708.23" y="-241.5" font-family="Helvetica,sans-Serif" font-size="10.00">/Geometry/Collision.hpp</text>
</a>
</g>
</g>
<!-- Node1&#45;&gt;Node2 -->
<g id="edge1" class="edge">
<title>Node1&#45;&gt;Node2</title>
<path fill="none" stroke="midnightblue" d="M808.99,-614.69C787.78,-539.17 731.66,-339.42 713.78,-275.78"/>
<polygon fill="midnightblue" stroke="midnightblue" points="805.67,-615.81 811.75,-624.49 812.41,-613.92 805.67,-615.81"/>
</g>
<!-- Node6 -->
<g id="node6" class="node">
<title>Node6</title>
<g id="a_node6"><a xlink:href="_geometry_8hpp.html" target="_top" xlink:title=" ">
<polygon fill="none" stroke="black" points="567.23,-546.5 567.23,-587.5 725.23,-587.5 725.23,-546.5 567.23,-546.5"/>
<text text-anchor="start" x="575.23" y="-575.5" font-family="Helvetica,sans-Serif" font-size="10.00">/home/runner/work/Simulatio</text>
<text text-anchor="start" x="575.23" y="-564.5" font-family="Helvetica,sans-Serif" font-size="10.00">/Simulatio/engine/include</text>
<text text-anchor="middle" x="646.23" y="-553.5" font-family="Helvetica,sans-Serif" font-size="10.00">/Geometry/Geometry.hpp</text>
</a>
</g>
</g>
<!-- Node1&#45;&gt;Node6 -->
<g id="edge5" class="edge">
<title>Node1&#45;&gt;Node6</title>
<path fill="none" stroke="midnightblue" d="M763.97,-620.33C740.24,-609.78 712.63,-597.51 690.12,-587.51"/>
<polygon fill="midnightblue" stroke="midnightblue" points="762.63,-623.57 773.19,-624.43 765.48,-617.17 762.63,-623.57"/>
</g>
<!-- Node27 -->
<g id="node27" class="node">
<title>Node27</title>
<g id="a_node27"><a xlink:href="_vertices_8cpp.html" target="_top" xlink:title=" ">
<polygon fill="none" stroke="black" points="845.73,-546.5 845.73,-587.5 1016.73,-587.5 1016.73,-546.5 845.73,-546.5"/>
<text text-anchor="start" x="853.73" y="-575.5" font-family="Helvetica,sans-Serif" font-size="10.00">/home/runner/work/Simulatio</text>
<text text-anchor="start" x="853.73" y="-564.5" font-family="Helvetica,sans-Serif" font-size="10.00">/Simulatio/engine/src/Geometry</text>
<text text-anchor="middle" x="931.23" y="-553.5" font-family="Helvetica,sans-Serif" font-size="10.00">/Vertices.cpp</text>
</a>
</g>
</g>
<!-- Node1&#45;&gt;Node27 -->
<g id="edge48" class="edge">
<title>Node1&#45;&gt;Node27</title>
<path fill="none" stroke="midnightblue" d="M855.28,-618.64C870.5,-608.49 887.76,-596.98 901.97,-587.51"/>
<polygon fill="midnightblue" stroke="midnightblue" points="852.97,-615.97 846.59,-624.43 856.85,-621.79 852.97,-615.97"/>
</g>
<!-- Node3 -->
<g id="node3" class="node">
<title>Node3</title>
<g id="a_node3"><a xlink:href="_system_8hpp.html" target="_top" xlink:title=" ">
<polygon fill="none" stroke="black" points="495.23,-78.5 495.23,-119.5 653.23,-119.5 653.23,-78.5 495.23,-78.5"/>
<text text-anchor="start" x="503.23" y="-107.5" font-family="Helvetica,sans-Serif" font-size="10.00">/home/runner/work/Simulatio</text>
<text text-anchor="start" x="503.23" y="-96.5" font-family="Helvetica,sans-Serif" font-size="10.00">/Simulatio/engine/include</text>
<text text-anchor="middle" x="574.23" y="-85.5" font-family="Helvetica,sans-Serif" font-size="10.00">/Structures/System.hpp</text>
</a>
</g>
</g>
<!-- Node2&#45;&gt;Node3 -->
<g id="edge2" class="edge">
<title>Node2&#45;&gt;Node3</title>
<path fill="none" stroke="midnightblue" d="M709.18,-224.24C708.37,-203.21 704.12,-175.41 689.23,-156 676.79,-139.79 658.44,-128 640.03,-119.55"/>
<polygon fill="midnightblue" stroke="midnightblue" points="705.68,-224.31 709.33,-234.25 712.68,-224.2 705.68,-224.31"/>
</g>
<!-- Node5 -->
<g id="node5" class="node">
<title>Node5</title>
<g id="a_node5"><a xlink:href="_collision_8cpp.html" target="_top" xlink:title=" ">
<polygon fill="none" stroke="black" points="508.73,-156.5 508.73,-197.5 679.73,-197.5 679.73,-156.5 508.73,-156.5"/>
<text text-anchor="start" x="516.73" y="-185.5" font-family="Helvetica,sans-Serif" font-size="10.00">/home/runner/work/Simulatio</text>
<text text-anchor="start" x="516.73" y="-174.5" font-family="Helvetica,sans-Serif" font-size="10.00">/Simulatio/engine/src/Geometry</text>
<text text-anchor="middle" x="594.23" y="-163.5" font-family="Helvetica,sans-Serif" font-size="10.00">/Collision.cpp</text>
</a>
</g>
</g>
<!-- Node2&#45;&gt;Node5 -->
<g id="edge4" class="edge">
<title>Node2&#45;&gt;Node5</title>
<path fill="none" stroke="midnightblue" d="M670.18,-228.64C654.96,-218.49 637.7,-206.98 623.49,-197.51"/>
<polygon fill="midnightblue" stroke="midnightblue" points="668.61,-231.79 678.87,-234.43 672.49,-225.97 668.61,-231.79"/>
</g>
<!-- Node4 -->
<g id="node4" class="node">
<title>Node4</title>
<g id="a_node4"><a xlink:href="_system_8cpp.html" target="_top" xlink:title=" ">
<polygon fill="none" stroke="black" points="488.23,-0.5 488.23,-41.5 660.23,-41.5 660.23,-0.5 488.23,-0.5"/>
<text text-anchor="start" x="496.23" y="-29.5" font-family="Helvetica,sans-Serif" font-size="10.00">/home/runner/work/Simulatio</text>
<text text-anchor="start" x="496.23" y="-18.5" font-family="Helvetica,sans-Serif" font-size="10.00">/Simulatio/engine/src/Structures</text>
<text text-anchor="middle" x="574.23" y="-7.5" font-family="Helvetica,sans-Serif" font-size="10.00">/System.cpp</text>
</a>
</g>
</g>
<!-- Node3&#45;&gt;Node4 -->
<g id="edge3" class="edge">
<title>Node3&#45;&gt;Node4</title>
<path fill="none" stroke="midnightblue" d="M574.23,-68.3C574.23,-59.3 574.23,-49.65 574.23,-41.51"/>
<polygon fill="midnightblue" stroke="midnightblue" points="570.73,-68.43 574.23,-78.43 577.73,-68.43 570.73,-68.43"/>
</g>
<!-- Node6&#45;&gt;Node3 -->
<g id="edge46" class="edge">
<title>Node6&#45;&gt;Node3</title>
<path fill="none" stroke="midnightblue" d="M556.92,-563.23C379.64,-555.29 0.23,-525.1 0.23,-412 0.23,-412 0.23,-412 0.23,-254 0.23,-208.18 -3.43,-184.78 32.23,-156 67.47,-127.56 353.28,-110.33 495.06,-103.46"/>
<polygon fill="midnightblue" stroke="midnightblue" points="556.87,-566.73 567.02,-563.67 557.18,-559.74 556.87,-566.73"/>
</g>
<!-- Node7 -->
<g id="node7" class="node">
<title>Node7</title>
<g id="a_node7"><a xlink:href="_constraint_8hpp.html" target="_top" xlink:title=" ">
<polygon fill="none" stroke="black" points="805.23,-234.5 805.23,-275.5 963.23,-275.5 963.23,-234.5 805.23,-234.5"/>
<text text-anchor="start" x="813.23" y="-263.5" font-family="Helvetica,sans-Serif" font-size="10.00">/home/runner/work/Simulatio</text>
<text text-anchor="start" x="813.23" y="-252.5" font-family="Helvetica,sans-Serif" font-size="10.00">/Simulatio/engine/include</text>
<text text-anchor="middle" x="884.23" y="-241.5" font-family="Helvetica,sans-Serif" font-size="10.00">/Constraints/Constraint.hpp</text>
</a>
</g>
</g>
<!-- Node6&#45;&gt;Node7 -->
<g id="edge6" class="edge">
<title>Node6&#45;&gt;Node7</title>
<path fill="none" stroke="midnightblue" d="M699.32,-541.26C714.03,-532.75 729.24,-522.23 741.23,-510 812.61,-437.18 860.22,-321.63 877.25,-275.73"/>
<polygon fill="midnightblue" stroke="midnightblue" points="697.3,-538.38 690.26,-546.3 700.7,-544.5 697.3,-538.38"/>
</g>
<!-- Node17 -->
<g id="node17" class="node">
<title>Node17</title>
<g id="a_node17"><a xlink:href="_corpse_8hpp.html" target="_top" xlink:title=" ">
<polygon fill="none" stroke="black" points="365.23,-468.5 365.23,-509.5 523.23,-509.5 523.23,-468.5 365.23,-468.5"/>
<text text-anchor="start" x="373.23" y="-497.5" font-family="Helvetica,sans-Serif" font-size="10.00">/home/runner/work/Simulatio</text>
<text text-anchor="start" x="373.23" y="-486.5" font-family="Helvetica,sans-Serif" font-size="10.00">/Simulatio/engine/include</text>
<text text-anchor="middle" x="444.23" y="-475.5" font-family="Helvetica,sans-Serif" font-size="10.00">/Corpses/Corpse.hpp</text>
</a>
</g>
</g>
<!-- Node6&#45;&gt;Node17 -->
<g id="edge20" class="edge">
<title>Node6&#45;&gt;Node17</title>
<path fill="none" stroke="midnightblue" d="M584.8,-542.89C556.44,-532.22 523.14,-519.69 496.07,-509.51"/>
<polygon fill="midnightblue" stroke="midnightblue" points="583.62,-546.18 594.21,-546.43 586.08,-539.63 583.62,-546.18"/>
</g>
<!-- Node26 -->
<g id="node26" class="node">
<title>Node26</title>
<g id="a_node26"><a xlink:href="_geometry_8cpp.html" target="_top" xlink:title=" ">
<polygon fill="none" stroke="black" points="560.73,-468.5 560.73,-509.5 731.73,-509.5 731.73,-468.5 560.73,-468.5"/>
<text text-anchor="start" x="568.73" y="-497.5" font-family="Helvetica,sans-Serif" font-size="10.00">/home/runner/work/Simulatio</text>
<text text-anchor="start" x="568.73" y="-486.5" font-family="Helvetica,sans-Serif" font-size="10.00">/Simulatio/engine/src/Geometry</text>
<text text-anchor="middle" x="646.23" y="-475.5" font-family="Helvetica,sans-Serif" font-size="10.00">/Geometry.cpp</text>
</a>
</g>
</g>
<!-- Node6&#45;&gt;Node26 -->
<g id="edge47" class="edge">
<title>Node6&#45;&gt;Node26</title>
<path fill="none" stroke="midnightblue" d="M646.23,-536.3C646.23,-527.3 646.23,-517.65 646.23,-509.51"/>
<polygon fill="midnightblue" stroke="midnightblue" points="642.73,-536.43 646.23,-546.43 649.73,-536.43 642.73,-536.43"/>
</g>
<!-- Node7&#45;&gt;Node3 -->
<g id="edge18" class="edge">
<title>Node7&#45;&gt;Node3</title>
<path fill="none" stroke="midnightblue" d="M827.02,-230.18C806.97,-221.04 784.63,-209.91 765.23,-198 739.31,-182.1 737.55,-171.23 711.23,-156 686.32,-141.59 656.98,-129.07 631.86,-119.54"/>
<polygon fill="midnightblue" stroke="midnightblue" points="825.8,-233.47 836.35,-234.38 828.66,-227.09 825.8,-233.47"/>
</g>
<!-- Node8 -->
<g id="node8" class="node">
<title>Node8</title>
<g id="a_node8"><a xlink:href="_link_8hpp.html" target="_top" xlink:title=" ">
<polygon fill="none" stroke="black" points="774.23,-156.5 774.23,-197.5 932.23,-197.5 932.23,-156.5 774.23,-156.5"/>
<text text-anchor="start" x="782.23" y="-185.5" font-family="Helvetica,sans-Serif" font-size="10.00">/home/runner/work/Simulatio</text>
<text text-anchor="start" x="782.23" y="-174.5" font-family="Helvetica,sans-Serif" font-size="10.00">/Simulatio/engine/include</text>
<text text-anchor="middle" x="853.23" y="-163.5" font-family="Helvetica,sans-Serif" font-size="10.00">/Constraints/Link.hpp</text>
</a>
</g>
</g>
<!-- Node7&#45;&gt;Node8 -->
<g id="edge7" class="edge">
<title>Node7&#45;&gt;Node8</title>
<path fill="none" stroke="midnightblue" d="M872.35,-224.88C868.61,-215.72 864.58,-205.83 861.18,-197.51"/>
<polygon fill="midnightblue" stroke="midnightblue" points="869.23,-226.49 876.25,-234.43 875.71,-223.85 869.23,-226.49"/>
</g>
<!-- Node10 -->
<g id="node10" class="node">
<title>Node10</title>
<g id="a_node10"><a xlink:href="_loose_8hpp.html" target="_top" xlink:title=" ">
<polygon fill="none" stroke="black" points="1508.23,-156.5 1508.23,-197.5 1666.23,-197.5 1666.23,-156.5 1508.23,-156.5"/>
<text text-anchor="start" x="1516.23" y="-185.5" font-family="Helvetica,sans-Serif" font-size="10.00">/home/runner/work/Simulatio</text>
<text text-anchor="start" x="1516.23" y="-174.5" font-family="Helvetica,sans-Serif" font-size="10.00">/Simulatio/engine/include</text>
<text text-anchor="middle" x="1587.23" y="-163.5" font-family="Helvetica,sans-Serif" font-size="10.00">/Constraints/Loose.hpp</text>
</a>
</g>
</g>
<!-- Node7&#45;&gt;Node10 -->
<g id="edge10" class="edge">
<title>Node7&#45;&gt;Node10</title>
<path fill="none" stroke="midnightblue" d="M973.45,-248.79C1091.79,-241.19 1306.97,-224.95 1489.23,-198 1495.41,-197.09 1501.8,-196.03 1508.2,-194.9"/>
<polygon fill="midnightblue" stroke="midnightblue" points="973.11,-245.31 963.35,-249.44 973.56,-252.29 973.11,-245.31"/>
</g>
<!-- Node12 -->
<g id="node12" class="node">
<title>Node12</title>
<g id="a_node12"><a xlink:href="_slider_8hpp.html" target="_top" xlink:title=" ">
<polygon fill="none" stroke="black" points="1146.23,-156.5 1146.23,-197.5 1304.23,-197.5 1304.23,-156.5 1146.23,-156.5"/>
<text text-anchor="start" x="1154.23" y="-185.5" font-family="Helvetica,sans-Serif" font-size="10.00">/home/runner/work/Simulatio</text>
<text text-anchor="start" x="1154.23" y="-174.5" font-family="Helvetica,sans-Serif" font-size="10.00">/Simulatio/engine/include</text>
<text text-anchor="middle" x="1225.23" y="-163.5" font-family="Helvetica,sans-Serif" font-size="10.00">/Constraints/Slider.hpp</text>
</a>
</g>
</g>
<!-- Node7&#45;&gt;Node12 -->
<g id="edge12" class="edge">
<title>Node7&#45;&gt;Node12</title>
<path fill="none" stroke="midnightblue" d="M973.29,-234.42C1021.78,-223.72 1082.81,-210.21 1137.23,-198 1140.13,-197.35 1143.09,-196.68 1146.08,-196.01"/>
<polygon fill="midnightblue" stroke="midnightblue" points="972.46,-231.01 963.45,-236.58 973.97,-237.85 972.46,-231.01"/>
</g>
<!-- Node14 -->
<g id="node14" class="node">
<title>Node14</title>
<g id="a_node14"><a xlink:href="_spring_8hpp.html" target="_top" xlink:title=" ">
<polygon fill="none" stroke="black" points="1322.23,-156.5 1322.23,-197.5 1480.23,-197.5 1480.23,-156.5 1322.23,-156.5"/>
<text text-anchor="start" x="1330.23" y="-185.5" font-family="Helvetica,sans-Serif" font-size="10.00">/home/runner/work/Simulatio</text>
<text text-anchor="start" x="1330.23" y="-174.5" font-family="Helvetica,sans-Serif" font-size="10.00">/Simulatio/engine/include</text>
<text text-anchor="middle" x="1401.23" y="-163.5" font-family="Helvetica,sans-Serif" font-size="10.00">/Constraints/Spring.hpp</text>
</a>
</g>
</g>
<!-- Node7&#45;&gt;Node14 -->
<g id="edge15" class="edge">
<title>Node7&#45;&gt;Node14</title>
<path fill="none" stroke="midnightblue" d="M973.35,-244.83C1060.38,-235.3 1196.4,-218.85 1313.23,-198 1316.16,-197.48 1319.14,-196.92 1322.15,-196.34"/>
<polygon fill="midnightblue" stroke="midnightblue" points="972.81,-241.37 963.24,-245.93 973.56,-248.33 972.81,-241.37"/>
</g>
<!-- Node16 -->
<g id="node16" class="node">
<title>Node16</title>
<g id="a_node16"><a xlink:href="_constraint_8cpp.html" target="_top" xlink:title=" ">
<polygon fill="none" stroke="black" points="950.23,-156.5 950.23,-197.5 1128.23,-197.5 1128.23,-156.5 950.23,-156.5"/>
<text text-anchor="start" x="958.23" y="-185.5" font-family="Helvetica,sans-Serif" font-size="10.00">/home/runner/work/Simulatio</text>
<text text-anchor="start" x="958.23" y="-174.5" font-family="Helvetica,sans-Serif" font-size="10.00">/Simulatio/engine/src/Constraints</text>
<text text-anchor="middle" x="1039.23" y="-163.5" font-family="Helvetica,sans-Serif" font-size="10.00">/Constraint.cpp</text>
</a>
</g>
</g>
<!-- Node7&#45;&gt;Node16 -->
<g id="edge19" class="edge">
<title>Node7&#45;&gt;Node16</title>
<path fill="none" stroke="midnightblue" d="M933.36,-229.91C954.68,-219.46 979.31,-207.38 999.45,-197.51"/>
<polygon fill="midnightblue" stroke="midnightblue" points="931.58,-226.88 924.14,-234.43 934.66,-233.17 931.58,-226.88"/>
</g>
<!-- Node8&#45;&gt;Node3 -->
<g id="edge8" class="edge">
<title>Node8&#45;&gt;Node3</title>
<path fill="none" stroke="midnightblue" d="M771.68,-153.79C731.82,-142.93 684.28,-129.98 645.83,-119.51"/>
<polygon fill="midnightblue" stroke="midnightblue" points="770.81,-157.18 781.38,-156.43 772.65,-150.42 770.81,-157.18"/>
</g>
<!-- Node9 -->
<g id="node9" class="node">
<title>Node9</title>
<g id="a_node9"><a xlink:href="_link_8cpp.html" target="_top" xlink:title=" ">
<polygon fill="none" stroke="black" points="764.23,-78.5 764.23,-119.5 942.23,-119.5 942.23,-78.5 764.23,-78.5"/>
<text text-anchor="start" x="772.23" y="-107.5" font-family="Helvetica,sans-Serif" font-size="10.00">/home/runner/work/Simulatio</text>
<text text-anchor="start" x="772.23" y="-96.5" font-family="Helvetica,sans-Serif" font-size="10.00">/Simulatio/engine/src/Constraints</text>
<text text-anchor="middle" x="853.23" y="-85.5" font-family="Helvetica,sans-Serif" font-size="10.00">/Link.cpp</text>
</a>
</g>
</g>
<!-- Node8&#45;&gt;Node9 -->
<g id="edge9" class="edge">
<title>Node8&#45;&gt;Node9</title>
<path fill="none" stroke="midnightblue" d="M853.23,-146.3C853.23,-137.3 853.23,-127.65 853.23,-119.51"/>
<polygon fill="midnightblue" stroke="midnightblue" points="849.73,-146.43 853.23,-156.43 856.73,-146.43 849.73,-146.43"/>
</g>
<!-- Node11 -->
<g id="node11" class="node">
<title>Node11</title>
<g id="a_node11"><a xlink:href="_loose_8cpp.html" target="_top" xlink:title=" ">
<polygon fill="none" stroke="black" points="1508.23,-78.5 1508.23,-119.5 1686.23,-119.5 1686.23,-78.5 1508.23,-78.5"/>
<text text-anchor="start" x="1516.23" y="-107.5" font-family="Helvetica,sans-Serif" font-size="10.00">/home/runner/work/Simulatio</text>
<text text-anchor="start" x="1516.23" y="-96.5" font-family="Helvetica,sans-Serif" font-size="10.00">/Simulatio/engine/src/Constraints</text>
<text text-anchor="middle" x="1597.23" y="-85.5" font-family="Helvetica,sans-Serif" font-size="10.00">/Loose.cpp</text>
</a>
</g>
</g>
<!-- Node10&#45;&gt;Node11 -->
<g id="edge11" class="edge">
<title>Node10&#45;&gt;Node11</title>
<path fill="none" stroke="midnightblue" d="M1591.14,-146.3C1592.32,-137.3 1593.59,-127.65 1594.66,-119.51"/>
<polygon fill="midnightblue" stroke="midnightblue" points="1587.64,-146.06 1589.8,-156.43 1594.58,-146.97 1587.64,-146.06"/>
</g>
<!-- Node12&#45;&gt;Node3 -->
<g id="edge13" class="edge">
<title>Node12&#45;&gt;Node3</title>
<path fill="none" stroke="midnightblue" d="M1136.18,-155.94C967.12,-129.35 921.64,-137.03 755.23,-120 721.89,-116.59 685.13,-112.57 653.49,-109.04"/>
<polygon fill="midnightblue" stroke="midnightblue" points="1135.74,-159.41 1146.17,-157.52 1136.84,-152.5 1135.74,-159.41"/>
</g>
<!-- Node13 -->
<g id="node13" class="node">
<title>Node13</title>
<g id="a_node13"><a xlink:href="_slider_8cpp.html" target="_top" xlink:title=" ">
<polygon fill="none" stroke="black" points="1116.23,-78.5 1116.23,-119.5 1294.23,-119.5 1294.23,-78.5 1116.23,-78.5"/>
<text text-anchor="start" x="1124.23" y="-107.5" font-family="Helvetica,sans-Serif" font-size="10.00">/home/runner/work/Simulatio</text>
<text text-anchor="start" x="1124.23" y="-96.5" font-family="Helvetica,sans-Serif" font-size="10.00">/Simulatio/engine/src/Constraints</text>
<text text-anchor="middle" x="1205.23" y="-85.5" font-family="Helvetica,sans-Serif" font-size="10.00">/Slider.cpp</text>
</a>
</g>
</g>
<!-- Node12&#45;&gt;Node13 -->
<g id="edge14" class="edge">
<title>Node12&#45;&gt;Node13</title>
<path fill="none" stroke="midnightblue" d="M1217.49,-146.59C1215.1,-137.51 1212.53,-127.74 1210.36,-119.51"/>
<polygon fill="midnightblue" stroke="midnightblue" points="1214.15,-147.65 1220.08,-156.43 1220.92,-145.87 1214.15,-147.65"/>
</g>
<!-- Node14&#45;&gt;Node3 -->
<g id="edge16" class="edge">
<title>Node14&#45;&gt;Node3</title>
<path fill="none" stroke="midnightblue" d="M1312.2,-155.98C1065.55,-120.9 999.54,-141.37 755.23,-120 721.84,-117.08 685.07,-113.15 653.45,-109.55"/>
<polygon fill="midnightblue" stroke="midnightblue" points="1311.79,-159.45 1322.19,-157.41 1312.79,-152.52 1311.79,-159.45"/>
</g>
<!-- Node15 -->
<g id="node15" class="node">
<title>Node15</title>
<g id="a_node15"><a xlink:href="_spring_8cpp.html" target="_top" xlink:title=" ">
<polygon fill="none" stroke="black" points="1312.23,-78.5 1312.23,-119.5 1490.23,-119.5 1490.23,-78.5 1312.23,-78.5"/>
<text text-anchor="start" x="1320.23" y="-107.5" font-family="Helvetica,sans-Serif" font-size="10.00">/home/runner/work/Simulatio</text>
<text text-anchor="start" x="1320.23" y="-96.5" font-family="Helvetica,sans-Serif" font-size="10.00">/Simulatio/engine/src/Constraints</text>
<text text-anchor="middle" x="1401.23" y="-85.5" font-family="Helvetica,sans-Serif" font-size="10.00">/Spring.cpp</text>
</a>
</g>
</g>
<!-- Node14&#45;&gt;Node15 -->
<g id="edge17" class="edge">
<title>Node14&#45;&gt;Node15</title>
<path fill="none" stroke="midnightblue" d="M1401.23,-146.3C1401.23,-137.3 1401.23,-127.65 1401.23,-119.51"/>
<polygon fill="midnightblue" stroke="midnightblue" points="1397.73,-146.43 1401.23,-156.43 1404.73,-146.43 1397.73,-146.43"/>
</g>
<!-- Node17&#45;&gt;Node2 -->
<g id="edge41" class="edge">
<title>Node17&#45;&gt;Node2</title>
<path fill="none" stroke="midnightblue" d="M494.58,-463.86C512.32,-454.65 532.1,-443.57 549.23,-432 593.94,-401.81 606.14,-394.1 642.23,-354 664.6,-329.15 685.24,-296.21 697.28,-275.56"/>
<polygon fill="midnightblue" stroke="midnightblue" points="492.82,-460.82 485.51,-468.49 496.01,-467.05 492.82,-460.82"/>
</g>
<!-- Node17&#45;&gt;Node3 -->
<g id="edge44" class="edge">
<title>Node17&#45;&gt;Node3</title>
<path fill="none" stroke="midnightblue" d="M355.04,-479.09C274.49,-469.84 162.84,-453.69 124.23,-432 73.71,-403.62 38.23,-391.95 38.23,-334 38.23,-334 38.23,-334 38.23,-254 38.23,-209.63 24.57,-186.03 57.23,-156 88.79,-126.97 358.29,-110.18 495.15,-103.46"/>
<polygon fill="midnightblue" stroke="midnightblue" points="354.87,-482.59 365.2,-480.24 355.66,-475.64 354.87,-482.59"/>
</g>
<!-- Node17&#45;&gt;Node7 -->
<g id="edge21" class="edge">
<title>Node17&#45;&gt;Node7</title>
<path fill="none" stroke="midnightblue" d="M511.98,-465.04C537.27,-455.73 565.96,-444.28 591.23,-432 692.36,-382.84 804.32,-310.02 855.66,-275.51"/>
<polygon fill="midnightblue" stroke="midnightblue" points="510.67,-461.79 502.47,-468.5 513.06,-468.37 510.67,-461.79"/>
</g>
<!-- Node18 -->
<g id="node18" class="node">
<title>Node18</title>
<g id="a_node18"><a xlink:href="_circle_8hpp.html" target="_top" xlink:title=" ">
<polygon fill="none" stroke="black" points="365.23,-390.5 365.23,-431.5 523.23,-431.5 523.23,-390.5 365.23,-390.5"/>
<text text-anchor="start" x="373.23" y="-419.5" font-family="Helvetica,sans-Serif" font-size="10.00">/home/runner/work/Simulatio</text>
<text text-anchor="start" x="373.23" y="-408.5" font-family="Helvetica,sans-Serif" font-size="10.00">/Simulatio/engine/include</text>
<text text-anchor="middle" x="444.23" y="-397.5" font-family="Helvetica,sans-Serif" font-size="10.00">/Corpses/Circle.hpp</text>
</a>
</g>
</g>
<!-- Node17&#45;&gt;Node18 -->
<g id="edge22" class="edge">
<title>Node17&#45;&gt;Node18</title>
<path fill="none" stroke="midnightblue" d="M444.23,-458.3C444.23,-449.3 444.23,-439.65 444.23,-431.51"/>
<polygon fill="midnightblue" stroke="midnightblue" points="440.73,-458.43 444.23,-468.43 447.73,-458.43 440.73,-458.43"/>
</g>
<!-- Node19 -->
<g id="node19" class="node">
<title>Node19</title>
<g id="a_node19"><a xlink:href="_polygon_8hpp.html" target="_top" xlink:title=" ">
<polygon fill="none" stroke="black" points="441.23,-312.5 441.23,-353.5 599.23,-353.5 599.23,-312.5 441.23,-312.5"/>
<text text-anchor="start" x="449.23" y="-341.5" font-family="Helvetica,sans-Serif" font-size="10.00">/home/runner/work/Simulatio</text>
<text text-anchor="start" x="449.23" y="-330.5" font-family="Helvetica,sans-Serif" font-size="10.00">/Simulatio/engine/include</text>
<text text-anchor="middle" x="520.23" y="-319.5" font-family="Helvetica,sans-Serif" font-size="10.00">/Corpses/Polygon.hpp</text>
</a>
</g>
</g>
<!-- Node17&#45;&gt;Node19 -->
<g id="edge40" class="edge">
<title>Node17&#45;&gt;Node19</title>
<path fill="none" stroke="midnightblue" d="M501.73,-463.13C513.93,-455.04 525.22,-444.77 532.23,-432 545.67,-407.51 537.13,-374.47 529.15,-353.71"/>
<polygon fill="midnightblue" stroke="midnightblue" points="499.88,-460.16 493.19,-468.38 503.54,-466.12 499.88,-460.16"/>
</g>
<!-- Node20 -->
<g id="node20" class="node">
<title>Node20</title>
<g id="a_node20"><a xlink:href="_quad_node_8hpp.html" target="_top" xlink:title=" ">
<polygon fill="none" stroke="black" points="159.23,-234.5 159.23,-275.5 317.23,-275.5 317.23,-234.5 159.23,-234.5"/>
<text text-anchor="start" x="167.23" y="-263.5" font-family="Helvetica,sans-Serif" font-size="10.00">/home/runner/work/Simulatio</text>
<text text-anchor="start" x="167.23" y="-252.5" font-family="Helvetica,sans-Serif" font-size="10.00">/Simulatio/engine/include</text>
<text text-anchor="middle" x="238.23" y="-241.5" font-family="Helvetica,sans-Serif" font-size="10.00">/Structures/QuadNode.hpp</text>
</a>
</g>
</g>
<!-- Node17&#45;&gt;Node20 -->
<g id="edge42" class="edge">
<title>Node17&#45;&gt;Node20</title>
<path fill="none" stroke="midnightblue" d="M355.17,-481.29C286.16,-474.02 198.62,-459.56 176.23,-432 142.59,-390.61 154.57,-360.74 176.23,-312 182.71,-297.42 195.06,-285.03 207.05,-275.64"/>
<polygon fill="midnightblue" stroke="midnightblue" points="354.91,-484.78 365.21,-482.31 355.62,-477.82 354.91,-484.78"/>
</g>
<!-- Node21 -->
<g id="node21" class="node">
<title>Node21</title>
<g id="a_node21"><a xlink:href="_quadtree_8hpp.html" target="_top" xlink:title=" ">
<polygon fill="none" stroke="black" points="66.23,-156.5 66.23,-197.5 224.23,-197.5 224.23,-156.5 66.23,-156.5"/>
<text text-anchor="start" x="74.23" y="-185.5" font-family="Helvetica,sans-Serif" font-size="10.00">/home/runner/work/Simulatio</text>
<text text-anchor="start" x="74.23" y="-174.5" font-family="Helvetica,sans-Serif" font-size="10.00">/Simulatio/engine/include</text>
<text text-anchor="middle" x="145.23" y="-163.5" font-family="Helvetica,sans-Serif" font-size="10.00">/Structures/Quadtree.hpp</text>
</a>
</g>
</g>
<!-- Node17&#45;&gt;Node21 -->
<g id="edge43" class="edge">
<title>Node17&#45;&gt;Node21</title>
<path fill="none" stroke="midnightblue" d="M355.05,-482.34C279.47,-475.56 179.19,-461.23 152.23,-432 91.52,-366.17 122.69,-245.03 138.2,-197.69"/>
<polygon fill="midnightblue" stroke="midnightblue" points="354.81,-485.83 365.08,-483.21 355.42,-478.86 354.81,-485.83"/>
</g>
<!-- Node25 -->
<g id="node25" class="node">
<title>Node25</title>
<g id="a_node25"><a xlink:href="_corpse_8cpp.html" target="_top" xlink:title=" ">
<polygon fill="none" stroke="black" points="185.73,-390.5 185.73,-431.5 346.73,-431.5 346.73,-390.5 185.73,-390.5"/>
<text text-anchor="start" x="193.73" y="-419.5" font-family="Helvetica,sans-Serif" font-size="10.00">/home/runner/work/Simulatio</text>
<text text-anchor="start" x="193.73" y="-408.5" font-family="Helvetica,sans-Serif" font-size="10.00">/Simulatio/engine/src/Corpses</text>
<text text-anchor="middle" x="266.23" y="-397.5" font-family="Helvetica,sans-Serif" font-size="10.00">/Corpse.cpp</text>
</a>
</g>
</g>
<!-- Node17&#45;&gt;Node25 -->
<g id="edge45" class="edge">
<title>Node17&#45;&gt;Node25</title>
<path fill="none" stroke="midnightblue" d="M389.12,-464.47C364.34,-453.89 335.45,-441.56 311.91,-431.51"/>
<polygon fill="midnightblue" stroke="midnightblue" points="387.82,-467.72 398.39,-468.43 390.57,-461.28 387.82,-467.72"/>
</g>
<!-- Node18&#45;&gt;Node2 -->
<g id="edge35" class="edge">
<title>Node18&#45;&gt;Node2</title>
<path fill="none" stroke="midnightblue" d="M532.97,-387.69C558.33,-379.23 585.29,-368.13 608.23,-354 608.82,-353.64 659.11,-304.26 688.14,-275.74"/>
<polygon fill="midnightblue" stroke="midnightblue" points="531.77,-384.4 523.34,-390.8 533.93,-391.06 531.77,-384.4"/>
</g>
<!-- Node18&#45;&gt;Node3 -->
<g id="edge38" class="edge">
<title>Node18&#45;&gt;Node3</title>
<path fill="none" stroke="midnightblue" d="M426.86,-381.6C407.43,-345.91 381.35,-283.37 403.23,-234 427.52,-179.17 487.6,-140.76 529.64,-119.52"/>
<polygon fill="midnightblue" stroke="midnightblue" points="423.92,-383.5 431.87,-390.49 430.01,-380.06 423.92,-383.5"/>
</g>
<!-- Node18&#45;&gt;Node7 -->
<g id="edge23" class="edge">
<title>Node18&#45;&gt;Node7</title>
<path fill="none" stroke="midnightblue" d="M533.41,-388.5C567.87,-379.23 607.33,-367.43 642.23,-354 681.56,-338.87 688.43,-328.44 727.23,-312 758.8,-298.62 794.79,-285.63 824.33,-275.53"/>
<polygon fill="midnightblue" stroke="midnightblue" points="532.13,-385.22 523.36,-391.17 533.93,-391.99 532.13,-385.22"/>
</g>
<!-- Node18&#45;&gt;Node19 -->
<g id="edge24" class="edge">
<title>Node18&#45;&gt;Node19</title>
<path fill="none" stroke="midnightblue" d="M464.82,-382.92C474.07,-373.2 484.99,-362.45 494.74,-353.51"/>
<polygon fill="midnightblue" stroke="midnightblue" points="462.07,-380.73 457.81,-390.43 467.19,-385.5 462.07,-380.73"/>
</g>
<!-- Node18&#45;&gt;Node20 -->
<g id="edge36" class="edge">
<title>Node18&#45;&gt;Node20</title>
<path fill="none" stroke="midnightblue" d="M421.74,-382.62C400.8,-357.56 370.7,-322.8 356.23,-312 336.42,-297.22 312.09,-284.87 290.67,-275.57"/>
<polygon fill="midnightblue" stroke="midnightblue" points="419.1,-384.92 428.19,-390.37 424.49,-380.44 419.1,-384.92"/>
</g>
<!-- Node18&#45;&gt;Node21 -->
<g id="edge37" class="edge">
<title>Node18&#45;&gt;Node21</title>
<path fill="none" stroke="midnightblue" d="M354.93,-389.93C273.36,-375.56 235,-405.88 176.23,-354 131.34,-314.37 136.51,-234.46 141.78,-197.53"/>
<polygon fill="midnightblue" stroke="midnightblue" points="354.61,-393.43 365.1,-391.91 355.95,-386.56 354.61,-393.43"/>
</g>
<!-- Node24 -->
<g id="node24" class="node">
<title>Node24</title>
<g id="a_node24"><a xlink:href="_circle_8cpp.html" target="_top" xlink:title=" ">
<polygon fill="none" stroke="black" points="185.73,-312.5 185.73,-353.5 346.73,-353.5 346.73,-312.5 185.73,-312.5"/>
<text text-anchor="start" x="193.73" y="-341.5" font-family="Helvetica,sans-Serif" font-size="10.00">/home/runner/work/Simulatio</text>
<text text-anchor="start" x="193.73" y="-330.5" font-family="Helvetica,sans-Serif" font-size="10.00">/Simulatio/engine/src/Corpses</text>
<text text-anchor="middle" x="266.23" y="-319.5" font-family="Helvetica,sans-Serif" font-size="10.00">/Circle.cpp</text>
</a>
</g>
</g>
<!-- Node18&#45;&gt;Node24 -->
<g id="edge39" class="edge">
<title>Node18&#45;&gt;Node24</title>
<path fill="none" stroke="midnightblue" d="M389.12,-386.47C364.34,-375.89 335.45,-363.56 311.91,-353.51"/>
<polygon fill="midnightblue" stroke="midnightblue" points="387.82,-389.72 398.39,-390.43 390.57,-383.28 387.82,-389.72"/>
</g>
<!-- Node19&#45;&gt;Node2 -->
<g id="edge27" class="edge">
<title>Node19&#45;&gt;Node2</title>
<path fill="none" stroke="midnightblue" d="M578.09,-308.61C604.33,-298 635,-285.6 659.98,-275.51"/>
<polygon fill="midnightblue" stroke="midnightblue" points="576.6,-305.44 568.64,-312.43 579.23,-311.93 576.6,-305.44"/>
</g>
<!-- Node19&#45;&gt;Node3 -->
<g id="edge33" class="edge">
<title>Node19&#45;&gt;Node3</title>
<path fill="none" stroke="midnightblue" d="M559.26,-305.78C568.52,-297.45 577.17,-287.39 582.23,-276 589.81,-258.94 592.44,-249.63 582.23,-234 560.46,-200.68 521.99,-231.32 500.23,-198 490.02,-182.37 491.92,-172.71 500.23,-156 507.76,-140.85 521.56,-128.71 535.23,-119.66"/>
<polygon fill="midnightblue" stroke="midnightblue" points="556.82,-303.25 551.4,-312.36 561.32,-308.62 556.82,-303.25"/>
</g>
<!-- Node19&#45;&gt;Node7 -->
<g id="edge25" class="edge">
<title>Node19&#45;&gt;Node7</title>
<path fill="none" stroke="midnightblue" d="M609.35,-314.46C663.47,-303.68 733.9,-289.4 796.23,-276 799.14,-275.37 802.1,-274.73 805.09,-274.08"/>
<polygon fill="midnightblue" stroke="midnightblue" points="608.57,-311.05 599.45,-316.44 609.94,-317.92 608.57,-311.05"/>
</g>
<!-- Node19&#45;&gt;Node18 -->
<g id="edge26" class="edge">
<title>Node19&#45;&gt;Node18</title>
<path fill="none" stroke="midnightblue" d="M499.71,-361.01C490.47,-370.72 479.55,-381.47 469.79,-390.43"/>
<polygon fill="midnightblue" stroke="midnightblue" points="502.45,-363.21 506.71,-353.51 497.33,-358.43 502.45,-363.21"/>
</g>
<!-- Node19&#45;&gt;Node20 -->
<g id="edge28" class="edge">
<title>Node19&#45;&gt;Node20</title>
<path fill="none" stroke="midnightblue" d="M437.81,-309.79C397.52,-298.93 349.46,-285.98 310.6,-275.51"/>
<polygon fill="midnightblue" stroke="midnightblue" points="437.04,-313.21 447.61,-312.43 438.86,-306.45 437.04,-313.21"/>
</g>
<!-- Node19&#45;&gt;Node21 -->
<g id="edge32" class="edge">
<title>Node19&#45;&gt;Node21</title>
<path fill="none" stroke="midnightblue" d="M468.82,-308.11C448.29,-298.39 424.53,-286.9 403.23,-276 368.52,-258.25 362.14,-249.17 326.23,-234 292.29,-219.66 253.41,-207.15 220.4,-197.61"/>
<polygon fill="midnightblue" stroke="midnightblue" points="467.46,-311.34 478,-312.45 470.45,-305.01 467.46,-311.34"/>
</g>
<!-- Node23 -->
<g id="node23" class="node">
<title>Node23</title>
<g id="a_node23"><a xlink:href="_polygon_8cpp.html" target="_top" xlink:title=" ">
<polygon fill="none" stroke="black" points="411.73,-234.5 411.73,-275.5 572.73,-275.5 572.73,-234.5 411.73,-234.5"/>
<text text-anchor="start" x="419.73" y="-263.5" font-family="Helvetica,sans-Serif" font-size="10.00">/home/runner/work/Simulatio</text>
<text text-anchor="start" x="419.73" y="-252.5" font-family="Helvetica,sans-Serif" font-size="10.00">/Simulatio/engine/src/Corpses</text>
<text text-anchor="middle" x="492.23" y="-241.5" font-family="Helvetica,sans-Serif" font-size="10.00">/Polygon.cpp</text>
</a>
</g>
</g>
<!-- Node19&#45;&gt;Node23 -->
<g id="edge34" class="edge">
<title>Node19&#45;&gt;Node23</title>
<path fill="none" stroke="midnightblue" d="M509.5,-302.88C506.13,-293.72 502.48,-283.83 499.41,-275.51"/>
<polygon fill="midnightblue" stroke="midnightblue" points="506.28,-304.25 513.02,-312.43 512.84,-301.83 506.28,-304.25"/>
</g>
<!-- Node20&#45;&gt;Node21 -->
<g id="edge29" class="edge">
<title>Node20&#45;&gt;Node21</title>
<path fill="none" stroke="midnightblue" d="M206.49,-228.06C194.25,-218.06 180.48,-206.8 169.1,-197.51"/>
<polygon fill="midnightblue" stroke="midnightblue" points="204.32,-230.81 214.28,-234.43 208.75,-225.39 204.32,-230.81"/>
</g>
<!-- Node22 -->
<g id="node22" class="node">
<title>Node22</title>
<g id="a_node22"><a xlink:href="_quad_node_8cpp.html" target="_top" xlink:title=" ">
<polygon fill="none" stroke="black" points="242.23,-156.5 242.23,-197.5 414.23,-197.5 414.23,-156.5 242.23,-156.5"/>
<text text-anchor="start" x="250.23" y="-185.5" font-family="Helvetica,sans-Serif" font-size="10.00">/home/runner/work/Simulatio</text>
<text text-anchor="start" x="250.23" y="-174.5" font-family="Helvetica,sans-Serif" font-size="10.00">/Simulatio/engine/src/Structures</text>
<text text-anchor="middle" x="328.23" y="-163.5" font-family="Helvetica,sans-Serif" font-size="10.00">/QuadNode.cpp</text>
</a>
</g>
</g>
<!-- Node20&#45;&gt;Node22 -->
<g id="edge31" class="edge">
<title>Node20&#45;&gt;Node22</title>
<path fill="none" stroke="midnightblue" d="M269.28,-227.78C281.05,-217.84 294.22,-206.72 305.13,-197.51"/>
<polygon fill="midnightblue" stroke="midnightblue" points="266.79,-225.3 261.41,-234.43 271.3,-230.65 266.79,-225.3"/>
</g>
<!-- Node21&#45;&gt;Node3 -->
<g id="edge30" class="edge">
<title>Node21&#45;&gt;Node3</title>
<path fill="none" stroke="midnightblue" d="M234.42,-155.82C329.6,-137.41 428.19,-121.73 495.09,-111.6"/>
<polygon fill="midnightblue" stroke="midnightblue" points="233.48,-152.44 224.33,-157.78 234.82,-159.31 233.48,-152.44"/>
</g>
</g>
</svg>
