<?xml version="1.0" encoding="UTF-8" standalone="no"?>
<!DOCTYPE svg PUBLIC "-//W3C//DTD SVG 1.1//EN"
 "http://www.w3.org/Graphics/SVG/1.1/DTD/svg11.dtd">
<!-- Generated by graphviz version 2.43.0 (0)
 -->
<!-- Title: /home/runner/work/Simulatio/Simulatio/include/Geometry/Vertices.hpp Pages: 1 -->
<svg width="2351pt" height="752pt"
 viewBox="0.00 0.00 2351.00 752.00" xmlns="http://www.w3.org/2000/svg" xmlns:xlink="http://www.w3.org/1999/xlink">
<g id="graph0" class="graph" transform="scale(1 1) rotate(0) translate(4 748)">
<title>/home/runner/work/Simulatio/Simulatio/include/Geometry/Vertices.hpp</title>
<!-- Node1 -->
<g id="node1" class="node">
<title>Node1</title>
<g id="a_node1"><a xlink:title=" ">
<polygon fill="#bfbfbf" stroke="black" points="1742.5,-702.5 1742.5,-743.5 1900.5,-743.5 1900.5,-702.5 1742.5,-702.5"/>
<text text-anchor="start" x="1750.5" y="-731.5" font-family="Helvetica,sans-Serif" font-size="10.00">/home/runner/work/Simulatio</text>
<text text-anchor="start" x="1750.5" y="-720.5" font-family="Helvetica,sans-Serif" font-size="10.00">/Simulatio/include/Geometry</text>
<text text-anchor="middle" x="1821.5" y="-709.5" font-family="Helvetica,sans-Serif" font-size="10.00">/Vertices.hpp</text>
</a>
</g>
</g>
<!-- Node2 -->
<g id="node2" class="node">
<title>Node2</title>
<g id="a_node2"><a xlink:href="_collision_8hpp.html" target="_top" xlink:title=" ">
<polygon fill="none" stroke="black" points="867.5,-312.5 867.5,-353.5 1025.5,-353.5 1025.5,-312.5 867.5,-312.5"/>
<text text-anchor="start" x="875.5" y="-341.5" font-family="Helvetica,sans-Serif" font-size="10.00">/home/runner/work/Simulatio</text>
<text text-anchor="start" x="875.5" y="-330.5" font-family="Helvetica,sans-Serif" font-size="10.00">/Simulatio/include/Geometry</text>
<text text-anchor="middle" x="946.5" y="-319.5" font-family="Helvetica,sans-Serif" font-size="10.00">/Collision.hpp</text>
</a>
</g>
</g>
<!-- Node1&#45;&gt;Node2 -->
<g id="edge1" class="edge">
<title>Node1&#45;&gt;Node2</title>
<path fill="none" stroke="midnightblue" d="M1732.4,-722.28C1568.69,-718.25 1216.67,-687.8 996.5,-510 948.8,-471.48 944.61,-391.01 945.43,-353.73"/>
<polygon fill="midnightblue" stroke="midnightblue" points="1732.36,-725.78 1742.43,-722.5 1732.51,-718.79 1732.36,-725.78"/>
</g>
<!-- Node12 -->
<g id="node12" class="node">
<title>Node12</title>
<g id="a_node12"><a xlink:href="_geometry_8hpp.html" target="_top" xlink:title=" ">
<polygon fill="none" stroke="black" points="1742.5,-624.5 1742.5,-665.5 1900.5,-665.5 1900.5,-624.5 1742.5,-624.5"/>
<text text-anchor="start" x="1750.5" y="-653.5" font-family="Helvetica,sans-Serif" font-size="10.00">/home/runner/work/Simulatio</text>
<text text-anchor="start" x="1750.5" y="-642.5" font-family="Helvetica,sans-Serif" font-size="10.00">/Simulatio/include/Geometry</text>
<text text-anchor="middle" x="1821.5" y="-631.5" font-family="Helvetica,sans-Serif" font-size="10.00">/Geometry.hpp</text>
</a>
</g>
</g>
<!-- Node1&#45;&gt;Node12 -->
<g id="edge11" class="edge">
<title>Node1&#45;&gt;Node12</title>
<path fill="none" stroke="midnightblue" d="M1821.5,-692.3C1821.5,-683.3 1821.5,-673.65 1821.5,-665.51"/>
<polygon fill="midnightblue" stroke="midnightblue" points="1818,-692.43 1821.5,-702.43 1825,-692.43 1818,-692.43"/>
</g>
<!-- Node37 -->
<g id="node37" class="node">
<title>Node37</title>
<g id="a_node37"><a xlink:href="_vertices_8cpp.html" target="_top" xlink:title=" ">
<polygon fill="none" stroke="black" points="1918.5,-624.5 1918.5,-665.5 2076.5,-665.5 2076.5,-624.5 1918.5,-624.5"/>
<text text-anchor="start" x="1926.5" y="-653.5" font-family="Helvetica,sans-Serif" font-size="10.00">/home/runner/work/Simulatio</text>
<text text-anchor="start" x="1926.5" y="-642.5" font-family="Helvetica,sans-Serif" font-size="10.00">/Simulatio/src/Geometry</text>
<text text-anchor="middle" x="1997.5" y="-631.5" font-family="Helvetica,sans-Serif" font-size="10.00">/Vertices.cpp</text>
</a>
</g>
</g>
<!-- Node1&#45;&gt;Node37 -->
<g id="edge62" class="edge">
<title>Node1&#45;&gt;Node37</title>
<path fill="none" stroke="midnightblue" d="M1876.32,-698.33C1900.74,-687.78 1929.15,-675.51 1952.33,-665.51"/>
<polygon fill="midnightblue" stroke="midnightblue" points="1874.62,-695.25 1866.82,-702.43 1877.39,-701.68 1874.62,-695.25"/>
</g>
<!-- Node3 -->
<g id="node3" class="node">
<title>Node3</title>
<g id="a_node3"><a xlink:href="_system_8hpp.html" target="_top" xlink:title=" ">
<polygon fill="none" stroke="black" points="1084.5,-156.5 1084.5,-197.5 1242.5,-197.5 1242.5,-156.5 1084.5,-156.5"/>
<text text-anchor="start" x="1092.5" y="-185.5" font-family="Helvetica,sans-Serif" font-size="10.00">/home/runner/work/Simulatio</text>
<text text-anchor="start" x="1092.5" y="-174.5" font-family="Helvetica,sans-Serif" font-size="10.00">/Simulatio/include/Structures</text>
<text text-anchor="middle" x="1163.5" y="-163.5" font-family="Helvetica,sans-Serif" font-size="10.00">/System.hpp</text>
</a>
</g>
</g>
<!-- Node2&#45;&gt;Node3 -->
<g id="edge2" class="edge">
<title>Node2&#45;&gt;Node3</title>
<path fill="none" stroke="midnightblue" d="M1035.65,-313.06C1060.47,-304.69 1086.17,-292.79 1106.5,-276 1131.84,-255.07 1148.38,-219.74 1156.81,-197.71"/>
<polygon fill="midnightblue" stroke="midnightblue" points="1034.28,-309.83 1025.82,-316.21 1036.41,-316.49 1034.28,-309.83"/>
</g>
<!-- Node11 -->
<g id="node11" class="node">
<title>Node11</title>
<g id="a_node11"><a xlink:href="_collision_8cpp.html" target="_top" xlink:title=" ">
<polygon fill="none" stroke="black" points="939.5,-234.5 939.5,-275.5 1097.5,-275.5 1097.5,-234.5 939.5,-234.5"/>
<text text-anchor="start" x="947.5" y="-263.5" font-family="Helvetica,sans-Serif" font-size="10.00">/home/runner/work/Simulatio</text>
<text text-anchor="start" x="947.5" y="-252.5" font-family="Helvetica,sans-Serif" font-size="10.00">/Simulatio/src/Geometry</text>
<text text-anchor="middle" x="1018.5" y="-241.5" font-family="Helvetica,sans-Serif" font-size="10.00">/Collision.cpp</text>
</a>
</g>
</g>
<!-- Node2&#45;&gt;Node11 -->
<g id="edge10" class="edge">
<title>Node2&#45;&gt;Node11</title>
<path fill="none" stroke="midnightblue" d="M972.16,-304.92C981.36,-295.2 991.55,-284.45 1000.02,-275.51"/>
<polygon fill="midnightblue" stroke="midnightblue" points="969.38,-302.76 965.04,-312.43 974.46,-307.58 969.38,-302.76"/>
</g>
<!-- Node4 -->
<g id="node4" class="node">
<title>Node4</title>
<g id="a_node4"><a xlink:href="_renderer_8hpp.html" target="_top" xlink:title=" ">
<polygon fill="none" stroke="black" points="1832.5,-78.5 1832.5,-119.5 1990.5,-119.5 1990.5,-78.5 1832.5,-78.5"/>
<text text-anchor="start" x="1840.5" y="-107.5" font-family="Helvetica,sans-Serif" font-size="10.00">/home/runner/work/Simulatio</text>
<text text-anchor="start" x="1840.5" y="-96.5" font-family="Helvetica,sans-Serif" font-size="10.00">/Simulatio/include/Renderer</text>
<text text-anchor="middle" x="1911.5" y="-85.5" font-family="Helvetica,sans-Serif" font-size="10.00">/Renderer.hpp</text>
</a>
</g>
</g>
<!-- Node3&#45;&gt;Node4 -->
<g id="edge3" class="edge">
<title>Node3&#45;&gt;Node4</title>
<path fill="none" stroke="midnightblue" d="M1253.21,-166.89C1400.73,-151.9 1692.15,-122.29 1832.41,-108.04"/>
<polygon fill="midnightblue" stroke="midnightblue" points="1252.44,-163.45 1242.84,-167.94 1253.14,-170.41 1252.44,-163.45"/>
</g>
<!-- Node10 -->
<g id="node10" class="node">
<title>Node10</title>
<g id="a_node10"><a xlink:href="_system_8cpp.html" target="_top" xlink:title=" ">
<polygon fill="none" stroke="black" points="1084.5,-78.5 1084.5,-119.5 1242.5,-119.5 1242.5,-78.5 1084.5,-78.5"/>
<text text-anchor="start" x="1092.5" y="-107.5" font-family="Helvetica,sans-Serif" font-size="10.00">/home/runner/work/Simulatio</text>
<text text-anchor="start" x="1092.5" y="-96.5" font-family="Helvetica,sans-Serif" font-size="10.00">/Simulatio/src/Structures</text>
<text text-anchor="middle" x="1163.5" y="-85.5" font-family="Helvetica,sans-Serif" font-size="10.00">/System.cpp</text>
</a>
</g>
</g>
<!-- Node3&#45;&gt;Node10 -->
<g id="edge9" class="edge">
<title>Node3&#45;&gt;Node10</title>
<path fill="none" stroke="midnightblue" d="M1163.5,-146.3C1163.5,-137.3 1163.5,-127.65 1163.5,-119.51"/>
<polygon fill="midnightblue" stroke="midnightblue" points="1160,-146.43 1163.5,-156.43 1167,-146.43 1160,-146.43"/>
</g>
<!-- Node5 -->
<g id="node5" class="node">
<title>Node5</title>
<g id="a_node5"><a xlink:href="_draw_8cpp.html" target="_top" xlink:title=" ">
<polygon fill="none" stroke="black" points="1480.5,-0.5 1480.5,-41.5 1638.5,-41.5 1638.5,-0.5 1480.5,-0.5"/>
<text text-anchor="start" x="1488.5" y="-29.5" font-family="Helvetica,sans-Serif" font-size="10.00">/home/runner/work/Simulatio</text>
<text text-anchor="start" x="1488.5" y="-18.5" font-family="Helvetica,sans-Serif" font-size="10.00">/Simulatio/src/Renderer</text>
<text text-anchor="middle" x="1559.5" y="-7.5" font-family="Helvetica,sans-Serif" font-size="10.00">/Draw.cpp</text>
</a>
</g>
</g>
<!-- Node4&#45;&gt;Node5 -->
<g id="edge4" class="edge">
<title>Node4&#45;&gt;Node5</title>
<path fill="none" stroke="midnightblue" d="M1822.26,-79.41C1771.08,-68.66 1705.63,-54.77 1647.5,-42 1644.59,-41.36 1641.63,-40.71 1638.64,-40.04"/>
<polygon fill="midnightblue" stroke="midnightblue" points="1821.8,-82.88 1832.3,-81.51 1823.24,-76.03 1821.8,-82.88"/>
</g>
<!-- Node6 -->
<g id="node6" class="node">
<title>Node6</title>
<g id="a_node6"><a xlink:href="_event_8cpp.html" target="_top" xlink:title=" ">
<polygon fill="none" stroke="black" points="1656.5,-0.5 1656.5,-41.5 1814.5,-41.5 1814.5,-0.5 1656.5,-0.5"/>
<text text-anchor="start" x="1664.5" y="-29.5" font-family="Helvetica,sans-Serif" font-size="10.00">/home/runner/work/Simulatio</text>
<text text-anchor="start" x="1664.5" y="-18.5" font-family="Helvetica,sans-Serif" font-size="10.00">/Simulatio/src/Renderer</text>
<text text-anchor="middle" x="1735.5" y="-7.5" font-family="Helvetica,sans-Serif" font-size="10.00">/Event.cpp</text>
</a>
</g>
</g>
<!-- Node4&#45;&gt;Node6 -->
<g id="edge5" class="edge">
<title>Node4&#45;&gt;Node6</title>
<path fill="none" stroke="midnightblue" d="M1856.68,-74.33C1832.26,-63.78 1803.85,-51.51 1780.67,-41.51"/>
<polygon fill="midnightblue" stroke="midnightblue" points="1855.61,-77.68 1866.18,-78.43 1858.38,-71.25 1855.61,-77.68"/>
</g>
<!-- Node7 -->
<g id="node7" class="node">
<title>Node7</title>
<g id="a_node7"><a xlink:href="_gui_8cpp.html" target="_top" xlink:title=" ">
<polygon fill="none" stroke="black" points="1832.5,-0.5 1832.5,-41.5 1990.5,-41.5 1990.5,-0.5 1832.5,-0.5"/>
<text text-anchor="start" x="1840.5" y="-29.5" font-family="Helvetica,sans-Serif" font-size="10.00">/home/runner/work/Simulatio</text>
<text text-anchor="start" x="1840.5" y="-18.5" font-family="Helvetica,sans-Serif" font-size="10.00">/Simulatio/src/Renderer</text>
<text text-anchor="middle" x="1911.5" y="-7.5" font-family="Helvetica,sans-Serif" font-size="10.00">/Gui.cpp</text>
</a>
</g>
</g>
<!-- Node4&#45;&gt;Node7 -->
<g id="edge6" class="edge">
<title>Node4&#45;&gt;Node7</title>
<path fill="none" stroke="midnightblue" d="M1911.5,-68.3C1911.5,-59.3 1911.5,-49.65 1911.5,-41.51"/>
<polygon fill="midnightblue" stroke="midnightblue" points="1908,-68.43 1911.5,-78.43 1915,-68.43 1908,-68.43"/>
</g>
<!-- Node8 -->
<g id="node8" class="node">
<title>Node8</title>
<g id="a_node8"><a xlink:href="_renderer_8cpp.html" target="_top" xlink:title=" ">
<polygon fill="none" stroke="black" points="2008.5,-0.5 2008.5,-41.5 2166.5,-41.5 2166.5,-0.5 2008.5,-0.5"/>
<text text-anchor="start" x="2016.5" y="-29.5" font-family="Helvetica,sans-Serif" font-size="10.00">/home/runner/work/Simulatio</text>
<text text-anchor="start" x="2016.5" y="-18.5" font-family="Helvetica,sans-Serif" font-size="10.00">/Simulatio/src/Renderer</text>
<text text-anchor="middle" x="2087.5" y="-7.5" font-family="Helvetica,sans-Serif" font-size="10.00">/Renderer.cpp</text>
</a>
</g>
</g>
<!-- Node4&#45;&gt;Node8 -->
<g id="edge7" class="edge">
<title>Node4&#45;&gt;Node8</title>
<path fill="none" stroke="midnightblue" d="M1966.32,-74.33C1990.74,-63.78 2019.15,-51.51 2042.33,-41.51"/>
<polygon fill="midnightblue" stroke="midnightblue" points="1964.62,-71.25 1956.82,-78.43 1967.39,-77.68 1964.62,-71.25"/>
</g>
<!-- Node9 -->
<g id="node9" class="node">
<title>Node9</title>
<g id="a_node9"><a xlink:href="main_8cpp.html" target="_top" xlink:title=" ">
<polygon fill="none" stroke="black" points="2184,-6 2184,-36 2343,-36 2343,-6 2184,-6"/>
<text text-anchor="start" x="2192" y="-24" font-family="Helvetica,sans-Serif" font-size="10.00">/home/runner/work/Simulatio</text>
<text text-anchor="middle" x="2263.5" y="-13" font-family="Helvetica,sans-Serif" font-size="10.00">/Simulatio/src/main/main.cpp</text>
</a>
</g>
</g>
<!-- Node4&#45;&gt;Node9 -->
<g id="edge8" class="edge">
<title>Node4&#45;&gt;Node9</title>
<path fill="none" stroke="midnightblue" d="M2000.74,-79.41C2051.92,-68.66 2117.37,-54.77 2175.5,-42 2184.07,-40.12 2193.1,-38.1 2201.98,-36.1"/>
<polygon fill="midnightblue" stroke="midnightblue" points="1999.76,-76.03 1990.7,-81.51 2001.2,-82.88 1999.76,-76.03"/>
</g>
<!-- Node12&#45;&gt;Node3 -->
<g id="edge60" class="edge">
<title>Node12&#45;&gt;Node3</title>
<path fill="none" stroke="midnightblue" d="M1825.26,-614.47C1830.54,-570.45 1839.5,-484.96 1839.5,-412 1839.5,-412 1839.5,-412 1839.5,-332 1839.5,-286.18 1843.39,-262.49 1807.5,-234 1764.13,-199.57 1404.82,-184.94 1242.53,-180.05"/>
<polygon fill="midnightblue" stroke="midnightblue" points="1821.78,-614.13 1824.04,-624.49 1828.73,-614.98 1821.78,-614.13"/>
</g>
<!-- Node12&#45;&gt;Node4 -->
<g id="edge59" class="edge">
<title>Node12&#45;&gt;Node4</title>
<path fill="none" stroke="midnightblue" d="M1910.8,-624.12C1987.33,-614.49 2148.32,-629.4 2192.5,-588 2224.87,-557.66 2211.5,-534.37 2211.5,-490 2211.5,-490 2211.5,-490 2211.5,-254 2211.5,-154.62 2079.6,-119.32 1990.71,-106.82"/>
<polygon fill="midnightblue" stroke="midnightblue" points="1909.95,-620.7 1900.58,-625.65 1910.99,-627.63 1909.95,-620.7"/>
</g>
<!-- Node13 -->
<g id="node13" class="node">
<title>Node13</title>
<g id="a_node13"><a xlink:href="_constraint_8hpp.html" target="_top" xlink:title=" ">
<polygon fill="none" stroke="black" points="686,-312.5 686,-353.5 849,-353.5 849,-312.5 686,-312.5"/>
<text text-anchor="start" x="694" y="-341.5" font-family="Helvetica,sans-Serif" font-size="10.00">/home/runner/work/Simulatio</text>
<text text-anchor="start" x="694" y="-330.5" font-family="Helvetica,sans-Serif" font-size="10.00">/Simulatio/include/Constraints</text>
<text text-anchor="middle" x="767.5" y="-319.5" font-family="Helvetica,sans-Serif" font-size="10.00">/Constraint.hpp</text>
</a>
</g>
</g>
<!-- Node12&#45;&gt;Node13 -->
<g id="edge12" class="edge">
<title>Node12&#45;&gt;Node13</title>
<path fill="none" stroke="midnightblue" d="M1732.04,-637.75C1536.78,-622.93 1078.94,-581.46 942.5,-510 868.83,-471.42 806.77,-390.98 780.69,-353.72"/>
<polygon fill="midnightblue" stroke="midnightblue" points="1732.04,-641.26 1742.27,-638.52 1732.56,-634.28 1732.04,-641.26"/>
</g>
<!-- Node23 -->
<g id="node23" class="node">
<title>Node23</title>
<g id="a_node23"><a xlink:href="_corpse_8hpp.html" target="_top" xlink:title=" ">
<polygon fill="none" stroke="black" points="1388.5,-546.5 1388.5,-587.5 1546.5,-587.5 1546.5,-546.5 1388.5,-546.5"/>
<text text-anchor="start" x="1396.5" y="-575.5" font-family="Helvetica,sans-Serif" font-size="10.00">/home/runner/work/Simulatio</text>
<text text-anchor="start" x="1396.5" y="-564.5" font-family="Helvetica,sans-Serif" font-size="10.00">/Simulatio/include/Corpses</text>
<text text-anchor="middle" x="1467.5" y="-553.5" font-family="Helvetica,sans-Serif" font-size="10.00">/Corpse.hpp</text>
</a>
</g>
</g>
<!-- Node12&#45;&gt;Node23 -->
<g id="edge26" class="edge">
<title>Node12&#45;&gt;Node23</title>
<path fill="none" stroke="midnightblue" d="M1732.38,-624.87C1675.22,-612.59 1601.66,-596.8 1546.57,-584.98"/>
<polygon fill="midnightblue" stroke="midnightblue" points="1731.98,-628.36 1742.5,-627.04 1733.45,-621.52 1731.98,-628.36"/>
</g>
<!-- Node34 -->
<g id="node34" class="node">
<title>Node34</title>
<g id="a_node34"><a xlink:href="_converter_8hpp.html" target="_top" xlink:title=" ">
<polygon fill="none" stroke="black" points="1849.5,-546.5 1849.5,-587.5 2007.5,-587.5 2007.5,-546.5 1849.5,-546.5"/>
<text text-anchor="start" x="1857.5" y="-575.5" font-family="Helvetica,sans-Serif" font-size="10.00">/home/runner/work/Simulatio</text>
<text text-anchor="start" x="1857.5" y="-564.5" font-family="Helvetica,sans-Serif" font-size="10.00">/Simulatio/include/Renderer</text>
<text text-anchor="middle" x="1928.5" y="-553.5" font-family="Helvetica,sans-Serif" font-size="10.00">/Converter.hpp</text>
</a>
</g>
</g>
<!-- Node12&#45;&gt;Node34 -->
<g id="edge56" class="edge">
<title>Node12&#45;&gt;Node34</title>
<path fill="none" stroke="midnightblue" d="M1857.21,-618.64C1871.5,-608.49 1887.7,-596.98 1901.04,-587.51"/>
<polygon fill="midnightblue" stroke="midnightblue" points="1855.18,-615.78 1849.06,-624.43 1859.23,-621.49 1855.18,-615.78"/>
</g>
<!-- Node36 -->
<g id="node36" class="node">
<title>Node36</title>
<g id="a_node36"><a xlink:href="_geometry_8cpp.html" target="_top" xlink:title=" ">
<polygon fill="none" stroke="black" points="2025.5,-546.5 2025.5,-587.5 2183.5,-587.5 2183.5,-546.5 2025.5,-546.5"/>
<text text-anchor="start" x="2033.5" y="-575.5" font-family="Helvetica,sans-Serif" font-size="10.00">/home/runner/work/Simulatio</text>
<text text-anchor="start" x="2033.5" y="-564.5" font-family="Helvetica,sans-Serif" font-size="10.00">/Simulatio/src/Geometry</text>
<text text-anchor="middle" x="2104.5" y="-553.5" font-family="Helvetica,sans-Serif" font-size="10.00">/Geometry.cpp</text>
</a>
</g>
</g>
<!-- Node12&#45;&gt;Node36 -->
<g id="edge61" class="edge">
<title>Node12&#45;&gt;Node36</title>
<path fill="none" stroke="midnightblue" d="M1904.21,-621.79C1944.65,-610.93 1992.87,-597.98 2031.87,-587.51"/>
<polygon fill="midnightblue" stroke="midnightblue" points="1903.13,-618.45 1894.38,-624.43 1904.95,-625.21 1903.13,-618.45"/>
</g>
<!-- Node13&#45;&gt;Node3 -->
<g id="edge24" class="edge">
<title>Node13&#45;&gt;Node3</title>
<path fill="none" stroke="midnightblue" d="M832.45,-308.46C852.31,-299.77 873.62,-288.86 891.5,-276 912.18,-261.13 908.51,-246.86 930.5,-234 977.46,-206.54 1037.23,-192.52 1084.47,-185.38"/>
<polygon fill="midnightblue" stroke="midnightblue" points="830.98,-305.29 823.14,-312.42 833.72,-311.73 830.98,-305.29"/>
</g>
<!-- Node14 -->
<g id="node14" class="node">
<title>Node14</title>
<g id="a_node14"><a xlink:href="_link_8hpp.html" target="_top" xlink:title=" ">
<polygon fill="none" stroke="black" points="539,-234.5 539,-275.5 702,-275.5 702,-234.5 539,-234.5"/>
<text text-anchor="start" x="547" y="-263.5" font-family="Helvetica,sans-Serif" font-size="10.00">/home/runner/work/Simulatio</text>
<text text-anchor="start" x="547" y="-252.5" font-family="Helvetica,sans-Serif" font-size="10.00">/Simulatio/include/Constraints</text>
<text text-anchor="middle" x="620.5" y="-241.5" font-family="Helvetica,sans-Serif" font-size="10.00">/Link.hpp</text>
</a>
</g>
</g>
<!-- Node13&#45;&gt;Node14 -->
<g id="edge13" class="edge">
<title>Node13&#45;&gt;Node14</title>
<path fill="none" stroke="midnightblue" d="M720.63,-307.77C700.48,-297.35 677.24,-285.34 658.23,-275.51"/>
<polygon fill="midnightblue" stroke="midnightblue" points="719.15,-310.94 729.64,-312.43 722.37,-304.73 719.15,-310.94"/>
</g>
<!-- Node16 -->
<g id="node16" class="node">
<title>Node16</title>
<g id="a_node16"><a xlink:href="_loose_8hpp.html" target="_top" xlink:title=" ">
<polygon fill="none" stroke="black" points="0,-234.5 0,-275.5 163,-275.5 163,-234.5 0,-234.5"/>
<text text-anchor="start" x="8" y="-263.5" font-family="Helvetica,sans-Serif" font-size="10.00">/home/runner/work/Simulatio</text>
<text text-anchor="start" x="8" y="-252.5" font-family="Helvetica,sans-Serif" font-size="10.00">/Simulatio/include/Constraints</text>
<text text-anchor="middle" x="81.5" y="-241.5" font-family="Helvetica,sans-Serif" font-size="10.00">/Loose.hpp</text>
</a>
</g>
</g>
<!-- Node13&#45;&gt;Node16 -->
<g id="edge16" class="edge">
<title>Node13&#45;&gt;Node16</title>
<path fill="none" stroke="midnightblue" d="M675.6,-326.94C558.16,-319.66 348.82,-303.92 171.5,-276 168.81,-275.58 166.08,-275.12 163.33,-274.64"/>
<polygon fill="midnightblue" stroke="midnightblue" points="675.44,-330.44 685.64,-327.56 675.87,-323.45 675.44,-330.44"/>
</g>
<!-- Node18 -->
<g id="node18" class="node">
<title>Node18</title>
<g id="a_node18"><a xlink:href="_slider_8hpp.html" target="_top" xlink:title=" ">
<polygon fill="none" stroke="black" points="720,-234.5 720,-275.5 883,-275.5 883,-234.5 720,-234.5"/>
<text text-anchor="start" x="728" y="-263.5" font-family="Helvetica,sans-Serif" font-size="10.00">/home/runner/work/Simulatio</text>
<text text-anchor="start" x="728" y="-252.5" font-family="Helvetica,sans-Serif" font-size="10.00">/Simulatio/include/Constraints</text>
<text text-anchor="middle" x="801.5" y="-241.5" font-family="Helvetica,sans-Serif" font-size="10.00">/Slider.hpp</text>
</a>
</g>
</g>
<!-- Node13&#45;&gt;Node18 -->
<g id="edge18" class="edge">
<title>Node13&#45;&gt;Node18</title>
<path fill="none" stroke="midnightblue" d="M780.4,-303.17C784.53,-293.93 789.01,-283.92 792.77,-275.51"/>
<polygon fill="midnightblue" stroke="midnightblue" points="777.14,-301.87 776.26,-312.43 783.53,-304.73 777.14,-301.87"/>
</g>
<!-- Node20 -->
<g id="node20" class="node">
<title>Node20</title>
<g id="a_node20"><a xlink:href="_spring_8hpp.html" target="_top" xlink:title=" ">
<polygon fill="none" stroke="black" points="181,-234.5 181,-275.5 344,-275.5 344,-234.5 181,-234.5"/>
<text text-anchor="start" x="189" y="-263.5" font-family="Helvetica,sans-Serif" font-size="10.00">/home/runner/work/Simulatio</text>
<text text-anchor="start" x="189" y="-252.5" font-family="Helvetica,sans-Serif" font-size="10.00">/Simulatio/include/Constraints</text>
<text text-anchor="middle" x="262.5" y="-241.5" font-family="Helvetica,sans-Serif" font-size="10.00">/Spring.hpp</text>
</a>
</g>
</g>
<!-- Node13&#45;&gt;Node20 -->
<g id="edge21" class="edge">
<title>Node13&#45;&gt;Node20</title>
<path fill="none" stroke="midnightblue" d="M675.85,-321.79C591.74,-311.9 463.82,-295.55 353.5,-276 350.47,-275.46 347.4,-274.9 344.29,-274.31"/>
<polygon fill="midnightblue" stroke="midnightblue" points="675.55,-325.28 685.89,-322.96 676.36,-318.32 675.55,-325.28"/>
</g>
<!-- Node22 -->
<g id="node22" class="node">
<title>Node22</title>
<g id="a_node22"><a xlink:href="_constraint_8cpp.html" target="_top" xlink:title=" ">
<polygon fill="none" stroke="black" points="362.5,-234.5 362.5,-275.5 520.5,-275.5 520.5,-234.5 362.5,-234.5"/>
<text text-anchor="start" x="370.5" y="-263.5" font-family="Helvetica,sans-Serif" font-size="10.00">/home/runner/work/Simulatio</text>
<text text-anchor="start" x="370.5" y="-252.5" font-family="Helvetica,sans-Serif" font-size="10.00">/Simulatio/src/Constraints</text>
<text text-anchor="middle" x="441.5" y="-241.5" font-family="Helvetica,sans-Serif" font-size="10.00">/Constraint.cpp</text>
</a>
</g>
</g>
<!-- Node13&#45;&gt;Node22 -->
<g id="edge25" class="edge">
<title>Node13&#45;&gt;Node22</title>
<path fill="none" stroke="midnightblue" d="M675.72,-310.6C626.85,-299.21 567.36,-285.34 520.56,-274.43"/>
<polygon fill="midnightblue" stroke="midnightblue" points="675.12,-314.06 685.66,-312.92 676.71,-307.24 675.12,-314.06"/>
</g>
<!-- Node14&#45;&gt;Node3 -->
<g id="edge14" class="edge">
<title>Node14&#45;&gt;Node3</title>
<path fill="none" stroke="midnightblue" d="M712.51,-233.72C848.14,-210.71 995.71,-194.35 1084.19,-185.48"/>
<polygon fill="midnightblue" stroke="midnightblue" points="711.62,-230.32 702.35,-235.46 712.8,-237.22 711.62,-230.32"/>
</g>
<!-- Node15 -->
<g id="node15" class="node">
<title>Node15</title>
<g id="a_node15"><a xlink:href="_link_8cpp.html" target="_top" xlink:title=" ">
<polygon fill="none" stroke="black" points="541.5,-156.5 541.5,-197.5 699.5,-197.5 699.5,-156.5 541.5,-156.5"/>
<text text-anchor="start" x="549.5" y="-185.5" font-family="Helvetica,sans-Serif" font-size="10.00">/home/runner/work/Simulatio</text>
<text text-anchor="start" x="549.5" y="-174.5" font-family="Helvetica,sans-Serif" font-size="10.00">/Simulatio/src/Constraints</text>
<text text-anchor="middle" x="620.5" y="-163.5" font-family="Helvetica,sans-Serif" font-size="10.00">/Link.cpp</text>
</a>
</g>
</g>
<!-- Node14&#45;&gt;Node15 -->
<g id="edge15" class="edge">
<title>Node14&#45;&gt;Node15</title>
<path fill="none" stroke="midnightblue" d="M620.5,-224.3C620.5,-215.3 620.5,-205.65 620.5,-197.51"/>
<polygon fill="midnightblue" stroke="midnightblue" points="617,-224.43 620.5,-234.43 624,-224.43 617,-224.43"/>
</g>
<!-- Node17 -->
<g id="node17" class="node">
<title>Node17</title>
<g id="a_node17"><a xlink:href="_loose_8cpp.html" target="_top" xlink:title=" ">
<polygon fill="none" stroke="black" points="2.5,-156.5 2.5,-197.5 160.5,-197.5 160.5,-156.5 2.5,-156.5"/>
<text text-anchor="start" x="10.5" y="-185.5" font-family="Helvetica,sans-Serif" font-size="10.00">/home/runner/work/Simulatio</text>
<text text-anchor="start" x="10.5" y="-174.5" font-family="Helvetica,sans-Serif" font-size="10.00">/Simulatio/src/Constraints</text>
<text text-anchor="middle" x="81.5" y="-163.5" font-family="Helvetica,sans-Serif" font-size="10.00">/Loose.cpp</text>
</a>
</g>
</g>
<!-- Node16&#45;&gt;Node17 -->
<g id="edge17" class="edge">
<title>Node16&#45;&gt;Node17</title>
<path fill="none" stroke="midnightblue" d="M81.5,-224.3C81.5,-215.3 81.5,-205.65 81.5,-197.51"/>
<polygon fill="midnightblue" stroke="midnightblue" points="78,-224.43 81.5,-234.43 85,-224.43 78,-224.43"/>
</g>
<!-- Node18&#45;&gt;Node3 -->
<g id="edge19" class="edge">
<title>Node18&#45;&gt;Node3</title>
<path fill="none" stroke="midnightblue" d="M893.24,-234.74C952.19,-222.36 1027.97,-206.45 1084.28,-194.63"/>
<polygon fill="midnightblue" stroke="midnightblue" points="892.26,-231.37 883.19,-236.85 893.7,-238.22 892.26,-231.37"/>
</g>
<!-- Node19 -->
<g id="node19" class="node">
<title>Node19</title>
<g id="a_node19"><a xlink:href="_slider_8cpp.html" target="_top" xlink:title=" ">
<polygon fill="none" stroke="black" points="722.5,-156.5 722.5,-197.5 880.5,-197.5 880.5,-156.5 722.5,-156.5"/>
<text text-anchor="start" x="730.5" y="-185.5" font-family="Helvetica,sans-Serif" font-size="10.00">/home/runner/work/Simulatio</text>
<text text-anchor="start" x="730.5" y="-174.5" font-family="Helvetica,sans-Serif" font-size="10.00">/Simulatio/src/Constraints</text>
<text text-anchor="middle" x="801.5" y="-163.5" font-family="Helvetica,sans-Serif" font-size="10.00">/Slider.cpp</text>
</a>
</g>
</g>
<!-- Node18&#45;&gt;Node19 -->
<g id="edge20" class="edge">
<title>Node18&#45;&gt;Node19</title>
<path fill="none" stroke="midnightblue" d="M801.5,-224.3C801.5,-215.3 801.5,-205.65 801.5,-197.51"/>
<polygon fill="midnightblue" stroke="midnightblue" points="798,-224.43 801.5,-234.43 805,-224.43 798,-224.43"/>
</g>
<!-- Node20&#45;&gt;Node3 -->
<g id="edge22" class="edge">
<title>Node20&#45;&gt;Node3</title>
<path fill="none" stroke="midnightblue" d="M354.22,-234.02C591.58,-200.67 654.58,-214.46 889.5,-198 955.16,-193.4 1029.65,-187.95 1084.37,-183.9"/>
<polygon fill="midnightblue" stroke="midnightblue" points="353.66,-230.56 344.25,-235.43 354.64,-237.49 353.66,-230.56"/>
</g>
<!-- Node21 -->
<g id="node21" class="node">
<title>Node21</title>
<g id="a_node21"><a xlink:href="_spring_8cpp.html" target="_top" xlink:title=" ">
<polygon fill="none" stroke="black" points="183.5,-156.5 183.5,-197.5 341.5,-197.5 341.5,-156.5 183.5,-156.5"/>
<text text-anchor="start" x="191.5" y="-185.5" font-family="Helvetica,sans-Serif" font-size="10.00">/home/runner/work/Simulatio</text>
<text text-anchor="start" x="191.5" y="-174.5" font-family="Helvetica,sans-Serif" font-size="10.00">/Simulatio/src/Constraints</text>
<text text-anchor="middle" x="262.5" y="-163.5" font-family="Helvetica,sans-Serif" font-size="10.00">/Spring.cpp</text>
</a>
</g>
</g>
<!-- Node20&#45;&gt;Node21 -->
<g id="edge23" class="edge">
<title>Node20&#45;&gt;Node21</title>
<path fill="none" stroke="midnightblue" d="M262.5,-224.3C262.5,-215.3 262.5,-205.65 262.5,-197.51"/>
<polygon fill="midnightblue" stroke="midnightblue" points="259,-224.43 262.5,-234.43 266,-224.43 259,-224.43"/>
</g>
<!-- Node23&#45;&gt;Node2 -->
<g id="edge50" class="edge">
<title>Node23&#45;&gt;Node2</title>
<path fill="none" stroke="midnightblue" d="M1378.21,-563.81C1269.18,-559.54 1092.68,-546.96 1039.5,-510 984.59,-471.83 959.55,-390.81 950.6,-353.52"/>
<polygon fill="midnightblue" stroke="midnightblue" points="1378.1,-567.31 1388.22,-564.19 1378.36,-560.32 1378.1,-567.31"/>
</g>
<!-- Node23&#45;&gt;Node3 -->
<g id="edge54" class="edge">
<title>Node23&#45;&gt;Node3</title>
<path fill="none" stroke="midnightblue" d="M1556.67,-562.15C1655.61,-552.53 1801.5,-520.03 1801.5,-412 1801.5,-412 1801.5,-412 1801.5,-332 1801.5,-287.63 1815.42,-263.74 1782.5,-234 1743.24,-198.53 1400.83,-184.54 1242.8,-179.94"/>
<polygon fill="midnightblue" stroke="midnightblue" points="1556.29,-558.67 1546.65,-563.06 1556.93,-565.64 1556.29,-558.67"/>
</g>
<!-- Node23&#45;&gt;Node13 -->
<g id="edge27" class="edge">
<title>Node23&#45;&gt;Node13</title>
<path fill="none" stroke="midnightblue" d="M1378.06,-562.36C1260.64,-556.39 1061.76,-541.84 996.5,-510 929,-477.06 938.18,-434.27 877.5,-390 857.94,-375.73 834.21,-363.15 813.81,-353.54"/>
<polygon fill="midnightblue" stroke="midnightblue" points="1377.95,-565.86 1388.11,-562.86 1378.3,-558.87 1377.95,-565.86"/>
</g>
<!-- Node24 -->
<g id="node24" class="node">
<title>Node24</title>
<g id="a_node24"><a xlink:href="_circle_8hpp.html" target="_top" xlink:title=" ">
<polygon fill="none" stroke="black" points="1294.5,-468.5 1294.5,-509.5 1452.5,-509.5 1452.5,-468.5 1294.5,-468.5"/>
<text text-anchor="start" x="1302.5" y="-497.5" font-family="Helvetica,sans-Serif" font-size="10.00">/home/runner/work/Simulatio</text>
<text text-anchor="start" x="1302.5" y="-486.5" font-family="Helvetica,sans-Serif" font-size="10.00">/Simulatio/include/Corpses</text>
<text text-anchor="middle" x="1373.5" y="-475.5" font-family="Helvetica,sans-Serif" font-size="10.00">/Circle.hpp</text>
</a>
</g>
</g>
<!-- Node23&#45;&gt;Node24 -->
<g id="edge28" class="edge">
<title>Node23&#45;&gt;Node24</title>
<path fill="none" stroke="midnightblue" d="M1435.42,-540.06C1423.04,-530.06 1409.13,-518.8 1397.63,-509.51"/>
<polygon fill="midnightblue" stroke="midnightblue" points="1433.32,-542.86 1443.29,-546.43 1437.72,-537.42 1433.32,-542.86"/>
</g>
<!-- Node25 -->
<g id="node25" class="node">
<title>Node25</title>
<g id="a_node25"><a xlink:href="_polygon_8hpp.html" target="_top" xlink:title=" ">
<polygon fill="none" stroke="black" points="1180.5,-390.5 1180.5,-431.5 1338.5,-431.5 1338.5,-390.5 1180.5,-390.5"/>
<text text-anchor="start" x="1188.5" y="-419.5" font-family="Helvetica,sans-Serif" font-size="10.00">/home/runner/work/Simulatio</text>
<text text-anchor="start" x="1188.5" y="-408.5" font-family="Helvetica,sans-Serif" font-size="10.00">/Simulatio/include/Corpses</text>
<text text-anchor="middle" x="1259.5" y="-397.5" font-family="Helvetica,sans-Serif" font-size="10.00">/Polygon.hpp</text>
</a>
</g>
</g>
<!-- Node23&#45;&gt;Node25 -->
<g id="edge49" class="edge">
<title>Node23&#45;&gt;Node25</title>
<path fill="none" stroke="midnightblue" d="M1377.89,-556.78C1344.89,-549.09 1309.69,-535.16 1285.5,-510 1265.12,-488.81 1260.27,-453.56 1259.35,-431.62"/>
<polygon fill="midnightblue" stroke="midnightblue" points="1377.54,-560.28 1388.05,-558.97 1379.01,-553.44 1377.54,-560.28"/>
</g>
<!-- Node26 -->
<g id="node26" class="node">
<title>Node26</title>
<g id="a_node26"><a xlink:href="_old_quadtree_8hpp.html" target="_top" xlink:title=" ">
<polygon fill="none" stroke="black" points="1615.5,-312.5 1615.5,-353.5 1773.5,-353.5 1773.5,-312.5 1615.5,-312.5"/>
<text text-anchor="start" x="1623.5" y="-341.5" font-family="Helvetica,sans-Serif" font-size="10.00">/home/runner/work/Simulatio</text>
<text text-anchor="start" x="1623.5" y="-330.5" font-family="Helvetica,sans-Serif" font-size="10.00">/Simulatio/include/Structures</text>
<text text-anchor="middle" x="1694.5" y="-319.5" font-family="Helvetica,sans-Serif" font-size="10.00">/OldQuadtree.hpp</text>
</a>
</g>
</g>
<!-- Node23&#45;&gt;Node26 -->
<g id="edge51" class="edge">
<title>Node23&#45;&gt;Node26</title>
<path fill="none" stroke="midnightblue" d="M1556.77,-554.08C1609.75,-545.01 1669.78,-530.56 1686.5,-510 1723.37,-464.68 1709.68,-389.02 1700.35,-353.51"/>
<polygon fill="midnightblue" stroke="midnightblue" points="1555.92,-550.67 1546.62,-555.76 1557.06,-557.57 1555.92,-550.67"/>
</g>
<!-- Node28 -->
<g id="node28" class="node">
<title>Node28</title>
<g id="a_node28"><a xlink:href="_quad_node_8hpp.html" target="_top" xlink:title=" ">
<polygon fill="none" stroke="black" points="1439.5,-312.5 1439.5,-353.5 1597.5,-353.5 1597.5,-312.5 1439.5,-312.5"/>
<text text-anchor="start" x="1447.5" y="-341.5" font-family="Helvetica,sans-Serif" font-size="10.00">/home/runner/work/Simulatio</text>
<text text-anchor="start" x="1447.5" y="-330.5" font-family="Helvetica,sans-Serif" font-size="10.00">/Simulatio/include/Structures</text>
<text text-anchor="middle" x="1518.5" y="-319.5" font-family="Helvetica,sans-Serif" font-size="10.00">/QuadNode.hpp</text>
</a>
</g>
</g>
<!-- Node23&#45;&gt;Node28 -->
<g id="edge52" class="edge">
<title>Node23&#45;&gt;Node28</title>
<path fill="none" stroke="midnightblue" d="M1556.69,-550.87C1601.1,-541.35 1648.14,-527.53 1661.5,-510 1693.83,-467.58 1692.61,-434.02 1662.5,-390 1653.45,-376.77 1621.47,-363.69 1589.94,-353.5"/>
<polygon fill="midnightblue" stroke="midnightblue" points="1555.75,-547.49 1546.68,-552.96 1557.18,-554.35 1555.75,-547.49"/>
</g>
<!-- Node29 -->
<g id="node29" class="node">
<title>Node29</title>
<g id="a_node29"><a xlink:href="_quadtree_8hpp.html" target="_top" xlink:title=" ">
<polygon fill="none" stroke="black" points="1191.5,-234.5 1191.5,-275.5 1349.5,-275.5 1349.5,-234.5 1191.5,-234.5"/>
<text text-anchor="start" x="1199.5" y="-263.5" font-family="Helvetica,sans-Serif" font-size="10.00">/home/runner/work/Simulatio</text>
<text text-anchor="start" x="1199.5" y="-252.5" font-family="Helvetica,sans-Serif" font-size="10.00">/Simulatio/include/Structures</text>
<text text-anchor="middle" x="1270.5" y="-241.5" font-family="Helvetica,sans-Serif" font-size="10.00">/Quadtree.hpp</text>
</a>
</g>
</g>
<!-- Node23&#45;&gt;Node29 -->
<g id="edge53" class="edge">
<title>Node23&#45;&gt;Node29</title>
<path fill="none" stroke="midnightblue" d="M1378.18,-550.88C1340.69,-542.25 1297.53,-529.21 1261.5,-510 1214.79,-485.1 1202.85,-474.65 1171.5,-432 1138.67,-387.34 1106.84,-358.18 1137.5,-312 1150.04,-293.11 1170.34,-280.58 1191.34,-272.27"/>
<polygon fill="midnightblue" stroke="midnightblue" points="1377.56,-554.33 1388.09,-553.09 1379.09,-547.5 1377.56,-554.33"/>
</g>
<!-- Node33 -->
<g id="node33" class="node">
<title>Node33</title>
<g id="a_node33"><a xlink:href="_corpse_8cpp.html" target="_top" xlink:title=" ">
<polygon fill="none" stroke="black" points="1470.5,-474 1470.5,-504 1652.5,-504 1652.5,-474 1470.5,-474"/>
<text text-anchor="start" x="1478.5" y="-492" font-family="Helvetica,sans-Serif" font-size="10.00">/home/runner/work/Simulatio</text>
<text text-anchor="middle" x="1561.5" y="-481" font-family="Helvetica,sans-Serif" font-size="10.00">/Simulatio/src/Corpses/Corpse.cpp</text>
</a>
</g>
</g>
<!-- Node23&#45;&gt;Node33 -->
<g id="edge55" class="edge">
<title>Node23&#45;&gt;Node33</title>
<path fill="none" stroke="midnightblue" d="M1499.67,-539.99C1514.48,-528.02 1531.48,-514.27 1543.91,-504.23"/>
<polygon fill="midnightblue" stroke="midnightblue" points="1497.28,-537.42 1491.71,-546.43 1501.68,-542.86 1497.28,-537.42"/>
</g>
<!-- Node24&#45;&gt;Node2 -->
<g id="edge43" class="edge">
<title>Node24&#45;&gt;Node2</title>
<path fill="none" stroke="midnightblue" d="M1284.2,-466.13C1248.77,-456.71 1207.87,-444.89 1171.5,-432 1105.44,-408.59 1031.37,-374.8 986.87,-353.64"/>
<polygon fill="midnightblue" stroke="midnightblue" points="1283.48,-469.56 1294.04,-468.73 1285.26,-462.79 1283.48,-469.56"/>
</g>
<!-- Node24&#45;&gt;Node3 -->
<g id="edge47" class="edge">
<title>Node24&#45;&gt;Node3</title>
<path fill="none" stroke="midnightblue" d="M1385.99,-458.99C1389.08,-450.45 1391.94,-440.99 1393.5,-432 1408.75,-343.95 1420.39,-298.46 1358.5,-234 1328.62,-202.88 1282.68,-188.72 1242.9,-182.41"/>
<polygon fill="midnightblue" stroke="midnightblue" points="1382.66,-457.9 1382.33,-468.49 1389.19,-460.42 1382.66,-457.9"/>
</g>
<!-- Node24&#45;&gt;Node13 -->
<g id="edge29" class="edge">
<title>Node24&#45;&gt;Node13</title>
<path fill="none" stroke="midnightblue" d="M1284.21,-474.92C1222.81,-465.13 1139.65,-450.3 1067.5,-432 979.34,-409.64 879.37,-375.07 819.98,-353.53"/>
<polygon fill="midnightblue" stroke="midnightblue" points="1283.83,-478.4 1294.26,-476.5 1284.92,-471.49 1283.83,-478.4"/>
</g>
<!-- Node24&#45;&gt;Node25 -->
<g id="edge30" class="edge">
<title>Node24&#45;&gt;Node25</title>
<path fill="none" stroke="midnightblue" d="M1329.49,-462.92C1313.57,-452.7 1296.26,-441.07 1282.78,-431.51"/>
<polygon fill="midnightblue" stroke="midnightblue" points="1327.84,-466.02 1338.15,-468.43 1331.59,-460.11 1327.84,-466.02"/>
</g>
<!-- Node24&#45;&gt;Node26 -->
<g id="edge44" class="edge">
<title>Node24&#45;&gt;Node26</title>
<path fill="none" stroke="midnightblue" d="M1462.46,-468.01C1553.45,-452.67 1596.38,-489.55 1662.5,-432 1685.18,-412.26 1691.87,-376.22 1693.8,-353.78"/>
<polygon fill="midnightblue" stroke="midnightblue" points="1461.81,-464.57 1452.62,-469.84 1463.09,-471.45 1461.81,-464.57"/>
</g>
<!-- Node24&#45;&gt;Node28 -->
<g id="edge45" class="edge">
<title>Node24&#45;&gt;Node28</title>
<path fill="none" stroke="midnightblue" d="M1398.79,-461.14C1427.63,-430.51 1474.09,-381.17 1499.83,-353.83"/>
<polygon fill="midnightblue" stroke="midnightblue" points="1396.17,-458.82 1391.86,-468.5 1401.27,-463.61 1396.17,-458.82"/>
</g>
<!-- Node24&#45;&gt;Node29 -->
<g id="edge46" class="edge">
<title>Node24&#45;&gt;Node29</title>
<path fill="none" stroke="midnightblue" d="M1377.56,-458.2C1381.07,-421.13 1381.91,-357.2 1354.5,-312 1345.14,-296.56 1329.71,-284.48 1314.62,-275.56"/>
<polygon fill="midnightblue" stroke="midnightblue" points="1374.06,-458.03 1376.47,-468.35 1381.02,-458.78 1374.06,-458.03"/>
</g>
<!-- Node32 -->
<g id="node32" class="node">
<title>Node32</title>
<g id="a_node32"><a xlink:href="_circle_8cpp.html" target="_top" xlink:title=" ">
<polygon fill="none" stroke="black" points="1477.5,-396 1477.5,-426 1653.5,-426 1653.5,-396 1477.5,-396"/>
<text text-anchor="start" x="1485.5" y="-414" font-family="Helvetica,sans-Serif" font-size="10.00">/home/runner/work/Simulatio</text>
<text text-anchor="middle" x="1565.5" y="-403" font-family="Helvetica,sans-Serif" font-size="10.00">/Simulatio/src/Corpses/Circle.cpp</text>
</a>
</g>
</g>
<!-- Node24&#45;&gt;Node32 -->
<g id="edge48" class="edge">
<title>Node24&#45;&gt;Node32</title>
<path fill="none" stroke="midnightblue" d="M1432.59,-464.61C1464.41,-452.02 1502.6,-436.9 1529.86,-426.11"/>
<polygon fill="midnightblue" stroke="midnightblue" points="1430.95,-461.49 1422.94,-468.43 1433.53,-468 1430.95,-461.49"/>
</g>
<!-- Node25&#45;&gt;Node2 -->
<g id="edge33" class="edge">
<title>Node25&#45;&gt;Node2</title>
<path fill="none" stroke="midnightblue" d="M1170.23,-388.32C1124.62,-377.25 1069.6,-363.89 1025.53,-353.19"/>
<polygon fill="midnightblue" stroke="midnightblue" points="1169.57,-391.77 1180.11,-390.72 1171.22,-384.96 1169.57,-391.77"/>
</g>
<!-- Node25&#45;&gt;Node3 -->
<g id="edge41" class="edge">
<title>Node25&#45;&gt;Node3</title>
<path fill="none" stroke="midnightblue" d="M1173.55,-385.87C1159.26,-378.01 1146.25,-367.65 1137.5,-354 1121.08,-328.39 1145.33,-237.97 1157.38,-197.66"/>
<polygon fill="midnightblue" stroke="midnightblue" points="1172.09,-389.06 1182.6,-390.45 1175.26,-382.81 1172.09,-389.06"/>
</g>
<!-- Node25&#45;&gt;Node13 -->
<g id="edge31" class="edge">
<title>Node25&#45;&gt;Node13</title>
<path fill="none" stroke="midnightblue" d="M1170.24,-399.55C1088.77,-389.53 965.16,-373.14 858.5,-354 855.47,-353.46 852.4,-352.88 849.29,-352.29"/>
<polygon fill="midnightblue" stroke="midnightblue" points="1170.11,-403.06 1180.46,-400.8 1170.96,-396.11 1170.11,-403.06"/>
</g>
<!-- Node25&#45;&gt;Node24 -->
<g id="edge32" class="edge">
<title>Node25&#45;&gt;Node24</title>
<path fill="none" stroke="midnightblue" d="M1303.4,-437.01C1319.31,-447.22 1336.63,-458.85 1350.13,-468.43"/>
<polygon fill="midnightblue" stroke="midnightblue" points="1305.06,-433.92 1294.74,-431.51 1301.3,-439.82 1305.06,-433.92"/>
</g>
<!-- Node25&#45;&gt;Node26 -->
<g id="edge34" class="edge">
<title>Node25&#45;&gt;Node26</title>
<path fill="none" stroke="midnightblue" d="M1348.79,-397.18C1419.04,-386.72 1519.29,-370.93 1606.5,-354 1609.42,-353.43 1612.4,-352.84 1615.4,-352.23"/>
<polygon fill="midnightblue" stroke="midnightblue" points="1348.03,-393.76 1338.65,-398.69 1349.06,-400.68 1348.03,-393.76"/>
</g>
<!-- Node25&#45;&gt;Node28 -->
<g id="edge36" class="edge">
<title>Node25&#45;&gt;Node28</title>
<path fill="none" stroke="midnightblue" d="M1335.9,-387.58C1372.76,-376.76 1416.56,-363.91 1452.03,-353.51"/>
<polygon fill="midnightblue" stroke="midnightblue" points="1334.81,-384.25 1326.2,-390.43 1336.78,-390.97 1334.81,-384.25"/>
</g>
<!-- Node25&#45;&gt;Node29 -->
<g id="edge40" class="edge">
<title>Node25&#45;&gt;Node29</title>
<path fill="none" stroke="midnightblue" d="M1183.1,-385.64C1169.34,-377.74 1156.76,-367.42 1148.5,-354 1138.71,-338.1 1138.42,-327.71 1148.5,-312 1159.07,-295.52 1175.84,-283.83 1193.6,-275.55"/>
<polygon fill="midnightblue" stroke="midnightblue" points="1181.8,-388.91 1192.28,-390.48 1185.07,-382.72 1181.8,-388.91"/>
</g>
<!-- Node31 -->
<g id="node31" class="node">
<title>Node31</title>
<g id="a_node31"><a xlink:href="_polygon_8cpp.html" target="_top" xlink:title=" ">
<polygon fill="none" stroke="black" points="1157.5,-318 1157.5,-348 1345.5,-348 1345.5,-318 1157.5,-318"/>
<text text-anchor="start" x="1165.5" y="-336" font-family="Helvetica,sans-Serif" font-size="10.00">/home/runner/work/Simulatio</text>
<text text-anchor="middle" x="1251.5" y="-325" font-family="Helvetica,sans-Serif" font-size="10.00">/Simulatio/src/Corpses/Polygon.cpp</text>
</a>
</g>
</g>
<!-- Node25&#45;&gt;Node31 -->
<g id="edge42" class="edge">
<title>Node25&#45;&gt;Node31</title>
<path fill="none" stroke="midnightblue" d="M1256.37,-380.28C1255.21,-369.25 1253.95,-357.25 1253,-348.23"/>
<polygon fill="midnightblue" stroke="midnightblue" points="1252.91,-380.85 1257.44,-390.43 1259.87,-380.12 1252.91,-380.85"/>
</g>
<!-- Node27 -->
<g id="node27" class="node">
<title>Node27</title>
<g id="a_node27"><a xlink:href="_old_quadtree_8cpp.html" target="_top" xlink:title=" ">
<polygon fill="none" stroke="black" points="1615.5,-234.5 1615.5,-275.5 1773.5,-275.5 1773.5,-234.5 1615.5,-234.5"/>
<text text-anchor="start" x="1623.5" y="-263.5" font-family="Helvetica,sans-Serif" font-size="10.00">/home/runner/work/Simulatio</text>
<text text-anchor="start" x="1623.5" y="-252.5" font-family="Helvetica,sans-Serif" font-size="10.00">/Simulatio/src/Structures</text>
<text text-anchor="middle" x="1694.5" y="-241.5" font-family="Helvetica,sans-Serif" font-size="10.00">/OldQuadtree.cpp</text>
</a>
</g>
</g>
<!-- Node26&#45;&gt;Node27 -->
<g id="edge35" class="edge">
<title>Node26&#45;&gt;Node27</title>
<path fill="none" stroke="midnightblue" d="M1694.5,-302.3C1694.5,-293.3 1694.5,-283.65 1694.5,-275.51"/>
<polygon fill="midnightblue" stroke="midnightblue" points="1691,-302.43 1694.5,-312.43 1698,-302.43 1691,-302.43"/>
</g>
<!-- Node28&#45;&gt;Node29 -->
<g id="edge37" class="edge">
<title>Node28&#45;&gt;Node29</title>
<path fill="none" stroke="midnightblue" d="M1444.89,-309.44C1409.69,-298.66 1367.96,-285.87 1334.15,-275.51"/>
<polygon fill="midnightblue" stroke="midnightblue" points="1444.05,-312.84 1454.63,-312.43 1446.1,-306.15 1444.05,-312.84"/>
</g>
<!-- Node30 -->
<g id="node30" class="node">
<title>Node30</title>
<g id="a_node30"><a xlink:href="_quad_node_8cpp.html" target="_top" xlink:title=" ">
<polygon fill="none" stroke="black" points="1439.5,-234.5 1439.5,-275.5 1597.5,-275.5 1597.5,-234.5 1439.5,-234.5"/>
<text text-anchor="start" x="1447.5" y="-263.5" font-family="Helvetica,sans-Serif" font-size="10.00">/home/runner/work/Simulatio</text>
<text text-anchor="start" x="1447.5" y="-252.5" font-family="Helvetica,sans-Serif" font-size="10.00">/Simulatio/src/Structures</text>
<text text-anchor="middle" x="1518.5" y="-241.5" font-family="Helvetica,sans-Serif" font-size="10.00">/QuadNode.cpp</text>
</a>
</g>
</g>
<!-- Node28&#45;&gt;Node30 -->
<g id="edge39" class="edge">
<title>Node28&#45;&gt;Node30</title>
<path fill="none" stroke="midnightblue" d="M1518.5,-302.3C1518.5,-293.3 1518.5,-283.65 1518.5,-275.51"/>
<polygon fill="midnightblue" stroke="midnightblue" points="1515,-302.43 1518.5,-312.43 1522,-302.43 1515,-302.43"/>
</g>
<!-- Node29&#45;&gt;Node3 -->
<g id="edge38" class="edge">
<title>Node29&#45;&gt;Node3</title>
<path fill="none" stroke="midnightblue" d="M1234.79,-228.64C1220.5,-218.49 1204.3,-206.98 1190.96,-197.51"/>
<polygon fill="midnightblue" stroke="midnightblue" points="1232.77,-231.49 1242.94,-234.43 1236.82,-225.78 1232.77,-231.49"/>
</g>
<!-- Node34&#45;&gt;Node4 -->
<g id="edge57" class="edge">
<title>Node34&#45;&gt;Node4</title>
<path fill="none" stroke="midnightblue" d="M1923.22,-536.02C1918.23,-505.06 1911.5,-455.31 1911.5,-412 1911.5,-412 1911.5,-412 1911.5,-254 1911.5,-205.88 1911.5,-149.29 1911.5,-119.93"/>
<polygon fill="midnightblue" stroke="midnightblue" points="1919.81,-536.85 1924.89,-546.14 1926.71,-535.7 1919.81,-536.85"/>
</g>
<!-- Node35 -->
<g id="node35" class="node">
<title>Node35</title>
<g id="a_node35"><a xlink:href="_converter_8cpp.html" target="_top" xlink:title=" ">
<polygon fill="none" stroke="black" points="1939.5,-468.5 1939.5,-509.5 2097.5,-509.5 2097.5,-468.5 1939.5,-468.5"/>
<text text-anchor="start" x="1947.5" y="-497.5" font-family="Helvetica,sans-Serif" font-size="10.00">/home/runner/work/Simulatio</text>
<text text-anchor="start" x="1947.5" y="-486.5" font-family="Helvetica,sans-Serif" font-size="10.00">/Simulatio/src/Renderer</text>
<text text-anchor="middle" x="2018.5" y="-475.5" font-family="Helvetica,sans-Serif" font-size="10.00">/Converter.cpp</text>
</a>
</g>
</g>
<!-- Node34&#45;&gt;Node35 -->
<g id="edge58" class="edge">
<title>Node34&#45;&gt;Node35</title>
<path fill="none" stroke="midnightblue" d="M1959.55,-539.78C1971.32,-529.84 1984.49,-518.72 1995.4,-509.51"/>
<polygon fill="midnightblue" stroke="midnightblue" points="1957.06,-537.3 1951.68,-546.43 1961.58,-542.65 1957.06,-537.3"/>
</g>
</g>
</svg>
