<?xml version="1.0" encoding="UTF-8" standalone="no"?>
<!DOCTYPE svg PUBLIC "-//W3C//DTD SVG 1.1//EN"
 "http://www.w3.org/Graphics/SVG/1.1/DTD/svg11.dtd">
<!-- Generated by graphviz version 2.43.0 (0)
 -->
<!-- Title: /home/runner/work/Simulatio/Simulatio/include/Geometry/Vertices.hpp Pages: 1 -->
<svg width="1548pt" height="674pt"
 viewBox="0.00 0.00 1548.00 674.00" xmlns="http://www.w3.org/2000/svg" xmlns:xlink="http://www.w3.org/1999/xlink">
<g id="graph0" class="graph" transform="scale(1 1) rotate(0) translate(4 670)">
<title>/home/runner/work/Simulatio/Simulatio/include/Geometry/Vertices.hpp</title>
<!-- Node1 -->
<g id="node1" class="node">
<title>Node1</title>
<g id="a_node1"><a xlink:title=" ">
<polygon fill="#bfbfbf" stroke="black" points="592,-624.5 592,-665.5 750,-665.5 750,-624.5 592,-624.5"/>
<text text-anchor="start" x="600" y="-653.5" font-family="Helvetica,sans-Serif" font-size="10.00">/home/runner/work/Simulatio</text>
<text text-anchor="start" x="600" y="-642.5" font-family="Helvetica,sans-Serif" font-size="10.00">/Simulatio/include/Geometry</text>
<text text-anchor="middle" x="671" y="-631.5" font-family="Helvetica,sans-Serif" font-size="10.00">/Vertices.hpp</text>
</a>
</g>
</g>
<!-- Node2 -->
<g id="node2" class="node">
<title>Node2</title>
<g id="a_node2"><a xlink:href="_collision_8hpp.html" target="_top" xlink:title=" ">
<polygon fill="none" stroke="black" points="0,-234.5 0,-275.5 158,-275.5 158,-234.5 0,-234.5"/>
<text text-anchor="start" x="8" y="-263.5" font-family="Helvetica,sans-Serif" font-size="10.00">/home/runner/work/Simulatio</text>
<text text-anchor="start" x="8" y="-252.5" font-family="Helvetica,sans-Serif" font-size="10.00">/Simulatio/include/Geometry</text>
<text text-anchor="middle" x="79" y="-241.5" font-family="Helvetica,sans-Serif" font-size="10.00">/Collision.hpp</text>
</a>
</g>
</g>
<!-- Node1&#45;&gt;Node2 -->
<g id="edge1" class="edge">
<title>Node1&#45;&gt;Node2</title>
<path fill="none" stroke="midnightblue" d="M581.89,-638.97C418.37,-627.27 87,-591.1 87,-490 87,-490 87,-490 87,-410 87,-361.81 83.04,-305.25 80.7,-275.92"/>
<polygon fill="midnightblue" stroke="midnightblue" points="581.72,-642.46 591.94,-639.67 582.2,-635.48 581.72,-642.46"/>
</g>
<!-- Node5 -->
<g id="node5" class="node">
<title>Node5</title>
<g id="a_node5"><a xlink:href="_geometry_8hpp.html" target="_top" xlink:title=" ">
<polygon fill="none" stroke="black" points="1218,-546.5 1218,-587.5 1376,-587.5 1376,-546.5 1218,-546.5"/>
<text text-anchor="start" x="1226" y="-575.5" font-family="Helvetica,sans-Serif" font-size="10.00">/home/runner/work/Simulatio</text>
<text text-anchor="start" x="1226" y="-564.5" font-family="Helvetica,sans-Serif" font-size="10.00">/Simulatio/include/Geometry</text>
<text text-anchor="middle" x="1297" y="-553.5" font-family="Helvetica,sans-Serif" font-size="10.00">/Geometry.hpp</text>
</a>
</g>
</g>
<!-- Node1&#45;&gt;Node5 -->
<g id="edge4" class="edge">
<title>Node1&#45;&gt;Node5</title>
<path fill="none" stroke="midnightblue" d="M760.38,-633.15C882.88,-618.28 1100.99,-591.8 1217.87,-577.61"/>
<polygon fill="midnightblue" stroke="midnightblue" points="759.79,-629.69 750.28,-634.37 760.63,-636.64 759.79,-629.69"/>
</g>
<!-- Node3 -->
<g id="node3" class="node">
<title>Node3</title>
<g id="a_node3"><a xlink:href="_system_8hpp.html" target="_top" xlink:title=" ">
<polygon fill="none" stroke="black" points="617,-78.5 617,-119.5 775,-119.5 775,-78.5 617,-78.5"/>
<text text-anchor="start" x="625" y="-107.5" font-family="Helvetica,sans-Serif" font-size="10.00">/home/runner/work/Simulatio</text>
<text text-anchor="start" x="625" y="-96.5" font-family="Helvetica,sans-Serif" font-size="10.00">/Simulatio/include/Structures</text>
<text text-anchor="middle" x="696" y="-85.5" font-family="Helvetica,sans-Serif" font-size="10.00">/System.hpp</text>
</a>
</g>
</g>
<!-- Node2&#45;&gt;Node3 -->
<g id="edge2" class="edge">
<title>Node2&#45;&gt;Node3</title>
<path fill="none" stroke="midnightblue" d="M112.49,-228.25C144.26,-205.27 194.25,-172.74 243,-156 368.91,-112.76 524.66,-102.15 616.85,-99.97"/>
<polygon fill="midnightblue" stroke="midnightblue" points="110.03,-225.71 104.03,-234.45 114.17,-231.36 110.03,-225.71"/>
</g>
<!-- Node4 -->
<g id="node4" class="node">
<title>Node4</title>
<g id="a_node4"><a xlink:href="_renderer_8hpp.html" target="_top" xlink:title=" ">
<polygon fill="none" stroke="black" points="1275,-0.5 1275,-41.5 1433,-41.5 1433,-0.5 1275,-0.5"/>
<text text-anchor="start" x="1283" y="-29.5" font-family="Helvetica,sans-Serif" font-size="10.00">/home/runner/work/Simulatio</text>
<text text-anchor="start" x="1283" y="-18.5" font-family="Helvetica,sans-Serif" font-size="10.00">/Simulatio/include/Renderer</text>
<text text-anchor="middle" x="1354" y="-7.5" font-family="Helvetica,sans-Serif" font-size="10.00">/Renderer.hpp</text>
</a>
</g>
</g>
<!-- Node3&#45;&gt;Node4 -->
<g id="edge3" class="edge">
<title>Node3&#45;&gt;Node4</title>
<path fill="none" stroke="midnightblue" d="M785.3,-87.69C914.48,-72.77 1151.48,-45.39 1274.77,-31.15"/>
<polygon fill="midnightblue" stroke="midnightblue" points="784.58,-84.25 775.04,-88.87 785.38,-91.2 784.58,-84.25"/>
</g>
<!-- Node5&#45;&gt;Node3 -->
<g id="edge42" class="edge">
<title>Node5&#45;&gt;Node3</title>
<path fill="none" stroke="midnightblue" d="M1302.91,-536.04C1308.48,-505.11 1316,-455.38 1316,-412 1316,-412 1316,-412 1316,-254 1316,-207.12 1314.49,-184.15 1277,-156 1237.72,-126.51 924.71,-109.57 775.1,-103.08"/>
<polygon fill="midnightblue" stroke="midnightblue" points="1299.41,-535.69 1301.03,-546.16 1306.29,-536.97 1299.41,-535.69"/>
</g>
<!-- Node5&#45;&gt;Node4 -->
<g id="edge41" class="edge">
<title>Node5&#45;&gt;Node4</title>
<path fill="none" stroke="midnightblue" d="M1314.56,-537.37C1331.31,-507.29 1354,-458.05 1354,-412 1354,-412 1354,-412 1354,-176 1354,-127.88 1354,-71.29 1354,-41.93"/>
<polygon fill="midnightblue" stroke="midnightblue" points="1311.3,-536.02 1309.37,-546.43 1317.38,-539.5 1311.3,-536.02"/>
</g>
<!-- Node6 -->
<g id="node6" class="node">
<title>Node6</title>
<g id="a_node6"><a xlink:href="_constraint_8hpp.html" target="_top" xlink:title=" ">
<polygon fill="none" stroke="black" points="721.5,-234.5 721.5,-275.5 884.5,-275.5 884.5,-234.5 721.5,-234.5"/>
<text text-anchor="start" x="729.5" y="-263.5" font-family="Helvetica,sans-Serif" font-size="10.00">/home/runner/work/Simulatio</text>
<text text-anchor="start" x="729.5" y="-252.5" font-family="Helvetica,sans-Serif" font-size="10.00">/Simulatio/include/Constraints</text>
<text text-anchor="middle" x="803" y="-241.5" font-family="Helvetica,sans-Serif" font-size="10.00">/Constraint.hpp</text>
</a>
</g>
</g>
<!-- Node5&#45;&gt;Node6 -->
<g id="edge5" class="edge">
<title>Node5&#45;&gt;Node6</title>
<path fill="none" stroke="midnightblue" d="M1257.2,-541.02C1161.53,-480.99 920.26,-329.58 834.14,-275.54"/>
<polygon fill="midnightblue" stroke="midnightblue" points="1255.39,-544.02 1265.72,-546.37 1259.11,-538.09 1255.39,-544.02"/>
</g>
<!-- Node11 -->
<g id="node11" class="node">
<title>Node11</title>
<g id="a_node11"><a xlink:href="_corpse_8hpp.html" target="_top" xlink:title=" ">
<polygon fill="none" stroke="black" points="519,-468.5 519,-509.5 677,-509.5 677,-468.5 519,-468.5"/>
<text text-anchor="start" x="527" y="-497.5" font-family="Helvetica,sans-Serif" font-size="10.00">/home/runner/work/Simulatio</text>
<text text-anchor="start" x="527" y="-486.5" font-family="Helvetica,sans-Serif" font-size="10.00">/Simulatio/include/Corpses</text>
<text text-anchor="middle" x="598" y="-475.5" font-family="Helvetica,sans-Serif" font-size="10.00">/Corpse.hpp</text>
</a>
</g>
</g>
<!-- Node5&#45;&gt;Node11 -->
<g id="edge14" class="edge">
<title>Node5&#45;&gt;Node11</title>
<path fill="none" stroke="midnightblue" d="M1207.74,-556.3C1070.17,-541.34 808.51,-512.89 677.25,-498.62"/>
<polygon fill="midnightblue" stroke="midnightblue" points="1207.52,-559.79 1217.84,-557.39 1208.27,-552.83 1207.52,-559.79"/>
</g>
<!-- Node17 -->
<g id="node17" class="node">
<title>Node17</title>
<g id="a_node17"><a xlink:href="_converter_8hpp.html" target="_top" xlink:title=" ">
<polygon fill="none" stroke="black" points="1382,-390.5 1382,-431.5 1540,-431.5 1540,-390.5 1382,-390.5"/>
<text text-anchor="start" x="1390" y="-419.5" font-family="Helvetica,sans-Serif" font-size="10.00">/home/runner/work/Simulatio</text>
<text text-anchor="start" x="1390" y="-408.5" font-family="Helvetica,sans-Serif" font-size="10.00">/Simulatio/include/Renderer</text>
<text text-anchor="middle" x="1461" y="-397.5" font-family="Helvetica,sans-Serif" font-size="10.00">/Converter.hpp</text>
</a>
</g>
</g>
<!-- Node5&#45;&gt;Node17 -->
<g id="edge39" class="edge">
<title>Node5&#45;&gt;Node17</title>
<path fill="none" stroke="midnightblue" d="M1331.65,-540.28C1343.48,-531.08 1356.6,-520.4 1368,-510 1396.07,-484.39 1425.85,-451.95 1443.94,-431.58"/>
<polygon fill="midnightblue" stroke="midnightblue" points="1329.5,-537.52 1323.7,-546.39 1333.76,-543.07 1329.5,-537.52"/>
</g>
<!-- Node6&#45;&gt;Node3 -->
<g id="edge13" class="edge">
<title>Node6&#45;&gt;Node3</title>
<path fill="none" stroke="midnightblue" d="M748.66,-229.07C735.89,-220.85 723.53,-210.53 715,-198 699,-174.51 695.7,-140.89 695.4,-119.77"/>
<polygon fill="midnightblue" stroke="midnightblue" points="747.15,-232.25 757.52,-234.42 750.77,-226.26 747.15,-232.25"/>
</g>
<!-- Node7 -->
<g id="node7" class="node">
<title>Node7</title>
<g id="a_node7"><a xlink:href="_link_8hpp.html" target="_top" xlink:title=" ">
<polygon fill="none" stroke="black" points="905.5,-156.5 905.5,-197.5 1068.5,-197.5 1068.5,-156.5 905.5,-156.5"/>
<text text-anchor="start" x="913.5" y="-185.5" font-family="Helvetica,sans-Serif" font-size="10.00">/home/runner/work/Simulatio</text>
<text text-anchor="start" x="913.5" y="-174.5" font-family="Helvetica,sans-Serif" font-size="10.00">/Simulatio/include/Constraints</text>
<text text-anchor="middle" x="987" y="-163.5" font-family="Helvetica,sans-Serif" font-size="10.00">/Link.hpp</text>
</a>
</g>
</g>
<!-- Node6&#45;&gt;Node7 -->
<g id="edge6" class="edge">
<title>Node6&#45;&gt;Node7</title>
<path fill="none" stroke="midnightblue" d="M859.63,-230.61C885.31,-220 915.33,-207.6 939.78,-197.51"/>
<polygon fill="midnightblue" stroke="midnightblue" points="858.29,-227.38 850.38,-234.43 860.96,-233.85 858.29,-227.38"/>
</g>
<!-- Node8 -->
<g id="node8" class="node">
<title>Node8</title>
<g id="a_node8"><a xlink:href="_loose_8hpp.html" target="_top" xlink:title=" ">
<polygon fill="none" stroke="black" points="724.5,-156.5 724.5,-197.5 887.5,-197.5 887.5,-156.5 724.5,-156.5"/>
<text text-anchor="start" x="732.5" y="-185.5" font-family="Helvetica,sans-Serif" font-size="10.00">/home/runner/work/Simulatio</text>
<text text-anchor="start" x="732.5" y="-174.5" font-family="Helvetica,sans-Serif" font-size="10.00">/Simulatio/include/Constraints</text>
<text text-anchor="middle" x="806" y="-163.5" font-family="Helvetica,sans-Serif" font-size="10.00">/Loose.hpp</text>
</a>
</g>
</g>
<!-- Node6&#45;&gt;Node8 -->
<g id="edge8" class="edge">
<title>Node6&#45;&gt;Node8</title>
<path fill="none" stroke="midnightblue" d="M804.17,-224.3C804.53,-215.3 804.91,-205.65 805.23,-197.51"/>
<polygon fill="midnightblue" stroke="midnightblue" points="800.67,-224.3 803.77,-234.43 807.66,-224.57 800.67,-224.3"/>
</g>
<!-- Node9 -->
<g id="node9" class="node">
<title>Node9</title>
<g id="a_node9"><a xlink:href="_slider_8hpp.html" target="_top" xlink:title=" ">
<polygon fill="none" stroke="black" points="1086.5,-156.5 1086.5,-197.5 1249.5,-197.5 1249.5,-156.5 1086.5,-156.5"/>
<text text-anchor="start" x="1094.5" y="-185.5" font-family="Helvetica,sans-Serif" font-size="10.00">/home/runner/work/Simulatio</text>
<text text-anchor="start" x="1094.5" y="-174.5" font-family="Helvetica,sans-Serif" font-size="10.00">/Simulatio/include/Constraints</text>
<text text-anchor="middle" x="1168" y="-163.5" font-family="Helvetica,sans-Serif" font-size="10.00">/Slider.hpp</text>
</a>
</g>
</g>
<!-- Node6&#45;&gt;Node9 -->
<g id="edge9" class="edge">
<title>Node6&#45;&gt;Node9</title>
<path fill="none" stroke="midnightblue" d="M894.7,-235.61C947.96,-224.84 1016.32,-210.87 1077,-198 1080.01,-197.36 1083.07,-196.71 1086.16,-196.05"/>
<polygon fill="midnightblue" stroke="midnightblue" points="893.7,-232.24 884.59,-237.65 895.09,-239.1 893.7,-232.24"/>
</g>
<!-- Node10 -->
<g id="node10" class="node">
<title>Node10</title>
<g id="a_node10"><a xlink:href="_spring_8hpp.html" target="_top" xlink:title=" ">
<polygon fill="none" stroke="black" points="504.5,-156.5 504.5,-197.5 667.5,-197.5 667.5,-156.5 504.5,-156.5"/>
<text text-anchor="start" x="512.5" y="-185.5" font-family="Helvetica,sans-Serif" font-size="10.00">/home/runner/work/Simulatio</text>
<text text-anchor="start" x="512.5" y="-174.5" font-family="Helvetica,sans-Serif" font-size="10.00">/Simulatio/include/Constraints</text>
<text text-anchor="middle" x="586" y="-163.5" font-family="Helvetica,sans-Serif" font-size="10.00">/Spring.hpp</text>
</a>
</g>
</g>
<!-- Node6&#45;&gt;Node10 -->
<g id="edge11" class="edge">
<title>Node6&#45;&gt;Node10</title>
<path fill="none" stroke="midnightblue" d="M737.4,-231.03C706.86,-220.33 670.9,-207.73 641.69,-197.51"/>
<polygon fill="midnightblue" stroke="midnightblue" points="736.52,-234.43 747.12,-234.43 738.84,-227.82 736.52,-234.43"/>
</g>
<!-- Node7&#45;&gt;Node3 -->
<g id="edge7" class="edge">
<title>Node7&#45;&gt;Node3</title>
<path fill="none" stroke="midnightblue" d="M902.21,-153.86C860.58,-142.98 810.87,-130 770.69,-119.51"/>
<polygon fill="midnightblue" stroke="midnightblue" points="901.5,-157.29 912.06,-156.43 903.27,-150.51 901.5,-157.29"/>
</g>
<!-- Node9&#45;&gt;Node3 -->
<g id="edge10" class="edge">
<title>Node9&#45;&gt;Node3</title>
<path fill="none" stroke="midnightblue" d="M1076.24,-155.92C966.06,-135.99 850.05,-119.8 775.07,-109.97"/>
<polygon fill="midnightblue" stroke="midnightblue" points="1075.74,-159.39 1086.2,-157.74 1076.99,-152.5 1075.74,-159.39"/>
</g>
<!-- Node10&#45;&gt;Node3 -->
<g id="edge12" class="edge">
<title>Node10&#45;&gt;Node3</title>
<path fill="none" stroke="midnightblue" d="M622.71,-150.64C637.4,-140.49 654.05,-128.98 667.77,-119.51"/>
<polygon fill="midnightblue" stroke="midnightblue" points="620.57,-147.86 614.33,-156.43 624.54,-153.62 620.57,-147.86"/>
</g>
<!-- Node11&#45;&gt;Node2 -->
<g id="edge34" class="edge">
<title>Node11&#45;&gt;Node2</title>
<path fill="none" stroke="midnightblue" d="M508.34,-485.73C399.75,-481.38 224.8,-468.72 172,-432 143.84,-412.42 103.44,-317.39 86.71,-275.68"/>
<polygon fill="midnightblue" stroke="midnightblue" points="508.51,-489.24 518.64,-486.13 508.78,-482.25 508.51,-489.24"/>
</g>
<!-- Node11&#45;&gt;Node3 -->
<g id="edge38" class="edge">
<title>Node11&#45;&gt;Node3</title>
<path fill="none" stroke="midnightblue" d="M687.05,-479.01C835.47,-458.69 1129.75,-394.44 1258,-198 1268.2,-182.37 1270.53,-169.84 1258,-156 1226.21,-120.88 922.16,-106.87 775.01,-102.11"/>
<polygon fill="midnightblue" stroke="midnightblue" points="686.51,-475.55 677.06,-480.34 687.43,-482.49 686.51,-475.55"/>
</g>
<!-- Node11&#45;&gt;Node6 -->
<g id="edge15" class="edge">
<title>Node11&#45;&gt;Node6</title>
<path fill="none" stroke="midnightblue" d="M622.78,-461C631.15,-451.83 640.52,-441.5 649,-432 699.29,-375.66 757.8,-308.28 786.03,-275.64"/>
<polygon fill="midnightblue" stroke="midnightblue" points="620.2,-458.65 616.03,-468.39 625.36,-463.37 620.2,-458.65"/>
</g>
<!-- Node12 -->
<g id="node12" class="node">
<title>Node12</title>
<g id="a_node12"><a xlink:href="_circle_8hpp.html" target="_top" xlink:title=" ">
<polygon fill="none" stroke="black" points="412,-390.5 412,-431.5 570,-431.5 570,-390.5 412,-390.5"/>
<text text-anchor="start" x="420" y="-419.5" font-family="Helvetica,sans-Serif" font-size="10.00">/home/runner/work/Simulatio</text>
<text text-anchor="start" x="420" y="-408.5" font-family="Helvetica,sans-Serif" font-size="10.00">/Simulatio/include/Corpses</text>
<text text-anchor="middle" x="491" y="-397.5" font-family="Helvetica,sans-Serif" font-size="10.00">/Circle.hpp</text>
</a>
</g>
</g>
<!-- Node11&#45;&gt;Node12 -->
<g id="edge16" class="edge">
<title>Node11&#45;&gt;Node12</title>
<path fill="none" stroke="midnightblue" d="M562.29,-462.64C548,-452.49 531.8,-440.98 518.46,-431.51"/>
<polygon fill="midnightblue" stroke="midnightblue" points="560.27,-465.49 570.44,-468.43 564.32,-459.78 560.27,-465.49"/>
</g>
<!-- Node13 -->
<g id="node13" class="node">
<title>Node13</title>
<g id="a_node13"><a xlink:href="_polygon_8hpp.html" target="_top" xlink:title=" ">
<polygon fill="none" stroke="black" points="466,-312.5 466,-353.5 624,-353.5 624,-312.5 466,-312.5"/>
<text text-anchor="start" x="474" y="-341.5" font-family="Helvetica,sans-Serif" font-size="10.00">/home/runner/work/Simulatio</text>
<text text-anchor="start" x="474" y="-330.5" font-family="Helvetica,sans-Serif" font-size="10.00">/Simulatio/include/Corpses</text>
<text text-anchor="middle" x="545" y="-319.5" font-family="Helvetica,sans-Serif" font-size="10.00">/Polygon.hpp</text>
</a>
</g>
</g>
<!-- Node11&#45;&gt;Node13 -->
<g id="edge33" class="edge">
<title>Node11&#45;&gt;Node13</title>
<path fill="none" stroke="midnightblue" d="M595.01,-458.29C592.36,-438.45 587.52,-412.06 579,-390 574.04,-377.16 566.17,-363.95 559.26,-353.58"/>
<polygon fill="midnightblue" stroke="midnightblue" points="591.55,-458.79 596.25,-468.28 598.5,-457.93 591.55,-458.79"/>
</g>
<!-- Node14 -->
<g id="node14" class="node">
<title>Node14</title>
<g id="a_node14"><a xlink:href="_old_quadtree_8hpp.html" target="_top" xlink:title=" ">
<polygon fill="none" stroke="black" points="545,-234.5 545,-275.5 703,-275.5 703,-234.5 545,-234.5"/>
<text text-anchor="start" x="553" y="-263.5" font-family="Helvetica,sans-Serif" font-size="10.00">/home/runner/work/Simulatio</text>
<text text-anchor="start" x="553" y="-252.5" font-family="Helvetica,sans-Serif" font-size="10.00">/Simulatio/include/Structures</text>
<text text-anchor="middle" x="624" y="-241.5" font-family="Helvetica,sans-Serif" font-size="10.00">/OldQuadtree.hpp</text>
</a>
</g>
</g>
<!-- Node11&#45;&gt;Node14 -->
<g id="edge35" class="edge">
<title>Node11&#45;&gt;Node14</title>
<path fill="none" stroke="midnightblue" d="M613.36,-459.23C626.58,-432.75 644.64,-391.94 652,-354 655.55,-335.67 656.29,-330.17 652,-312 648.98,-299.2 642.56,-285.99 636.63,-275.62"/>
<polygon fill="midnightblue" stroke="midnightblue" points="610.16,-457.81 608.74,-468.31 616.4,-460.99 610.16,-457.81"/>
</g>
<!-- Node15 -->
<g id="node15" class="node">
<title>Node15</title>
<g id="a_node15"><a xlink:href="_quad_node_8hpp.html" target="_top" xlink:title=" ">
<polygon fill="none" stroke="black" points="214,-234.5 214,-275.5 372,-275.5 372,-234.5 214,-234.5"/>
<text text-anchor="start" x="222" y="-263.5" font-family="Helvetica,sans-Serif" font-size="10.00">/home/runner/work/Simulatio</text>
<text text-anchor="start" x="222" y="-252.5" font-family="Helvetica,sans-Serif" font-size="10.00">/Simulatio/include/Structures</text>
<text text-anchor="middle" x="293" y="-241.5" font-family="Helvetica,sans-Serif" font-size="10.00">/QuadNode.hpp</text>
</a>
</g>
</g>
<!-- Node11&#45;&gt;Node15 -->
<g id="edge36" class="edge">
<title>Node11&#45;&gt;Node15</title>
<path fill="none" stroke="midnightblue" d="M509.12,-474.31C474.02,-465.99 434.61,-452.78 403,-432 344.89,-393.79 311.88,-313.16 299.15,-275.79"/>
<polygon fill="midnightblue" stroke="midnightblue" points="508.37,-477.73 518.89,-476.53 509.92,-470.9 508.37,-477.73"/>
</g>
<!-- Node16 -->
<g id="node16" class="node">
<title>Node16</title>
<g id="a_node16"><a xlink:href="_quadtree_8hpp.html" target="_top" xlink:title=" ">
<polygon fill="none" stroke="black" points="252,-156.5 252,-197.5 410,-197.5 410,-156.5 252,-156.5"/>
<text text-anchor="start" x="260" y="-185.5" font-family="Helvetica,sans-Serif" font-size="10.00">/home/runner/work/Simulatio</text>
<text text-anchor="start" x="260" y="-174.5" font-family="Helvetica,sans-Serif" font-size="10.00">/Simulatio/include/Structures</text>
<text text-anchor="middle" x="331" y="-163.5" font-family="Helvetica,sans-Serif" font-size="10.00">/Quadtree.hpp</text>
</a>
</g>
</g>
<!-- Node11&#45;&gt;Node16 -->
<g id="edge37" class="edge">
<title>Node11&#45;&gt;Node16</title>
<path fill="none" stroke="midnightblue" d="M508.92,-479.75C461.16,-472.37 402.7,-458.4 356,-432 272,-384.51 241.2,-365.45 205,-276 198,-258.7 194.83,-249.65 205,-234 216.02,-217.04 233.5,-205.17 251.96,-196.89"/>
<polygon fill="midnightblue" stroke="midnightblue" points="508.54,-483.23 518.94,-481.23 509.56,-476.31 508.54,-483.23"/>
</g>
<!-- Node12&#45;&gt;Node2 -->
<g id="edge28" class="edge">
<title>Node12&#45;&gt;Node2</title>
<path fill="none" stroke="midnightblue" d="M428.04,-386.92C400.67,-376.86 368.23,-364.89 339,-354 266.68,-327.05 183.2,-295.5 130.75,-275.64"/>
<polygon fill="midnightblue" stroke="midnightblue" points="426.91,-390.24 437.5,-390.4 429.32,-383.67 426.91,-390.24"/>
</g>
<!-- Node12&#45;&gt;Node3 -->
<g id="edge32" class="edge">
<title>Node12&#45;&gt;Node3</title>
<path fill="none" stroke="midnightblue" d="M469.83,-381.85C464.59,-373.34 459.71,-363.67 457,-354 441.11,-297.2 448.93,-188.71 478,-156 496.56,-135.12 562.41,-120.09 616.92,-110.89"/>
<polygon fill="midnightblue" stroke="midnightblue" points="466.93,-383.81 475.34,-390.25 472.79,-379.97 466.93,-383.81"/>
</g>
<!-- Node12&#45;&gt;Node6 -->
<g id="edge17" class="edge">
<title>Node12&#45;&gt;Node6</title>
<path fill="none" stroke="midnightblue" d="M568.45,-387.26C595.46,-378.24 625.6,-366.92 652,-354 698.46,-331.26 747.95,-296.96 777.15,-275.56"/>
<polygon fill="midnightblue" stroke="midnightblue" points="567.06,-384.04 558.65,-390.48 569.24,-390.69 567.06,-384.04"/>
</g>
<!-- Node12&#45;&gt;Node13 -->
<g id="edge18" class="edge">
<title>Node12&#45;&gt;Node13</title>
<path fill="none" stroke="midnightblue" d="M504.52,-381.76C510.8,-372.35 518.28,-362.1 525.16,-353.51"/>
<polygon fill="midnightblue" stroke="midnightblue" points="501.4,-380.13 498.92,-390.43 507.28,-383.93 501.4,-380.13"/>
</g>
<!-- Node12&#45;&gt;Node14 -->
<g id="edge29" class="edge">
<title>Node12&#45;&gt;Node14</title>
<path fill="none" stroke="midnightblue" d="M579.8,-393.22C600.62,-384.92 620.39,-372.52 633,-354 648.86,-330.69 640.54,-296.72 632.62,-275.51"/>
<polygon fill="midnightblue" stroke="midnightblue" points="578.36,-390.02 570.18,-396.75 580.77,-396.59 578.36,-390.02"/>
</g>
<!-- Node12&#45;&gt;Node15 -->
<g id="edge30" class="edge">
<title>Node12&#45;&gt;Node15</title>
<path fill="none" stroke="midnightblue" d="M437.59,-385.73C420.4,-376.84 401.74,-365.99 386,-354 355.39,-330.7 325.84,-297.03 308.54,-275.84"/>
<polygon fill="midnightblue" stroke="midnightblue" points="436.46,-389.08 446.96,-390.47 439.61,-382.83 436.46,-389.08"/>
</g>
<!-- Node12&#45;&gt;Node16 -->
<g id="edge31" class="edge">
<title>Node12&#45;&gt;Node16</title>
<path fill="none" stroke="midnightblue" d="M452.89,-384.02C442.42,-375.44 431.81,-365.19 424,-354 391.58,-307.54 409.96,-282.7 381,-234 373.14,-220.78 361.9,-207.85 352.07,-197.75"/>
<polygon fill="midnightblue" stroke="midnightblue" points="450.79,-386.83 460.82,-390.25 455.11,-381.32 450.79,-386.83"/>
</g>
<!-- Node13&#45;&gt;Node2 -->
<g id="edge21" class="edge">
<title>Node13&#45;&gt;Node2</title>
<path fill="none" stroke="midnightblue" d="M455.93,-317.47C369.82,-303.43 240.6,-282.36 158.05,-268.89"/>
<polygon fill="midnightblue" stroke="midnightblue" points="455.52,-320.95 465.95,-319.11 456.64,-314.04 455.52,-320.95"/>
</g>
<!-- Node13&#45;&gt;Node3 -->
<g id="edge27" class="edge">
<title>Node13&#45;&gt;Node3</title>
<path fill="none" stroke="midnightblue" d="M523.25,-303.86C497.27,-266.59 461.3,-200.38 495,-156 510.12,-136.09 567.34,-121.38 616.89,-112.04"/>
<polygon fill="midnightblue" stroke="midnightblue" points="520.59,-306.16 529.26,-312.25 526.27,-302.08 520.59,-306.16"/>
</g>
<!-- Node13&#45;&gt;Node6 -->
<g id="edge19" class="edge">
<title>Node13&#45;&gt;Node6</title>
<path fill="none" stroke="midnightblue" d="M621.11,-309.58C657.83,-298.76 701.46,-285.91 736.78,-275.51"/>
<polygon fill="midnightblue" stroke="midnightblue" points="620.04,-306.24 611.44,-312.43 622.02,-312.96 620.04,-306.24"/>
</g>
<!-- Node13&#45;&gt;Node12 -->
<g id="edge20" class="edge">
<title>Node13&#45;&gt;Node12</title>
<path fill="none" stroke="midnightblue" d="M531.53,-362.17C525.25,-371.57 517.78,-381.83 510.89,-390.43"/>
<polygon fill="midnightblue" stroke="midnightblue" points="534.64,-363.81 537.12,-353.51 528.76,-360.01 534.64,-363.81"/>
</g>
<!-- Node13&#45;&gt;Node14 -->
<g id="edge22" class="edge">
<title>Node13&#45;&gt;Node14</title>
<path fill="none" stroke="midnightblue" d="M572.55,-305.49C582.81,-295.63 594.24,-284.63 603.72,-275.51"/>
<polygon fill="midnightblue" stroke="midnightblue" points="570.12,-302.97 565.34,-312.43 574.98,-308.02 570.12,-302.97"/>
</g>
<!-- Node13&#45;&gt;Node15 -->
<g id="edge23" class="edge">
<title>Node13&#45;&gt;Node15</title>
<path fill="none" stroke="midnightblue" d="M470.2,-309.44C434.44,-298.66 392.03,-285.87 357.68,-275.51"/>
<polygon fill="midnightblue" stroke="midnightblue" points="469.52,-312.89 480.1,-312.43 471.54,-306.19 469.52,-312.89"/>
</g>
<!-- Node13&#45;&gt;Node16 -->
<g id="edge26" class="edge">
<title>Node13&#45;&gt;Node16</title>
<path fill="none" stroke="midnightblue" d="M511.56,-306.28C485.28,-286.24 447.63,-257.9 414,-234 396.57,-221.61 376.73,-208.2 360.82,-197.61"/>
<polygon fill="midnightblue" stroke="midnightblue" points="509.6,-309.18 519.67,-312.47 513.85,-303.62 509.6,-309.18"/>
</g>
<!-- Node15&#45;&gt;Node16 -->
<g id="edge24" class="edge">
<title>Node15&#45;&gt;Node16</title>
<path fill="none" stroke="midnightblue" d="M307.27,-225.47C311.93,-216.14 317,-206.01 321.25,-197.51"/>
<polygon fill="midnightblue" stroke="midnightblue" points="304.13,-223.92 302.79,-234.43 310.39,-227.05 304.13,-223.92"/>
</g>
<!-- Node16&#45;&gt;Node3 -->
<g id="edge25" class="edge">
<title>Node16&#45;&gt;Node3</title>
<path fill="none" stroke="midnightblue" d="M420.15,-156.81C421.44,-156.54 422.73,-156.27 424,-156 488.87,-142.35 562.52,-127.21 616.81,-116.11"/>
<polygon fill="midnightblue" stroke="midnightblue" points="419.2,-153.44 410.14,-158.93 420.65,-160.28 419.2,-153.44"/>
</g>
<!-- Node17&#45;&gt;Node4 -->
<g id="edge40" class="edge">
<title>Node17&#45;&gt;Node4</title>
<path fill="none" stroke="midnightblue" d="M1450.26,-380.76C1439.97,-350.12 1426,-300.34 1426,-256 1426,-256 1426,-256 1426,-176 1426,-123.47 1391.19,-69.53 1369.98,-41.55"/>
<polygon fill="midnightblue" stroke="midnightblue" points="1447.01,-382.08 1453.58,-390.39 1453.62,-379.79 1447.01,-382.08"/>
</g>
</g>
</svg>
