<?xml version="1.0" encoding="UTF-8" standalone="no"?>
<!DOCTYPE svg PUBLIC "-//W3C//DTD SVG 1.1//EN"
 "http://www.w3.org/Graphics/SVG/1.1/DTD/svg11.dtd">
<!-- Generated by graphviz version 2.43.0 (0)
 -->
<!-- Title: /home/runner/work/Simulatio/Simulatio/include/Geometry/Vertices.hpp Pages: 1 -->
<svg width="835pt" height="274pt"
 viewBox="0.00 0.00 834.50 274.00" xmlns="http://www.w3.org/2000/svg" xmlns:xlink="http://www.w3.org/1999/xlink">
<g id="graph0" class="graph" transform="scale(1 1) rotate(0) translate(4 270)">
<title>/home/runner/work/Simulatio/Simulatio/include/Geometry/Vertices.hpp</title>
<!-- Node1 -->
<g id="node1" class="node">
<title>Node1</title>
<g id="a_node1"><a xlink:title=" ">
<polygon fill="#bfbfbf" stroke="black" points="317,-224.5 317,-265.5 475,-265.5 475,-224.5 317,-224.5"/>
<text text-anchor="start" x="325" y="-253.5" font-family="Helvetica,sans-Serif" font-size="10.00">/home/runner/work/Simulatio</text>
<text text-anchor="start" x="325" y="-242.5" font-family="Helvetica,sans-Serif" font-size="10.00">/Simulatio/include/Geometry</text>
<text text-anchor="middle" x="396" y="-231.5" font-family="Helvetica,sans-Serif" font-size="10.00">/Vertices.hpp</text>
</a>
</g>
</g>
<!-- Node2 -->
<g id="node2" class="node">
<title>Node2</title>
<g id="a_node2"><a xlink:href="_bounds_8hpp.html" target="_top" xlink:title=" ">
<polygon fill="none" stroke="black" points="294,-168.5 294,-187.5 368,-187.5 368,-168.5 294,-168.5"/>
<text text-anchor="middle" x="331" y="-175.5" font-family="Helvetica,sans-Serif" font-size="10.00">Bounds.hpp</text>
</a>
</g>
</g>
<!-- Node1&#45;&gt;Node2 -->
<g id="edge1" class="edge">
<title>Node1&#45;&gt;Node2</title>
<path fill="none" stroke="midnightblue" d="M376.5,-224.5C367.01,-215.01 355.76,-203.76 346.81,-194.81"/>
<polygon fill="midnightblue" stroke="midnightblue" points="349.2,-192.25 339.65,-187.65 344.25,-197.2 349.2,-192.25"/>
</g>
<!-- Node3 -->
<g id="node3" class="node">
<title>Node3</title>
<g id="a_node3"><a xlink:href="_maths_8hpp.html" target="_top" xlink:title=" ">
<polygon fill="none" stroke="black" points="348,-56.5 348,-75.5 416,-75.5 416,-56.5 348,-56.5"/>
<text text-anchor="middle" x="382" y="-63.5" font-family="Helvetica,sans-Serif" font-size="10.00">Maths.hpp</text>
</a>
</g>
</g>
<!-- Node1&#45;&gt;Node3 -->
<g id="edge16" class="edge">
<title>Node1&#45;&gt;Node3</title>
<path fill="none" stroke="midnightblue" d="M407.46,-224.16C421.12,-197.8 440.28,-150.11 425,-112 420.32,-100.33 411.01,-89.97 402.24,-82.14"/>
<polygon fill="midnightblue" stroke="midnightblue" points="404.42,-79.4 394.5,-75.7 399.95,-84.78 404.42,-79.4"/>
</g>
<!-- Node15 -->
<g id="node15" class="node">
<title>Node15</title>
<g id="a_node15"><a xlink:href="_vector_8hpp.html" target="_top" xlink:title=" ">
<polygon fill="none" stroke="black" points="348,-112.5 348,-131.5 416,-131.5 416,-112.5 348,-112.5"/>
<text text-anchor="middle" x="382" y="-119.5" font-family="Helvetica,sans-Serif" font-size="10.00">Vector.hpp</text>
</a>
</g>
</g>
<!-- Node1&#45;&gt;Node15 -->
<g id="edge17" class="edge">
<title>Node1&#45;&gt;Node15</title>
<path fill="none" stroke="midnightblue" d="M393.72,-224.29C391.08,-201.48 386.77,-164.19 384.17,-141.78"/>
<polygon fill="midnightblue" stroke="midnightblue" points="387.62,-141.11 382.99,-131.57 380.66,-141.91 387.62,-141.11"/>
</g>
<!-- Node2&#45;&gt;Node3 -->
<g id="edge2" class="edge">
<title>Node2&#45;&gt;Node3</title>
<path fill="none" stroke="midnightblue" d="M330.38,-168.11C329.84,-155.12 330.24,-130.49 339,-112 344.46,-100.49 354.01,-90.03 362.73,-82.11"/>
<polygon fill="midnightblue" stroke="midnightblue" points="365.03,-84.74 370.35,-75.58 360.48,-79.42 365.03,-84.74"/>
</g>
<!-- Node2&#45;&gt;Node15 -->
<g id="edge14" class="edge">
<title>Node2&#45;&gt;Node15</title>
<path fill="none" stroke="midnightblue" d="M339.42,-168.08C346.85,-160.22 357.85,-148.57 366.81,-139.08"/>
<polygon fill="midnightblue" stroke="midnightblue" points="369.41,-141.42 373.74,-131.75 364.32,-136.62 369.41,-141.42"/>
</g>
<!-- Node4 -->
<g id="node4" class="node">
<title>Node4</title>
<g id="a_node4"><a xlink:title=" ">
<polygon fill="none" stroke="#bfbfbf" points="0,-0.5 0,-19.5 42,-19.5 42,-0.5 0,-0.5"/>
<text text-anchor="middle" x="21" y="-7.5" font-family="Helvetica,sans-Serif" font-size="10.00">array</text>
</a>
</g>
</g>
<!-- Node3&#45;&gt;Node4 -->
<g id="edge3" class="edge">
<title>Node3&#45;&gt;Node4</title>
<path fill="none" stroke="midnightblue" d="M347.86,-62.13C289.2,-56.83 165.4,-43.96 52.08,-19.94"/>
<polygon fill="midnightblue" stroke="midnightblue" points="52.71,-16.49 42.2,-17.81 51.24,-23.33 52.71,-16.49"/>
</g>
<!-- Node5 -->
<g id="node5" class="node">
<title>Node5</title>
<g id="a_node5"><a xlink:title=" ">
<polygon fill="none" stroke="#bfbfbf" points="60,-0.5 60,-19.5 110,-19.5 110,-0.5 60,-0.5"/>
<text text-anchor="middle" x="85" y="-7.5" font-family="Helvetica,sans-Serif" font-size="10.00">chrono</text>
</a>
</g>
</g>
<!-- Node3&#45;&gt;Node5 -->
<g id="edge4" class="edge">
<title>Node3&#45;&gt;Node5</title>
<path fill="none" stroke="midnightblue" d="M347.77,-60.14C299.22,-53.03 207.42,-38.79 120,-20.06"/>
<polygon fill="midnightblue" stroke="midnightblue" points="120.7,-16.63 110.19,-17.94 119.22,-23.47 120.7,-16.63"/>
</g>
<!-- Node6 -->
<g id="node6" class="node">
<title>Node6</title>
<g id="a_node6"><a xlink:title=" ">
<polygon fill="none" stroke="#bfbfbf" points="128.5,-0.5 128.5,-19.5 175.5,-19.5 175.5,-0.5 128.5,-0.5"/>
<text text-anchor="middle" x="152" y="-7.5" font-family="Helvetica,sans-Serif" font-size="10.00">cmath</text>
</a>
</g>
</g>
<!-- Node3&#45;&gt;Node6 -->
<g id="edge5" class="edge">
<title>Node3&#45;&gt;Node6</title>
<path fill="none" stroke="midnightblue" d="M347.89,-57.8C310.34,-49.75 247.97,-36.03 185.72,-20.35"/>
<polygon fill="midnightblue" stroke="midnightblue" points="186.28,-16.88 175.73,-17.82 184.56,-23.67 186.28,-16.88"/>
</g>
<!-- Node7 -->
<g id="node7" class="node">
<title>Node7</title>
<g id="a_node7"><a xlink:title=" ">
<polygon fill="none" stroke="#bfbfbf" points="193.5,-0.5 193.5,-19.5 258.5,-19.5 258.5,-0.5 193.5,-0.5"/>
<text text-anchor="middle" x="226" y="-7.5" font-family="Helvetica,sans-Serif" font-size="10.00">functional</text>
</a>
</g>
</g>
<!-- Node3&#45;&gt;Node7 -->
<g id="edge6" class="edge">
<title>Node3&#45;&gt;Node7</title>
<path fill="none" stroke="midnightblue" d="M357.28,-56.44C331.15,-47.4 289.74,-33.06 260.42,-22.92"/>
<polygon fill="midnightblue" stroke="midnightblue" points="261.2,-19.48 250.6,-19.52 258.91,-26.1 261.2,-19.48"/>
</g>
<!-- Node8 -->
<g id="node8" class="node">
<title>Node8</title>
<g id="a_node8"><a xlink:title=" ">
<polygon fill="none" stroke="#bfbfbf" points="277,-0.5 277,-19.5 337,-19.5 337,-0.5 277,-0.5"/>
<text text-anchor="middle" x="307" y="-7.5" font-family="Helvetica,sans-Serif" font-size="10.00">iostream</text>
</a>
</g>
</g>
<!-- Node3&#45;&gt;Node8 -->
<g id="edge7" class="edge">
<title>Node3&#45;&gt;Node8</title>
<path fill="none" stroke="midnightblue" d="M369.95,-56.32C358.54,-48.11 341.17,-35.6 327.57,-25.81"/>
<polygon fill="midnightblue" stroke="midnightblue" points="329.43,-22.84 319.27,-19.83 325.34,-28.52 329.43,-22.84"/>
</g>
<!-- Node9 -->
<g id="node9" class="node">
<title>Node9</title>
<g id="a_node9"><a xlink:title=" ">
<polygon fill="none" stroke="#bfbfbf" points="355.5,-0.5 355.5,-19.5 408.5,-19.5 408.5,-0.5 355.5,-0.5"/>
<text text-anchor="middle" x="382" y="-7.5" font-family="Helvetica,sans-Serif" font-size="10.00">iterator</text>
</a>
</g>
</g>
<!-- Node3&#45;&gt;Node9 -->
<g id="edge8" class="edge">
<title>Node3&#45;&gt;Node9</title>
<path fill="none" stroke="midnightblue" d="M382,-56.08C382,-49.01 382,-38.86 382,-29.99"/>
<polygon fill="midnightblue" stroke="midnightblue" points="385.5,-29.75 382,-19.75 378.5,-29.75 385.5,-29.75"/>
</g>
<!-- Node10 -->
<g id="node10" class="node">
<title>Node10</title>
<g id="a_node10"><a xlink:title=" ">
<polygon fill="none" stroke="#bfbfbf" points="427,-0.5 427,-19.5 485,-19.5 485,-0.5 427,-0.5"/>
<text text-anchor="middle" x="456" y="-7.5" font-family="Helvetica,sans-Serif" font-size="10.00">memory</text>
</a>
</g>
</g>
<!-- Node3&#45;&gt;Node10 -->
<g id="edge9" class="edge">
<title>Node3&#45;&gt;Node10</title>
<path fill="none" stroke="midnightblue" d="M393.89,-56.32C405.15,-48.11 422.29,-35.6 435.71,-25.81"/>
<polygon fill="midnightblue" stroke="midnightblue" points="437.88,-28.56 443.89,-19.83 433.75,-22.9 437.88,-28.56"/>
</g>
<!-- Node11 -->
<g id="node11" class="node">
<title>Node11</title>
<g id="a_node11"><a xlink:title=" ">
<polygon fill="none" stroke="#bfbfbf" points="503,-0.5 503,-19.5 559,-19.5 559,-0.5 503,-0.5"/>
<text text-anchor="middle" x="531" y="-7.5" font-family="Helvetica,sans-Serif" font-size="10.00">sstream</text>
</a>
</g>
</g>
<!-- Node3&#45;&gt;Node11 -->
<g id="edge10" class="edge">
<title>Node3&#45;&gt;Node11</title>
<path fill="none" stroke="midnightblue" d="M405.61,-56.44C430.46,-47.44 469.77,-33.19 497.75,-23.05"/>
<polygon fill="midnightblue" stroke="midnightblue" points="499.29,-26.21 507.5,-19.52 496.91,-19.63 499.29,-26.21"/>
</g>
<!-- Node12 -->
<g id="node12" class="node">
<title>Node12</title>
<g id="a_node12"><a xlink:title=" ">
<polygon fill="none" stroke="#bfbfbf" points="577.5,-0.5 577.5,-19.5 650.5,-19.5 650.5,-0.5 577.5,-0.5"/>
<text text-anchor="middle" x="614" y="-7.5" font-family="Helvetica,sans-Serif" font-size="10.00">string_view</text>
</a>
</g>
</g>
<!-- Node3&#45;&gt;Node12 -->
<g id="edge11" class="edge">
<title>Node3&#45;&gt;Node12</title>
<path fill="none" stroke="midnightblue" d="M416.23,-57.03C456.31,-47.7 522.88,-32.21 567.58,-21.8"/>
<polygon fill="midnightblue" stroke="midnightblue" points="568.38,-25.21 577.33,-19.54 566.79,-18.39 568.38,-25.21"/>
</g>
<!-- Node13 -->
<g id="node13" class="node">
<title>Node13</title>
<g id="a_node13"><a xlink:title=" ">
<polygon fill="none" stroke="#bfbfbf" points="668.5,-0.5 668.5,-19.5 761.5,-19.5 761.5,-0.5 668.5,-0.5"/>
<text text-anchor="middle" x="715" y="-7.5" font-family="Helvetica,sans-Serif" font-size="10.00">unordered_map</text>
</a>
</g>
</g>
<!-- Node3&#45;&gt;Node13 -->
<g id="edge12" class="edge">
<title>Node3&#45;&gt;Node13</title>
<path fill="none" stroke="midnightblue" d="M416.24,-59.48C466.92,-51.3 565.16,-35.43 658.59,-20.23"/>
<polygon fill="midnightblue" stroke="midnightblue" points="659.18,-23.68 668.49,-18.62 658.06,-16.77 659.18,-23.68"/>
</g>
<!-- Node14 -->
<g id="node14" class="node">
<title>Node14</title>
<g id="a_node14"><a xlink:title=" ">
<polygon fill="none" stroke="#bfbfbf" points="779.5,-0.5 779.5,-19.5 826.5,-19.5 826.5,-0.5 779.5,-0.5"/>
<text text-anchor="middle" x="803" y="-7.5" font-family="Helvetica,sans-Serif" font-size="10.00">vector</text>
</a>
</g>
</g>
<!-- Node3&#45;&gt;Node14 -->
<g id="edge13" class="edge">
<title>Node3&#45;&gt;Node14</title>
<path fill="none" stroke="midnightblue" d="M416.1,-62.89C482.46,-58.38 633.65,-46.19 769.19,-20.09"/>
<polygon fill="midnightblue" stroke="midnightblue" points="770.19,-23.46 779.34,-18.11 768.85,-16.59 770.19,-23.46"/>
</g>
<!-- Node15&#45;&gt;Node3 -->
<g id="edge15" class="edge">
<title>Node15&#45;&gt;Node3</title>
<path fill="none" stroke="midnightblue" d="M382,-112.08C382,-105.01 382,-94.86 382,-85.99"/>
<polygon fill="midnightblue" stroke="midnightblue" points="385.5,-85.75 382,-75.75 378.5,-85.75 385.5,-85.75"/>
</g>
</g>
</svg>
