<?xml version="1.0" encoding="UTF-8" standalone="no"?>
<!DOCTYPE svg PUBLIC "-//W3C//DTD SVG 1.1//EN"
 "http://www.w3.org/Graphics/SVG/1.1/DTD/svg11.dtd">
<!-- Generated by graphviz version 2.43.0 (0)
 -->
<!-- Title: /home/runner/work/Simulatio/Simulatio/engine/include/Geometry/Vertices.hpp Pages: 1 -->
<svg width="1694pt" height="674pt"
 viewBox="0.00 0.00 1694.23 674.00" xmlns="http://www.w3.org/2000/svg" xmlns:xlink="http://www.w3.org/1999/xlink">
<g id="graph0" class="graph" transform="scale(1 1) rotate(0) translate(4 670)">
<title>/home/runner/work/Simulatio/Simulatio/engine/include/Geometry/Vertices.hpp</title>
<!-- Node1 -->
<g id="node1" class="node">
<title>Node1</title>
<g id="a_node1"><a xlink:title=" ">
<polygon fill="#bfbfbf" stroke="black" points="795.23,-624.5 795.23,-665.5 953.23,-665.5 953.23,-624.5 795.23,-624.5"/>
<text text-anchor="start" x="803.23" y="-653.5" font-family="Helvetica,sans-Serif" font-size="10.00">/home/runner/work/Simulatio</text>
<text text-anchor="start" x="803.23" y="-642.5" font-family="Helvetica,sans-Serif" font-size="10.00">/Simulatio/engine/include</text>
<text text-anchor="middle" x="874.23" y="-631.5" font-family="Helvetica,sans-Serif" font-size="10.00">/Geometry/Vertices.hpp</text>
</a>
</g>
</g>
<!-- Node2 -->
<g id="node2" class="node">
<title>Node2</title>
<g id="a_node2"><a xlink:href="_collision_8hpp.html" target="_top" xlink:title=" ">
<polygon fill="none" stroke="black" points="629.23,-234.5 629.23,-275.5 787.23,-275.5 787.23,-234.5 629.23,-234.5"/>
<text text-anchor="start" x="637.23" y="-263.5" font-family="Helvetica,sans-Serif" font-size="10.00">/home/runner/work/Simulatio</text>
<text text-anchor="start" x="637.23" y="-252.5" font-family="Helvetica,sans-Serif" font-size="10.00">/Simulatio/engine/include</text>
<text text-anchor="middle" x="708.23" y="-241.5" font-family="Helvetica,sans-Serif" font-size="10.00">/Geometry/Collision.hpp</text>
</a>
</g>
</g>
<!-- Node1&#45;&gt;Node2 -->
<g id="edge1" class="edge">
<title>Node1&#45;&gt;Node2</title>
<path fill="none" stroke="midnightblue" d="M853.5,-616.15C847.49,-607.4 841.21,-597.53 836.23,-588 777.09,-474.97 730.07,-328.27 714.1,-275.76"/>
<polygon fill="midnightblue" stroke="midnightblue" points="850.74,-618.31 859.36,-624.47 856.46,-614.28 850.74,-618.31"/>
</g>
<!-- Node7 -->
<g id="node7" class="node">
<title>Node7</title>
<g id="a_node7"><a xlink:href="_geometry_8hpp.html" target="_top" xlink:title=" ">
<polygon fill="none" stroke="black" points="567.23,-546.5 567.23,-587.5 725.23,-587.5 725.23,-546.5 567.23,-546.5"/>
<text text-anchor="start" x="575.23" y="-575.5" font-family="Helvetica,sans-Serif" font-size="10.00">/home/runner/work/Simulatio</text>
<text text-anchor="start" x="575.23" y="-564.5" font-family="Helvetica,sans-Serif" font-size="10.00">/Simulatio/engine/include</text>
<text text-anchor="middle" x="646.23" y="-553.5" font-family="Helvetica,sans-Serif" font-size="10.00">/Geometry/Geometry.hpp</text>
</a>
</g>
</g>
<!-- Node1&#45;&gt;Node7 -->
<g id="edge6" class="edge">
<title>Node1&#45;&gt;Node7</title>
<path fill="none" stroke="midnightblue" d="M805.72,-621.17C773.54,-610.44 735.56,-597.78 704.75,-587.51"/>
<polygon fill="midnightblue" stroke="midnightblue" points="804.92,-624.59 815.51,-624.43 807.13,-617.95 804.92,-624.59"/>
</g>
<!-- Node28 -->
<g id="node28" class="node">
<title>Node28</title>
<g id="a_node28"><a xlink:href="src_2_geometry_2_vertices_8cpp.html" target="_top" xlink:title=" ">
<polygon fill="none" stroke="black" points="845.73,-546.5 845.73,-587.5 1016.73,-587.5 1016.73,-546.5 845.73,-546.5"/>
<text text-anchor="start" x="853.73" y="-575.5" font-family="Helvetica,sans-Serif" font-size="10.00">/home/runner/work/Simulatio</text>
<text text-anchor="start" x="853.73" y="-564.5" font-family="Helvetica,sans-Serif" font-size="10.00">/Simulatio/engine/src/Geometry</text>
<text text-anchor="middle" x="931.23" y="-553.5" font-family="Helvetica,sans-Serif" font-size="10.00">/Vertices.cpp</text>
</a>
</g>
</g>
<!-- Node1&#45;&gt;Node28 -->
<g id="edge49" class="edge">
<title>Node1&#45;&gt;Node28</title>
<path fill="none" stroke="midnightblue" d="M894.98,-616.34C902.15,-606.78 910.02,-596.27 916.6,-587.51"/>
<polygon fill="midnightblue" stroke="midnightblue" points="892.11,-614.33 888.91,-624.43 897.71,-618.53 892.11,-614.33"/>
</g>
<!-- Node29 -->
<g id="node29" class="node">
<title>Node29</title>
<g id="a_node29"><a xlink:href="test_8hpp.html" target="_top" xlink:title=" ">
<polygon fill="none" stroke="black" points="1035.23,-546.5 1035.23,-587.5 1193.23,-587.5 1193.23,-546.5 1035.23,-546.5"/>
<text text-anchor="start" x="1043.23" y="-575.5" font-family="Helvetica,sans-Serif" font-size="10.00">/home/runner/work/Simulatio</text>
<text text-anchor="start" x="1043.23" y="-564.5" font-family="Helvetica,sans-Serif" font-size="10.00">/Simulatio/engine/tests</text>
<text text-anchor="middle" x="1114.23" y="-553.5" font-family="Helvetica,sans-Serif" font-size="10.00">/test.hpp</text>
</a>
</g>
</g>
<!-- Node1&#45;&gt;Node29 -->
<g id="edge50" class="edge">
<title>Node1&#45;&gt;Node29</title>
<path fill="none" stroke="midnightblue" d="M945.9,-621.3C979.87,-610.55 1020.05,-597.82 1052.63,-587.51"/>
<polygon fill="midnightblue" stroke="midnightblue" points="944.51,-618.07 936.03,-624.43 946.62,-624.75 944.51,-618.07"/>
</g>
<!-- Node3 -->
<g id="node3" class="node">
<title>Node3</title>
<g id="a_node3"><a xlink:href="_system_8hpp.html" target="_top" xlink:title=" ">
<polygon fill="none" stroke="black" points="495.23,-78.5 495.23,-119.5 653.23,-119.5 653.23,-78.5 495.23,-78.5"/>
<text text-anchor="start" x="503.23" y="-107.5" font-family="Helvetica,sans-Serif" font-size="10.00">/home/runner/work/Simulatio</text>
<text text-anchor="start" x="503.23" y="-96.5" font-family="Helvetica,sans-Serif" font-size="10.00">/Simulatio/engine/include</text>
<text text-anchor="middle" x="574.23" y="-85.5" font-family="Helvetica,sans-Serif" font-size="10.00">/Structures/System.hpp</text>
</a>
</g>
</g>
<!-- Node2&#45;&gt;Node3 -->
<g id="edge2" class="edge">
<title>Node2&#45;&gt;Node3</title>
<path fill="none" stroke="midnightblue" d="M708.81,-224.24C707.75,-203.2 703.21,-175.4 688.23,-156 675.76,-139.86 657.42,-128.07 639.07,-119.6"/>
<polygon fill="midnightblue" stroke="midnightblue" points="705.31,-224.35 709.08,-234.25 712.31,-224.16 705.31,-224.35"/>
</g>
<!-- Node6 -->
<g id="node6" class="node">
<title>Node6</title>
<g id="a_node6"><a xlink:href="_collision_8cpp.html" target="_top" xlink:title=" ">
<polygon fill="none" stroke="black" points="508.73,-156.5 508.73,-197.5 679.73,-197.5 679.73,-156.5 508.73,-156.5"/>
<text text-anchor="start" x="516.73" y="-185.5" font-family="Helvetica,sans-Serif" font-size="10.00">/home/runner/work/Simulatio</text>
<text text-anchor="start" x="516.73" y="-174.5" font-family="Helvetica,sans-Serif" font-size="10.00">/Simulatio/engine/src/Geometry</text>
<text text-anchor="middle" x="594.23" y="-163.5" font-family="Helvetica,sans-Serif" font-size="10.00">/Collision.cpp</text>
</a>
</g>
</g>
<!-- Node2&#45;&gt;Node6 -->
<g id="edge5" class="edge">
<title>Node2&#45;&gt;Node6</title>
<path fill="none" stroke="midnightblue" d="M670.18,-228.64C654.96,-218.49 637.7,-206.98 623.49,-197.51"/>
<polygon fill="midnightblue" stroke="midnightblue" points="668.61,-231.79 678.87,-234.43 672.49,-225.97 668.61,-231.79"/>
</g>
<!-- Node4 -->
<g id="node4" class="node">
<title>Node4</title>
<g id="a_node4"><a xlink:href="_system_8cpp.html" target="_top" xlink:title=" ">
<polygon fill="none" stroke="black" points="397.23,-0.5 397.23,-41.5 569.23,-41.5 569.23,-0.5 397.23,-0.5"/>
<text text-anchor="start" x="405.23" y="-29.5" font-family="Helvetica,sans-Serif" font-size="10.00">/home/runner/work/Simulatio</text>
<text text-anchor="start" x="405.23" y="-18.5" font-family="Helvetica,sans-Serif" font-size="10.00">/Simulatio/engine/src/Structures</text>
<text text-anchor="middle" x="483.23" y="-7.5" font-family="Helvetica,sans-Serif" font-size="10.00">/System.cpp</text>
</a>
</g>
</g>
<!-- Node3&#45;&gt;Node4 -->
<g id="edge3" class="edge">
<title>Node3&#45;&gt;Node4</title>
<path fill="none" stroke="midnightblue" d="M542.83,-71.78C530.94,-61.84 517.61,-50.72 506.58,-41.51"/>
<polygon fill="midnightblue" stroke="midnightblue" points="540.87,-74.7 550.79,-78.43 545.36,-69.33 540.87,-74.7"/>
</g>
<!-- Node5 -->
<g id="node5" class="node">
<title>Node5</title>
<g id="a_node5"><a xlink:href="engine_2src_2main_2main_8cpp.html" target="_top" xlink:title=" ">
<polygon fill="none" stroke="black" points="587.23,-0.5 587.23,-41.5 745.23,-41.5 745.23,-0.5 587.23,-0.5"/>
<text text-anchor="start" x="595.23" y="-29.5" font-family="Helvetica,sans-Serif" font-size="10.00">/home/runner/work/Simulatio</text>
<text text-anchor="start" x="595.23" y="-18.5" font-family="Helvetica,sans-Serif" font-size="10.00">/Simulatio/engine/src/main</text>
<text text-anchor="middle" x="666.23" y="-7.5" font-family="Helvetica,sans-Serif" font-size="10.00">/main.cpp</text>
</a>
</g>
</g>
<!-- Node3&#45;&gt;Node5 -->
<g id="edge4" class="edge">
<title>Node3&#45;&gt;Node5</title>
<path fill="none" stroke="midnightblue" d="M605.97,-71.78C618,-61.84 631.47,-50.72 642.62,-41.51"/>
<polygon fill="midnightblue" stroke="midnightblue" points="603.4,-69.36 597.92,-78.43 607.86,-74.76 603.4,-69.36"/>
</g>
<!-- Node7&#45;&gt;Node3 -->
<g id="edge47" class="edge">
<title>Node7&#45;&gt;Node3</title>
<path fill="none" stroke="midnightblue" d="M556.92,-563.23C379.64,-555.29 0.23,-525.1 0.23,-412 0.23,-412 0.23,-412 0.23,-254 0.23,-208.18 -3.43,-184.78 32.23,-156 67.47,-127.56 353.28,-110.33 495.06,-103.46"/>
<polygon fill="midnightblue" stroke="midnightblue" points="556.87,-566.73 567.02,-563.67 557.18,-559.74 556.87,-566.73"/>
</g>
<!-- Node8 -->
<g id="node8" class="node">
<title>Node8</title>
<g id="a_node8"><a xlink:href="_constraint_8hpp.html" target="_top" xlink:title=" ">
<polygon fill="none" stroke="black" points="805.23,-234.5 805.23,-275.5 963.23,-275.5 963.23,-234.5 805.23,-234.5"/>
<text text-anchor="start" x="813.23" y="-263.5" font-family="Helvetica,sans-Serif" font-size="10.00">/home/runner/work/Simulatio</text>
<text text-anchor="start" x="813.23" y="-252.5" font-family="Helvetica,sans-Serif" font-size="10.00">/Simulatio/engine/include</text>
<text text-anchor="middle" x="884.23" y="-241.5" font-family="Helvetica,sans-Serif" font-size="10.00">/Constraints/Constraint.hpp</text>
</a>
</g>
</g>
<!-- Node7&#45;&gt;Node8 -->
<g id="edge7" class="edge">
<title>Node7&#45;&gt;Node8</title>
<path fill="none" stroke="midnightblue" d="M698.33,-541.39C713.01,-532.83 728.24,-522.25 740.23,-510 811.67,-437 859.86,-321.55 877.14,-275.71"/>
<polygon fill="midnightblue" stroke="midnightblue" points="696.3,-538.51 689.29,-546.45 699.73,-544.62 696.3,-538.51"/>
</g>
<!-- Node18 -->
<g id="node18" class="node">
<title>Node18</title>
<g id="a_node18"><a xlink:href="_corpse_8hpp.html" target="_top" xlink:title=" ">
<polygon fill="none" stroke="black" points="365.23,-468.5 365.23,-509.5 523.23,-509.5 523.23,-468.5 365.23,-468.5"/>
<text text-anchor="start" x="373.23" y="-497.5" font-family="Helvetica,sans-Serif" font-size="10.00">/home/runner/work/Simulatio</text>
<text text-anchor="start" x="373.23" y="-486.5" font-family="Helvetica,sans-Serif" font-size="10.00">/Simulatio/engine/include</text>
<text text-anchor="middle" x="444.23" y="-475.5" font-family="Helvetica,sans-Serif" font-size="10.00">/Corpses/Corpse.hpp</text>
</a>
</g>
</g>
<!-- Node7&#45;&gt;Node18 -->
<g id="edge21" class="edge">
<title>Node7&#45;&gt;Node18</title>
<path fill="none" stroke="midnightblue" d="M584.8,-542.89C556.44,-532.22 523.14,-519.69 496.07,-509.51"/>
<polygon fill="midnightblue" stroke="midnightblue" points="583.62,-546.18 594.21,-546.43 586.08,-539.63 583.62,-546.18"/>
</g>
<!-- Node27 -->
<g id="node27" class="node">
<title>Node27</title>
<g id="a_node27"><a xlink:href="_geometry_8cpp.html" target="_top" xlink:title=" ">
<polygon fill="none" stroke="black" points="560.73,-468.5 560.73,-509.5 731.73,-509.5 731.73,-468.5 560.73,-468.5"/>
<text text-anchor="start" x="568.73" y="-497.5" font-family="Helvetica,sans-Serif" font-size="10.00">/home/runner/work/Simulatio</text>
<text text-anchor="start" x="568.73" y="-486.5" font-family="Helvetica,sans-Serif" font-size="10.00">/Simulatio/engine/src/Geometry</text>
<text text-anchor="middle" x="646.23" y="-475.5" font-family="Helvetica,sans-Serif" font-size="10.00">/Geometry.cpp</text>
</a>
</g>
</g>
<!-- Node7&#45;&gt;Node27 -->
<g id="edge48" class="edge">
<title>Node7&#45;&gt;Node27</title>
<path fill="none" stroke="midnightblue" d="M646.23,-536.3C646.23,-527.3 646.23,-517.65 646.23,-509.51"/>
<polygon fill="midnightblue" stroke="midnightblue" points="642.73,-536.43 646.23,-546.43 649.73,-536.43 642.73,-536.43"/>
</g>
<!-- Node8&#45;&gt;Node3 -->
<g id="edge19" class="edge">
<title>Node8&#45;&gt;Node3</title>
<path fill="none" stroke="midnightblue" d="M827.02,-230.18C806.97,-221.04 784.63,-209.91 765.23,-198 739.31,-182.1 737.55,-171.23 711.23,-156 686.32,-141.59 656.98,-129.07 631.86,-119.54"/>
<polygon fill="midnightblue" stroke="midnightblue" points="825.8,-233.47 836.35,-234.38 828.66,-227.09 825.8,-233.47"/>
</g>
<!-- Node9 -->
<g id="node9" class="node">
<title>Node9</title>
<g id="a_node9"><a xlink:href="_link_8hpp.html" target="_top" xlink:title=" ">
<polygon fill="none" stroke="black" points="774.23,-156.5 774.23,-197.5 932.23,-197.5 932.23,-156.5 774.23,-156.5"/>
<text text-anchor="start" x="782.23" y="-185.5" font-family="Helvetica,sans-Serif" font-size="10.00">/home/runner/work/Simulatio</text>
<text text-anchor="start" x="782.23" y="-174.5" font-family="Helvetica,sans-Serif" font-size="10.00">/Simulatio/engine/include</text>
<text text-anchor="middle" x="853.23" y="-163.5" font-family="Helvetica,sans-Serif" font-size="10.00">/Constraints/Link.hpp</text>
</a>
</g>
</g>
<!-- Node8&#45;&gt;Node9 -->
<g id="edge8" class="edge">
<title>Node8&#45;&gt;Node9</title>
<path fill="none" stroke="midnightblue" d="M872.35,-224.88C868.61,-215.72 864.58,-205.83 861.18,-197.51"/>
<polygon fill="midnightblue" stroke="midnightblue" points="869.23,-226.49 876.25,-234.43 875.71,-223.85 869.23,-226.49"/>
</g>
<!-- Node11 -->
<g id="node11" class="node">
<title>Node11</title>
<g id="a_node11"><a xlink:href="_loose_8hpp.html" target="_top" xlink:title=" ">
<polygon fill="none" stroke="black" points="1508.23,-156.5 1508.23,-197.5 1666.23,-197.5 1666.23,-156.5 1508.23,-156.5"/>
<text text-anchor="start" x="1516.23" y="-185.5" font-family="Helvetica,sans-Serif" font-size="10.00">/home/runner/work/Simulatio</text>
<text text-anchor="start" x="1516.23" y="-174.5" font-family="Helvetica,sans-Serif" font-size="10.00">/Simulatio/engine/include</text>
<text text-anchor="middle" x="1587.23" y="-163.5" font-family="Helvetica,sans-Serif" font-size="10.00">/Constraints/Loose.hpp</text>
</a>
</g>
</g>
<!-- Node8&#45;&gt;Node11 -->
<g id="edge11" class="edge">
<title>Node8&#45;&gt;Node11</title>
<path fill="none" stroke="midnightblue" d="M973.45,-248.79C1091.79,-241.19 1306.97,-224.95 1489.23,-198 1495.41,-197.09 1501.8,-196.03 1508.2,-194.9"/>
<polygon fill="midnightblue" stroke="midnightblue" points="973.11,-245.31 963.35,-249.44 973.56,-252.29 973.11,-245.31"/>
</g>
<!-- Node13 -->
<g id="node13" class="node">
<title>Node13</title>
<g id="a_node13"><a xlink:href="_slider_8hpp.html" target="_top" xlink:title=" ">
<polygon fill="none" stroke="black" points="1146.23,-156.5 1146.23,-197.5 1304.23,-197.5 1304.23,-156.5 1146.23,-156.5"/>
<text text-anchor="start" x="1154.23" y="-185.5" font-family="Helvetica,sans-Serif" font-size="10.00">/home/runner/work/Simulatio</text>
<text text-anchor="start" x="1154.23" y="-174.5" font-family="Helvetica,sans-Serif" font-size="10.00">/Simulatio/engine/include</text>
<text text-anchor="middle" x="1225.23" y="-163.5" font-family="Helvetica,sans-Serif" font-size="10.00">/Constraints/Slider.hpp</text>
</a>
</g>
</g>
<!-- Node8&#45;&gt;Node13 -->
<g id="edge13" class="edge">
<title>Node8&#45;&gt;Node13</title>
<path fill="none" stroke="midnightblue" d="M973.29,-234.42C1021.78,-223.72 1082.81,-210.21 1137.23,-198 1140.13,-197.35 1143.09,-196.68 1146.08,-196.01"/>
<polygon fill="midnightblue" stroke="midnightblue" points="972.46,-231.01 963.45,-236.58 973.97,-237.85 972.46,-231.01"/>
</g>
<!-- Node15 -->
<g id="node15" class="node">
<title>Node15</title>
<g id="a_node15"><a xlink:href="_spring_8hpp.html" target="_top" xlink:title=" ">
<polygon fill="none" stroke="black" points="1322.23,-156.5 1322.23,-197.5 1480.23,-197.5 1480.23,-156.5 1322.23,-156.5"/>
<text text-anchor="start" x="1330.23" y="-185.5" font-family="Helvetica,sans-Serif" font-size="10.00">/home/runner/work/Simulatio</text>
<text text-anchor="start" x="1330.23" y="-174.5" font-family="Helvetica,sans-Serif" font-size="10.00">/Simulatio/engine/include</text>
<text text-anchor="middle" x="1401.23" y="-163.5" font-family="Helvetica,sans-Serif" font-size="10.00">/Constraints/Spring.hpp</text>
</a>
</g>
</g>
<!-- Node8&#45;&gt;Node15 -->
<g id="edge16" class="edge">
<title>Node8&#45;&gt;Node15</title>
<path fill="none" stroke="midnightblue" d="M973.35,-244.83C1060.38,-235.3 1196.4,-218.85 1313.23,-198 1316.16,-197.48 1319.14,-196.92 1322.15,-196.34"/>
<polygon fill="midnightblue" stroke="midnightblue" points="972.81,-241.37 963.24,-245.93 973.56,-248.33 972.81,-241.37"/>
</g>
<!-- Node17 -->
<g id="node17" class="node">
<title>Node17</title>
<g id="a_node17"><a xlink:href="_constraint_8cpp.html" target="_top" xlink:title=" ">
<polygon fill="none" stroke="black" points="950.23,-156.5 950.23,-197.5 1128.23,-197.5 1128.23,-156.5 950.23,-156.5"/>
<text text-anchor="start" x="958.23" y="-185.5" font-family="Helvetica,sans-Serif" font-size="10.00">/home/runner/work/Simulatio</text>
<text text-anchor="start" x="958.23" y="-174.5" font-family="Helvetica,sans-Serif" font-size="10.00">/Simulatio/engine/src/Constraints</text>
<text text-anchor="middle" x="1039.23" y="-163.5" font-family="Helvetica,sans-Serif" font-size="10.00">/Constraint.cpp</text>
</a>
</g>
</g>
<!-- Node8&#45;&gt;Node17 -->
<g id="edge20" class="edge">
<title>Node8&#45;&gt;Node17</title>
<path fill="none" stroke="midnightblue" d="M933.36,-229.91C954.68,-219.46 979.31,-207.38 999.45,-197.51"/>
<polygon fill="midnightblue" stroke="midnightblue" points="931.58,-226.88 924.14,-234.43 934.66,-233.17 931.58,-226.88"/>
</g>
<!-- Node9&#45;&gt;Node3 -->
<g id="edge9" class="edge">
<title>Node9&#45;&gt;Node3</title>
<path fill="none" stroke="midnightblue" d="M771.68,-153.79C731.82,-142.93 684.28,-129.98 645.83,-119.51"/>
<polygon fill="midnightblue" stroke="midnightblue" points="770.81,-157.18 781.38,-156.43 772.65,-150.42 770.81,-157.18"/>
</g>
<!-- Node10 -->
<g id="node10" class="node">
<title>Node10</title>
<g id="a_node10"><a xlink:href="_link_8cpp.html" target="_top" xlink:title=" ">
<polygon fill="none" stroke="black" points="764.23,-78.5 764.23,-119.5 942.23,-119.5 942.23,-78.5 764.23,-78.5"/>
<text text-anchor="start" x="772.23" y="-107.5" font-family="Helvetica,sans-Serif" font-size="10.00">/home/runner/work/Simulatio</text>
<text text-anchor="start" x="772.23" y="-96.5" font-family="Helvetica,sans-Serif" font-size="10.00">/Simulatio/engine/src/Constraints</text>
<text text-anchor="middle" x="853.23" y="-85.5" font-family="Helvetica,sans-Serif" font-size="10.00">/Link.cpp</text>
</a>
</g>
</g>
<!-- Node9&#45;&gt;Node10 -->
<g id="edge10" class="edge">
<title>Node9&#45;&gt;Node10</title>
<path fill="none" stroke="midnightblue" d="M853.23,-146.3C853.23,-137.3 853.23,-127.65 853.23,-119.51"/>
<polygon fill="midnightblue" stroke="midnightblue" points="849.73,-146.43 853.23,-156.43 856.73,-146.43 849.73,-146.43"/>
</g>
<!-- Node12 -->
<g id="node12" class="node">
<title>Node12</title>
<g id="a_node12"><a xlink:href="_loose_8cpp.html" target="_top" xlink:title=" ">
<polygon fill="none" stroke="black" points="1508.23,-78.5 1508.23,-119.5 1686.23,-119.5 1686.23,-78.5 1508.23,-78.5"/>
<text text-anchor="start" x="1516.23" y="-107.5" font-family="Helvetica,sans-Serif" font-size="10.00">/home/runner/work/Simulatio</text>
<text text-anchor="start" x="1516.23" y="-96.5" font-family="Helvetica,sans-Serif" font-size="10.00">/Simulatio/engine/src/Constraints</text>
<text text-anchor="middle" x="1597.23" y="-85.5" font-family="Helvetica,sans-Serif" font-size="10.00">/Loose.cpp</text>
</a>
</g>
</g>
<!-- Node11&#45;&gt;Node12 -->
<g id="edge12" class="edge">
<title>Node11&#45;&gt;Node12</title>
<path fill="none" stroke="midnightblue" d="M1591.14,-146.3C1592.32,-137.3 1593.59,-127.65 1594.66,-119.51"/>
<polygon fill="midnightblue" stroke="midnightblue" points="1587.64,-146.06 1589.8,-156.43 1594.58,-146.97 1587.64,-146.06"/>
</g>
<!-- Node13&#45;&gt;Node3 -->
<g id="edge14" class="edge">
<title>Node13&#45;&gt;Node3</title>
<path fill="none" stroke="midnightblue" d="M1136.18,-155.94C967.12,-129.35 921.64,-137.03 755.23,-120 721.89,-116.59 685.13,-112.57 653.49,-109.04"/>
<polygon fill="midnightblue" stroke="midnightblue" points="1135.74,-159.41 1146.17,-157.52 1136.84,-152.5 1135.74,-159.41"/>
</g>
<!-- Node14 -->
<g id="node14" class="node">
<title>Node14</title>
<g id="a_node14"><a xlink:href="engine_2src_2_constraints_2_slider_8cpp.html" target="_top" xlink:title=" ">
<polygon fill="none" stroke="black" points="1116.23,-78.5 1116.23,-119.5 1294.23,-119.5 1294.23,-78.5 1116.23,-78.5"/>
<text text-anchor="start" x="1124.23" y="-107.5" font-family="Helvetica,sans-Serif" font-size="10.00">/home/runner/work/Simulatio</text>
<text text-anchor="start" x="1124.23" y="-96.5" font-family="Helvetica,sans-Serif" font-size="10.00">/Simulatio/engine/src/Constraints</text>
<text text-anchor="middle" x="1205.23" y="-85.5" font-family="Helvetica,sans-Serif" font-size="10.00">/Slider.cpp</text>
</a>
</g>
</g>
<!-- Node13&#45;&gt;Node14 -->
<g id="edge15" class="edge">
<title>Node13&#45;&gt;Node14</title>
<path fill="none" stroke="midnightblue" d="M1217.49,-146.59C1215.1,-137.51 1212.53,-127.74 1210.36,-119.51"/>
<polygon fill="midnightblue" stroke="midnightblue" points="1214.15,-147.65 1220.08,-156.43 1220.92,-145.87 1214.15,-147.65"/>
</g>
<!-- Node15&#45;&gt;Node3 -->
<g id="edge17" class="edge">
<title>Node15&#45;&gt;Node3</title>
<path fill="none" stroke="midnightblue" d="M1312.2,-155.98C1065.55,-120.9 999.54,-141.37 755.23,-120 721.84,-117.08 685.07,-113.15 653.45,-109.55"/>
<polygon fill="midnightblue" stroke="midnightblue" points="1311.79,-159.45 1322.19,-157.41 1312.79,-152.52 1311.79,-159.45"/>
</g>
<!-- Node16 -->
<g id="node16" class="node">
<title>Node16</title>
<g id="a_node16"><a xlink:href="engine_2src_2_constraints_2_spring_8cpp.html" target="_top" xlink:title=" ">
<polygon fill="none" stroke="black" points="1312.23,-78.5 1312.23,-119.5 1490.23,-119.5 1490.23,-78.5 1312.23,-78.5"/>
<text text-anchor="start" x="1320.23" y="-107.5" font-family="Helvetica,sans-Serif" font-size="10.00">/home/runner/work/Simulatio</text>
<text text-anchor="start" x="1320.23" y="-96.5" font-family="Helvetica,sans-Serif" font-size="10.00">/Simulatio/engine/src/Constraints</text>
<text text-anchor="middle" x="1401.23" y="-85.5" font-family="Helvetica,sans-Serif" font-size="10.00">/Spring.cpp</text>
</a>
</g>
</g>
<!-- Node15&#45;&gt;Node16 -->
<g id="edge18" class="edge">
<title>Node15&#45;&gt;Node16</title>
<path fill="none" stroke="midnightblue" d="M1401.23,-146.3C1401.23,-137.3 1401.23,-127.65 1401.23,-119.51"/>
<polygon fill="midnightblue" stroke="midnightblue" points="1397.73,-146.43 1401.23,-156.43 1404.73,-146.43 1397.73,-146.43"/>
</g>
<!-- Node18&#45;&gt;Node2 -->
<g id="edge42" class="edge">
<title>Node18&#45;&gt;Node2</title>
<path fill="none" stroke="midnightblue" d="M495.3,-463.8C513.15,-454.62 533.02,-443.57 550.23,-432 595,-401.9 607.28,-394.23 643.23,-354 665.4,-329.19 685.69,-296.24 697.51,-275.58"/>
<polygon fill="midnightblue" stroke="midnightblue" points="493.51,-460.78 486.17,-468.42 496.67,-467.02 493.51,-460.78"/>
</g>
<!-- Node18&#45;&gt;Node3 -->
<g id="edge45" class="edge">
<title>Node18&#45;&gt;Node3</title>
<path fill="none" stroke="midnightblue" d="M355.04,-479.09C274.49,-469.84 162.84,-453.69 124.23,-432 73.71,-403.62 38.23,-391.95 38.23,-334 38.23,-334 38.23,-334 38.23,-254 38.23,-209.63 24.57,-186.03 57.23,-156 88.79,-126.97 358.29,-110.18 495.15,-103.46"/>
<polygon fill="midnightblue" stroke="midnightblue" points="354.87,-482.59 365.2,-480.24 355.66,-475.64 354.87,-482.59"/>
</g>
<!-- Node18&#45;&gt;Node8 -->
<g id="edge22" class="edge">
<title>Node18&#45;&gt;Node8</title>
<path fill="none" stroke="midnightblue" d="M513.6,-464.94C539.08,-455.69 567.88,-444.3 593.23,-432 693.89,-383.16 804.98,-310.19 855.9,-275.57"/>
<polygon fill="midnightblue" stroke="midnightblue" points="512.25,-461.7 504.02,-468.37 514.61,-468.29 512.25,-461.7"/>
</g>
<!-- Node19 -->
<g id="node19" class="node">
<title>Node19</title>
<g id="a_node19"><a xlink:href="_circle_8hpp.html" target="_top" xlink:title=" ">
<polygon fill="none" stroke="black" points="365.23,-390.5 365.23,-431.5 523.23,-431.5 523.23,-390.5 365.23,-390.5"/>
<text text-anchor="start" x="373.23" y="-419.5" font-family="Helvetica,sans-Serif" font-size="10.00">/home/runner/work/Simulatio</text>
<text text-anchor="start" x="373.23" y="-408.5" font-family="Helvetica,sans-Serif" font-size="10.00">/Simulatio/engine/include</text>
<text text-anchor="middle" x="444.23" y="-397.5" font-family="Helvetica,sans-Serif" font-size="10.00">/Corpses/Circle.hpp</text>
</a>
</g>
</g>
<!-- Node18&#45;&gt;Node19 -->
<g id="edge23" class="edge">
<title>Node18&#45;&gt;Node19</title>
<path fill="none" stroke="midnightblue" d="M444.23,-458.3C444.23,-449.3 444.23,-439.65 444.23,-431.51"/>
<polygon fill="midnightblue" stroke="midnightblue" points="440.73,-458.43 444.23,-468.43 447.73,-458.43 440.73,-458.43"/>
</g>
<!-- Node20 -->
<g id="node20" class="node">
<title>Node20</title>
<g id="a_node20"><a xlink:href="_polygon_8hpp.html" target="_top" xlink:title=" ">
<polygon fill="none" stroke="black" points="441.23,-312.5 441.23,-353.5 599.23,-353.5 599.23,-312.5 441.23,-312.5"/>
<text text-anchor="start" x="449.23" y="-341.5" font-family="Helvetica,sans-Serif" font-size="10.00">/home/runner/work/Simulatio</text>
<text text-anchor="start" x="449.23" y="-330.5" font-family="Helvetica,sans-Serif" font-size="10.00">/Simulatio/engine/include</text>
<text text-anchor="middle" x="520.23" y="-319.5" font-family="Helvetica,sans-Serif" font-size="10.00">/Corpses/Polygon.hpp</text>
</a>
</g>
</g>
<!-- Node18&#45;&gt;Node20 -->
<g id="edge41" class="edge">
<title>Node18&#45;&gt;Node20</title>
<path fill="none" stroke="midnightblue" d="M501.73,-463.13C513.93,-455.04 525.22,-444.77 532.23,-432 545.67,-407.51 537.13,-374.47 529.15,-353.71"/>
<polygon fill="midnightblue" stroke="midnightblue" points="499.88,-460.16 493.19,-468.38 503.54,-466.12 499.88,-460.16"/>
</g>
<!-- Node21 -->
<g id="node21" class="node">
<title>Node21</title>
<g id="a_node21"><a xlink:href="_quad_node_8hpp.html" target="_top" xlink:title=" ">
<polygon fill="none" stroke="black" points="159.23,-234.5 159.23,-275.5 317.23,-275.5 317.23,-234.5 159.23,-234.5"/>
<text text-anchor="start" x="167.23" y="-263.5" font-family="Helvetica,sans-Serif" font-size="10.00">/home/runner/work/Simulatio</text>
<text text-anchor="start" x="167.23" y="-252.5" font-family="Helvetica,sans-Serif" font-size="10.00">/Simulatio/engine/include</text>
<text text-anchor="middle" x="238.23" y="-241.5" font-family="Helvetica,sans-Serif" font-size="10.00">/Structures/QuadNode.hpp</text>
</a>
</g>
</g>
<!-- Node18&#45;&gt;Node21 -->
<g id="edge43" class="edge">
<title>Node18&#45;&gt;Node21</title>
<path fill="none" stroke="midnightblue" d="M355.17,-481.29C286.16,-474.02 198.62,-459.56 176.23,-432 142.59,-390.61 154.57,-360.74 176.23,-312 182.71,-297.42 195.06,-285.03 207.05,-275.64"/>
<polygon fill="midnightblue" stroke="midnightblue" points="354.91,-484.78 365.21,-482.31 355.62,-477.82 354.91,-484.78"/>
</g>
<!-- Node22 -->
<g id="node22" class="node">
<title>Node22</title>
<g id="a_node22"><a xlink:href="_quadtree_8hpp.html" target="_top" xlink:title=" ">
<polygon fill="none" stroke="black" points="66.23,-156.5 66.23,-197.5 224.23,-197.5 224.23,-156.5 66.23,-156.5"/>
<text text-anchor="start" x="74.23" y="-185.5" font-family="Helvetica,sans-Serif" font-size="10.00">/home/runner/work/Simulatio</text>
<text text-anchor="start" x="74.23" y="-174.5" font-family="Helvetica,sans-Serif" font-size="10.00">/Simulatio/engine/include</text>
<text text-anchor="middle" x="145.23" y="-163.5" font-family="Helvetica,sans-Serif" font-size="10.00">/Structures/Quadtree.hpp</text>
</a>
</g>
</g>
<!-- Node18&#45;&gt;Node22 -->
<g id="edge44" class="edge">
<title>Node18&#45;&gt;Node22</title>
<path fill="none" stroke="midnightblue" d="M355.05,-482.34C279.47,-475.56 179.19,-461.23 152.23,-432 91.52,-366.17 122.69,-245.03 138.2,-197.69"/>
<polygon fill="midnightblue" stroke="midnightblue" points="354.81,-485.83 365.08,-483.21 355.42,-478.86 354.81,-485.83"/>
</g>
<!-- Node26 -->
<g id="node26" class="node">
<title>Node26</title>
<g id="a_node26"><a xlink:href="_corpse_8cpp.html" target="_top" xlink:title=" ">
<polygon fill="none" stroke="black" points="185.73,-390.5 185.73,-431.5 346.73,-431.5 346.73,-390.5 185.73,-390.5"/>
<text text-anchor="start" x="193.73" y="-419.5" font-family="Helvetica,sans-Serif" font-size="10.00">/home/runner/work/Simulatio</text>
<text text-anchor="start" x="193.73" y="-408.5" font-family="Helvetica,sans-Serif" font-size="10.00">/Simulatio/engine/src/Corpses</text>
<text text-anchor="middle" x="266.23" y="-397.5" font-family="Helvetica,sans-Serif" font-size="10.00">/Corpse.cpp</text>
</a>
</g>
</g>
<!-- Node18&#45;&gt;Node26 -->
<g id="edge46" class="edge">
<title>Node18&#45;&gt;Node26</title>
<path fill="none" stroke="midnightblue" d="M389.12,-464.47C364.34,-453.89 335.45,-441.56 311.91,-431.51"/>
<polygon fill="midnightblue" stroke="midnightblue" points="387.82,-467.72 398.39,-468.43 390.57,-461.28 387.82,-467.72"/>
</g>
<!-- Node19&#45;&gt;Node2 -->
<g id="edge36" class="edge">
<title>Node19&#45;&gt;Node2</title>
<path fill="none" stroke="midnightblue" d="M532.97,-387.69C558.33,-379.23 585.29,-368.13 608.23,-354 608.82,-353.64 659.11,-304.26 688.14,-275.74"/>
<polygon fill="midnightblue" stroke="midnightblue" points="531.77,-384.4 523.34,-390.8 533.93,-391.06 531.77,-384.4"/>
</g>
<!-- Node19&#45;&gt;Node3 -->
<g id="edge39" class="edge">
<title>Node19&#45;&gt;Node3</title>
<path fill="none" stroke="midnightblue" d="M426.56,-381.6C406.77,-345.91 380.18,-283.37 402.23,-234 426.69,-179.22 486.8,-140.9 529.03,-119.67"/>
<polygon fill="midnightblue" stroke="midnightblue" points="423.65,-383.56 431.66,-390.49 429.72,-380.08 423.65,-383.56"/>
</g>
<!-- Node19&#45;&gt;Node8 -->
<g id="edge24" class="edge">
<title>Node19&#45;&gt;Node8</title>
<path fill="none" stroke="midnightblue" d="M533,-388.87C567.85,-379.58 607.89,-367.67 643.23,-354 682.16,-338.95 688.83,-328.37 727.23,-312 758.64,-298.6 794.45,-285.66 823.93,-275.6"/>
<polygon fill="midnightblue" stroke="midnightblue" points="532.1,-385.49 523.32,-391.42 533.88,-392.26 532.1,-385.49"/>
</g>
<!-- Node19&#45;&gt;Node20 -->
<g id="edge25" class="edge">
<title>Node19&#45;&gt;Node20</title>
<path fill="none" stroke="midnightblue" d="M464.82,-382.92C474.07,-373.2 484.99,-362.45 494.74,-353.51"/>
<polygon fill="midnightblue" stroke="midnightblue" points="462.07,-380.73 457.81,-390.43 467.19,-385.5 462.07,-380.73"/>
</g>
<!-- Node19&#45;&gt;Node21 -->
<g id="edge37" class="edge">
<title>Node19&#45;&gt;Node21</title>
<path fill="none" stroke="midnightblue" d="M421.45,-382.64C400.25,-357.59 369.78,-322.84 355.23,-312 335.45,-297.27 311.18,-284.9 289.89,-275.56"/>
<polygon fill="midnightblue" stroke="midnightblue" points="418.86,-384.99 427.98,-390.38 424.21,-380.48 418.86,-384.99"/>
</g>
<!-- Node19&#45;&gt;Node22 -->
<g id="edge38" class="edge">
<title>Node19&#45;&gt;Node22</title>
<path fill="none" stroke="midnightblue" d="M355.53,-390.06C355.43,-390.04 355.33,-390.02 355.23,-390 275.86,-373.1 237.03,-407.74 176.23,-354 131.36,-314.35 136.52,-234.45 141.78,-197.53"/>
<polygon fill="midnightblue" stroke="midnightblue" points="354.64,-393.45 365.15,-392.13 356.11,-386.61 354.64,-393.45"/>
</g>
<!-- Node25 -->
<g id="node25" class="node">
<title>Node25</title>
<g id="a_node25"><a xlink:href="_circle_8cpp.html" target="_top" xlink:title=" ">
<polygon fill="none" stroke="black" points="185.73,-312.5 185.73,-353.5 346.73,-353.5 346.73,-312.5 185.73,-312.5"/>
<text text-anchor="start" x="193.73" y="-341.5" font-family="Helvetica,sans-Serif" font-size="10.00">/home/runner/work/Simulatio</text>
<text text-anchor="start" x="193.73" y="-330.5" font-family="Helvetica,sans-Serif" font-size="10.00">/Simulatio/engine/src/Corpses</text>
<text text-anchor="middle" x="266.23" y="-319.5" font-family="Helvetica,sans-Serif" font-size="10.00">/Circle.cpp</text>
</a>
</g>
</g>
<!-- Node19&#45;&gt;Node25 -->
<g id="edge40" class="edge">
<title>Node19&#45;&gt;Node25</title>
<path fill="none" stroke="midnightblue" d="M389.12,-386.47C364.34,-375.89 335.45,-363.56 311.91,-353.51"/>
<polygon fill="midnightblue" stroke="midnightblue" points="387.82,-389.72 398.39,-390.43 390.57,-383.28 387.82,-389.72"/>
</g>
<!-- Node20&#45;&gt;Node2 -->
<g id="edge28" class="edge">
<title>Node20&#45;&gt;Node2</title>
<path fill="none" stroke="midnightblue" d="M578.09,-308.61C604.33,-298 635,-285.6 659.98,-275.51"/>
<polygon fill="midnightblue" stroke="midnightblue" points="576.6,-305.44 568.64,-312.43 579.23,-311.93 576.6,-305.44"/>
</g>
<!-- Node20&#45;&gt;Node3 -->
<g id="edge34" class="edge">
<title>Node20&#45;&gt;Node3</title>
<path fill="none" stroke="midnightblue" d="M558.64,-305.67C567.75,-297.34 576.26,-287.31 581.23,-276 588.74,-258.91 591.44,-249.63 581.23,-234 559.46,-200.68 520.99,-231.32 499.23,-198 489.02,-182.37 490.86,-172.69 499.23,-156 506.88,-140.75 520.87,-128.59 534.71,-119.55"/>
<polygon fill="midnightblue" stroke="midnightblue" points="556.25,-303.11 550.91,-312.26 560.79,-308.43 556.25,-303.11"/>
</g>
<!-- Node20&#45;&gt;Node8 -->
<g id="edge26" class="edge">
<title>Node20&#45;&gt;Node8</title>
<path fill="none" stroke="midnightblue" d="M609.35,-314.46C663.47,-303.68 733.9,-289.4 796.23,-276 799.14,-275.37 802.1,-274.73 805.09,-274.08"/>
<polygon fill="midnightblue" stroke="midnightblue" points="608.57,-311.05 599.45,-316.44 609.94,-317.92 608.57,-311.05"/>
</g>
<!-- Node20&#45;&gt;Node19 -->
<g id="edge27" class="edge">
<title>Node20&#45;&gt;Node19</title>
<path fill="none" stroke="midnightblue" d="M499.71,-361.01C490.47,-370.72 479.55,-381.47 469.79,-390.43"/>
<polygon fill="midnightblue" stroke="midnightblue" points="502.45,-363.21 506.71,-353.51 497.33,-358.43 502.45,-363.21"/>
</g>
<!-- Node20&#45;&gt;Node21 -->
<g id="edge29" class="edge">
<title>Node20&#45;&gt;Node21</title>
<path fill="none" stroke="midnightblue" d="M437.81,-309.79C397.52,-298.93 349.46,-285.98 310.6,-275.51"/>
<polygon fill="midnightblue" stroke="midnightblue" points="437.04,-313.21 447.61,-312.43 438.86,-306.45 437.04,-313.21"/>
</g>
<!-- Node20&#45;&gt;Node22 -->
<g id="edge33" class="edge">
<title>Node20&#45;&gt;Node22</title>
<path fill="none" stroke="midnightblue" d="M468.08,-308.1C447.43,-298.41 423.57,-286.95 402.23,-276 367.89,-258.39 361.74,-249.12 326.23,-234 292.33,-219.57 253.45,-207.05 220.43,-197.53"/>
<polygon fill="midnightblue" stroke="midnightblue" points="466.77,-311.35 477.32,-312.41 469.74,-305.01 466.77,-311.35"/>
</g>
<!-- Node24 -->
<g id="node24" class="node">
<title>Node24</title>
<g id="a_node24"><a xlink:href="_polygon_8cpp.html" target="_top" xlink:title=" ">
<polygon fill="none" stroke="black" points="411.73,-234.5 411.73,-275.5 572.73,-275.5 572.73,-234.5 411.73,-234.5"/>
<text text-anchor="start" x="419.73" y="-263.5" font-family="Helvetica,sans-Serif" font-size="10.00">/home/runner/work/Simulatio</text>
<text text-anchor="start" x="419.73" y="-252.5" font-family="Helvetica,sans-Serif" font-size="10.00">/Simulatio/engine/src/Corpses</text>
<text text-anchor="middle" x="492.23" y="-241.5" font-family="Helvetica,sans-Serif" font-size="10.00">/Polygon.cpp</text>
</a>
</g>
</g>
<!-- Node20&#45;&gt;Node24 -->
<g id="edge35" class="edge">
<title>Node20&#45;&gt;Node24</title>
<path fill="none" stroke="midnightblue" d="M509.5,-302.88C506.13,-293.72 502.48,-283.83 499.41,-275.51"/>
<polygon fill="midnightblue" stroke="midnightblue" points="506.28,-304.25 513.02,-312.43 512.84,-301.83 506.28,-304.25"/>
</g>
<!-- Node21&#45;&gt;Node22 -->
<g id="edge30" class="edge">
<title>Node21&#45;&gt;Node22</title>
<path fill="none" stroke="midnightblue" d="M206.49,-228.06C194.25,-218.06 180.48,-206.8 169.1,-197.51"/>
<polygon fill="midnightblue" stroke="midnightblue" points="204.32,-230.81 214.28,-234.43 208.75,-225.39 204.32,-230.81"/>
</g>
<!-- Node23 -->
<g id="node23" class="node">
<title>Node23</title>
<g id="a_node23"><a xlink:href="_quad_node_8cpp.html" target="_top" xlink:title=" ">
<polygon fill="none" stroke="black" points="242.23,-156.5 242.23,-197.5 414.23,-197.5 414.23,-156.5 242.23,-156.5"/>
<text text-anchor="start" x="250.23" y="-185.5" font-family="Helvetica,sans-Serif" font-size="10.00">/home/runner/work/Simulatio</text>
<text text-anchor="start" x="250.23" y="-174.5" font-family="Helvetica,sans-Serif" font-size="10.00">/Simulatio/engine/src/Structures</text>
<text text-anchor="middle" x="328.23" y="-163.5" font-family="Helvetica,sans-Serif" font-size="10.00">/QuadNode.cpp</text>
</a>
</g>
</g>
<!-- Node21&#45;&gt;Node23 -->
<g id="edge32" class="edge">
<title>Node21&#45;&gt;Node23</title>
<path fill="none" stroke="midnightblue" d="M269.28,-227.78C281.05,-217.84 294.22,-206.72 305.13,-197.51"/>
<polygon fill="midnightblue" stroke="midnightblue" points="266.79,-225.3 261.41,-234.43 271.3,-230.65 266.79,-225.3"/>
</g>
<!-- Node22&#45;&gt;Node3 -->
<g id="edge31" class="edge">
<title>Node22&#45;&gt;Node3</title>
<path fill="none" stroke="midnightblue" d="M234.42,-155.82C329.6,-137.41 428.19,-121.73 495.09,-111.6"/>
<polygon fill="midnightblue" stroke="midnightblue" points="233.48,-152.44 224.33,-157.78 234.82,-159.31 233.48,-152.44"/>
</g>
<!-- Node30 -->
<g id="node30" class="node">
<title>Node30</title>
<g id="a_node30"><a xlink:href="tests_2_bounds_8cpp.html" target="_top" xlink:title=" ">
<polygon fill="none" stroke="black" points="1204.23,-468.5 1204.23,-509.5 1362.23,-509.5 1362.23,-468.5 1204.23,-468.5"/>
<text text-anchor="start" x="1212.23" y="-497.5" font-family="Helvetica,sans-Serif" font-size="10.00">/home/runner/work/Simulatio</text>
<text text-anchor="start" x="1212.23" y="-486.5" font-family="Helvetica,sans-Serif" font-size="10.00">/Simulatio/engine/tests</text>
<text text-anchor="middle" x="1283.23" y="-475.5" font-family="Helvetica,sans-Serif" font-size="10.00">/bounds.cpp</text>
</a>
</g>
</g>
<!-- Node29&#45;&gt;Node30 -->
<g id="edge51" class="edge">
<title>Node29&#45;&gt;Node30</title>
<path fill="none" stroke="midnightblue" d="M1167.18,-542.19C1190.56,-531.67 1217.7,-519.47 1239.85,-509.51"/>
<polygon fill="midnightblue" stroke="midnightblue" points="1165.43,-539.13 1157.75,-546.43 1168.31,-545.52 1165.43,-539.13"/>
</g>
<!-- Node31 -->
<g id="node31" class="node">
<title>Node31</title>
<g id="a_node31"><a xlink:href="tests_2_maths_8cpp.html" target="_top" xlink:title=" ">
<polygon fill="none" stroke="black" points="1380.23,-468.5 1380.23,-509.5 1538.23,-509.5 1538.23,-468.5 1380.23,-468.5"/>
<text text-anchor="start" x="1388.23" y="-497.5" font-family="Helvetica,sans-Serif" font-size="10.00">/home/runner/work/Simulatio</text>
<text text-anchor="start" x="1388.23" y="-486.5" font-family="Helvetica,sans-Serif" font-size="10.00">/Simulatio/engine/tests</text>
<text text-anchor="middle" x="1459.23" y="-475.5" font-family="Helvetica,sans-Serif" font-size="10.00">/maths.cpp</text>
</a>
</g>
</g>
<!-- Node29&#45;&gt;Node31 -->
<g id="edge52" class="edge">
<title>Node29&#45;&gt;Node31</title>
<path fill="none" stroke="midnightblue" d="M1203.32,-546.79C1252.8,-536.07 1315.45,-522.41 1371.23,-510 1374.13,-509.35 1377.09,-508.69 1380.08,-508.02"/>
<polygon fill="midnightblue" stroke="midnightblue" points="1202.32,-543.43 1193.29,-548.96 1203.8,-550.27 1202.32,-543.43"/>
</g>
<!-- Node32 -->
<g id="node32" class="node">
<title>Node32</title>
<g id="a_node32"><a xlink:href="tests_2_vector_8cpp.html" target="_top" xlink:title=" ">
<polygon fill="none" stroke="black" points="852.23,-468.5 852.23,-509.5 1010.23,-509.5 1010.23,-468.5 852.23,-468.5"/>
<text text-anchor="start" x="860.23" y="-497.5" font-family="Helvetica,sans-Serif" font-size="10.00">/home/runner/work/Simulatio</text>
<text text-anchor="start" x="860.23" y="-486.5" font-family="Helvetica,sans-Serif" font-size="10.00">/Simulatio/engine/tests</text>
<text text-anchor="middle" x="931.23" y="-475.5" font-family="Helvetica,sans-Serif" font-size="10.00">/vector.cpp</text>
</a>
</g>
</g>
<!-- Node29&#45;&gt;Node32 -->
<g id="edge53" class="edge">
<title>Node29&#45;&gt;Node32</title>
<path fill="none" stroke="midnightblue" d="M1057.57,-542.47C1032.1,-531.89 1002.4,-519.56 978.2,-509.51"/>
<polygon fill="midnightblue" stroke="midnightblue" points="1056.52,-545.82 1067.1,-546.43 1059.21,-539.36 1056.52,-545.82"/>
</g>
<!-- Node33 -->
<g id="node33" class="node">
<title>Node33</title>
<g id="a_node33"><a xlink:href="tests_2_vertices_8cpp.html" target="_top" xlink:title=" ">
<polygon fill="none" stroke="black" points="1028.23,-468.5 1028.23,-509.5 1186.23,-509.5 1186.23,-468.5 1028.23,-468.5"/>
<text text-anchor="start" x="1036.23" y="-497.5" font-family="Helvetica,sans-Serif" font-size="10.00">/home/runner/work/Simulatio</text>
<text text-anchor="start" x="1036.23" y="-486.5" font-family="Helvetica,sans-Serif" font-size="10.00">/Simulatio/engine/tests</text>
<text text-anchor="middle" x="1107.23" y="-475.5" font-family="Helvetica,sans-Serif" font-size="10.00">/vertices.cpp</text>
</a>
</g>
</g>
<!-- Node29&#45;&gt;Node33 -->
<g id="edge54" class="edge">
<title>Node29&#45;&gt;Node33</title>
<path fill="none" stroke="midnightblue" d="M1111.49,-536.3C1110.66,-527.3 1109.78,-517.65 1109.02,-509.51"/>
<polygon fill="midnightblue" stroke="midnightblue" points="1108.02,-536.79 1112.43,-546.43 1114.99,-536.15 1108.02,-536.79"/>
</g>
</g>
</svg>
