<?xml version="1.0" encoding="UTF-8" standalone="no"?>
<!DOCTYPE svg PUBLIC "-//W3C//DTD SVG 1.1//EN"
 "http://www.w3.org/Graphics/SVG/1.1/DTD/svg11.dtd">
<!-- Generated by graphviz version 2.43.0 (0)
 -->
<!-- Title: /home/runner/work/Simulatio/Simulatio/renderer/include/Drawing/Window.hpp Pages: 1 -->
<svg width="501pt" height="173pt"
 viewBox="0.00 0.00 501.00 173.00" xmlns="http://www.w3.org/2000/svg" xmlns:xlink="http://www.w3.org/1999/xlink">
<g id="graph0" class="graph" transform="scale(1 1) rotate(0) translate(4 169)">
<title>/home/runner/work/Simulatio/Simulatio/renderer/include/Drawing/Window.hpp</title>
<!-- Node1 -->
<g id="node1" class="node">
<title>Node1</title>
<g id="a_node1"><a xlink:title=" ">
<polygon fill="#bfbfbf" stroke="black" points="89.5,-123.5 89.5,-164.5 247.5,-164.5 247.5,-123.5 89.5,-123.5"/>
<text text-anchor="start" x="97.5" y="-152.5" font-family="Helvetica,sans-Serif" font-size="10.00">/home/runner/work/Simulatio</text>
<text text-anchor="start" x="97.5" y="-141.5" font-family="Helvetica,sans-Serif" font-size="10.00">/Simulatio/renderer/include</text>
<text text-anchor="middle" x="168.5" y="-130.5" font-family="Helvetica,sans-Serif" font-size="10.00">/Drawing/Window.hpp</text>
</a>
</g>
</g>
<!-- Node2 -->
<g id="node2" class="node">
<title>Node2</title>
<g id="a_node2"><a xlink:title=" ">
<polygon fill="none" stroke="#bfbfbf" points="0,-6 0,-25 83,-25 83,-6 0,-6"/>
<text text-anchor="middle" x="41.5" y="-13" font-family="Helvetica,sans-Serif" font-size="10.00">GLFW/glfw3.h</text>
</a>
</g>
</g>
<!-- Node1&#45;&gt;Node2 -->
<g id="edge1" class="edge">
<title>Node1&#45;&gt;Node2</title>
<path fill="none" stroke="midnightblue" d="M148.66,-123.23C123.57,-98.25 80.86,-55.71 57.66,-32.6"/>
<polygon fill="midnightblue" stroke="midnightblue" points="59.88,-29.87 50.33,-25.29 54.94,-34.83 59.88,-29.87"/>
</g>
<!-- Node3 -->
<g id="node3" class="node">
<title>Node3</title>
<g id="a_node3"><a xlink:title=" ">
<polygon fill="none" stroke="#bfbfbf" points="295.5,-67.5 295.5,-86.5 355.5,-86.5 355.5,-67.5 295.5,-67.5"/>
<text text-anchor="middle" x="325.5" y="-74.5" font-family="Helvetica,sans-Serif" font-size="10.00">iostream</text>
</a>
</g>
</g>
<!-- Node1&#45;&gt;Node3 -->
<g id="edge2" class="edge">
<title>Node1&#45;&gt;Node3</title>
<path fill="none" stroke="midnightblue" d="M215.61,-123.5C241.41,-112.81 272.64,-99.89 295.2,-90.54"/>
<polygon fill="midnightblue" stroke="midnightblue" points="296.7,-93.71 304.6,-86.65 294.02,-87.24 296.7,-93.71"/>
</g>
<!-- Node4 -->
<g id="node4" class="node">
<title>Node4</title>
<g id="a_node4"><a xlink:title=" ">
<polygon fill="none" stroke="#bfbfbf" points="101.5,-6 101.5,-25 145.5,-25 145.5,-6 101.5,-6"/>
<text text-anchor="middle" x="123.5" y="-13" font-family="Helvetica,sans-Serif" font-size="10.00">string</text>
</a>
</g>
</g>
<!-- Node1&#45;&gt;Node4 -->
<g id="edge3" class="edge">
<title>Node1&#45;&gt;Node4</title>
<path fill="none" stroke="midnightblue" d="M158.39,-123.39C153.19,-112.8 147.01,-99.39 142.5,-87 136.28,-69.89 131.06,-49.79 127.67,-35.44"/>
<polygon fill="midnightblue" stroke="midnightblue" points="131,-34.3 125.37,-25.33 124.18,-35.86 131,-34.3"/>
</g>
<!-- Node5 -->
<g id="node5" class="node">
<title>Node5</title>
<g id="a_node5"><a xlink:href="_overlay_8hpp.html" target="_top" xlink:title=" ">
<polygon fill="none" stroke="black" points="152,-67.5 152,-86.5 277,-86.5 277,-67.5 152,-67.5"/>
<text text-anchor="middle" x="214.5" y="-74.5" font-family="Helvetica,sans-Serif" font-size="10.00">../Overlay/Overlay.hpp</text>
</a>
</g>
</g>
<!-- Node1&#45;&gt;Node5 -->
<g id="edge4" class="edge">
<title>Node1&#45;&gt;Node5</title>
<path fill="none" stroke="midnightblue" d="M182.3,-123.5C188.74,-114.39 196.34,-103.66 202.53,-94.91"/>
<polygon fill="midnightblue" stroke="midnightblue" points="205.46,-96.84 208.38,-86.65 199.74,-92.79 205.46,-96.84"/>
</g>
<!-- Node5&#45;&gt;Node2 -->
<g id="edge5" class="edge">
<title>Node5&#45;&gt;Node2</title>
<path fill="none" stroke="midnightblue" d="M189.71,-67.48C159.91,-57.22 109.71,-39.96 76.1,-28.4"/>
<polygon fill="midnightblue" stroke="midnightblue" points="76.84,-24.95 66.24,-25.01 74.56,-31.57 76.84,-24.95"/>
</g>
<!-- Node5&#45;&gt;Node4 -->
<g id="edge9" class="edge">
<title>Node5&#45;&gt;Node4</title>
<path fill="none" stroke="midnightblue" d="M201.46,-67.48C186.73,-57.84 162.53,-42.02 144.99,-30.55"/>
<polygon fill="midnightblue" stroke="midnightblue" points="146.8,-27.55 136.51,-25.01 142.97,-33.41 146.8,-27.55"/>
</g>
<!-- Node6 -->
<g id="node6" class="node">
<title>Node6</title>
<g id="a_node6"><a xlink:title=" ">
<polygon fill="none" stroke="#bfbfbf" points="163.5,-0.5 163.5,-30.5 283.5,-30.5 283.5,-0.5 163.5,-0.5"/>
<text text-anchor="start" x="171.5" y="-18.5" font-family="Helvetica,sans-Serif" font-size="10.00">backends/imgui_impl</text>
<text text-anchor="middle" x="223.5" y="-7.5" font-family="Helvetica,sans-Serif" font-size="10.00">_glfw.h</text>
</a>
</g>
</g>
<!-- Node5&#45;&gt;Node6 -->
<g id="edge6" class="edge">
<title>Node5&#45;&gt;Node6</title>
<path fill="none" stroke="midnightblue" d="M215.79,-67.48C216.85,-60.47 218.4,-50.19 219.84,-40.7"/>
<polygon fill="midnightblue" stroke="midnightblue" points="223.34,-40.93 221.38,-30.52 216.42,-39.89 223.34,-40.93"/>
</g>
<!-- Node7 -->
<g id="node7" class="node">
<title>Node7</title>
<g id="a_node7"><a xlink:title=" ">
<polygon fill="none" stroke="#bfbfbf" points="301.5,-0.5 301.5,-30.5 421.5,-30.5 421.5,-0.5 301.5,-0.5"/>
<text text-anchor="start" x="309.5" y="-18.5" font-family="Helvetica,sans-Serif" font-size="10.00">backends/imgui_impl</text>
<text text-anchor="middle" x="361.5" y="-7.5" font-family="Helvetica,sans-Serif" font-size="10.00">_opengl3.h</text>
</a>
</g>
</g>
<!-- Node5&#45;&gt;Node7 -->
<g id="edge7" class="edge">
<title>Node5&#45;&gt;Node7</title>
<path fill="none" stroke="midnightblue" d="M235.56,-67.48C256.87,-58.85 290.44,-45.26 317.56,-34.29"/>
<polygon fill="midnightblue" stroke="midnightblue" points="318.9,-37.52 326.86,-30.52 316.27,-31.03 318.9,-37.52"/>
</g>
<!-- Node8 -->
<g id="node8" class="node">
<title>Node8</title>
<g id="a_node8"><a xlink:title=" ">
<polygon fill="none" stroke="#bfbfbf" points="440,-6 440,-25 493,-25 493,-6 440,-6"/>
<text text-anchor="middle" x="466.5" y="-13" font-family="Helvetica,sans-Serif" font-size="10.00">imgui.h</text>
</a>
</g>
</g>
<!-- Node5&#45;&gt;Node8 -->
<g id="edge8" class="edge">
<title>Node5&#45;&gt;Node8</title>
<path fill="none" stroke="midnightblue" d="M268.87,-67.43C312.96,-59.82 376.43,-47.38 430.5,-31 432.79,-30.31 435.13,-29.53 437.47,-28.7"/>
<polygon fill="midnightblue" stroke="midnightblue" points="438.81,-31.94 446.92,-25.12 436.33,-25.39 438.81,-31.94"/>
</g>
</g>
</svg>
