<?xml version="1.0" encoding="UTF-8" standalone="no"?>
<!DOCTYPE svg PUBLIC "-//W3C//DTD SVG 1.1//EN"
 "http://www.w3.org/Graphics/SVG/1.1/DTD/svg11.dtd">
<!-- Generated by graphviz version 2.43.0 (0)
 -->
<!-- Title: phy::Constraint Pages: 1 -->
<svg width="330pt" height="84pt"
 viewBox="0.00 0.00 329.50 84.00" xmlns="http://www.w3.org/2000/svg" xmlns:xlink="http://www.w3.org/1999/xlink">
<g id="graph0" class="graph" transform="scale(1 1) rotate(0) translate(4 80)">
<title>phy::Constraint</title>
<!-- Node1 -->
<g id="node1" class="node">
<title>Node1</title>
<g id="a_node1"><a xlink:title=" ">
<polygon fill="#bfbfbf" stroke="black" points="110,-56.5 110,-75.5 200,-75.5 200,-56.5 110,-56.5"/>
<text text-anchor="middle" x="155" y="-63.5" font-family="Helvetica,sans-Serif" font-size="10.00">phy::Constraint</text>
</a>
</g>
</g>
<!-- Node2 -->
<g id="node2" class="node">
<title>Node2</title>
<g id="a_node2"><a xlink:href="classphy_1_1_link.html" target="_top" xlink:title=" ">
<polygon fill="none" stroke="black" points="0,-0.5 0,-19.5 60,-19.5 60,-0.5 0,-0.5"/>
<text text-anchor="middle" x="30" y="-7.5" font-family="Helvetica,sans-Serif" font-size="10.00">phy::Link</text>
</a>
</g>
</g>
<!-- Node1&#45;&gt;Node2 -->
<g id="edge1" class="edge">
<title>Node1&#45;&gt;Node2</title>
<path fill="none" stroke="midnightblue" d="M125.76,-52.37C102.35,-42.26 70.16,-28.35 49.71,-19.52"/>
<polygon fill="midnightblue" stroke="midnightblue" points="124.63,-55.69 135.19,-56.44 127.4,-49.26 124.63,-55.69"/>
</g>
<!-- Node3 -->
<g id="node3" class="node">
<title>Node3</title>
<g id="a_node3"><a xlink:href="classphy_1_1_loose.html" target="_top" xlink:title=" ">
<polygon fill="none" stroke="black" points="78,-0.5 78,-19.5 146,-19.5 146,-0.5 78,-0.5"/>
<text text-anchor="middle" x="112" y="-7.5" font-family="Helvetica,sans-Serif" font-size="10.00">phy::Loose</text>
</a>
</g>
</g>
<!-- Node1&#45;&gt;Node3 -->
<g id="edge2" class="edge">
<title>Node1&#45;&gt;Node3</title>
<path fill="none" stroke="midnightblue" d="M141.58,-48.14C134.09,-38.74 125.06,-27.4 118.97,-19.75"/>
<polygon fill="midnightblue" stroke="midnightblue" points="138.93,-50.44 147.9,-56.08 144.41,-46.08 138.93,-50.44"/>
</g>
<!-- Node4 -->
<g id="node4" class="node">
<title>Node4</title>
<g id="a_node4"><a xlink:href="classphy_1_1_slider.html" target="_top" xlink:title=" ">
<polygon fill="none" stroke="black" points="164,-0.5 164,-19.5 232,-19.5 232,-0.5 164,-0.5"/>
<text text-anchor="middle" x="198" y="-7.5" font-family="Helvetica,sans-Serif" font-size="10.00">phy::Slider</text>
</a>
</g>
</g>
<!-- Node1&#45;&gt;Node4 -->
<g id="edge3" class="edge">
<title>Node1&#45;&gt;Node4</title>
<path fill="none" stroke="midnightblue" d="M168.42,-48.14C175.91,-38.74 184.94,-27.4 191.03,-19.75"/>
<polygon fill="midnightblue" stroke="midnightblue" points="165.59,-46.08 162.1,-56.08 171.07,-50.44 165.59,-46.08"/>
</g>
<!-- Node5 -->
<g id="node5" class="node">
<title>Node5</title>
<g id="a_node5"><a xlink:href="classphy_1_1_spring.html" target="_top" xlink:title=" ">
<polygon fill="none" stroke="black" points="250.5,-0.5 250.5,-19.5 321.5,-19.5 321.5,-0.5 250.5,-0.5"/>
<text text-anchor="middle" x="286" y="-7.5" font-family="Helvetica,sans-Serif" font-size="10.00">phy::Spring</text>
</a>
</g>
</g>
<!-- Node1&#45;&gt;Node5 -->
<g id="edge4" class="edge">
<title>Node1&#45;&gt;Node5</title>
<path fill="none" stroke="midnightblue" d="M185.32,-52.5C209.88,-42.38 243.82,-28.39 265.34,-19.52"/>
<polygon fill="midnightblue" stroke="midnightblue" points="183.67,-49.4 175.76,-56.44 186.34,-55.87 183.67,-49.4"/>
</g>
</g>
</svg>
