<?xml version="1.0" encoding="UTF-8" standalone="no"?>
<!DOCTYPE svg PUBLIC "-//W3C//DTD SVG 1.1//EN"
 "http://www.w3.org/Graphics/SVG/1.1/DTD/svg11.dtd">
<!-- Generated by graphviz version 2.43.0 (0)
 -->
<!-- Title: bmk::Recorder Pages: 1 -->
<svg width="146pt" height="87pt"
 viewBox="0.00 0.00 145.50 87.00" xmlns="http://www.w3.org/2000/svg" xmlns:xlink="http://www.w3.org/1999/xlink">
<g id="graph0" class="graph" transform="scale(1 1) rotate(0) translate(4 83)">
<title>bmk::Recorder</title>
<!-- Node1 -->
<g id="node1" class="node">
<title>Node1</title>
<g id="a_node1"><a xlink:title=" ">
<polygon fill="#bfbfbf" stroke="black" points="9.5,-1.5 9.5,-20.5 97.5,-20.5 97.5,-1.5 9.5,-1.5"/>
<text text-anchor="middle" x="53.5" y="-8.5" font-family="Helvetica,sans-Serif" font-size="10.00">bmk::Recorder</text>
</a>
</g>
</g>
<!-- Node1&#45;&gt;Node1 -->
<g id="edge2" class="edge">
<title>Node1&#45;&gt;Node1</title>
<path fill="none" stroke="#9a32cd" stroke-dasharray="5,2" d="M107.76,-15.13C112.52,-14.25 115.5,-12.88 115.5,-11 115.5,-7.99 107.87,-6.28 97.52,-5.85"/>
<polygon fill="#9a32cd" stroke="#9a32cd" points="107.13,-11.67 97.52,-16.15 107.82,-18.64 107.13,-11.67"/>
<text text-anchor="middle" x="126.5" y="-14" font-family="Helvetica,sans-Serif" font-size="10.00"> last</text>
<text text-anchor="middle" x="126.5" y="-3" font-family="Helvetica,sans-Serif" font-size="10.00">root</text>
</g>
<!-- Node2 -->
<g id="node2" class="node">
<title>Node2</title>
<g id="a_node2"><a xlink:href="classbmk_1_1_performance.html" target="_top" xlink:title=" ">
<polygon fill="none" stroke="black" points="0,-59.5 0,-78.5 107,-78.5 107,-59.5 0,-59.5"/>
<text text-anchor="middle" x="53.5" y="-66.5" font-family="Helvetica,sans-Serif" font-size="10.00">bmk::Performance</text>
</a>
</g>
</g>
<!-- Node2&#45;&gt;Node1 -->
<g id="edge1" class="edge">
<title>Node2&#45;&gt;Node1</title>
<path fill="none" stroke="midnightblue" d="M53.5,-48.95C53.5,-39.29 53.5,-28.03 53.5,-20.51"/>
<polygon fill="midnightblue" stroke="midnightblue" points="50,-49.25 53.5,-59.25 57,-49.25 50,-49.25"/>
</g>
</g>
</svg>
