<?xml version="1.0" encoding="UTF-8" standalone="no"?>
<!DOCTYPE svg PUBLIC "-//W3C//DTD SVG 1.1//EN"
 "http://www.w3.org/Graphics/SVG/1.1/DTD/svg11.dtd">
<!-- Generated by graphviz version 2.43.0 (0)
 -->
<!-- Title: phy::Corpse Pages: 1 -->
<svg width="308pt" height="128pt"
 viewBox="0.00 0.00 307.50 128.00" xmlns="http://www.w3.org/2000/svg" xmlns:xlink="http://www.w3.org/1999/xlink">
<g id="graph0" class="graph" transform="scale(1 1) rotate(0) translate(4 124)">
<title>phy::Corpse</title>
<!-- Node1 -->
<g id="node1" class="node">
<title>Node1</title>
<g id="a_node1"><a xlink:title=" ">
<polygon fill="#bfbfbf" stroke="black" points="111,-0.5 111,-19.5 185,-19.5 185,-0.5 111,-0.5"/>
<text text-anchor="middle" x="148" y="-7.5" font-family="Helvetica,sans-Serif" font-size="10.00">phy::Corpse</text>
</a>
</g>
</g>
<!-- Node2 -->
<g id="node2" class="node">
<title>Node2</title>
<g id="a_node2"><a xlink:href="classgmt_1_1_vector.html" target="_top" xlink:title=" ">
<polygon fill="none" stroke="black" points="0,-89.5 0,-119.5 138,-119.5 138,-89.5 0,-89.5"/>
<text text-anchor="start" x="8" y="-107.5" font-family="Helvetica,sans-Serif" font-size="10.00">gmt::Vector&lt; SIMULATIO</text>
<text text-anchor="middle" x="69" y="-96.5" font-family="Helvetica,sans-Serif" font-size="10.00">_PRECISION &gt;</text>
</a>
</g>
</g>
<!-- Node2&#45;&gt;Node1 -->
<g id="edge1" class="edge">
<title>Node2&#45;&gt;Node1</title>
<path fill="none" stroke="#9a32cd" stroke-dasharray="5,2" d="M87.53,-81.8C104.46,-61.98 128.63,-33.68 140.64,-19.62"/>
<polygon fill="#9a32cd" stroke="#9a32cd" points="84.83,-79.57 81,-89.45 90.15,-84.12 84.83,-79.57"/>
<text text-anchor="middle" x="155.5" y="-63" font-family="Helvetica,sans-Serif" font-size="10.00"> current_pos</text>
<text text-anchor="middle" x="155.5" y="-52" font-family="Helvetica,sans-Serif" font-size="10.00">last_pos</text>
<text text-anchor="middle" x="155.5" y="-41" font-family="Helvetica,sans-Serif" font-size="10.00">propulsor</text>
</g>
<!-- Node3 -->
<g id="node3" class="node">
<title>Node3</title>
<g id="a_node3"><a xlink:href="classgmt_1_1_bounds.html" target="_top" xlink:title=" ">
<polygon fill="none" stroke="black" points="156.5,-89.5 156.5,-119.5 299.5,-119.5 299.5,-89.5 156.5,-89.5"/>
<text text-anchor="start" x="164.5" y="-107.5" font-family="Helvetica,sans-Serif" font-size="10.00">gmt::Bounds&lt; SIMULATIO</text>
<text text-anchor="middle" x="228" y="-96.5" font-family="Helvetica,sans-Serif" font-size="10.00">_PRECISION &gt;</text>
</a>
</g>
</g>
<!-- Node3&#45;&gt;Node1 -->
<g id="edge2" class="edge">
<title>Node3&#45;&gt;Node1</title>
<path fill="none" stroke="#9a32cd" stroke-dasharray="5,2" d="M217.96,-80.36C211.35,-66.94 201.77,-50.32 190,-38 182.93,-30.6 173.46,-24.29 165.3,-19.63"/>
<polygon fill="#9a32cd" stroke="#9a32cd" points="214.81,-81.89 222.23,-89.46 221.15,-78.92 214.81,-81.89"/>
<text text-anchor="middle" x="231.5" y="-52" font-family="Helvetica,sans-Serif" font-size="10.00"> bounds</text>
</g>
</g>
</svg>
