<?xml version="1.0" encoding="UTF-8" standalone="no"?>
<!DOCTYPE svg PUBLIC "-//W3C//DTD SVG 1.1//EN"
 "http://www.w3.org/Graphics/SVG/1.1/DTD/svg11.dtd">
<!-- Generated by graphviz version 2.43.0 (0)
 -->
<!-- Title: /home/runner/work/Simulatio/Simulatio/renderer/src Pages: 1 -->
<svg width="411pt" height="175pt"
 viewBox="0.00 0.00 411.00 175.00" xmlns="http://www.w3.org/2000/svg" xmlns:xlink="http://www.w3.org/1999/xlink">
<g id="graph0" class="graph" transform="scale(1 1) rotate(0) translate(4 171)">
<title>/home/runner/work/Simulatio/Simulatio/renderer/src</title>
<g id="clust1" class="cluster">
<title>clusterdir_d10aa5f1e26260a914a037377583e9a7</title>
<g id="a_clust1"><a xlink:href="dir_d10aa5f1e26260a914a037377583e9a7.html" target="_top" xlink:title="renderer">
<polygon fill="#ddddee" stroke="black" points="8,-8 8,-159 395,-159 395,-8 8,-8"/>
<text text-anchor="middle" x="201.5" y="-147" font-family="Helvetica,sans-Serif" font-size="10.00">renderer</text>
</a>
</g>
</g>
<g id="clust2" class="cluster">
<title>clusterdir_6738159fedaa62764926ef00595e65f1</title>
<g id="a_clust2"><a xlink:href="dir_6738159fedaa62764926ef00595e65f1.html" target="_top">
<polygon fill="#eeeeff" stroke="black" points="16,-80 16,-132 387,-132 387,-80 16,-80"/>
</a>
</g>
</g>
<!-- dir_38d06604e9df36157c4a7ee987c246f7 -->
<g id="node1" class="node">
<title>dir_38d06604e9df36157c4a7ee987c246f7</title>
<g id="a_node1"><a xlink:href="dir_38d06604e9df36157c4a7ee987c246f7.html" target="_top" xlink:title="include">
<polygon fill="none" stroke="red" points="194,-52 140,-52 140,-16 194,-16 194,-52"/>
<text text-anchor="middle" x="167" y="-31.5" font-family="Helvetica,sans-Serif" font-size="10.00">include</text>
</a>
</g>
</g>
<!-- dir_6738159fedaa62764926ef00595e65f1 -->
<g id="node2" class="node">
<title>dir_6738159fedaa62764926ef00595e65f1</title>
<text text-anchor="middle" x="352" y="-103.5" font-family="Helvetica,sans-Serif" font-size="10.00">src</text>
</g>
<!-- dir_5e0372532a64970b42b46e6156b916d7 -->
<g id="node3" class="node">
<title>dir_5e0372532a64970b42b46e6156b916d7</title>
<g id="a_node3"><a xlink:href="dir_5e0372532a64970b42b46e6156b916d7.html" target="_top" xlink:title="Drawing">
<polygon fill="white" stroke="black" points="306.5,-124 249.5,-124 249.5,-88 306.5,-88 306.5,-124"/>
<text text-anchor="middle" x="278" y="-103.5" font-family="Helvetica,sans-Serif" font-size="10.00">Drawing</text>
</a>
</g>
</g>
<!-- dir_5e0372532a64970b42b46e6156b916d7&#45;&gt;dir_38d06604e9df36157c4a7ee987c246f7 -->
<g id="edge3" class="edge">
<title>dir_5e0372532a64970b42b46e6156b916d7&#45;&gt;dir_38d06604e9df36157c4a7ee987c246f7</title>
<path fill="none" stroke="black" d="M252.31,-87.95C248.21,-85.27 244,-82.55 240,-80 227.99,-72.35 214.77,-64.14 202.92,-56.85"/>
<polygon fill="black" stroke="black" points="204.51,-53.72 194.16,-51.48 200.85,-59.69 204.51,-53.72"/>
<g id="a_edge3&#45;headlabel"><a xlink:href="dir_000024_000020.html" target="_top" xlink:title="1">
<text text-anchor="middle" x="209.06" y="-50.68" font-family="Helvetica,sans-Serif" font-size="10.00">1</text>
</a>
</g>
</g>
<!-- dir_d4aa06c12780ef68053b54c6a21e276c -->
<g id="node4" class="node">
<title>dir_d4aa06c12780ef68053b54c6a21e276c</title>
<g id="a_node4"><a xlink:href="dir_d4aa06c12780ef68053b54c6a21e276c.html" target="_top" xlink:title="main">
<polygon fill="white" stroke="black" points="231,-124 177,-124 177,-88 231,-88 231,-124"/>
<text text-anchor="middle" x="204" y="-103.5" font-family="Helvetica,sans-Serif" font-size="10.00">main</text>
</a>
</g>
</g>
<!-- dir_d4aa06c12780ef68053b54c6a21e276c&#45;&gt;dir_38d06604e9df36157c4a7ee987c246f7 -->
<g id="edge4" class="edge">
<title>dir_d4aa06c12780ef68053b54c6a21e276c&#45;&gt;dir_38d06604e9df36157c4a7ee987c246f7</title>
<path fill="none" stroke="black" d="M194.85,-87.7C190.6,-79.64 185.44,-69.89 180.73,-60.98"/>
<polygon fill="black" stroke="black" points="183.81,-59.31 176.04,-52.1 177.62,-62.58 183.81,-59.31"/>
<g id="a_edge4&#45;headlabel"><a xlink:href="dir_000018_000020.html" target="_top" xlink:title="2">
<text text-anchor="middle" x="188" y="-58.66" font-family="Helvetica,sans-Serif" font-size="10.00">2</text>
</a>
</g>
</g>
<!-- dir_50731ef37105e594833886c1d7f3c3bb -->
<g id="node5" class="node">
<title>dir_50731ef37105e594833886c1d7f3c3bb</title>
<g id="a_node5"><a xlink:href="dir_50731ef37105e594833886c1d7f3c3bb.html" target="_top" xlink:title="Overlay">
<polygon fill="white" stroke="black" points="158.5,-124 103.5,-124 103.5,-88 158.5,-88 158.5,-124"/>
<text text-anchor="middle" x="131" y="-103.5" font-family="Helvetica,sans-Serif" font-size="10.00">Overlay</text>
</a>
</g>
</g>
<!-- dir_50731ef37105e594833886c1d7f3c3bb&#45;&gt;dir_38d06604e9df36157c4a7ee987c246f7 -->
<g id="edge1" class="edge">
<title>dir_50731ef37105e594833886c1d7f3c3bb&#45;&gt;dir_38d06604e9df36157c4a7ee987c246f7</title>
<path fill="none" stroke="black" d="M139.9,-87.7C144,-79.73 148.95,-70.1 153.49,-61.26"/>
<polygon fill="black" stroke="black" points="156.74,-62.6 158.2,-52.1 150.52,-59.4 156.74,-62.6"/>
<g id="a_edge1&#45;headlabel"><a xlink:href="dir_000025_000020.html" target="_top" xlink:title="1">
<text text-anchor="middle" x="157.62" y="-64.59" font-family="Helvetica,sans-Serif" font-size="10.00">1</text>
</a>
</g>
</g>
<!-- dir_56ddd38578677f0e21369c803f2d7684 -->
<g id="node6" class="node">
<title>dir_56ddd38578677f0e21369c803f2d7684</title>
<g id="a_node6"><a xlink:href="dir_56ddd38578677f0e21369c803f2d7684.html" target="_top" xlink:title="Renderer">
<polygon fill="white" stroke="black" points="85.5,-124 24.5,-124 24.5,-88 85.5,-88 85.5,-124"/>
<text text-anchor="middle" x="55" y="-103.5" font-family="Helvetica,sans-Serif" font-size="10.00">Renderer</text>
</a>
</g>
</g>
<!-- dir_56ddd38578677f0e21369c803f2d7684&#45;&gt;dir_38d06604e9df36157c4a7ee987c246f7 -->
<g id="edge2" class="edge">
<title>dir_56ddd38578677f0e21369c803f2d7684&#45;&gt;dir_38d06604e9df36157c4a7ee987c246f7</title>
<path fill="none" stroke="black" d="M82.4,-87.88C97.15,-78.66 115.53,-67.17 131.38,-57.26"/>
<polygon fill="black" stroke="black" points="133.26,-60.22 139.88,-51.95 129.55,-54.28 133.26,-60.22"/>
<g id="a_edge2&#45;headlabel"><a xlink:href="dir_000026_000020.html" target="_top" xlink:title="8">
<text text-anchor="middle" x="131.72" y="-62.03" font-family="Helvetica,sans-Serif" font-size="10.00">8</text>
</a>
</g>
</g>
</g>
</svg>
