<?xml version="1.0" encoding="UTF-8" standalone="no"?>
<!DOCTYPE svg PUBLIC "-//W3C//DTD SVG 1.1//EN"
 "http://www.w3.org/Graphics/SVG/1.1/DTD/svg11.dtd">
<!-- Generated by graphviz version 2.43.0 (0)
 -->
<!-- Title: /home/runner/work/Simulatio/Simulatio/include/Structures Pages: 1 -->
<svg width="152pt" height="311pt"
 viewBox="0.00 0.00 152.00 311.00" xmlns="http://www.w3.org/2000/svg" xmlns:xlink="http://www.w3.org/1999/xlink">
<g id="graph0" class="graph" transform="scale(1 1) rotate(0) translate(4 307)">
<title>/home/runner/work/Simulatio/Simulatio/include/Structures</title>
<g id="clust1" class="cluster">
<title>clusterdir_d44c64559bbebec7f509842c48db8b23</title>
<g id="a_clust1"><a xlink:href="dir_d44c64559bbebec7f509842c48db8b23.html" target="_top" xlink:title="include">
<polygon fill="#ddddee" stroke="black" points="8,-8 8,-295 136,-295 136,-8 8,-8"/>
<text text-anchor="middle" x="72" y="-283" font-family="Helvetica,sans-Serif" font-size="10.00">include</text>
</a>
</g>
</g>
<!-- dir_65c7684993adbb7beb99c5006cb74fcd -->
<g id="node1" class="node">
<title>dir_65c7684993adbb7beb99c5006cb74fcd</title>
<g id="a_node1"><a xlink:href="dir_65c7684993adbb7beb99c5006cb74fcd.html" target="_top" xlink:title="Constraints">
<polygon fill="none" stroke="black" points="88,-196 16,-196 16,-160 88,-160 88,-196"/>
<text text-anchor="middle" x="52" y="-175.5" font-family="Helvetica,sans-Serif" font-size="10.00">Constraints</text>
</a>
</g>
</g>
<!-- dir_9cf3df97c19220fcbd08d1d21199accb -->
<g id="node2" class="node">
<title>dir_9cf3df97c19220fcbd08d1d21199accb</title>
<g id="a_node2"><a xlink:href="dir_9cf3df97c19220fcbd08d1d21199accb.html" target="_top" xlink:title="Corpses">
<polygon fill="none" stroke="black" points="108,-124 52,-124 52,-88 108,-88 108,-124"/>
<text text-anchor="middle" x="80" y="-103.5" font-family="Helvetica,sans-Serif" font-size="10.00">Corpses</text>
</a>
</g>
</g>
<!-- dir_65c7684993adbb7beb99c5006cb74fcd&#45;&gt;dir_9cf3df97c19220fcbd08d1d21199accb -->
<g id="edge1" class="edge">
<title>dir_65c7684993adbb7beb99c5006cb74fcd&#45;&gt;dir_9cf3df97c19220fcbd08d1d21199accb</title>
<path fill="none" stroke="black" d="M58.92,-159.7C62.07,-151.81 65.88,-142.3 69.38,-133.55"/>
<polygon fill="black" stroke="black" points="72.69,-134.69 73.16,-124.1 66.19,-132.09 72.69,-134.69"/>
<g id="a_edge1&#45;headlabel"><a xlink:href="dir_000003_000004.html" target="_top" xlink:title="3">
<text text-anchor="middle" x="74" y="-136.58" font-family="Helvetica,sans-Serif" font-size="10.00">3</text>
</a>
</g>
</g>
<!-- dir_e5d471f994553c4d62f75de3eec3a008 -->
<g id="node3" class="node">
<title>dir_e5d471f994553c4d62f75de3eec3a008</title>
<g id="a_node3"><a xlink:href="dir_e5d471f994553c4d62f75de3eec3a008.html" target="_top" xlink:title="Geometry">
<polygon fill="none" stroke="black" points="112.5,-52 47.5,-52 47.5,-16 112.5,-16 112.5,-52"/>
<text text-anchor="middle" x="80" y="-31.5" font-family="Helvetica,sans-Serif" font-size="10.00">Geometry</text>
</a>
</g>
</g>
<!-- dir_65c7684993adbb7beb99c5006cb74fcd&#45;&gt;dir_e5d471f994553c4d62f75de3eec3a008 -->
<g id="edge2" class="edge">
<title>dir_65c7684993adbb7beb99c5006cb74fcd&#45;&gt;dir_e5d471f994553c4d62f75de3eec3a008</title>
<path fill="none" stroke="black" d="M46.29,-159.86C41.13,-141.63 35.4,-112.15 43,-88 46.1,-78.15 51.75,-68.53 57.72,-60.25"/>
<polygon fill="black" stroke="black" points="60.63,-62.21 63.96,-52.15 55.09,-57.94 60.63,-62.21"/>
<g id="a_edge2&#45;headlabel"><a xlink:href="dir_000003_000005.html" target="_top" xlink:title="2">
<text text-anchor="middle" x="60.68" y="-64.29" font-family="Helvetica,sans-Serif" font-size="10.00">2</text>
</a>
</g>
</g>
<!-- dir_9cf3df97c19220fcbd08d1d21199accb&#45;&gt;dir_e5d471f994553c4d62f75de3eec3a008 -->
<g id="edge3" class="edge">
<title>dir_9cf3df97c19220fcbd08d1d21199accb&#45;&gt;dir_e5d471f994553c4d62f75de3eec3a008</title>
<path fill="none" stroke="black" d="M74.08,-87.7C73.29,-79.98 73.06,-70.71 73.4,-62.11"/>
<polygon fill="black" stroke="black" points="76.9,-62.32 74.1,-52.1 69.92,-61.84 76.9,-62.32"/>
<g id="a_edge3&#45;headlabel"><a xlink:href="dir_000004_000005.html" target="_top" xlink:title="1">
<text text-anchor="middle" x="79.48" y="-63.61" font-family="Helvetica,sans-Serif" font-size="10.00">1</text>
</a>
</g>
</g>
<!-- dir_e5d471f994553c4d62f75de3eec3a008&#45;&gt;dir_9cf3df97c19220fcbd08d1d21199accb -->
<g id="edge7" class="edge">
<title>dir_e5d471f994553c4d62f75de3eec3a008&#45;&gt;dir_9cf3df97c19220fcbd08d1d21199accb</title>
<path fill="none" stroke="black" d="M85.9,-52.1C86.7,-59.79 86.94,-69.05 86.6,-77.67"/>
<polygon fill="black" stroke="black" points="83.11,-77.48 85.92,-87.7 90.09,-77.96 83.11,-77.48"/>
<g id="a_edge7&#45;headlabel"><a xlink:href="dir_000005_000004.html" target="_top" xlink:title="3">
<text text-anchor="middle" x="80.52" y="-71.2" font-family="Helvetica,sans-Serif" font-size="10.00">3</text>
</a>
</g>
</g>
<!-- dir_d715d637c841088f088578febcfd8973 -->
<g id="node4" class="node">
<title>dir_d715d637c841088f088578febcfd8973</title>
<g id="a_node4"><a xlink:href="dir_d715d637c841088f088578febcfd8973.html" target="_top" xlink:title="Structures">
<polygon fill="#eeeeff" stroke="black" points="128,-268 62,-268 62,-232 128,-232 128,-268"/>
<text text-anchor="middle" x="95" y="-247.5" font-family="Helvetica,sans-Serif" font-size="10.00">Structures</text>
</a>
</g>
</g>
<!-- dir_d715d637c841088f088578febcfd8973&#45;&gt;dir_65c7684993adbb7beb99c5006cb74fcd -->
<g id="edge4" class="edge">
<title>dir_d715d637c841088f088578febcfd8973&#45;&gt;dir_65c7684993adbb7beb99c5006cb74fcd</title>
<path fill="none" stroke="black" d="M84.37,-231.7C79.37,-223.56 73.31,-213.69 67.79,-204.7"/>
<polygon fill="black" stroke="black" points="70.72,-202.79 62.51,-196.1 64.76,-206.46 70.72,-202.79"/>
<g id="a_edge4&#45;headlabel"><a xlink:href="dir_000007_000003.html" target="_top" xlink:title="4">
<text text-anchor="middle" x="75.02" y="-201.87" font-family="Helvetica,sans-Serif" font-size="10.00">4</text>
</a>
</g>
</g>
<!-- dir_d715d637c841088f088578febcfd8973&#45;&gt;dir_9cf3df97c19220fcbd08d1d21199accb -->
<g id="edge5" class="edge">
<title>dir_d715d637c841088f088578febcfd8973&#45;&gt;dir_9cf3df97c19220fcbd08d1d21199accb</title>
<path fill="none" stroke="black" d="M97.18,-231.82C99.04,-213.81 100.87,-184.74 97,-160 95.64,-151.31 93.1,-142.1 90.39,-133.84"/>
<polygon fill="black" stroke="black" points="93.67,-132.62 87.07,-124.33 87.06,-134.93 93.67,-132.62"/>
<g id="a_edge5&#45;headlabel"><a xlink:href="dir_000007_000004.html" target="_top" xlink:title="12">
<text text-anchor="middle" x="97.54" y="-132.58" font-family="Helvetica,sans-Serif" font-size="10.00">12</text>
</a>
</g>
</g>
<!-- dir_d715d637c841088f088578febcfd8973&#45;&gt;dir_e5d471f994553c4d62f75de3eec3a008 -->
<g id="edge6" class="edge">
<title>dir_d715d637c841088f088578febcfd8973&#45;&gt;dir_e5d471f994553c4d62f75de3eec3a008</title>
<path fill="none" stroke="black" d="M102.2,-231.67C113.59,-201.71 132.91,-138.59 117,-88 113.9,-78.15 108.25,-68.53 102.28,-60.25"/>
<polygon fill="black" stroke="black" points="104.91,-57.94 96.04,-52.15 99.37,-62.21 104.91,-57.94"/>
<g id="a_edge6&#45;headlabel"><a xlink:href="dir_000007_000005.html" target="_top" xlink:title="13">
<text text-anchor="middle" x="109.36" y="-56.55" font-family="Helvetica,sans-Serif" font-size="10.00">13</text>
</a>
</g>
</g>
</g>
</svg>
