<?xml version="1.0" encoding="UTF-8" standalone="no"?>
<!DOCTYPE svg PUBLIC "-//W3C//DTD SVG 1.1//EN"
 "http://www.w3.org/Graphics/SVG/1.1/DTD/svg11.dtd">
<!-- Generated by graphviz version 2.43.0 (0)
 -->
<!-- Title: /home/runner/work/Simulatio/Simulatio/include Pages: 1 -->
<svg width="262pt" height="364pt"
 viewBox="0.00 0.00 262.00 364.00" xmlns="http://www.w3.org/2000/svg" xmlns:xlink="http://www.w3.org/1999/xlink">
<g id="graph0" class="graph" transform="scale(1 1) rotate(0) translate(4 360)">
<title>/home/runner/work/Simulatio/Simulatio/include</title>
<g id="clust1" class="cluster">
<title>clusterdir_d44c64559bbebec7f509842c48db8b23</title>
<g id="a_clust1"><a xlink:href="dir_d44c64559bbebec7f509842c48db8b23.html" target="_top">
<polygon fill="#eeeeff" stroke="black" points="8,-8 8,-348 246,-348 246,-8 8,-8"/>
</a>
</g>
</g>
<!-- dir_d44c64559bbebec7f509842c48db8b23 -->
<g id="node1" class="node">
<title>dir_d44c64559bbebec7f509842c48db8b23</title>
<text text-anchor="middle" x="172" y="-319.5" font-family="Helvetica,sans-Serif" font-size="10.00">include</text>
</g>
<!-- dir_1b052e90d243f8ab48fa30e790dd90a6 -->
<g id="node2" class="node">
<title>dir_1b052e90d243f8ab48fa30e790dd90a6</title>
<g id="a_node2"><a xlink:href="dir_1b052e90d243f8ab48fa30e790dd90a6.html" target="_top" xlink:title="Benchmark">
<polygon fill="white" stroke="black" points="128,-196 56,-196 56,-160 128,-160 128,-196"/>
<text text-anchor="middle" x="92" y="-175.5" font-family="Helvetica,sans-Serif" font-size="10.00">Benchmark</text>
</a>
</g>
</g>
<!-- dir_e5d471f994553c4d62f75de3eec3a008 -->
<g id="node5" class="node">
<title>dir_e5d471f994553c4d62f75de3eec3a008</title>
<g id="a_node5"><a xlink:href="dir_e5d471f994553c4d62f75de3eec3a008.html" target="_top" xlink:title="Geometry">
<polygon fill="white" stroke="black" points="124.5,-124 59.5,-124 59.5,-88 124.5,-88 124.5,-124"/>
<text text-anchor="middle" x="92" y="-103.5" font-family="Helvetica,sans-Serif" font-size="10.00">Geometry</text>
</a>
</g>
</g>
<!-- dir_1b052e90d243f8ab48fa30e790dd90a6&#45;&gt;dir_e5d471f994553c4d62f75de3eec3a008 -->
<g id="edge3" class="edge">
<title>dir_1b052e90d243f8ab48fa30e790dd90a6&#45;&gt;dir_e5d471f994553c4d62f75de3eec3a008</title>
<path fill="none" stroke="black" d="M86.08,-159.7C85.29,-151.98 85.06,-142.71 85.4,-134.11"/>
<polygon fill="black" stroke="black" points="88.9,-134.32 86.1,-124.1 81.92,-133.84 88.9,-134.32"/>
<g id="a_edge3&#45;headlabel"><a xlink:href="dir_000002_000005.html" target="_top" xlink:title="1">
<text text-anchor="middle" x="91.48" y="-135.61" font-family="Helvetica,sans-Serif" font-size="10.00">1</text>
</a>
</g>
</g>
<!-- dir_65c7684993adbb7beb99c5006cb74fcd -->
<g id="node3" class="node">
<title>dir_65c7684993adbb7beb99c5006cb74fcd</title>
<g id="a_node3"><a xlink:href="dir_65c7684993adbb7beb99c5006cb74fcd.html" target="_top" xlink:title="Constraints">
<polygon fill="white" stroke="black" points="218,-196 146,-196 146,-160 218,-160 218,-196"/>
<text text-anchor="middle" x="182" y="-175.5" font-family="Helvetica,sans-Serif" font-size="10.00">Constraints</text>
</a>
</g>
</g>
<!-- dir_9cf3df97c19220fcbd08d1d21199accb -->
<g id="node4" class="node">
<title>dir_9cf3df97c19220fcbd08d1d21199accb</title>
<g id="a_node4"><a xlink:href="dir_9cf3df97c19220fcbd08d1d21199accb.html" target="_top" xlink:title="Corpses">
<polygon fill="white" stroke="black" points="155,-52 99,-52 99,-16 155,-16 155,-52"/>
<text text-anchor="middle" x="127" y="-31.5" font-family="Helvetica,sans-Serif" font-size="10.00">Corpses</text>
</a>
</g>
</g>
<!-- dir_65c7684993adbb7beb99c5006cb74fcd&#45;&gt;dir_9cf3df97c19220fcbd08d1d21199accb -->
<g id="edge4" class="edge">
<title>dir_65c7684993adbb7beb99c5006cb74fcd&#45;&gt;dir_9cf3df97c19220fcbd08d1d21199accb</title>
<path fill="none" stroke="black" d="M175.37,-159.87C165.91,-135.46 148.47,-90.43 137.32,-61.64"/>
<polygon fill="black" stroke="black" points="140.53,-60.25 133.66,-52.19 134.01,-62.78 140.53,-60.25"/>
<g id="a_edge4&#45;headlabel"><a xlink:href="dir_000003_000004.html" target="_top" xlink:title="3">
<text text-anchor="middle" x="144.48" y="-60.08" font-family="Helvetica,sans-Serif" font-size="10.00">3</text>
</a>
</g>
</g>
<!-- dir_65c7684993adbb7beb99c5006cb74fcd&#45;&gt;dir_e5d471f994553c4d62f75de3eec3a008 -->
<g id="edge5" class="edge">
<title>dir_65c7684993adbb7beb99c5006cb74fcd&#45;&gt;dir_e5d471f994553c4d62f75de3eec3a008</title>
<path fill="none" stroke="black" d="M159.75,-159.7C148.42,-150.88 134.47,-140.03 122.18,-130.47"/>
<polygon fill="black" stroke="black" points="124.03,-127.48 113.99,-124.1 119.74,-133.01 124.03,-127.48"/>
<g id="a_edge5&#45;headlabel"><a xlink:href="dir_000003_000005.html" target="_top" xlink:title="2">
<text text-anchor="middle" x="128.61" y="-124.95" font-family="Helvetica,sans-Serif" font-size="10.00">2</text>
</a>
</g>
</g>
<!-- dir_9cf3df97c19220fcbd08d1d21199accb&#45;&gt;dir_e5d471f994553c4d62f75de3eec3a008 -->
<g id="edge6" class="edge">
<title>dir_9cf3df97c19220fcbd08d1d21199accb&#45;&gt;dir_e5d471f994553c4d62f75de3eec3a008</title>
<path fill="none" stroke="black" d="M124.34,-52.1C121.17,-60.13 116.52,-69.87 111.66,-78.8"/>
<polygon fill="black" stroke="black" points="108.49,-77.28 106.57,-87.7 114.57,-80.75 108.49,-77.28"/>
<g id="a_edge6&#45;headlabel"><a xlink:href="dir_000004_000005.html" target="_top" xlink:title="1">
<text text-anchor="middle" x="107.82" y="-70.25" font-family="Helvetica,sans-Serif" font-size="10.00">1</text>
</a>
</g>
</g>
<!-- dir_e5d471f994553c4d62f75de3eec3a008&#45;&gt;dir_1b052e90d243f8ab48fa30e790dd90a6 -->
<g id="edge10" class="edge">
<title>dir_e5d471f994553c4d62f75de3eec3a008&#45;&gt;dir_1b052e90d243f8ab48fa30e790dd90a6</title>
<path fill="none" stroke="black" d="M97.9,-124.1C98.7,-131.79 98.94,-141.05 98.6,-149.67"/>
<polygon fill="black" stroke="black" points="95.11,-149.48 97.92,-159.7 102.09,-149.96 95.11,-149.48"/>
<g id="a_edge10&#45;headlabel"><a xlink:href="dir_000005_000002.html" target="_top" xlink:title="1">
<text text-anchor="middle" x="92.52" y="-143.2" font-family="Helvetica,sans-Serif" font-size="10.00">1</text>
</a>
</g>
</g>
<!-- dir_e5d471f994553c4d62f75de3eec3a008&#45;&gt;dir_9cf3df97c19220fcbd08d1d21199accb -->
<g id="edge11" class="edge">
<title>dir_e5d471f994553c4d62f75de3eec3a008&#45;&gt;dir_9cf3df97c19220fcbd08d1d21199accb</title>
<path fill="none" stroke="black" d="M94.74,-87.7C97.93,-79.64 102.6,-69.89 107.46,-60.98"/>
<polygon fill="black" stroke="black" points="110.61,-62.52 112.55,-52.1 104.54,-59.04 110.61,-62.52"/>
<g id="a_edge11&#45;headlabel"><a xlink:href="dir_000005_000004.html" target="_top" xlink:title="3">
<text text-anchor="middle" x="111.29" y="-64.55" font-family="Helvetica,sans-Serif" font-size="10.00">3</text>
</a>
</g>
</g>
<!-- dir_16a64cef37031d7516f8ccb21b22bcaa -->
<g id="node6" class="node">
<title>dir_16a64cef37031d7516f8ccb21b22bcaa</title>
<g id="a_node6"><a xlink:href="dir_16a64cef37031d7516f8ccb21b22bcaa.html" target="_top" xlink:title="Renderer">
<polygon fill="white" stroke="black" points="88.5,-340 27.5,-340 27.5,-304 88.5,-304 88.5,-340"/>
<text text-anchor="middle" x="58" y="-319.5" font-family="Helvetica,sans-Serif" font-size="10.00">Renderer</text>
</a>
</g>
</g>
<!-- dir_16a64cef37031d7516f8ccb21b22bcaa&#45;&gt;dir_e5d471f994553c4d62f75de3eec3a008 -->
<g id="edge2" class="edge">
<title>dir_16a64cef37031d7516f8ccb21b22bcaa&#45;&gt;dir_e5d471f994553c4d62f75de3eec3a008</title>
<path fill="none" stroke="black" d="M50.59,-303.79C38.7,-273.48 18.64,-209.15 39,-160 43.54,-149.03 51.59,-139.14 60.05,-130.96"/>
<polygon fill="black" stroke="black" points="62.44,-133.53 67.52,-124.23 57.75,-128.33 62.44,-133.53"/>
<g id="a_edge2&#45;headlabel"><a xlink:href="dir_000006_000005.html" target="_top" xlink:title="6">
<text text-anchor="middle" x="61.67" y="-135.54" font-family="Helvetica,sans-Serif" font-size="10.00">6</text>
</a>
</g>
</g>
<!-- dir_d715d637c841088f088578febcfd8973 -->
<g id="node7" class="node">
<title>dir_d715d637c841088f088578febcfd8973</title>
<g id="a_node7"><a xlink:href="dir_d715d637c841088f088578febcfd8973.html" target="_top" xlink:title="Structures">
<polygon fill="white" stroke="black" points="158,-268 92,-268 92,-232 158,-232 158,-268"/>
<text text-anchor="middle" x="125" y="-247.5" font-family="Helvetica,sans-Serif" font-size="10.00">Structures</text>
</a>
</g>
</g>
<!-- dir_16a64cef37031d7516f8ccb21b22bcaa&#45;&gt;dir_d715d637c841088f088578febcfd8973 -->
<g id="edge1" class="edge">
<title>dir_16a64cef37031d7516f8ccb21b22bcaa&#45;&gt;dir_d715d637c841088f088578febcfd8973</title>
<path fill="none" stroke="black" d="M74.56,-303.7C82.68,-295.22 92.59,-284.86 101.47,-275.58"/>
<polygon fill="black" stroke="black" points="104.24,-277.75 108.63,-268.1 99.19,-272.91 104.24,-277.75"/>
<g id="a_edge1&#45;headlabel"><a xlink:href="dir_000006_000007.html" target="_top" xlink:title="1">
<text text-anchor="middle" x="103.81" y="-279.81" font-family="Helvetica,sans-Serif" font-size="10.00">1</text>
</a>
</g>
</g>
<!-- dir_d715d637c841088f088578febcfd8973&#45;&gt;dir_65c7684993adbb7beb99c5006cb74fcd -->
<g id="edge7" class="edge">
<title>dir_d715d637c841088f088578febcfd8973&#45;&gt;dir_65c7684993adbb7beb99c5006cb74fcd</title>
<path fill="none" stroke="black" d="M139.09,-231.7C145.92,-223.3 154.26,-213.07 161.76,-203.86"/>
<polygon fill="black" stroke="black" points="164.47,-206.07 168.07,-196.1 159.04,-201.65 164.47,-206.07"/>
<g id="a_edge7&#45;headlabel"><a xlink:href="dir_000007_000003.html" target="_top" xlink:title="4">
<text text-anchor="middle" x="164.4" y="-208.15" font-family="Helvetica,sans-Serif" font-size="10.00">4</text>
</a>
</g>
</g>
<!-- dir_d715d637c841088f088578febcfd8973&#45;&gt;dir_9cf3df97c19220fcbd08d1d21199accb -->
<g id="edge8" class="edge">
<title>dir_d715d637c841088f088578febcfd8973&#45;&gt;dir_9cf3df97c19220fcbd08d1d21199accb</title>
<path fill="none" stroke="black" d="M158.42,-241.39C182.1,-234.07 212.19,-220.39 227,-196 256.9,-146.77 199.15,-89.59 159.64,-58.35"/>
<polygon fill="black" stroke="black" points="161.58,-55.42 151.53,-52.09 157.31,-60.97 161.58,-55.42"/>
<g id="a_edge8&#45;headlabel"><a xlink:href="dir_000007_000004.html" target="_top" xlink:title="12">
<text text-anchor="middle" x="166.16" y="-52.87" font-family="Helvetica,sans-Serif" font-size="10.00">12</text>
</a>
</g>
</g>
<!-- dir_d715d637c841088f088578febcfd8973&#45;&gt;dir_e5d471f994553c4d62f75de3eec3a008 -->
<g id="edge9" class="edge">
<title>dir_d715d637c841088f088578febcfd8973&#45;&gt;dir_e5d471f994553c4d62f75de3eec3a008</title>
<path fill="none" stroke="black" d="M91.75,-235.57C75.1,-226.94 56.5,-213.94 47,-196 39.51,-181.86 41.48,-175.02 47,-160 50.78,-149.7 57.56,-140.02 64.72,-131.84"/>
<polygon fill="black" stroke="black" points="67.34,-134.16 71.62,-124.47 62.23,-129.38 67.34,-134.16"/>
<g id="a_edge9&#45;headlabel"><a xlink:href="dir_000007_000005.html" target="_top" xlink:title="13">
<text text-anchor="middle" x="66.96" y="-136.22" font-family="Helvetica,sans-Serif" font-size="10.00">13</text>
</a>
</g>
</g>
</g>
</svg>
