<?xml version="1.0" encoding="UTF-8" standalone="no"?>
<!DOCTYPE svg PUBLIC "-//W3C//DTD SVG 1.1//EN"
 "http://www.w3.org/Graphics/SVG/1.1/DTD/svg11.dtd">
<!-- Generated by graphviz version 2.43.0 (0)
 -->
<!-- Title: /home/runner/work/Simulatio/Simulatio/engine/include/Geometry Pages: 1 -->
<svg width="112pt" height="239pt"
 viewBox="0.00 0.00 112.00 239.00" xmlns="http://www.w3.org/2000/svg" xmlns:xlink="http://www.w3.org/1999/xlink">
<g id="graph0" class="graph" transform="scale(1 1) rotate(0) translate(4 235)">
<title>/home/runner/work/Simulatio/Simulatio/engine/include/Geometry</title>
<g id="clust1" class="cluster">
<title>clusterdir_bafa501d493553e442f19f5f8dd7b29c</title>
<g id="a_clust1"><a xlink:href="dir_bafa501d493553e442f19f5f8dd7b29c.html" target="_top" xlink:title="include">
<polygon fill="#ddddee" stroke="black" points="8,-8 8,-223 96,-223 96,-8 8,-8"/>
<text text-anchor="middle" x="52" y="-211" font-family="Helvetica,sans-Serif" font-size="10.00">include</text>
</a>
</g>
</g>
<!-- dir_1c92edfe4b6d8bf0668d112be75ddbf8 -->
<g id="node1" class="node">
<title>dir_1c92edfe4b6d8bf0668d112be75ddbf8</title>
<g id="a_node1"><a xlink:href="dir_1c92edfe4b6d8bf0668d112be75ddbf8.html" target="_top" xlink:title="Benchmark">
<polygon fill="none" stroke="black" points="88,-196 16,-196 16,-160 88,-160 88,-196"/>
<text text-anchor="middle" x="52" y="-175.5" font-family="Helvetica,sans-Serif" font-size="10.00">Benchmark</text>
</a>
</g>
</g>
<!-- dir_0f27ad101268ab0da7ab16b17027eb4c -->
<g id="node3" class="node">
<title>dir_0f27ad101268ab0da7ab16b17027eb4c</title>
<g id="a_node3"><a xlink:href="dir_0f27ad101268ab0da7ab16b17027eb4c.html" target="_top" xlink:title="Geometry">
<polygon fill="#eeeeff" stroke="black" points="84.5,-124 19.5,-124 19.5,-88 84.5,-88 84.5,-124"/>
<text text-anchor="middle" x="52" y="-103.5" font-family="Helvetica,sans-Serif" font-size="10.00">Geometry</text>
</a>
</g>
</g>
<!-- dir_1c92edfe4b6d8bf0668d112be75ddbf8&#45;&gt;dir_0f27ad101268ab0da7ab16b17027eb4c -->
<g id="edge3" class="edge">
<title>dir_1c92edfe4b6d8bf0668d112be75ddbf8&#45;&gt;dir_0f27ad101268ab0da7ab16b17027eb4c</title>
<path fill="none" stroke="black" d="M46.08,-159.7C45.29,-151.98 45.06,-142.71 45.4,-134.11"/>
<polygon fill="black" stroke="black" points="48.9,-134.32 46.1,-124.1 41.92,-133.84 48.9,-134.32"/>
<g id="a_edge3&#45;headlabel"><a xlink:href="dir_000003_000006.html" target="_top" xlink:title="1">
<text text-anchor="middle" x="51.48" y="-135.61" font-family="Helvetica,sans-Serif" font-size="10.00">1</text>
</a>
</g>
</g>
<!-- dir_6b8d7177440e95b5f8c395438f60f5bd -->
<g id="node2" class="node">
<title>dir_6b8d7177440e95b5f8c395438f60f5bd</title>
<g id="a_node2"><a xlink:href="dir_6b8d7177440e95b5f8c395438f60f5bd.html" target="_top" xlink:title="Corpses">
<polygon fill="none" stroke="black" points="80,-52 24,-52 24,-16 80,-16 80,-52"/>
<text text-anchor="middle" x="52" y="-31.5" font-family="Helvetica,sans-Serif" font-size="10.00">Corpses</text>
</a>
</g>
</g>
<!-- dir_6b8d7177440e95b5f8c395438f60f5bd&#45;&gt;dir_0f27ad101268ab0da7ab16b17027eb4c -->
<g id="edge4" class="edge">
<title>dir_6b8d7177440e95b5f8c395438f60f5bd&#45;&gt;dir_0f27ad101268ab0da7ab16b17027eb4c</title>
<path fill="none" stroke="black" d="M57.9,-52.1C58.7,-59.79 58.94,-69.05 58.6,-77.67"/>
<polygon fill="black" stroke="black" points="55.11,-77.48 57.92,-87.7 62.09,-77.96 55.11,-77.48"/>
<g id="a_edge4&#45;headlabel"><a xlink:href="dir_000005_000006.html" target="_top" xlink:title="1">
<text text-anchor="middle" x="52.52" y="-71.2" font-family="Helvetica,sans-Serif" font-size="10.00">1</text>
</a>
</g>
</g>
<!-- dir_0f27ad101268ab0da7ab16b17027eb4c&#45;&gt;dir_1c92edfe4b6d8bf0668d112be75ddbf8 -->
<g id="edge1" class="edge">
<title>dir_0f27ad101268ab0da7ab16b17027eb4c&#45;&gt;dir_1c92edfe4b6d8bf0668d112be75ddbf8</title>
<path fill="none" stroke="black" d="M57.9,-124.1C58.7,-131.79 58.94,-141.05 58.6,-149.67"/>
<polygon fill="black" stroke="black" points="55.11,-149.48 57.92,-159.7 62.09,-149.96 55.11,-149.48"/>
<g id="a_edge1&#45;headlabel"><a xlink:href="dir_000006_000003.html" target="_top" xlink:title="1">
<text text-anchor="middle" x="52.52" y="-143.2" font-family="Helvetica,sans-Serif" font-size="10.00">1</text>
</a>
</g>
</g>
<!-- dir_0f27ad101268ab0da7ab16b17027eb4c&#45;&gt;dir_6b8d7177440e95b5f8c395438f60f5bd -->
<g id="edge2" class="edge">
<title>dir_0f27ad101268ab0da7ab16b17027eb4c&#45;&gt;dir_6b8d7177440e95b5f8c395438f60f5bd</title>
<path fill="none" stroke="black" d="M46.08,-87.7C45.29,-79.98 45.06,-70.71 45.4,-62.11"/>
<polygon fill="black" stroke="black" points="48.9,-62.32 46.1,-52.1 41.92,-61.84 48.9,-62.32"/>
<g id="a_edge2&#45;headlabel"><a xlink:href="dir_000006_000005.html" target="_top" xlink:title="3">
<text text-anchor="middle" x="51.48" y="-63.61" font-family="Helvetica,sans-Serif" font-size="10.00">3</text>
</a>
</g>
</g>
</g>
</svg>
