<?xml version="1.0" encoding="UTF-8" standalone="no"?>
<!DOCTYPE svg PUBLIC "-//W3C//DTD SVG 1.1//EN"
 "http://www.w3.org/Graphics/SVG/1.1/DTD/svg11.dtd">
<!-- Generated by graphviz version 2.43.0 (0)
 -->
<!-- Title: /home/runner/work/Simulatio/Simulatio/include/Constraints Pages: 1 -->
<svg width="116pt" height="239pt"
 viewBox="0.00 0.00 116.00 239.00" xmlns="http://www.w3.org/2000/svg" xmlns:xlink="http://www.w3.org/1999/xlink">
<g id="graph0" class="graph" transform="scale(1 1) rotate(0) translate(4 235)">
<title>/home/runner/work/Simulatio/Simulatio/include/Constraints</title>
<g id="clust1" class="cluster">
<title>clusterdir_d44c64559bbebec7f509842c48db8b23</title>
<g id="a_clust1"><a xlink:href="dir_d44c64559bbebec7f509842c48db8b23.html" target="_top" xlink:title="include">
<polygon fill="#ddddee" stroke="black" points="8,-8 8,-223 100,-223 100,-8 8,-8"/>
<text text-anchor="middle" x="54" y="-211" font-family="Helvetica,sans-Serif" font-size="10.00">include</text>
</a>
</g>
</g>
<!-- dir_9cf3df97c19220fcbd08d1d21199accb -->
<g id="node1" class="node">
<title>dir_9cf3df97c19220fcbd08d1d21199accb</title>
<g id="a_node1"><a xlink:href="dir_9cf3df97c19220fcbd08d1d21199accb.html" target="_top" xlink:title="Corpses">
<polygon fill="none" stroke="black" points="72,-124 16,-124 16,-88 72,-88 72,-124"/>
<text text-anchor="middle" x="44" y="-103.5" font-family="Helvetica,sans-Serif" font-size="10.00">Corpses</text>
</a>
</g>
</g>
<!-- dir_e5d471f994553c4d62f75de3eec3a008 -->
<g id="node2" class="node">
<title>dir_e5d471f994553c4d62f75de3eec3a008</title>
<g id="a_node2"><a xlink:href="dir_e5d471f994553c4d62f75de3eec3a008.html" target="_top" xlink:title="Geometry">
<polygon fill="none" stroke="black" points="81.5,-52 16.5,-52 16.5,-16 81.5,-16 81.5,-52"/>
<text text-anchor="middle" x="49" y="-31.5" font-family="Helvetica,sans-Serif" font-size="10.00">Geometry</text>
</a>
</g>
</g>
<!-- dir_9cf3df97c19220fcbd08d1d21199accb&#45;&gt;dir_e5d471f994553c4d62f75de3eec3a008 -->
<g id="edge3" class="edge">
<title>dir_9cf3df97c19220fcbd08d1d21199accb&#45;&gt;dir_e5d471f994553c4d62f75de3eec3a008</title>
<path fill="none" stroke="black" d="M39.32,-87.7C39.08,-79.98 39.51,-70.71 40.47,-62.11"/>
<polygon fill="black" stroke="black" points="43.95,-62.5 41.88,-52.1 37.02,-61.52 43.95,-62.5"/>
<g id="a_edge3&#45;headlabel"><a xlink:href="dir_000004_000005.html" target="_top" xlink:title="1">
<text text-anchor="middle" x="46.26" y="-63.95" font-family="Helvetica,sans-Serif" font-size="10.00">1</text>
</a>
</g>
</g>
<!-- dir_e5d471f994553c4d62f75de3eec3a008&#45;&gt;dir_9cf3df97c19220fcbd08d1d21199accb -->
<g id="edge4" class="edge">
<title>dir_e5d471f994553c4d62f75de3eec3a008&#45;&gt;dir_9cf3df97c19220fcbd08d1d21199accb</title>
<path fill="none" stroke="black" d="M53.67,-52.1C53.93,-59.79 53.5,-69.05 52.56,-77.67"/>
<polygon fill="black" stroke="black" points="49.07,-77.31 51.15,-87.7 56,-78.28 49.07,-77.31"/>
<g id="a_edge4&#45;headlabel"><a xlink:href="dir_000005_000004.html" target="_top" xlink:title="3">
<text text-anchor="middle" x="46.76" y="-70.85" font-family="Helvetica,sans-Serif" font-size="10.00">3</text>
</a>
</g>
</g>
<!-- dir_65c7684993adbb7beb99c5006cb74fcd -->
<g id="node3" class="node">
<title>dir_65c7684993adbb7beb99c5006cb74fcd</title>
<g id="a_node3"><a xlink:href="dir_65c7684993adbb7beb99c5006cb74fcd.html" target="_top" xlink:title="Constraints">
<polygon fill="#eeeeff" stroke="black" points="90,-196 18,-196 18,-160 90,-160 90,-196"/>
<text text-anchor="middle" x="54" y="-175.5" font-family="Helvetica,sans-Serif" font-size="10.00">Constraints</text>
</a>
</g>
</g>
<!-- dir_65c7684993adbb7beb99c5006cb74fcd&#45;&gt;dir_9cf3df97c19220fcbd08d1d21199accb -->
<g id="edge1" class="edge">
<title>dir_65c7684993adbb7beb99c5006cb74fcd&#45;&gt;dir_9cf3df97c19220fcbd08d1d21199accb</title>
<path fill="none" stroke="black" d="M51.53,-159.7C50.43,-151.98 49.1,-142.71 47.87,-134.11"/>
<polygon fill="black" stroke="black" points="51.32,-133.51 46.44,-124.1 44.39,-134.5 51.32,-133.51"/>
<g id="a_edge1&#45;headlabel"><a xlink:href="dir_000003_000004.html" target="_top" xlink:title="3">
<text text-anchor="middle" x="54.64" y="-134.17" font-family="Helvetica,sans-Serif" font-size="10.00">3</text>
</a>
</g>
</g>
<!-- dir_65c7684993adbb7beb99c5006cb74fcd&#45;&gt;dir_e5d471f994553c4d62f75de3eec3a008 -->
<g id="edge2" class="edge">
<title>dir_65c7684993adbb7beb99c5006cb74fcd&#45;&gt;dir_e5d471f994553c4d62f75de3eec3a008</title>
<path fill="none" stroke="black" d="M65.47,-159.67C71.37,-149.69 77.96,-136.65 81,-124 84.73,-108.44 85.29,-103.41 81,-88 78.33,-78.42 73.41,-68.84 68.22,-60.51"/>
<polygon fill="black" stroke="black" points="71.02,-58.41 62.56,-52.03 65.2,-62.29 71.02,-58.41"/>
<g id="a_edge2&#45;headlabel"><a xlink:href="dir_000003_000005.html" target="_top" xlink:title="2">
<text text-anchor="middle" x="75.38" y="-57.33" font-family="Helvetica,sans-Serif" font-size="10.00">2</text>
</a>
</g>
</g>
</g>
</svg>
