<?xml version="1.0" encoding="UTF-8" standalone="no"?>
<!DOCTYPE svg PUBLIC "-//W3C//DTD SVG 1.1//EN"
 "http://www.w3.org/Graphics/SVG/1.1/DTD/svg11.dtd">
<!-- Generated by graphviz version 2.43.0 (0)
 -->
<!-- Title: /home/runner/work/Simulatio/Simulatio/renderer/src Pages: 1 -->
<svg width="338pt" height="175pt"
 viewBox="0.00 0.00 338.00 175.00" xmlns="http://www.w3.org/2000/svg" xmlns:xlink="http://www.w3.org/1999/xlink">
<g id="graph0" class="graph" transform="scale(1 1) rotate(0) translate(4 171)">
<title>/home/runner/work/Simulatio/Simulatio/renderer/src</title>
<g id="clust1" class="cluster">
<title>clusterdir_d10aa5f1e26260a914a037377583e9a7</title>
<g id="a_clust1"><a xlink:href="dir_d10aa5f1e26260a914a037377583e9a7.html" target="_top" xlink:title="renderer">
<polygon fill="#ddddee" stroke="black" points="8,-8 8,-159 322,-159 322,-8 8,-8"/>
<text text-anchor="middle" x="165" y="-147" font-family="Helvetica,sans-Serif" font-size="10.00">renderer</text>
</a>
</g>
</g>
<g id="clust2" class="cluster">
<title>clusterdir_6738159fedaa62764926ef00595e65f1</title>
<g id="a_clust2"><a xlink:href="dir_6738159fedaa62764926ef00595e65f1.html" target="_top">
<polygon fill="#eeeeff" stroke="black" points="16,-80 16,-132 314,-132 314,-80 16,-80"/>
</a>
</g>
</g>
<!-- dir_38d06604e9df36157c4a7ee987c246f7 -->
<g id="node1" class="node">
<title>dir_38d06604e9df36157c4a7ee987c246f7</title>
<g id="a_node1"><a xlink:href="dir_38d06604e9df36157c4a7ee987c246f7.html" target="_top" xlink:title="include">
<polygon fill="none" stroke="red" points="158,-52 104,-52 104,-16 158,-16 158,-52"/>
<text text-anchor="middle" x="131" y="-31.5" font-family="Helvetica,sans-Serif" font-size="10.00">include</text>
</a>
</g>
</g>
<!-- dir_6738159fedaa62764926ef00595e65f1 -->
<g id="node2" class="node">
<title>dir_6738159fedaa62764926ef00595e65f1</title>
<text text-anchor="middle" x="279" y="-103.5" font-family="Helvetica,sans-Serif" font-size="10.00">src</text>
</g>
<!-- dir_5e0372532a64970b42b46e6156b916d7 -->
<g id="node3" class="node">
<title>dir_5e0372532a64970b42b46e6156b916d7</title>
<g id="a_node3"><a xlink:href="dir_5e0372532a64970b42b46e6156b916d7.html" target="_top" xlink:title="Drawing">
<polygon fill="white" stroke="black" points="233.5,-124 176.5,-124 176.5,-88 233.5,-88 233.5,-124"/>
<text text-anchor="middle" x="205" y="-103.5" font-family="Helvetica,sans-Serif" font-size="10.00">Drawing</text>
</a>
</g>
</g>
<!-- dir_5e0372532a64970b42b46e6156b916d7&#45;&gt;dir_38d06604e9df36157c4a7ee987c246f7 -->
<g id="edge3" class="edge">
<title>dir_5e0372532a64970b42b46e6156b916d7&#45;&gt;dir_38d06604e9df36157c4a7ee987c246f7</title>
<path fill="none" stroke="black" d="M186.71,-87.7C177.57,-79.05 166.36,-68.45 156.4,-59.03"/>
<polygon fill="black" stroke="black" points="158.75,-56.43 149.08,-52.1 153.94,-61.52 158.75,-56.43"/>
<g id="a_edge3&#45;headlabel"><a xlink:href="dir_000020_000015.html" target="_top" xlink:title="1">
<text text-anchor="middle" x="163.31" y="-54.34" font-family="Helvetica,sans-Serif" font-size="10.00">1</text>
</a>
</g>
</g>
<!-- dir_50731ef37105e594833886c1d7f3c3bb -->
<g id="node4" class="node">
<title>dir_50731ef37105e594833886c1d7f3c3bb</title>
<g id="a_node4"><a xlink:href="dir_50731ef37105e594833886c1d7f3c3bb.html" target="_top" xlink:title="Overlay">
<polygon fill="white" stroke="black" points="158.5,-124 103.5,-124 103.5,-88 158.5,-88 158.5,-124"/>
<text text-anchor="middle" x="131" y="-103.5" font-family="Helvetica,sans-Serif" font-size="10.00">Overlay</text>
</a>
</g>
</g>
<!-- dir_50731ef37105e594833886c1d7f3c3bb&#45;&gt;dir_38d06604e9df36157c4a7ee987c246f7 -->
<g id="edge1" class="edge">
<title>dir_50731ef37105e594833886c1d7f3c3bb&#45;&gt;dir_38d06604e9df36157c4a7ee987c246f7</title>
<path fill="none" stroke="black" d="M131,-87.7C131,-79.98 131,-70.71 131,-62.11"/>
<polygon fill="black" stroke="black" points="134.5,-62.1 131,-52.1 127.5,-62.1 134.5,-62.1"/>
<g id="a_edge1&#45;headlabel"><a xlink:href="dir_000021_000015.html" target="_top" xlink:title="1">
<text text-anchor="middle" x="137.34" y="-63.2" font-family="Helvetica,sans-Serif" font-size="10.00">1</text>
</a>
</g>
</g>
<!-- dir_56ddd38578677f0e21369c803f2d7684 -->
<g id="node5" class="node">
<title>dir_56ddd38578677f0e21369c803f2d7684</title>
<g id="a_node5"><a xlink:href="dir_56ddd38578677f0e21369c803f2d7684.html" target="_top" xlink:title="Renderer">
<polygon fill="white" stroke="black" points="85.5,-124 24.5,-124 24.5,-88 85.5,-88 85.5,-124"/>
<text text-anchor="middle" x="55" y="-103.5" font-family="Helvetica,sans-Serif" font-size="10.00">Renderer</text>
</a>
</g>
</g>
<!-- dir_56ddd38578677f0e21369c803f2d7684&#45;&gt;dir_38d06604e9df36157c4a7ee987c246f7 -->
<g id="edge2" class="edge">
<title>dir_56ddd38578677f0e21369c803f2d7684&#45;&gt;dir_38d06604e9df36157c4a7ee987c246f7</title>
<path fill="none" stroke="black" d="M73.79,-87.7C83.17,-79.05 94.68,-68.45 104.91,-59.03"/>
<polygon fill="black" stroke="black" points="107.45,-61.45 112.43,-52.1 102.7,-56.3 107.45,-61.45"/>
<g id="a_edge2&#45;headlabel"><a xlink:href="dir_000022_000015.html" target="_top" xlink:title="8">
<text text-anchor="middle" x="106.72" y="-63.48" font-family="Helvetica,sans-Serif" font-size="10.00">8</text>
</a>
</g>
</g>
</g>
</svg>
