<?xml version="1.0" encoding="UTF-8" standalone="no"?>
<!DOCTYPE svg PUBLIC "-//W3C//DTD SVG 1.1//EN"
 "http://www.w3.org/Graphics/SVG/1.1/DTD/svg11.dtd">
<!-- Generated by graphviz version 2.43.0 (0)
 -->
<!-- Title: /home/runner/work/Simulatio/Simulatio/engine/include/Constraints Pages: 1 -->
<svg width="126pt" height="239pt"
 viewBox="0.00 0.00 126.00 239.00" xmlns="http://www.w3.org/2000/svg" xmlns:xlink="http://www.w3.org/1999/xlink">
<g id="graph0" class="graph" transform="scale(1 1) rotate(0) translate(4 235)">
<title>/home/runner/work/Simulatio/Simulatio/engine/include/Constraints</title>
<g id="clust1" class="cluster">
<title>clusterdir_bafa501d493553e442f19f5f8dd7b29c</title>
<g id="a_clust1"><a xlink:href="dir_bafa501d493553e442f19f5f8dd7b29c.html" target="_top" xlink:title="include">
<polygon fill="#ddddee" stroke="black" points="8,-8 8,-223 110,-223 110,-8 8,-8"/>
<text text-anchor="middle" x="59" y="-211" font-family="Helvetica,sans-Serif" font-size="10.00">include</text>
</a>
</g>
</g>
<!-- dir_0f27ad101268ab0da7ab16b17027eb4c -->
<g id="node1" class="node">
<title>dir_0f27ad101268ab0da7ab16b17027eb4c</title>
<g id="a_node1"><a xlink:href="dir_0f27ad101268ab0da7ab16b17027eb4c.html" target="_top" xlink:title="Geometry">
<polygon fill="none" stroke="black" points="81.5,-124 16.5,-124 16.5,-88 81.5,-88 81.5,-124"/>
<text text-anchor="middle" x="49" y="-103.5" font-family="Helvetica,sans-Serif" font-size="10.00">Geometry</text>
</a>
</g>
</g>
<!-- dir_6b8d7177440e95b5f8c395438f60f5bd -->
<g id="node2" class="node">
<title>dir_6b8d7177440e95b5f8c395438f60f5bd</title>
<g id="a_node2"><a xlink:href="dir_6b8d7177440e95b5f8c395438f60f5bd.html" target="_top" xlink:title="Corpses">
<polygon fill="none" stroke="black" points="77,-52 21,-52 21,-16 77,-16 77,-52"/>
<text text-anchor="middle" x="49" y="-31.5" font-family="Helvetica,sans-Serif" font-size="10.00">Corpses</text>
</a>
</g>
</g>
<!-- dir_0f27ad101268ab0da7ab16b17027eb4c&#45;&gt;dir_6b8d7177440e95b5f8c395438f60f5bd -->
<g id="edge1" class="edge">
<title>dir_0f27ad101268ab0da7ab16b17027eb4c&#45;&gt;dir_6b8d7177440e95b5f8c395438f60f5bd</title>
<path fill="none" stroke="black" d="M43.08,-87.7C42.29,-79.98 42.06,-70.71 42.4,-62.11"/>
<polygon fill="black" stroke="black" points="45.9,-62.32 43.1,-52.1 38.92,-61.84 45.9,-62.32"/>
<g id="a_edge1&#45;headlabel"><a xlink:href="dir_000006_000005.html" target="_top" xlink:title="3">
<text text-anchor="middle" x="48.48" y="-63.61" font-family="Helvetica,sans-Serif" font-size="10.00">3</text>
</a>
</g>
</g>
<!-- dir_6b8d7177440e95b5f8c395438f60f5bd&#45;&gt;dir_0f27ad101268ab0da7ab16b17027eb4c -->
<g id="edge4" class="edge">
<title>dir_6b8d7177440e95b5f8c395438f60f5bd&#45;&gt;dir_0f27ad101268ab0da7ab16b17027eb4c</title>
<path fill="none" stroke="black" d="M54.9,-52.1C55.7,-59.79 55.94,-69.05 55.6,-77.67"/>
<polygon fill="black" stroke="black" points="52.11,-77.48 54.92,-87.7 59.09,-77.96 52.11,-77.48"/>
<g id="a_edge4&#45;headlabel"><a xlink:href="dir_000005_000006.html" target="_top" xlink:title="1">
<text text-anchor="middle" x="49.52" y="-71.2" font-family="Helvetica,sans-Serif" font-size="10.00">1</text>
</a>
</g>
</g>
<!-- dir_335545099ef0f3ab8d64074ba27782c5 -->
<g id="node3" class="node">
<title>dir_335545099ef0f3ab8d64074ba27782c5</title>
<g id="a_node3"><a xlink:href="dir_335545099ef0f3ab8d64074ba27782c5.html" target="_top" xlink:title="Constraints">
<polygon fill="#eeeeff" stroke="black" points="95,-196 23,-196 23,-160 95,-160 95,-196"/>
<text text-anchor="middle" x="59" y="-175.5" font-family="Helvetica,sans-Serif" font-size="10.00">Constraints</text>
</a>
</g>
</g>
<!-- dir_335545099ef0f3ab8d64074ba27782c5&#45;&gt;dir_0f27ad101268ab0da7ab16b17027eb4c -->
<g id="edge2" class="edge">
<title>dir_335545099ef0f3ab8d64074ba27782c5&#45;&gt;dir_0f27ad101268ab0da7ab16b17027eb4c</title>
<path fill="none" stroke="black" d="M56.53,-159.7C55.43,-151.98 54.1,-142.71 52.87,-134.11"/>
<polygon fill="black" stroke="black" points="56.32,-133.51 51.44,-124.1 49.39,-134.5 56.32,-133.51"/>
<g id="a_edge2&#45;headlabel"><a xlink:href="dir_000004_000006.html" target="_top" xlink:title="2">
<text text-anchor="middle" x="59.64" y="-134.17" font-family="Helvetica,sans-Serif" font-size="10.00">2</text>
</a>
</g>
</g>
<!-- dir_335545099ef0f3ab8d64074ba27782c5&#45;&gt;dir_6b8d7177440e95b5f8c395438f60f5bd -->
<g id="edge3" class="edge">
<title>dir_335545099ef0f3ab8d64074ba27782c5&#45;&gt;dir_6b8d7177440e95b5f8c395438f60f5bd</title>
<path fill="none" stroke="black" d="M72.56,-159.97C79.56,-150.09 87.37,-137.05 91,-124 95.29,-108.59 96.26,-103.11 91,-88 87.47,-77.86 81.09,-68.19 74.36,-59.96"/>
<polygon fill="black" stroke="black" points="76.83,-57.46 67.6,-52.24 71.56,-62.07 76.83,-57.46"/>
<g id="a_edge3&#45;headlabel"><a xlink:href="dir_000004_000005.html" target="_top" xlink:title="3">
<text text-anchor="middle" x="81.33" y="-55.79" font-family="Helvetica,sans-Serif" font-size="10.00">3</text>
</a>
</g>
</g>
</g>
</svg>
