<?xml version="1.0" encoding="UTF-8" standalone="no"?>
<!DOCTYPE svg PUBLIC "-//W3C//DTD SVG 1.1//EN"
 "http://www.w3.org/Graphics/SVG/1.1/DTD/svg11.dtd">
<!-- Generated by graphviz version 2.43.0 (0)
 -->
<!-- Title: /home/runner/work/Simulatio/Simulatio/src Pages: 1 -->
<svg width="740pt" height="132pt"
 viewBox="0.00 0.00 740.00 132.00" xmlns="http://www.w3.org/2000/svg" xmlns:xlink="http://www.w3.org/1999/xlink">
<g id="graph0" class="graph" transform="scale(1 1) rotate(0) translate(4 128)">
<title>/home/runner/work/Simulatio/Simulatio/src</title>
<g id="clust1" class="cluster">
<title>clusterdir_68267d1309a1af8e8297ef4c3efbcdba</title>
<g id="a_clust1"><a xlink:href="dir_68267d1309a1af8e8297ef4c3efbcdba.html" target="_top">
<polygon fill="#eeeeff" stroke="black" points="8,-64 8,-116 724,-116 724,-64 8,-64"/>
</a>
</g>
</g>
<!-- dir_68267d1309a1af8e8297ef4c3efbcdba -->
<g id="node1" class="node">
<title>dir_68267d1309a1af8e8297ef4c3efbcdba</title>
<text text-anchor="middle" x="689" y="-87.5" font-family="Helvetica,sans-Serif" font-size="10.00">src</text>
</g>
<!-- dir_899e7ae7ce7dd39c4e2f9acaa0c6364b -->
<g id="node2" class="node">
<title>dir_899e7ae7ce7dd39c4e2f9acaa0c6364b</title>
<g id="a_node2"><a xlink:href="dir_899e7ae7ce7dd39c4e2f9acaa0c6364b.html" target="_top" xlink:title="Benchmark">
<polygon fill="white" stroke="black" points="644,-108 572,-108 572,-72 644,-72 644,-108"/>
<text text-anchor="middle" x="608" y="-87.5" font-family="Helvetica,sans-Serif" font-size="10.00">Benchmark</text>
</a>
</g>
</g>
<!-- dir_d44c64559bbebec7f509842c48db8b23 -->
<g id="node10" class="node">
<title>dir_d44c64559bbebec7f509842c48db8b23</title>
<g id="a_node10"><a xlink:href="dir_d44c64559bbebec7f509842c48db8b23.html" target="_top" xlink:title="include">
<polygon fill="none" stroke="red" points="312,-36 258,-36 258,0 312,0 312,-36"/>
<text text-anchor="middle" x="285" y="-15.5" font-family="Helvetica,sans-Serif" font-size="10.00">include</text>
</a>
</g>
</g>
<!-- dir_899e7ae7ce7dd39c4e2f9acaa0c6364b&#45;&gt;dir_d44c64559bbebec7f509842c48db8b23 -->
<g id="edge5" class="edge">
<title>dir_899e7ae7ce7dd39c4e2f9acaa0c6364b&#45;&gt;dir_d44c64559bbebec7f509842c48db8b23</title>
<path fill="none" stroke="black" d="M580.61,-71.83C574.95,-68.85 568.91,-66.05 563,-64 480.07,-35.24 376.73,-24.69 322.4,-20.95"/>
<polygon fill="black" stroke="black" points="322.41,-17.44 312.2,-20.29 321.96,-24.43 322.41,-17.44"/>
<g id="a_edge5&#45;headlabel"><a xlink:href="dir_000009_000001.html" target="_top" xlink:title="3">
<text text-anchor="middle" x="326.18" y="-12.34" font-family="Helvetica,sans-Serif" font-size="10.00">3</text>
</a>
</g>
</g>
<!-- dir_7876048763a7c3bc1c27695b4ff5cc71 -->
<g id="node3" class="node">
<title>dir_7876048763a7c3bc1c27695b4ff5cc71</title>
<g id="a_node3"><a xlink:href="dir_7876048763a7c3bc1c27695b4ff5cc71.html" target="_top" xlink:title="Constraints">
<polygon fill="white" stroke="black" points="554,-108 482,-108 482,-72 554,-72 554,-108"/>
<text text-anchor="middle" x="518" y="-87.5" font-family="Helvetica,sans-Serif" font-size="10.00">Constraints</text>
</a>
</g>
</g>
<!-- dir_7876048763a7c3bc1c27695b4ff5cc71&#45;&gt;dir_d44c64559bbebec7f509842c48db8b23 -->
<g id="edge4" class="edge">
<title>dir_7876048763a7c3bc1c27695b4ff5cc71&#45;&gt;dir_d44c64559bbebec7f509842c48db8b23</title>
<path fill="none" stroke="black" d="M490,-71.92C484.49,-69 478.66,-66.2 473,-64 422.54,-44.37 361.01,-31.61 322.41,-24.86"/>
<polygon fill="black" stroke="black" points="322.61,-21.34 312.16,-23.11 321.43,-28.24 322.61,-21.34"/>
<g id="a_edge4&#45;headlabel"><a xlink:href="dir_000010_000001.html" target="_top" xlink:title="5">
<text text-anchor="middle" x="326.63" y="-16.64" font-family="Helvetica,sans-Serif" font-size="10.00">5</text>
</a>
</g>
</g>
<!-- dir_6501cd12cece4e615bfd02b831412659 -->
<g id="node4" class="node">
<title>dir_6501cd12cece4e615bfd02b831412659</title>
<g id="a_node4"><a xlink:href="dir_6501cd12cece4e615bfd02b831412659.html" target="_top" xlink:title="Corpses">
<polygon fill="white" stroke="black" points="464,-108 408,-108 408,-72 464,-72 464,-108"/>
<text text-anchor="middle" x="436" y="-87.5" font-family="Helvetica,sans-Serif" font-size="10.00">Corpses</text>
</a>
</g>
</g>
<!-- dir_6501cd12cece4e615bfd02b831412659&#45;&gt;dir_d44c64559bbebec7f509842c48db8b23 -->
<g id="edge3" class="edge">
<title>dir_6501cd12cece4e615bfd02b831412659&#45;&gt;dir_d44c64559bbebec7f509842c48db8b23</title>
<path fill="none" stroke="black" d="M412.19,-71.81C407.9,-69.03 403.39,-66.31 399,-64 374.24,-50.95 344.83,-39.43 322.08,-31.31"/>
<polygon fill="black" stroke="black" points="323.05,-27.95 312.46,-27.94 320.74,-34.55 323.05,-27.95"/>
<g id="a_edge3&#45;headlabel"><a xlink:href="dir_000011_000001.html" target="_top" xlink:title="3">
<text text-anchor="middle" x="327.38" y="-23.95" font-family="Helvetica,sans-Serif" font-size="10.00">3</text>
</a>
</g>
</g>
<!-- dir_cd85d66fda5a1a6a87e168db47e0a4ce -->
<g id="node5" class="node">
<title>dir_cd85d66fda5a1a6a87e168db47e0a4ce</title>
<g id="a_node5"><a xlink:href="dir_cd85d66fda5a1a6a87e168db47e0a4ce.html" target="_top" xlink:title="demos">
<polygon fill="white" stroke="black" points="390,-108 336,-108 336,-72 390,-72 390,-108"/>
<text text-anchor="middle" x="363" y="-87.5" font-family="Helvetica,sans-Serif" font-size="10.00">demos</text>
</a>
</g>
</g>
<!-- dir_cae27912e177176a90175eee3a6288a5 -->
<g id="node6" class="node">
<title>dir_cae27912e177176a90175eee3a6288a5</title>
<g id="a_node6"><a xlink:href="dir_cae27912e177176a90175eee3a6288a5.html" target="_top" xlink:title="Geometry">
<polygon fill="white" stroke="black" points="317.5,-108 252.5,-108 252.5,-72 317.5,-72 317.5,-108"/>
<text text-anchor="middle" x="285" y="-87.5" font-family="Helvetica,sans-Serif" font-size="10.00">Geometry</text>
</a>
</g>
</g>
<!-- dir_cae27912e177176a90175eee3a6288a5&#45;&gt;dir_d44c64559bbebec7f509842c48db8b23 -->
<g id="edge7" class="edge">
<title>dir_cae27912e177176a90175eee3a6288a5&#45;&gt;dir_d44c64559bbebec7f509842c48db8b23</title>
<path fill="none" stroke="black" d="M285,-71.7C285,-63.98 285,-54.71 285,-46.11"/>
<polygon fill="black" stroke="black" points="288.5,-46.1 285,-36.1 281.5,-46.1 288.5,-46.1"/>
<g id="a_edge7&#45;headlabel"><a xlink:href="dir_000013_000001.html" target="_top" xlink:title="6">
<text text-anchor="middle" x="291.34" y="-47.2" font-family="Helvetica,sans-Serif" font-size="10.00">6</text>
</a>
</g>
</g>
<!-- dir_5eb159725f84c66aafd839904a4acdd0 -->
<g id="node7" class="node">
<title>dir_5eb159725f84c66aafd839904a4acdd0</title>
<g id="a_node7"><a xlink:href="dir_5eb159725f84c66aafd839904a4acdd0.html" target="_top" xlink:title="main">
<polygon fill="white" stroke="black" points="234,-108 180,-108 180,-72 234,-72 234,-108"/>
<text text-anchor="middle" x="207" y="-87.5" font-family="Helvetica,sans-Serif" font-size="10.00">main</text>
</a>
</g>
</g>
<!-- dir_5eb159725f84c66aafd839904a4acdd0&#45;&gt;dir_d44c64559bbebec7f509842c48db8b23 -->
<g id="edge2" class="edge">
<title>dir_5eb159725f84c66aafd839904a4acdd0&#45;&gt;dir_d44c64559bbebec7f509842c48db8b23</title>
<path fill="none" stroke="black" d="M226.28,-71.7C235.92,-63.05 247.73,-52.45 258.23,-43.03"/>
<polygon fill="black" stroke="black" points="260.84,-45.39 265.94,-36.1 256.16,-40.18 260.84,-45.39"/>
<g id="a_edge2&#45;headlabel"><a xlink:href="dir_000014_000001.html" target="_top" xlink:title="2">
<text text-anchor="middle" x="260.06" y="-47.4" font-family="Helvetica,sans-Serif" font-size="10.00">2</text>
</a>
</g>
</g>
<!-- dir_c9841dba4aafcad4bcaa301bc8bfa1b1 -->
<g id="node8" class="node">
<title>dir_c9841dba4aafcad4bcaa301bc8bfa1b1</title>
<g id="a_node8"><a xlink:href="dir_c9841dba4aafcad4bcaa301bc8bfa1b1.html" target="_top" xlink:title="Renderer">
<polygon fill="white" stroke="black" points="161.5,-108 100.5,-108 100.5,-72 161.5,-72 161.5,-108"/>
<text text-anchor="middle" x="131" y="-87.5" font-family="Helvetica,sans-Serif" font-size="10.00">Renderer</text>
</a>
</g>
</g>
<!-- dir_c9841dba4aafcad4bcaa301bc8bfa1b1&#45;&gt;dir_d44c64559bbebec7f509842c48db8b23 -->
<g id="edge6" class="edge">
<title>dir_c9841dba4aafcad4bcaa301bc8bfa1b1&#45;&gt;dir_d44c64559bbebec7f509842c48db8b23</title>
<path fill="none" stroke="black" d="M156.85,-71.89C161.48,-69.1 166.32,-66.36 171,-64 195.99,-51.39 225.39,-39.86 248.08,-31.63"/>
<polygon fill="black" stroke="black" points="249.44,-34.86 257.67,-28.2 247.08,-28.27 249.44,-34.86"/>
<g id="a_edge6&#45;headlabel"><a xlink:href="dir_000015_000001.html" target="_top" xlink:title="7">
<text text-anchor="middle" x="247.01" y="-36.24" font-family="Helvetica,sans-Serif" font-size="10.00">7</text>
</a>
</g>
</g>
<!-- dir_5b0c15ab7b61b2816d5bb28863a16bad -->
<g id="node9" class="node">
<title>dir_5b0c15ab7b61b2816d5bb28863a16bad</title>
<g id="a_node9"><a xlink:href="dir_5b0c15ab7b61b2816d5bb28863a16bad.html" target="_top" xlink:title="Structures">
<polygon fill="white" stroke="black" points="82,-108 16,-108 16,-72 82,-72 82,-108"/>
<text text-anchor="middle" x="49" y="-87.5" font-family="Helvetica,sans-Serif" font-size="10.00">Structures</text>
</a>
</g>
</g>
<!-- dir_5b0c15ab7b61b2816d5bb28863a16bad&#45;&gt;dir_d44c64559bbebec7f509842c48db8b23 -->
<g id="edge1" class="edge">
<title>dir_5b0c15ab7b61b2816d5bb28863a16bad&#45;&gt;dir_d44c64559bbebec7f509842c48db8b23</title>
<path fill="none" stroke="black" d="M75.68,-71.86C80.95,-68.95 86.54,-66.17 92,-64 144.11,-43.32 208.07,-30.73 247.69,-24.32"/>
<polygon fill="black" stroke="black" points="248.36,-27.75 257.7,-22.74 247.28,-20.84 248.36,-27.75"/>
<g id="a_edge1&#45;headlabel"><a xlink:href="dir_000016_000001.html" target="_top" xlink:title="4">
<text text-anchor="middle" x="245.25" y="-28.62" font-family="Helvetica,sans-Serif" font-size="10.00">4</text>
</a>
</g>
</g>
</g>
</svg>
