<?xml version="1.0" encoding="UTF-8" standalone="no"?>
<!DOCTYPE svg PUBLIC "-//W3C//DTD SVG 1.1//EN"
 "http://www.w3.org/Graphics/SVG/1.1/DTD/svg11.dtd">
<!-- Generated by graphviz version 2.43.0 (0)
 -->
<!-- Title: /home/runner/work/Simulatio/Simulatio/engine/include/Structures Pages: 1 -->
<svg width="152pt" height="311pt"
 viewBox="0.00 0.00 152.00 311.00" xmlns="http://www.w3.org/2000/svg" xmlns:xlink="http://www.w3.org/1999/xlink">
<g id="graph0" class="graph" transform="scale(1 1) rotate(0) translate(4 307)">
<title>/home/runner/work/Simulatio/Simulatio/engine/include/Structures</title>
<g id="clust1" class="cluster">
<title>clusterdir_bafa501d493553e442f19f5f8dd7b29c</title>
<g id="a_clust1"><a xlink:href="dir_bafa501d493553e442f19f5f8dd7b29c.html" target="_top" xlink:title="include">
<polygon fill="#ddddee" stroke="black" points="8,-8 8,-295 136,-295 136,-8 8,-8"/>
<text text-anchor="middle" x="72" y="-283" font-family="Helvetica,sans-Serif" font-size="10.00">include</text>
</a>
</g>
</g>
<!-- dir_0f27ad101268ab0da7ab16b17027eb4c -->
<g id="node1" class="node">
<title>dir_0f27ad101268ab0da7ab16b17027eb4c</title>
<g id="a_node1"><a xlink:href="dir_0f27ad101268ab0da7ab16b17027eb4c.html" target="_top" xlink:title="Geometry">
<polygon fill="none" stroke="black" points="84.5,-124 19.5,-124 19.5,-88 84.5,-88 84.5,-124"/>
<text text-anchor="middle" x="52" y="-103.5" font-family="Helvetica,sans-Serif" font-size="10.00">Geometry</text>
</a>
</g>
</g>
<!-- dir_6b8d7177440e95b5f8c395438f60f5bd -->
<g id="node3" class="node">
<title>dir_6b8d7177440e95b5f8c395438f60f5bd</title>
<g id="a_node3"><a xlink:href="dir_6b8d7177440e95b5f8c395438f60f5bd.html" target="_top" xlink:title="Corpses">
<polygon fill="none" stroke="black" points="104,-52 48,-52 48,-16 104,-16 104,-52"/>
<text text-anchor="middle" x="76" y="-31.5" font-family="Helvetica,sans-Serif" font-size="10.00">Corpses</text>
</a>
</g>
</g>
<!-- dir_0f27ad101268ab0da7ab16b17027eb4c&#45;&gt;dir_6b8d7177440e95b5f8c395438f60f5bd -->
<g id="edge1" class="edge">
<title>dir_0f27ad101268ab0da7ab16b17027eb4c&#45;&gt;dir_6b8d7177440e95b5f8c395438f60f5bd</title>
<path fill="none" stroke="black" d="M52.02,-87.7C53.91,-79.81 56.95,-70.3 60.33,-61.55"/>
<polygon fill="black" stroke="black" points="63.64,-62.68 64.24,-52.1 57.18,-60 63.64,-62.68"/>
<g id="a_edge1&#45;headlabel"><a xlink:href="dir_000006_000005.html" target="_top" xlink:title="3">
<text text-anchor="middle" x="64.89" y="-64.59" font-family="Helvetica,sans-Serif" font-size="10.00">3</text>
</a>
</g>
</g>
<!-- dir_335545099ef0f3ab8d64074ba27782c5 -->
<g id="node2" class="node">
<title>dir_335545099ef0f3ab8d64074ba27782c5</title>
<g id="a_node2"><a xlink:href="dir_335545099ef0f3ab8d64074ba27782c5.html" target="_top" xlink:title="Constraints">
<polygon fill="none" stroke="black" points="108,-196 36,-196 36,-160 108,-160 108,-196"/>
<text text-anchor="middle" x="72" y="-175.5" font-family="Helvetica,sans-Serif" font-size="10.00">Constraints</text>
</a>
</g>
</g>
<!-- dir_335545099ef0f3ab8d64074ba27782c5&#45;&gt;dir_0f27ad101268ab0da7ab16b17027eb4c -->
<g id="edge2" class="edge">
<title>dir_335545099ef0f3ab8d64074ba27782c5&#45;&gt;dir_0f27ad101268ab0da7ab16b17027eb4c</title>
<path fill="none" stroke="black" d="M67.06,-159.7C64.83,-151.9 62.15,-142.51 59.67,-133.83"/>
<polygon fill="black" stroke="black" points="63,-132.76 56.89,-124.1 56.27,-134.68 63,-132.76"/>
<g id="a_edge2&#45;headlabel"><a xlink:href="dir_000004_000006.html" target="_top" xlink:title="2">
<text text-anchor="middle" x="66.72" y="-132.93" font-family="Helvetica,sans-Serif" font-size="10.00">2</text>
</a>
</g>
</g>
<!-- dir_335545099ef0f3ab8d64074ba27782c5&#45;&gt;dir_6b8d7177440e95b5f8c395438f60f5bd -->
<g id="edge3" class="edge">
<title>dir_335545099ef0f3ab8d64074ba27782c5&#45;&gt;dir_6b8d7177440e95b5f8c395438f60f5bd</title>
<path fill="none" stroke="black" d="M81.13,-159.88C86.01,-149.76 91.51,-136.51 94,-124 97.13,-108.31 96.61,-103.79 94,-88 92.56,-79.28 89.87,-70.06 87,-61.8"/>
<polygon fill="black" stroke="black" points="90.23,-60.46 83.48,-52.3 83.67,-62.89 90.23,-60.46"/>
<g id="a_edge3&#45;headlabel"><a xlink:href="dir_000004_000005.html" target="_top" xlink:title="3">
<text text-anchor="middle" x="94.14" y="-60.34" font-family="Helvetica,sans-Serif" font-size="10.00">3</text>
</a>
</g>
</g>
<!-- dir_6b8d7177440e95b5f8c395438f60f5bd&#45;&gt;dir_0f27ad101268ab0da7ab16b17027eb4c -->
<g id="edge7" class="edge">
<title>dir_6b8d7177440e95b5f8c395438f60f5bd&#45;&gt;dir_0f27ad101268ab0da7ab16b17027eb4c</title>
<path fill="none" stroke="black" d="M76.03,-52.1C74.16,-59.96 71.13,-69.46 67.76,-78.23"/>
<polygon fill="black" stroke="black" points="64.43,-77.12 63.85,-87.7 70.9,-79.79 64.43,-77.12"/>
<g id="a_edge7&#45;headlabel"><a xlink:href="dir_000005_000006.html" target="_top" xlink:title="1">
<text text-anchor="middle" x="63.18" y="-70.21" font-family="Helvetica,sans-Serif" font-size="10.00">1</text>
</a>
</g>
</g>
<!-- dir_50952b45a125f8e17f4ea1e097ab4b79 -->
<g id="node4" class="node">
<title>dir_50952b45a125f8e17f4ea1e097ab4b79</title>
<g id="a_node4"><a xlink:href="dir_50952b45a125f8e17f4ea1e097ab4b79.html" target="_top" xlink:title="Structures">
<polygon fill="#eeeeff" stroke="black" points="105,-268 39,-268 39,-232 105,-232 105,-268"/>
<text text-anchor="middle" x="72" y="-247.5" font-family="Helvetica,sans-Serif" font-size="10.00">Structures</text>
</a>
</g>
</g>
<!-- dir_50952b45a125f8e17f4ea1e097ab4b79&#45;&gt;dir_0f27ad101268ab0da7ab16b17027eb4c -->
<g id="edge4" class="edge">
<title>dir_50952b45a125f8e17f4ea1e097ab4b79&#45;&gt;dir_0f27ad101268ab0da7ab16b17027eb4c</title>
<path fill="none" stroke="black" d="M51.62,-231.53C42.19,-222.09 31.99,-209.6 27,-196 19.44,-175.41 27.08,-151.43 35.84,-133.56"/>
<polygon fill="black" stroke="black" points="39.15,-134.79 40.74,-124.31 32.96,-131.51 39.15,-134.79"/>
<g id="a_edge4&#45;headlabel"><a xlink:href="dir_000007_000006.html" target="_top" xlink:title="10">
<text text-anchor="middle" x="39.98" y="-136.8" font-family="Helvetica,sans-Serif" font-size="10.00">10</text>
</a>
</g>
</g>
<!-- dir_50952b45a125f8e17f4ea1e097ab4b79&#45;&gt;dir_335545099ef0f3ab8d64074ba27782c5 -->
<g id="edge5" class="edge">
<title>dir_50952b45a125f8e17f4ea1e097ab4b79&#45;&gt;dir_335545099ef0f3ab8d64074ba27782c5</title>
<path fill="none" stroke="black" d="M72,-231.7C72,-223.98 72,-214.71 72,-206.11"/>
<polygon fill="black" stroke="black" points="75.5,-206.1 72,-196.1 68.5,-206.1 75.5,-206.1"/>
<g id="a_edge5&#45;headlabel"><a xlink:href="dir_000007_000004.html" target="_top" xlink:title="4">
<text text-anchor="middle" x="78.34" y="-207.2" font-family="Helvetica,sans-Serif" font-size="10.00">4</text>
</a>
</g>
</g>
<!-- dir_50952b45a125f8e17f4ea1e097ab4b79&#45;&gt;dir_6b8d7177440e95b5f8c395438f60f5bd -->
<g id="edge6" class="edge">
<title>dir_50952b45a125f8e17f4ea1e097ab4b79&#45;&gt;dir_6b8d7177440e95b5f8c395438f60f5bd</title>
<path fill="none" stroke="black" d="M92.38,-231.53C101.81,-222.09 112.01,-209.6 117,-196 134.01,-149.67 109.97,-93.35 92.15,-61.09"/>
<polygon fill="black" stroke="black" points="95.11,-59.21 87.1,-52.27 89.03,-62.69 95.11,-59.21"/>
<g id="a_edge6&#45;headlabel"><a xlink:href="dir_000007_000005.html" target="_top" xlink:title="9">
<text text-anchor="middle" x="99.36" y="-58.42" font-family="Helvetica,sans-Serif" font-size="10.00">9</text>
</a>
</g>
</g>
</g>
</svg>
