<?xml version="1.0" encoding="UTF-8" standalone="no"?>
<!DOCTYPE svg PUBLIC "-//W3C//DTD SVG 1.1//EN"
 "http://www.w3.org/Graphics/SVG/1.1/DTD/svg11.dtd">
<!-- Generated by graphviz version 2.43.0 (0)
 -->
<!-- Title: /home/runner/work/Simulatio/Simulatio/engine/include Pages: 1 -->
<svg width="258pt" height="327pt"
 viewBox="0.00 0.00 258.00 327.00" xmlns="http://www.w3.org/2000/svg" xmlns:xlink="http://www.w3.org/1999/xlink">
<g id="graph0" class="graph" transform="scale(1 1) rotate(0) translate(4 323)">
<title>/home/runner/work/Simulatio/Simulatio/engine/include</title>
<g id="clust1" class="cluster">
<title>clusterdir_996f45160da62e1a3d7f6046fad68f51</title>
<g id="a_clust1"><a xlink:href="dir_996f45160da62e1a3d7f6046fad68f51.html" target="_top" xlink:title="engine">
<polygon fill="#ddddee" stroke="black" points="8,-8 8,-311 242,-311 242,-8 8,-8"/>
<text text-anchor="middle" x="125" y="-299" font-family="Helvetica,sans-Serif" font-size="10.00">engine</text>
</a>
</g>
</g>
<g id="clust2" class="cluster">
<title>clusterdir_bafa501d493553e442f19f5f8dd7b29c</title>
<g id="a_clust2"><a xlink:href="dir_bafa501d493553e442f19f5f8dd7b29c.html" target="_top">
<polygon fill="#eeeeff" stroke="black" points="16,-16 16,-284 234,-284 234,-16 16,-16"/>
</a>
</g>
</g>
<!-- dir_bafa501d493553e442f19f5f8dd7b29c -->
<g id="node1" class="node">
<title>dir_bafa501d493553e442f19f5f8dd7b29c</title>
<text text-anchor="middle" x="167" y="-255.5" font-family="Helvetica,sans-Serif" font-size="10.00">include</text>
</g>
<!-- dir_1c92edfe4b6d8bf0668d112be75ddbf8 -->
<g id="node2" class="node">
<title>dir_1c92edfe4b6d8bf0668d112be75ddbf8</title>
<g id="a_node2"><a xlink:href="dir_1c92edfe4b6d8bf0668d112be75ddbf8.html" target="_top" xlink:title="Benchmark">
<polygon fill="white" stroke="black" points="136,-204 64,-204 64,-168 136,-168 136,-204"/>
<text text-anchor="middle" x="100" y="-183.5" font-family="Helvetica,sans-Serif" font-size="10.00">Benchmark</text>
</a>
</g>
</g>
<!-- dir_0f27ad101268ab0da7ab16b17027eb4c -->
<g id="node5" class="node">
<title>dir_0f27ad101268ab0da7ab16b17027eb4c</title>
<g id="a_node5"><a xlink:href="dir_0f27ad101268ab0da7ab16b17027eb4c.html" target="_top" xlink:title="Geometry">
<polygon fill="white" stroke="black" points="132.5,-132 67.5,-132 67.5,-96 132.5,-96 132.5,-132"/>
<text text-anchor="middle" x="100" y="-111.5" font-family="Helvetica,sans-Serif" font-size="10.00">Geometry</text>
</a>
</g>
</g>
<!-- dir_1c92edfe4b6d8bf0668d112be75ddbf8&#45;&gt;dir_0f27ad101268ab0da7ab16b17027eb4c -->
<g id="edge3" class="edge">
<title>dir_1c92edfe4b6d8bf0668d112be75ddbf8&#45;&gt;dir_0f27ad101268ab0da7ab16b17027eb4c</title>
<path fill="none" stroke="black" d="M94.08,-167.7C93.29,-159.98 93.06,-150.71 93.4,-142.11"/>
<polygon fill="black" stroke="black" points="96.9,-142.32 94.1,-132.1 89.92,-141.84 96.9,-142.32"/>
<g id="a_edge3&#45;headlabel"><a xlink:href="dir_000003_000006.html" target="_top" xlink:title="1">
<text text-anchor="middle" x="99.48" y="-143.61" font-family="Helvetica,sans-Serif" font-size="10.00">1</text>
</a>
</g>
</g>
<!-- dir_335545099ef0f3ab8d64074ba27782c5 -->
<g id="node3" class="node">
<title>dir_335545099ef0f3ab8d64074ba27782c5</title>
<g id="a_node3"><a xlink:href="dir_335545099ef0f3ab8d64074ba27782c5.html" target="_top" xlink:title="Constraints">
<polygon fill="white" stroke="black" points="226,-204 154,-204 154,-168 226,-168 226,-204"/>
<text text-anchor="middle" x="190" y="-183.5" font-family="Helvetica,sans-Serif" font-size="10.00">Constraints</text>
</a>
</g>
</g>
<!-- dir_6b8d7177440e95b5f8c395438f60f5bd -->
<g id="node4" class="node">
<title>dir_6b8d7177440e95b5f8c395438f60f5bd</title>
<g id="a_node4"><a xlink:href="dir_6b8d7177440e95b5f8c395438f60f5bd.html" target="_top" xlink:title="Corpses">
<polygon fill="white" stroke="black" points="128,-60 72,-60 72,-24 128,-24 128,-60"/>
<text text-anchor="middle" x="100" y="-39.5" font-family="Helvetica,sans-Serif" font-size="10.00">Corpses</text>
</a>
</g>
</g>
<!-- dir_335545099ef0f3ab8d64074ba27782c5&#45;&gt;dir_6b8d7177440e95b5f8c395438f60f5bd -->
<g id="edge5" class="edge">
<title>dir_335545099ef0f3ab8d64074ba27782c5&#45;&gt;dir_6b8d7177440e95b5f8c395438f60f5bd</title>
<path fill="none" stroke="black" d="M181.83,-167.76C172.89,-149.45 157.74,-119.9 142,-96 135.74,-86.49 128.19,-76.58 121.23,-67.93"/>
<polygon fill="black" stroke="black" points="123.85,-65.6 114.8,-60.09 118.43,-70.04 123.85,-65.6"/>
<g id="a_edge5&#45;headlabel"><a xlink:href="dir_000004_000005.html" target="_top" xlink:title="3">
<text text-anchor="middle" x="128.32" y="-64.08" font-family="Helvetica,sans-Serif" font-size="10.00">3</text>
</a>
</g>
</g>
<!-- dir_335545099ef0f3ab8d64074ba27782c5&#45;&gt;dir_0f27ad101268ab0da7ab16b17027eb4c -->
<g id="edge4" class="edge">
<title>dir_335545099ef0f3ab8d64074ba27782c5&#45;&gt;dir_0f27ad101268ab0da7ab16b17027eb4c</title>
<path fill="none" stroke="black" d="M167.75,-167.7C156.42,-158.88 142.47,-148.03 130.18,-138.47"/>
<polygon fill="black" stroke="black" points="132.03,-135.48 121.99,-132.1 127.74,-141.01 132.03,-135.48"/>
<g id="a_edge4&#45;headlabel"><a xlink:href="dir_000004_000006.html" target="_top" xlink:title="2">
<text text-anchor="middle" x="136.61" y="-132.95" font-family="Helvetica,sans-Serif" font-size="10.00">2</text>
</a>
</g>
</g>
<!-- dir_6b8d7177440e95b5f8c395438f60f5bd&#45;&gt;dir_0f27ad101268ab0da7ab16b17027eb4c -->
<g id="edge9" class="edge">
<title>dir_6b8d7177440e95b5f8c395438f60f5bd&#45;&gt;dir_0f27ad101268ab0da7ab16b17027eb4c</title>
<path fill="none" stroke="black" d="M105.9,-60.1C106.7,-67.79 106.94,-77.05 106.6,-85.67"/>
<polygon fill="black" stroke="black" points="103.11,-85.48 105.92,-95.7 110.09,-85.96 103.11,-85.48"/>
<g id="a_edge9&#45;headlabel"><a xlink:href="dir_000005_000006.html" target="_top" xlink:title="1">
<text text-anchor="middle" x="100.52" y="-79.2" font-family="Helvetica,sans-Serif" font-size="10.00">1</text>
</a>
</g>
</g>
<!-- dir_0f27ad101268ab0da7ab16b17027eb4c&#45;&gt;dir_1c92edfe4b6d8bf0668d112be75ddbf8 -->
<g id="edge1" class="edge">
<title>dir_0f27ad101268ab0da7ab16b17027eb4c&#45;&gt;dir_1c92edfe4b6d8bf0668d112be75ddbf8</title>
<path fill="none" stroke="black" d="M105.9,-132.1C106.7,-139.79 106.94,-149.05 106.6,-157.67"/>
<polygon fill="black" stroke="black" points="103.11,-157.48 105.92,-167.7 110.09,-157.96 103.11,-157.48"/>
<g id="a_edge1&#45;headlabel"><a xlink:href="dir_000006_000003.html" target="_top" xlink:title="1">
<text text-anchor="middle" x="100.52" y="-151.2" font-family="Helvetica,sans-Serif" font-size="10.00">1</text>
</a>
</g>
</g>
<!-- dir_0f27ad101268ab0da7ab16b17027eb4c&#45;&gt;dir_6b8d7177440e95b5f8c395438f60f5bd -->
<g id="edge2" class="edge">
<title>dir_0f27ad101268ab0da7ab16b17027eb4c&#45;&gt;dir_6b8d7177440e95b5f8c395438f60f5bd</title>
<path fill="none" stroke="black" d="M94.08,-95.7C93.29,-87.98 93.06,-78.71 93.4,-70.11"/>
<polygon fill="black" stroke="black" points="96.9,-70.32 94.1,-60.1 89.92,-69.84 96.9,-70.32"/>
<g id="a_edge2&#45;headlabel"><a xlink:href="dir_000006_000005.html" target="_top" xlink:title="3">
<text text-anchor="middle" x="99.48" y="-71.61" font-family="Helvetica,sans-Serif" font-size="10.00">3</text>
</a>
</g>
</g>
<!-- dir_50952b45a125f8e17f4ea1e097ab4b79 -->
<g id="node6" class="node">
<title>dir_50952b45a125f8e17f4ea1e097ab4b79</title>
<g id="a_node6"><a xlink:href="dir_50952b45a125f8e17f4ea1e097ab4b79.html" target="_top" xlink:title="Structures">
<polygon fill="white" stroke="black" points="90,-276 24,-276 24,-240 90,-240 90,-276"/>
<text text-anchor="middle" x="57" y="-255.5" font-family="Helvetica,sans-Serif" font-size="10.00">Structures</text>
</a>
</g>
</g>
<!-- dir_50952b45a125f8e17f4ea1e097ab4b79&#45;&gt;dir_335545099ef0f3ab8d64074ba27782c5 -->
<g id="edge7" class="edge">
<title>dir_50952b45a125f8e17f4ea1e097ab4b79&#45;&gt;dir_335545099ef0f3ab8d64074ba27782c5</title>
<path fill="none" stroke="black" d="M89.54,-239.88C107.25,-230.55 129.35,-218.92 148.32,-208.94"/>
<polygon fill="black" stroke="black" points="150.12,-211.94 157.34,-204.19 146.86,-205.75 150.12,-211.94"/>
<g id="a_edge7&#45;headlabel"><a xlink:href="dir_000007_000004.html" target="_top" xlink:title="4">
<text text-anchor="middle" x="148.26" y="-213.63" font-family="Helvetica,sans-Serif" font-size="10.00">4</text>
</a>
</g>
</g>
<!-- dir_50952b45a125f8e17f4ea1e097ab4b79&#45;&gt;dir_6b8d7177440e95b5f8c395438f60f5bd -->
<g id="edge8" class="edge">
<title>dir_50952b45a125f8e17f4ea1e097ab4b79&#45;&gt;dir_6b8d7177440e95b5f8c395438f60f5bd</title>
<path fill="none" stroke="black" d="M52.13,-239.98C49.44,-229.67 46.36,-216.19 45,-204 39.62,-155.9 39.03,-140.09 59,-96 63.46,-86.14 70.09,-76.46 76.73,-68.11"/>
<polygon fill="black" stroke="black" points="79.56,-70.18 83.29,-60.26 74.19,-65.69 79.56,-70.18"/>
<g id="a_edge8&#45;headlabel"><a xlink:href="dir_000007_000005.html" target="_top" xlink:title="9">
<text text-anchor="middle" x="79.44" y="-72.26" font-family="Helvetica,sans-Serif" font-size="10.00">9</text>
</a>
</g>
</g>
<!-- dir_50952b45a125f8e17f4ea1e097ab4b79&#45;&gt;dir_0f27ad101268ab0da7ab16b17027eb4c -->
<g id="edge6" class="edge">
<title>dir_50952b45a125f8e17f4ea1e097ab4b79&#45;&gt;dir_0f27ad101268ab0da7ab16b17027eb4c</title>
<path fill="none" stroke="black" d="M53.03,-240C49.54,-221.63 46.26,-191.79 55,-168 58.78,-157.7 65.56,-148.02 72.72,-139.84"/>
<polygon fill="black" stroke="black" points="75.34,-142.16 79.62,-132.47 70.23,-137.38 75.34,-142.16"/>
<g id="a_edge6&#45;headlabel"><a xlink:href="dir_000007_000006.html" target="_top" xlink:title="10">
<text text-anchor="middle" x="74.96" y="-144.22" font-family="Helvetica,sans-Serif" font-size="10.00">10</text>
</a>
</g>
</g>
</g>
</svg>
