<?xml version="1.0" encoding="UTF-8" standalone="no"?>
<!DOCTYPE svg PUBLIC "-//W3C//DTD SVG 1.1//EN"
 "http://www.w3.org/Graphics/SVG/1.1/DTD/svg11.dtd">
<!-- Generated by graphviz version 2.43.0 (0)
 -->
<!-- Title: /home/runner/work/Simulatio/Simulatio/engine/src Pages: 1 -->
<svg width="532pt" height="175pt"
 viewBox="0.00 0.00 532.00 175.00" xmlns="http://www.w3.org/2000/svg" xmlns:xlink="http://www.w3.org/1999/xlink">
<g id="graph0" class="graph" transform="scale(1 1) rotate(0) translate(4 171)">
<title>/home/runner/work/Simulatio/Simulatio/engine/src</title>
<g id="clust1" class="cluster">
<title>clusterdir_996f45160da62e1a3d7f6046fad68f51</title>
<g id="a_clust1"><a xlink:href="dir_996f45160da62e1a3d7f6046fad68f51.html" target="_top" xlink:title="engine">
<polygon fill="#ddddee" stroke="black" points="8,-8 8,-159 516,-159 516,-8 8,-8"/>
<text text-anchor="middle" x="262" y="-147" font-family="Helvetica,sans-Serif" font-size="10.00">engine</text>
</a>
</g>
</g>
<g id="clust2" class="cluster">
<title>clusterdir_3d9126aa00c041bc0b8f859d1965a0f4</title>
<g id="a_clust2"><a xlink:href="dir_3d9126aa00c041bc0b8f859d1965a0f4.html" target="_top">
<polygon fill="#eeeeff" stroke="black" points="16,-80 16,-132 508,-132 508,-80 16,-80"/>
</a>
</g>
</g>
<!-- dir_bafa501d493553e442f19f5f8dd7b29c -->
<g id="node1" class="node">
<title>dir_bafa501d493553e442f19f5f8dd7b29c</title>
<g id="a_node1"><a xlink:href="dir_bafa501d493553e442f19f5f8dd7b29c.html" target="_top" xlink:title="include">
<polygon fill="none" stroke="red" points="247,-52 193,-52 193,-16 247,-16 247,-52"/>
<text text-anchor="middle" x="220" y="-31.5" font-family="Helvetica,sans-Serif" font-size="10.00">include</text>
</a>
</g>
</g>
<!-- dir_3d9126aa00c041bc0b8f859d1965a0f4 -->
<g id="node2" class="node">
<title>dir_3d9126aa00c041bc0b8f859d1965a0f4</title>
<text text-anchor="middle" x="473" y="-103.5" font-family="Helvetica,sans-Serif" font-size="10.00">src</text>
</g>
<!-- dir_203a849e8a5cbb76cc0561dfa1595595 -->
<g id="node3" class="node">
<title>dir_203a849e8a5cbb76cc0561dfa1595595</title>
<g id="a_node3"><a xlink:href="dir_203a849e8a5cbb76cc0561dfa1595595.html" target="_top" xlink:title="Benchmark">
<polygon fill="white" stroke="black" points="428,-124 356,-124 356,-88 428,-88 428,-124"/>
<text text-anchor="middle" x="392" y="-103.5" font-family="Helvetica,sans-Serif" font-size="10.00">Benchmark</text>
</a>
</g>
</g>
<!-- dir_203a849e8a5cbb76cc0561dfa1595595&#45;&gt;dir_bafa501d493553e442f19f5f8dd7b29c -->
<g id="edge1" class="edge">
<title>dir_203a849e8a5cbb76cc0561dfa1595595&#45;&gt;dir_bafa501d493553e442f19f5f8dd7b29c</title>
<path fill="none" stroke="black" d="M362.83,-87.88C357.63,-85.09 352.21,-82.35 347,-80 317.45,-66.67 282.67,-54.58 256.98,-46.3"/>
<polygon fill="black" stroke="black" points="257.86,-42.91 247.27,-43.21 255.74,-49.58 257.86,-42.91"/>
<g id="a_edge1&#45;headlabel"><a xlink:href="dir_000009_000002.html" target="_top" xlink:title="3">
<text text-anchor="middle" x="262.15" y="-38.79" font-family="Helvetica,sans-Serif" font-size="10.00">3</text>
</a>
</g>
</g>
<!-- dir_9fa1a5b78ffe95dfc5c0e8c4ae15eaa4 -->
<g id="node4" class="node">
<title>dir_9fa1a5b78ffe95dfc5c0e8c4ae15eaa4</title>
<g id="a_node4"><a xlink:href="dir_9fa1a5b78ffe95dfc5c0e8c4ae15eaa4.html" target="_top" xlink:title="Constraints">
<polygon fill="white" stroke="black" points="338,-124 266,-124 266,-88 338,-88 338,-124"/>
<text text-anchor="middle" x="302" y="-103.5" font-family="Helvetica,sans-Serif" font-size="10.00">Constraints</text>
</a>
</g>
</g>
<!-- dir_9fa1a5b78ffe95dfc5c0e8c4ae15eaa4&#45;&gt;dir_bafa501d493553e442f19f5f8dd7b29c -->
<g id="edge5" class="edge">
<title>dir_9fa1a5b78ffe95dfc5c0e8c4ae15eaa4&#45;&gt;dir_bafa501d493553e442f19f5f8dd7b29c</title>
<path fill="none" stroke="black" d="M281.73,-87.7C271.5,-78.97 258.94,-68.24 247.82,-58.75"/>
<polygon fill="black" stroke="black" points="249.91,-55.94 240.04,-52.1 245.37,-61.26 249.91,-55.94"/>
<g id="a_edge5&#45;headlabel"><a xlink:href="dir_000010_000002.html" target="_top" xlink:title="5">
<text text-anchor="middle" x="254.49" y="-53.61" font-family="Helvetica,sans-Serif" font-size="10.00">5</text>
</a>
</g>
</g>
<!-- dir_94515014d17e45fe33e3ec62d7907c28 -->
<g id="node5" class="node">
<title>dir_94515014d17e45fe33e3ec62d7907c28</title>
<g id="a_node5"><a xlink:href="dir_94515014d17e45fe33e3ec62d7907c28.html" target="_top" xlink:title="Corpses">
<polygon fill="white" stroke="black" points="248,-124 192,-124 192,-88 248,-88 248,-124"/>
<text text-anchor="middle" x="220" y="-103.5" font-family="Helvetica,sans-Serif" font-size="10.00">Corpses</text>
</a>
</g>
</g>
<!-- dir_94515014d17e45fe33e3ec62d7907c28&#45;&gt;dir_bafa501d493553e442f19f5f8dd7b29c -->
<g id="edge4" class="edge">
<title>dir_94515014d17e45fe33e3ec62d7907c28&#45;&gt;dir_bafa501d493553e442f19f5f8dd7b29c</title>
<path fill="none" stroke="black" d="M220,-87.7C220,-79.98 220,-70.71 220,-62.11"/>
<polygon fill="black" stroke="black" points="223.5,-62.1 220,-52.1 216.5,-62.1 223.5,-62.1"/>
<g id="a_edge4&#45;headlabel"><a xlink:href="dir_000011_000002.html" target="_top" xlink:title="3">
<text text-anchor="middle" x="226.34" y="-63.2" font-family="Helvetica,sans-Serif" font-size="10.00">3</text>
</a>
</g>
</g>
<!-- dir_6c862f0c2aff74d2ecefde6dae9f68c4 -->
<g id="node6" class="node">
<title>dir_6c862f0c2aff74d2ecefde6dae9f68c4</title>
<g id="a_node6"><a xlink:href="dir_6c862f0c2aff74d2ecefde6dae9f68c4.html" target="_top" xlink:title="Geometry">
<polygon fill="white" stroke="black" points="173.5,-124 108.5,-124 108.5,-88 173.5,-88 173.5,-124"/>
<text text-anchor="middle" x="141" y="-103.5" font-family="Helvetica,sans-Serif" font-size="10.00">Geometry</text>
</a>
</g>
</g>
<!-- dir_6c862f0c2aff74d2ecefde6dae9f68c4&#45;&gt;dir_bafa501d493553e442f19f5f8dd7b29c -->
<g id="edge3" class="edge">
<title>dir_6c862f0c2aff74d2ecefde6dae9f68c4&#45;&gt;dir_bafa501d493553e442f19f5f8dd7b29c</title>
<path fill="none" stroke="black" d="M160.53,-87.7C170.38,-78.97 182.49,-68.24 193.2,-58.75"/>
<polygon fill="black" stroke="black" points="195.53,-61.36 200.7,-52.1 190.89,-56.12 195.53,-61.36"/>
<g id="a_edge3&#45;headlabel"><a xlink:href="dir_000012_000002.html" target="_top" xlink:title="6">
<text text-anchor="middle" x="194.73" y="-63.36" font-family="Helvetica,sans-Serif" font-size="10.00">6</text>
</a>
</g>
</g>
<!-- dir_47462ed027b0395b33bf2ff8ee489b34 -->
<g id="node7" class="node">
<title>dir_47462ed027b0395b33bf2ff8ee489b34</title>
<g id="a_node7"><a xlink:href="dir_47462ed027b0395b33bf2ff8ee489b34.html" target="_top" xlink:title="Structures">
<polygon fill="white" stroke="black" points="90,-124 24,-124 24,-88 90,-88 90,-124"/>
<text text-anchor="middle" x="57" y="-103.5" font-family="Helvetica,sans-Serif" font-size="10.00">Structures</text>
</a>
</g>
</g>
<!-- dir_47462ed027b0395b33bf2ff8ee489b34&#45;&gt;dir_bafa501d493553e442f19f5f8dd7b29c -->
<g id="edge2" class="edge">
<title>dir_47462ed027b0395b33bf2ff8ee489b34&#45;&gt;dir_bafa501d493553e442f19f5f8dd7b29c</title>
<path fill="none" stroke="black" d="M84.85,-87.9C89.82,-85.11 95.01,-82.37 100,-80 127.21,-67.1 159.19,-55.26 183.3,-46.97"/>
<polygon fill="black" stroke="black" points="184.43,-50.28 192.78,-43.75 182.18,-43.65 184.43,-50.28"/>
<g id="a_edge2&#45;headlabel"><a xlink:href="dir_000013_000002.html" target="_top" xlink:title="2">
<text text-anchor="middle" x="181.94" y="-51.62" font-family="Helvetica,sans-Serif" font-size="10.00">2</text>
</a>
</g>
</g>
</g>
</svg>
