<?xml version="1.0" encoding="UTF-8" standalone="no"?>
<!DOCTYPE svg PUBLIC "-//W3C//DTD SVG 1.1//EN"
 "http://www.w3.org/Graphics/SVG/1.1/DTD/svg11.dtd">
<!-- Generated by graphviz version 2.43.0 (0)
 -->
<!-- Title: /home/runner/work/Simulatio/Simulatio/engine/src Pages: 1 -->
<svg width="604pt" height="175pt"
 viewBox="0.00 0.00 604.00 175.00" xmlns="http://www.w3.org/2000/svg" xmlns:xlink="http://www.w3.org/1999/xlink">
<g id="graph0" class="graph" transform="scale(1 1) rotate(0) translate(4 171)">
<title>/home/runner/work/Simulatio/Simulatio/engine/src</title>
<g id="clust1" class="cluster">
<title>clusterdir_996f45160da62e1a3d7f6046fad68f51</title>
<g id="a_clust1"><a xlink:href="dir_996f45160da62e1a3d7f6046fad68f51.html" target="_top" xlink:title="engine">
<polygon fill="#ddddee" stroke="black" points="8,-8 8,-159 588,-159 588,-8 8,-8"/>
<text text-anchor="middle" x="298" y="-147" font-family="Helvetica,sans-Serif" font-size="10.00">engine</text>
</a>
</g>
</g>
<g id="clust2" class="cluster">
<title>clusterdir_3d9126aa00c041bc0b8f859d1965a0f4</title>
<g id="a_clust2"><a xlink:href="dir_3d9126aa00c041bc0b8f859d1965a0f4.html" target="_top">
<polygon fill="#eeeeff" stroke="black" points="16,-80 16,-132 580,-132 580,-80 16,-80"/>
</a>
</g>
</g>
<!-- dir_bafa501d493553e442f19f5f8dd7b29c -->
<g id="node1" class="node">
<title>dir_bafa501d493553e442f19f5f8dd7b29c</title>
<g id="a_node1"><a xlink:href="dir_bafa501d493553e442f19f5f8dd7b29c.html" target="_top" xlink:title="include">
<polygon fill="none" stroke="red" points="279,-52 225,-52 225,-16 279,-16 279,-52"/>
<text text-anchor="middle" x="252" y="-31.5" font-family="Helvetica,sans-Serif" font-size="10.00">include</text>
</a>
</g>
</g>
<!-- dir_3d9126aa00c041bc0b8f859d1965a0f4 -->
<g id="node2" class="node">
<title>dir_3d9126aa00c041bc0b8f859d1965a0f4</title>
<text text-anchor="middle" x="545" y="-103.5" font-family="Helvetica,sans-Serif" font-size="10.00">src</text>
</g>
<!-- dir_203a849e8a5cbb76cc0561dfa1595595 -->
<g id="node3" class="node">
<title>dir_203a849e8a5cbb76cc0561dfa1595595</title>
<g id="a_node3"><a xlink:href="dir_203a849e8a5cbb76cc0561dfa1595595.html" target="_top" xlink:title="Benchmark">
<polygon fill="white" stroke="black" points="500,-124 428,-124 428,-88 500,-88 500,-124"/>
<text text-anchor="middle" x="464" y="-103.5" font-family="Helvetica,sans-Serif" font-size="10.00">Benchmark</text>
</a>
</g>
</g>
<!-- dir_203a849e8a5cbb76cc0561dfa1595595&#45;&gt;dir_bafa501d493553e442f19f5f8dd7b29c -->
<g id="edge1" class="edge">
<title>dir_203a849e8a5cbb76cc0561dfa1595595&#45;&gt;dir_bafa501d493553e442f19f5f8dd7b29c</title>
<path fill="none" stroke="black" d="M435.46,-87.79C430.11,-84.95 424.47,-82.22 419,-80 375.88,-62.52 323.77,-49.71 289.35,-42.33"/>
<polygon fill="black" stroke="black" points="289.77,-38.84 279.27,-40.21 288.34,-45.69 289.77,-38.84"/>
<g id="a_edge1&#45;headlabel"><a xlink:href="dir_000009_000002.html" target="_top" xlink:title="3">
<text text-anchor="middle" x="293.88" y="-34.3" font-family="Helvetica,sans-Serif" font-size="10.00">3</text>
</a>
</g>
</g>
<!-- dir_9fa1a5b78ffe95dfc5c0e8c4ae15eaa4 -->
<g id="node4" class="node">
<title>dir_9fa1a5b78ffe95dfc5c0e8c4ae15eaa4</title>
<g id="a_node4"><a xlink:href="dir_9fa1a5b78ffe95dfc5c0e8c4ae15eaa4.html" target="_top" xlink:title="Constraints">
<polygon fill="white" stroke="black" points="410,-124 338,-124 338,-88 410,-88 410,-124"/>
<text text-anchor="middle" x="374" y="-103.5" font-family="Helvetica,sans-Serif" font-size="10.00">Constraints</text>
</a>
</g>
</g>
<!-- dir_9fa1a5b78ffe95dfc5c0e8c4ae15eaa4&#45;&gt;dir_bafa501d493553e442f19f5f8dd7b29c -->
<g id="edge5" class="edge">
<title>dir_9fa1a5b78ffe95dfc5c0e8c4ae15eaa4&#45;&gt;dir_bafa501d493553e442f19f5f8dd7b29c</title>
<path fill="none" stroke="black" d="M344.16,-87.88C327.22,-78.16 305.89,-65.92 288.03,-55.67"/>
<polygon fill="black" stroke="black" points="289.45,-52.46 279.04,-50.51 285.97,-58.53 289.45,-52.46"/>
<g id="a_edge5&#45;headlabel"><a xlink:href="dir_000010_000002.html" target="_top" xlink:title="5">
<text text-anchor="middle" x="293.99" y="-49.28" font-family="Helvetica,sans-Serif" font-size="10.00">5</text>
</a>
</g>
</g>
<!-- dir_94515014d17e45fe33e3ec62d7907c28 -->
<g id="node5" class="node">
<title>dir_94515014d17e45fe33e3ec62d7907c28</title>
<g id="a_node5"><a xlink:href="dir_94515014d17e45fe33e3ec62d7907c28.html" target="_top" xlink:title="Corpses">
<polygon fill="white" stroke="black" points="320,-124 264,-124 264,-88 320,-88 320,-124"/>
<text text-anchor="middle" x="292" y="-103.5" font-family="Helvetica,sans-Serif" font-size="10.00">Corpses</text>
</a>
</g>
</g>
<!-- dir_94515014d17e45fe33e3ec62d7907c28&#45;&gt;dir_bafa501d493553e442f19f5f8dd7b29c -->
<g id="edge4" class="edge">
<title>dir_94515014d17e45fe33e3ec62d7907c28&#45;&gt;dir_bafa501d493553e442f19f5f8dd7b29c</title>
<path fill="none" stroke="black" d="M282.11,-87.7C277.51,-79.64 271.94,-69.89 266.85,-60.98"/>
<polygon fill="black" stroke="black" points="269.77,-59.05 261.77,-52.1 263.7,-62.52 269.77,-59.05"/>
<g id="a_edge4&#45;headlabel"><a xlink:href="dir_000013_000002.html" target="_top" xlink:title="3">
<text text-anchor="middle" x="274.02" y="-58.26" font-family="Helvetica,sans-Serif" font-size="10.00">3</text>
</a>
</g>
</g>
<!-- dir_6c862f0c2aff74d2ecefde6dae9f68c4 -->
<g id="node6" class="node">
<title>dir_6c862f0c2aff74d2ecefde6dae9f68c4</title>
<g id="a_node6"><a xlink:href="dir_6c862f0c2aff74d2ecefde6dae9f68c4.html" target="_top" xlink:title="Geometry">
<polygon fill="white" stroke="black" points="245.5,-124 180.5,-124 180.5,-88 245.5,-88 245.5,-124"/>
<text text-anchor="middle" x="213" y="-103.5" font-family="Helvetica,sans-Serif" font-size="10.00">Geometry</text>
</a>
</g>
</g>
<!-- dir_6c862f0c2aff74d2ecefde6dae9f68c4&#45;&gt;dir_bafa501d493553e442f19f5f8dd7b29c -->
<g id="edge3" class="edge">
<title>dir_6c862f0c2aff74d2ecefde6dae9f68c4&#45;&gt;dir_bafa501d493553e442f19f5f8dd7b29c</title>
<path fill="none" stroke="black" d="M222.64,-87.7C227.13,-79.64 232.56,-69.89 237.52,-60.98"/>
<polygon fill="black" stroke="black" points="240.66,-62.54 242.47,-52.1 234.55,-59.14 240.66,-62.54"/>
<g id="a_edge3&#45;headlabel"><a xlink:href="dir_000014_000002.html" target="_top" xlink:title="6">
<text text-anchor="middle" x="241.39" y="-64.57" font-family="Helvetica,sans-Serif" font-size="10.00">6</text>
</a>
</g>
</g>
<!-- dir_a3b9e647d35b1bf30947c726d6e9950b -->
<g id="node7" class="node">
<title>dir_a3b9e647d35b1bf30947c726d6e9950b</title>
<g id="a_node7"><a xlink:href="dir_a3b9e647d35b1bf30947c726d6e9950b.html" target="_top" xlink:title="main">
<polygon fill="white" stroke="black" points="162,-124 108,-124 108,-88 162,-88 162,-124"/>
<text text-anchor="middle" x="135" y="-103.5" font-family="Helvetica,sans-Serif" font-size="10.00">main</text>
</a>
</g>
</g>
<!-- dir_a3b9e647d35b1bf30947c726d6e9950b&#45;&gt;dir_bafa501d493553e442f19f5f8dd7b29c -->
<g id="edge6" class="edge">
<title>dir_a3b9e647d35b1bf30947c726d6e9950b&#45;&gt;dir_bafa501d493553e442f19f5f8dd7b29c</title>
<path fill="none" stroke="black" d="M159.9,-87.77C163.91,-85.12 168.04,-82.44 172,-80 186.12,-71.28 202,-62.2 215.87,-54.5"/>
<polygon fill="black" stroke="black" points="217.58,-57.56 224.65,-49.66 214.2,-51.43 217.58,-57.56"/>
<g id="a_edge6&#45;headlabel"><a xlink:href="dir_000016_000002.html" target="_top" xlink:title="3">
<text text-anchor="middle" x="215.8" y="-59.28" font-family="Helvetica,sans-Serif" font-size="10.00">3</text>
</a>
</g>
</g>
<!-- dir_47462ed027b0395b33bf2ff8ee489b34 -->
<g id="node8" class="node">
<title>dir_47462ed027b0395b33bf2ff8ee489b34</title>
<g id="a_node8"><a xlink:href="dir_47462ed027b0395b33bf2ff8ee489b34.html" target="_top" xlink:title="Structures">
<polygon fill="white" stroke="black" points="90,-124 24,-124 24,-88 90,-88 90,-124"/>
<text text-anchor="middle" x="57" y="-103.5" font-family="Helvetica,sans-Serif" font-size="10.00">Structures</text>
</a>
</g>
</g>
<!-- dir_47462ed027b0395b33bf2ff8ee489b34&#45;&gt;dir_bafa501d493553e442f19f5f8dd7b29c -->
<g id="edge2" class="edge">
<title>dir_47462ed027b0395b33bf2ff8ee489b34&#45;&gt;dir_bafa501d493553e442f19f5f8dd7b29c</title>
<path fill="none" stroke="black" d="M83.58,-87.83C88.59,-84.99 93.87,-82.24 99,-80 137.07,-63.38 183.07,-50.79 214.63,-43.21"/>
<polygon fill="black" stroke="black" points="215.81,-46.52 224.75,-40.83 214.21,-39.71 215.81,-46.52"/>
<g id="a_edge2&#45;headlabel"><a xlink:href="dir_000019_000002.html" target="_top" xlink:title="2">
<text text-anchor="middle" x="212.96" y="-47.61" font-family="Helvetica,sans-Serif" font-size="10.00">2</text>
</a>
</g>
</g>
</g>
</svg>
