<?xml version="1.0" encoding="UTF-8" standalone="no"?>
<!DOCTYPE svg PUBLIC "-//W3C//DTD SVG 1.1//EN"
 "http://www.w3.org/Graphics/SVG/1.1/DTD/svg11.dtd">
<!-- Generated by graphviz version 2.43.0 (0)
 -->
<!-- Title: /home/runner/work/Simulatio/Simulatio/include/Renderer Pages: 1 -->
<svg width="126pt" height="239pt"
 viewBox="0.00 0.00 126.00 239.00" xmlns="http://www.w3.org/2000/svg" xmlns:xlink="http://www.w3.org/1999/xlink">
<g id="graph0" class="graph" transform="scale(1 1) rotate(0) translate(4 235)">
<title>/home/runner/work/Simulatio/Simulatio/include/Renderer</title>
<g id="clust1" class="cluster">
<title>clusterdir_d44c64559bbebec7f509842c48db8b23</title>
<g id="a_clust1"><a xlink:href="dir_d44c64559bbebec7f509842c48db8b23.html" target="_top" xlink:title="include">
<polygon fill="#ddddee" stroke="black" points="8,-8 8,-223 110,-223 110,-8 8,-8"/>
<text text-anchor="middle" x="59" y="-211" font-family="Helvetica,sans-Serif" font-size="10.00">include</text>
</a>
</g>
</g>
<!-- dir_d715d637c841088f088578febcfd8973 -->
<g id="node1" class="node">
<title>dir_d715d637c841088f088578febcfd8973</title>
<g id="a_node1"><a xlink:href="dir_d715d637c841088f088578febcfd8973.html" target="_top" xlink:title="Structures">
<polygon fill="none" stroke="black" points="82,-124 16,-124 16,-88 82,-88 82,-124"/>
<text text-anchor="middle" x="49" y="-103.5" font-family="Helvetica,sans-Serif" font-size="10.00">Structures</text>
</a>
</g>
</g>
<!-- dir_e5d471f994553c4d62f75de3eec3a008 -->
<g id="node2" class="node">
<title>dir_e5d471f994553c4d62f75de3eec3a008</title>
<g id="a_node2"><a xlink:href="dir_e5d471f994553c4d62f75de3eec3a008.html" target="_top" xlink:title="Geometry">
<polygon fill="none" stroke="black" points="91.5,-52 26.5,-52 26.5,-16 91.5,-16 91.5,-52"/>
<text text-anchor="middle" x="59" y="-31.5" font-family="Helvetica,sans-Serif" font-size="10.00">Geometry</text>
</a>
</g>
</g>
<!-- dir_d715d637c841088f088578febcfd8973&#45;&gt;dir_e5d471f994553c4d62f75de3eec3a008 -->
<g id="edge3" class="edge">
<title>dir_d715d637c841088f088578febcfd8973&#45;&gt;dir_e5d471f994553c4d62f75de3eec3a008</title>
<path fill="none" stroke="black" d="M51.47,-87.7C52.57,-79.98 53.9,-70.71 55.13,-62.11"/>
<polygon fill="black" stroke="black" points="58.61,-62.5 56.56,-52.1 51.68,-61.51 58.61,-62.5"/>
<g id="a_edge3&#45;headlabel"><a xlink:href="dir_000007_000005.html" target="_top" xlink:title="13">
<text text-anchor="middle" x="60.91" y="-63.96" font-family="Helvetica,sans-Serif" font-size="10.00">13</text>
</a>
</g>
</g>
<!-- dir_16a64cef37031d7516f8ccb21b22bcaa -->
<g id="node3" class="node">
<title>dir_16a64cef37031d7516f8ccb21b22bcaa</title>
<g id="a_node3"><a xlink:href="dir_16a64cef37031d7516f8ccb21b22bcaa.html" target="_top" xlink:title="Renderer">
<polygon fill="#eeeeff" stroke="black" points="90.5,-196 29.5,-196 29.5,-160 90.5,-160 90.5,-196"/>
<text text-anchor="middle" x="60" y="-175.5" font-family="Helvetica,sans-Serif" font-size="10.00">Renderer</text>
</a>
</g>
</g>
<!-- dir_16a64cef37031d7516f8ccb21b22bcaa&#45;&gt;dir_d715d637c841088f088578febcfd8973 -->
<g id="edge1" class="edge">
<title>dir_16a64cef37031d7516f8ccb21b22bcaa&#45;&gt;dir_d715d637c841088f088578febcfd8973</title>
<path fill="none" stroke="black" d="M57.28,-159.7C56.07,-151.98 54.61,-142.71 53.26,-134.11"/>
<polygon fill="black" stroke="black" points="56.7,-133.44 51.69,-124.1 49.78,-134.53 56.7,-133.44"/>
<g id="a_edge1&#45;headlabel"><a xlink:href="dir_000006_000007.html" target="_top" xlink:title="1">
<text text-anchor="middle" x="60.06" y="-134.05" font-family="Helvetica,sans-Serif" font-size="10.00">1</text>
</a>
</g>
</g>
<!-- dir_16a64cef37031d7516f8ccb21b22bcaa&#45;&gt;dir_e5d471f994553c4d62f75de3eec3a008 -->
<g id="edge2" class="edge">
<title>dir_16a64cef37031d7516f8ccb21b22bcaa&#45;&gt;dir_e5d471f994553c4d62f75de3eec3a008</title>
<path fill="none" stroke="black" d="M73.15,-159.91C79.92,-150.01 87.49,-136.96 91,-124 95.18,-108.56 95.29,-103.41 91,-88 88.33,-78.42 83.41,-68.84 78.22,-60.51"/>
<polygon fill="black" stroke="black" points="81.02,-58.41 72.56,-52.03 75.2,-62.29 81.02,-58.41"/>
<g id="a_edge2&#45;headlabel"><a xlink:href="dir_000006_000005.html" target="_top" xlink:title="6">
<text text-anchor="middle" x="85.38" y="-57.33" font-family="Helvetica,sans-Serif" font-size="10.00">6</text>
</a>
</g>
</g>
</g>
</svg>
