<?xml version="1.0" encoding="UTF-8" standalone="no"?>
<!DOCTYPE svg PUBLIC "-//W3C//DTD SVG 1.1//EN"
 "http://www.w3.org/Graphics/SVG/1.1/DTD/svg11.dtd">
<!-- Generated by graphviz version 2.43.0 (0)
 -->
<!-- Title: /home/runner/work/Simulatio/Simulatio/engine/src/main/main.cpp Pages: 1 -->
<svg width="1504pt" height="755pt"
 viewBox="0.00 0.00 1504.00 755.00" xmlns="http://www.w3.org/2000/svg" xmlns:xlink="http://www.w3.org/1999/xlink">
<g id="graph0" class="graph" transform="scale(1 1) rotate(0) translate(4 751)">
<title>/home/runner/work/Simulatio/Simulatio/engine/src/main/main.cpp</title>
<!-- Node1 -->
<g id="node1" class="node">
<title>Node1</title>
<g id="a_node1"><a xlink:title=" ">
<polygon fill="#bfbfbf" stroke="black" points="552,-705.5 552,-746.5 710,-746.5 710,-705.5 552,-705.5"/>
<text text-anchor="start" x="560" y="-734.5" font-family="Helvetica,sans-Serif" font-size="10.00">/home/runner/work/Simulatio</text>
<text text-anchor="start" x="560" y="-723.5" font-family="Helvetica,sans-Serif" font-size="10.00">/Simulatio/engine/src/main</text>
<text text-anchor="middle" x="631" y="-712.5" font-family="Helvetica,sans-Serif" font-size="10.00">/main.cpp</text>
</a>
</g>
</g>
<!-- Node2 -->
<g id="node2" class="node">
<title>Node2</title>
<g id="a_node2"><a xlink:title=" ">
<polygon fill="none" stroke="#bfbfbf" points="1385,-0.5 1385,-19.5 1445,-19.5 1445,-0.5 1385,-0.5"/>
<text text-anchor="middle" x="1415" y="-7.5" font-family="Helvetica,sans-Serif" font-size="10.00">iostream</text>
</a>
</g>
</g>
<!-- Node1&#45;&gt;Node2 -->
<g id="edge1" class="edge">
<title>Node1&#45;&gt;Node2</title>
<path fill="none" stroke="midnightblue" d="M710.06,-721.19C923.59,-709.85 1496,-672.09 1496,-593 1496,-593 1496,-593 1496,-126.5 1496,-84 1458.78,-46.04 1434.8,-26"/>
<polygon fill="midnightblue" stroke="midnightblue" points="1436.94,-23.23 1426.95,-19.68 1432.54,-28.68 1436.94,-23.23"/>
</g>
<!-- Node3 -->
<g id="node3" class="node">
<title>Node3</title>
<g id="a_node3"><a xlink:href="_string_8hpp.html" target="_top" xlink:title=" ">
<polygon fill="none" stroke="black" points="300,-515.5 300,-545.5 422,-545.5 422,-515.5 300,-515.5"/>
<text text-anchor="start" x="308" y="-533.5" font-family="Helvetica,sans-Serif" font-size="10.00">../../include/Geometry</text>
<text text-anchor="middle" x="361" y="-522.5" font-family="Helvetica,sans-Serif" font-size="10.00">/String.hpp</text>
</a>
</g>
</g>
<!-- Node1&#45;&gt;Node3 -->
<g id="edge2" class="edge">
<title>Node1&#45;&gt;Node3</title>
<path fill="none" stroke="midnightblue" d="M595.49,-705.37C555.34,-682.55 488.7,-642.79 436,-602 416.38,-586.82 395.99,-567.37 381.43,-552.75"/>
<polygon fill="midnightblue" stroke="midnightblue" points="383.89,-550.26 374.38,-545.59 378.9,-555.18 383.89,-550.26"/>
</g>
<!-- Node18 -->
<g id="node18" class="node">
<title>Node18</title>
<g id="a_node18"><a xlink:href="_vector_8hpp.html" target="_top" xlink:title=" ">
<polygon fill="none" stroke="black" points="439,-112.5 439,-142.5 561,-142.5 561,-112.5 439,-112.5"/>
<text text-anchor="start" x="447" y="-130.5" font-family="Helvetica,sans-Serif" font-size="10.00">../../include/Geometry</text>
<text text-anchor="middle" x="500" y="-119.5" font-family="Helvetica,sans-Serif" font-size="10.00">/Vector.hpp</text>
</a>
</g>
</g>
<!-- Node1&#45;&gt;Node18 -->
<g id="edge18" class="edge">
<title>Node1&#45;&gt;Node18</title>
<path fill="none" stroke="midnightblue" d="M551.72,-724.85C382.25,-722.4 0,-704.5 0,-593 0,-593 0,-593 0,-468 0,-257.58 192.42,-283.6 375,-179 397.75,-165.97 424.51,-154.67 447.43,-146.09"/>
<polygon fill="midnightblue" stroke="midnightblue" points="448.81,-149.31 457,-142.58 446.4,-142.74 448.81,-149.31"/>
</g>
<!-- Node19 -->
<g id="node19" class="node">
<title>Node19</title>
<g id="a_node19"><a xlink:href="_system_8hpp.html" target="_top" xlink:title=" ">
<polygon fill="none" stroke="black" points="835,-638.5 835,-668.5 957,-668.5 957,-638.5 835,-638.5"/>
<text text-anchor="start" x="843" y="-656.5" font-family="Helvetica,sans-Serif" font-size="10.00">../../include/Structures</text>
<text text-anchor="middle" x="896" y="-645.5" font-family="Helvetica,sans-Serif" font-size="10.00">/System.hpp</text>
</a>
</g>
</g>
<!-- Node1&#45;&gt;Node19 -->
<g id="edge20" class="edge">
<title>Node1&#45;&gt;Node19</title>
<path fill="none" stroke="midnightblue" d="M704.47,-705.46C744.82,-694.72 794.36,-681.54 832.94,-671.28"/>
<polygon fill="midnightblue" stroke="midnightblue" points="834.25,-674.55 843.01,-668.6 832.45,-667.79 834.25,-674.55"/>
</g>
<!-- Node4 -->
<g id="node4" class="node">
<title>Node4</title>
<g id="a_node4"><a xlink:title=" ">
<polygon fill="none" stroke="#bfbfbf" points="318.5,-459.5 318.5,-478.5 383.5,-478.5 383.5,-459.5 318.5,-459.5"/>
<text text-anchor="middle" x="351" y="-466.5" font-family="Helvetica,sans-Serif" font-size="10.00">stdexcept</text>
</a>
</g>
</g>
<!-- Node3&#45;&gt;Node4 -->
<g id="edge3" class="edge">
<title>Node3&#45;&gt;Node4</title>
<path fill="none" stroke="midnightblue" d="M358.63,-515.4C357.28,-507.38 355.58,-497.23 354.12,-488.57"/>
<polygon fill="midnightblue" stroke="midnightblue" points="357.56,-487.94 352.46,-478.66 350.66,-489.1 357.56,-487.94"/>
</g>
<!-- Node5 -->
<g id="node5" class="node">
<title>Node5</title>
<g id="a_node5"><a xlink:title=" ">
<polygon fill="none" stroke="#bfbfbf" points="256,-459.5 256,-478.5 300,-478.5 300,-459.5 256,-459.5"/>
<text text-anchor="middle" x="278" y="-466.5" font-family="Helvetica,sans-Serif" font-size="10.00">string</text>
</a>
</g>
</g>
<!-- Node3&#45;&gt;Node5 -->
<g id="edge4" class="edge">
<title>Node3&#45;&gt;Node5</title>
<path fill="none" stroke="midnightblue" d="M341.33,-515.4C328.4,-506.13 311.51,-494.03 298.43,-484.65"/>
<polygon fill="midnightblue" stroke="midnightblue" points="300.24,-481.64 290.08,-478.66 296.17,-487.33 300.24,-481.64"/>
</g>
<!-- Node6 -->
<g id="node6" class="node">
<title>Node6</title>
<g id="a_node6"><a xlink:href="_maths_8hpp.html" target="_top" xlink:title=" ">
<polygon fill="none" stroke="black" points="842,-56.5 842,-75.5 910,-75.5 910,-56.5 842,-56.5"/>
<text text-anchor="middle" x="876" y="-63.5" font-family="Helvetica,sans-Serif" font-size="10.00">Maths.hpp</text>
</a>
</g>
</g>
<!-- Node3&#45;&gt;Node6 -->
<g id="edge5" class="edge">
<title>Node3&#45;&gt;Node6</title>
<path fill="none" stroke="midnightblue" d="M373.87,-515.49C385.14,-501.48 398.72,-479.17 392,-459 385.68,-440.03 376.12,-439.62 365,-423 314.15,-346.97 260,-337.47 260,-246 260,-246 260,-246 260,-188 260,-152.58 256.24,-134.01 284,-112 326.61,-78.21 701.27,-69.55 831.57,-67.55"/>
<polygon fill="midnightblue" stroke="midnightblue" points="831.66,-71.05 841.61,-67.4 831.55,-64.05 831.66,-71.05"/>
</g>
<!-- Node6&#45;&gt;Node2 -->
<g id="edge11" class="edge">
<title>Node6&#45;&gt;Node2</title>
<path fill="none" stroke="midnightblue" d="M910.06,-63.21C990.57,-58.7 1198.76,-45.36 1371,-20 1372.26,-19.81 1373.53,-19.62 1374.82,-19.41"/>
<polygon fill="midnightblue" stroke="midnightblue" points="1375.55,-22.83 1384.78,-17.64 1374.32,-15.94 1375.55,-22.83"/>
</g>
<!-- Node7 -->
<g id="node7" class="node">
<title>Node7</title>
<g id="a_node7"><a xlink:title=" ">
<polygon fill="none" stroke="#bfbfbf" points="727,-0.5 727,-19.5 769,-19.5 769,-0.5 727,-0.5"/>
<text text-anchor="middle" x="748" y="-7.5" font-family="Helvetica,sans-Serif" font-size="10.00">array</text>
</a>
</g>
</g>
<!-- Node6&#45;&gt;Node7 -->
<g id="edge6" class="edge">
<title>Node6&#45;&gt;Node7</title>
<path fill="none" stroke="midnightblue" d="M855.72,-56.44C834.65,-47.56 801.48,-33.56 777.51,-23.45"/>
<polygon fill="midnightblue" stroke="midnightblue" points="778.76,-20.18 768.19,-19.52 776.04,-26.63 778.76,-20.18"/>
</g>
<!-- Node8 -->
<g id="node8" class="node">
<title>Node8</title>
<g id="a_node8"><a xlink:title=" ">
<polygon fill="none" stroke="#bfbfbf" points="787,-0.5 787,-19.5 837,-19.5 837,-0.5 787,-0.5"/>
<text text-anchor="middle" x="812" y="-7.5" font-family="Helvetica,sans-Serif" font-size="10.00">chrono</text>
</a>
</g>
</g>
<!-- Node6&#45;&gt;Node8 -->
<g id="edge7" class="edge">
<title>Node6&#45;&gt;Node8</title>
<path fill="none" stroke="midnightblue" d="M865.72,-56.32C856.16,-48.26 841.72,-36.08 830.22,-26.37"/>
<polygon fill="midnightblue" stroke="midnightblue" points="832.37,-23.61 822.47,-19.83 827.86,-28.96 832.37,-23.61"/>
</g>
<!-- Node9 -->
<g id="node9" class="node">
<title>Node9</title>
<g id="a_node9"><a xlink:title=" ">
<polygon fill="none" stroke="#bfbfbf" points="1160.5,-0.5 1160.5,-19.5 1207.5,-19.5 1207.5,-0.5 1160.5,-0.5"/>
<text text-anchor="middle" x="1184" y="-7.5" font-family="Helvetica,sans-Serif" font-size="10.00">cmath</text>
</a>
</g>
</g>
<!-- Node6&#45;&gt;Node9 -->
<g id="edge8" class="edge">
<title>Node6&#45;&gt;Node9</title>
<path fill="none" stroke="midnightblue" d="M910.24,-59.53C960.64,-51.4 1057.74,-35.42 1140,-20 1143.4,-19.36 1146.94,-18.68 1150.47,-17.98"/>
<polygon fill="midnightblue" stroke="midnightblue" points="1151.17,-21.41 1160.28,-16 1149.79,-14.55 1151.17,-21.41"/>
</g>
<!-- Node10 -->
<g id="node10" class="node">
<title>Node10</title>
<g id="a_node10"><a xlink:title=" ">
<polygon fill="none" stroke="#bfbfbf" points="855.5,-0.5 855.5,-19.5 902.5,-19.5 902.5,-0.5 855.5,-0.5"/>
<text text-anchor="middle" x="879" y="-7.5" font-family="Helvetica,sans-Serif" font-size="10.00">deque</text>
</a>
</g>
</g>
<!-- Node6&#45;&gt;Node10 -->
<g id="edge9" class="edge">
<title>Node6&#45;&gt;Node10</title>
<path fill="none" stroke="midnightblue" d="M876.5,-56.08C876.89,-49.01 877.45,-38.86 877.95,-29.99"/>
<polygon fill="midnightblue" stroke="midnightblue" points="881.45,-29.93 878.51,-19.75 874.46,-29.54 881.45,-29.93"/>
</g>
<!-- Node11 -->
<g id="node11" class="node">
<title>Node11</title>
<g id="a_node11"><a xlink:title=" ">
<polygon fill="none" stroke="#bfbfbf" points="920.5,-0.5 920.5,-19.5 985.5,-19.5 985.5,-0.5 920.5,-0.5"/>
<text text-anchor="middle" x="953" y="-7.5" font-family="Helvetica,sans-Serif" font-size="10.00">functional</text>
</a>
</g>
</g>
<!-- Node6&#45;&gt;Node11 -->
<g id="edge10" class="edge">
<title>Node6&#45;&gt;Node11</title>
<path fill="none" stroke="midnightblue" d="M888.37,-56.32C900.16,-48.06 918.13,-35.45 932.14,-25.63"/>
<polygon fill="midnightblue" stroke="midnightblue" points="934.48,-28.26 940.66,-19.65 930.46,-22.53 934.48,-28.26"/>
</g>
<!-- Node12 -->
<g id="node12" class="node">
<title>Node12</title>
<g id="a_node12"><a xlink:title=" ">
<polygon fill="none" stroke="#bfbfbf" points="1003.5,-0.5 1003.5,-19.5 1056.5,-19.5 1056.5,-0.5 1003.5,-0.5"/>
<text text-anchor="middle" x="1030" y="-7.5" font-family="Helvetica,sans-Serif" font-size="10.00">iterator</text>
</a>
</g>
</g>
<!-- Node6&#45;&gt;Node12 -->
<g id="edge12" class="edge">
<title>Node6&#45;&gt;Node12</title>
<path fill="none" stroke="midnightblue" d="M900.4,-56.44C926.2,-47.4 967.08,-33.06 996.02,-22.92"/>
<polygon fill="midnightblue" stroke="midnightblue" points="997.43,-26.13 1005.71,-19.52 995.12,-19.52 997.43,-26.13"/>
</g>
<!-- Node13 -->
<g id="node13" class="node">
<title>Node13</title>
<g id="a_node13"><a xlink:title=" ">
<polygon fill="none" stroke="#bfbfbf" points="1232,-0.5 1232,-19.5 1290,-19.5 1290,-0.5 1232,-0.5"/>
<text text-anchor="middle" x="1261" y="-7.5" font-family="Helvetica,sans-Serif" font-size="10.00">memory</text>
</a>
</g>
</g>
<!-- Node6&#45;&gt;Node13 -->
<g id="edge13" class="edge">
<title>Node6&#45;&gt;Node13</title>
<path fill="none" stroke="midnightblue" d="M910.49,-61.26C972.17,-54.4 1105.41,-38.75 1217,-20 1218.49,-19.75 1220.01,-19.49 1221.54,-19.21"/>
<polygon fill="midnightblue" stroke="midnightblue" points="1222.53,-22.59 1231.71,-17.29 1221.23,-15.71 1222.53,-22.59"/>
</g>
<!-- Node14 -->
<g id="node14" class="node">
<title>Node14</title>
<g id="a_node14"><a xlink:title=" ">
<polygon fill="none" stroke="#bfbfbf" points="1075,-0.5 1075,-19.5 1131,-19.5 1131,-0.5 1075,-0.5"/>
<text text-anchor="middle" x="1103" y="-7.5" font-family="Helvetica,sans-Serif" font-size="10.00">sstream</text>
</a>
</g>
</g>
<!-- Node6&#45;&gt;Node14 -->
<g id="edge14" class="edge">
<title>Node6&#45;&gt;Node14</title>
<path fill="none" stroke="midnightblue" d="M910.48,-56.8C952.04,-46.91 1021.68,-30.34 1064.83,-20.08"/>
<polygon fill="midnightblue" stroke="midnightblue" points="1065.75,-23.46 1074.67,-17.74 1064.13,-16.65 1065.75,-23.46"/>
</g>
<!-- Node15 -->
<g id="node15" class="node">
<title>Node15</title>
<g id="a_node15"><a xlink:title=" ">
<polygon fill="none" stroke="#bfbfbf" points="524.5,-0.5 524.5,-19.5 597.5,-19.5 597.5,-0.5 524.5,-0.5"/>
<text text-anchor="middle" x="561" y="-7.5" font-family="Helvetica,sans-Serif" font-size="10.00">string_view</text>
</a>
</g>
</g>
<!-- Node6&#45;&gt;Node15 -->
<g id="edge15" class="edge">
<title>Node6&#45;&gt;Node15</title>
<path fill="none" stroke="midnightblue" d="M841.84,-59.67C792.4,-51.87 697.76,-36.66 607.9,-20.31"/>
<polygon fill="midnightblue" stroke="midnightblue" points="608.28,-16.82 597.82,-18.46 607.03,-23.71 608.28,-16.82"/>
</g>
<!-- Node16 -->
<g id="node16" class="node">
<title>Node16</title>
<g id="a_node16"><a xlink:title=" ">
<polygon fill="none" stroke="#bfbfbf" points="615.5,-0.5 615.5,-19.5 708.5,-19.5 708.5,-0.5 615.5,-0.5"/>
<text text-anchor="middle" x="662" y="-7.5" font-family="Helvetica,sans-Serif" font-size="10.00">unordered_map</text>
</a>
</g>
</g>
<!-- Node6&#45;&gt;Node16 -->
<g id="edge16" class="edge">
<title>Node6&#45;&gt;Node16</title>
<path fill="none" stroke="midnightblue" d="M842.09,-56.44C805.15,-47.12 745.95,-32.18 705.58,-22"/>
<polygon fill="midnightblue" stroke="midnightblue" points="706.3,-18.57 695.75,-19.52 704.59,-25.36 706.3,-18.57"/>
</g>
<!-- Node17 -->
<g id="node17" class="node">
<title>Node17</title>
<g id="a_node17"><a xlink:title=" ">
<polygon fill="none" stroke="#bfbfbf" points="1314.5,-0.5 1314.5,-19.5 1361.5,-19.5 1361.5,-0.5 1314.5,-0.5"/>
<text text-anchor="middle" x="1338" y="-7.5" font-family="Helvetica,sans-Serif" font-size="10.00">vector</text>
</a>
</g>
</g>
<!-- Node6&#45;&gt;Node17 -->
<g id="edge17" class="edge">
<title>Node6&#45;&gt;Node17</title>
<path fill="none" stroke="midnightblue" d="M910.18,-62.77C982.37,-57.75 1155.52,-44.1 1299,-20 1300.7,-19.72 1302.43,-19.4 1304.18,-19.07"/>
<polygon fill="midnightblue" stroke="midnightblue" points="1305.09,-22.45 1314.17,-16.98 1303.66,-15.6 1305.09,-22.45"/>
</g>
<!-- Node18&#45;&gt;Node6 -->
<g id="edge19" class="edge">
<title>Node18&#45;&gt;Node6</title>
<path fill="none" stroke="midnightblue" d="M561.25,-116.81C637.1,-104.8 764.47,-84.65 831.57,-74.03"/>
<polygon fill="midnightblue" stroke="midnightblue" points="832.47,-77.43 841.8,-72.41 831.38,-70.52 832.47,-77.43"/>
</g>
<!-- Node19&#45;&gt;Node6 -->
<g id="edge77" class="edge">
<title>Node19&#45;&gt;Node6</title>
<path fill="none" stroke="midnightblue" d="M957.14,-650.84C1088.46,-646.69 1388.29,-633.79 1421,-602 1438.99,-584.52 1426.44,-571.03 1428,-546 1444.98,-273.2 1042.53,-120.34 914.5,-78.73"/>
<polygon fill="midnightblue" stroke="midnightblue" points="915.31,-75.31 904.72,-75.59 913.17,-81.98 915.31,-75.31"/>
</g>
<!-- Node20 -->
<g id="node20" class="node">
<title>Node20</title>
<g id="a_node20"><a xlink:href="_constraint_8hpp.html" target="_top" xlink:title=" ">
<polygon fill="none" stroke="black" points="1104.5,-521 1104.5,-540 1259.5,-540 1259.5,-521 1104.5,-521"/>
<text text-anchor="middle" x="1182" y="-528" font-family="Helvetica,sans-Serif" font-size="10.00">../Constraints/Constraint.hpp</text>
</a>
</g>
</g>
<!-- Node19&#45;&gt;Node20 -->
<g id="edge21" class="edge">
<title>Node19&#45;&gt;Node20</title>
<path fill="none" stroke="midnightblue" d="M957.09,-639.02C990.88,-630.49 1033.16,-618.04 1069,-602 1087.49,-593.72 1133.59,-563.76 1160.86,-545.66"/>
<polygon fill="midnightblue" stroke="midnightblue" points="1162.93,-548.49 1169.31,-540.03 1159.05,-542.66 1162.93,-548.49"/>
</g>
<!-- Node21 -->
<g id="node21" class="node">
<title>Node21</title>
<g id="a_node21"><a xlink:href="_circle_8hpp.html" target="_top" xlink:title=" ">
<polygon fill="none" stroke="black" points="858,-459.5 858,-478.5 974,-478.5 974,-459.5 858,-459.5"/>
<text text-anchor="middle" x="916" y="-466.5" font-family="Helvetica,sans-Serif" font-size="10.00">../Corpses/Circle.hpp</text>
</a>
</g>
</g>
<!-- Node19&#45;&gt;Node21 -->
<g id="edge65" class="edge">
<title>Node19&#45;&gt;Node21</title>
<path fill="none" stroke="midnightblue" d="M890.9,-638.13C887.63,-628.14 883.69,-614.44 882,-602 876.31,-560.16 895.07,-512.53 906.96,-487.49"/>
<polygon fill="midnightblue" stroke="midnightblue" points="910.1,-489.03 911.4,-478.51 903.83,-485.92 910.1,-489.03"/>
</g>
<!-- Node22 -->
<g id="node22" class="node">
<title>Node22</title>
<g id="a_node22"><a xlink:title=" ">
<polygon fill="none" stroke="#bfbfbf" points="1044,-235.5 1044,-254.5 1112,-254.5 1112,-235.5 1044,-235.5"/>
<text text-anchor="middle" x="1078" y="-242.5" font-family="Helvetica,sans-Serif" font-size="10.00">Config.hpp</text>
</a>
</g>
</g>
<!-- Node19&#45;&gt;Node22 -->
<g id="edge78" class="edge">
<title>Node19&#45;&gt;Node22</title>
<path fill="none" stroke="midnightblue" d="M834.87,-649.51C764.31,-644.65 654.55,-632.33 628,-602 602.52,-572.89 606.65,-549.06 625,-515 711.43,-354.56 937.72,-280.92 1033.81,-256.15"/>
<polygon fill="midnightblue" stroke="midnightblue" points="1034.95,-259.47 1043.79,-253.63 1033.23,-252.68 1034.95,-259.47"/>
</g>
<!-- Node23 -->
<g id="node23" class="node">
<title>Node23</title>
<g id="a_node23"><a xlink:href="_corpse_8hpp.html" target="_top" xlink:title=" ">
<polygon fill="none" stroke="black" points="1054.5,-347.5 1054.5,-366.5 1125.5,-366.5 1125.5,-347.5 1054.5,-347.5"/>
<text text-anchor="middle" x="1090" y="-354.5" font-family="Helvetica,sans-Serif" font-size="10.00">Corpse.hpp</text>
</a>
</g>
</g>
<!-- Node19&#45;&gt;Node23 -->
<g id="edge66" class="edge">
<title>Node19&#45;&gt;Node23</title>
<path fill="none" stroke="midnightblue" d="M957.03,-650.89C1084.92,-646.89 1371.7,-634.38 1401,-602 1496.59,-496.37 1232.66,-401.61 1129.42,-369.55"/>
<polygon fill="midnightblue" stroke="midnightblue" points="1130.24,-366.14 1119.66,-366.55 1128.19,-372.83 1130.24,-366.14"/>
</g>
<!-- Node24 -->
<g id="node24" class="node">
<title>Node24</title>
<g id="a_node24"><a xlink:href="_geometry_8hpp.html" target="_top" xlink:title=" ">
<polygon fill="none" stroke="black" points="714,-291.5 714,-310.5 860,-310.5 860,-291.5 714,-291.5"/>
<text text-anchor="middle" x="787" y="-298.5" font-family="Helvetica,sans-Serif" font-size="10.00">../Geometry/Geometry.hpp</text>
</a>
</g>
</g>
<!-- Node19&#45;&gt;Node24 -->
<g id="edge76" class="edge">
<title>Node19&#45;&gt;Node24</title>
<path fill="none" stroke="midnightblue" d="M856.45,-638.41C814.43,-620.6 754,-585.59 754,-531.5 754,-531.5 754,-531.5 754,-412 754,-378.25 768.43,-341.03 778.21,-319.69"/>
<polygon fill="midnightblue" stroke="midnightblue" points="781.41,-321.11 782.55,-310.58 775.09,-318.1 781.41,-321.11"/>
</g>
<!-- Node30 -->
<g id="node30" class="node">
<title>Node30</title>
<g id="a_node30"><a xlink:href="_polygon_8hpp.html" target="_top" xlink:title=" ">
<polygon fill="none" stroke="black" points="858.5,-403.5 858.5,-422.5 935.5,-422.5 935.5,-403.5 858.5,-403.5"/>
<text text-anchor="middle" x="897" y="-410.5" font-family="Helvetica,sans-Serif" font-size="10.00">Polygon.hpp</text>
</a>
</g>
</g>
<!-- Node19&#45;&gt;Node30 -->
<g id="edge67" class="edge">
<title>Node19&#45;&gt;Node30</title>
<path fill="none" stroke="midnightblue" d="M898.44,-638.27C901.26,-623.69 906.62,-600.61 915,-582 937.54,-531.99 967.22,-531.54 983,-479 985.56,-470.49 987.6,-466.6 983,-459 973.59,-443.46 956.85,-433.02 940.62,-426.15"/>
<polygon fill="midnightblue" stroke="midnightblue" points="941.77,-422.85 931.18,-422.51 939.25,-429.37 941.77,-422.85"/>
</g>
<!-- Node31 -->
<g id="node31" class="node">
<title>Node31</title>
<g id="a_node31"><a xlink:href="_link_8hpp.html" target="_top" xlink:title=" ">
<polygon fill="none" stroke="black" points="1266.5,-582.5 1266.5,-601.5 1391.5,-601.5 1391.5,-582.5 1266.5,-582.5"/>
<text text-anchor="middle" x="1329" y="-589.5" font-family="Helvetica,sans-Serif" font-size="10.00">../Constraints/Link.hpp</text>
</a>
</g>
</g>
<!-- Node19&#45;&gt;Node31 -->
<g id="edge56" class="edge">
<title>Node19&#45;&gt;Node31</title>
<path fill="none" stroke="midnightblue" d="M957.12,-644.1C1036.08,-633.25 1173.33,-614.39 1257.19,-602.87"/>
<polygon fill="midnightblue" stroke="midnightblue" points="1257.71,-606.33 1267.14,-601.5 1256.76,-599.39 1257.71,-606.33"/>
</g>
<!-- Node32 -->
<g id="node32" class="node">
<title>Node32</title>
<g id="a_node32"><a xlink:href="_slider_8hpp.html" target="_top" xlink:title=" ">
<polygon fill="none" stroke="black" points="1116,-582.5 1116,-601.5 1248,-601.5 1248,-582.5 1116,-582.5"/>
<text text-anchor="middle" x="1182" y="-589.5" font-family="Helvetica,sans-Serif" font-size="10.00">../Constraints/Slider.hpp</text>
</a>
</g>
</g>
<!-- Node19&#45;&gt;Node32 -->
<g id="edge59" class="edge">
<title>Node19&#45;&gt;Node32</title>
<path fill="none" stroke="midnightblue" d="M957,-639.81C1008.77,-629.04 1082.19,-613.76 1130.91,-603.63"/>
<polygon fill="midnightblue" stroke="midnightblue" points="1131.84,-607.01 1140.92,-601.55 1130.41,-600.16 1131.84,-607.01"/>
</g>
<!-- Node33 -->
<g id="node33" class="node">
<title>Node33</title>
<g id="a_node33"><a xlink:href="_spring_8hpp.html" target="_top" xlink:title=" ">
<polygon fill="none" stroke="black" points="924,-582.5 924,-601.5 1060,-601.5 1060,-582.5 924,-582.5"/>
<text text-anchor="middle" x="992" y="-589.5" font-family="Helvetica,sans-Serif" font-size="10.00">../Constraints/Spring.hpp</text>
</a>
</g>
</g>
<!-- Node19&#45;&gt;Node33 -->
<g id="edge62" class="edge">
<title>Node19&#45;&gt;Node33</title>
<path fill="none" stroke="midnightblue" d="M918.75,-638.4C933.99,-628.95 953.99,-616.56 969.24,-607.11"/>
<polygon fill="midnightblue" stroke="midnightblue" points="971.38,-609.9 978.03,-601.66 967.69,-603.95 971.38,-609.9"/>
</g>
<!-- Node34 -->
<g id="node34" class="node">
<title>Node34</title>
<g id="a_node34"><a xlink:href="_collision_8hpp.html" target="_top" xlink:title=" ">
<polygon fill="none" stroke="black" points="101,-521 101,-540 241,-540 241,-521 101,-521"/>
<text text-anchor="middle" x="171" y="-528" font-family="Helvetica,sans-Serif" font-size="10.00">../Geometry/Collision.hpp</text>
</a>
</g>
</g>
<!-- Node19&#45;&gt;Node34 -->
<g id="edge68" class="edge">
<title>Node19&#45;&gt;Node34</title>
<path fill="none" stroke="midnightblue" d="M834.93,-648.74C746.41,-642.62 577.56,-628.45 436,-602 353.25,-586.54 258.39,-558.8 207.62,-543.13"/>
<polygon fill="midnightblue" stroke="midnightblue" points="208.37,-539.69 197.78,-540.06 206.29,-546.38 208.37,-539.69"/>
</g>
<!-- Node35 -->
<g id="node35" class="node">
<title>Node35</title>
<g id="a_node35"><a xlink:href="_quadtree_8hpp.html" target="_top" xlink:title=" ">
<polygon fill="none" stroke="black" points="637.5,-582.5 637.5,-601.5 720.5,-601.5 720.5,-582.5 637.5,-582.5"/>
<text text-anchor="middle" x="679" y="-589.5" font-family="Helvetica,sans-Serif" font-size="10.00">QuadTree.hpp</text>
</a>
</g>
</g>
<!-- Node19&#45;&gt;Node35 -->
<g id="edge79" class="edge">
<title>Node19&#45;&gt;Node35</title>
<path fill="none" stroke="midnightblue" d="M844.85,-638.47C806.76,-628.03 755.43,-613.96 720.02,-604.25"/>
<polygon fill="midnightblue" stroke="midnightblue" points="720.59,-600.78 710.02,-601.51 718.74,-607.53 720.59,-600.78"/>
</g>
<!-- Node20&#45;&gt;Node6 -->
<g id="edge54" class="edge">
<title>Node20&#45;&gt;Node6</title>
<path fill="none" stroke="midnightblue" d="M1197.36,-520.97C1257.19,-486.59 1467.95,-354.35 1396,-235 1335.54,-134.72 1274.13,-148.9 1163,-112 1080.09,-84.47 977.98,-73.59 920.61,-69.44"/>
<polygon fill="midnightblue" stroke="midnightblue" points="920.65,-65.93 910.44,-68.74 920.17,-72.91 920.65,-65.93"/>
</g>
<!-- Node20&#45;&gt;Node21 -->
<g id="edge22" class="edge">
<title>Node20&#45;&gt;Node21</title>
<path fill="none" stroke="midnightblue" d="M1143.89,-520.98C1096.48,-510.37 1015.52,-492.26 963.94,-480.72"/>
<polygon fill="midnightblue" stroke="midnightblue" points="964.56,-477.28 954.04,-478.51 963.04,-484.11 964.56,-477.28"/>
</g>
<!-- Node20&#45;&gt;Node22 -->
<g id="edge55" class="edge">
<title>Node20&#45;&gt;Node22</title>
<path fill="none" stroke="midnightblue" d="M1183.24,-520.67C1186.67,-493.47 1194.37,-408.99 1168,-347 1152.66,-310.94 1119.08,-278.98 1097.56,-261.1"/>
<polygon fill="midnightblue" stroke="midnightblue" points="1099.67,-258.3 1089.7,-254.74 1095.27,-263.75 1099.67,-258.3"/>
</g>
<!-- Node20&#45;&gt;Node23 -->
<g id="edge51" class="edge">
<title>Node20&#45;&gt;Node23</title>
<path fill="none" stroke="midnightblue" d="M1179.52,-520.74C1173.27,-499.47 1155.54,-443.88 1130,-403 1123.44,-392.49 1114.38,-382.07 1106.54,-373.91"/>
<polygon fill="midnightblue" stroke="midnightblue" points="1108.78,-371.2 1099.25,-366.58 1103.82,-376.13 1108.78,-371.2"/>
</g>
<!-- Node20&#45;&gt;Node24 -->
<g id="edge53" class="edge">
<title>Node20&#45;&gt;Node24</title>
<path fill="none" stroke="midnightblue" d="M1167,-520.86C1107.12,-486.37 884.9,-358.38 811.04,-315.85"/>
<polygon fill="midnightblue" stroke="midnightblue" points="812.43,-312.61 802.02,-310.65 808.94,-318.67 812.43,-312.61"/>
</g>
<!-- Node20&#45;&gt;Node30 -->
<g id="edge52" class="edge">
<title>Node20&#45;&gt;Node30</title>
<path fill="none" stroke="midnightblue" d="M1162.68,-521C1131.83,-507.49 1069.47,-480.45 1016,-459 987.12,-447.41 953.99,-434.95 930.03,-426.09"/>
<polygon fill="midnightblue" stroke="midnightblue" points="930.96,-422.7 920.37,-422.52 928.54,-429.27 930.96,-422.7"/>
</g>
<!-- Node21&#45;&gt;Node17 -->
<g id="edge23" class="edge">
<title>Node21&#45;&gt;Node17</title>
<path fill="none" stroke="midnightblue" d="M974,-464.95C1113.82,-454.18 1458,-405.74 1458,-190 1458,-190 1458,-190 1458,-126.5 1458,-76.81 1403.93,-41.79 1368.38,-24.13"/>
<polygon fill="midnightblue" stroke="midnightblue" points="1369.44,-20.76 1358.9,-19.61 1366.42,-27.07 1369.44,-20.76"/>
</g>
<!-- Node21&#45;&gt;Node22 -->
<g id="edge24" class="edge">
<title>Node21&#45;&gt;Node22</title>
<path fill="none" stroke="midnightblue" d="M922.35,-459.3C946.49,-426.22 1032.82,-307.91 1065.42,-263.24"/>
<polygon fill="midnightblue" stroke="midnightblue" points="1068.45,-265.02 1071.52,-254.88 1062.8,-260.9 1068.45,-265.02"/>
</g>
<!-- Node21&#45;&gt;Node23 -->
<g id="edge25" class="edge">
<title>Node21&#45;&gt;Node23</title>
<path fill="none" stroke="midnightblue" d="M940.47,-459.35C961.38,-451.42 991.83,-438.56 1016,-423 1038.08,-408.79 1060.3,-388.24 1074.54,-374.07"/>
<polygon fill="midnightblue" stroke="midnightblue" points="1077.05,-376.51 1081.59,-366.93 1072.07,-371.59 1077.05,-376.51"/>
</g>
<!-- Node21&#45;&gt;Node30 -->
<g id="edge46" class="edge">
<title>Node21&#45;&gt;Node30</title>
<path fill="none" stroke="midnightblue" d="M907.7,-459.08C903.67,-451.93 899.62,-441.64 897.12,-432.69"/>
<polygon fill="midnightblue" stroke="midnightblue" points="900.5,-431.77 894.95,-422.75 893.66,-433.27 900.5,-431.77"/>
</g>
<!-- Node23&#45;&gt;Node2 -->
<g id="edge27" class="edge">
<title>Node23&#45;&gt;Node2</title>
<path fill="none" stroke="midnightblue" d="M1098.42,-347.17C1121.16,-323.32 1185.65,-255.6 1239,-199 1298.68,-135.68 1369.33,-59.99 1399.79,-27.33"/>
<polygon fill="midnightblue" stroke="midnightblue" points="1402.69,-29.34 1406.95,-19.64 1397.57,-24.57 1402.69,-29.34"/>
</g>
<!-- Node23&#45;&gt;Node9 -->
<g id="edge26" class="edge">
<title>Node23&#45;&gt;Node9</title>
<path fill="none" stroke="midnightblue" d="M1092.79,-347.39C1098.38,-330.01 1111.28,-289.42 1121,-255 1144.58,-171.49 1169.44,-70.91 1179.44,-29.84"/>
<polygon fill="midnightblue" stroke="midnightblue" points="1182.9,-30.45 1181.86,-19.9 1176.1,-28.79 1182.9,-30.45"/>
</g>
<!-- Node23&#45;&gt;Node13 -->
<g id="edge28" class="edge">
<title>Node23&#45;&gt;Node13</title>
<path fill="none" stroke="midnightblue" d="M1102.36,-347.48C1131.92,-326.33 1206.65,-268.09 1239,-199 1265.66,-142.05 1264.76,-65.19 1262.6,-30.01"/>
<polygon fill="midnightblue" stroke="midnightblue" points="1266.07,-29.49 1261.86,-19.77 1259.09,-29.99 1266.07,-29.49"/>
</g>
<!-- Node23&#45;&gt;Node17 -->
<g id="edge29" class="edge">
<title>Node23&#45;&gt;Node17</title>
<path fill="none" stroke="midnightblue" d="M1110.25,-347.36C1127.8,-339.35 1153.39,-326.36 1173,-311 1271.09,-234.17 1319.17,-82.02 1333.37,-29.41"/>
<polygon fill="midnightblue" stroke="midnightblue" points="1336.82,-30.06 1335.96,-19.5 1330.05,-28.3 1336.82,-30.06"/>
</g>
<!-- Node23&#45;&gt;Node22 -->
<g id="edge45" class="edge">
<title>Node23&#45;&gt;Node22</title>
<path fill="none" stroke="midnightblue" d="M1083.11,-347.32C1076.73,-338.68 1067.69,-324.77 1064,-311 1059.8,-295.34 1064.42,-277.3 1069.45,-264.2"/>
<polygon fill="midnightblue" stroke="midnightblue" points="1072.72,-265.47 1073.41,-254.9 1066.27,-262.73 1072.72,-265.47"/>
</g>
<!-- Node23&#45;&gt;Node24 -->
<g id="edge30" class="edge">
<title>Node23&#45;&gt;Node24</title>
<path fill="none" stroke="midnightblue" d="M1054.35,-349.65C1002.71,-340.44 906.52,-323.3 844.69,-312.28"/>
<polygon fill="midnightblue" stroke="midnightblue" points="845.16,-308.81 834.7,-310.5 843.93,-315.7 845.16,-308.81"/>
</g>
<!-- Node24&#45;&gt;Node6 -->
<g id="edge39" class="edge">
<title>Node24&#45;&gt;Node6</title>
<path fill="none" stroke="midnightblue" d="M850.98,-291.5C894.15,-284.3 945.61,-272.35 959,-255 981.79,-225.48 1031.16,-277.5 929,-112 921.47,-99.8 909.52,-89.24 898.87,-81.42"/>
<polygon fill="midnightblue" stroke="midnightblue" points="900.58,-78.34 890.36,-75.52 896.59,-84.09 900.58,-78.34"/>
</g>
<!-- Node24&#45;&gt;Node18 -->
<g id="edge40" class="edge">
<title>Node24&#45;&gt;Node18</title>
<path fill="none" stroke="midnightblue" d="M778.16,-291.17C765.07,-278.27 739.52,-253.75 716,-235 681.78,-207.72 673.79,-199.27 635,-179 609.84,-165.86 580.47,-154.44 555.56,-145.81"/>
<polygon fill="midnightblue" stroke="midnightblue" points="556.49,-142.43 545.9,-142.52 554.24,-149.06 556.49,-142.43"/>
</g>
<!-- Node24&#45;&gt;Node22 -->
<g id="edge38" class="edge">
<title>Node24&#45;&gt;Node22</title>
<path fill="none" stroke="midnightblue" d="M833.11,-291.44C888.21,-281.22 979.75,-264.23 1033.94,-254.18"/>
<polygon fill="midnightblue" stroke="midnightblue" points="1034.73,-257.59 1043.93,-252.32 1033.46,-250.71 1034.73,-257.59"/>
</g>
<!-- Node25 -->
<g id="node25" class="node">
<title>Node25</title>
<g id="a_node25"><a xlink:href="_recorder_8hpp.html" target="_top" xlink:title=" ">
<polygon fill="none" stroke="black" points="802,-235.5 802,-254.5 950,-254.5 950,-235.5 802,-235.5"/>
<text text-anchor="middle" x="876" y="-242.5" font-family="Helvetica,sans-Serif" font-size="10.00">../Benchmark/Recorder.hpp</text>
</a>
</g>
</g>
<!-- Node24&#45;&gt;Node25 -->
<g id="edge31" class="edge">
<title>Node24&#45;&gt;Node25</title>
<path fill="none" stroke="midnightblue" d="M801.3,-291.32C815.18,-282.9 836.49,-269.97 852.8,-260.07"/>
<polygon fill="midnightblue" stroke="midnightblue" points="855,-262.83 861.74,-254.65 851.37,-256.85 855,-262.83"/>
</g>
<!-- Node28 -->
<g id="node28" class="node">
<title>Node28</title>
<g id="a_node28"><a xlink:href="_bounds_8hpp.html" target="_top" xlink:title=" ">
<polygon fill="none" stroke="black" points="527,-179.5 527,-198.5 601,-198.5 601,-179.5 527,-179.5"/>
<text text-anchor="middle" x="564" y="-186.5" font-family="Helvetica,sans-Serif" font-size="10.00">Bounds.hpp</text>
</a>
</g>
</g>
<!-- Node24&#45;&gt;Node28 -->
<g id="edge35" class="edge">
<title>Node24&#45;&gt;Node28</title>
<path fill="none" stroke="midnightblue" d="M721.97,-291.45C689.77,-285.04 651.4,-273.97 621,-255 601.57,-242.88 585.05,-222.12 574.88,-207.32"/>
<polygon fill="midnightblue" stroke="midnightblue" points="577.57,-205.03 569.14,-198.61 571.72,-208.88 577.57,-205.03"/>
</g>
<!-- Node29 -->
<g id="node29" class="node">
<title>Node29</title>
<g id="a_node29"><a xlink:href="_vertices_8hpp.html" target="_top" xlink:title=" ">
<polygon fill="none" stroke="black" points="630.5,-235.5 630.5,-254.5 707.5,-254.5 707.5,-235.5 630.5,-235.5"/>
<text text-anchor="middle" x="669" y="-242.5" font-family="Helvetica,sans-Serif" font-size="10.00">Vertices.hpp</text>
</a>
</g>
</g>
<!-- Node24&#45;&gt;Node29 -->
<g id="edge41" class="edge">
<title>Node24&#45;&gt;Node29</title>
<path fill="none" stroke="midnightblue" d="M768.3,-291.44C749.06,-282.64 718.85,-268.81 696.8,-258.72"/>
<polygon fill="midnightblue" stroke="midnightblue" points="698.16,-255.5 687.61,-254.52 695.25,-261.86 698.16,-255.5"/>
</g>
<!-- Node26 -->
<g id="node26" class="node">
<title>Node26</title>
<g id="a_node26"><a xlink:href="_performance_8hpp.html" target="_top" xlink:title=" ">
<polygon fill="none" stroke="black" points="826,-179.5 826,-198.5 926,-198.5 926,-179.5 826,-179.5"/>
<text text-anchor="middle" x="876" y="-186.5" font-family="Helvetica,sans-Serif" font-size="10.00">Performance.hpp</text>
</a>
</g>
</g>
<!-- Node25&#45;&gt;Node26 -->
<g id="edge32" class="edge">
<title>Node25&#45;&gt;Node26</title>
<path fill="none" stroke="midnightblue" d="M876,-235.08C876,-228.01 876,-217.86 876,-208.99"/>
<polygon fill="midnightblue" stroke="midnightblue" points="879.5,-208.75 876,-198.75 872.5,-208.75 879.5,-208.75"/>
</g>
<!-- Node27 -->
<g id="node27" class="node">
<title>Node27</title>
<g id="a_node27"><a xlink:href="_block_data_8hpp.html" target="_top" xlink:title=" ">
<polygon fill="none" stroke="black" points="832,-118 832,-137 920,-137 920,-118 832,-118"/>
<text text-anchor="middle" x="876" y="-125" font-family="Helvetica,sans-Serif" font-size="10.00">BlockData.hpp</text>
</a>
</g>
</g>
<!-- Node26&#45;&gt;Node27 -->
<g id="edge33" class="edge">
<title>Node26&#45;&gt;Node27</title>
<path fill="none" stroke="midnightblue" d="M876,-179.48C876,-171.08 876,-157.98 876,-147.16"/>
<polygon fill="midnightblue" stroke="midnightblue" points="879.5,-147.01 876,-137.01 872.5,-147.01 879.5,-147.01"/>
</g>
<!-- Node27&#45;&gt;Node6 -->
<g id="edge34" class="edge">
<title>Node27&#45;&gt;Node6</title>
<path fill="none" stroke="midnightblue" d="M876,-117.98C876,-109.58 876,-96.48 876,-85.66"/>
<polygon fill="midnightblue" stroke="midnightblue" points="879.5,-85.51 876,-75.51 872.5,-85.51 879.5,-85.51"/>
</g>
<!-- Node28&#45;&gt;Node6 -->
<g id="edge36" class="edge">
<title>Node28&#45;&gt;Node6</title>
<path fill="none" stroke="midnightblue" d="M582.16,-179.45C613.7,-164.75 680.8,-134.14 739,-112 771.93,-99.47 810.05,-87.12 837.71,-78.54"/>
<polygon fill="midnightblue" stroke="midnightblue" points="838.87,-81.84 847.39,-75.55 836.81,-75.15 838.87,-81.84"/>
</g>
<!-- Node28&#45;&gt;Node18 -->
<g id="edge37" class="edge">
<title>Node28&#45;&gt;Node18</title>
<path fill="none" stroke="midnightblue" d="M554.83,-179.48C546.41,-171.64 533.58,-159.71 522.44,-149.37"/>
<polygon fill="midnightblue" stroke="midnightblue" points="524.79,-146.77 515.08,-142.52 520.02,-151.9 524.79,-146.77"/>
</g>
<!-- Node29&#45;&gt;Node6 -->
<g id="edge43" class="edge">
<title>Node29&#45;&gt;Node6</title>
<path fill="none" stroke="midnightblue" d="M674.02,-235.45C687.79,-212.61 728.42,-149.38 777,-112 795.56,-97.72 819.38,-86.71 839,-79.16"/>
<polygon fill="midnightblue" stroke="midnightblue" points="840.38,-82.38 848.54,-75.63 837.95,-75.82 840.38,-82.38"/>
</g>
<!-- Node29&#45;&gt;Node18 -->
<g id="edge44" class="edge">
<title>Node29&#45;&gt;Node18</title>
<path fill="none" stroke="midnightblue" d="M662.99,-235.4C653.21,-221.9 632.62,-195.57 610,-179 591.86,-165.72 569.67,-154.72 549.98,-146.41"/>
<polygon fill="midnightblue" stroke="midnightblue" points="551.13,-143.1 540.55,-142.55 548.48,-149.58 551.13,-143.1"/>
</g>
<!-- Node29&#45;&gt;Node28 -->
<g id="edge42" class="edge">
<title>Node29&#45;&gt;Node28</title>
<path fill="none" stroke="midnightblue" d="M652.13,-235.32C635.29,-226.66 609.19,-213.24 589.76,-203.25"/>
<polygon fill="midnightblue" stroke="midnightblue" points="591.32,-200.12 580.83,-198.65 588.12,-206.34 591.32,-200.12"/>
</g>
<!-- Node30&#45;&gt;Node17 -->
<g id="edge47" class="edge">
<title>Node30&#45;&gt;Node17</title>
<path fill="none" stroke="midnightblue" d="M899.3,-403.21C902.86,-390.36 910.43,-365.9 921,-347 936.45,-319.37 942.72,-313.48 965,-291 1082.93,-172.03 1253.85,-62.49 1315.1,-24.83"/>
<polygon fill="midnightblue" stroke="midnightblue" points="1316.93,-27.81 1323.64,-19.61 1313.28,-21.84 1316.93,-27.81"/>
</g>
<!-- Node30&#45;&gt;Node21 -->
<g id="edge48" class="edge">
<title>Node30&#45;&gt;Node21</title>
<path fill="none" stroke="midnightblue" d="M905.21,-422.75C909.24,-429.86 913.3,-440.14 915.82,-449.1"/>
<polygon fill="midnightblue" stroke="midnightblue" points="912.45,-450.07 918.03,-459.08 919.29,-448.56 912.45,-450.07"/>
</g>
<!-- Node30&#45;&gt;Node22 -->
<g id="edge49" class="edge">
<title>Node30&#45;&gt;Node22</title>
<path fill="none" stroke="midnightblue" d="M901.64,-403.3C913.48,-381.78 946.81,-325.33 988,-291 1004.64,-277.13 1026.29,-266.13 1044.18,-258.49"/>
<polygon fill="midnightblue" stroke="midnightblue" points="1045.75,-261.62 1053.67,-254.59 1043.09,-255.15 1045.75,-261.62"/>
</g>
<!-- Node30&#45;&gt;Node23 -->
<g id="edge50" class="edge">
<title>Node30&#45;&gt;Node23</title>
<path fill="none" stroke="midnightblue" d="M927.58,-403.44C960.61,-394.2 1013.39,-379.44 1049.77,-369.26"/>
<polygon fill="midnightblue" stroke="midnightblue" points="1050.87,-372.58 1059.56,-366.52 1048.99,-365.84 1050.87,-372.58"/>
</g>
<!-- Node31&#45;&gt;Node20 -->
<g id="edge58" class="edge">
<title>Node31&#45;&gt;Node20</title>
<path fill="none" stroke="midnightblue" d="M1307.94,-582.48C1282.94,-572.36 1241.06,-555.4 1212.51,-543.85"/>
<polygon fill="midnightblue" stroke="midnightblue" points="1213.61,-540.52 1203.02,-540.01 1210.98,-547.01 1213.61,-540.52"/>
</g>
<!-- Node31&#45;&gt;Node22 -->
<g id="edge57" class="edge">
<title>Node31&#45;&gt;Node22</title>
<path fill="none" stroke="midnightblue" d="M1327.35,-582.38C1319.16,-542.08 1278.99,-370.85 1174,-291 1155.66,-277.05 1132.3,-265.98 1113.22,-258.32"/>
<polygon fill="midnightblue" stroke="midnightblue" points="1114.27,-254.97 1103.68,-254.62 1111.74,-261.5 1114.27,-254.97"/>
</g>
<!-- Node32&#45;&gt;Node20 -->
<g id="edge61" class="edge">
<title>Node32&#45;&gt;Node20</title>
<path fill="none" stroke="midnightblue" d="M1182,-582.48C1182,-574.08 1182,-560.98 1182,-550.16"/>
<polygon fill="midnightblue" stroke="midnightblue" points="1185.5,-550.01 1182,-540.01 1178.5,-550.01 1185.5,-550.01"/>
</g>
<!-- Node32&#45;&gt;Node22 -->
<g id="edge60" class="edge">
<title>Node32&#45;&gt;Node22</title>
<path fill="none" stroke="midnightblue" d="M1217.01,-582.45C1235.93,-575.84 1257.68,-564.59 1269,-546 1276.16,-534.23 1272.17,-528.41 1269,-515 1243.15,-405.49 1230.3,-370.84 1151,-291 1138.09,-278 1120.73,-267.1 1106.17,-259.29"/>
<polygon fill="midnightblue" stroke="midnightblue" points="1107.58,-256.08 1097.09,-254.61 1104.37,-262.3 1107.58,-256.08"/>
</g>
<!-- Node33&#45;&gt;Node20 -->
<g id="edge64" class="edge">
<title>Node33&#45;&gt;Node20</title>
<path fill="none" stroke="midnightblue" d="M1019.22,-582.48C1052.24,-572.14 1108.04,-554.66 1144.95,-543.1"/>
<polygon fill="midnightblue" stroke="midnightblue" points="1146.33,-546.34 1154.83,-540.01 1144.24,-539.66 1146.33,-546.34"/>
</g>
<!-- Node33&#45;&gt;Node22 -->
<g id="edge63" class="edge">
<title>Node33&#45;&gt;Node22</title>
<path fill="none" stroke="midnightblue" d="M1000.42,-582.15C1026.75,-553.76 1107.46,-461.33 1135,-367 1137.49,-358.47 1137.26,-355.6 1135,-347 1126.51,-314.7 1105.1,-281.86 1091.07,-262.73"/>
<polygon fill="midnightblue" stroke="midnightblue" points="1093.68,-260.39 1084.86,-254.51 1088.09,-264.6 1093.68,-260.39"/>
</g>
<!-- Node34&#45;&gt;Node6 -->
<g id="edge73" class="edge">
<title>Node34&#45;&gt;Node6</title>
<path fill="none" stroke="midnightblue" d="M146.3,-520.95C107.83,-505.89 38,-470.73 38,-414 38,-414 38,-414 38,-188 38,-84.13 157.24,-132.84 259,-112 470.12,-68.76 729.33,-65.66 831.55,-66.34"/>
<polygon fill="midnightblue" stroke="midnightblue" points="831.77,-69.84 841.8,-66.42 831.83,-62.84 831.77,-69.84"/>
</g>
<!-- Node34&#45;&gt;Node18 -->
<g id="edge74" class="edge">
<title>Node34&#45;&gt;Node18</title>
<path fill="none" stroke="midnightblue" d="M168.23,-520.95C164.3,-507.38 158.39,-480.26 166,-459 181.81,-414.84 311.81,-311.22 312,-311 357.23,-257.55 345.66,-225.51 398,-179 413.08,-165.6 432.35,-154.85 450.08,-146.78"/>
<polygon fill="midnightblue" stroke="midnightblue" points="451.96,-149.78 459.73,-142.57 449.17,-143.36 451.96,-149.78"/>
</g>
<!-- Node34&#45;&gt;Node21 -->
<g id="edge69" class="edge">
<title>Node34&#45;&gt;Node21</title>
<path fill="none" stroke="midnightblue" d="M236.64,-520.99C254.28,-518.86 273.35,-516.7 291,-515 493.08,-495.53 732.67,-480.53 847.69,-473.83"/>
<polygon fill="midnightblue" stroke="midnightblue" points="847.98,-477.32 857.76,-473.25 847.57,-470.33 847.98,-477.32"/>
</g>
<!-- Node34&#45;&gt;Node23 -->
<g id="edge70" class="edge">
<title>Node34&#45;&gt;Node23</title>
<path fill="none" stroke="midnightblue" d="M173.4,-520.79C178.14,-505.41 190.27,-473.7 213,-459 352.33,-368.89 883.36,-358.96 1043.81,-358.04"/>
<polygon fill="midnightblue" stroke="midnightblue" points="1044.29,-361.53 1054.28,-357.99 1044.26,-354.53 1044.29,-361.53"/>
</g>
<!-- Node34&#45;&gt;Node28 -->
<g id="edge72" class="edge">
<title>Node34&#45;&gt;Node28</title>
<path fill="none" stroke="midnightblue" d="M169.47,-520.65C167.51,-506.66 165.51,-478.99 176,-459 194.15,-424.42 358.04,-331 388,-311 444.66,-273.18 510.65,-227.32 543.39,-204.44"/>
<polygon fill="midnightblue" stroke="midnightblue" points="545.51,-207.23 551.7,-198.63 541.5,-201.49 545.51,-207.23"/>
</g>
<!-- Node34&#45;&gt;Node29 -->
<g id="edge75" class="edge">
<title>Node34&#45;&gt;Node29</title>
<path fill="none" stroke="midnightblue" d="M171.08,-520.62C171.68,-506.09 174.83,-477.05 190,-459 221.34,-421.7 535.35,-297.79 637.25,-258.24"/>
<polygon fill="midnightblue" stroke="midnightblue" points="638.65,-261.45 646.71,-254.58 636.12,-254.93 638.65,-261.45"/>
</g>
<!-- Node34&#45;&gt;Node30 -->
<g id="edge71" class="edge">
<title>Node34&#45;&gt;Node30</title>
<path fill="none" stroke="midnightblue" d="M177.11,-520.81C188.67,-505.18 215.45,-472.65 247,-459 301.69,-435.33 706.77,-420.14 848.33,-415.5"/>
<polygon fill="midnightblue" stroke="midnightblue" points="848.58,-419 858.46,-415.18 848.35,-412 848.58,-419"/>
</g>
<!-- Node35&#45;&gt;Node3 -->
<g id="edge85" class="edge">
<title>Node35&#45;&gt;Node3</title>
<path fill="none" stroke="midnightblue" d="M637.43,-583.22C585.33,-573.47 495.23,-556.62 432.1,-544.8"/>
<polygon fill="midnightblue" stroke="midnightblue" points="432.68,-541.35 422.21,-542.95 431.39,-548.23 432.68,-541.35"/>
</g>
<!-- Node35&#45;&gt;Node6 -->
<g id="edge84" class="edge">
<title>Node35&#45;&gt;Node6</title>
<path fill="none" stroke="midnightblue" d="M644.69,-582.43C622.52,-575.52 594.14,-563.94 574,-546 435.43,-422.61 312.48,-353.7 375,-179 387.98,-142.73 396.04,-130.2 430,-112 498.66,-75.2 732.71,-68.44 831.46,-67.24"/>
<polygon fill="midnightblue" stroke="midnightblue" points="831.74,-70.73 841.7,-67.13 831.67,-63.73 831.74,-70.73"/>
</g>
<!-- Node35&#45;&gt;Node18 -->
<g id="edge86" class="edge">
<title>Node35&#45;&gt;Node18</title>
<path fill="none" stroke="midnightblue" d="M653.11,-582.45C635.44,-575.34 612.81,-563.52 599,-546 502.48,-423.51 497.62,-222.16 499.05,-152.84"/>
<polygon fill="midnightblue" stroke="midnightblue" points="502.56,-152.62 499.33,-142.53 495.56,-152.43 502.56,-152.62"/>
</g>
<!-- Node35&#45;&gt;Node21 -->
<g id="edge80" class="edge">
<title>Node35&#45;&gt;Node21</title>
<path fill="none" stroke="midnightblue" d="M720.7,-582.79C750.89,-575.77 792.02,-563.91 825,-546 854.69,-529.88 883.72,-503.19 900.73,-486.11"/>
<polygon fill="midnightblue" stroke="midnightblue" points="903.59,-488.19 908.06,-478.58 898.58,-483.3 903.59,-488.19"/>
</g>
<!-- Node35&#45;&gt;Node23 -->
<g id="edge81" class="edge">
<title>Node35&#45;&gt;Node23</title>
<path fill="none" stroke="midnightblue" d="M720.78,-583.88C758.3,-576.73 814.46,-564.17 861,-546 918.62,-523.5 932.74,-515.07 983,-479 1012.9,-457.54 1019.68,-450.62 1044,-423 1057.23,-407.97 1070.22,-389.14 1079,-375.62"/>
<polygon fill="midnightblue" stroke="midnightblue" points="1082.17,-377.16 1084.59,-366.85 1076.27,-373.4 1082.17,-377.16"/>
</g>
<!-- Node35&#45;&gt;Node28 -->
<g id="edge83" class="edge">
<title>Node35&#45;&gt;Node28</title>
<path fill="none" stroke="midnightblue" d="M666.27,-582.48C654.52,-574.18 637.12,-560.68 625,-546 603.34,-519.77 597.85,-511.56 588,-479 558.3,-380.82 560.67,-255.87 562.88,-208.94"/>
<polygon fill="midnightblue" stroke="midnightblue" points="566.38,-208.93 563.42,-198.76 559.39,-208.56 566.38,-208.93"/>
</g>
<!-- Node35&#45;&gt;Node30 -->
<g id="edge82" class="edge">
<title>Node35&#45;&gt;Node30</title>
<path fill="none" stroke="midnightblue" d="M689.51,-582.46C724.04,-554.43 834.25,-464.95 878.42,-429.08"/>
<polygon fill="midnightblue" stroke="midnightblue" points="880.78,-431.68 886.34,-422.66 876.37,-426.24 880.78,-431.68"/>
</g>
<!-- Node36 -->
<g id="node36" class="node">
<title>Node36</title>
<g id="a_node36"><a xlink:href="_quad_node_8hpp.html" target="_top" xlink:title=" ">
<polygon fill="none" stroke="black" points="634.5,-521 634.5,-540 723.5,-540 723.5,-521 634.5,-521"/>
<text text-anchor="middle" x="679" y="-528" font-family="Helvetica,sans-Serif" font-size="10.00">QuadNode.hpp</text>
</a>
</g>
</g>
<!-- Node35&#45;&gt;Node36 -->
<g id="edge87" class="edge">
<title>Node35&#45;&gt;Node36</title>
<path fill="none" stroke="midnightblue" d="M679,-582.48C679,-574.08 679,-560.98 679,-550.16"/>
<polygon fill="midnightblue" stroke="midnightblue" points="682.5,-550.01 679,-540.01 675.5,-550.01 682.5,-550.01"/>
</g>
<!-- Node36&#45;&gt;Node6 -->
<g id="edge92" class="edge">
<title>Node36&#45;&gt;Node6</title>
<path fill="none" stroke="midnightblue" d="M678.51,-520.94C677.01,-489.31 674.23,-376.43 705,-291 737.29,-201.35 759.82,-183.33 823,-112 832.75,-100.99 845.23,-90.26 855.63,-82.04"/>
<polygon fill="midnightblue" stroke="midnightblue" points="857.98,-84.65 863.77,-75.78 853.71,-79.11 857.98,-84.65"/>
</g>
<!-- Node36&#45;&gt;Node18 -->
<g id="edge93" class="edge">
<title>Node36&#45;&gt;Node18</title>
<path fill="none" stroke="midnightblue" d="M673.94,-520.86C652.3,-483.6 566.45,-332.49 518,-199 512.52,-183.92 508.05,-166.44 504.93,-152.66"/>
<polygon fill="midnightblue" stroke="midnightblue" points="508.27,-151.55 502.73,-142.52 501.43,-153.04 508.27,-151.55"/>
</g>
<!-- Node36&#45;&gt;Node21 -->
<g id="edge88" class="edge">
<title>Node36&#45;&gt;Node21</title>
<path fill="none" stroke="midnightblue" d="M712.96,-520.98C754.84,-510.46 826.13,-492.56 872.13,-481.01"/>
<polygon fill="midnightblue" stroke="midnightblue" points="873.26,-484.34 882.11,-478.51 871.56,-477.55 873.26,-484.34"/>
</g>
<!-- Node36&#45;&gt;Node23 -->
<g id="edge89" class="edge">
<title>Node36&#45;&gt;Node23</title>
<path fill="none" stroke="midnightblue" d="M687.27,-521C710.38,-497.78 778.63,-433.05 849,-403 913.32,-375.53 994.35,-364.79 1044.15,-360.61"/>
<polygon fill="midnightblue" stroke="midnightblue" points="1044.59,-364.09 1054.29,-359.82 1044.04,-357.11 1044.59,-364.09"/>
</g>
<!-- Node36&#45;&gt;Node28 -->
<g id="edge91" class="edge">
<title>Node36&#45;&gt;Node28</title>
<path fill="none" stroke="midnightblue" d="M676.04,-520.77C660.85,-475.92 591.51,-271.22 570.23,-208.39"/>
<polygon fill="midnightblue" stroke="midnightblue" points="573.46,-207.02 566.94,-198.68 566.83,-209.27 573.46,-207.02"/>
</g>
<!-- Node36&#45;&gt;Node30 -->
<g id="edge90" class="edge">
<title>Node36&#45;&gt;Node30</title>
<path fill="none" stroke="midnightblue" d="M695.39,-520.82C733.2,-500.79 826.75,-451.22 871.87,-427.32"/>
<polygon fill="midnightblue" stroke="midnightblue" points="873.52,-430.4 880.72,-422.62 870.25,-424.21 873.52,-430.4"/>
</g>
</g>
</svg>
