<?xml version="1.0" encoding="UTF-8" standalone="no"?>
<!DOCTYPE svg PUBLIC "-//W3C//DTD SVG 1.1//EN"
 "http://www.w3.org/Graphics/SVG/1.1/DTD/svg11.dtd">
<!-- Generated by graphviz version 2.43.0 (0)
 -->
<!-- Title: /home/runner/work/Simulatio/Simulatio/renderer/src/main/imgui_main.cpp Pages: 1 -->
<svg width="570pt" height="117pt"
 viewBox="0.00 0.00 569.50 117.00" xmlns="http://www.w3.org/2000/svg" xmlns:xlink="http://www.w3.org/1999/xlink">
<g id="graph0" class="graph" transform="scale(1 1) rotate(0) translate(4 113)">
<title>/home/runner/work/Simulatio/Simulatio/renderer/src/main/imgui_main.cpp</title>
<!-- Node1 -->
<g id="node1" class="node">
<title>Node1</title>
<g id="a_node1"><a xlink:title=" ">
<polygon fill="#bfbfbf" stroke="black" points="259,-67.5 259,-108.5 417,-108.5 417,-67.5 259,-67.5"/>
<text text-anchor="start" x="267" y="-96.5" font-family="Helvetica,sans-Serif" font-size="10.00">/home/runner/work/Simulatio</text>
<text text-anchor="start" x="267" y="-85.5" font-family="Helvetica,sans-Serif" font-size="10.00">/Simulatio/renderer/src</text>
<text text-anchor="middle" x="338" y="-74.5" font-family="Helvetica,sans-Serif" font-size="10.00">/main/imgui_main.cpp</text>
</a>
</g>
</g>
<!-- Node2 -->
<g id="node2" class="node">
<title>Node2</title>
<g id="a_node2"><a xlink:title=" ">
<polygon fill="none" stroke="#bfbfbf" points="0,-0.5 0,-30.5 120,-30.5 120,-0.5 0,-0.5"/>
<text text-anchor="start" x="8" y="-18.5" font-family="Helvetica,sans-Serif" font-size="10.00">backends/imgui_impl</text>
<text text-anchor="middle" x="60" y="-7.5" font-family="Helvetica,sans-Serif" font-size="10.00">_glfw.h</text>
</a>
</g>
</g>
<!-- Node1&#45;&gt;Node2 -->
<g id="edge1" class="edge">
<title>Node1&#45;&gt;Node2</title>
<path fill="none" stroke="midnightblue" d="M260.93,-67.46C218.33,-56.65 165.96,-43.37 125.38,-33.08"/>
<polygon fill="midnightblue" stroke="midnightblue" points="126.14,-29.66 115.59,-30.6 124.42,-36.45 126.14,-29.66"/>
</g>
<!-- Node3 -->
<g id="node3" class="node">
<title>Node3</title>
<g id="a_node3"><a xlink:title=" ">
<polygon fill="none" stroke="#bfbfbf" points="138,-0.5 138,-30.5 258,-30.5 258,-0.5 138,-0.5"/>
<text text-anchor="start" x="146" y="-18.5" font-family="Helvetica,sans-Serif" font-size="10.00">backends/imgui_impl</text>
<text text-anchor="middle" x="198" y="-7.5" font-family="Helvetica,sans-Serif" font-size="10.00">_opengl3.h</text>
</a>
</g>
</g>
<!-- Node1&#45;&gt;Node3 -->
<g id="edge2" class="edge">
<title>Node1&#45;&gt;Node3</title>
<path fill="none" stroke="midnightblue" d="M299,-67.36C279.03,-57.3 254.83,-45.12 235.13,-35.2"/>
<polygon fill="midnightblue" stroke="midnightblue" points="236.64,-32.04 226.14,-30.67 233.5,-38.29 236.64,-32.04"/>
</g>
<!-- Node4 -->
<g id="node4" class="node">
<title>Node4</title>
<g id="a_node4"><a xlink:title=" ">
<polygon fill="none" stroke="#bfbfbf" points="276.5,-6 276.5,-25 329.5,-25 329.5,-6 276.5,-6"/>
<text text-anchor="middle" x="303" y="-13" font-family="Helvetica,sans-Serif" font-size="10.00">imgui.h</text>
</a>
</g>
</g>
<!-- Node1&#45;&gt;Node4 -->
<g id="edge3" class="edge">
<title>Node1&#45;&gt;Node4</title>
<path fill="none" stroke="midnightblue" d="M328.25,-67.36C323.09,-56.97 316.81,-44.32 311.8,-34.23"/>
<polygon fill="midnightblue" stroke="midnightblue" points="314.89,-32.57 307.31,-25.17 308.62,-35.69 314.89,-32.57"/>
</g>
<!-- Node5 -->
<g id="node5" class="node">
<title>Node5</title>
<g id="a_node5"><a xlink:title=" ">
<polygon fill="none" stroke="#bfbfbf" points="348,-6 348,-25 398,-25 398,-6 348,-6"/>
<text text-anchor="middle" x="373" y="-13" font-family="Helvetica,sans-Serif" font-size="10.00">stdio.h</text>
</a>
</g>
</g>
<!-- Node1&#45;&gt;Node5 -->
<g id="edge4" class="edge">
<title>Node1&#45;&gt;Node5</title>
<path fill="none" stroke="midnightblue" d="M347.75,-67.36C352.91,-56.97 359.19,-44.32 364.2,-34.23"/>
<polygon fill="midnightblue" stroke="midnightblue" points="367.38,-35.69 368.69,-25.17 361.11,-32.57 367.38,-35.69"/>
</g>
<!-- Node6 -->
<g id="node6" class="node">
<title>Node6</title>
<g id="a_node6"><a xlink:title=" ">
<polygon fill="none" stroke="#bfbfbf" points="416,-6 416,-25 460,-25 460,-6 416,-6"/>
<text text-anchor="middle" x="438" y="-13" font-family="Helvetica,sans-Serif" font-size="10.00">string</text>
</a>
</g>
</g>
<!-- Node1&#45;&gt;Node6 -->
<g id="edge5" class="edge">
<title>Node1&#45;&gt;Node6</title>
<path fill="none" stroke="midnightblue" d="M365.86,-67.36C382.13,-55.89 402.32,-41.65 417.2,-31.16"/>
<polygon fill="midnightblue" stroke="midnightblue" points="419.54,-33.8 425.7,-25.17 415.51,-28.07 419.54,-33.8"/>
</g>
<!-- Node7 -->
<g id="node7" class="node">
<title>Node7</title>
<g id="a_node7"><a xlink:title=" ">
<polygon fill="none" stroke="#bfbfbf" points="478.5,-6 478.5,-25 561.5,-25 561.5,-6 478.5,-6"/>
<text text-anchor="middle" x="520" y="-13" font-family="Helvetica,sans-Serif" font-size="10.00">GLFW/glfw3.h</text>
</a>
</g>
</g>
<!-- Node1&#45;&gt;Node7 -->
<g id="edge6" class="edge">
<title>Node1&#45;&gt;Node7</title>
<path fill="none" stroke="midnightblue" d="M388.7,-67.36C420.55,-55.02 460.65,-39.49 488.11,-28.85"/>
<polygon fill="midnightblue" stroke="midnightblue" points="489.55,-32.05 497.61,-25.17 487.02,-25.52 489.55,-32.05"/>
</g>
</g>
</svg>
