<?xml version="1.0" encoding="UTF-8" standalone="no"?>
<!DOCTYPE svg PUBLIC "-//W3C//DTD SVG 1.1//EN"
 "http://www.w3.org/Graphics/SVG/1.1/DTD/svg11.dtd">
<!-- Generated by graphviz version 2.43.0 (0)
 -->
<!-- Title: Graphical Class Hierarchy Pages: 1 -->
<svg width="205pt" height="142pt"
 viewBox="0.00 0.00 205.00 142.00" xmlns="http://www.w3.org/2000/svg" xmlns:xlink="http://www.w3.org/1999/xlink">
<g id="graph0" class="graph" transform="scale(1 1) rotate(0) translate(4 138)">
<title>Graphical Class Hierarchy</title>
<!-- Node0 -->
<g id="node1" class="node">
<title>Node0</title>
<g id="a_node1"><a xlink:href="classphy_1_1_constraint.html" target="_top" xlink:title=" ">
<polygon fill="none" stroke="black" points="0,-57.5 0,-76.5 90,-76.5 90,-57.5 0,-57.5"/>
<text text-anchor="middle" x="45" y="-64.5" font-family="Helvetica,sans-Serif" font-size="10.00">phy::Constraint</text>
</a>
</g>
</g>
<!-- Node1 -->
<g id="node2" class="node">
<title>Node1</title>
<g id="a_node2"><a xlink:href="classphy_1_1_link.html" target="_top" xlink:title=" ">
<polygon fill="none" stroke="black" points="131.5,-114.5 131.5,-133.5 191.5,-133.5 191.5,-114.5 131.5,-114.5"/>
<text text-anchor="middle" x="161.5" y="-121.5" font-family="Helvetica,sans-Serif" font-size="10.00">phy::Link</text>
</a>
</g>
</g>
<!-- Node0&#45;&gt;Node1 -->
<g id="edge1" class="edge">
<title>Node0&#45;&gt;Node1</title>
<path fill="none" stroke="midnightblue" d="M74.2,-81.04C95.06,-91.42 122.92,-105.29 141.27,-114.43"/>
<polygon fill="midnightblue" stroke="midnightblue" points="75.68,-77.86 65.16,-76.54 72.56,-84.13 75.68,-77.86"/>
</g>
<!-- Node2 -->
<g id="node3" class="node">
<title>Node2</title>
<g id="a_node3"><a xlink:href="classphy_1_1_loose.html" target="_top" xlink:title=" ">
<polygon fill="none" stroke="black" points="127.5,-76.5 127.5,-95.5 195.5,-95.5 195.5,-76.5 127.5,-76.5"/>
<text text-anchor="middle" x="161.5" y="-83.5" font-family="Helvetica,sans-Serif" font-size="10.00">phy::Loose</text>
</a>
</g>
</g>
<!-- Node0&#45;&gt;Node2 -->
<g id="edge2" class="edge">
<title>Node0&#45;&gt;Node2</title>
<path fill="none" stroke="midnightblue" d="M100.23,-76C109.49,-77.54 118.86,-79.09 127.36,-80.5"/>
<polygon fill="midnightblue" stroke="midnightblue" points="100.71,-72.53 90.27,-74.35 99.56,-79.44 100.71,-72.53"/>
</g>
<!-- Node3 -->
<g id="node4" class="node">
<title>Node3</title>
<g id="a_node4"><a xlink:href="classphy_1_1_slider.html" target="_top" xlink:title=" ">
<polygon fill="none" stroke="black" points="127.5,-38.5 127.5,-57.5 195.5,-57.5 195.5,-38.5 127.5,-38.5"/>
<text text-anchor="middle" x="161.5" y="-45.5" font-family="Helvetica,sans-Serif" font-size="10.00">phy::Slider</text>
</a>
</g>
</g>
<!-- Node0&#45;&gt;Node3 -->
<g id="edge3" class="edge">
<title>Node0&#45;&gt;Node3</title>
<path fill="none" stroke="midnightblue" d="M100.23,-58C109.49,-56.46 118.86,-54.91 127.36,-53.5"/>
<polygon fill="midnightblue" stroke="midnightblue" points="99.56,-54.56 90.27,-59.65 100.71,-61.47 99.56,-54.56"/>
</g>
<!-- Node4 -->
<g id="node5" class="node">
<title>Node4</title>
<g id="a_node5"><a xlink:href="classphy_1_1_spring.html" target="_top" xlink:title=" ">
<polygon fill="none" stroke="black" points="126,-0.5 126,-19.5 197,-19.5 197,-0.5 126,-0.5"/>
<text text-anchor="middle" x="161.5" y="-7.5" font-family="Helvetica,sans-Serif" font-size="10.00">phy::Spring</text>
</a>
</g>
</g>
<!-- Node0&#45;&gt;Node4 -->
<g id="edge4" class="edge">
<title>Node0&#45;&gt;Node4</title>
<path fill="none" stroke="midnightblue" d="M74.2,-52.96C95.06,-42.58 122.92,-28.71 141.27,-19.57"/>
<polygon fill="midnightblue" stroke="midnightblue" points="72.56,-49.87 65.16,-57.46 75.68,-56.14 72.56,-49.87"/>
</g>
</g>
</svg>
