<?xml version="1.0" encoding="UTF-8" standalone="no"?>
<!DOCTYPE svg PUBLIC "-//W3C//DTD SVG 1.1//EN"
 "http://www.w3.org/Graphics/SVG/1.1/DTD/svg11.dtd">
<!-- Generated by graphviz version 2.43.0 (0)
 -->
<!-- Title: /home/runner/work/Simulatio/Simulatio/renderer/src/main/old_main.cpp Pages: 1 -->
<svg width="1993pt" height="240pt"
 viewBox="0.00 0.00 1992.50 240.00" xmlns="http://www.w3.org/2000/svg" xmlns:xlink="http://www.w3.org/1999/xlink">
<g id="graph0" class="graph" transform="scale(1 1) rotate(0) translate(4 236)">
<title>/home/runner/work/Simulatio/Simulatio/renderer/src/main/old_main.cpp</title>
<!-- Node1 -->
<g id="node1" class="node">
<title>Node1</title>
<g id="a_node1"><a xlink:title=" ">
<polygon fill="#bfbfbf" stroke="black" points="1162,-190.5 1162,-231.5 1320,-231.5 1320,-190.5 1162,-190.5"/>
<text text-anchor="start" x="1170" y="-219.5" font-family="Helvetica,sans-Serif" font-size="10.00">/home/runner/work/Simulatio</text>
<text text-anchor="start" x="1170" y="-208.5" font-family="Helvetica,sans-Serif" font-size="10.00">/Simulatio/renderer/src</text>
<text text-anchor="middle" x="1241" y="-197.5" font-family="Helvetica,sans-Serif" font-size="10.00">/main/old_main.cpp</text>
</a>
</g>
</g>
<!-- Node2 -->
<g id="node2" class="node">
<title>Node2</title>
<g id="a_node2"><a xlink:title=" ">
<polygon fill="none" stroke="#bfbfbf" points="639,-129 639,-148 699,-148 699,-129 639,-129"/>
<text text-anchor="middle" x="669" y="-136" font-family="Helvetica,sans-Serif" font-size="10.00">iostream</text>
</a>
</g>
</g>
<!-- Node1&#45;&gt;Node2 -->
<g id="edge1" class="edge">
<title>Node1&#45;&gt;Node2</title>
<path fill="none" stroke="midnightblue" d="M1161.85,-207.87C1056.84,-203.66 866.3,-191.12 708,-154 704.93,-153.28 701.78,-152.39 698.66,-151.4"/>
<polygon fill="midnightblue" stroke="midnightblue" points="699.54,-148 688.94,-148.01 697.24,-154.61 699.54,-148"/>
</g>
<!-- Node3 -->
<g id="node3" class="node">
<title>Node3</title>
<g id="a_node3"><a xlink:title=" ">
<polygon fill="none" stroke="#bfbfbf" points="717,-123.5 717,-153.5 839,-153.5 839,-123.5 717,-123.5"/>
<text text-anchor="start" x="725" y="-141.5" font-family="Helvetica,sans-Serif" font-size="10.00">../../include/Geometry</text>
<text text-anchor="middle" x="778" y="-130.5" font-family="Helvetica,sans-Serif" font-size="10.00">/Vector.hpp</text>
</a>
</g>
</g>
<!-- Node1&#45;&gt;Node3 -->
<g id="edge2" class="edge">
<title>Node1&#45;&gt;Node3</title>
<path fill="none" stroke="midnightblue" d="M1161.73,-200.19C1084.45,-190.28 963.38,-173.87 849.02,-154.12"/>
<polygon fill="midnightblue" stroke="midnightblue" points="849.49,-150.64 839.04,-152.38 848.29,-157.54 849.49,-150.64"/>
</g>
<!-- Node4 -->
<g id="node4" class="node">
<title>Node4</title>
<g id="a_node4"><a xlink:href="_renderer_8hpp.html" target="_top" xlink:title=" ">
<polygon fill="none" stroke="black" points="857.5,-123.5 857.5,-153.5 974.5,-153.5 974.5,-123.5 857.5,-123.5"/>
<text text-anchor="start" x="865.5" y="-141.5" font-family="Helvetica,sans-Serif" font-size="10.00">../../include/Renderer</text>
<text text-anchor="middle" x="916" y="-130.5" font-family="Helvetica,sans-Serif" font-size="10.00">/Renderer.hpp</text>
</a>
</g>
</g>
<!-- Node1&#45;&gt;Node4 -->
<g id="edge3" class="edge">
<title>Node1&#45;&gt;Node4</title>
<path fill="none" stroke="midnightblue" d="M1161.91,-192.84C1107.75,-181.09 1036.62,-165.66 984.8,-154.42"/>
<polygon fill="midnightblue" stroke="midnightblue" points="985.22,-150.93 974.7,-152.23 983.73,-157.77 985.22,-150.93"/>
</g>
<!-- Node26 -->
<g id="node26" class="node">
<title>Node26</title>
<g id="a_node26"><a xlink:title=" ">
<polygon fill="none" stroke="#bfbfbf" points="992.5,-129 992.5,-148 1107.5,-148 1107.5,-129 992.5,-129"/>
<text text-anchor="middle" x="1050" y="-136" font-family="Helvetica,sans-Serif" font-size="10.00">../demos/baloon.cpp</text>
</a>
</g>
</g>
<!-- Node1&#45;&gt;Node26 -->
<g id="edge31" class="edge">
<title>Node1&#45;&gt;Node26</title>
<path fill="none" stroke="midnightblue" d="M1188.05,-190.46C1154.27,-177.99 1111.57,-162.23 1082.67,-151.56"/>
<polygon fill="midnightblue" stroke="midnightblue" points="1083.66,-148.19 1073.06,-148.01 1081.23,-154.76 1083.66,-148.19"/>
</g>
<!-- Node27 -->
<g id="node27" class="node">
<title>Node27</title>
<g id="a_node27"><a xlink:title=" ">
<polygon fill="none" stroke="#bfbfbf" points="1125.5,-129 1125.5,-148 1230.5,-148 1230.5,-129 1125.5,-129"/>
<text text-anchor="middle" x="1178" y="-136" font-family="Helvetica,sans-Serif" font-size="10.00">../demos/base.cpp</text>
</a>
</g>
</g>
<!-- Node1&#45;&gt;Node27 -->
<g id="edge32" class="edge">
<title>Node1&#45;&gt;Node27</title>
<path fill="none" stroke="midnightblue" d="M1223.45,-190.36C1213.68,-179.43 1201.67,-165.99 1192.45,-155.67"/>
<polygon fill="midnightblue" stroke="midnightblue" points="1195.02,-153.3 1185.75,-148.17 1189.8,-157.96 1195.02,-153.3"/>
</g>
<!-- Node28 -->
<g id="node28" class="node">
<title>Node28</title>
<g id="a_node28"><a xlink:title=" ">
<polygon fill="none" stroke="#bfbfbf" points="1248.5,-129 1248.5,-148 1359.5,-148 1359.5,-129 1248.5,-129"/>
<text text-anchor="middle" x="1304" y="-136" font-family="Helvetica,sans-Serif" font-size="10.00">../demos/cloths.cpp</text>
</a>
</g>
</g>
<!-- Node1&#45;&gt;Node28 -->
<g id="edge33" class="edge">
<title>Node1&#45;&gt;Node28</title>
<path fill="none" stroke="midnightblue" d="M1258.55,-190.36C1268.32,-179.43 1280.33,-165.99 1289.55,-155.67"/>
<polygon fill="midnightblue" stroke="midnightblue" points="1292.2,-157.96 1296.25,-148.17 1286.98,-153.3 1292.2,-157.96"/>
</g>
<!-- Node29 -->
<g id="node29" class="node">
<title>Node29</title>
<g id="a_node29"><a xlink:title=" ">
<polygon fill="none" stroke="#bfbfbf" points="1378,-129 1378,-148 1514,-148 1514,-129 1378,-129"/>
<text text-anchor="middle" x="1446" y="-136" font-family="Helvetica,sans-Serif" font-size="10.00">../demos/constraints.cpp</text>
</a>
</g>
</g>
<!-- Node1&#45;&gt;Node29 -->
<g id="edge34" class="edge">
<title>Node1&#45;&gt;Node29</title>
<path fill="none" stroke="midnightblue" d="M1297.83,-190.46C1334.4,-177.88 1380.71,-161.95 1411.74,-151.28"/>
<polygon fill="midnightblue" stroke="midnightblue" points="1412.93,-154.57 1421.25,-148.01 1410.65,-147.96 1412.93,-154.57"/>
</g>
<!-- Node30 -->
<g id="node30" class="node">
<title>Node30</title>
<g id="a_node30"><a xlink:title=" ">
<polygon fill="none" stroke="#bfbfbf" points="1532,-129 1532,-148 1640,-148 1640,-129 1532,-129"/>
<text text-anchor="middle" x="1586" y="-136" font-family="Helvetica,sans-Serif" font-size="10.00">../demos/slider.cpp</text>
</a>
</g>
</g>
<!-- Node1&#45;&gt;Node30 -->
<g id="edge35" class="edge">
<title>Node1&#45;&gt;Node30</title>
<path fill="none" stroke="midnightblue" d="M1320.14,-194.95C1376.74,-184.02 1454.67,-168.64 1523,-154 1528.42,-152.84 1534.09,-151.59 1539.72,-150.32"/>
<polygon fill="midnightblue" stroke="midnightblue" points="1540.75,-153.67 1549.73,-148.05 1539.2,-146.85 1540.75,-153.67"/>
</g>
<!-- Node31 -->
<g id="node31" class="node">
<title>Node31</title>
<g id="a_node31"><a xlink:title=" ">
<polygon fill="none" stroke="#bfbfbf" points="1658.5,-129 1658.5,-148 1775.5,-148 1775.5,-129 1658.5,-129"/>
<text text-anchor="middle" x="1717" y="-136" font-family="Helvetica,sans-Serif" font-size="10.00">../demos/sponge.cpp</text>
</a>
</g>
</g>
<!-- Node1&#45;&gt;Node31 -->
<g id="edge36" class="edge">
<title>Node1&#45;&gt;Node31</title>
<path fill="none" stroke="midnightblue" d="M1320.25,-200.88C1402.65,-190.98 1535.26,-173.9 1649,-154 1655.63,-152.84 1662.6,-151.5 1669.44,-150.11"/>
<polygon fill="midnightblue" stroke="midnightblue" points="1670.25,-153.51 1679.33,-148.05 1668.83,-146.66 1670.25,-153.51"/>
</g>
<!-- Node32 -->
<g id="node32" class="node">
<title>Node32</title>
<g id="a_node32"><a xlink:title=" ">
<polygon fill="none" stroke="#bfbfbf" points="1794,-129 1794,-148 1906,-148 1906,-129 1794,-129"/>
<text text-anchor="middle" x="1850" y="-136" font-family="Helvetica,sans-Serif" font-size="10.00">../demos/spring.cpp</text>
</a>
</g>
</g>
<!-- Node1&#45;&gt;Node32 -->
<g id="edge37" class="edge">
<title>Node1&#45;&gt;Node32</title>
<path fill="none" stroke="midnightblue" d="M1320.21,-204.76C1426.45,-197.07 1620.76,-180.68 1785,-154 1791.67,-152.92 1798.68,-151.57 1805.54,-150.14"/>
<polygon fill="midnightblue" stroke="midnightblue" points="1806.37,-153.54 1815.4,-148.01 1804.89,-146.7 1806.37,-153.54"/>
</g>
<!-- Node5 -->
<g id="node5" class="node">
<title>Node5</title>
<g id="a_node5"><a xlink:title=" ">
<polygon fill="none" stroke="#bfbfbf" points="0,-0.5 0,-19.5 110,-19.5 110,-0.5 0,-0.5"/>
<text text-anchor="middle" x="55" y="-7.5" font-family="Helvetica,sans-Serif" font-size="10.00">SFML/Graphics.hpp</text>
</a>
</g>
</g>
<!-- Node4&#45;&gt;Node5 -->
<g id="edge4" class="edge">
<title>Node4&#45;&gt;Node5</title>
<path fill="none" stroke="midnightblue" d="M857.5,-124.39C854.29,-123.87 851.11,-123.4 848,-123 762.95,-112.02 144.34,-140.11 77,-87 59.93,-73.54 55.56,-47.68 54.71,-29.89"/>
<polygon fill="midnightblue" stroke="midnightblue" points="58.21,-29.76 54.55,-19.81 51.21,-29.86 58.21,-29.76"/>
</g>
<!-- Node6 -->
<g id="node6" class="node">
<title>Node6</title>
<g id="a_node6"><a xlink:title=" ">
<polygon fill="none" stroke="#bfbfbf" points="228.5,-62 228.5,-81 319.5,-81 319.5,-62 228.5,-62"/>
<text text-anchor="middle" x="274" y="-69" font-family="Helvetica,sans-Serif" font-size="10.00">SFML/Main.hpp</text>
</a>
</g>
</g>
<!-- Node4&#45;&gt;Node6 -->
<g id="edge5" class="edge">
<title>Node4&#45;&gt;Node6</title>
<path fill="none" stroke="midnightblue" d="M857.49,-124.48C854.29,-123.93 851.11,-123.44 848,-123 619.03,-90.81 557.14,-124.64 329,-87 323.52,-86.1 317.79,-84.89 312.19,-83.56"/>
<polygon fill="midnightblue" stroke="midnightblue" points="312.88,-80.12 302.33,-81.06 311.16,-86.91 312.88,-80.12"/>
</g>
<!-- Node7 -->
<g id="node7" class="node">
<title>Node7</title>
<g id="a_node7"><a xlink:title=" ">
<polygon fill="none" stroke="#bfbfbf" points="338,-56.5 338,-86.5 432,-86.5 432,-56.5 338,-56.5"/>
<text text-anchor="start" x="346" y="-74.5" font-family="Helvetica,sans-Serif" font-size="10.00">../../assets/fonts</text>
<text text-anchor="middle" x="385" y="-63.5" font-family="Helvetica,sans-Serif" font-size="10.00">/consolas.hpp</text>
</a>
</g>
</g>
<!-- Node4&#45;&gt;Node7 -->
<g id="edge6" class="edge">
<title>Node4&#45;&gt;Node7</title>
<path fill="none" stroke="midnightblue" d="M857.48,-124.55C854.28,-123.99 851.1,-123.47 848,-123 671.67,-96.5 621.75,-117.09 442.28,-87.03"/>
<polygon fill="midnightblue" stroke="midnightblue" points="442.68,-83.55 432.24,-85.32 441.51,-90.45 442.68,-83.55"/>
</g>
<!-- Node8 -->
<g id="node8" class="node">
<title>Node8</title>
<g id="a_node8"><a xlink:title=" ">
<polygon fill="none" stroke="#bfbfbf" points="450,-56.5 450,-86.5 560,-86.5 560,-56.5 450,-56.5"/>
<text text-anchor="start" x="458" y="-74.5" font-family="Helvetica,sans-Serif" font-size="10.00">../../assets/fonts</text>
<text text-anchor="middle" x="505" y="-63.5" font-family="Helvetica,sans-Serif" font-size="10.00">/forkawersome.hpp</text>
</a>
</g>
</g>
<!-- Node4&#45;&gt;Node8 -->
<g id="edge7" class="edge">
<title>Node4&#45;&gt;Node8</title>
<path fill="none" stroke="midnightblue" d="M857.45,-124.7C854.26,-124.1 851.09,-123.53 848,-123 727.89,-102.48 693.82,-108.51 569.96,-87.06"/>
<polygon fill="midnightblue" stroke="midnightblue" points="570.55,-83.61 560.09,-85.33 569.33,-90.51 570.55,-83.61"/>
</g>
<!-- Node9 -->
<g id="node9" class="node">
<title>Node9</title>
<g id="a_node9"><a xlink:title=" ">
<polygon fill="none" stroke="#bfbfbf" points="578,-56.5 578,-86.5 672,-86.5 672,-56.5 578,-56.5"/>
<text text-anchor="start" x="586" y="-74.5" font-family="Helvetica,sans-Serif" font-size="10.00">../../assets/fonts</text>
<text text-anchor="middle" x="625" y="-63.5" font-family="Helvetica,sans-Serif" font-size="10.00">/icons.hpp</text>
</a>
</g>
</g>
<!-- Node4&#45;&gt;Node9 -->
<g id="edge8" class="edge">
<title>Node4&#45;&gt;Node9</title>
<path fill="none" stroke="midnightblue" d="M857.47,-124.99C798.81,-112.44 713.62,-94.18 681.88,-87.08"/>
<polygon fill="midnightblue" stroke="midnightblue" points="682.55,-83.64 672.02,-84.83 680.99,-90.47 682.55,-83.64"/>
</g>
<!-- Node10 -->
<g id="node10" class="node">
<title>Node10</title>
<g id="a_node10"><a xlink:title=" ">
<polygon fill="none" stroke="#bfbfbf" points="690,-56.5 690,-86.5 784,-86.5 784,-56.5 690,-56.5"/>
<text text-anchor="start" x="698" y="-74.5" font-family="Helvetica,sans-Serif" font-size="10.00">../../assets/fonts</text>
<text text-anchor="middle" x="737" y="-63.5" font-family="Helvetica,sans-Serif" font-size="10.00">/proggy.hpp</text>
</a>
</g>
</g>
<!-- Node4&#45;&gt;Node10 -->
<g id="edge9" class="edge">
<title>Node4&#45;&gt;Node10</title>
<path fill="none" stroke="midnightblue" d="M877.16,-123.4C850.18,-113.6 814.06,-100.48 785.23,-90.02"/>
<polygon fill="midnightblue" stroke="midnightblue" points="786.36,-86.7 775.76,-86.58 783.97,-93.28 786.36,-86.7"/>
</g>
<!-- Node11 -->
<g id="node11" class="node">
<title>Node11</title>
<g id="a_node11"><a xlink:title=" ">
<polygon fill="none" stroke="#bfbfbf" points="802,-56.5 802,-86.5 896,-86.5 896,-56.5 802,-56.5"/>
<text text-anchor="start" x="810" y="-74.5" font-family="Helvetica,sans-Serif" font-size="10.00">../../assets/fonts</text>
<text text-anchor="middle" x="849" y="-63.5" font-family="Helvetica,sans-Serif" font-size="10.00">/roboto.hpp</text>
</a>
</g>
</g>
<!-- Node4&#45;&gt;Node11 -->
<g id="edge10" class="edge">
<title>Node4&#45;&gt;Node11</title>
<path fill="none" stroke="midnightblue" d="M901.46,-123.4C892.51,-114.71 880.86,-103.4 870.81,-93.66"/>
<polygon fill="midnightblue" stroke="midnightblue" points="873.12,-91.03 863.51,-86.58 868.25,-96.05 873.12,-91.03"/>
</g>
<!-- Node12 -->
<g id="node12" class="node">
<title>Node12</title>
<g id="a_node12"><a xlink:title=" ">
<polygon fill="none" stroke="#bfbfbf" points="914.5,-62 914.5,-81 1051.5,-81 1051.5,-62 914.5,-62"/>
<text text-anchor="middle" x="983" y="-69" font-family="Helvetica,sans-Serif" font-size="10.00">../../assets/icon/ricon.hpp</text>
</a>
</g>
</g>
<!-- Node4&#45;&gt;Node12 -->
<g id="edge11" class="edge">
<title>Node4&#45;&gt;Node12</title>
<path fill="none" stroke="midnightblue" d="M930.54,-123.4C941.19,-113.06 955.66,-99.02 966.7,-88.31"/>
<polygon fill="midnightblue" stroke="midnightblue" points="969.3,-90.67 974.04,-81.19 964.42,-85.65 969.3,-90.67"/>
</g>
<!-- Node13 -->
<g id="node13" class="node">
<title>Node13</title>
<g id="a_node13"><a xlink:title=" ">
<polygon fill="none" stroke="#bfbfbf" points="128,-0.5 128,-19.5 274,-19.5 274,-0.5 128,-0.5"/>
<text text-anchor="middle" x="201" y="-7.5" font-family="Helvetica,sans-Serif" font-size="10.00">../Geometry/Geometry.hpp</text>
</a>
</g>
</g>
<!-- Node4&#45;&gt;Node13 -->
<g id="edge12" class="edge">
<title>Node4&#45;&gt;Node13</title>
<path fill="none" stroke="midnightblue" d="M857.49,-124.43C854.29,-123.9 851.11,-123.42 848,-123 778.62,-113.67 272.64,-131.97 219,-87 202.56,-73.21 199.56,-47.43 199.68,-29.75"/>
<polygon fill="midnightblue" stroke="midnightblue" points="203.17,-29.87 200.07,-19.74 196.18,-29.59 203.17,-29.87"/>
</g>
<!-- Node14 -->
<g id="node14" class="node">
<title>Node14</title>
<g id="a_node14"><a xlink:title=" ">
<polygon fill="none" stroke="#bfbfbf" points="986,-0.5 986,-19.5 1114,-19.5 1114,-0.5 986,-0.5"/>
<text text-anchor="middle" x="1050" y="-7.5" font-family="Helvetica,sans-Serif" font-size="10.00">../Geometry/Maths.hpp</text>
</a>
</g>
</g>
<!-- Node4&#45;&gt;Node14 -->
<g id="edge13" class="edge">
<title>Node4&#45;&gt;Node14</title>
<path fill="none" stroke="midnightblue" d="M974.78,-124.2C1009.88,-114.93 1049.62,-101.64 1060,-87 1071.98,-70.1 1065.69,-45.65 1058.92,-29.08"/>
<polygon fill="midnightblue" stroke="midnightblue" points="1062.1,-27.6 1054.8,-19.92 1055.71,-30.47 1062.1,-27.6"/>
</g>
<!-- Node15 -->
<g id="node15" class="node">
<title>Node15</title>
<g id="a_node15"><a xlink:title=" ">
<polygon fill="none" stroke="#bfbfbf" points="1365.5,-62 1365.5,-81 1492.5,-81 1492.5,-62 1365.5,-62"/>
<text text-anchor="middle" x="1429" y="-69" font-family="Helvetica,sans-Serif" font-size="10.00">../Geometry/String.hpp</text>
</a>
</g>
</g>
<!-- Node4&#45;&gt;Node15 -->
<g id="edge14" class="edge">
<title>Node4&#45;&gt;Node15</title>
<path fill="none" stroke="midnightblue" d="M974.75,-124.38C977.54,-123.88 980.3,-123.42 983,-123 1148,-97.29 1191.82,-111.52 1357,-87 1364.54,-85.88 1372.49,-84.49 1380.24,-83.02"/>
<polygon fill="midnightblue" stroke="midnightblue" points="1381.13,-86.42 1390.27,-81.06 1379.78,-79.55 1381.13,-86.42"/>
</g>
<!-- Node16 -->
<g id="node16" class="node">
<title>Node16</title>
<g id="a_node16"><a xlink:title=" ">
<polygon fill="none" stroke="#bfbfbf" points="1511,-62 1511,-81 1639,-81 1639,-62 1511,-62"/>
<text text-anchor="middle" x="1575" y="-69" font-family="Helvetica,sans-Serif" font-size="10.00">../Geometry/Vector.hpp</text>
</a>
</g>
</g>
<!-- Node4&#45;&gt;Node16 -->
<g id="edge15" class="edge">
<title>Node4&#45;&gt;Node16</title>
<path fill="none" stroke="midnightblue" d="M974.74,-124.29C977.53,-123.82 980.29,-123.39 983,-123 1211.92,-90.46 1272.81,-117.59 1502,-87 1510.1,-85.92 1518.66,-84.49 1526.95,-82.94"/>
<polygon fill="midnightblue" stroke="midnightblue" points="1527.73,-86.36 1536.89,-81.02 1526.4,-79.48 1527.73,-86.36"/>
</g>
<!-- Node17 -->
<g id="node17" class="node">
<title>Node17</title>
<g id="a_node17"><a xlink:title=" ">
<polygon fill="none" stroke="#bfbfbf" points="1657,-62 1657,-81 1793,-81 1793,-62 1657,-62"/>
<text text-anchor="middle" x="1725" y="-69" font-family="Helvetica,sans-Serif" font-size="10.00">../Structures/System.hpp</text>
</a>
</g>
</g>
<!-- Node4&#45;&gt;Node17 -->
<g id="edge16" class="edge">
<title>Node4&#45;&gt;Node17</title>
<path fill="none" stroke="midnightblue" d="M974.73,-124.24C977.52,-123.78 980.29,-123.36 983,-123 1276.35,-83.57 1354.14,-122.46 1648,-87 1656.83,-85.93 1666.17,-84.47 1675.19,-82.87"/>
<polygon fill="midnightblue" stroke="midnightblue" points="1675.99,-86.28 1685.19,-81.03 1674.72,-79.4 1675.99,-86.28"/>
</g>
<!-- Node18 -->
<g id="node18" class="node">
<title>Node18</title>
<g id="a_node18"><a xlink:title=" ">
<polygon fill="none" stroke="#bfbfbf" points="1811,-62 1811,-81 1879,-81 1879,-62 1811,-62"/>
<text text-anchor="middle" x="1845" y="-69" font-family="Helvetica,sans-Serif" font-size="10.00">Config.hpp</text>
</a>
</g>
</g>
<!-- Node4&#45;&gt;Node18 -->
<g id="edge17" class="edge">
<title>Node4&#45;&gt;Node18</title>
<path fill="none" stroke="midnightblue" d="M974.73,-124.2C977.52,-123.76 980.29,-123.35 983,-123 1344.35,-76.3 1443.84,-153.87 1802,-87 1805.9,-86.27 1809.92,-85.27 1813.88,-84.13"/>
<polygon fill="midnightblue" stroke="midnightblue" points="1814.97,-87.46 1823.44,-81.09 1812.85,-80.78 1814.97,-87.46"/>
</g>
<!-- Node19 -->
<g id="node19" class="node">
<title>Node19</title>
<g id="a_node19"><a xlink:href="_converter_8hpp.html" target="_top" xlink:title=" ">
<polygon fill="none" stroke="black" points="86.5,-62 86.5,-81 171.5,-81 171.5,-62 86.5,-62"/>
<text text-anchor="middle" x="129" y="-69" font-family="Helvetica,sans-Serif" font-size="10.00">Converter.hpp</text>
</a>
</g>
</g>
<!-- Node4&#45;&gt;Node19 -->
<g id="edge18" class="edge">
<title>Node4&#45;&gt;Node19</title>
<path fill="none" stroke="midnightblue" d="M857.5,-124.42C854.29,-123.89 851.11,-123.41 848,-123 555.91,-84.16 477.27,-131.53 186,-87 180.12,-86.1 173.96,-84.86 167.95,-83.48"/>
<polygon fill="midnightblue" stroke="midnightblue" points="168.61,-80.04 158.07,-81.06 166.95,-86.83 168.61,-80.04"/>
</g>
<!-- Node20 -->
<g id="node20" class="node">
<title>Node20</title>
<g id="a_node20"><a xlink:href="_editor_color_scheme_8hpp.html" target="_top" xlink:title=" ">
<polygon fill="none" stroke="black" points="1216.5,-62 1216.5,-81 1347.5,-81 1347.5,-62 1216.5,-62"/>
<text text-anchor="middle" x="1282" y="-69" font-family="Helvetica,sans-Serif" font-size="10.00">EditorColorScheme.hpp</text>
</a>
</g>
</g>
<!-- Node4&#45;&gt;Node20 -->
<g id="edge21" class="edge">
<title>Node4&#45;&gt;Node20</title>
<path fill="none" stroke="midnightblue" d="M974.79,-124.59C977.56,-124.04 980.31,-123.51 983,-123 1082.09,-104.33 1107.71,-104.57 1207,-87 1214.18,-85.73 1221.74,-84.33 1229.18,-82.93"/>
<polygon fill="midnightblue" stroke="midnightblue" points="1230.04,-86.33 1239.21,-81.02 1228.73,-79.45 1230.04,-86.33"/>
</g>
<!-- Node24 -->
<g id="node24" class="node">
<title>Node24</title>
<g id="a_node24"><a xlink:href="_gui_module_8hpp.html" target="_top" xlink:title=" ">
<polygon fill="none" stroke="black" points="1108,-62 1108,-81 1198,-81 1198,-62 1108,-62"/>
<text text-anchor="middle" x="1153" y="-69" font-family="Helvetica,sans-Serif" font-size="10.00">GuiModule.hpp</text>
</a>
</g>
</g>
<!-- Node4&#45;&gt;Node24 -->
<g id="edge25" class="edge">
<title>Node4&#45;&gt;Node24</title>
<path fill="none" stroke="midnightblue" d="M967.13,-123.48C1010.54,-111.57 1072,-94.72 1112.17,-83.7"/>
<polygon fill="midnightblue" stroke="midnightblue" points="1113.19,-87.05 1121.9,-81.03 1111.33,-80.3 1113.19,-87.05"/>
</g>
<!-- Node25 -->
<g id="node25" class="node">
<title>Node25</title>
<g id="a_node25"><a xlink:href="_structures_8hpp.html" target="_top" xlink:title=" ">
<polygon fill="none" stroke="black" points="1897.5,-62 1897.5,-81 1984.5,-81 1984.5,-62 1897.5,-62"/>
<text text-anchor="middle" x="1941" y="-69" font-family="Helvetica,sans-Serif" font-size="10.00">Structures.hpp</text>
</a>
</g>
</g>
<!-- Node4&#45;&gt;Node25 -->
<g id="edge30" class="edge">
<title>Node4&#45;&gt;Node25</title>
<path fill="none" stroke="midnightblue" d="M974.73,-124.19C977.52,-123.75 980.28,-123.35 983,-123 1382.33,-72.24 1490.19,-148.51 1888,-87 1893.48,-86.15 1899.2,-84.94 1904.78,-83.58"/>
<polygon fill="midnightblue" stroke="midnightblue" points="1905.79,-86.93 1914.57,-81 1904,-80.16 1905.79,-86.93"/>
</g>
<!-- Node19&#45;&gt;Node5 -->
<g id="edge19" class="edge">
<title>Node19&#45;&gt;Node5</title>
<path fill="none" stroke="midnightblue" d="M118.4,-61.98C106.75,-52.61 87.81,-37.38 73.67,-26.01"/>
<polygon fill="midnightblue" stroke="midnightblue" points="75.57,-23.05 65.58,-19.51 71.18,-28.5 75.57,-23.05"/>
</g>
<!-- Node19&#45;&gt;Node13 -->
<g id="edge20" class="edge">
<title>Node19&#45;&gt;Node13</title>
<path fill="none" stroke="midnightblue" d="M139.32,-61.98C150.65,-52.61 169.07,-37.38 182.84,-26.01"/>
<polygon fill="midnightblue" stroke="midnightblue" points="185.22,-28.58 190.7,-19.51 180.77,-23.18 185.22,-28.58"/>
</g>
<!-- Node21 -->
<g id="node21" class="node">
<title>Node21</title>
<g id="a_node21"><a xlink:title=" ">
<polygon fill="none" stroke="#bfbfbf" points="1132.5,-0.5 1132.5,-19.5 1215.5,-19.5 1215.5,-0.5 1132.5,-0.5"/>
<text text-anchor="middle" x="1174" y="-7.5" font-family="Helvetica,sans-Serif" font-size="10.00">imgui&#45;SFML.h</text>
</a>
</g>
</g>
<!-- Node20&#45;&gt;Node21 -->
<g id="edge22" class="edge">
<title>Node20&#45;&gt;Node21</title>
<path fill="none" stroke="midnightblue" d="M1266.53,-61.98C1248.72,-52.17 1219.26,-35.93 1198.37,-24.42"/>
<polygon fill="midnightblue" stroke="midnightblue" points="1199.89,-21.27 1189.45,-19.51 1196.51,-27.4 1199.89,-21.27"/>
</g>
<!-- Node22 -->
<g id="node22" class="node">
<title>Node22</title>
<g id="a_node22"><a xlink:title=" ">
<polygon fill="none" stroke="#bfbfbf" points="1233.5,-0.5 1233.5,-19.5 1286.5,-19.5 1286.5,-0.5 1233.5,-0.5"/>
<text text-anchor="middle" x="1260" y="-7.5" font-family="Helvetica,sans-Serif" font-size="10.00">imgui.h</text>
</a>
</g>
</g>
<!-- Node20&#45;&gt;Node22 -->
<g id="edge23" class="edge">
<title>Node20&#45;&gt;Node22</title>
<path fill="none" stroke="midnightblue" d="M1278.85,-61.98C1275.68,-53.4 1270.7,-39.93 1266.65,-28.98"/>
<polygon fill="midnightblue" stroke="midnightblue" points="1269.9,-27.67 1263.15,-19.51 1263.33,-30.1 1269.9,-27.67"/>
</g>
<!-- Node23 -->
<g id="node23" class="node">
<title>Node23</title>
<g id="a_node23"><a xlink:title=" ">
<polygon fill="none" stroke="#bfbfbf" points="1305,-0.5 1305,-19.5 1401,-19.5 1401,-0.5 1305,-0.5"/>
<text text-anchor="middle" x="1353" y="-7.5" font-family="Helvetica,sans-Serif" font-size="10.00">imgui_internal.h</text>
</a>
</g>
</g>
<!-- Node20&#45;&gt;Node23 -->
<g id="edge24" class="edge">
<title>Node20&#45;&gt;Node23</title>
<path fill="none" stroke="midnightblue" d="M1292.17,-61.98C1303.35,-52.61 1321.52,-37.38 1335.09,-26.01"/>
<polygon fill="midnightblue" stroke="midnightblue" points="1337.43,-28.61 1342.85,-19.51 1332.93,-23.25 1337.43,-28.61"/>
</g>
<!-- Node24&#45;&gt;Node14 -->
<g id="edge26" class="edge">
<title>Node24&#45;&gt;Node14</title>
<path fill="none" stroke="midnightblue" d="M1138.24,-61.98C1121.34,-52.21 1093.42,-36.08 1073.51,-24.58"/>
<polygon fill="midnightblue" stroke="midnightblue" points="1075.14,-21.48 1064.73,-19.51 1071.64,-27.54 1075.14,-21.48"/>
</g>
<!-- Node24&#45;&gt;Node21 -->
<g id="edge27" class="edge">
<title>Node24&#45;&gt;Node21</title>
<path fill="none" stroke="midnightblue" d="M1156.01,-61.98C1159.03,-53.4 1163.79,-39.93 1167.65,-28.98"/>
<polygon fill="midnightblue" stroke="midnightblue" points="1170.97,-30.1 1171,-19.51 1164.37,-27.77 1170.97,-30.1"/>
</g>
<!-- Node24&#45;&gt;Node22 -->
<g id="edge28" class="edge">
<title>Node24&#45;&gt;Node22</title>
<path fill="none" stroke="midnightblue" d="M1168.33,-61.98C1185.97,-52.17 1215.16,-35.93 1235.86,-24.42"/>
<polygon fill="midnightblue" stroke="midnightblue" points="1237.66,-27.43 1244.7,-19.51 1234.26,-21.31 1237.66,-27.43"/>
</g>
<!-- Node24&#45;&gt;Node23 -->
<g id="edge29" class="edge">
<title>Node24&#45;&gt;Node23</title>
<path fill="none" stroke="midnightblue" d="M1181.66,-61.98C1216.56,-51.59 1275.65,-34.01 1314.5,-22.45"/>
<polygon fill="midnightblue" stroke="midnightblue" points="1315.81,-25.72 1324.4,-19.51 1313.82,-19.01 1315.81,-25.72"/>
</g>
</g>
</svg>
